<svg id="Layer_2" data-name="Layer 2" xmlns="http://www.w3.org/2000/svg" viewBox="0 0 720 720"><defs><style>.cls-1{fill:#3fc38f;}.cls-2{fill:#2a3141;}.cls-3{fill:#fff;}</style></defs><title>body-1</title><path class="cls-1" d="M232.16,159.63c4,3.92,14.92,9,17.29,14.08,2.14,4.55.46,9.94-1.69,14.48s-4.84,9.14-4.69,14.17"/><path class="cls-2" d="M242.05,192.73c-.27.09-.26.38,0,.71s.3.44-.12.54a.67.67,0,0,0-.42.91c.07.16.06.25,0,.29a.33.33,0,0,0-.15.31.72.72,0,0,1-.31.51c-.51.43-.55.53-.4.81a.74.74,0,0,1-.07.89c-.13.19-.12.26,0,.38s.22.33-.05.38-.3.21-.08.33.13.12,0,.19-.1.15,0,.19a1.39,1.39,0,0,1,.07.53c0,.24,0,.5,0,.6s-.09.22-.22.29-.23.19-.19.38a1.46,1.46,0,0,1,0,.62.56.56,0,0,0,.26.47c.37.3.8.36,2,.32a4.8,4.8,0,0,0,1.37-.15l.55-.11,0-.39a3.15,3.15,0,0,1,.11-.62.32.32,0,0,0-.08-.37c-.13-.11-.11-.17.07-.34a.71.71,0,0,0,.22-.29s0-.38.06-.74.13-.69.28-.76.17-.12.05-.27-.07-.63.17-.63.43-.09.25-.46a2.43,2.43,0,0,1-.32-.88,1,1,0,0,1,.32-.12c.25-.06.31-.13.36-.38a.6.6,0,0,1,.27-.43c.18-.09.2-.16.14-.32a2.49,2.49,0,0,1,.27-1.17c.37-.95.39-1,.69-.95s.3,0,.41-.37.08-.42-.06-.56-.18-.33.28-.91a1.21,1.21,0,0,0,.3-.65.28.28,0,0,1,.15-.31.2.2,0,0,0,.1-.28c0-.15,0-.23.17-.3s.24-.15.25-.2.13-.39.26-.74c.19-.55.27-.67.48-.71s.24-.1.22-.2a1.24,1.24,0,0,1,0-.33,1.91,1.91,0,0,0,0-.42c0-.19,0-.23.21-.21s.35-.11.18-.32.38-1.58.65-1.71.19-.17.13-.53a1.24,1.24,0,0,1,.38-1.29.71.71,0,0,0,.23-1.05.46.46,0,0,1-.14-.49,15.69,15.69,0,0,0,.29-1.74c.1-.81.15-1.63.19-1.79a.84.84,0,0,0,0-.6,1.69,1.69,0,0,1-.08-.86,3,3,0,0,0-.11-1.09,2.81,2.81,0,0,1-.11-.86,6.06,6.06,0,0,0,.09-.73c0-.19,0-.39-.11-.43l-.39-.22c-.19-.09-.27-.18-.25-.32a6.32,6.32,0,0,0-.59-1.12l-.72-1-.91-1a26.54,26.54,0,0,0-3.39-2.86,7.51,7.51,0,0,1-.58-.58,1.64,1.64,0,0,0-.64-.48,5.77,5.77,0,0,1-1.2-.73c-.56-.4-1.17-.8-1.36-.92s-.33-.26-.32-.51-.13-.57-.72-1a3,3,0,0,1-.59-.63,1.31,1.31,0,0,0-.71-.53,11.17,11.17,0,0,1-1.33-.76,5,5,0,0,0-1.08-.61c-.28-.07-.31-.11-.29-.37s0-.32-.26-.45c-.9-.47-1.54-1.2-1.4-1.5s0-.39-.23-.22-.16.12-.17.11a2.53,2.53,0,0,0-.42.29,10.2,10.2,0,0,0-1.11,1,5.72,5.72,0,0,0-.94,1.08c-.3.46-.44.88-.34.92s.09.14.1.28.07.25.3.27.58.32.86.89c.12.26.2.31.32.27.38-.16.66,0,.78.29a2.63,2.63,0,0,1,.14.5c0,.1.22.32.46.49.4.28.48.3.64.17s.26-.1,1,.45.82.64.81.83.21.59.49.53.52.1.68.6a1.22,1.22,0,0,0,.48.66,4.06,4.06,0,0,1,.69.65,1.18,1.18,0,0,0,.82.53c.56.12.82.29,1,.62a9.43,9.43,0,0,0,1.76,1.48c1.38,1.07,1.53,1.31,1.54,1.53s.14.38.55.36a3.78,3.78,0,0,1,1.47,1.25c.15.36.41.58.54.51s.26,0,.14.2a.43.43,0,0,0,0,.25c0,.13.08.3.12.55a12,12,0,0,1,.31,1.77,2.73,2.73,0,0,1-.09,1.09c-.19.44-.18.84.12,1.07s.3.49-.06.69-.46.54-.24.8.09.21-.15.41-.27.3-.24.45a7.51,7.51,0,0,1,0,1.24.43.43,0,0,1-.17.08.69.69,0,0,0-.21.86c.13.21.11.25-.19.46s-.32.22-.12.47.22.25-.35.59c-.22.14-.22.37,0,.58s.13.3-.14.26-.34.08-.21.19,0,.12-.16.18-.21.14-.06.32.2.53-.13.52-.51.31-.51.77c0,.2-.05.28-.22.32s-.21.08-.06.22c.42.41.42.41,0,.34s-.47,0-.28.21.14.3-.17.34-.48.36-.22.6.23.32-.12.28-.41.06-.22.35,0,.54-.32.64-.31.18-.49.67-.18.66-.1.74.08.13-.1.11A1.5,1.5,0,0,0,242.05,192.73Z"/><path class="cls-1" d="M237.63,543.25A48.39,48.39,0,0,0,275,564.14c1.52.06,3.19,0,4.36-1a6.7,6.7,0,0,0,1.7-2.8c1.78-4.51,3.54-9.71,1.3-14-1.4-2.69-4.11-4.41-6.69-6l-7.75-4.78c-1.88-1.16-3.85-2.43-4.76-4.44-1.72-3.85,1.23-8,3.84-11.37a117.22,117.22,0,0,0,16.84-29.41c2-5,3.6-10.45,2.34-15.66-.94-3.85-3.36-7.15-5.73-10.33l-4.84-44.1-26.44-52.88-69.88,83.1-1.89,94.43,32.11,22.66,13.88-7.18a23.61,23.61,0,0,0,21.09-6.63"/><path class="cls-2" d="M174.43,532.28a21.35,21.35,0,0,0,.17,6.19,12.28,12.28,0,0,1,0,5.37c0,.24-.08.52-.12,1l-.1,1.28,1.34,1.16a49.75,49.75,0,0,0,6.94,4.87,12.06,12.06,0,0,1,2.26,1.54,27.55,27.55,0,0,0,2.6,1.88,54,54,0,0,1,4.39,3.27c4,3.27,4.74,3.81,6.56,4.82a52.49,52.49,0,0,1,6.64,4.5,11.3,11.3,0,0,0,2.72,1.78l2.12.87.9-.66,0,0a7.69,7.69,0,0,1,3-1.6,6.51,6.51,0,0,0,2.69-1.37,3.85,3.85,0,0,1,1.46-.82,8.88,8.88,0,0,0,1.56-.79c.28-.2,2-1.19,3.94-2.19l1.07-.57-1.77.26a27.28,27.28,0,0,0,4.59.4c.89,0,2.25,0,3.05,0a11.35,11.35,0,0,0,3.85-.55c1.41-.42,2.14-.72,2.86-1s1.43-.57,2.72-1.21a14.61,14.61,0,0,0,3.68-2.63,6.48,6.48,0,0,0,1.77-2.43,1.32,1.32,0,0,0-.41-1.46c-.57-.56-.65-.55-1.81-.16-.39.13-.81.22-1.21.33a20.81,20.81,0,0,1-3.43,2.31,22,22,0,0,1-6.46,2.29c-1.68.29-3.13.43-3.9.54a8.65,8.65,0,0,1-3.66-.25l-.86-.22-.36-.11-.51.24c-1.15.51-2.05.93-2.41,1.12l-7.51,4c-2.42,1.28-4.16,2.19-4,2.07l1.41.1c-2.52-1.8-3.24-2.36-3.7-2.76a11.26,11.26,0,0,0-2.59-1.82,35.81,35.81,0,0,1-6-4.22c-.71-.94-1.77-1.72-4.61-3.38-3.68-2.15-6.37-3.77-7-4.19-.25-.18-1.09-.92-1.86-1.63a30.08,30.08,0,0,0-4.2-3.21c-.8-.54-1.64-1.13-2.16-1.53l.61,1.22c0-1.28.1-2.18.16-2.8a19.6,19.6,0,0,0,.08-3.79c-.08-1.1-.06-5.81,0-12.88.17-10.88.18-11.17.47-12.3s.31-1.49.33-5.43c0-3.45,0-4.42-.2-5.05-.26-.93-.25-2.32.06-10,.12-3.13.18-6.2.13-7.46a28.7,28.7,0,0,1,.07-3.58,18.69,18.69,0,0,0,0-3.1,18.52,18.52,0,0,1,.08-3.61c.11-1.08.2-2.42.2-3s0-4.18.08-8.06a68.35,68.35,0,0,1,.31-8.54,13.2,13.2,0,0,0,.18-2.73c0-.48-.05-1.3-.06-2.16l-.36,1,.6-.75c.64-.8,1.74-2.2,2.43-3.11a7.62,7.62,0,0,1,1.88-2.07,9,9,0,0,0,2.39-2.77c.68-1.16,10.25-12.51,11.78-14a30.49,30.49,0,0,0,3.39-4.11,105.67,105.67,0,0,1,8.55-10.13,57,57,0,0,0,6.73-8,26,26,0,0,1,2.69-3.57L232,389.9c5.11-6,10.12-11.91,11.13-13s2.59-3,3.6-4.31c.8-1,1.89-2.36,3.54-4.28l-2.32-.28,1.06,2.27c1.21,2.58,3.18,6.63,4.39,9s2.71,5.52,3.36,7,1.69,3.9,2.32,5.36,1.39,3,1.68,3.5,1,1.66,1.64,2.63a18.52,18.52,0,0,1,1.61,3.06c.06.14.7,1.45,2.26,4.6L274,421.06l-.18-.6c.74,6.74,3.43,31.48,4.81,44.11l.06.5.29.38c3.87,5,4.82,7.51,5.3,9.16a13.28,13.28,0,0,1,.45,2.72,17.76,17.76,0,0,1-.35,4.58,55.76,55.76,0,0,1-2.2,7.35,95,95,0,0,1-5.86,12.89,117.59,117.59,0,0,1-8.93,14,39.84,39.84,0,0,1-3.68,4.47,13.84,13.84,0,0,0-2.44,3.56,10.75,10.75,0,0,0-1.11,4.13,8.29,8.29,0,0,0,.42,3.13,8.63,8.63,0,0,0,1.93,3.19,22.12,22.12,0,0,0,4.41,3.38c1.33.87,2.52,1.66,3.24,2.15.9.62,2,1.31,3.27,2.12s2.82,1.69,4.24,2.79a9.63,9.63,0,0,1,1.75,1.75,6.24,6.24,0,0,1,1.14,2.64c.42,2.12-.23,5-1.09,7.41-.22.61-.45,1.24-.69,1.87s-.49,1.29-.69,1.68a1.88,1.88,0,0,1-.48.68,1.29,1.29,0,0,1-.63.27,9.47,9.47,0,0,1-2.53.07l-2-.1c-1.37-.14-2.21-.21-2.86-.35a12.75,12.75,0,0,1-1.8-.55c-.63-.21-1.14-.45-1.85-.65l-1.22-.35-1.68-.52a42.89,42.89,0,0,1-13-6.87,28.89,28.89,0,0,1-5.73-5.59c-.73-1.13-2-2.82-2.53-3a1.7,1.7,0,0,1-.55-.43,3.14,3.14,0,0,0-1.05-.61c-.78-.31-1-.3-1.72.22s-.83.63-.68,1.51a9.37,9.37,0,0,0,.64,2,7.67,7.67,0,0,0,1,1.63c.28.34,1,1.23,1.59,2a13.68,13.68,0,0,0,2.8,2.79,88.73,88.73,0,0,0,10.11,7.3,16.41,16.41,0,0,0,3.88,1.88c2.15.52,4.91,1.51,7.93,2.42.79.28,1.67.48,2.41.69s1.36.38,1.69.45,1.26.26,2.52.42a26.44,26.44,0,0,0,4.68.19,6.28,6.28,0,0,0,3.81-1.64,6.68,6.68,0,0,0,1.37-2,5,5,0,0,0,.48-1.64,9.36,9.36,0,0,1,.63-2.23c.24-.75.6-1.77,1-3.28a16.23,16.23,0,0,0,.39-6.29,10.58,10.58,0,0,0-2.6-5.46,18.6,18.6,0,0,0-2.79-2.51c-1.5-1.1-2.19-1.55-2.57-1.89a35.2,35.2,0,0,0-6.1-4,25.81,25.81,0,0,1-3.4-2,5.36,5.36,0,0,1-2.45-3.29c-.25-1.65.47-3.46,1.87-5.68a40.55,40.55,0,0,1,2.66-3.56c1.17-1.44,2.35-3,3.33-4.31a62.87,62.87,0,0,0,5.68-8.93c2.72-5.2,4.11-8.24,5.67-11.2a74.33,74.33,0,0,0,3-7.06,36,36,0,0,0,2-7.81,20.89,20.89,0,0,0,0-5.36,18.94,18.94,0,0,0-1.85-5.9,45.72,45.72,0,0,0-4.32-6.73l-.17-.23-.08-.1,0-.05v0h0l.49,1.24h0v0l-.05-.42,0-.45c0-.06,0,0,0,.13l0,.29,0,.22,0,.12v.1h0c-.22-.56.5,1.25-.49-1.25l.49,1.25c-1.43-13.31-1.59-15.2-1.59-16.33a40.13,40.13,0,0,0-.95-7.65c-.27-1.34-1.78-14-2.43-20.11l0-.42-.2-.4-1.61-3.27a92.72,92.72,0,0,0-4.57-8.87,10.87,10.87,0,0,1-1.68-3.3c-.34-1-7.51-15.81-16-33l-2.24-4.58-1.86-3.81L247,365.58c-3.32,3.89-5.5,6.4-6.38,7.36A117.53,117.53,0,0,0,231.51,384a39.5,39.5,0,0,1-5.73,6.8,63,63,0,0,0-6.78,7.86,28.65,28.65,0,0,1-3.55,4.12,56.91,56.91,0,0,0-3.95,4.48l-9,11.27c-.1.12-.57.58-1,1a82,82,0,0,0-6.63,8,28,28,0,0,1-3.73,4.4c-2.55,2.69-2.6,2.75-3.6,4.36s-.88,1.5-5.05,5.84a25.41,25.41,0,0,0-3.76,4.81,7.93,7.93,0,0,1-1.4,1.89l-.49.48-.11,1.14a4.73,4.73,0,0,1-.2,1,7.74,7.74,0,0,0-.18,2.93,16.85,16.85,0,0,1-.11,2.53,10.56,10.56,0,0,0,0,3.51,18.09,18.09,0,0,1,0,5.85,57.13,57.13,0,0,0-.32,9.78,25.23,25.23,0,0,1-.14,4.14,4.81,4.81,0,0,0,0,2.35c.52,1.92.52,2,.12,3a5.17,5.17,0,0,0-.22,3.23,10.41,10.41,0,0,1-.08,4,21.29,21.29,0,0,0-.07,6.52,5.06,5.06,0,0,1-.05,3.19,9.33,9.33,0,0,0-.13,4.17,31.17,31.17,0,0,1-.16,7.21,68.6,68.6,0,0,0-.32,8.18c-.06,4.35,0,6.65.06,7.1a2,2,0,0,1-.07,1.35A13.2,13.2,0,0,0,174.43,532.28Z"/><path class="cls-1" d="M252.4,394.26c7.54,5.74,10,16.06,10,25.53s-1.75,19-.45,28.39c.36,2.61.95,5.17,1.55,7.74a15,15,0,0,0,1.91,5.19c2.52,3.65,7.68,4.32,12.08,3.73,2.68-.35,5.46-1.12,7.36-3,2.09-2.12,2.75-5.22,3.32-8.14,4.73-24.42,6.6-57.05-8-78.84-3.75-5.61-8.41-10.59-11.88-16.37a78.46,78.46,0,0,1-6.95-16.26c-9.5-29.21-12.61-60.06-15.67-90.63L242.07,215a47.19,47.19,0,0,1-.17-11.87c1.52-9.8-.28-11.7-4.07-20.86-1.41-3.39.81-16.42-1.89-18.89-4.46-4.08-4.49-5.46-8.95-9.54-5-4.61-10.22-9.31-16.48-12.06s-13.93-3.27-19.71.4l-.61-.11c-15-5.4-32.62,2.47-41.46,15.72s-10,30.49-6.43,46c2.51,11,7.18,21.56,8,32.8,1,12.83-3.06,25.44-6.08,37.95-7.14,29.61-8.63,60.24-10.1,90.66-2.47,51.27-4,100.66-2.29,152v3.25c-.51,5.44-3,8.31-6.23,12.72-1.9,2.6-4.36,5.35-3.92,8.54s3.37,5.07,6,6.67l20,11.92c8.45,5,20.3,6.08,29.64,9.16s16.08,8.14,26,9c5.87.52,11.88,1,17.59-.48a8.12,8.12,0,0,0,3.77-1.83c1.66-1.6,1.95-4.16,1.76-6.45-.7-8.35-6.83-15.77-14.61-18.88-3.1-1.24-7.21-2.91-6.87-6.24a5.19,5.19,0,0,1,1.45-2.83,17.44,17.44,0,0,1,5.08-3.56c5.8-3,12.07-4.88,18-7.65s11.57-6.6,14.81-12.24c3.77-6.56,3.72-14.72,1.91-22.07a51.33,51.33,0,0,0-14.37-24.76"/><path class="cls-2" d="M178.76,573.37a111.1,111.1,0,0,0,11.88,4.8l5.31,1.51a61.73,61.73,0,0,0,6.26,1.52c.63.12,1.29.21,2,.3l2.3.27c1.65.16,3.5.29,5.43.31a38.7,38.7,0,0,0,5.88-.37c1-.14,1.9-.33,2.79-.55a20.85,20.85,0,0,0,2.59-.8,9.64,9.64,0,0,0,3.95-2.7,9.81,9.81,0,0,0,1.7-3,11,11,0,0,0,.58-3.52,12.64,12.64,0,0,0-.14-2.29l-.15-1.16-.25-1.12a27.54,27.54,0,0,0-11.32-16.36,25.91,25.91,0,0,0-4.32-2.35c-1.13-.47-1.92-.78-2.67-1.12a12.31,12.31,0,0,1-1.9-1,3.17,3.17,0,0,1-.54-.48A.4.4,0,0,1,208,545c0-.11,0-.18.08-.45a3.62,3.62,0,0,1,.69-.93,11.43,11.43,0,0,1,2.8-2.07,43.35,43.35,0,0,1,4.12-2c3.54-1.47,4.75-1.92,6.16-2.68a42,42,0,0,1,6.75-2.77,20.62,20.62,0,0,0,5.93-2.9,31.23,31.23,0,0,1,3.13-2,19.82,19.82,0,0,0,3.17-2.4c.27-.28,1.29-1.16,2.55-2.58a25.22,25.22,0,0,0,6.16-12.63,31,31,0,0,0,.49-4.89c.07-1.81,0-4.54-.11-6.14a28.32,28.32,0,0,0-1.47-7.54,55.92,55.92,0,0,0-2.09-5.58,57.69,57.69,0,0,0-2.56-5.25,38.23,38.23,0,0,0-5.15-7.23,20,20,0,0,0-4.36-3.86c-1-.56-1.56-.53-2-.1s-.5.67.75,2.71c.44.7.84,1.43,1.23,2.15a50.18,50.18,0,0,1,5.19,7.26,48.92,48.92,0,0,1,3.49,7.23,50.6,50.6,0,0,1,2,6.45,52.63,52.63,0,0,1,1.2,8.33,17,17,0,0,1,0,3.11,20.9,20.9,0,0,1-.93,4.57,25,25,0,0,1-1.61,3.85,23.43,23.43,0,0,1-1.52,2.44,22.93,22.93,0,0,1-3.82,4.25,40,40,0,0,1-9.47,6c-5.18,2.39-9.11,3.74-11.89,4.91s-4.52,1.91-5.7,2.43a20.22,20.22,0,0,0-3.13,1.64,12,12,0,0,0-2.7,2.4,8.78,8.78,0,0,0-1.21,1.83,5.27,5.27,0,0,0-.51,2.82,5.09,5.09,0,0,0,1.25,2.82A9,9,0,0,0,207,550a30.25,30.25,0,0,0,4,2,12.18,12.18,0,0,1,2.08,1.08c.9.65,1.87,1.34,3.23,2.35a26.85,26.85,0,0,1,5.07,5,19.77,19.77,0,0,1,4,9.59,10,10,0,0,1-.12,3.29,4.88,4.88,0,0,1-.64,1.56,3.62,3.62,0,0,1-1.18,1.08,7.85,7.85,0,0,1-2.6.88,40.79,40.79,0,0,1-4.3.59,52.31,52.31,0,0,1-6.26.17c-2,0-4.22-.22-6.21-.42a29,29,0,0,1-4.81-.83c-3.11-.87-4.65-1.47-7.26-2.39-1.07-.35-3.79-1.57-8.05-3.4a70.21,70.21,0,0,0-7.68-2.8c-3-.88-6.3-1.63-9.89-2.46a92.13,92.13,0,0,1-12.6-3.51c-.75-.28-1.42-.59-2.05-.84l-1.68-.81c-1-.55-1.81-1-2.52-1.45a40,40,0,0,1-4.36-2.88c-1.79-1.36-2.55-1.84-9.63-6-3.09-1.83-5.16-3-6.39-3.74s-1.8-1.22-2.28-1.55a4.32,4.32,0,0,1-1.08-1.07,3.91,3.91,0,0,1-.81-2.41c0-1.14.54-2.71,2-4.69l2.58-3.43a51.62,51.62,0,0,0,3.18-4.54,17.75,17.75,0,0,0,2-4.45,19.77,19.77,0,0,0,.6-3.25v-.13c0-4.34-.15-6.66-.2-8-.15-2.73-.24-5.63-.19-7.5,0-2,0-4.19-.17-6.46-.15-2.59-.17-4.41-.1-7.53.05-2.26.1-5,.08-6.21s-.12-8.72-.13-16.82c0-12.21.1-15.24.29-17.82.17-2,.24-4,.21-5.7,0-1.44,0-4.36,0-6.51l0-8.24a33.06,33.06,0,0,1,.26-5.83,39.85,39.85,0,0,0,.27-7.63c-.07-1.38.14-9.82.48-18.45s.8-17.47,1-19.66c.25-2.5.33-4.48.48-11.11.22-10.56.78-21.28,1.48-27.62.75-7.2,1.57-17.19,1.73-21.74.07-2.63.29-5.13.78-9.26a311,311,0,0,1,6.36-35c2-8,4.17-15.93,5.12-22.46a66.91,66.91,0,0,0,.82-13.1,47.68,47.68,0,0,0-.59-5.92c-.34-2.12-.83-4.21-1.27-5.91-1-3.91-2.76-9.39-4.68-16.23A102.15,102.15,0,0,1,143,199.54a74.16,74.16,0,0,1-1-10,58.16,58.16,0,0,1,.35-8.69,48.56,48.56,0,0,1,1.3-7,49.91,49.91,0,0,1,1.85-5.61c.41-1,.79-2,1.25-2.85s.83-1.72,1.24-2.4c.74-1.4,1.66-2.78,2.41-4l1.8-2.49,1.61-2.07c.75-.81,1.56-1.79,2.39-2.57l1.5-1.42c.47-.42,1-.76,1.39-1.1a17.18,17.18,0,0,1,2.57-1.69,32.85,32.85,0,0,1,5.12-2.67c1-.47,2.16-.84,3.54-1.34a37.63,37.63,0,0,1,4.92-1.14,11.32,11.32,0,0,1,1.47-.2l1.57-.14c.53-.07,1.09,0,1.66,0s1.16,0,1.76,0a30.49,30.49,0,0,1,7.87,1.58l.29.07-.42-.11.11,0,.31.08h.1l.15,0,.36.06.67.12.58-.37a16.18,16.18,0,0,1,8.53-2.31,22.92,22.92,0,0,1,6.43,1,29.3,29.3,0,0,1,6.95,3.15,54.58,54.58,0,0,1,7,5.18c1.17,1,2.34,2,3.53,3.12s2.4,2.16,3.48,3.29,2.08,2.36,3.21,3.72a40.82,40.82,0,0,0,3.71,3.85l.12.11v0a.1.1,0,0,1,.05.06,2.25,2.25,0,0,1,.14.25,5.11,5.11,0,0,1,.27.9,15.82,15.82,0,0,1,.3,2.3c.1,1.64.09,3.35.06,5.08s-.07,3.5,0,5.32a21.35,21.35,0,0,0,.24,2.87c.05.26.11.53.19.82a5.57,5.57,0,0,0,.29.81l.51,1.22c1.34,3.23,2.9,6.33,3.53,9.29a25.93,25.93,0,0,1-.18,9.24,41.2,41.2,0,0,0-.06,9.79c1.2,12,2.2,21.86,2.76,27.47.19,2,.9,9.64,1.59,17s1.48,14.93,1.75,16.77,1.75,15.31,4.22,29.89c1.22,7.29,2.76,14.84,4.3,21.1s3,11.26,3.68,13.53c2.1,6.87,2.83,8.8,3.65,11.56a47.07,47.07,0,0,0,3.21,7.71,55.27,55.27,0,0,0,3.88,6.26c1.68,2.4,3.83,5.09,6.24,8.29.95,1.27,1.93,2.63,2.84,4s1.71,2.85,2.46,4.24l1.9,4c.46,1.24.86,2.32,1.17,3.14a90.29,90.29,0,0,1,4.3,18.33A106.23,106.23,0,0,1,288.9,421a159.63,159.63,0,0,1-1.15,18.3c-.19,1.41-.37,2.84-.56,4.27s-.44,2.85-.66,4.24-.49,2.77-.72,4.11-.47,2.63-.74,3.73a8.7,8.7,0,0,1-2.28,4.56,7.84,7.84,0,0,1-2.84,1.53,16.39,16.39,0,0,1-3.23.69,14.61,14.61,0,0,1-2.28.1,9.48,9.48,0,0,1-3.36-.66,7.81,7.81,0,0,1-2.56-1.59,5.42,5.42,0,0,1-1-1.44,14.39,14.39,0,0,1-1-3.07,80.11,80.11,0,0,1-1.69-8.25,55.1,55.1,0,0,1-.42-8.12c.1-5.41.67-10.7.87-15.49a62.31,62.31,0,0,0-.48-12.4,56.62,56.62,0,0,0-1.34-6.38,22.23,22.23,0,0,0-2.05-5.33,20,20,0,0,0-1.36-2.2,8.41,8.41,0,0,0-1-1.2c-.35-.33-.94-.85-1.24-1.21a10,10,0,0,0-2.31-1.67c-1.63-.78-1.85-.76-2.41,0s-.52.93.48,2.28c.31.51.7,1,1.06,1.6s.76,1.17,1.08,1.8l.51.89.45.87c.31.55.55,1.08.79,1.5a20.82,20.82,0,0,1,1.74,4.62c.66,2.71,1,4.09,1.54,7.54a50.66,50.66,0,0,1,.28,9.83c-.18,4.21-.81,9.3-1.06,15.26a36.63,36.63,0,0,0,.5,9c.48,2.23,1.16,4.8,1.85,7.57a22.66,22.66,0,0,0,1.44,4.51,9.56,9.56,0,0,0,3.64,4,13.81,13.81,0,0,0,5.35,1.83,22.41,22.41,0,0,0,3.81.2,19.83,19.83,0,0,0,5.53-1,11,11,0,0,0,4.3-2.65,12.12,12.12,0,0,0,2.75-4.82,50.7,50.7,0,0,0,1.39-6.3c.29-1.6.5-2.81.62-3.74a26.19,26.19,0,0,0,.33-3.28,40.47,40.47,0,0,1,.44-4.74,172.8,172.8,0,0,0,1.26-19,127.48,127.48,0,0,0-1.15-18.41c-.63-3.69-.85-5.42-1.06-6.45s-.38-2.13-.64-3.41-.72-2.63-1.12-4a36.11,36.11,0,0,0-1.46-4,26.58,26.58,0,0,0-1.56-3.39c-.62-1.14-1.25-2.32-1.93-3.58s-1.55-2.5-2.4-3.91c-1.78-2.76-4.05-5.78-6.69-9.45-1.55-2.19-3-4.29-4.35-6.51a59.92,59.92,0,0,1-3.71-7.26c-1.91-4.21-4.68-13.12-6.32-19.54-.59-2.38-1.09-4.41-1.55-6.22s-.79-3.44-1.15-5c-.68-3.1-1.35-5.93-2.13-9.69-1.24-5.83-2-10.46-2.66-14.46s-1-7.4-1.38-10.78c-.2-1.83-.76-6.9-1.71-15.48S248,248.93,246.44,233c-.51-5-1-9.55-1.36-13.61s-.83-7.68-.92-10.68a30.49,30.49,0,0,1,.14-4.15q0-.48.12-.93l.14-1c.11-.68.19-1.35.25-2a25.73,25.73,0,0,0-.07-7,26.38,26.38,0,0,0-1.39-5c-.49-1.29-.92-2.28-1.26-3.12-.69-1.67-1.08-2.67-1.37-3.48l-.27-.75a.83.83,0,0,1,0-.14l0-.19a11.59,11.59,0,0,1-.11-1.26c-.05-1-.05-2.16-.05-3.43s0-2.67,0-4.22a41.68,41.68,0,0,0-.37-5.22c0-.23-.08-.61-.18-1.14a10.82,10.82,0,0,0-.61-2.15,5.92,5.92,0,0,0-1-1.66l-.23-.24-.18-.17-.21-.19-.43-.4c-.59-.55-1.22-1.17-1.85-1.85s-1.29-1.46-2-2.36-1.6-1.87-2.53-2.8c-1.9-1.89-3.83-3.56-5.91-5.4-4.13-3.61-8.93-7.17-13.87-9.17a27.39,27.39,0,0,0-12.5-2.05,21.08,21.08,0,0,0-5,1,20.1,20.1,0,0,0-3.88,1.85l1.76-.35-.61-.11.42.11a32.83,32.83,0,0,0-8.93-1.75c-1.12-.06-2,0-2.67,0a5.72,5.72,0,0,0-1.19.1c-.49.16-1.8.28-3.33.51-.77.14-1.59.28-2.42.41l-2.36.5-.82.19-1.51.5a37.32,37.32,0,0,0-4.89,2,42.49,42.49,0,0,0-6.66,4.1,41,41,0,0,0-7.28,6.9,50.32,50.32,0,0,0-10.21,22.82,71.9,71.9,0,0,0,1.11,29.47c1.54,6.46,3.72,12.83,5.12,18.15a69,69,0,0,1,2.25,11.51,64.93,64.93,0,0,1-.86,16.62c-.81,5-1.79,9.15-2.32,12-.6,3.11-1.28,6.08-2,9.06-.37,1.49-.74,3-1.11,4.49s-.79,3.05-1.2,4.62A147.79,147.79,0,0,0,136,303.5c-.28,3.22-.53,4.89-1.43,11.35-.71,5.29-1.09,9.06-1.29,12.48-.14,2-.57,8.93-.89,15.69s-.57,13.31-.62,14.5c0,.33-.15,1.68-.29,3-.39,3.64-1,16.77-.94,21.64,0,3.84,0,4.91-.53,12-.51,7.72-.53,7.9-.39,11.82.15,4.22.15,3.58-.62,16.13a104.54,104.54,0,0,0-.11,12.76,32.69,32.69,0,0,1-.17,7,33.54,33.54,0,0,0-.22,6.12c.05.38,0,2.77-.14,5.31a47,47,0,0,0,0,7.33A81.39,81.39,0,0,1,128.4,473c-.28,2.8-.32,11.28,0,20.47.13,3.94.16,6.17.09,8.65a20.9,20.9,0,0,0,.15,4.93c.66,4,.67,4.08.36,6.31a25,25,0,0,0,0,6.72l0,.43v-.26a9.46,9.46,0,0,1-.42,2.94,11.32,11.32,0,0,1-1.7,3.24c-.58.82-1.31,1.76-2.11,2.79s-1.65,2.15-2.38,3.14a25.34,25.34,0,0,0-2.13,3.23,9.41,9.41,0,0,0-1.06,2.87,10.82,10.82,0,0,0,.13,4.59,12.09,12.09,0,0,0,2.21,4.27,13.49,13.49,0,0,0,3.39,3,48.47,48.47,0,0,0,4.36,2.38,135.82,135.82,0,0,1,12.94,7.74c.61.41,1.25.83,2,1.31l1.24.78.71.44.87.5a38.68,38.68,0,0,0,4.58,2.17,67.05,67.05,0,0,0,6.8,2.2c4.54,1.2,7.93,1.87,10.29,2.41s3.71.84,4.17.9a7.55,7.55,0,0,1,2.6.81Z"/><path class="cls-1" d="M174.15,359.83a154.1,154.1,0,0,0,30,21.51c2.83,1.56,5.77,3.06,8,5.38,4.37,4.51,5.39,11.31,5.15,17.59s-1.51,12.56-.77,18.8a30.16,30.16,0,0,0,17.26,23.49,3.34,3.34,0,0,0,1.5.38c1.75-.12,2.15-2.5,2.07-4.25a162.62,162.62,0,0,1,3.22-40.22c1.34-6.46,3.07-13.19,1.31-19.55-1.33-4.79-4.5-8.81-7.65-12.66-15.19-18.6-31.94-37.46-37.16-60.91"/><path class="cls-2" d="M219.43,346.63a4.92,4.92,0,0,0-2-2.22,2.89,2.89,0,0,1-1.57-2.06,13,13,0,0,0-2.5-3.81,2.86,2.86,0,0,1-.76-1.06,6.51,6.51,0,0,0-.8-1.31,13.14,13.14,0,0,1-1.24-2.31c-1-2.27-1.1-2.68-1.8-3.42a10,10,0,0,1-1.92-3.28c-.33-.85-.48-1.09-.8-1.34a1.68,1.68,0,0,1-.72-1.46,1.53,1.53,0,0,0-.56-1.31c-.2-.12-.3-.3-.38-.7a1.87,1.87,0,0,0-.32-.76,12,12,0,0,1-.92-1.92l-1-2.33a3.55,3.55,0,0,1-.21-1.28,3.35,3.35,0,0,0-.34-1.6,11,11,0,0,1-.77-2.38,6.11,6.11,0,0,0-.72-1.76c-.67-1.1-1.17-1.34-2.37-1.08-.78.17-.82.2-1.19.85l-.39.69.52,2.12c.25,1.17.75,2.72.95,3.48a8.47,8.47,0,0,0,.73,1.94,4.27,4.27,0,0,1,.66,1.81c.16.69.37,1.47.47,1.73s.87,2,1.73,3.84a33.65,33.65,0,0,1,1.88,4.1,2.61,2.61,0,0,0,.73,1.39,8.9,8.9,0,0,1,1.76,3.16c0,.67.28,1.23,1.36,2.47,1.38,1.62,2.43,2.78,2.62,3.07a8.11,8.11,0,0,1,.44,1.16,6.63,6.63,0,0,0,1.29,2.27,15.33,15.33,0,0,1,1.44,2.26,4.22,4.22,0,0,0,1.09,1.52c.41.37,1.8,2.22,3.95,4.94,3.3,4.2,3.41,4.29,3.53,4.9s.25.75,1.5,2.21c1.1,1.29,1.44,1.62,1.78,1.74.51.17,1,.69,3.2,3.68a28.39,28.39,0,0,0,2.33,2.8,6.89,6.89,0,0,1,1.11,1.35,4.07,4.07,0,0,0,1,1.16,4.24,4.24,0,0,1,1.1,1.36,8.39,8.39,0,0,0,.8,1.21c.17.21,1.31,1.54,2.41,3,1.64,2.24,1.89,2.87,2,3.45a3.38,3.38,0,0,0,.48,1.17,10.24,10.24,0,0,1,.69,1.24c.21.42.54,1.16.74,1.64.31.72.31,1,.21,1.25a2.12,2.12,0,0,0,.24,1.64,13,13,0,0,1,.34,4,18.29,18.29,0,0,1-.64,4.39,8.08,8.08,0,0,0-.39,2.52,24.64,24.64,0,0,1-1.31,6.32,12.74,12.74,0,0,0-.93,5.07,7,7,0,0,1-.12,2.21c-.12.73-.72,4.48-1.13,8.35s-.69,7.66-.79,8.4a16.78,16.78,0,0,0-.1,2.76,36.54,36.54,0,0,1-.1,4c-.09,1.4-.13,3.62-.07,4.93s0,3,0,3.83a5.16,5.16,0,0,1-.52,2.07c-.11.19-.21.28-.22.27s.14.15.15.16a.4.4,0,0,1,.1.12l0,.06a.11.11,0,0,1,0-.07l0-.13V445h0c0-.06,0,.47,0,.25h0v-.2s0,0,0,0a.32.32,0,0,1-.17,0,1.7,1.7,0,0,1-.72-.18,3.25,3.25,0,0,1-.61-.35,31.07,31.07,0,0,1-4.18-2.64,29.42,29.42,0,0,1-3.71-3.35,29.73,29.73,0,0,1-3.53-4.7,27.82,27.82,0,0,1-3.89-11.16,48.6,48.6,0,0,1-.05-8.3c0-.45.23-2.21.47-3.94a32,32,0,0,0,.35-4c0-.43.22-3.69-.08-7.32a30.89,30.89,0,0,0-.89-5.25,21.33,21.33,0,0,0-1.18-3.33c-.38-.83-.65-1.35-.85-1.76a8,8,0,0,1-.42-1.09,6.43,6.43,0,0,0-1-1.92,15.87,15.87,0,0,0-3.34-3.24c-1.34-1-3.07-2.1-3.79-2.6a38.9,38.9,0,0,0-4-2.24c-1.45-.75-4.5-2.49-6.73-3.93l-5.42-3.48a4.89,4.89,0,0,1-1.89-1.51,7.44,7.44,0,0,0-1.93-1.67c-4.37-3.06-8.48-6.82-8.83-7.55s-1.15-1.39-1.5-1.35a.6.6,0,0,1-.39-.08,1.43,1.43,0,0,0-.75,0c-.57.09-.7.17-1.32.85s-.69.79-.66,1.34a3,3,0,0,0,.79,1.93,6.38,6.38,0,0,1,.83.92,4.08,4.08,0,0,0,1.42,1.24,33,33,0,0,1,4.52,3.91,5.57,5.57,0,0,0,1.61,1.28,9.72,9.72,0,0,1,3.31,2.19c.58.56,1.24,1.21,1.45,1.45a25.44,25.44,0,0,0,2.68,2c2,1.35,2.36,1.54,2.73,1.53s.76.28,4.82,2.78c3.6,2.18,4.59,2.72,4.93,3.11a8.69,8.69,0,0,0,3,1.85,7.66,7.66,0,0,1,3.48,2.52c.73.88,1.34,1.65,2.05,2.63a13.2,13.2,0,0,1,1.78,3.82c.52,2,.67,2.81,1.07,4.43a14.25,14.25,0,0,1,.34,5.59c-.06.41-.14,1.55-.31,3.51s-.53,4.78-.77,8.63a41.27,41.27,0,0,0,.45,9.82l.38,2a7.84,7.84,0,0,1,.17.95,5.7,5.7,0,0,0,.42,1.75,10.57,10.57,0,0,0,1.1,2.07,49.83,49.83,0,0,0,2.87,4.89,39,39,0,0,0,4.43,5.33,14.68,14.68,0,0,0,4.11,3.27,3.33,3.33,0,0,1,1.65,1.05,15.27,15.27,0,0,0,1.53,1l1.66.89a7.47,7.47,0,0,0,1.39.56,4.5,4.5,0,0,0,2.63-.08,4.55,4.55,0,0,0,2.26-1.83,6.68,6.68,0,0,0,.85-2.07,10,10,0,0,0,.25-1.93c0-.31,0-.68,0-.94v-.76c-.06-2-.05-4.26,0-6.57,0-3,.25-6.16.37-7.1a33.27,33.27,0,0,0,.35-6.87,8.52,8.52,0,0,1,.44-4.24,15.85,15.85,0,0,0,.78-4.92,6.23,6.23,0,0,1,.47-2.56,14.41,14.41,0,0,0,.63-2.79c0-.45.26-2,.48-3.57s.51-3.06.55-3.34c0-.07.14-.37.28-.67a16.94,16.94,0,0,0,.84-5.19,9.18,9.18,0,0,1,.33-3c.32-1.95.28-2,0-3a4.42,4.42,0,0,1-.28-1.27c0-.51,0-1.28-.1-3a6,6,0,0,0-1.15-3.22,2.51,2.51,0,0,1-.68-1.71,2.17,2.17,0,0,0-.6-1.48,5.93,5.93,0,0,1-.61-1.23,2.92,2.92,0,0,0-1-1.54,5.4,5.4,0,0,1-1.84-2.41,13,13,0,0,0-2.94-3.91,5.8,5.8,0,0,1-1.24-1.61c-.32-.63-.4-.73-.76-.86-1-.37-1-.39-1.09-1a1.33,1.33,0,0,0-.88-1.32,2.54,2.54,0,0,1-1.23-1.5,5.16,5.16,0,0,0-2.06-2.42,1.3,1.3,0,0,1-1-1.19,2.3,2.3,0,0,0-1.24-1.61,7.24,7.24,0,0,1-2.17-2.74,16.81,16.81,0,0,0-2.32-3.21,17.24,17.24,0,0,0-2.25-2.6.51.51,0,0,1-.35-.55A4,4,0,0,0,219.43,346.63Z"/><path class="cls-2" d="M216.51,243.5c0,.38.3.63.82.63s.66.12.56.65a1.36,1.36,0,0,0,.78,1.32c.22.09.31.2.29.33a.67.67,0,0,0,.24.46,1.42,1.42,0,0,1,.35.83c.12.9.17,1,.55,1.19a1.39,1.39,0,0,1,.82,1c.09.31.16.38.39.39s.46.19.3.46,0,.47.23.43.21,0,.2.2,0,.24.12.26a2.17,2.17,0,0,1,.5.55l.49.72a.58.58,0,0,1,0,.49.47.47,0,0,0,.13.58,2.11,2.11,0,0,1,.48.72.9.9,0,0,0,.57.43c.56.17,1,.05,2.18-.6a3.3,3.3,0,0,0,1.2-.89l.42-.46-.34-.64c-.19-.36-.42-.85-.52-1.1a.89.89,0,0,0-.44-.54c-.21-.08-.27-.18-.3-.57a1.88,1.88,0,0,0-.13-.62l-.78-1.18c-.51-.77-.7-1.11-.68-1.36s0-.35-.29-.44-.79-.79-.64-1,.14-.57-.42-.86a5.84,5.84,0,0,1-1.26-.8,1.82,1.82,0,0,1,0-.5.88.88,0,0,0-.31-.85,1.79,1.79,0,0,1-.42-.82.54.54,0,0,0-.35-.52,9.65,9.65,0,0,1-1.43-1.64c-1.11-1.44-1.14-1.48-1-1.81s.08-.38-.38-.86-.55-.52-.78-.48-.48-.11-1.16-1.21a3.17,3.17,0,0,0-.82-1,.78.78,0,0,1-.39-.46.51.51,0,0,0-.36-.38c-.23-.08-.31-.2-.38-.47a1.36,1.36,0,0,0-.23-.47c-.08-.06-.52-.48-1-.93-.71-.7-.87-.88-.89-1.16s-.09-.36-.24-.41a2.41,2.41,0,0,1-.47-.28,5.41,5.41,0,0,0-.59-.35c-.27-.14-.31-.21-.25-.42s-.07-.5-.42-.47a6.75,6.75,0,0,1-2.33-2.06c-.07-.24-.2-.33-.75-.52a3.16,3.16,0,0,1-1.79-1.38,1.66,1.66,0,0,0-1.49-1,.91.91,0,0,1-.77-.21c-.21-.15-1.34-.82-2.5-1.52s-2.37-1.25-2.57-1.43a1.78,1.78,0,0,0-.9-.35,3.22,3.22,0,0,1-1.29-.51,6.86,6.86,0,0,0-1.59-.68,5.27,5.27,0,0,1-1.24-.51c-.25-.17-.64-.45-.89-.6a1.21,1.21,0,0,0-.63-.23l-.59.18c-.29.09-.45.08-.6-.05a16.05,16.05,0,0,0-1.79-.42c-1.06-.21-2.48-.45-4-.65-3-.39-6.13-.67-7.22-.74-.16,0-.75-.14-1.32-.27a4.06,4.06,0,0,0-1.3-.17,11.59,11.59,0,0,1-2.32-.19l-2.67-.44c-.54-.08-.68-.16-.84-.44s-.59-.55-1.76-.9a5.56,5.56,0,0,1-1.25-.55,3.61,3.61,0,0,0-1.35-.46,13.78,13.78,0,0,1-2.35-.73,17,17,0,0,0-1.87-.7c-.44-.1-.5-.17-.58-.48s-.19-.38-.57-.57c-1.48-.66-2.67-1.85-2.61-2.23s-.17-.57-.42-.4c-.1.07-.2.11-.22.09a1.78,1.78,0,0,0-.49.28,6,6,0,0,0-1.22,1.11c-.71.75-.78.83-1,1.23s-.33,1.08-.17,1.16a.78.78,0,0,1,.23.4c.08.29.19.36.52.44a3.88,3.88,0,0,1,1.63,1.4c.29.36.45.45.62.41a1.28,1.28,0,0,1,1.34.5,4.8,4.8,0,0,1,.47.66,3.38,3.38,0,0,0,1,.66c.78.37.93.37,1.12.22s.34-.09,1.9.53c1.37.51,1.74.66,1.85.88a1.08,1.08,0,0,0,1.15.53c.48-.16.91,0,1.56.52A2.85,2.85,0,0,0,168,219a15.36,15.36,0,0,1,1.66.5,3.37,3.37,0,0,0,1.76.26,3.46,3.46,0,0,1,2.08.24,20.88,20.88,0,0,0,4.15.63c3.19.33,3.72.42,4,.64s.68.27,1.26,0a15,15,0,0,1,3.81.3c.79.22,1.49.29,1.58.13s.41-.16.58.08,2.64.86,5.32,2a14,14,0,0,1,2,1,2.59,2.59,0,0,0,2,.81.92.92,0,0,1,1.18.66,1.48,1.48,0,0,0,1.3.9c.29,0,.38.06.65.51a1.43,1.43,0,0,0,.67.64c.14,0,.61.25,1.07.45s.87.47.94.52a.77.77,0,0,1,.09.25,1.9,1.9,0,0,0,1.3.93c.34,0,.4.09.65.61s.28.56.69.54.43-.08.82.88a.72.72,0,0,0,.84.5c.3-.08.46.1.35.39s0,.47.24.41.16.12.23.32.14.37.43.35c.49,0,.79.21.71.59s.31.86.94,1.22c.26.17.36.3.37.54s.05.31.28.25c.64-.15.66-.15.46.24s-.18.52.2.5.43.09.4.48.31.87.7.77.49,0,.32.39-.06.52.37.55a.83.83,0,0,1,.68.92c0,.29.11.52.63,1.16s.7.79.84.78.19,0,.09.21A1.06,1.06,0,0,0,216.51,243.5Z"/><path class="cls-2" d="M218.32,216.48c.12.25.37.17.61-.18s.35-.37.48,0a.52.52,0,0,0,.81.26c.14-.1.21-.09.25,0s.14.13.26.11.29.07.43.26c.34.46.41.49.64.32a.5.5,0,0,1,.71,0c.13.13.19.12.3,0s.29-.2.29.07.11.3.24.1.11-.12.15,0,.09.11.14.07a.6.6,0,0,1,.41,0l.45.09c.07,0,.13.13.14.27s.07.26.22.26a.57.57,0,0,1,.43.11c.1,0,.24,0,.42-.11.34-.26.57-.63,1.06-1.75a4.38,4.38,0,0,0,.44-1.3l.11-.55-.38-.18c-.21-.11-.49-.25-.63-.34a.37.37,0,0,0-.41,0c-.14.1-.21.07-.34-.15a1,1,0,0,0-.27-.29l-.8-.19c-.53-.12-.74-.21-.81-.37s-.14-.18-.3-.07-.67.06-.68-.19-.13-.43-.5-.24a3.36,3.36,0,0,1-.89.38,1,1,0,0,1-.17-.31c-.09-.24-.17-.29-.44-.3a.77.77,0,0,1-.49-.22c-.12-.16-.2-.17-.35-.08a2.8,2.8,0,0,1-1.23,0c-1-.15-1-.15-1.1-.44s-.09-.3-.46-.31-.43,0-.52.21-.27.25-.94,0a1.1,1.1,0,0,0-.69-.1.28.28,0,0,1-.33-.06.2.2,0,0,0-.3,0c-.14.09-.22.08-.35-.07s-.21-.19-.26-.18l-.83,0c-.61,0-.77,0-.9-.19s-.22-.18-.31-.12a1.34,1.34,0,0,1-.34.14,2,2,0,0,0-.43.18c-.17.11-.22.09-.31-.08s-.3-.23-.4,0a3,3,0,0,1-1.82.42c-.15-.1-.24-.06-.48.19a1,1,0,0,1-1.18.34.6.6,0,0,0-.92.29c-.06.21-.15.31-.33.34l-1.53.38a8,8,0,0,1-1.57.28.7.7,0,0,0-.49.15,1,1,0,0,1-.72.17,3.06,3.06,0,0,0-.92.14,1.4,1.4,0,0,1-.72.05l-.59-.19c-.17-.05-.33,0-.37,0l-.21.35c-.1.16-.18.21-.29.14s-1.51.27-3.11.57l-3.92.73a3.65,3.65,0,0,1-.76,0,1.3,1.3,0,0,0-.73.09,4.63,4.63,0,0,1-1.29.26l-1.53.18c-.3,0-.4,0-.54-.2s-.43-.35-1.14-.35a2.21,2.21,0,0,1-.8-.14,1.26,1.26,0,0,0-.84,0,7.51,7.51,0,0,1-1.45.18,4.85,4.85,0,0,0-1.2.17c-.26.11-.31.09-.45-.13s-.22-.24-.48-.2c-1,.18-2,0-2.15-.3s-.33-.29-.38,0c0,.1-.05.19-.07.19a3.09,3.09,0,0,0-.12.5,8.43,8.43,0,0,0-.12,1.51,6.25,6.25,0,0,0,0,1.44c.09.54.25,1,.34.91s.15.05.23.15.2.14.37,0,.62-.11,1.15.17c.24.12.33.12.4,0,.2-.35.47-.43.76-.23a2.74,2.74,0,0,1,.4.32,1.14,1.14,0,0,0,.65.12c.46,0,.54,0,.59-.26s.14-.23,1.07-.23,1,0,1.13.16.53.34.7.13.47-.25.92,0a1.13,1.13,0,0,0,.78.21,4.92,4.92,0,0,1,1,.06,1.2,1.2,0,0,0,1-.13c.52-.29.83-.34,1.16-.19a8,8,0,0,0,2.4-.2c1.83-.28,2.15-.34,2.34-.18s.44.1.71-.25a7.13,7.13,0,0,1,2.19-.65c.49,0,.9-.17.89-.33s.17-.26.34-.1a11.48,11.48,0,0,0,3.49-.39,7.8,7.8,0,0,1,1.42-.17,1.18,1.18,0,0,0,1.28-.47c.19-.4.44-.47.81-.22a.68.68,0,0,0,1-.16c.1-.17.18-.18.52-.07s.45.08.58,0,1.1-.7,1.2-.74a.46.46,0,0,1,.17.1.72.72,0,0,0,.86-.33c.09-.22.14-.23.45-.1s.32.15.39-.14.08-.32.53,0c.17.13.29,0,.34-.26s.14-.24.19,0,.14.28.18.11.08,0,.16.08.14.14.22-.06c.16-.35.35-.38.43-.08s.34.38.74.24c.17-.07.26,0,.34.11s.12.18.21,0c.26-.52.27-.52.3-.13s.09.45.27.2.24-.21.36.07.45.36.61,0,.24-.3.29.05.15.37.36.11.49-.18.65.14.23.25.7.3.61,0,.67-.08.09-.11.11.07A1.6,1.6,0,0,0,218.32,216.48Z"/><path class="cls-1" d="M164.17,193.63c5.67,1.89,12.91,3.63,19.55,3.45s14.45.33,20.11-3.45"/><path class="cls-2" d="M198.38,199.27c.2.17.38,0,.43-.41s.13-.49.41-.2a.46.46,0,0,0,.78-.13c.07-.15.13-.19.21-.13a.22.22,0,0,0,.27,0,.47.47,0,0,1,.48,0c.54.19.62.19.71-.09a.51.51,0,0,1,.59-.41c.18,0,.22,0,.21-.21s.09-.33.27-.13.29.14.25-.09,0-.17.1-.13.14,0,.15,0,.13-.2.28-.3l.38-.26a.33.33,0,0,1,.31.07c.16.11.24.1.34,0a.79.79,0,0,1,.38-.3c.11-.05.16-.18.16-.4,0-.43-.2-.82-.87-1.83a5.9,5.9,0,0,0-.84-1.1l-.36-.42-.27.14a3.57,3.57,0,0,1-.46.18.24.24,0,0,0-.2.23c0,.15,0,.17-.25.1a.6.6,0,0,0-.3-.06l-.48.32c-.33.19-.49.22-.61.13s-.17-.08-.2.09-.33.4-.46.18-.28-.31-.4,0a2.17,2.17,0,0,1-.36.73.83.83,0,0,1-.24-.2c-.16-.17-.23-.19-.4-.09a.41.41,0,0,1-.39,0c-.14-.09-.2-.08-.26.07s-.35.26-.83.39c-.73.22-.76.19-.88-.06s-.15-.25-.41-.15-.29.15-.31.35-.12.32-.68.23a.66.66,0,0,0-.52.08c-.09.09-.19.1-.26,0s-.15-.06-.22,0-.14.12-.26,0a.32.32,0,0,0-.22-.13,3.71,3.71,0,0,1-.57.14c-.42.07-.52.06-.62-.11s-.15-.17-.2-.11a.64.64,0,0,1-.22.14,1.64,1.64,0,0,0-.28.16c-.12.1-.15.08-.21-.1s-.18-.27-.26,0-1.17.26-1.33,0-.16-.13-.38.05a.67.67,0,0,1-1,0c-.26-.32-.61-.3-.77,0s-.18.25-.33.24l-1.26,0a5.88,5.88,0,0,1-1.28-.13.45.45,0,0,0-.42,0,.67.67,0,0,1-.59,0,1.76,1.76,0,0,0-.71-.09.85.85,0,0,1-.54-.13l-.41-.33c-.11-.09-.23-.12-.27-.07l-.22.28c-.11.14-.18.15-.25.06s-1.18-.13-2.43-.28l-3.1-.39a2.82,2.82,0,0,1-.55-.22c-.25-.11-.49-.17-.57-.12a2.62,2.62,0,0,1-1-.11L172.2,194c-.25-.05-.31-.1-.35-.33s-.22-.46-.74-.65a1.58,1.58,0,0,1-.56-.35.82.82,0,0,0-.63-.21,5.24,5.24,0,0,1-1.15-.2,3.17,3.17,0,0,0-1-.14c-.23,0-.27,0-.31-.23s-.09-.28-.3-.31c-.8-.09-1.55-.48-1.56-.8s-.16-.35-.28-.11a.71.71,0,0,1-.11.18,2.48,2.48,0,0,0-.24.44,10.81,10.81,0,0,0-.53,1.42,8.27,8.27,0,0,0-.4,1.38c-.09.54-.09,1,0,.95s.1.08.14.19.1.19.27.1.5,0,.82.42c.14.17.21.2.3.1.25-.28.48-.3.64,0a1.83,1.83,0,0,1,.2.4c0,.09.23.21.46.28s.42.09.52-.09.18-.19.87,0,.77.28.8.45.29.47.49.31.43-.11.67.28a.83.83,0,0,0,.52.42,2.86,2.86,0,0,1,.71.32.77.77,0,0,0,.78.15c.48-.13.72-.09.93.15a5.42,5.42,0,0,0,1.88.49c1.47.24,1.73.28,1.84.49s.31.22.61-.05a5,5,0,0,1,1.87,0c.39.12.74.08.78-.08s.19-.21.29,0a7.24,7.24,0,0,0,2.88.51,4.25,4.25,0,0,1,1.11.17c.44.22.84.17,1-.14s.42-.34.65,0,.57.37.77.11.17-.13.4.07.32.2.45.13,1-.37,1.07-.38a.8.8,0,0,1,.11.14c.14.21.62.15.79-.08s.17-.19.43,0,.3.21.43-.07.12-.3.6.08c.19.15.38,0,.46-.23s.18-.25.26,0,.2.27.23.1.1,0,.2.06.19.12.27-.09c.13-.37.31-.42.45-.14s.45.29.77.06c.14-.1.22-.09.33,0s.15.14.18-.06c.09-.56.1-.57.22-.21s.19.42.27.12.14-.26.32,0,.47.22.51-.13.1-.36.25,0,.24.3.34,0,.34-.33.57-.08.28.17.69,0,.51-.21.53-.32,0-.14.11,0A1.56,1.56,0,0,0,198.38,199.27Z"/><path class="cls-1" d="M176.79,183.93h0a1.74,1.74,0,0,0,.19,1.71,1.81,1.81,0,0,0,.85.4,26.68,26.68,0,0,0,12.93.1.79.79,0,0,0,.43-.21.71.71,0,0,0,.08-.52,9,9,0,0,0-1.9-4.29,9.25,9.25,0,0,0-2.73-2.63C182.43,176.05,177.94,179.9,176.79,183.93Z"/><path class="cls-2" d="M178.58,176.26c-.27-.07-.41.18-.31.59s.06.51-.33.39a.54.54,0,0,0-.7.53c0,.17,0,.24-.13.22s-.19.06-.23.18-.21.22-.45.27c-.57.14-.65.2-.58.49a.59.59,0,0,1-.31.69c-.16.1-.18.16-.07.31s.11.33-.15.27-.32.06-.15.23.09.14,0,.16-.13.08-.1.13a.75.75,0,0,1-.07.42c-.07.18-.13.39-.15.46s-.14.13-.29.14-.26.07-.27.23a.89.89,0,0,1-.12.49.44.44,0,0,0,.13.44c.28.34.67.51,1.85.84a7.52,7.52,0,0,0,1.34.31l.54.09.11-.24a1.07,1.07,0,0,1,.23-.38.19.19,0,0,0,0-.27c-.1-.11-.08-.15.11-.2a.58.58,0,0,0,.27-.11l.18-.47c.14-.31.25-.41.39-.39s.18,0,.1-.17.05-.45.26-.33.38.13.29-.2a1.65,1.65,0,0,1-.08-.75.78.78,0,0,1,.28.08c.21.08.28.08.37-.07a.28.28,0,0,1,.3-.12c.15,0,.19,0,.17-.13s.15-.36.49-.59c.51-.36.54-.32.7-.11s.18.22.34.09a.29.29,0,0,0,.15-.36c0-.27,0-.35.48-.27a.36.36,0,0,0,.38-.08c.07-.09.14-.08.19,0s.11.08.16,0,.12-.11.19,0,.12.15.14.15l.42,0c.31,0,.38.09.38.26s0,.19.1.15a.4.4,0,0,1,.19-.07l.24,0c.12,0,.14,0,.09.16s0,.3.15.13.87.29.8.56,0,.17.25.17c.4,0,.62.24.54.56s.08.57.42.48c.19-.06.29,0,.36.07s.33.5.59.93a2.9,2.9,0,0,1,.4,1,.33.33,0,0,0,.16.29c.13.06.19.21.18.43a1.41,1.41,0,0,0,.07.56.47.47,0,0,1,0,.42,3,3,0,0,1-.27.33s-.06.1-.07.1l.57,0h.28a2.7,2.7,0,0,1,.7,0c.15,0,.15.08.11,0s0,0-.23-.45a6.58,6.58,0,0,1-.25-.78h-.06l-.28.05c-.4.08-.95.18-1.52.26-1.14.18-2.38.27-2.82.32a1.94,1.94,0,0,1-.53-.1c-.24-.06-.47-.07-.52,0a2.2,2.2,0,0,1-.94.08l-1.09-.06c-.22,0-.28,0-.35-.28s-.24-.42-.72-.54a1.22,1.22,0,0,1-.52-.27c-.12-.13-.29-.16-.57-.14a3.52,3.52,0,0,1-1-.09,2.77,2.77,0,0,0-.84-.07c-.21,0-.23,0-.2-.19,0-.06.09-.34-.09.19a7.48,7.48,0,0,1-.36.89,2,2,0,0,1-.26.44l0,0s0,0,0,0h0a1.4,1.4,0,0,1,.52-.15,5.27,5.27,0,0,1,1.43.05l.44.07-.19,0-.19-.06-.47-.15-.56-.18-1.3-.38.1,0-.25-.07-.34-.09a4.33,4.33,0,0,0-.5-.08c-.55-.07-1,0-1,.11s-.07.14-.18.23-.17.21,0,.42a1.36,1.36,0,0,1,.13.59,3.89,3.89,0,0,0,.19,1.18c.16.45.35.6.51.58.52,0,.86,0,1.1.32a2,2,0,0,1,.27.42c0,.09.24.2.46.25s.42.08.51-.11.16-.2.85,0,.77.22.82.38c.09.32.33.44.51.26s.4-.16.69.2a.77.77,0,0,0,.56.35,2.87,2.87,0,0,1,.74.22.78.78,0,0,0,.79,0c.45-.21.69-.22.94,0a4.71,4.71,0,0,0,1.91.11c1.47-.08,1.73-.11,1.88.06s.36.14.57-.19a5.17,5.17,0,0,1,1.77-.51c.4,0,.72-.13.71-.29s.09-.24.3-.09c.06,0,.17.07.78-.17a2.74,2.74,0,0,0,1.2-1.07,3.27,3.27,0,0,0,.46-1.56c0-.4,0-.51,0-.72a4.28,4.28,0,0,0,0-.6,8,8,0,0,0-.28-1.3,11.94,11.94,0,0,1-.36-1.34c0-.59-.35-1-.73-1s-.54-.23-.4-.63a.53.53,0,0,0-.4-.76c-.19,0-.21-.07-.22-.4s-.07-.42-.21-.49-1-.64-1.14-.7a.55.55,0,0,1,0-.19c0-.26-.45-.65-.78-.6s-.28,0-.44-.36-.2-.4-.5-.27-.27.16-.65-.47a.4.4,0,0,0-.65-.08c-.19.18-.32.12-.32-.15s-.14-.34-.25-.2-.14,0-.24-.15-.21-.2-.38,0-.53.31-.64,0-.54-.44-1-.23a.34.34,0,0,1-.45-.05c-.16-.16-.19-.15-.25,0-.17.56-.16.57-.31.21s-.24-.41-.35-.11-.18.28-.42.06-.64-.14-.64.22-.1.38-.32.1-.34-.25-.42.08-.33.43-.67.27c-.19-.09-.38-.07-.79.22s-.52.41-.49.53,0,.14-.14,0A.87.87,0,0,0,178.58,176.26Z"/><path class="cls-1" d="M183.65,186.67a20.65,20.65,0,0,1-.18,5.27,8.4,8.4,0,0,1-2.41,4.61"/><path class="cls-2" d="M179.49,193.47c-.19-.1-.1,0,.21.23s.34.27,0,.1-.33-.14-.12,0,.09.1,0,.06-.08,0-.06,0,0,0-.15,0c-.31-.18-.33-.18-.17,0s.2.22.07.16-.07,0,.06.1.19.2,0,0-.2-.15,0,0,.11.11,0,.06-.07,0,0,0a.25.25,0,0,1,.06.13v.09s-.07,0-.17-.13-.17-.14-.14-.09,0,.08,0,.08,0,.07.15.22.51.62,1.34,1.52c.53.59.57.63.94,1l.39.38.09-.06a.37.37,0,0,1,.18-.05c.05,0,.05-.06,0-.14s-.07-.12.08,0a.52.52,0,0,0,.19.07l.09-.19c0-.13.1-.15.22-.09s.14.06,0-.06-.09-.27.11-.14.33.2.16,0a3.19,3.19,0,0,1-.35-.49,1,1,0,0,1,.24.11c.19.09.23.09.23,0s.06-.07.15,0,.14,0,.05-.07a.39.39,0,0,1,0-.37c.08-.23.09-.23.34-.12s.25.11.25,0,0-.14-.21-.25-.23-.18,0-.26.12-.1.06-.16,0-.09,0-.07.08,0,0-.07-.08-.09.05-.07.16,0,.16,0a.93.93,0,0,1,0-.2c0-.14,0-.16.21-.12s.18,0,.13,0l-.09-.11a.46.46,0,0,0-.1-.14c-.07-.06,0-.06.13,0s.28.05.07-.06a.21.21,0,0,1,.16-.38c.14,0,.14,0,0-.12s-.19-.29.1-.28.35-.09.05-.22-.23-.12-.2-.16a2.69,2.69,0,0,0,.15-.34.66.66,0,0,1,.22-.33c.07,0,.07-.08,0-.12s-.06-.12,0-.17a.24.24,0,0,0,.14-.2c0-.06.06-.12.15-.14l.33-.08c.09,0,.13-.06.08-.08l-.27-.11c-.14-.05-.16-.07-.07-.08a4.19,4.19,0,0,0,.21-1.66s.05-.09.12-.17.09-.15,0-.17-.1-.15-.09-.3a2,2,0,0,0,0-.35c0-.07,0-.09.25-.12s.39-.1.46-.26a.39.39,0,0,1,.19-.19c.11,0,.12-.11,0-.2a.69.69,0,0,1-.12-.33.31.31,0,0,0-.13-.27c-.11-.05-.09-.07.13-.11s.24-.06.2-.12c-.16-.22,0-.46.26-.51s.28-.09,0-.08h-.19s-.23,0-.5,0c-.45,0-.6,0-1.51.08s-1.05.07-1.44.11a5.14,5.14,0,0,0-.9.13s0,0-.13,0-.14.05,0,.08.13.11-.14.23-.13.07,0,.08c.35,0,.43.07.23.14l-.32.09a.15.15,0,0,0-.13.13c0,.09,0,.1.23.11s.23,0,.21.19-.08.21-.24.23-.37.1-.17.13.21.09-.11.18-.29.09-.29.14-.07.12-.16.18-.12.11,0,.18.24.15,0,.21-.15.16-.17.41-.06.38-.24.39-.19.06.11.13c.14,0,.26.33.16.4s0,.15.11.17.21.07,0,.07-.38.23-.53.49a.36.36,0,0,1-.23.18c-.24,0-.21.11.08.22s.3.16,0,.12-.39,0-.16.11.12.07-.08.05-.22,0-.16,0a2.35,2.35,0,0,1,.28.29l-.13,0c-.21,0-.2,0,0,.15s.16.1-.05.07-.22,0,0,.09.26.13-.14.06c-.15,0-.08,0,.17.15s.21.12,0,0-.27-.08-.12,0,0,0-.08,0-.13,0,.05.07.34.22.07.11-.33-.07-.17.07,0,.06-.08,0-.14-.05,0,0c.48.27.49.28.15.12s-.4-.18-.16,0,.21.14,0,0-.27-.07,0,.1.29.19,0,0-.31-.14-.07,0,.2.19-.06.07-.18-.07-.18,0,0,.12.13.19.1.07-.05,0Z"/><path class="cls-1" d="M183.74,191.06a5.35,5.35,0,0,0,2.54,5"/><path class="cls-2" d="M183.36,197.84c-.12.18,0,.12.28-.16s.32-.3.13,0-.14.35.07.16.12-.09.07,0,0,.08,0,.06,0,0,0,.17c-.15.34-.14.36,0,.2s.24-.18.2,0,0,.08.12-.06.19-.19.05,0-.11.23,0,.05.1-.12.06,0,0,.08,0,0a.19.19,0,0,1,.14-.07h.1s0,.09-.07.2-.09.2,0,.17.09,0,.11,0,.08,0,.2-.19a19,19,0,0,0,1.07-1.71l.7-1.18.27-.47,0,0a.2.2,0,0,1,0-.11s0,0-.09.07-.08.1,0,0a.91.91,0,0,0,.08-.16l-.09,0c-.06,0-.06,0,0-.14s.07-.12,0,0-.18.16,0,0,.22-.32,0-.11-.42.42-.42.42l.15-.22c.13-.17.14-.2.1-.18s0,0,0-.1.07-.11,0,0a.26.26,0,0,1-.21.09c-.1,0-.1,0,.09-.23s.18-.2.12-.18a.79.79,0,0,0-.24.18c-.2.19-.22.2-.15,0s0-.07-.06,0-.07,0,0,0,.05-.06,0,0-.1.06,0,0,.1-.12.09-.12H186c-.07,0-.06,0,.07-.14s.13-.12.08-.09l-.11.06-.14.07c-.07,0-.06,0,.08-.09s.21-.19,0,0-.25,0-.07-.13.1-.08-.06,0-.26.08,0-.09.23-.22-.05-.06-.23.12-.22.09l0-.15a.22.22,0,0,1,.06-.19c.05,0,0,0,0,0s-.09,0,0-.06.08-.1.06-.11,0-.06.08-.11l.27-.16c.08,0,.1-.07.05,0l-.27.09c-.13,0-.15,0-.07,0s0-.49-.11-.56a.28.28,0,0,1,.11-.09c.06,0,.06-.06,0-.05s-.11,0-.1-.08a.33.33,0,0,0,0-.12s0,0,.24-.07.39-.07.45-.12a.73.73,0,0,1,.2-.07c.1,0,.11,0,0,0s-.11,0-.11-.08-.06-.05-.12-.06-.09,0,.13,0,.24,0,.2,0,0-.1.3-.08.29,0,0,0l-.2,0-.49-.05-1.51-.14-1.43-.12a6.91,6.91,0,0,0-.91,0s0,0-.14,0-.14,0,0,.05.12.09-.16.16c-.13,0-.13,0,0,.06.34,0,.42.08.22.12l-.33.05c-.07,0-.13.06-.13.1s0,.09.23.09.23,0,.2.15-.07.15-.23.18-.37.11-.17.12.22,0-.1.15-.28.11-.27.15-.06.11-.14.18-.11.12,0,.15.26.1.08.18-.12.19-.07.42.06.36-.11.43-.15.13.15.09c.14,0,.35.19.3.29s0,.15.18.09.21,0,0,0-.23.38-.18.7a.42.42,0,0,1-.06.3c-.16.2-.07.26.22.15s.33-.09.06.13-.26.3,0,.21.13,0,0,.11-.14.17-.07.16a3,3,0,0,1,.43,0,.78.78,0,0,0-.1.1c-.16.14-.06.2.15.1s.17-.08,0,.09-.14.18.1,0,.25-.15,0,.17c-.1.12,0,.1.23-.06s.21-.11,0,.06-.19.21-.06.11,0,0,0,.08-.08.11.09,0,.35-.21.14,0-.19.28,0,.2.09,0,0,.09-.09.13.06,0c.43-.34.43-.35.17-.08s-.3.31-.08.14.21-.14,0,0-.13.26.13,0,.27-.22,0,0-.21.27,0,.09.24-.14.07.09-.1.18,0,.21a.22.22,0,0,0,.23-.07c.09-.09.09-.09,0,0Z"/><path class="cls-1" d="M240.83,172.51a4,4,0,0,1,2.06,2.31,9.45,9.45,0,0,1,.49,3.13,30.29,30.29,0,0,1-.7,7.17"/><path class="cls-3" d="M241.36,182.68c-.12,0-.07.09.14.16s.22.11,0,.13-.21.13-.07.22.06.06,0,.07-.06,0,0,.07,0,.08-.1.11-.22.1-.11.17.14.14.05.2,0,.05.05.09.13.08,0,.08-.14,0,0,.07.07,0,0,0,0,0,0,0,0,.07.06.12v.13s-.06,0-.13,0-.12,0-.1.06,0,.07,0,.13,0,.07.12.12a3.82,3.82,0,0,0,1,.31,5.2,5.2,0,0,0,.73.13l.29,0,0-.1a.91.91,0,0,1,.08-.17.08.08,0,0,0,0-.12c-.07,0-.06-.05,0-.09a.27.27,0,0,0,.12-.07v-.22c0-.14,0-.2.1-.21s.09,0,0-.08-.1-.19,0-.19.22,0,.08-.13a1.65,1.65,0,0,1-.28-.25.4.4,0,0,1,.15,0c.12,0,.14,0,.13-.12a.11.11,0,0,1,.08-.12c.07,0,.07-.06,0-.1s-.07-.16-.07-.34,0-.28.17-.29.15,0,.13-.12-.05-.12-.15-.15-.15-.08-.05-.26a.15.15,0,0,0,0-.19.05.05,0,0,1,0-.09c.05,0,.05,0,0-.08s-.06-.06,0-.09.09-.05.09-.06a1.22,1.22,0,0,1,0-.21c0-.15,0-.19.09-.21s.1,0,.07-.06a.28.28,0,0,1-.06-.09.3.3,0,0,0-.07-.1s0-.06.07-.07.15-.05,0-.09-.09-.42,0-.46.07,0,0-.14-.13-.26,0-.33.18-.21,0-.27-.13-.06-.12-.11,0-.24,0-.44a1.22,1.22,0,0,1,.08-.43.11.11,0,0,0,0-.14q-.07-.08,0-.21a.45.45,0,0,0,.05-.25.27.27,0,0,1,.06-.2l.17-.16c.05,0,.06-.09,0-.1l-.16-.07c-.07,0-.09-.06,0-.09a4.06,4.06,0,0,0,0-.92,6,6,0,0,0-.24-1.19.89.89,0,0,1,0-.24c0-.11,0-.21-.06-.22a1.13,1.13,0,0,1-.19-.38,2.65,2.65,0,0,0-.21-.46c-.05-.09-.05-.12,0-.22s.12-.22,0-.45a.72.72,0,0,1-.07-.3.32.32,0,0,0-.17-.26,4.33,4.33,0,0,1-.4-.38,1.12,1.12,0,0,0-.38-.27c-.11,0-.12,0-.09-.16s0-.16-.08-.21c-.37-.17-.71-.43-.7-.6s-.07-.2-.14-.08-.06.09-.07.09a1.71,1.71,0,0,0-.15.23,6.58,6.58,0,0,0-.34.74c-.19.48-.21.53-.28.73a1.44,1.44,0,0,0-.12.48s0,0,0,.09,0,.09.06,0,.14,0,.15.18,0,.1.05,0,.22-.13.2,0a.71.71,0,0,1-.06.19.14.14,0,0,0,.05.13c.06.06.08.06.17,0s.11-.06.22.09.11.19.05.26-.11.2,0,.17.15,0,0,.19-.08.16,0,.2a.34.34,0,0,1,0,.2c0,.11,0,.14.09.17s.18.1.1.2,0,.2.06.49.07.45,0,.5-.08.1.09.15.2.38.16.49,0,.22.09.22.12.05,0,.08a1.74,1.74,0,0,0-.22.86.81.81,0,0,1-.1.35c-.12.14-.1.27.07.33s.18.14,0,.21-.2.17-.07.24.07.06,0,.13-.11.1-.08.13a2,2,0,0,1,.18.35l-.08,0c-.11,0-.1.18,0,.24s.09.06,0,.14-.13.08,0,.13.15.05-.07.18-.05.11.1.15.13.07,0,.08-.15,0-.07.06,0,0,0,.06-.07,0,0,.08.21.12.05.14-.19.11-.09.22,0,.08,0,.1-.09,0,0,0c.29.08.29.08.09.09s-.24,0-.09.06.13.07,0,.09-.17.12,0,.16.18.07,0,.07-.19,0,0,.1.13.13,0,.17-.12.05-.12.17,0,.17.09.18.07,0,0,0Z"/><path class="cls-1" d="M216.89,415.57A57.92,57.92,0,0,0,233.78,429"/><path class="cls-2" d="M229,430c0,.23.11.18.37-.12s.33-.32.24,0,.06.44.3.26.15-.08.13,0,0,.12.09.1.12.07.13.24c0,.42,0,.45.21.3s.32-.16.37,0,.06.1.17,0,.22-.19.14.05,0,.27.1.08.1-.12.09,0,0,.09.05.05a.28.28,0,0,1,.23,0l.22.05s0,.11,0,.23,0,.23.05.21.15,0,.23.06.13,0,.27-.15a8.1,8.1,0,0,0,1.06-1.73,11.81,11.81,0,0,0,.6-1.24l.21-.5-.14-.1a.79.79,0,0,1-.2-.21c-.05-.07-.12-.06-.19,0s-.13.08-.12-.1a.43.43,0,0,0,0-.23l-.32-.09c-.21-.07-.27-.14-.25-.27s0-.16-.11,0-.34.08-.24-.14.11-.38-.14-.2a2.23,2.23,0,0,1-.56.35.94.94,0,0,1,0-.28c.05-.21,0-.26-.08-.27s-.13-.09-.12-.2,0-.15-.13-.07-.28,0-.53-.08-.39-.19-.28-.44.09-.26-.06-.29-.2,0-.33.14-.23.21-.4-.08c-.07-.12-.17-.18-.25-.14s-.13,0-.12-.08,0-.1-.11,0-.13.05-.11-.09,0-.18,0-.18l-.31-.1c-.22-.08-.25-.14-.19-.3s0-.19,0-.16l-.17,0a.41.41,0,0,0-.21,0c-.1,0-.11,0,0-.16s.09-.28-.09-.12-.63-.18-.56-.42,0-.15-.19-.08-.47,0-.4-.31-.07-.44-.33-.23-.23.14-.28.08l-.49-.44a1.54,1.54,0,0,1-.43-.53.14.14,0,0,0-.18-.11q-.17,0-.24-.21a.56.56,0,0,0-.23-.32.32.32,0,0,1-.15-.28l0-.39c0-.1,0-.17-.08-.14l-.27.14c-.13.07-.17.06-.15,0a21,21,0,0,0-2.18-2,1.46,1.46,0,0,1-.15-.31c-.05-.14-.14-.24-.21-.22s-.27-.12-.45-.32a5.63,5.63,0,0,0-.46-.45c-.1-.09-.1-.14,0-.33a.5.5,0,0,0,0-.66A.72.72,0,0,1,221,416c0-.14,0-.22-.21-.29a1.71,1.71,0,0,1-.49-.37,1,1,0,0,0-.43-.29c-.15,0-.16,0,0-.23s.12-.23,0-.28c-.39-.22-.57-.64-.38-.88s.12-.29-.09-.13a.61.61,0,0,1-.17.11l-.41.29c-.36.27-.47.37-1.17,1a12.45,12.45,0,0,0-1.06,1c-.38.39-.65.71-.59.71s0,.07,0,.17-.05.16.1.12.27.11.21.47c0,.15,0,.19.1.13.32-.17.46-.13.39.09s-.1.28-.13.35,0,.19.09.29.17.15.34,0,.21-.11.45.21.25.36.16.51-.13.41.08.33.29,0,.18.36-.06.35,0,.43a.92.92,0,0,1,.18.41c0,.23.1.28.31.28s.43.09.39.33.19.39.64.82.67.67.6.85,0,.26.31.13c.14-.06.77.31.87.5s.28.28.39.17.22-.11.13.08.32.73.88,1.3a1.55,1.55,0,0,1,.36.54c.05.33.27.44.54.27s.4-.12.29.23,0,.49.26.36.16-.05.14.19,0,.27.12.26a3.49,3.49,0,0,1,.69.07s0,.07,0,.14c-.07.22.17.34.38.2s.19-.09.18.16,0,.27.22.09.23-.2.21.27c0,.19.12.18.32,0s.22-.13.1.1-.08.29,0,.17.05,0,.05.11,0,.17.16,0,.37-.23.26,0,0,.4.26.33.15,0,.11.14,0,.17.11,0c.37-.42.37-.42.2-.08s-.17.4,0,.2.21-.16.14.09,0,.36.26.09.26-.25.12.06-.1.34.12.14.31-.12.24.17,0,.24.2.32.29.05.37,0,.09-.09,0,.07A1.52,1.52,0,0,0,229,430Z"/><path class="cls-1" d="M264.18,434.32c5.29,3,8.94,8.13,12.41,13.12,2.59,3.72,5.29,7.83,5,12.36"/><path class="cls-2" d="M277.73,455.81c-.17.16,0,.22.38.17s.47,0,.17.21-.23.4.06.45.16.05.09.1a.1.1,0,0,0,0,.16c.07.05.05.14-.07.27-.3.3-.31.33-.07.38s.33.15.21.31-.05.12.13.13.29.07,0,.14-.24.13,0,.13.15,0,.07.07-.06.07,0,.08a.25.25,0,0,1,.14.18l.08.23s-.07.09-.2.12-.21.08-.16.15.08.12.05.22.07.11.26.18a7.77,7.77,0,0,0,2,.27,7,7,0,0,0,1.37,0l.55,0,0-.28A1.87,1.87,0,0,1,283,459a.21.21,0,0,0-.12-.27c-.13-.06-.13-.11,0-.25a.59.59,0,0,0,.17-.25,5,5,0,0,0-.12-.54c-.1-.35-.09-.5,0-.6s.12-.15-.05-.2-.32-.36-.09-.46.34-.25,0-.39a2.52,2.52,0,0,1-.7-.34.87.87,0,0,1,.21-.22c.18-.16.19-.23.09-.38a.36.36,0,0,1,0-.36c.09-.14.07-.19-.07-.23s-.29-.28-.48-.68c-.31-.61-.32-.61-.1-.79s.22-.2.06-.4-.21-.21-.4-.16-.33,0-.4-.48a.48.48,0,0,0-.23-.39c-.11,0-.15-.11-.11-.2s0-.14-.11-.15-.15-.06-.09-.2.06-.2,0-.22a4.19,4.19,0,0,1-.32-.38c-.22-.28-.25-.36-.14-.51s.09-.19,0-.21a.56.56,0,0,1-.21-.09.77.77,0,0,0-.24-.12c-.13,0-.13-.08,0-.2s.16-.27-.08-.21-.7-.69-.57-.92,0-.18-.21-.24-.56-.35-.43-.65,0-.58-.36-.5c-.19,0-.29,0-.34-.08s-.27-.46-.52-.85a3.52,3.52,0,0,1-.45-.9.28.28,0,0,0-.2-.25c-.14,0-.23-.18-.27-.39a1.24,1.24,0,0,0-.26-.54.7.7,0,0,1-.17-.44l.06-.46c0-.13,0-.23-.09-.23l-.33,0c-.17,0-.22,0-.18-.12a14.7,14.7,0,0,0-1.17-1.68,21.43,21.43,0,0,0-1.7-2,2.27,2.27,0,0,1-.24-.45c-.1-.21-.24-.37-.32-.37a2.51,2.51,0,0,1-.67-.57c-.28-.32-.63-.64-.73-.74s-.17-.2-.08-.42.08-.48-.25-.85a1.48,1.48,0,0,1-.28-.52c0-.18-.17-.31-.43-.42a6.36,6.36,0,0,1-.88-.57,2.19,2.19,0,0,0-.76-.42c-.21,0-.23-.06-.19-.3s0-.28-.17-.36c-.67-.3-1.25-.79-1.19-1.11s-.08-.37-.24-.16-.12.16-.14.15a3.2,3.2,0,0,0-.31.4,10.65,10.65,0,0,0-.79,1.29,9.82,9.82,0,0,0-.66,1.28c-.21.5-.34.9-.27.89s.05.08.05.19,0,.18.17.11.37.07.47.48c0,.17.08.2.18.13.28-.23.46-.21.48.05a2.64,2.64,0,0,1,0,.4c0,.08.08.22.21.32s.26.16.41,0,.21-.14.6.22.4.44.34.59,0,.47.18.39.35,0,.3.43a.55.55,0,0,0,.12.5,1.31,1.31,0,0,1,.27.49c.09.27.16.33.4.37s.52.19.5.45.24.49.79,1.11c.68.81.77,1,.69,1.16s0,.3.36.25c.16,0,.87.65,1,.92s.3.45.44.36.25,0,.14.16a5.27,5.27,0,0,0,.86,1.92,2.62,2.62,0,0,1,.33.8c0,.41.23.64.57.6s.46.08.28.42-.06.58.24.56.19,0,.12.29,0,.32.08.36a6.13,6.13,0,0,1,.75.47s0,.07-.07.14.11.47.37.44.23,0,.16.28-.07.3.21.23.3-.08.14.41c-.06.19.09.26.36.17s.27,0,.07.16-.18.26,0,.2.05.05,0,.15,0,.18.16.12c.36-.09.46,0,.25.21s-.15.41.15.51c.12,0,.13.1.05.22s-.1.15.09.08c.53-.17.54-.17.24.05s-.34.29-.06.22.28,0,.09.19-.12.37.2.26.36-.06.08.14-.25.25.06.21.34.11.12.34-.12.21,0,.43.2.25.32.24.13,0,0,.07A2.6,2.6,0,0,0,277.73,455.81Z"/><path class="cls-1" d="M196,377.46a57,57,0,0,0,9.92,25.77"/><path class="cls-2" d="M200.68,401c-.13.2,0,.25.43.13s.46-.09.22.2-.12.49.2.48q.21,0,.12.09a.11.11,0,0,0,.06.17c.09,0,.1.15,0,.32-.15.42-.14.47.11.45s.38.05.36.27,0,.15.19.09.3,0,.11.14-.14.25.08.15.15-.05.1,0,0,.1,0,.09.17,0,.25.12l.21.2s0,.13-.09.23-.12.2,0,.25.16.07.21.2.14.08.34,0a6,6,0,0,0,1.75-1,8.64,8.64,0,0,0,1.09-.84l.41-.36-.1-.19a1.52,1.52,0,0,1-.13-.35c0-.09-.09-.13-.2-.11s-.16,0-.09-.17.07-.23,0-.25l-.29-.31c-.19-.21-.22-.32-.15-.44s.07-.16-.09-.13-.38-.14-.19-.3.26-.31-.07-.3a1.83,1.83,0,0,1-.71,0,1.73,1.73,0,0,1,.16-.24c.14-.17.15-.23,0-.32a.24.24,0,0,1,0-.29c.06-.13,0-.17-.1-.16s-.3-.16-.5-.44c-.33-.44-.32-.46-.11-.64s.2-.2.06-.34a.29.29,0,0,0-.38-.07c-.27.09-.32,0-.37-.36,0-.17-.09-.3-.19-.32s-.13-.08-.08-.16,0-.12-.1-.12-.14,0-.07-.16.09-.18.06-.2a3.27,3.27,0,0,1-.25-.32c-.18-.23-.19-.3-.07-.44s.12-.16.05-.17a.37.37,0,0,1-.18-.08.65.65,0,0,0-.22-.11c-.11,0-.11-.07,0-.18s.21-.22,0-.18-.54-.63-.37-.82.07-.15-.15-.22-.44-.36-.25-.61.12-.49-.22-.47-.28,0-.3-.11l-.27-.8a2.36,2.36,0,0,1-.18-.84.22.22,0,0,0-.12-.25c-.12-.06-.16-.19-.13-.38a.91.91,0,0,0-.08-.5.47.47,0,0,1,0-.4l.2-.37c.05-.11.05-.2,0-.2l-.32-.05c-.16,0-.19-.07-.12-.14s-.85-3.07-1.05-3.7a1.51,1.51,0,0,1,0-.42c0-.19,0-.36-.08-.38a1.45,1.45,0,0,1-.25-.67c-.07-.34-.15-.7-.19-.81s0-.21.18-.32.35-.3.34-.68a.79.79,0,0,1,.11-.45.4.4,0,0,0,0-.46,2.64,2.64,0,0,1-.24-.75,1.45,1.45,0,0,0-.22-.62c-.13-.12-.12-.15.09-.26s.22-.15.16-.28c-.22-.51-.15-1.08.14-1.19s.25-.22,0-.21a.44.44,0,0,1-.2,0h-.5c-.45,0-.6,0-1.51.14a10.91,10.91,0,0,0-1.42.22c-.53.12-.93.27-.87.31s0,.08-.12.15-.13.12,0,.19.17.32-.07.65c-.11.15-.1.2,0,.22.36.05.46.19.28.38a1.6,1.6,0,0,1-.29.26c-.06,0-.09.21-.07.37s.08.29.28.29.24,0,.29.54,0,.57-.12.65-.32.34-.1.41.26.22,0,.51a.53.53,0,0,0-.19.47,1.56,1.56,0,0,1,0,.55c-.07.27-.05.37.14.53s.34.4.19.62,0,.54.18,1.32c.25,1,.29,1.17.14,1.31s-.11.27.23.36a2.34,2.34,0,0,1,.56,1.15c0,.28.13.49.29.46s.24.05.08.18a4,4,0,0,0,.23,2,2.46,2.46,0,0,1,.1.8c-.1.38.06.64.4.66s.42.16.17.45-.2.52.09.55.18.07.06.3-.1.29,0,.35a5.32,5.32,0,0,1,.64.55.59.59,0,0,1-.09.13c-.16.17,0,.46.29.48s.21,0,.11.28-.12.28.17.25.3,0,.08.42c-.08.18.05.27.33.2s.27,0,.06.17-.2.24,0,.19.05.06,0,.15-.06.18.15.14c.37-.07.47,0,.24.23s-.16.4.13.52c.12,0,.13.1.05.22s-.1.15.09.09c.54-.17.54-.17.24.06s-.34.29-.06.22.28,0,.1.19-.1.39.23.27.35-.07.09.15-.24.27.06.21.36.1.18.35-.1.24.07.46.27.25.37.22.13,0,0,.08A1.79,1.79,0,0,0,200.68,401Z"/><path class="cls-2" d="M230.13,306c-.1.3.16.47.63.44s.57.07.36.49a.71.71,0,0,0,.42,1c.19.06.25.14.19.24a.35.35,0,0,0,.11.35.69.69,0,0,1,.11.61c-.13.68-.1.77.21.89a.69.69,0,0,1,.46.76c0,.22,0,.27.25.29s.37.16.15.35-.17.32.09.32.18,0,.12.15,0,.17,0,.19a1.07,1.07,0,0,1,.29.43l.23.54a.36.36,0,0,1-.13.35c-.16.15-.18.24-.09.4a1,1,0,0,1,.2.55c0,.15.14.27.38.37.45.19.93.18,2.23-.07a4.28,4.28,0,0,0,1.42-.43l.54-.26-.1-.55a7.78,7.78,0,0,1-.12-.92.55.55,0,0,0-.24-.49c-.18-.09-.2-.17-.12-.48a1.25,1.25,0,0,0,.06-.49l-.39-1c-.3-.65-.37-.93-.3-1.13s.06-.28-.15-.37-.55-.68-.35-.86.25-.45-.2-.71a3.78,3.78,0,0,1-1-.67,1.09,1.09,0,0,1,.11-.39.58.58,0,0,0-.12-.69,1,1,0,0,1-.21-.66c0-.25,0-.35-.23-.43a4.79,4.79,0,0,1-1-1.29c-.75-1.14-.79-1.15-.61-1.44s.15-.32-.17-.7-.4-.41-.62-.35-.43-.06-.85-.93a1.72,1.72,0,0,0-.55-.75.42.42,0,0,1-.27-.35.29.29,0,0,0-.25-.29c-.19-.05-.26-.14-.26-.37a.77.77,0,0,0-.1-.39l-.7-.73c-.5-.53-.59-.68-.54-.92s0-.31-.11-.35a1.3,1.3,0,0,1-.36-.2,2.28,2.28,0,0,0-.43-.28c-.21-.1-.23-.16-.13-.34s0-.41-.26-.38-1.48-1.34-1.47-1.71c0-.21-.07-.29-.47-.46a1.6,1.6,0,0,1-1.09-1.21.9.9,0,0,0-.88-.93.59.59,0,0,1-.56-.22c-.11-.15-.74-.85-1.39-1.57a14,14,0,0,1-1.33-1.61,1.08,1.08,0,0,0-.49-.48,1.68,1.68,0,0,1-.66-.72,5.11,5.11,0,0,0-.76-.95,2.13,2.13,0,0,1-.54-.77l-.23-.75c-.06-.2-.18-.37-.27-.39l-.47-.06c-.24,0-.33-.1-.34-.25a12.56,12.56,0,0,0-.82-1c-.49-.58-1.17-1.34-1.83-2.16-1.38-1.61-2.75-3.43-3.25-4a5.36,5.36,0,0,1-.45-.86,2,2,0,0,0-.53-.78,6.14,6.14,0,0,1-1-1.35c-.45-.69-.86-1.47-1-1.69s-.23-.45-.1-.7.14-.65-.2-1.47a2.58,2.58,0,0,1-.24-1,1.8,1.8,0,0,0-.39-1,9.68,9.68,0,0,1-.77-1.63,10.41,10.41,0,0,0-.59-1.36c-.21-.28-.21-.35,0-.57s.17-.32.06-.62a6.23,6.23,0,0,1-.4-1.66c0-.49,0-.85.19-1s.24-.43-.06-.45c-.12,0-.22,0-.22,0a2.06,2.06,0,0,0-.56-.06,8,8,0,0,0-1.64.11,5.6,5.6,0,0,0-1.53.29c-.55.21-1,.49-.89.61s0,.2-.1.34-.11.29.07.49.26.79.14,1.56c-.05.34,0,.47.12.52a.75.75,0,0,1,.48,1,3.73,3.73,0,0,1-.18.6,1.92,1.92,0,0,0,.12.88c.18.61.26.69.49.69s.31.11.71,1.27.48,1.3.36,1.49a.67.67,0,0,0,.21.93c.36.17.5.48.44,1.14a1.79,1.79,0,0,0,.2,1,8.45,8.45,0,0,1,.49,1.2,1.9,1.9,0,0,0,.7,1.13c.61.49.84.83.89,1.3a12.05,12.05,0,0,0,1.7,2.71c1.46,2,1.74,2.28,1.71,2.58s.19.56.71.68a11.7,11.7,0,0,1,2.11,2.12c.35.54.77.93.93.84s.37.05.33.32a17.91,17.91,0,0,0,2.73,3.64,10.27,10.27,0,0,1,1.11,1.46,1.77,1.77,0,0,0,1.3,1.16c.51,0,.74.26.73.78a1,1,0,0,0,.76,1c.24,0,.3.1.39.52a.85.85,0,0,0,.37.63,15.75,15.75,0,0,1,1.45,1s0,.12,0,.23c0,.3.5.83.87.86s.33.08.43.53.12.5.49.47.37-.05.5.76a.47.47,0,0,0,.64.4c.28-.08.39.07.23.32s-.07.41.12.35.11.1.13.27,0,.31.31.27c.45-.06.67.14.52.46s.11.71.59,1c.2.11.27.22.23.41s0,.26.21.19c.61-.18.62-.17.37.17s-.26.44.08.4.36.05.26.38.12.68.49.57.44,0,.22.29-.15.43.22.43.54.3.43.7c-.07.23,0,.4.35.87s.47.59.6.58.16,0,0,.16A1.16,1.16,0,0,0,230.13,306Z"/><path class="cls-2" d="M146.49,306a1.71,1.71,0,0,0-.18,1.78c.29.66.23.93-.32,1.49a3.75,3.75,0,0,0-.79,2.59.94.94,0,0,1-.15.76,2.09,2.09,0,0,0-.28.87,4.29,4.29,0,0,1-.54,1.47c-.74,1.32-.82,1.57-.73,2.2a4,4,0,0,1-.38,2.26c-.21.51-.23.68-.1.94a.67.67,0,0,1-.2,1,.58.58,0,0,0-.22.84c.12.14.11.26,0,.47a.76.76,0,0,0-.13.48,5.85,5.85,0,0,1-.14,1.28l-.26,1.5a1.42,1.42,0,0,1-.38.71,1.27,1.27,0,0,0-.38.92,6.62,6.62,0,0,1-.24,1.5,2.17,2.17,0,0,0,.05,1.18c.24.81.66,1.1,1.95,1.36a2.13,2.13,0,0,0,1.53,0l.64-.21.27-1.19c.15-.66.37-1.55.5-2a2.48,2.48,0,0,0,.14-1.16c-.08-.32,0-.52.26-1.06a4.72,4.72,0,0,0,.41-.94c0-.15.24-1.2.46-2.33a7.47,7.47,0,0,1,.71-2.45.88.88,0,0,0,.2-.86c-.13-.62.18-1.85.49-2,.46-.2.57-.55.51-1.52a12,12,0,0,1,0-2.35,2.79,2.79,0,0,1,.45-.59,2.37,2.37,0,0,0,.59-1.37,4.86,4.86,0,0,1,.52-1.44,1.43,1.43,0,0,0,.29-1,20.28,20.28,0,0,1,.79-3.52c.84-2.93.87-3,1.25-3.21s.4-.32.68-1.38.27-1.21.13-1.44-.12-.72.72-2.7a9.26,9.26,0,0,0,.65-2,2.05,2.05,0,0,1,.33-.95,1.37,1.37,0,0,0,.26-.83,1.41,1.41,0,0,1,.35-.95,2.9,2.9,0,0,0,.42-.73l.69-2.15c.51-1.56.69-1.92,1-2.18a1.05,1.05,0,0,0,.39-.67,6.16,6.16,0,0,1,.18-.87,10.11,10.11,0,0,0,.25-1.08c.09-.48.16-.6.4-.69a.74.74,0,0,0,.42-.93,16.58,16.58,0,0,1,1.95-4.72c.26-.25.35-.5.53-1.38a7.25,7.25,0,0,1,1.51-3.36,4.35,4.35,0,0,0,1.25-2.62,2,2,0,0,1,.32-1.21c.21-.37,1.21-2.25,2.37-4.09a29.78,29.78,0,0,1,2.73-3.8,5.66,5.66,0,0,0,.92-1.22,6.69,6.69,0,0,1,1.41-1.66c.58-.51,1.43-1.37,1.94-1.86a7.12,7.12,0,0,1,1.62-1.3c.4-.2,1-.55,1.41-.71a2.52,2.52,0,0,0,.86-.55c.09-.13.3-.46.49-.72a1.11,1.11,0,0,1,.72-.57c.06,0,.75-.44,1.87-1a44.85,44.85,0,0,1,4.46-2.07c3.54-1.44,7.91-2.71,10.52-3.5l2.25-.68-1-2a13.94,13.94,0,0,0-1.26-2.16,7,7,0,0,0-.84-1.07c-.11-.11-.35-.4-.66-.78l-1.15-1.18c-.45-.37-.9-.74-1.28-1a4.89,4.89,0,0,0-.84-.45,36.2,36.2,0,0,0-4.09-1.74A31.48,31.48,0,0,0,183,234.1c-1-.18-1.25-.25-1.61-.55s-1.21-.63-3.47-.94a20.55,20.55,0,0,1-2.47-.44,12.51,12.51,0,0,0-2.51-.31,30.38,30.38,0,0,1-4.26-.59c-1.42-.28-2.87-.71-3.33-.79-.74-.14-.85-.24-1.11-.59a2,2,0,0,0-1.05-.73,8.82,8.82,0,0,1-2.87-2,6,6,0,0,1-.69-1,1.26,1.26,0,0,1-.17-.6c.06-.38-.11-.77-.41-.71-.12,0-.24,0-.26,0a1.5,1.5,0,0,0-.6,0,4.43,4.43,0,0,0-1.58.53c-.93.44-1,.49-1.29.88a1.58,1.58,0,0,0-.31,1.49,3.7,3.7,0,0,1,.32.74,1.47,1.47,0,0,0,.72,1,35.48,35.48,0,0,1,2.73,2.7c.55.59.85.71,1.09.72a4.09,4.09,0,0,1,2.3.92,10.83,10.83,0,0,1,1,.8,8.34,8.34,0,0,0,1.89.79c1.42.4,1.66.42,1.89.24s.51-.07,3.28.43c2.44.41,3.09.49,3.35.7a2.74,2.74,0,0,0,2.07.38,3.77,3.77,0,0,1,2.58.38,8,8,0,0,0,2.09.58,18.06,18.06,0,0,1,2.58.63,10.59,10.59,0,0,0,2.6.65,5.33,5.33,0,0,1,2.89,1.05c.17.16.71.43,1.51,1a11.06,11.06,0,0,1,2.85,2.66,9.75,9.75,0,0,1,.86,1.47l.06.11h0c3.48-7.57,1-2.1,1.74-3.79h-.06l-.05,0-.13,0h0l.08,0,.06,0h.07c-.78,1.7,1.74-3.8-1.75,3.81l1.75-3.81c-3.53,1-4.06,1.14-4.39,1.11a3,3,0,0,0-2.08.8c-.2.15-1.48.65-2.87,1.23l-3.59,1.51a6.73,6.73,0,0,0-2.6,1.45c0,.25-.5.55-1,.56a14.52,14.52,0,0,0-3.09,1.68,33.37,33.37,0,0,0-5.86,4.91c-.66.67-1.29,1.4-1.85,2s-1,1.1-1.17,1.31a8.47,8.47,0,0,0-2.33,3.6,3.38,3.38,0,0,1-1.37,2.24,4.83,4.83,0,0,0-1.59,2.6c-.07.47-.2.67-.79,1.38a4.14,4.14,0,0,0-.91,1.49l-1.39,4a1.51,1.51,0,0,1-.3.32,6.11,6.11,0,0,0-1.1,2.76c0,.56-.07.7-.64,1.51s-.63.91-.56,1.51.11.57-.91,2a2.08,2.08,0,0,0-.42,1.7.64.64,0,0,1-.36.88c-.29.1-.53.51-.42.73s-.11.36-.32.65c-.34.47-.37.58-.28,1a1.5,1.5,0,0,1-.46,1.61,4.33,4.33,0,0,0-1.07,2.57,1.93,1.93,0,0,1-.45,1.09c-.29.32-.32.39-.18.64.39.71.39.73-.1.88s-.6.33-.45.82.06.67-.37,1.07-.78,1.4-.52,1.78.19.65-.27.87-.55.52-.41,1.11a2.44,2.44,0,0,1-.63,1.95,5.44,5.44,0,0,0-.86,2.17,5.86,5.86,0,0,0-.36,2c.1.19.07.25-.16.36A1.67,1.67,0,0,0,146.49,306Z"/><path class="cls-1" d="M279.67,544.37c-8.24,4.72-18.79.74-28,2.94"/><path class="cls-2" d="M256.07,543.46c-.12-.2-.25-.07-.32.33s-.13.45-.3.11-.4-.33-.53,0c-.06.13-.11.16-.15.07a.13.13,0,0,0-.19,0c-.08.07-.19,0-.32-.1-.34-.32-.4-.33-.49-.09s-.23.32-.43.21-.15,0-.17.14-.1.28-.19,0-.18-.22-.18,0,0,.16-.08.08-.1-.06-.11,0a.38.38,0,0,1-.23.18l-.29.12s-.13,0-.2-.17-.14-.19-.23-.12-.14.12-.29.12-.14.1-.17.3a5.3,5.3,0,0,0,.28,2,9.71,9.71,0,0,0,.37,1.32l.18.52.22,0a1.45,1.45,0,0,1,.37,0c.09,0,.16,0,.18-.15s.06-.14.19,0,.18.15.2.14l.4-.15c.26-.08.38-.06.46.06s.11.13.15,0,.29-.28.35-.05.17.37.29.07a2.16,2.16,0,0,1,.34-.63.84.84,0,0,1,.15.25c.09.2.14.24.28.18a.22.22,0,0,1,.27.08c.09.12.13.12.19,0s.28-.19.62-.25c.54-.09.56-.07.63.2s.08.27.28.21.21-.11.24-.31.11-.3.5-.15c.16.06.31,0,.37,0s.14-.07.18,0,.11.08.16,0,.11-.11.18,0,.13.16.15.15a3.65,3.65,0,0,1,.41-.09c.3,0,.37,0,.43.15s.1.18.14.12a.61.61,0,0,1,.16-.12.76.76,0,0,0,.21-.14c.08-.09.11-.06.14.11s.11.29.18.06.84-.19.93.05.11.13.28,0,.53-.24.68,0,.42.33.54,0,.14-.25.24-.23.47.06.89.09a2.85,2.85,0,0,1,.88.18.26.26,0,0,0,.3,0,.36.36,0,0,1,.42,0,1,1,0,0,0,.52.11.52.52,0,0,1,.41.13l.31.32c.08.09.17.12.2.07l.17-.28c.08-.14.13-.16.18-.08a10.42,10.42,0,0,0,1.85.07,14.41,14.41,0,0,0,2.38-.19,1.85,1.85,0,0,1,.46.07c.21,0,.41,0,.45,0a2.18,2.18,0,0,1,.78-.21c.39-.06.8-.14.93-.17s.24,0,.37.19.33.32.78.27a1.42,1.42,0,0,1,.56.06.55.55,0,0,0,.54-.1,6.9,6.9,0,0,1,.89-.42,2.28,2.28,0,0,0,.71-.39c.12-.16.16-.16.33,0s.23.17.37,0c.55-.43,1.24-.62,1.47-.4s.35.14.25-.1a.43.43,0,0,1-.06-.2,3.25,3.25,0,0,0-.18-.46,14,14,0,0,0-.71-1.34,11.51,11.51,0,0,0-.76-1.23c-.31-.44-.59-.77-.61-.71s-.08,0-.17-.07-.15-.08-.16.08-.22.25-.58.11c-.15-.06-.19,0-.17.08,0,.36,0,.5-.25.37a2.42,2.42,0,0,1-.31-.24.39.39,0,0,0-.34,0c-.21.07-.24.11-.19.31s0,.24-.44.37-.51.07-.6-.07-.34-.3-.38-.08-.18.27-.46,0-.28-.22-.41-.18a1.16,1.16,0,0,1-.49-.08c-.24-.09-.32-.07-.47.1s-.37.31-.55.15-.48-.11-1.2,0c-.9.09-1.09,0-1.17-.13s-.22-.17-.37.13a1.72,1.72,0,0,1-1.15.24c-.25-.09-.47,0-.49.13s-.11.22-.18,0a4.31,4.31,0,0,0-1.83-.47,1.88,1.88,0,0,1-.74-.21c-.3-.24-.58-.2-.74.1s-.3.32-.45,0-.38-.39-.53-.15-.12.13-.28-.08-.21-.21-.3-.15a4.73,4.73,0,0,1-.76.33.39.39,0,0,1-.07-.14c-.08-.21-.42-.18-.55,0s-.13.18-.3,0-.2-.22-.3,0-.1.29-.41-.12c-.12-.16-.26-.08-.33.21s-.14.23-.17,0-.13-.29-.16-.12-.07,0-.14-.07-.12-.14-.19.07-.24.4-.31.1-.29-.33-.53-.13-.16.07-.22-.06-.09-.15-.13,0c-.1.55-.1.56-.16.18s-.1-.43-.18-.15-.11.26-.22,0-.31-.26-.35.08-.1.35-.18,0-.14-.33-.23,0-.25.27-.39,0-.17-.2-.46-.14-.37.12-.39.23,0,.13-.08,0A1.78,1.78,0,0,0,256.07,543.46Z"/><path class="cls-2" d="M160.39,154s11.25,3.69,17,3.78c6.34.09,12.86.35,19.11-.74,14.93-2.61,31.88-4.93,45.19.81-4.37,1.65-6.25,6.8-6.87,11.43s-.62,9.62-3.24,13.5c-3.79,5.6-11.62,6.73-18.34,6a29.45,29.45,0,0,1-11.59-3.48A23.4,23.4,0,0,1,192.54,175c-1.09-2.32-2-6-3.82-7.8s-5.66-1.89-7.55,1.89c-2.16,4.49-4.62,6.53-7.87,10.3-2,2.37-4.15,4.8-6.92,6.24a20.15,20.15,0,0,1-6.62,1.84c-4.3.57-10.86,2.9-14.48.5-6.85-4.53-4.95-17.4-10.85-23.13-1.11-1.09-4.67-3.91-3.72-5.87s7.08-4.77,8.91-5A75.64,75.64,0,0,1,160.39,154Z"/><path class="cls-2" d="M143.18,170.32a4.43,4.43,0,0,0-.47-1.82,4.84,4.84,0,0,0-1.29-1.56,4,4,0,0,1-1.21-1.23,8.72,8.72,0,0,1-.69-1.87,7.15,7.15,0,0,0-1.83-2.82,6.56,6.56,0,0,0-1.89-1.37c-.47-.2-.64-.38-.63-.59s-.11-.48,0-.11l0,.2a1.42,1.42,0,0,1,0,.36,3.39,3.39,0,0,1-.13,1.16c0,.11-.08.22-.13.33l-.09.23c-.07.15-.21.33-.16.32s0,.08,0,.11h.13a8.94,8.94,0,0,0,.94-.27,6,6,0,0,0,.76-.3,2.73,2.73,0,0,0,1-.78,4.21,4.21,0,0,1,1.25-1,3.7,3.7,0,0,1,1.53-.46h.11a.26.26,0,0,1-.1,0h.1a.58.58,0,0,0,.19,0,1.05,1.05,0,0,0,.57-.32,1.3,1.3,0,0,1,1.69-.2,1.09,1.09,0,0,0,1.47-.1c.18-.23.39-.27.81-.17a1.37,1.37,0,0,0,.86,0,9.21,9.21,0,0,1,2.18-.33c1-.08,2.19-.13,2.58-.15a2.68,2.68,0,0,1,1.31.35,2.34,2.34,0,0,0,1.64.32,9.85,9.85,0,0,1,2.55.08,4.28,4.28,0,0,0,2-.22c1.32-.44,1.77-1.07,2.08-3a2.65,2.65,0,0,0-.28-2.29l-.5-1c-.77-.11-1.53-.21-2.31-.3l-3.84-.39a5.56,5.56,0,0,0-2.21.12,3.15,3.15,0,0,1-2.06,0,9.77,9.77,0,0,0-1.91-.24c-.29,0-2.31.16-4.46.42-1.45.17-2.48.3-3.23.35-1.17.15-1.56.3-2,.31a2.12,2.12,0,0,0-1.67.68c-.9.78-3.06,1.95-3.63,1.88a1.63,1.63,0,0,0-1.27.26,3.86,3.86,0,0,0-.76.63,6.51,6.51,0,0,0-.45.52l-.25.32-.28.43-.18.29-.21.4a3.48,3.48,0,0,0-.3.86,3.69,3.69,0,0,0,0,1.68,4.62,4.62,0,0,0,.9,1.87c.62.79,1.06,1.11,1.19,1.3a13.31,13.31,0,0,1,.65,1.34,3.83,3.83,0,0,0,.65,1.07,13.75,13.75,0,0,0,1.08,1,5.28,5.28,0,0,1,.78.92,5.36,5.36,0,0,1,.42.93,2.6,2.6,0,0,0,.73,1.48c.35.38,1.28,2.33,2.17,5.83,1.4,5.44,1.66,5.7,1.4,6.42a1.48,1.48,0,0,0,0,1,8.89,8.89,0,0,0,.94,2.06,8.2,8.2,0,0,0,1.29,1.83,1.39,1.39,0,0,0,.82.55,2.71,2.71,0,0,1,1.33.88c.36.28.8.65,1.4,1.14a9.47,9.47,0,0,0,2.92,1.3,10.13,10.13,0,0,0,4.46.1,6.28,6.28,0,0,1,2-.26,3,3,0,0,0,1.62-.34,3.19,3.19,0,0,1,1.85-.34,7.26,7.26,0,0,0,1.52-.07c.12,0,.64-.16,1.3-.28s1.76-.3,2.8-.55a31.9,31.9,0,0,0,3.32-1,6.76,6.76,0,0,1,1.5-.4,2.77,2.77,0,0,0,1.55-.68l1.38-1.26a14.4,14.4,0,0,0,1.52-1.68c.57-.77.77-.94,1.2-1a1.69,1.69,0,0,0,1.37-1.41,18.25,18.25,0,0,1,2.79-3.55c1.45-1.54,3-3.3,3.52-3.68s.91-.87,1.6-2.56l.77-2a3.26,3.26,0,0,1,.63-1.07,1.45,1.45,0,0,1,1.53-.54,9.26,9.26,0,0,1,1.11.47,1.72,1.72,0,0,0,.37.14,4.83,4.83,0,0,0,.64.33,2.42,2.42,0,0,1,1.25,1.48c.15.32.55,1.32,1.11,2.84.28.74.64,1.67,1.1,2.62a29.71,29.71,0,0,0,1.57,2.83,28.53,28.53,0,0,0,3.86,4.79c1.25,1.24,2.31,2,2.63,2.33a9.46,9.46,0,0,0,2.77,1.63c1,.37,2.43,1,4.21,1.71a23.46,23.46,0,0,0,5.34,1.37c1.42.19,3.34.45,4.24.62s2.38.41,3.3.5A6.58,6.58,0,0,0,221,192c.31-.1,1.08-.46,1.7-.74a4.67,4.67,0,0,1,1.93-.61,10.42,10.42,0,0,0,1.55-.47,16.85,16.85,0,0,0,3.7-1.84,14.82,14.82,0,0,0,4.31-4.34,18.86,18.86,0,0,0,2.49-6.5c.45-2.25.63-4.45.87-6.48.12-1,.23-2,.42-2.83a19,19,0,0,1,.66-2.5,10.63,10.63,0,0,1,2-3.64,5.46,5.46,0,0,1,2.09-1.52l.15-.06a2.87,2.87,0,0,0,0-5.35l-2.76-1c-.25-.07-.85-.28-1.62-.56-.39-.13-.82-.3-1.27-.44l-1.4-.42c-.47-.14-1-.29-1.41-.4l-1.28-.26a9.49,9.49,0,0,0-1.64-.21c-.24,0-1.24-.07-2.64-.21s-3.23-.24-5.12-.27a81.47,81.47,0,0,0-9,.23c-1.8.13-2.3.16-3.05-.14-1-.39-2.38-.44-6.47,0-1.61.18-3.68.35-4.6.36a23.26,23.26,0,0,0-4.82.74,42.32,42.32,0,0,1-7.69.9c-2.71.09-5.76.12-6.7.21a3.77,3.77,0,0,1-2.58-.26,3.45,3.45,0,0,0-1.06-.33,11.24,11.24,0,0,0-1.32-.09,32.36,32.36,0,0,1-7.23-1.34,13.13,13.13,0,0,1-3.94-1.6c-.56-.62-1.63-1-2-.62a.57.57,0,0,1-.43.2c-.1,0-.46.24-.8.6s-.32.52-.86.72c-.35.27-.43.7-.54,1.43a11.71,11.71,0,0,0-.16,1.52,2.26,2.26,0,0,0,.12.9c.28,1,1,1.92,1.48,2a4.27,4.27,0,0,1,1.18.58,3,3,0,0,0,1.93.56,24.15,24.15,0,0,1,6.18,1.74c1.26.45,1.81.54,2.22.41a7.1,7.1,0,0,1,2.08-.26,13.08,13.08,0,0,1,2.41.27c.83.19,1.78.45,2.1.57a18.52,18.52,0,0,0,3.52.27c2.57,0,3-.07,3.33-.39s.81-.28,6-.65c2.25-.19,3.77-.44,4.64-.53a4.57,4.57,0,0,1,1.59,0A5.86,5.86,0,0,0,203,159a8.37,8.37,0,0,1,4.79-.49,17.84,17.84,0,0,0,4,0c.57-.05,1.42-.1,2.32-.14s1.86,0,2.66,0a24.7,24.7,0,0,0,5.09-.18,21.9,21.9,0,0,1,3.47-.21,12.22,12.22,0,0,1,2.5.4c.41.14,1.59.3,3.51.66a41.63,41.63,0,0,1,7.88,2.22l.88.34h0c-.16,6.85.22-9.33.18-7.67h0l-.06,0-.08,0-.08,0,.06,0,.08,0,.06,0h.07c-.08,3.42.17-7.66-.18,7.67l.18-7.67a12.3,12.3,0,0,0-4,2.46,14.25,14.25,0,0,0-2.24,2.64,19.94,19.94,0,0,0-2,3.82c-.72,1.87-.91,2.51-1.16,2.94a6.83,6.83,0,0,0-.53,4.45,36.76,36.76,0,0,1-.35,5.28,15.34,15.34,0,0,1-.73,3.08,6.6,6.6,0,0,1-.92,1.77c-1.05,1.37-2.37,2.26-2.33,2.58s-.59.79-1.23.71a27.79,27.79,0,0,1-4.66.9,28.41,28.41,0,0,1-5,0c-.93-.1-2-.23-3-.42s-2.08-.41-3.1-.7a19.44,19.44,0,0,1-3.56-1.39,11.14,11.14,0,0,1-2-1.29,38.74,38.74,0,0,0-4.39-3.79,3.74,3.74,0,0,1-2-3.15,6.62,6.62,0,0,0-.17-1,9.41,9.41,0,0,0-.32-1.15,9.56,9.56,0,0,0-1.23-2.43,4.79,4.79,0,0,1-.66-1.12c-.19-.45-.36-1-.8-2.1a8.77,8.77,0,0,0-1.56-2.45,7.28,7.28,0,0,0-2.6-1.8,9.94,9.94,0,0,0-3.13-.71,9.57,9.57,0,0,0-4.76,1,9.93,9.93,0,0,0-3.37,2.79,12.17,12.17,0,0,0-1.16,1.84,2.88,2.88,0,0,1-.28.39l-.33.3A8.47,8.47,0,0,0,175.5,169a12.38,12.38,0,0,0-1.05,2c-.29.82-.43,1-1.79,2-1.53,1.14-1.59,1.2-1.92,2.24s-.34,1.14-2.7,2.82a3.46,3.46,0,0,0-1.62,2.1.79.79,0,0,1-1,.77c-.41-.14-.92.05-.95.38,0,.1-.36.24-.79.27-.7,0-.82.08-1.14.53a1.92,1.92,0,0,1-2.31.69,1.93,1.93,0,0,0-.7-.17,3.09,3.09,0,0,0-.53,0l-.75.06a15.45,15.45,0,0,0-3.19.82,3.48,3.48,0,0,1-2,.28c-.69-.13-.79-.11-1,.25-.7,1-.75,1-1.25.45s-.72-.65-1.23-.2-.79.38-1.11-.11a2.8,2.8,0,0,0-.31-.46s0,0-.06,0a.58.58,0,0,0-.18,0,.69.69,0,0,0-.41.08c-.58.32-.79,0-.6-.58a.85.85,0,0,0,0-.68c-.09-.19-.33-.25-.68-.44a2.65,2.65,0,0,1-1.07-2.62,4.19,4.19,0,0,0-.12-1.22c0-.28-.14-.61-.25-1l-.42-1.54a12.42,12.42,0,0,0-1.24-3.53c-.3-.24-.32-.37-.14-.76A3.69,3.69,0,0,0,143.18,170.32Z"/><path class="cls-3" d="M227.37,166c-.09.08,0,.08.18,0s.23-.08.08,0-.11.18,0,.15.08,0,.05,0,0,0,0,0,0,.05,0,.11-.13.18,0,.15.17,0,.13.06,0,0,.08,0,.15,0,0,0-.1.09,0,0,.07,0,0,0,0,0,0,0a.12.12,0,0,1,.1,0l.07,0s0,.05-.08.09-.09.08,0,.09.06,0,.06.06.06,0,.16,0a6.76,6.76,0,0,0,1-.48c.38-.21.4-.23.64-.38l.25-.16,0-.06a.27.27,0,0,1,0-.12s0,0-.08,0-.07,0,0-.06.07-.09.06-.09l-.09-.1c-.07-.06-.07-.1,0-.15s.06-.06,0,0-.16,0-.05-.1.16-.13,0-.1-.34.06-.34,0l.11-.1c.09-.07.1-.09.05-.12s0-.05,0-.1,0-.06,0-.05-.12,0-.19-.11-.1-.14,0-.22.12-.09.06-.13-.08,0-.18,0-.16,0-.14-.09,0-.1-.06-.09-.06,0,0-.05,0,0,0,0-.07,0,0,0,0-.07,0-.07l-.1-.09c-.06-.06-.06-.09,0-.15s.07-.07,0-.06H229l-.09,0c-.06,0-.05,0,0-.06s.11-.11,0-.06-.21-.16-.12-.25,0-.06-.06-.06-.2-.06-.09-.18.09-.19-.08-.13-.14,0-.14,0l-.1-.24a.56.56,0,0,1-.06-.26s0-.07-.05-.07-.07,0-.05-.11a.17.17,0,0,0,0-.16.12.12,0,0,1,0-.13l.1-.16c0-.05,0-.08,0-.07l-.16,0c-.08,0-.09,0-.06,0a4.57,4.57,0,0,0-.54-1.05.31.31,0,0,1,0-.14c0-.07,0-.12-.05-.11s-.1-.07-.15-.17a1.81,1.81,0,0,0-.12-.22s0-.07.08-.14.15-.16.13-.28a.25.25,0,0,1,0-.17c0-.06,0-.1,0-.14a.59.59,0,0,1-.17-.18.35.35,0,0,0-.15-.15c-.07,0-.07,0,0-.1s.1-.09.06-.12a.25.25,0,0,1,0-.4c.12-.09.11-.12,0-.06l-.1,0-.24.12c-.22.11-.29.14-.73.39l-.67.38a1.79,1.79,0,0,0-.4.29s0,0-.05.07,0,.07,0,0,.1.06,0,.2,0,.08,0,.06.24,0,.16.05l-.12.14a.1.1,0,0,0,0,.12c0,.07.06.07.16,0s.12,0,.17.09,0,.17,0,.22-.14.17,0,.14.14,0,0,.16-.1.14-.08.18a.24.24,0,0,1,0,.17c0,.1,0,.12.08.13s.18.06.11.15,0,.17.11.38.15.31.07.38-.05.1.11.07.28.17.27.26.06.14.14.1.11,0,0,0,0,.32.06.6a.36.36,0,0,1,0,.25c-.06.14,0,.2.17.15s.2,0,.06.12-.12.2,0,.17.08,0,0,.09-.06.11,0,.12a1.21,1.21,0,0,1,.27.09s0,0,0,.06,0,.15.11.12.1,0,0,.08-.08.11.06.06.15,0,0,.13,0,.08.14,0,.13,0,0,.05-.12.11,0,.07,0,0,0,.05-.05.07.06,0,.22,0,.09,0-.12.16,0,.16.06,0,0,.07-.06.06,0,0c.28-.12.28-.12.11,0s-.19.14-.05.09.14,0,0,0-.09.15.08.07.18-.06,0,0-.14.12,0,.07.17,0,0,.1-.07.09,0,.15.1.06.15,0,.07,0,0,0A.94.94,0,0,0,227.37,166Z"/><path class="cls-3" d="M222.91,176.2c-.08.11,0,.18.24.18s.26,0,.11.2a.22.22,0,0,0,.09.38q.12,0,.06.09s0,.09,0,.14a.23.23,0,0,1,0,.23c-.12.27-.12.3,0,.35a.21.21,0,0,1,.18.28c0,.09,0,.11.1.11s.18,0,.06.13-.1.13,0,.12.08,0,.05.05,0,.07,0,.07a.33.33,0,0,1,.13.15l.1.2s0,.09-.07.14-.09.11,0,.16a.3.3,0,0,1,.1.2c0,.06.07.09.18.11a2.21,2.21,0,0,0,1.08-.23A2.85,2.85,0,0,0,226,179l.27-.14-.05-.17c0-.1,0-.23,0-.3a.13.13,0,0,0-.1-.14c-.08,0-.09-.05,0-.16a.3.3,0,0,0,.05-.17l-.14-.32c-.1-.2-.11-.3-.06-.37s.05-.1,0-.12-.2-.21-.09-.28.17-.16,0-.24a1.29,1.29,0,0,1-.4-.21.45.45,0,0,1,.1-.14c.09-.1.09-.14,0-.24a.24.24,0,0,1,0-.23c0-.08,0-.12,0-.15s-.16-.19-.27-.46-.17-.42,0-.51.12-.11,0-.25-.11-.15-.22-.14-.18,0-.2-.36a.39.39,0,0,0-.1-.29.11.11,0,0,1,0-.14c0-.05,0-.09-.05-.11s-.08-.07,0-.14a.25.25,0,0,0,0-.14s-.08-.16-.15-.3-.11-.28,0-.36.06-.1,0-.12l-.1-.1-.13-.13c-.06,0-.06-.07,0-.13s.12-.13,0-.15-.31-.58-.22-.71,0-.1-.09-.19a.39.39,0,0,1-.16-.52c.12-.19,0-.37-.14-.4s-.16-.05-.18-.13l-.18-.68a3.4,3.4,0,0,1-.15-.68.25.25,0,0,0-.08-.22.35.35,0,0,1-.09-.31,1.36,1.36,0,0,0-.08-.41.51.51,0,0,1,0-.32l.08-.28c0-.07,0-.14,0-.16l-.19-.07c-.09,0-.11-.07-.08-.12s-.75-2.53-1-3a2.37,2.37,0,0,1,0-.33.58.58,0,0,0-.09-.32,1.59,1.59,0,0,1-.23-.54l-.21-.65a.2.2,0,0,1,0-.27c.13-.12.15-.23.09-.54a.94.94,0,0,1,0-.37.53.53,0,0,0-.1-.37,4.12,4.12,0,0,1-.26-.61,2,2,0,0,0-.23-.5c-.09-.1-.09-.12,0-.22a.16.16,0,0,0,0-.24c-.22-.4-.29-.87-.15-1s.09-.19,0-.17-.11,0-.11,0l-.27,0a5.66,5.66,0,0,0-.8.21,3.88,3.88,0,0,0-.73.27c-.26.13-.45.26-.42.29s0,.07,0,.12-.05.1.05.15.14.23.07.49,0,.16,0,.17.28.12.22.27a1.19,1.19,0,0,1-.12.21.43.43,0,0,0,0,.29c.06.19.08.21.2.21s.13,0,.24.4.1.43,0,.5-.13.26,0,.31.17.16.06.39a.45.45,0,0,0,0,.35,1.64,1.64,0,0,1,0,.41.42.42,0,0,0,.14.4c.19.19.24.31.18.47a2.93,2.93,0,0,0,.23,1c.25.76.28.89.2,1s0,.2.16.28a2.46,2.46,0,0,1,.41.89c0,.22.1.38.19.37s.14.05.06.14a4.58,4.58,0,0,0,.24,1.5,2.59,2.59,0,0,1,.09.61c0,.27.05.48.24.53s.25.17.11.35a.26.26,0,0,0,.07.42c.09,0,.1.07,0,.22s-.05.21,0,.26.35.46.37.5a.28.28,0,0,1-.05.08c-.09.1,0,.34.16.39s.12.06.06.23-.06.18.1.21.17,0,0,.32c0,.12,0,.2.19.2s.16.05,0,.13-.12.14,0,.13,0,0,0,.11,0,.12.08.13.26.1.13.21-.1.26.06.4.07.1,0,.17-.06.09.05.08c.31,0,.31,0,.13.09s-.2.14,0,.15.15,0,0,.16-.07.26.12.24.2,0,.05.12-.15.15,0,.17.2.14.08.28-.06.16,0,.35.14.24.2.24.07,0,0,.06A.64.64,0,0,0,222.91,176.2Z"/><path class="cls-3" d="M172.37,167.35c-.1.05,0,.07.18,0s.25,0,.07.07-.15.15,0,.15.08,0,0,0,0,0,0,.05,0,.05-.06.1-.17.15,0,.15.17,0,.11.09,0,.05.07,0,.15,0,0,.05-.13.07,0,0,.08,0,0,0,0,0,0,0a.09.09,0,0,1,.09,0l.05.07s0,0-.1.07-.1.06-.07.07.06,0,0,.07.05,0,.16,0a6.15,6.15,0,0,0,1.07-.22,6,6,0,0,0,.72-.2l.28-.09V168a.43.43,0,0,1,0-.12s0-.05-.07-.05-.08,0,0-.06a.25.25,0,0,0,.08-.09l-.07-.12c-.05-.08,0-.12,0-.15s.07,0,0,0-.15-.07,0-.11.19-.09,0-.11a1.27,1.27,0,0,1-.34,0l.13-.07c.1-.06.11-.08.08-.11s0-.07,0-.1,0-.06,0-.06-.11-.06-.16-.17-.08-.16.06-.22.14-.06.09-.11-.08-.06-.18,0-.16,0-.12-.13,0-.1,0-.11-.05,0,0-.05,0,0,0,0-.06,0,0-.05a.22.22,0,0,0,.06-.07l-.09-.11c0-.08,0-.11,0-.15s.08-.06,0-.07l-.08,0a.23.23,0,0,0-.1,0c-.05,0,0,0,0-.06s.13-.08,0-.06-.18-.22-.07-.29,0-.05-.05-.07-.19-.11-.06-.2.12-.18,0-.16-.15,0-.15,0a2.4,2.4,0,0,0-.05-.27.58.58,0,0,1,0-.28s0-.07,0-.08-.07-.06,0-.13a.25.25,0,0,0,0-.17s0-.09,0-.14l.13-.14s0-.07,0-.07h-.16c-.08,0-.09,0,0,0a4.87,4.87,0,0,0-.4-1.19.43.43,0,0,1,0-.15c0-.07,0-.12,0-.12a.3.3,0,0,1-.13-.2,2.06,2.06,0,0,0-.1-.25s0-.07.09-.14.17-.14.16-.27a.28.28,0,0,1,0-.18s0-.1,0-.15a.57.57,0,0,1-.16-.22.31.31,0,0,0-.14-.17c-.07,0-.07,0,0-.1s.11-.09.07-.13a.26.26,0,0,1,0-.42c.13-.08.12-.12,0-.07l-.1,0-.25.09c-.23.09-.31.12-.76.32s-.52.23-.71.33-.45.24-.42.25,0,0-.06.06,0,.06,0,.06.11.06,0,.2,0,.08,0,.07.25,0,.16.06a.55.55,0,0,1-.14.13.1.1,0,0,0,0,.12c0,.07,0,.08.15.05s.12,0,.17.12,0,.17-.05.21-.16.16,0,.14.13,0,0,.16-.11.13-.09.18a.29.29,0,0,1,0,.17c0,.09,0,.12.07.14s.17.09.09.17,0,.17.06.39.1.34,0,.39-.07.1.1.09.25.22.23.31,0,.14.11.12.13,0,0,0-.09.31-.05.61a.4.4,0,0,1,0,.25c-.09.12,0,.19.13.18s.2,0,0,.13-.16.18,0,.17.08,0,0,.09-.09.1,0,.11l.25.15a.17.17,0,0,1-.06.05c-.1.06-.05.14.08.14s.11,0,0,.09-.09.09.06.07.16,0,0,.13,0,.08.14,0,.13,0,0,.06-.14.08,0,.06,0,0,0,.05-.06,0,.05,0,.23,0,.08.06-.15.13,0,.17,0,0,0,.07-.08,0,0,0c.29,0,.3,0,.11,0s-.22.09-.07.07.14,0,0,.06-.11.12.07.09.18,0,0,0-.16.09,0,.07.16,0,0,.11-.09.07-.05.14a.13.13,0,0,0,.14.07c.07,0,.07,0,0,0Z"/><path class="cls-3" d="M166.66,173c-.1.08,0,.14.21.14s.26,0,.09.15-.12.25,0,.3.09,0,.05.07a.07.07,0,0,0,0,.1s0,.1,0,.19-.15.23,0,.26.19.1.15.22,0,.09.09.09.16,0,0,.1-.11.1,0,.09.09,0,.05,0,0,.06,0,.06.08,0,.11.11l.08.16s0,.07-.09.11-.09.08-.05.12a.19.19,0,0,1,.08.16s.06.07.17.08a3,3,0,0,0,1.08-.17,3.69,3.69,0,0,0,.71-.23l.28-.11,0-.13c0-.08,0-.18,0-.23a.1.1,0,0,0-.09-.12c-.08,0-.08,0,0-.12s.07-.12.06-.13l-.11-.25c-.07-.16-.08-.24,0-.29s.06-.08,0-.1-.19-.16-.07-.22.18-.12,0-.18a1.38,1.38,0,0,1-.38-.17l.12-.11c.1-.08.11-.11.06-.19a.15.15,0,0,1,0-.18c.06-.06.05-.09,0-.11s-.14-.15-.22-.36-.12-.33,0-.41.13-.08.07-.19-.1-.12-.2-.11-.18,0-.16-.28a.27.27,0,0,0-.08-.23c-.05,0-.06-.07,0-.11s0-.07,0-.09-.07-.05,0-.11.06-.09.05-.11a1,1,0,0,1-.12-.23c-.08-.17-.08-.22,0-.28s.08-.08,0-.1a.23.23,0,0,1-.09-.08.53.53,0,0,0-.11-.09c-.06,0-.05-.06,0-.11s.13-.11,0-.11-.25-.46-.15-.56,0-.08-.07-.16-.22-.27-.11-.4.09-.3-.09-.31-.15,0-.16-.11l-.12-.52a1.7,1.7,0,0,1-.07-.54.16.16,0,0,0-.06-.17.25.25,0,0,1-.06-.25.63.63,0,0,0,0-.31.39.39,0,0,1,0-.26l.11-.22c0-.06,0-.12,0-.13l-.17-.05c-.09,0-.1,0-.07-.1a19.54,19.54,0,0,0-.64-2.38,1.14,1.14,0,0,1,0-.27c0-.12,0-.23-.06-.24a1.13,1.13,0,0,1-.18-.42c0-.22-.12-.45-.14-.52s0-.14.08-.21.17-.19.13-.44a.71.71,0,0,1,0-.3c0-.08,0-.17-.06-.29a2.52,2.52,0,0,1-.19-.48,1.19,1.19,0,0,0-.18-.39c-.08-.07-.08-.09,0-.17s.1-.11,0-.19c-.17-.32-.19-.69,0-.79s.11-.16,0-.13-.11,0-.11,0l-.27,0a7.21,7.21,0,0,0-.79.22,4.16,4.16,0,0,0-.73.26c-.27.12-.47.24-.44.26s0,.05-.05.09-.06.09,0,.12.12.18,0,.39,0,.13,0,.13.26.08.18.21l-.13.17s0,.13,0,.23.06.17.17.15.13,0,.2.31.05.34,0,.4-.15.21,0,.24.15.13,0,.31a.32.32,0,0,0-.07.28.91.91,0,0,1,0,.33.26.26,0,0,0,.1.31c.16.14.2.23.12.36a2,2,0,0,0,.14.78c.16.59.17.7.09.77s-.06.16.13.22a1.52,1.52,0,0,1,.31.69c0,.17.06.29.15.28s.13,0,0,.11a2.85,2.85,0,0,0,.08,1.17,1.43,1.43,0,0,1,0,.48c-.07.21,0,.37.19.41s.22.13.07.27-.13.28,0,.33.09,0,0,.17-.07.16,0,.2a2.51,2.51,0,0,1,.31.39l-.06.06c-.09.08,0,.27.13.3s.11,0,0,.18-.08.15.08.16.16,0,0,.25,0,.16.16.15.15.05,0,.11-.13.11,0,.1,0,0,0,.09-.05.09.06.09.25.08.11.17-.12.2,0,.31.06.08,0,.13-.06.07,0,.07c.3,0,.31,0,.12.06s-.21.12,0,.12.14,0,0,.12-.1.21.09.19.2,0,0,.09-.16.12,0,.14.18.1.06.21-.08.12,0,.27.11.19.17.19.07,0,0,.05A.49.49,0,0,0,166.66,173Z"/><path class="cls-1" d="M221.35,560.12a42.89,42.89,0,0,0-31.95,3.74"/><path class="cls-2" d="M193.14,558.58c-.19-.16-.3,0-.26.42s0,.48-.29.21-.53-.16-.59.16c0,.15-.07.19-.14.12a.15.15,0,0,0-.2,0c-.07.09-.19.09-.38,0-.44-.19-.51-.18-.53.08s-.16.39-.41.35-.17,0-.14.2,0,.31-.19.1-.25-.15-.18.07,0,.16-.07.11-.11,0-.11,0a.48.48,0,0,1-.19.26l-.28.21s-.15,0-.25-.11-.2-.13-.27,0a.41.41,0,0,1-.28.22c-.08,0-.11.14-.1.35a4.91,4.91,0,0,0,.79,1.86,7.54,7.54,0,0,0,.72,1.17l.33.44.24-.09a1.44,1.44,0,0,1,.41-.12.19.19,0,0,0,.17-.21c0-.14,0-.16.21-.08a.45.45,0,0,0,.27.07l.4-.29c.27-.17.41-.2.53-.12s.16.09.16-.08.24-.38.38-.18.29.29.34,0a2.11,2.11,0,0,1,.2-.73s.12.07.23.18.23.17.36.07a.27.27,0,0,1,.33,0c.14.08.18.06.21-.08s.24-.29.61-.48c.57-.28.6-.26.75,0s.17.23.37.1a.3.3,0,0,0,.17-.38c0-.27,0-.32.5-.32.19,0,.36-.06.4-.16a.13.13,0,0,1,.2-.06c.08.06.14,0,.17-.07s.09-.14.2,0,.18.11.21.09l.42-.21c.32-.15.4-.15.52,0s.15.14.18.07a.47.47,0,0,1,.14-.17.85.85,0,0,0,.19-.19c.07-.11.1-.1.18.07s.2.24.22,0,.86-.42,1-.22.15.09.29-.11.53-.37.76-.13.52.21.59-.13.1-.27.21-.28.53-.06,1-.09a3.07,3.07,0,0,1,1,0,.3.3,0,0,0,.32-.07.43.43,0,0,1,.46,0,1.34,1.34,0,0,0,.59.05.57.57,0,0,1,.45.08l.36.28c.1.08.2.1.23,0l.15-.29c.08-.14.14-.17.2-.08s3.73,0,4.49.06a1.6,1.6,0,0,1,.46.14c.2.08.41.1.46,0a1.85,1.85,0,0,1,.83,0c.4,0,.83.1,1,.1s.25,0,.3.28.19.43.62.56a1.15,1.15,0,0,1,.46.27.51.51,0,0,0,.51.12,3.4,3.4,0,0,1,.91.07,2,2,0,0,0,.76,0c.18-.07.22,0,.25.19s.08.26.24.26c.64,0,1.23.31,1.24.62s.12.32.22.07a.65.65,0,0,1,.09-.18,4.13,4.13,0,0,0,.2-.46c.16-.43.2-.57.45-1.45a8.64,8.64,0,0,0,.33-1.4c.08-.53.09-1,0-.93s-.08-.06-.11-.17-.09-.17-.23-.06-.42,0-.7-.34c-.12-.16-.18-.17-.25-.07-.2.3-.39.34-.53.1a2,2,0,0,1-.18-.37c0-.08-.2-.18-.39-.22s-.35,0-.43.15-.14.2-.73.05-.64-.18-.68-.36-.26-.42-.42-.24-.35.16-.57-.2a.64.64,0,0,0-.46-.36,2.08,2.08,0,0,1-.6-.23.58.58,0,0,0-.66-.05c-.38.19-.59.19-.78,0a3.62,3.62,0,0,0-1.57-.26c-1.23-.08-1.45-.07-1.55-.26s-.28-.19-.49.11a3.64,3.64,0,0,1-1.52.22c-.32-.08-.61,0-.62.16s-.14.22-.23,0a5,5,0,0,0-2.35-.27,4.14,4.14,0,0,1-1-.09c-.41-.18-.76-.08-.89.25s-.31.38-.56.07-.55-.31-.67,0-.13.16-.36,0-.31-.14-.4-.06a8.44,8.44,0,0,1-.84.52l-.12-.12c-.15-.19-.54-.06-.63.21s-.1.21-.36.06-.29-.16-.34.13,0,.31-.51,0c-.18-.12-.32,0-.32.3s-.1.26-.22,0-.21-.23-.21-.06-.07,0-.17,0-.18-.09-.2.13c0,.38-.16.47-.33.21s-.42-.22-.63,0-.16.13-.27,0-.15-.11-.13.09c0,.56,0,.56-.13.22s-.25-.37-.25-.07-.05.28-.24.07-.42-.14-.37.2,0,.37-.19.08-.26-.27-.27,0-.2.35-.44.13-.25-.13-.55,0-.36.25-.35.37,0,.13-.1,0A1.49,1.49,0,0,0,193.14,558.58Z"/></svg>