<svg id="Layer_1" data-name="Layer 1" xmlns="http://www.w3.org/2000/svg" viewBox="0 0 288 96"><defs><style>.cls-1{fill:#fff;}.cls-2{fill:#ff2257;}.cls-3{fill:#2a3141;}.cls-4{fill:#3d71bf;}</style></defs><title>btn-face</title><polygon class="cls-1" points="243.46 35.24 237.86 36.52 231.9 42.47 229.5 48.51 229.5 49.3 248.59 52.89 254.14 55.66 255.27 51.37 256.27 44.28 255.76 39.35 255.23 37.01 251.44 35.64 243.46 35.24"/><polygon class="cls-2" points="265.55 51.59 265.26 57.21 263.9 61.59 254.14 55.66 255.82 49.25 255.88 43.36 255.23 37.01 259.13 37.99 265.2 42.78 265.55 51.59"/><path class="cls-3" d="M246.15,57.66a2.07,2.07,0,0,0-1.23,0,1.24,1.24,0,0,1-1.06-.1,4.77,4.77,0,0,0-1.87-.26,1.4,1.4,0,0,1-.54,0,2.76,2.76,0,0,0-.64-.1,5.71,5.71,0,0,1-1.09-.14,3.58,3.58,0,0,0-1.62-.21,5.43,5.43,0,0,1-1.61,0,1.06,1.06,0,0,0-.66,0,.85.85,0,0,1-.7,0,.66.66,0,0,0-.61,0,.38.38,0,0,1-.33,0,1.09,1.09,0,0,0-.36,0c-.07,0-.48,0-.91.06l-1.08,0a1,1,0,0,1-.24,0l.26,0-.27-.12a1.34,1.34,0,0,0-.58-.2,2.7,2.7,0,0,1-.79-.25,1.55,1.55,0,0,0-.51-.18.91.91,0,0,0-.93.22c-.26.21-.28.21-.28.54a1.42,1.42,0,0,0,0,.35,3.88,3.88,0,0,0,.82.57,7.77,7.77,0,0,0,1.46.54,2.68,2.68,0,0,0,.74.13h.21a1.63,1.63,0,0,1,.76,0,5.51,5.51,0,0,0,.7.06c.11,0,.86,0,1.64,0a8.17,8.17,0,0,1,1.78.13,1.06,1.06,0,0,0,.61,0,3.29,3.29,0,0,1,1.43.12c.21.16.47.2,1.11.14a14.44,14.44,0,0,1,1.61-.06,2.6,2.6,0,0,1,.47.16,3,3,0,0,0,1,.21,5.37,5.37,0,0,1,1.05.18,2.09,2.09,0,0,0,.75.1,21.16,21.16,0,0,1,2.51.27c2.1.32,2.16.37,2.35.5s.27.17,1,.3.86.14,1,.09.47,0,1.92.36c.48.13,1,.23,1.44.31a2.82,2.82,0,0,1,.7.15,1.53,1.53,0,0,0,.6.12,1.88,1.88,0,0,1,.7.16,3.62,3.62,0,0,0,.56.17l1.58.28a6.65,6.65,0,0,1,1.66.35,1.25,1.25,0,0,0,.53.13,3.72,3.72,0,0,1,.63,0,6.74,6.74,0,0,0,.79,0c.34,0,.44,0,.55.11A.93.93,0,0,0,264,63a1.55,1.55,0,0,1,.43,0l.59,0,0-.54a14.38,14.38,0,0,1,.25-1.6,9.37,9.37,0,0,1,.39-1.47,3,3,0,0,0,.23-1,14.54,14.54,0,0,1,.57-2.6,4.54,4.54,0,0,0,.19-2.13,3.09,3.09,0,0,1-.07-.91V51.5c0-.3,0-.68,0-1l0-1.14a33.24,33.24,0,0,0-.11-3.46,6.31,6.31,0,0,0-.19-1.14c-.11-.37-.23-.91-.41-1.6l-.13-.47a4.21,4.21,0,0,0-.85-1.5c-.38-.45-.91-1-1.16-1.19a11.37,11.37,0,0,0-.89-.82,3,3,0,0,0-.66-.46c-.1,0-.38-.15-.6-.23a1.88,1.88,0,0,1-.63-.32,18.84,18.84,0,0,0-2-1,28,28,0,0,0-4.55-1.55,40.7,40.7,0,0,0-5.16-.8c-1.56-.16-2.83-.26-3.5-.31-.19,0-.92-.1-1.64-.14a9,9,0,0,0-1.64,0,15.1,15.1,0,0,0-3,.56,12.21,12.21,0,0,0-3.18,1.56,4.53,4.53,0,0,1-1,.65,2.38,2.38,0,0,0-.69.44,4.78,4.78,0,0,0-.54.47c-.22.2-.45.44-.73.74s-.45.53-.67.78-.41.49-.53.63a9.13,9.13,0,0,0-1.05,1.64,25,25,0,0,0-1.35,3.1,18.82,18.82,0,0,0-.77,2.63,2.4,2.4,0,0,1-.31,1,2.86,2.86,0,0,0-.31,1c-.41,2.22-.76,4.51-.93,4.79a1.07,1.07,0,0,0-.12.82.2.2,0,0,1,.06.15.56.56,0,0,0,.17.26c.16.17.22.19.59.24s.41,0,.61-.08a1.21,1.21,0,0,0,.47-.7,2.11,2.11,0,0,1,.12-.48,1.44,1.44,0,0,0,.11-.74,9.69,9.69,0,0,1,.44-2.33,1.93,1.93,0,0,0,.15-.82,3.28,3.28,0,0,1,.23-1.55c.12-.3.27-.63.32-.74s.23-.68.41-1.24c.28-.9.32-1,.28-1.18s0-.34.73-2.05A6.82,6.82,0,0,1,233.21,42a3.72,3.72,0,0,0,.82-1.1,3.67,3.67,0,0,1,1.17-1.34c.2-.14.38-.29.57-.44l.57-.49a9.09,9.09,0,0,1,1.51-1l1.64-.82a4.73,4.73,0,0,1,2.12-.57,24.72,24.72,0,0,1,4.71.09,27.24,27.24,0,0,1,4.74.58,4.1,4.1,0,0,0,1.47.18,15.06,15.06,0,0,1,2,.34,19.53,19.53,0,0,1,2.4.72,11.25,11.25,0,0,0,1.79.65.92.92,0,0,1,.63.28c.08.07.82.45,1.86,1.12a14.61,14.61,0,0,1,1.67,1.26,6.62,6.62,0,0,1,.77.82,3,3,0,0,1,.49.86,12.61,12.61,0,0,1,.55,2.65,19.78,19.78,0,0,0,.25,2.66,3.17,3.17,0,0,1,0,1.7,5.93,5.93,0,0,0,0,2.1,2.2,2.2,0,0,1,0,1,6.85,6.85,0,0,0-.12,1.1,12.26,12.26,0,0,1-.1,1.36c-.07.59-.18,1.18-.21,1.29a1.23,1.23,0,0,1-.12.26,7.39,7.39,0,0,0-.45,2,3,3,0,0,1-.25,1.14c-.23.72-.23.74-.18,1.13a1.63,1.63,0,0,1,0,.54l1.15-.91c-.15,0-.41-.09-.95-.21a2.32,2.32,0,0,0-1.17-.06.67.67,0,0,1-.64-.1.74.74,0,0,0-.56-.13,1.53,1.53,0,0,1-.47-.11,1.06,1.06,0,0,0-.68-.08,1.62,1.62,0,0,1-1.12-.17,5.93,5.93,0,0,0-1.86-.43,2.35,2.35,0,0,1-.79-.19c-.26-.12-.31-.14-.46-.08-.41.14-.41.14-.59-.06a.54.54,0,0,0-.61-.2,1,1,0,0,1-.77-.17,2,2,0,0,0-1.27-.25.55.55,0,0,1-.62-.13.94.94,0,0,0-.82-.19,3.24,3.24,0,0,1-1.41-.29,6.36,6.36,0,0,0-1.61-.36,7.51,7.51,0,0,0-1.42-.14.22.22,0,0,1-.27,0A1.26,1.26,0,0,0,246.15,57.66Z"/><polygon class="cls-2" points="249.41 35.86 245.06 35.86 240.59 38.94 237.61 44.1 236.49 49.54 243.57 51.37 244.28 43.88 246.67 38.38 249.41 36.67 249.41 35.86"/><path class="cls-4" d="M264.56,62.32c-3.49-4-7.63-6.28-12.61-8.25a75.07,75.07,0,0,0-15.55-3.91c-6.48-1-13.15-1.78-19.58-.44a8,8,0,0,0-3.11,1.17,3.31,3.31,0,0,0-1.53,2.78,3.34,3.34,0,0,0,1.76,2.56,9.3,9.3,0,0,0,3.08,1,64.2,64.2,0,0,0,14.91.87s5.29-.77,14.94,1.09S264.56,62.32,264.56,62.32Z"/><path class="cls-3" d="M246.18,60.38a2.4,2.4,0,0,0,1.3.1,1.48,1.48,0,0,1,1.16.17,6,6,0,0,0,2.05.37,1.47,1.47,0,0,1,.59.07,3.32,3.32,0,0,0,.7.13,8.33,8.33,0,0,1,1.21.23,4.82,4.82,0,0,0,1.81.31,6.73,6.73,0,0,1,1.73.17,1.46,1.46,0,0,0,.69,0,1.15,1.15,0,0,1,.75.08.92.92,0,0,0,.65.08c.05,0,.14,0,.34,0a1.29,1.29,0,0,0,.39,0l.92.07,1.11.11a4.84,4.84,0,0,1,.64.13,3.34,3.34,0,0,0,.78.12c.52,0,.56,0,1.1.11a4.53,4.53,0,0,0,.74,0c.41,0,.41-.08,0-.32a3.67,3.67,0,0,0-.73-.32l-.41-.16-.87-.18-1.46-.32a6.33,6.33,0,0,0-.78-.15,2.93,2.93,0,0,1-.77-.16L259,61l-1.64-.34a13.36,13.36,0,0,1-1.77-.41,1.28,1.28,0,0,0-.61-.12,3.93,3.93,0,0,1-1.39-.29,1.73,1.73,0,0,0-1.11-.25,11.93,11.93,0,0,1-1.53-.07,4.78,4.78,0,0,1-.48-.19,3,3,0,0,0-1-.27,6.27,6.27,0,0,1-1-.24,1.9,1.9,0,0,0-.74-.13c-.27,0-.55,0-.82-.09l-1.75-.29c-2.21-.33-2.27-.31-2.49-.46s-.29-.16-1.1-.23a2.55,2.55,0,0,0-1,0c-.2.1-.48.06-2-.11a11.21,11.21,0,0,0-1.53-.08,3.64,3.64,0,0,1-.74,0,1.72,1.72,0,0,0-.64,0,2.3,2.3,0,0,1-.74,0,3.24,3.24,0,0,0-.62-.05c-.11,0-.86,0-1.67.12l-.54.06h-.09a4,4,0,0,1-1.09,0,1.32,1.32,0,0,0-.56,0,4.2,4.2,0,0,1-.62.07c-.21,0-.57.05-.8.07s-.44,0-.56,0a.91.91,0,0,0-.74,0,9.62,9.62,0,0,1-1.78,0,13.42,13.42,0,0,1-1.9-.17,3,3,0,0,0-1.07-.07,9.17,9.17,0,0,1-2.66-.29,6.15,6.15,0,0,0-2.09-.3,2.74,2.74,0,0,1-.9-.06c-.15,0-.61-.1-1.19-.25a6.14,6.14,0,0,1-1.89-.78,3,3,0,0,1-1.18-1.43,1.82,1.82,0,0,1-.08-.95,4.83,4.83,0,0,1,.29-.86,2.41,2.41,0,0,1,.94-1,7.69,7.69,0,0,1,3.15-1c.33,0,.85-.07,1.17-.08a4,4,0,0,0,.77-.08l.59-.2a1.77,1.77,0,0,1,.68-.11l.62,0c.37,0,.9-.06,1.53-.08,1.27-.05,3-.05,4.75.06,3.57.2,7.43.82,8.77,1l1.64.32a15.58,15.58,0,0,0,1.61.29c.18,0,1.47.23,2.87.53s2.87.67,3.32.79a2.85,2.85,0,0,1,1.08.41,12,12,0,0,0,2.28.88c.56.19,1.11.41,1.65.65a15.26,15.26,0,0,0,1.73.69c.64.24,2,.79,3,1.27s2.05,1,2.36,1.21a2.07,2.07,0,0,1,.82.56,3,3,0,0,0,.82.64,13,13,0,0,1,3.5,3.12,1.13,1.13,0,0,0,.12.21l.07.1,0,0v0a.33.33,0,0,1,0-.33l.15-.17a.61.61,0,0,1,.41-.15,1.36,1.36,0,0,1,.73.25c.34.19.36.23.41.13a.72.72,0,0,0,0-.46,1.33,1.33,0,0,0-.28-.54,2.25,2.25,0,0,1-.34-.41,1.5,1.5,0,0,0-.56-.56,23.24,23.24,0,0,1-1.86-1.72,2.36,2.36,0,0,0-.69-.53,4.65,4.65,0,0,1-1.43-.87c-.26-.23-.56-.47-.66-.57a8.53,8.53,0,0,0-1.19-.75c-.9-.49-1.06-.55-1.23-.53s-.33-.09-2.15-.92a19,19,0,0,1-2.21-1,3.48,3.48,0,0,0-1.38-.6,6.07,6.07,0,0,1-1.84-.67,9.54,9.54,0,0,0-1.54-.58l-2-.59a11.54,11.54,0,0,0-2.09-.49,14,14,0,0,1-2.48-.5c-.35-.1-2-.46-5.06-1-3.94-.6-4.65-.63-5-.76a3.88,3.88,0,0,0-1.59-.1l-2.22-.08-1.58,0h-1.16a7.56,7.56,0,0,0-2.07.11,1.28,1.28,0,0,1-.77.06,17.76,17.76,0,0,0-2.42.14l-1.11.15-1.27.22a9.73,9.73,0,0,0-3,1,5.4,5.4,0,0,0-1,.67,5.49,5.49,0,0,0-.78.82,4.69,4.69,0,0,0-.72,1.45,3.46,3.46,0,0,0,.17,2.47,3.24,3.24,0,0,0,1,1.28c.66.48,1.23.82,1.88,1.23a4.63,4.63,0,0,0,2.25.69,3.24,3.24,0,0,1,1.11.23,5.84,5.84,0,0,0,1.23.25c.39,0,2.76.21,3,.22l.3.09a8.07,8.07,0,0,0,2.14.14,3,3,0,0,1,1.19.07c.77.12.79.13,1.18,0s.35-.1,1.6.07a2.56,2.56,0,0,0,1.26-.1.78.78,0,0,1,.7,0,.78.78,0,0,0,.6,0,2.35,2.35,0,0,1,.53,0,1.14,1.14,0,0,0,.73-.06l.07,0h.09a1.45,1.45,0,0,1,1-.11,6.25,6.25,0,0,0,1.93,0,2.51,2.51,0,0,1,.82,0c.28.08.33.08.46,0,.39-.21.42-.22.61-.05a.55.55,0,0,0,.64.09,1,1,0,0,1,.79,0,2.14,2.14,0,0,0,1.3.08.54.54,0,0,1,.63.05,1,1,0,0,0,.83.12,2.92,2.92,0,0,1,1.43.18,7.9,7.9,0,0,0,1.61.31,8.44,8.44,0,0,0,1.41.15.23.23,0,0,1,.27.07A1.57,1.57,0,0,0,246.18,60.38Z"/><path class="cls-1" d="M221.37,53.22h0c-.37.15-.77.38-.82.77a5.36,5.36,0,0,0,1.49.21c4.4.22,8.8.25,13.21.12.48,0,1.1-.15,1.18-.62s-7.07-1.44-7.8-1.46A16.74,16.74,0,0,0,221.37,53.22Z"/><path class="cls-3" d="M226.6,50.91c-.12-.09-.28,0-.39.13s-.17.19-.33.05a.54.54,0,0,0-.6,0c-.07.06-.13.07-.17,0a.34.34,0,0,0-.2,0,.56.56,0,0,1-.36,0c-.34-.11-.41-.1-.53,0a.59.59,0,0,1-.5.15c-.12,0-.16,0-.2.09a.12.12,0,0,1-.21.05c-.08-.09-.17-.06-.19,0s0,.07-.1,0a.11.11,0,0,0-.12,0,.84.84,0,0,1-.27.13l-.32.12a.21.21,0,0,1-.19,0,.21.21,0,0,0-.24,0,1,1,0,0,1-.32.15.32.32,0,0,0-.21.2c-.1.2-.07.38.12.84a1.33,1.33,0,0,0,.28.49l.15.18.23-.08.41-.11a.28.28,0,0,0,.22-.11c0-.07.08-.08.21-.05a.81.81,0,0,0,.22,0l.46-.14c.3-.09.44-.1.51-.07s.12.05.18,0,.35-.16.41-.07.16.14.33,0a1.57,1.57,0,0,1,.44-.28.6.6,0,0,1,.15.09.29.29,0,0,0,.31.06.51.51,0,0,1,.32,0,.17.17,0,0,0,.21,0,2.35,2.35,0,0,1,.75-.11c.63,0,.65,0,.71.1s.09.11.32.1.26,0,.3-.12a.15.15,0,0,1,.15-.09,1.45,1.45,0,0,1,.41.06,1.13,1.13,0,0,0,.41,0,.22.22,0,0,1,.21,0,.15.15,0,0,0,.18,0,.18.18,0,0,1,.21,0,.38.38,0,0,0,.17.08l.47,0c.35,0,.41,0,.5.13a.14.14,0,0,0,.15.07.58.58,0,0,1,.19,0,.86.86,0,0,0,.23,0c.11,0,.14,0,.16.07a.12.12,0,0,0,.21.05,2.13,2.13,0,0,1,1.06.18c.06.07.12.08.32,0a.9.9,0,0,1,.76.14.5.5,0,0,0,.6.12.29.29,0,0,1,.27,0c.08,0,.54.13.91.27l.1,0h0s.05-.07.07-.1a.24.24,0,0,1,.06-.09c.09-.12.15-.18.19-.18h0l-.51-.08h0l0,0s-.08,0-.1,0a.36.36,0,0,0-.2.06.5.5,0,0,1-.38,0,2.32,2.32,0,0,0-.59,0,1.44,1.44,0,0,1-.46,0l-.35-.12a.45.45,0,0,0-.23,0l-.18.12c-.09.06-.14.07-.2,0a2.94,2.94,0,0,0-.64,0h-4l-.48-.06a1.29,1.29,0,0,0-.48,0,4,4,0,0,1-.85,0l-1,0c-.2,0-.26,0-.34-.12s-.25-.16-.71-.2a3.21,3.21,0,0,1-.52-.11,1.44,1.44,0,0,0-.55,0,7.69,7.69,0,0,1-1,0,5.08,5.08,0,0,0-.78,0c-.17,0-.2,0-.27-.07s-.11-.11-.25-.11a.89.89,0,0,1-.45-.09l.26,1.23a.6.6,0,0,1,.15.09,1.59,1.59,0,0,1,.29.29s.06,0,.08.06.13.06.1-.05v-.09a.79.79,0,0,0,0-.2,2.57,2.57,0,0,0-.2-.59,1.63,1.63,0,0,0-.28-.52c-.16-.17-.34-.27-.41-.22a.34.34,0,0,1-.2,0c-.12,0-.18,0-.26.19a1.85,1.85,0,0,1-.19.27,1.5,1.5,0,0,0-.26.54l0,.1.43.56a1.53,1.53,0,0,0,.21.14c.16.09.23.11.28.07a.5.5,0,0,1,.55,0,2.07,2.07,0,0,1,.25.15A1.15,1.15,0,0,0,222,55c.29,0,.34,0,.38-.08s.1-.08.68-.05.64.06.7.13a.34.34,0,0,0,.43.09c.15-.1.31-.08.56.07a1,1,0,0,0,.47.13,4.11,4.11,0,0,1,.6.08,1.09,1.09,0,0,0,.62,0,1.17,1.17,0,0,1,.74,0,7.41,7.41,0,0,0,1.49.09c1.16,0,1.37,0,1.47.09s.25.08.46,0a6.84,6.84,0,0,1,1.43-.1c.3,0,.57,0,.59-.06s.14-.09.22,0a11.61,11.61,0,0,0,2.2.13,3.86,3.86,0,0,0,.68,0,5,5,0,0,0,.56-.09,1.64,1.64,0,0,0,1-.69,1.34,1.34,0,0,0,.24-.62v-.38a.84.84,0,0,0,0-.27.56.56,0,0,0-.07-.18l-.07-.15-.09-.12-.06-.06a.4.4,0,0,0-.12-.1.42.42,0,0,0-.14-.09,1.57,1.57,0,0,0-.35-.11l-.2,0a.86.86,0,0,1-.29-.21.69.69,0,0,0-.65-.22c-.11,0-.15,0-.33-.1a.56.56,0,0,0-.35-.13c-.12,0-.82,0-.89,0a.27.27,0,0,1-.08-.07.71.71,0,0,0-.62-.08c-.12,0-.15,0-.35-.07s-.2-.13-.33,0-.12.1-.46-.12a.28.28,0,0,0-.37,0c-.08.09-.17.07-.2,0s-.12-.14-.16-.08-.09,0-.15,0a.16.16,0,0,0-.22,0c-.08.08-.28.13-.35,0s-.31-.17-.58-.12a.26.26,0,0,1-.24-.06c-.08-.08-.1-.08-.15,0s-.14.21-.19,0-.09-.19-.19-.08-.15.08-.25,0a.3.3,0,0,0-.24-.1h-.15s0,0-.08.07-.12.14-.19,0-.14-.14-.26,0a.33.33,0,0,1-.44,0c-.08-.07-.18-.09-.5-.07s-.41,0-.44.09,0,0-.08,0A.58.58,0,0,0,226.6,50.91Z"/><path class="cls-3" d="M252.56,35.41c-.07.05,0,0,.12,0s.17-.07,0,0-.12.07,0,0h0s0,0,0,0-.15,0-.06,0,.12,0,.06,0h0l.11,0,.79.26a5.43,5.43,0,0,0,.53.15l.23.05,0-.07a.31.31,0,0,1,.06-.13s0-.06,0-.08,0,0,0-.07l.08-.06a.47.47,0,0,0,0-.16.14.14,0,0,1,0-.17s.05,0,0-.05-.12-.1,0-.13.14-.09,0-.11l-.27-.06.09-.08c.07-.05.08-.07,0-.11a.07.07,0,0,1,0-.1h0s0-.06,0-.06-.11-.06-.18-.15-.12-.14,0-.22.07-.09,0-.13-.09,0-.15,0-.12.06-.16-.08-.06-.08-.09-.08-.05,0-.05,0,0,0,0,0-.05,0,0,0a.2.2,0,0,0,0-.08l-.13-.05c-.09,0-.11,0-.09-.12s0-.08,0-.07h-.07a.11.11,0,0,0-.08,0c-.05,0-.05,0,0-.07s0-.11,0,0-.26,0-.26-.12,0-.06-.09,0-.18.06-.2-.06-.09-.15-.15,0-.06.09-.09.08a1.05,1.05,0,0,0-.24-.06.5.5,0,0,1-.24-.09.06.06,0,0,0-.08,0h0s-.07,0-.12,0a.18.18,0,0,0-.14,0,.16.16,0,0,1-.11-.05l-.08-.13s-.05-.05-.06,0l0,.12c0,.06,0,.07-.05,0a1.85,1.85,0,0,0-.47,0,2.85,2.85,0,0,0-.66.11.43.43,0,0,1-.16,0c-.07,0-.13,0-.14,0a.61.61,0,0,1-.24.15,1.32,1.32,0,0,0-.29.19s-.07,0-.15,0a.25.25,0,0,0-.32,0,.5.5,0,0,1-.19.1c-.06,0-.11,0-.13.14a2.55,2.55,0,0,1-.13.29.46.46,0,0,0-.06.23c0,.07,0,.07-.08.06s-.11,0-.12,0-.12.32-.25.29-.12,0,0,.06l.07,0,.19.09.58.23.55.2a1.55,1.55,0,0,0,.36.08h.07s.06,0,0,0,0-.09.11-.11.06,0,0,0-.14-.12-.05-.12h.14a.08.08,0,0,0,.08,0s0,0-.06-.1-.07-.06,0-.13.08-.06.14,0,.15.07.09,0,0-.08.07,0,.1.07.11.07,0,0,.06,0,0,0,0,0,0-.1,0,0,.06.05.15,0,.19,0,.21.05.05.07.07-.05.2-.14.26-.11a.07.07,0,0,0,.11-.06c0-.06,0-.09,0,0s.2.14.39.18a.2.2,0,0,1,.13.09c.05.1.1.08.14,0s.07-.13.07,0,0,.16.08.06,0-.05,0,0,0,.09,0,.06l.14-.11V35c0,.09,0,.09.07,0s0-.06,0,0,0,.1,0,0,.06-.1,0,.06,0,0,.08-.06h0c-.06.08,0,.11,0,0s0,0,0,0,0,0,0,0,.11-.13.05,0-.06.12,0,.07,0,0,0,0,0,0,0,0,.16-.17.06-.05-.11.14,0,.06h0c-.08.06-.07.1,0,0s.11-.09,0,0-.1.1,0,0,.1-.05,0,0-.06.06,0,.07a.11.11,0,0,0,.08,0c.05,0,.05,0,0,0Z"/><path class="cls-3" d="M254.32,52c-.1,0-.07.14.08.24s.16.13,0,.19a.2.2,0,0,0-.14.24l0,.08s0,.08,0,.1a.1.1,0,0,0,0,.1.24.24,0,0,1-.1.18c-.18.14-.19.17-.12.26a.2.2,0,0,1,0,.29h0c0,.06,0,.08,0,.13s.09.1,0,.11-.11.06,0,.1.06.05,0,.07,0,0,0,.06a.43.43,0,0,1,0,.16v.19s-.05.06-.11.08-.1,0-.09.1a.31.31,0,0,1,0,.19.19.19,0,0,0,.07.16c.12.13.29.19.77.32a2.11,2.11,0,0,0,.56.09h.22l.05-.15a2.6,2.6,0,0,1,.1-.25.15.15,0,0,0,0-.16s0-.07,0-.13.1-.09.1-.11l0-.3c0-.2.05-.28.12-.31s.07-.06,0-.12-.05-.25,0-.26.18-.05.09-.19a.87.87,0,0,1-.17-.33.19.19,0,0,1,.12-.07.15.15,0,0,0,.11-.17.34.34,0,0,1,.09-.19c.06,0,.07-.08,0-.13a1,1,0,0,1,0-.48c.05-.39.05-.41.17-.41s.12,0,.12-.17,0-.17-.09-.21-.11-.1,0-.36a.53.53,0,0,0,0-.28.09.09,0,0,1,0-.12s0-.07,0-.12,0-.08,0-.12a.25.25,0,0,0,.08-.1v-.3c0-.22,0-.26.09-.3s.09-.06.07-.09a.28.28,0,0,1,0-.13.34.34,0,0,0,0-.14c0-.07,0-.08.06-.1s.12-.07,0-.13a.8.8,0,0,1,.07-.66c.06,0,.06-.08,0-.2a.39.39,0,0,1,0-.48.23.23,0,0,0,.07-.33.12.12,0,0,0-.05,0,.17.17,0,0,1-.09-.17c0-.06,0-.34.05-.63a3.29,3.29,0,0,1,.08-.62.38.38,0,0,0,0-.21.37.37,0,0,1,0-.29,1.16,1.16,0,0,0,0-.37.57.57,0,0,1,0-.29l.12-.22c0-.06.05-.12,0-.15l-.12-.1c-.06-.06-.07-.09,0-.13a7.73,7.73,0,0,0-.07-1.27,14.36,14.36,0,0,0-.24-1.6,1.6,1.6,0,0,1,0-.31.52.52,0,0,0-.06-.3,2.15,2.15,0,0,1-.15-.51c0-.26-.14-.53-.16-.61a.22.22,0,0,1,0-.23c.08-.08.11-.21.05-.5a1.3,1.3,0,0,1,0-.34.64.64,0,0,0-.1-.35,5.69,5.69,0,0,1-.26-.56,1.45,1.45,0,0,0-.24-.46c-.08-.08-.08-.11,0-.19s.06-.13,0-.22c-.22-.37-.37-.79-.29-.9s0-.18-.07-.15h-.09l-.19,0a3,3,0,0,0-.57.27,2.29,2.29,0,0,0-.5.3c-.18.14-.3.27-.27.29s0,.06,0,.1,0,.1.06.13.14.17.12.41,0,.13.06.13.23.08.2.21a1,1,0,0,1-.07.18.47.47,0,0,0,0,.24c.07.16.09.18.18.17s.1,0,.21.33.09.37,0,.41-.09.22,0,.26.14.14.05.33a.37.37,0,0,0,0,.29,2,2,0,0,1,0,.35.39.39,0,0,0,.09.34c.14.16.17.27.12.41a3.09,3.09,0,0,0,.1.85c.11.65.1.77,0,.82s-.05.15.09.25a2.1,2.1,0,0,1,.16.82c0,.18,0,.34.09.34s.09.08,0,.13a5.35,5.35,0,0,0-.14,1.26,2.09,2.09,0,0,1-.07.51.4.4,0,0,0,0,.49c.14.12.13.21,0,.31a.23.23,0,0,0-.09.31s0,0,0,0,.05.09,0,.19-.09.15-.06.2.08.34.11.51l-.06,0a.26.26,0,0,0,0,.36c.09.1.06.09,0,.2s-.1.12,0,.2.11.07-.07.26,0,.16.06.22.09.1,0,.11-.13.07-.06.1,0,0,0,.08-.07.08,0,.13.14.17,0,.21-.16.16-.1.32a.11.11,0,0,1,0,.14c-.05,0-.07.05,0,.09s.21.1.06.11-.19,0-.09.1.09.09,0,.14-.14.17,0,.23.13.09,0,.11-.15.06,0,.14.09.19,0,.25-.1.08-.12.26,0,.24,0,.26,0,0,0,0Z"/><path class="cls-3" d="M235.65,46.23c-.1.05-.07.16.08.26s.15.15,0,.22a.23.23,0,0,0-.14.29l0,.06c0,.06,0,.1,0,.11a.1.1,0,0,0,0,.12.24.24,0,0,1-.09.2c-.18.18-.19.22-.12.31a.22.22,0,0,1,0,.32c0,.07,0,.09,0,.13s.1.11,0,.13-.11.08,0,.12,0,0,0,.07,0,0,0,.06a.29.29,0,0,1,0,.18V49s0,.07-.1.1a.1.1,0,0,0-.08.12c0,.07,0,.08,0,.11s0,0,0,0v.13a1.16,1.16,0,0,0,.11.52,1.31,1.31,0,0,0,.31.44,1.27,1.27,0,0,0,.27.18l.08,0,.1,0a.85.85,0,0,0,.31.06,1.06,1.06,0,0,0,.58-.13.81.81,0,0,0,.18-.12.49.49,0,0,0,.12-.13.91.91,0,0,0,.19-.41,1.15,1.15,0,0,0,0-.37,2,2,0,0,0-.07-.23.41.41,0,0,0-.06-.11.51.51,0,0,0-.09-.13.68.68,0,0,0-.46-.25h-.16l-.09.06a.37.37,0,0,0-.06.32c0,.16.05.25.05.31h0s0,0,0,0h0v0h0a.31.31,0,0,1,.19,0H237v-.08a.35.35,0,0,1,0-.11.15.15,0,0,0,0-.16c-.05,0,0-.07,0-.14a.27.27,0,0,0,.09-.12v-.31c0-.21,0-.29.09-.32s.06-.06,0-.12-.07-.25,0-.26.17-.06.08-.2a1.35,1.35,0,0,1-.19-.33l.13-.07a.15.15,0,0,0,.11-.17.27.27,0,0,1,.08-.19c.06,0,.07-.07,0-.13a.94.94,0,0,1,0-.47c.07-.39.07-.41.19-.41s.12,0,.14-.17,0-.17-.08-.21-.1-.11,0-.36a.36.36,0,0,0,.07-.26.09.09,0,0,1,0-.12s0-.07,0-.11,0-.09,0-.13.09-.06.09-.08,0-.15.06-.29.08-.25.16-.26.09,0,.08-.08a.24.24,0,0,1,0-.12v-.16c0-.07,0-.08.08-.07s.14,0,.07-.11.14-.58.27-.6.08-.05.06-.18a.38.38,0,0,1,.22-.41.23.23,0,0,0,.17-.33.17.17,0,0,1,0-.19s.17-.28.33-.52a3.48,3.48,0,0,1,.38-.48.25.25,0,0,0,.11-.17.36.36,0,0,1,.17-.23,1,1,0,0,0,.25-.25.46.46,0,0,1,.21-.18l.23-.07c.06,0,.11-.06.11-.09l0-.16c0-.07,0-.11.06-.11s.41-.41.88-.82,1-.82,1.19-.95a1.59,1.59,0,0,1,.27-.12.49.49,0,0,0,.24-.14,1.49,1.49,0,0,1,.41-.28c.21-.12.45-.23.52-.26a.18.18,0,0,1,.22,0c.08.06.2.09.45,0a.77.77,0,0,1,.3,0,.44.44,0,0,0,.3-.08,1.91,1.91,0,0,1,.5-.19,2.86,2.86,0,0,0,.41-.15c.09-.06.11-.06.18,0s.09.08.18.05a1.7,1.7,0,0,1,.51-.07.3.3,0,0,1,.28.12c0,.06.12.1.13,0a.29.29,0,0,1,0-.09.66.66,0,0,0,0-.21,3.11,3.11,0,0,0,0-.61A2.43,2.43,0,0,0,248,35c0-.21-.12-.38-.16-.36s-.06,0-.1-.05a.1.1,0,0,0-.15,0,.61.61,0,0,1-.49,0c-.11,0-.15,0-.17,0a.2.2,0,0,1-.21.2h0l-.18-.1a.66.66,0,0,0-.28,0c-.19,0-.22.06-.22.15s0,.11-.41.2-.41.1-.48,0a.18.18,0,0,0-.26,0l0,0c-.06.13-.16.16-.37.1a.5.5,0,0,0-.34,0,2.08,2.08,0,0,1-.41.11.51.51,0,0,0-.38.2c-.16.19-.27.26-.41.26a2.72,2.72,0,0,0-.88.49c-.65.45-.74.55-.85.53s-.19.05-.21.23a3.37,3.37,0,0,1-.65.71c-.18.12-.28.27-.24.32s0,.14-.1.12a3.85,3.85,0,0,0-1.08,1,4.35,4.35,0,0,1-.41.44c-.22.15-.33.35-.28.51s0,.27-.19.3a.31.31,0,0,0-.26.33h0c0,.08,0,.11-.14.18s-.16.11-.16.18a4.52,4.52,0,0,1-.13.58l-.08,0a.34.34,0,0,0-.15.38c0,.1,0,.12-.1.21s-.14.1-.07.21.09.11-.16.27a.16.16,0,0,0,0,.21.12.12,0,0,0,0,0c.08.07.05.13-.06.12s-.14,0-.08.09,0,0-.06.09-.09.06,0,.13.1.23,0,.24-.2.16-.17.35,0,.12-.08.14-.07,0,0,.1.2.14,0,.13-.19,0-.1.11.08.11,0,.15-.17.18-.05.25.12.11,0,.13-.15,0-.06.15.06.21-.08.27-.1.1-.13.3,0,.26,0,.29,0,0,0,0Z"/><path class="cls-3" d="M249,38.16c.1,0,.12,0,.05-.21s0-.19.1-.12.24,0,.24-.14,0-.08,0-.07a.07.07,0,0,0,.09,0h0c0-.05.07-.06.16-.05s.23.05.23-.07,0-.17.16-.17.07,0,.06-.08,0-.14.08-.06.11.06.08,0,0-.07,0-.05,0,0,0,0a.45.45,0,0,1,.09-.11l.13-.09a.13.13,0,0,1,.11,0s.08.06.12,0a.14.14,0,0,1,.13-.08s.06-.06.06-.14a1.9,1.9,0,0,0-.19-.82,2.42,2.42,0,0,0-.23-.52l-.12-.19-.14,0-.25.07a.13.13,0,0,0-.12.1c0,.06,0,.07-.13,0h-.15l-.25.16c-.17.12-.25.14-.31.12s-.09,0-.1.06-.14.21-.22.14-.16-.09-.19.07a1.21,1.21,0,0,1-.11.37l-.13,0a.14.14,0,0,0-.19,0h0a.27.27,0,0,1-.19.08c-.07,0-.1,0-.1.09s-.12.18-.29.36-.28.29-.38.24-.13,0-.21.08-.07.14,0,.21,0,.14-.19.31a.39.39,0,0,0-.17.21.1.1,0,0,1-.08.1s-.06,0-.05.09,0,.09-.09.1a.14.14,0,0,0-.11.06l-.13.25c-.1.19-.13.22-.22.22s-.1,0-.09.06V39a.68.68,0,0,0,0,.15c0,.07,0,.08-.09.06s-.14,0-.08.11-.18.55-.3.58-.08,0-.06.18a.38.38,0,0,1-.18.44c-.16.07-.22.23-.11.35a.15.15,0,0,1,0,.18c0,.05-.12.3-.2.56a3.73,3.73,0,0,1-.2.56.27.27,0,0,0,0,.19.45.45,0,0,1-.06.28,1.17,1.17,0,0,0-.11.33.46.46,0,0,1-.1.25l-.15.18c-.05,0-.07.1-.05.13l.09.12c.05.06.06.09,0,.12a23.35,23.35,0,0,0-.34,2.63,1.12,1.12,0,0,1-.08.26.45.45,0,0,0,0,.28,1.93,1.93,0,0,1,0,.48c0,.24-.05.5-.05.57s0,.15-.12.18-.18.14-.22.41a.73.73,0,0,1-.11.29.5.5,0,0,0,0,.32,2.53,2.53,0,0,1,0,.55,2.4,2.4,0,0,0,0,.46c0,.09,0,.11-.06.16s-.11.07-.09.18c0,.37,0,.76-.17.82s-.12.11,0,.14l.08,0a.46.46,0,0,0,.2.05,3.26,3.26,0,0,0,.62.06,2.91,2.91,0,0,0,.59,0c.22,0,.41-.08.38-.11s0,0,.06-.08.06-.07,0-.13,0-.22.08-.41.06-.11,0-.13-.16-.18-.08-.28l.15-.13a.4.4,0,0,0,.07-.21c0-.17,0-.2-.08-.22s-.1-.06-.06-.38.06-.36.12-.38.17-.16.1-.24-.08-.17.07-.31a.34.34,0,0,0,.13-.25,1.19,1.19,0,0,1,.1-.32.37.37,0,0,0,0-.34c-.07-.2-.07-.31,0-.41a2.89,2.89,0,0,0,.15-.82c.07-.64.09-.75.17-.8s.09-.13,0-.26a2.1,2.1,0,0,1,0-.79c.06-.16.06-.3,0-.32a.06.06,0,0,1,0-.12,4.56,4.56,0,0,0,.38-1.13,1.33,1.33,0,0,1,.17-.43.35.35,0,0,0,.06-.44c-.1-.11-.09-.21.07-.26s.22-.18.14-.29,0-.08.08-.14.12-.1.11-.15a3.38,3.38,0,0,1,0-.45h.07c.1,0,.15-.19.1-.29s0-.09.08-.15.13-.05,0-.15-.08-.1.14-.18.1-.11,0-.2,0-.11.06-.07.13,0,.08,0,0,0,.07,0,.08,0,0-.11-.06-.2.06-.16.2-.05.21-.2,0-.08.09-.08.08,0,0-.06-.15-.19,0-.12.16.07.1,0,0-.11.08-.08.19,0,.1-.16-.06-.14.06-.07.15,0,.1-.08,0-.18.15-.15.12,0,.21-.11.12-.16.1-.2,0,0,0,0Z"/><path class="cls-1" d="M124.86,51.83c2.55-.21,4.8-2.92,6.12-5.17s2.28-4.74,3.45-7.1A9.59,9.59,0,0,1,136.15,37a2.93,2.93,0,0,1,2.6-.91c2,.47,2.64,3.66,4.61,4.12a3.09,3.09,0,0,0,2.48-.75,19.07,19.07,0,0,0,2-2,3.54,3.54,0,0,1,1.71-.92,5.66,5.66,0,0,1,1.69.1c1.25.47,1.57,1.18,2.3,2.43a9.7,9.7,0,0,1,.83,3.14,35.13,35.13,0,0,0,3.26,10.68A17.43,17.43,0,0,0,163.92,59l-3.6,2.76L153.54,61l-19.21-5.2-9-2.11Z"/><path class="cls-3" d="M140.86,56.26a2.1,2.1,0,0,0-1.18-.2,1.21,1.21,0,0,1-1-.24,4.94,4.94,0,0,0-1.77-.51,1.17,1.17,0,0,1-.52-.12,3,3,0,0,0-.6-.18,4.77,4.77,0,0,1-1-.33,3.73,3.73,0,0,0-1.53-.42,5.33,5.33,0,0,1-1.53-.3,1.13,1.13,0,0,0-.63-.11.75.75,0,0,1-.65-.14.66.66,0,0,0-.57-.15c-.09,0-.18,0-.33-.05a.73.73,0,0,0-.33-.08c-.29,0-.57-.09-.86-.15l-1-.21a1.48,1.48,0,0,1-.5-.21,1.43,1.43,0,0,0-.64-.21l-.53-.1.86.83a1,1,0,0,0-.09-.24,1.41,1.41,0,0,0-.37-.36c-.36-.3-.57-.54-1-.81s-.27-.19-.4-.07l-.15.16c0,.33.11.68.18,1s.12.54.17.75l.07.27.3.08.76.2a3.47,3.47,0,0,0,.78.15,1.72,1.72,0,0,1,.74.18,5.37,5.37,0,0,0,.66.23l1.6.36a8.94,8.94,0,0,1,1.71.44,1.15,1.15,0,0,0,.6.14,3.48,3.48,0,0,1,1.38.32c.17.2.42.24,1.06.31s1.05.1,1.57.19a3,3,0,0,1,.44.22,2.81,2.81,0,0,0,1,.34,7.39,7.39,0,0,1,1,.32,1.75,1.75,0,0,0,.71.19,22.11,22.11,0,0,1,2.43.58c2,.53,2.1.54,2.28.7s.26.18,1,.36.84.19,1,.15.47,0,1.88.45a13.74,13.74,0,0,0,1.4.37,2.73,2.73,0,0,1,.68.18,1.91,1.91,0,0,0,.58.15,1.76,1.76,0,0,1,.67.18,2.83,2.83,0,0,0,.55.21l1.51.39.16,0h.09a5.56,5.56,0,0,1,1.46.23,1.18,1.18,0,0,0,.52.1h.61l.78,0c.34,0,.43,0,.54.11a.9.9,0,0,0,.7.09,17.81,17.81,0,0,1,2.19.19l.21,0,.18-.13a9.69,9.69,0,0,1,1.11-.79,2.8,2.8,0,0,0,.81-.65,11,11,0,0,1,1.68-1.35L165,59l-.81-.5a3.62,3.62,0,0,1-.32-.22,8.15,8.15,0,0,0-1.59-1.09,2.15,2.15,0,0,1-.71-.47,20.66,20.66,0,0,1-2.22-2.36,11.37,11.37,0,0,1-1.14-1.69,11,11,0,0,1-.5-1,10.39,10.39,0,0,0-.44-1,7,7,0,0,1-.54-1.43l-.54-1.83a10.44,10.44,0,0,1-.32-1.45c0-.31-.1-.81-.13-1.11a4.28,4.28,0,0,0-.13-.73l-.23-.57a1.76,1.76,0,0,1-.15-.64l-.34-2.07a9.22,9.22,0,0,0-.24-1,5.1,5.1,0,0,0-.5-1.18c-.19-.33-.39-.69-.64-1.08a4,4,0,0,0-1.05-1.12,4.7,4.7,0,0,0-.69-.39,2.6,2.6,0,0,0-.42-.15,2.63,2.63,0,0,0-.42-.07,5.85,5.85,0,0,0-.71,0,4.71,4.71,0,0,0-.75,0,2.68,2.68,0,0,0-.79.24,4.94,4.94,0,0,0-.64.35,4.44,4.44,0,0,0-.59.46l-.43.45a15.12,15.12,0,0,1-1.37,1.4,4.13,4.13,0,0,1-1,.64,1.63,1.63,0,0,1-1.11.09,1.83,1.83,0,0,1-.58-.32c-.17-.13-.3-.25-.36-.3a1.54,1.54,0,0,1-.2-.19,5.75,5.75,0,0,1-.39-.45c-.3-.39-.67-.92-1.15-1.5a4.9,4.9,0,0,0-.87-.77,3,3,0,0,0-.54-.33,4.06,4.06,0,0,0-.59-.19,3.06,3.06,0,0,0-1.67.14,5.68,5.68,0,0,0-.79.37,3.58,3.58,0,0,1-.45.21,2.7,2.7,0,0,0-.73.52A6.76,6.76,0,0,0,134.1,38c-.34.56-.71,1.25-.89,1.55a11,11,0,0,0-.79,1.66c-.25.62-.81,1.92-1.27,2.85s-1,1.94-1.15,2.24a1.74,1.74,0,0,1-.54.74,3.13,3.13,0,0,0-.63.73,9.44,9.44,0,0,1-1.92,2,2.73,2.73,0,0,1-1.23.57c-.24,0-.53.05-.57.18v0h0l0,0-.18.07a1.11,1.11,0,0,0-.49.39c-.18.31-.12.34.16.55a3.25,3.25,0,0,0,.61.33l.19.13c.05,0,.06.09.16.1a.94.94,0,0,0,.41,0,5.18,5.18,0,0,1,.53-.14,1.57,1.57,0,0,0,.73-.36c.39-.3,1.12-.79,2-1.52.39-.33.52-.48.58-.62a4.87,4.87,0,0,1,.92-1.33l.57-.61A8.06,8.06,0,0,0,132,46.4c.47-.86.51-1,.5-1.15s.08-.32.89-2a11.4,11.4,0,0,1,1-2,3.57,3.57,0,0,0,.66-1.23,3.59,3.59,0,0,1,.89-1.5c.32-.33.6-.64.93-.94a2.87,2.87,0,0,1,.57-.39,1.75,1.75,0,0,1,.67-.17,1.22,1.22,0,0,1,.56.11c.08,0,.15.07.24.1a1,1,0,0,1,.28.19,3.68,3.68,0,0,1,.83.84,7.79,7.79,0,0,1,.56.85,4.15,4.15,0,0,0,.3.43c.09.11.17.23.3.37l.2.23.27.24a3.34,3.34,0,0,0,1.81.87,4,4,0,0,0,2.51-.65,7.25,7.25,0,0,0,1.15-.92c.3-.29.54-.54.75-.78a8.93,8.93,0,0,1,.86-.88,1.55,1.55,0,0,1,.71-.33h.3l.71-.1H151l.05,0,.11,0,.22.1a2.14,2.14,0,0,1,.39.28,4.31,4.31,0,0,1,.71,1l.3.54a1.77,1.77,0,0,1,.15.31c.27.72.39,1.57.47,1.64a1.11,1.11,0,0,1,.13.71c.07.75.18,1.51.32,2.25A40,40,0,0,0,155,49.24c.37,1.18.88,2.45,1,2.83a9.41,9.41,0,0,0,.75,1.57,4.77,4.77,0,0,0,.79,1,5.7,5.7,0,0,1,1.15,1.43,5.3,5.3,0,0,0,1.45,1.57,3.51,3.51,0,0,1,.83.75,5.29,5.29,0,0,0,1,.81,13.3,13.3,0,0,0,1.5.78l-.2-2-1,.84A1.51,1.51,0,0,1,162,59a8.27,8.27,0,0,0-1.57,1.26,2.68,2.68,0,0,1-.74.6l.78-.23-.16,0a2,2,0,0,0-1.09-.1c-.37.06-.34.08-1.49-.2a2.44,2.44,0,0,0-1.17,0,.75.75,0,0,1-.65-.08.74.74,0,0,0-.56-.11,2.09,2.09,0,0,1-.49-.08,1.05,1.05,0,0,0-.68,0,1.67,1.67,0,0,1-.5,0l.16,0a1.51,1.51,0,0,1-.61-.23,5.47,5.47,0,0,0-1.82-.54,2.6,2.6,0,0,1-.78-.23c-.25-.14-.3-.15-.45-.11-.41.11-.42.11-.58-.08a.53.53,0,0,0-.58-.16,1.07,1.07,0,0,1-.75-.21,2,2,0,0,0-1.23-.3.54.54,0,0,1-.6-.17.92.92,0,0,0-.78-.22,3,3,0,0,1-1.35-.4,7.43,7.43,0,0,0-1.52-.47,6.23,6.23,0,0,0-1.35-.28.22.22,0,0,1-.25-.09A1.6,1.6,0,0,0,140.86,56.26Z"/><path class="cls-1" d="M115.27,51.94h0c2.13,2,4.86,3.06,7.52,4,3,1.07,1.29.45,4.41.91,4.39.64,8.9.13,13.27.81,4.14.65,8,2.36,12,3.65a65.8,65.8,0,0,0,9.58,2.4,13.69,13.69,0,0,0,6.79-.11c4.81-1.65,7.79-7.9,7.61-13.59-3.67,1.54-6.4,5.23-9.81,7.5-4.71,3.14-10.13,1.66-15.31.56s-10.37-1.7-15.45-3.3C130.2,53,129,53.73,123.4,51.43a13,13,0,0,1-3.87-2.27A13.19,13.19,0,0,1,116.31,44a26.87,26.87,0,0,1-1.6-12l-.56.86c-.2.34-.39.69-.57,1a15.16,15.16,0,0,0-.88,2.13,17.1,17.1,0,0,0-.87,4.59,19.88,19.88,0,0,0,.37,3.64,16.32,16.32,0,0,0,.66,4A10,10,0,0,0,115.27,51.94Z"/><path class="cls-3" d="M116.22,39a5.72,5.72,0,0,0-.36-1.82,2.65,2.65,0,0,1-.15-1.62,19.62,19.62,0,0,0,.09-2.87,4.17,4.17,0,0,1,0-.5h0a1.1,1.1,0,0,0-1-1.19,1.08,1.08,0,0,0-1,.49,1.86,1.86,0,0,1-.21.28,4.76,4.76,0,0,0-.58.9c-.23.46-.55,1-.88,1.62a10.54,10.54,0,0,0-.74,1.6,4.48,4.48,0,0,0-.23,1c-.09.77-.25,1.57-.43,2.67a2.77,2.77,0,0,0,0,1.11,3.34,3.34,0,0,1,0,1.22,1.91,1.91,0,0,0,.11,1,1.05,1.05,0,0,1,.11.53,2.33,2.33,0,0,0,.07.53,8.71,8.71,0,0,1,.22,1.34c.06.66.16,1.46.22,1.74s.09.7.12,1a3.24,3.24,0,0,0,.35,1.21c.2.41.33.63.44.84s.23.42.47.8a4.75,4.75,0,0,0,.92,1.08c.7.59,1,.61,1.34.28s.22-.25.12-.65c0-.13-.06-.27-.09-.39a11.28,11.28,0,0,1-.78-1,9.51,9.51,0,0,1-1-1.94c-.17-.49-.28-.93-.36-1.18a2.93,2.93,0,0,1-.15-1.17c0-.45,0-1,0-1.15s0-.44-.13-.93-.19-1.1-.27-1.71a8.17,8.17,0,0,1,0-1.85,6.47,6.47,0,0,1,.15-.88,3,3,0,0,0,.15-.95,6.44,6.44,0,0,1,.22-1.24,3,3,0,0,1,.36-.91,4.37,4.37,0,0,0,.68-1.59c.1-.31.22-.58.33-.84s.2-.48.3-.68c.21-.39.35-.64.39-.74l0-.06-.72-.25c0,.09-.08.39-.15.7a6,6,0,0,0-.14,1.69v1.76a4.12,4.12,0,0,0,.09,1.21c.09.35.23,1.86.79,4.06a30.86,30.86,0,0,0,1,3,3.11,3.11,0,0,1,.23.79,4,4,0,0,0,.72,1.63,4.3,4.3,0,0,0,1,1.33,3.18,3.18,0,0,1,.58.58,10.46,10.46,0,0,0,4,2.82,8.79,8.79,0,0,1,1.06.44,3.8,3.8,0,0,0,.92.35,5.92,5.92,0,0,1,1.09.4,8.61,8.61,0,0,0,.89.34c.17,0,1.3.36,2.52.59a16.66,16.66,0,0,1,2.63.56,3.44,3.44,0,0,0,.82.22l1,.18,1.19.26a1.8,1.8,0,0,1,.82.29,2.3,2.3,0,0,0,1.11.35c.21,0,1.45.36,2.74.66s2.6.6,2.91.71a7.26,7.26,0,0,0,1.66.31,26.06,26.06,0,0,1,4.11.75,16.11,16.11,0,0,0,3.22.64,7.28,7.28,0,0,1,1.39.2c.23,0,.94.21,1.9.39s2.19.43,3.46.57a19.83,19.83,0,0,0,3.53.08l.71-.07c.22,0,.39-.07.59-.09s.47-.08.71-.14a7.34,7.34,0,0,0,.89-.24c.31-.12.62-.23.87-.35s.63-.31,1-.53.83-.47,1.29-.79a22.84,22.84,0,0,0,2.51-2c.63-.57,1.46-1.3,1.86-1.61s1.05-.8,1.44-1.08.83-.6.95-.71l.7-.62a3.32,3.32,0,0,1,.87-.56l.15-.07c.12-.08.36-.18.8-.39l-.93-.6a16.53,16.53,0,0,1-.29,3.36,15.56,15.56,0,0,1-2.61,6.2,10,10,0,0,1-2.65,2.53,7.58,7.58,0,0,1-3.18,1.15,13,13,0,0,1-2.92,0c-.86-.09-1.57-.2-2.06-.28-.29,0-1.42-.27-2.5-.53s-2.17-.53-2.44-.58a43.73,43.73,0,0,1-4.32-1.21c-2.08-.69-4.34-1.53-5-1.75a9.25,9.25,0,0,1-1.7-.67,7.12,7.12,0,0,0-1.14-.49,26.3,26.3,0,0,0-2.59-.74c-1-.24-2.26-.46-2.82-.56a19.12,19.12,0,0,0-3-.24c-1.1,0-3.41,0-5.13-.08-.86,0-1.75-.07-2.49-.13s-1.33-.13-1.61-.16a8.3,8.3,0,0,1-1.65-.23,5.3,5.3,0,0,0-.6-.11,1.3,1.3,0,0,1-.23-.06l-.5-.16a40.56,40.56,0,0,1-4.53-1.72,9.38,9.38,0,0,1-2.14-1.31,2.58,2.58,0,0,0-1-.72.38.38,0,0,1-.21-.07,1,1,0,0,0-.39-.08c-.28,0-.34,0-.59.27s-.27.31-.19.59a2.19,2.19,0,0,0,.73,1.06c.12.09.4.31.64.52a3.76,3.76,0,0,0,1.07.64c.69.31,1.91.92,3.53,1.64a6.25,6.25,0,0,0,1.25.46,8.8,8.8,0,0,1,1.13.26l.67.22a4.64,4.64,0,0,0,.81.16,9.89,9.89,0,0,1,1.23.23c.1,0,.37.08.75.14s.89.14,1.38.18a6.19,6.19,0,0,0,2,0,27.42,27.42,0,0,1,3.58,0,22.12,22.12,0,0,1,3.68.23,10.31,10.31,0,0,0,2.21.3,8.73,8.73,0,0,1,2.85.63c.75.26,1.47.51,2.32.78.68.21,2,.69,2.93,1.07s2,.77,3.09,1.08c1.77.5,2.78.78,3.76,1.15.27.09,1,.33,2.3.65s3.1.74,5.53,1.12a17.23,17.23,0,0,0,3.93.2,10.68,10.68,0,0,0,2.43-.48c1.18-.43,1.54-.69,1.82-.79a5,5,0,0,0,1-.62,5.53,5.53,0,0,0,.51-.48,4.45,4.45,0,0,0,.55-.6,16.16,16.16,0,0,0,2.12-3,17.3,17.3,0,0,0,1.07-2.31c.26-.73.47-1.36.57-1.75a11.06,11.06,0,0,0,.5-3.28,3.91,3.91,0,0,1,0-1.23V50a.88.88,0,0,0-.87-.88h0a.8.8,0,0,0-.26,0l-.12,0A12.46,12.46,0,0,0,172.87,51c-.84.62-1.76,1.4-2.74,2.26s-2,1.78-3.07,2.62c-.37.28-.76.55-1.13.78a9.45,9.45,0,0,1-1.08.59l-.49.22-.44.15-.36.12-.26.06a17,17,0,0,1-2.36.37l-1,.06a4.94,4.94,0,0,0-.75.06,6.89,6.89,0,0,1-2.67-.29,20.58,20.58,0,0,0-3.14-.65,7.37,7.37,0,0,1-1.67-.39,13.09,13.09,0,0,0-1.85-.44l-4.45-.64a3.69,3.69,0,0,1-.44-.13,21.45,21.45,0,0,0-3.18-.59,6.18,6.18,0,0,1-1.75-.4,4.86,4.86,0,0,0-1.7-.39c-.59,0-.55,0-2.28-.7a6.06,6.06,0,0,0-1.92-.46,2.13,2.13,0,0,1-1-.27,1.87,1.87,0,0,0-.92-.25,4.23,4.23,0,0,1-.78-.19,2.73,2.73,0,0,0-1.1-.17,4,4,0,0,1-1.78-.32,27.65,27.65,0,0,0-2.81-.87,5,5,0,0,1-1.18-.46,1.23,1.23,0,0,0-.66-.26c-.62,0-.64,0-.88-.3a1.24,1.24,0,0,0-.82-.47,1.9,1.9,0,0,1-1-.58,7.89,7.89,0,0,0-1.38-1.14,1,1,0,0,1-.58-.69,2.27,2.27,0,0,0-.64-1,4.69,4.69,0,0,1-.95-1.89c-.09-.42-.29-.85-.79-2.33-.39-1.25-.53-1.93-.6-2a.49.49,0,0,1-.07-.39A2.73,2.73,0,0,0,116.22,39Z"/><path class="cls-3" d="M174.21,54.39c.13,0,.16-.19.08-.35s-.07-.23.12-.28a.43.43,0,0,0,.3-.42c0-.09,0-.13.06-.14a.28.28,0,0,0,.11-.13.41.41,0,0,1,.21-.22c.26-.15.3-.17.28-.31a.36.36,0,0,1,.2-.35c.08-.06.09-.08.06-.16s0-.15.11-.12.14,0,.09-.1,0-.07,0-.08.07,0,.06,0a.45.45,0,0,1,.11-.17l.16-.17a.17.17,0,0,1,.14,0c.07,0,.1,0,.14,0a.25.25,0,0,1,.15-.11s.06-.06.08-.15a1.78,1.78,0,0,0-.13-.79,1.18,1.18,0,0,0-.24-.49l-.14-.17-.28.11-.43.21a.3.3,0,0,0-.19.19c0,.08-.06.1-.2.14a.88.88,0,0,0-.22.1,4.79,4.79,0,0,0-.35.39c-.22.27-.31.38-.4.4s-.11.05-.11.15-.15.37-.26.35-.2,0-.21.26a2.32,2.32,0,0,1-.07.52.52.52,0,0,1-.16.06c-.12,0-.16.07-.23.22a.6.6,0,0,1-.2.25.16.16,0,0,0-.11.18,2.46,2.46,0,0,1-.31.68c-.29.54-.3.55-.43.56s-.13,0-.23.22-.09.23,0,.3,0,.18-.24.51a.93.93,0,0,0-.21.36.21.21,0,0,1-.11.16.15.15,0,0,0-.08.16c0,.08,0,.12-.12.16a.28.28,0,0,0-.13.11s-.12.2-.23.39-.23.33-.32.34-.12,0-.13.09a.46.46,0,0,1-.07.16,1.21,1.21,0,0,1-.09.2c0,.06,0,.11-.13.09a.11.11,0,0,0-.14.14,1,1,0,0,1-.28.39,1,1,0,0,1-.39.3c-.09,0-.12,0-.21.21a.88.88,0,0,1-.55.5.5.5,0,0,0-.44.39.28.28,0,0,1-.13.23c-.07,0-.39.3-.76.51a2.72,2.72,0,0,1-.78.34.82.82,0,0,0-.26.1.58.58,0,0,1-.39.08h-.47a.76.76,0,0,1-.37-.06c-.07,0-.19-.11-.26-.17a.25.25,0,0,0-.17-.06l-.18.08c-.1,0-.16,0-.2,0a4.11,4.11,0,0,0-.6-.17l-1.28-.34c-.48-.13-1-.27-1.35-.39s-.78-.3-.95-.35a3.67,3.67,0,0,1-.43-.21,1.79,1.79,0,0,0-.44-.16,5.34,5.34,0,0,1-.81-.21l-.95-.27c-.19-.05-.23-.08-.29-.18s-.21-.22-.64-.35a2.55,2.55,0,0,1-.48-.2,1.42,1.42,0,0,0-.53-.13,7.42,7.42,0,0,1-.94-.15,5.18,5.18,0,0,0-.78-.09c-.17,0-.21,0-.28-.1s-.12-.12-.29-.13a3.21,3.21,0,0,1-1.37-.33c-.08-.13-.2-.15-.24,0s0,.08-.05.08a.4.4,0,0,0-.1.18,2.32,2.32,0,0,0-.13.58,1.56,1.56,0,0,0,0,.57c0,.22.1.39.16.39a.22.22,0,0,1,.13.08.16.16,0,0,0,.21,0,1,1,0,0,1,.67.16c.13.07.19.08.23,0a.36.36,0,0,1,.46,0l.21.17a1.09,1.09,0,0,0,.36.12c.27,0,.32,0,.36,0s.11-.07.64,0,.59.16.63.23a.32.32,0,0,0,.39.16c.15-.06.3,0,.5.17a.88.88,0,0,0,.39.21,3,3,0,0,1,.52.21,1.09,1.09,0,0,0,.56.15,1,1,0,0,1,.65.18,9.48,9.48,0,0,0,1.28.51l1,.39a.89.89,0,0,1,.31.17c.1.12.23.15.46.09a8,8,0,0,1,1.36.27c.28.11.53.14.56.09s.15-.05.21,0a.51.51,0,0,0,.18.09l.18.07.26.09a4.53,4.53,0,0,0,1.79.18,10,10,0,0,0,1.07-.19,1.22,1.22,0,0,0,.89-.47.5.5,0,0,1,.5-.31.67.67,0,0,0,.56-.35c0-.1.08-.13.28-.19a.51.51,0,0,0,.32-.19c.07-.1.5-.63.55-.67a.14.14,0,0,1,.09,0,.7.7,0,0,0,.43-.43c0-.13.06-.15.27-.25s.23-.11.23-.27,0-.15.36-.33a.32.32,0,0,0,.18-.35c0-.11,0-.18.14-.15s.17-.05.14-.11,0-.08.12-.11a.16.16,0,0,0,.1-.19c0-.18,0-.31.17-.32s.3-.19.37-.45.07-.17.16-.2.1,0,.06-.12-.12-.22,0-.19.2,0,.16-.14,0-.15.12-.19.26-.22.17-.34,0-.17.09-.16.19,0,.14-.2a.3.3,0,0,1,.22-.35c.1,0,.15-.11.29-.37s.15-.35.13-.39,0-.07.05-.06A.41.41,0,0,0,174.21,54.39Z"/><path class="cls-3" d="M117.08,48.94c0,.11.11.14.27.07s.2-.06.19.11a.26.26,0,0,0,.27.25h0c.07,0,.1,0,.1.05a.15.15,0,0,0,.1.09.26.26,0,0,1,.16.18c.11.23.14.26.26.23a.29.29,0,0,1,.32.12c0,.07.07.07.14,0s.14,0,.13.06,0,.14.1.07.06,0,.07,0,0,0,.07,0a.42.42,0,0,1,.19,0l.21.08a.14.14,0,0,1,.06.12c0,.08,0,.11.11.12a.43.43,0,0,1,.22.06.17.17,0,0,0,.19,0c.15-.09.24-.24.41-.68a2,2,0,0,0,.16-.52l0-.22-.15-.06-.22-.14a.16.16,0,0,0-.15,0c-.06,0-.08,0-.12-.07a.36.36,0,0,0-.08-.12,2.05,2.05,0,0,1-.28-.12c-.13-.06-.25-.13-.26-.19s0-.09-.1,0-.25,0-.21-.15,0-.17-.15-.14a.93.93,0,0,1-.37,0,.33.33,0,0,1,0-.14.14.14,0,0,0-.1-.17.2.2,0,0,1-.13-.15c0-.07,0-.09-.11-.09a.92.92,0,0,1-.39-.23c-.3-.24-.3-.25-.26-.36s0-.11-.08-.19-.14-.08-.21-.05-.14,0-.28-.21a.41.41,0,0,0-.19-.2.11.11,0,0,1-.08-.09s0-.08-.08-.08-.08,0-.08-.1a.19.19,0,0,0,0-.13l-.21-.2c-.09-.1-.16-.2-.13-.28s0-.09,0-.11a.24.24,0,0,1-.11-.06l-.12-.08c-.07,0-.07,0,0-.11s0-.13-.06-.12-.39-.44-.33-.56,0-.09-.11-.15a.38.38,0,0,1-.22-.43.22.22,0,0,0-.11-.31l0,0a.15.15,0,0,1-.15-.11s-.13-.3-.22-.57a2.41,2.41,0,0,1-.16-.6.26.26,0,0,0-.06-.19.47.47,0,0,1-.09-.28,1.34,1.34,0,0,0,0-.35.45.45,0,0,1,0-.28l.07-.23V40.8l-.12-.08c-.07,0-.09-.08-.06-.12s-.08-.59-.14-1.22-.08-1.32-.09-1.57a2.5,2.5,0,0,1,0-.29.57.57,0,0,0,0-.29,1.46,1.46,0,0,1,0-.51l.06-.61c0-.12,0-.15.13-.19s.17-.13.24-.39a.84.84,0,0,1,.13-.29.48.48,0,0,0,.08-.31,3.72,3.72,0,0,1,.08-.57,1.77,1.77,0,0,0,.08-.46c0-.11,0-.13.09-.15s.12,0,.14-.16c.06-.39.26-.74.39-.75s.15-.07.06-.12-.14,0-.14,0l-.17-.11a3.32,3.32,0,0,0-.54-.25,2.07,2.07,0,0,0-.53-.18c-.21,0-.4,0-.4,0s0,0-.08.07-.08,0-.06.14,0,.25-.21.42-.09.11-.06.15a.21.21,0,0,1,0,.28.12.12,0,0,1,0,0l-.17.12a.44.44,0,0,0-.11.24c-.06.18,0,.22,0,.26s.07.08,0,.45-.12.39-.19.42a.19.19,0,0,0-.14.22s0,0,0,0,0,.21-.11.36a.54.54,0,0,0-.15.29,2.62,2.62,0,0,1-.11.4.48.48,0,0,0,0,.39.53.53,0,0,1,0,.49,3.3,3.3,0,0,0-.09,1c0,.79,0,.91,0,1s-.06.18.07.31a3.72,3.72,0,0,1,.18.94c0,.21.06.39.12.39s.1.08,0,.14a4.35,4.35,0,0,0,.16,1.48,5.59,5.59,0,0,1,.11.59.51.51,0,0,0,.24.54c.16.07.2.17.12.34a.32.32,0,0,0,.12.39c.08,0,.09.06.07.21a.25.25,0,0,0,.05.25,5.58,5.58,0,0,1,.39.46.24.24,0,0,1,0,.08c0,.1.11.31.24.35s.1,0,.11.21,0,.18.14.19.13,0,.13.28a.16.16,0,0,0,.15.17h.06c.1,0,.14,0,.07.12s0,.14,0,.12,0,0,0,.1,0,.11.11.1.23.05.18.17,0,.25.21.34.1.08.09.14,0,.1.08.07.21-.09.13,0-.08.17,0,.14.13,0,.11.13.08.24.2.17.16,0,.1.09,0,.17.1.14.22.07.21.21,0,.14.21.28.23.15.27.13.06,0,0,0A.37.37,0,0,0,117.08,48.94Z"/><path class="cls-3" d="M148.25,41.25c.1-.07.09-.2,0-.34s-.12-.19,0-.28a.38.38,0,0,0,.18-.46c0-.08,0-.12,0-.14a.22.22,0,0,0,.08-.15.33.33,0,0,1,.15-.23c.23-.19.26-.22.22-.35a.37.37,0,0,1,.13-.39c.08-.06.08-.09,0-.16s0-.16.09-.15.14,0,.08-.11,0-.07,0-.09.07,0,.06-.06a.4.4,0,0,1,.09-.2,2.45,2.45,0,0,1,.14-.21.16.16,0,0,1,.15,0,.14.14,0,0,0,.15-.08.46.46,0,0,1,.16-.18.24.24,0,0,0,.07-.2c0-.19-.07-.35-.37-.73a1.12,1.12,0,0,0-.39-.39l-.19-.12-.22.17a4.07,4.07,0,0,1-.35.3.33.33,0,0,0-.14.22c0,.09,0,.12-.17.18a.5.5,0,0,0-.19.13s-.16.23-.29.45-.24.43-.32.47-.11.07-.09.17-.1.39-.2.39-.2.08-.18.31a2.45,2.45,0,0,1,0,.54.45.45,0,0,1-.14.1.36.36,0,0,0-.18.28.71.71,0,0,1-.13.31.19.19,0,0,0-.06.22,4.06,4.06,0,0,1-.1.78c-.11.64-.1.66-.22.71s-.13.07-.14.31,0,.27.08.32.09.15,0,.61a1.14,1.14,0,0,0,0,.45.26.26,0,0,1,0,.21.17.17,0,0,0,0,.19.17.17,0,0,1,0,.21.6.6,0,0,0-.06.19s0,.25.06.48.05.43,0,.51a.15.15,0,0,0,0,.17,1.34,1.34,0,0,1,.07.18,2.09,2.09,0,0,0,.08.23c.05.09.05.12,0,.16a.13.13,0,0,0,0,.22,2.49,2.49,0,0,1,.19,1.08c0,.08,0,.14.08.31a1,1,0,0,1,.19.79.56.56,0,0,0,.19.6.3.3,0,0,1,.17.22c0,.09.17.53.34,1a6.52,6.52,0,0,1,.25.64l.75-.74-.22-.16a.82.82,0,0,0-.22-.16.53.53,0,0,1-.15-.08l-.14-.18c-.09-.14-.19-.27-.29-.4a.9.9,0,0,1-.18-.35l0-.33c0-.08,0-.17-.07-.18l-.18-.1c-.08,0-.11-.09-.1-.16a5,5,0,0,0-.2-.54c-.11-.33-.26-.79-.39-1.25s-.25-1-.39-1.47-.3-.82-.37-1-.09-.27-.15-.48a1.3,1.3,0,0,0-.2-.45s-.22-.39-.43-.78a7,7,0,0,0-.52-.89.41.41,0,0,1-.11-.34c0-.12,0-.31-.29-.71a3.1,3.1,0,0,1-.26-.47,1.41,1.41,0,0,0-.34-.46c-.16-.14-.45-.46-.68-.71a4.15,4.15,0,0,0-.56-.55c-.15-.11-.17-.13-.17-.26s0-.16-.15-.28c-.49-.44-.92-1-.9-1.1s-.07-.24-.16-.18-.08,0-.09,0a.66.66,0,0,0-.19.09,2.44,2.44,0,0,0-.46.39,1.69,1.69,0,0,0-.37.43c-.11.2-.15.4-.1.4a.17.17,0,0,1,.06.14c0,.1,0,.12.15.16a1,1,0,0,1,.44.54c.07.14.11.18.16.18a.4.4,0,0,1,.4.27,1.22,1.22,0,0,1,.06.26,1.21,1.21,0,0,0,.22.32c.19.21.23.23.31.21s.13,0,.48.42.37.49.36.57a.31.31,0,0,0,.2.36c.15.05.23.19.28.45a.79.79,0,0,0,.15.42,2.51,2.51,0,0,1,.25.49,1,1,0,0,0,.29.47.88.88,0,0,1,.33.57c0,.11.19.5.48,1.27a7.83,7.83,0,0,1,.31,1,.51.51,0,0,1,0,.3c-.05.13,0,.25.16.39a9.55,9.55,0,0,1,.48,1.36c.07.32.19.57.26.57s.13.1.1.21a2.1,2.1,0,0,0,.22.75,5.68,5.68,0,0,0,.88,1.48c.16.17.31.35.46.49a3.29,3.29,0,0,1,.32.31,1.94,1.94,0,0,0,.47.34l.07,0a1.19,1.19,0,0,0,1.57-.58,1.24,1.24,0,0,0,0-1,.67.67,0,0,0-.25-.3.31.31,0,0,1-.19-.4s0,0,0,0a.52.52,0,0,0-.14-.53c-.09-.06-.1-.1-.08-.29a.42.42,0,0,0,0-.31,6.81,6.81,0,0,1-.33-.73.3.3,0,0,1,0-.08.67.67,0,0,0-.15-.54c-.09-.09-.09-.11,0-.31s0-.22-.07-.3-.13-.07,0-.41a.26.26,0,0,0-.14-.32c-.1,0-.1-.12,0-.18s.1-.14,0-.16,0-.07,0-.14.05-.13,0-.18-.18-.23-.06-.32.11-.29,0-.52a.2.2,0,0,1,0-.22c.06-.07.06-.08,0-.12-.21-.1-.22-.11-.07-.16s.17-.09.07-.17-.09-.12,0-.2.12-.27,0-.34-.12-.11,0-.16.14-.1,0-.22a.27.27,0,0,1,0-.38h0c.08-.06.1-.15.14-.42s0-.35,0-.39,0,0,0-.07A.37.37,0,0,0,148.25,41.25Z"/><path class="cls-3" d="M57.23,31.71a2.67,2.67,0,0,0,1.2.6,1.36,1.36,0,0,1,1,.67,6.91,6.91,0,0,0,1.53,1.38,1.13,1.13,0,0,1,.43.41,2.79,2.79,0,0,0,.45.53,3.4,3.4,0,0,1,.71,1,5.43,5.43,0,0,0,1,1.46,4.37,4.37,0,0,1,.92,1.46c.15.39.21.5.36.62a.87.87,0,0,1,.33.67.7.7,0,0,0,.22.61.46.46,0,0,1,.15.33.89.89,0,0,0,.12.36,3.43,3.43,0,0,1,.35.92l.31,1.11a1.36,1.36,0,0,1,0,.6,1.53,1.53,0,0,0,0,.75,4.08,4.08,0,0,1,.16,1.14,2.9,2.9,0,0,0,.16.87c.2.56.4.72,1,.72.35,0,.38,0,.6-.27l.22-.29,0-1a16.41,16.41,0,0,0-.17-1.71,3.64,3.64,0,0,0-.2-1,2.21,2.21,0,0,1-.22-.89c0-.34-.1-.73-.13-.85s-.37-1-.71-1.9A18.1,18.1,0,0,1,66,38a1.36,1.36,0,0,0-.39-.65,6.22,6.22,0,0,1-.94-1.47c0-.3-.21-.57-.78-1.12-.78-.68-1.37-1.13-1.48-1.26s-.18-.3-.33-.5a3.65,3.65,0,0,0-.87-.91c-.34-.32-.78-.64-1-.85a2.33,2.33,0,0,0-.73-.54l-.87-.5a18.62,18.62,0,0,0-1.82-1,17.48,17.48,0,0,0-2.15-.91,1.36,1.36,0,0,1-.53-.31c-.2-.2-.3-.25-1.22-.45s-1-.22-1.21-.16-.56,0-2.36-.26A14.43,14.43,0,0,0,47.6,27a4.34,4.34,0,0,1-.85,0,2.07,2.07,0,0,0-.74.05,3.27,3.27,0,0,1-.85.06,4.25,4.25,0,0,0-.71.05,15,15,0,0,0-1.88.41c-1.35.35-1.66.5-2,.52a1.66,1.66,0,0,0-.63.18c-.15.08-.46.2-.68.32l-.82.47c-.35.21-.46.25-.62.24a1,1,0,0,0-.77.42,6.22,6.22,0,0,1-.61.43l-.54.34-.58.44-1.13.83a6.63,6.63,0,0,1-.66.52,3.17,3.17,0,0,0-.92.88c-.36.49-.75,1-1.12,1.37a9.91,9.91,0,0,1-.91,1.06,5.55,5.55,0,0,0-.47.49l-.38.58a4.92,4.92,0,0,0-.5,1,4.79,4.79,0,0,1-.38,1,19,19,0,0,0-1.44,3.8c-.11.46-.26.91-.34,1.34l-.2,1.22c-.15.73-.14,1.28-.18,1.46a9.74,9.74,0,0,0,0,1.33,15.93,15.93,0,0,1,.09,1.93,22.56,22.56,0,0,0,.3,2.37c.17.61.35,1.42.42,1.81s.24,1,.33,1.37a3.75,3.75,0,0,0,.31.89l.44.62a2.39,2.39,0,0,1,.39.73,19.47,19.47,0,0,0,1.31,2.23,22.6,22.6,0,0,0,3.82,4.21,23,23,0,0,0,5.32,3.26l1.27.46a6.64,6.64,0,0,0,1.13.36c.71.18,1.28.34,1.67.41.23,0,1.1.19,2,.35s1.72.12,1.94.11l1.17-.07,1.06-.06c.39,0,.8-.12,1.22-.17s.85-.11,1.25-.22l1.16-.29a11.89,11.89,0,0,0,1.52-.49,6.6,6.6,0,0,1,1.33-.4A3.65,3.65,0,0,0,57,67c.21-.08.46-.18.76-.32l1-.6c.66-.35,1.45-.91,1.82-1.14a9.08,9.08,0,0,0,.78-.55c.28-.25.6-.55,1-.92a15.71,15.71,0,0,0,1.22-1.31A17.69,17.69,0,0,0,65,60.47,12.61,12.61,0,0,0,66,58.8l.4-.68c.09-.2.16-.36.2-.47a3.06,3.06,0,0,1,.59-1.08,2.89,2.89,0,0,0,.57-1.18,42.87,42.87,0,0,0,1.42-5.8,1.53,1.53,0,0,0,.06-1,.29.29,0,0,1-.08-.18.73.73,0,0,0-.21-.3c-.19-.18-.26-.2-.67-.2s-.47,0-.65.2a1.47,1.47,0,0,0-.45.86,2,2,0,0,1-.09.55,3.08,3.08,0,0,0-.09.85A7.72,7.72,0,0,1,66.44,53a4,4,0,0,0-.26.89,4,4,0,0,1-.53,1.72c-.2.31-.44.65-.53.76s-.37.73-.75,1.3c-.57.92-.64,1.1-.66,1.25s0,.17-.23.45l-.43.6-.34.44-.5.54c-.32.35-.58.64-.81.86l-.58.5a2.91,2.91,0,0,1-.55.41,5.41,5.41,0,0,0-1.33.93,4.33,4.33,0,0,1-1.79,1.1c-.52.24-1,.38-1.61.67a14,14,0,0,1-2.07.74,22,22,0,0,0-2.19.57c-.61.14-1.1.24-1.52.31a5.6,5.6,0,0,1-1.15,0,4.77,4.77,0,0,0-.55,0h-.48L47,67c-.45,0-1,0-1.63-.13l-1-.16-.57-.09-.58-.15c-.51-.14-1-.24-1.38-.37l-1.07-.39a11,11,0,0,1-1.42-.63,3.91,3.91,0,0,1-1-.62,4.28,4.28,0,0,0-1.46-.84l-.67-.45a9.56,9.56,0,0,1-1.21-.94,17,17,0,0,1-2-2,16.55,16.55,0,0,0-1.36-1.72,1.24,1.24,0,0,1-.43-.69,5.38,5.38,0,0,0-.35-.68c-.18-.4-.42-1-.72-1.61A20.12,20.12,0,0,1,28.7,50.2a14.66,14.66,0,0,1,0-3.21c0-.32.07-.64.1-.94s.09-.59.13-.86A12.31,12.31,0,0,0,29,43.9,3.71,3.71,0,0,1,29.5,42,10,10,0,0,0,30.38,40a2.87,2.87,0,0,1,.53-1,6.66,6.66,0,0,0,.72-1.07l.29-.55.55-.83c.2-.29.38-.59.55-.8l.35-.41.25-.19a10,10,0,0,0,.78-.73,8.38,8.38,0,0,0,.81-.85c.23-.34.33-.4,1-.77a2.47,2.47,0,0,0,1-.74c.3-.33.25-.31,1.46-.82a2.72,2.72,0,0,0,1.15-.66.71.71,0,0,1,.67-.28.83.83,0,0,0,.61-.16,1.84,1.84,0,0,1,.53-.17,1.52,1.52,0,0,0,.71-.25,1.87,1.87,0,0,1,1.22-.36,7.85,7.85,0,0,0,2.1-.29,2.25,2.25,0,0,1,.89,0c.31.05.37.05.51-.05.41-.26.43-.28.66-.11a.59.59,0,0,0,.7.11,1.09,1.09,0,0,1,.86.05,2.73,2.73,0,0,0,1.41.15.57.57,0,0,1,.68.1,1.07,1.07,0,0,0,.87.24,2.56,2.56,0,0,1,1.5.44,2.76,2.76,0,0,0,.52.26c.24.12.6.2,1.1.45a10.41,10.41,0,0,0,1.42.59c.13,0,.17,0,.24.17A1.44,1.44,0,0,0,57.23,31.71Z"/><path class="cls-3" d="M37.13,56.71c-.17,0-.26.2-.23.42s0,.3-.26.32a.67.67,0,0,0-.52.47c0,.11-.07.16-.13.17s-.13.07-.18.15a.77.77,0,0,1-.34.25c-.38.15-.43.2-.47.38a.71.71,0,0,1-.38.47c-.12.07-.15.11-.13.21s-.05.22-.18.19-.2,0-.17.15,0,.09-.06.11-.1,0-.1.08a.85.85,0,0,1-.2.28l-.26.31a.28.28,0,0,1-.21.07.24.24,0,0,0-.23.13,1,1,0,0,1-.27.31.46.46,0,0,0-.13.29c0,.26.08.43.47.82a1.34,1.34,0,0,0,.49.37l.24.11.24-.23a5.19,5.19,0,0,1,.41-.35.49.49,0,0,0,.18-.26c0-.09.06-.13.22-.19a.91.91,0,0,0,.25-.13l.42-.47c.28-.31.41-.43.52-.45s.14,0,.16-.17.27-.42.39-.39.25,0,.33-.27a2.85,2.85,0,0,1,.25-.61l.21,0c.15,0,.21-.06.34-.22a.84.84,0,0,1,.32-.26.24.24,0,0,0,.2-.2,4.25,4.25,0,0,1,.61-.74c.56-.59.58-.61.72-.58s.17,0,.36-.22.2-.27.17-.36,0-.22.48-.57a1.54,1.54,0,0,0,.39-.4.35.35,0,0,1,.19-.19.22.22,0,0,0,.15-.17.26.26,0,0,1,.2-.19.59.59,0,0,0,.2-.11l.4-.45c.29-.33.38-.4.5-.41a.21.21,0,0,0,.18-.1.75.75,0,0,1,.12-.21,1.53,1.53,0,0,0,.16-.25c.07-.12.1-.14.19-.12s.21,0,.21-.17a2.87,2.87,0,0,1,1-1c.1,0,.15-.07.26-.3a1.38,1.38,0,0,1,.71-.69.79.79,0,0,0,.55-.56.43.43,0,0,1,.16-.31l.92-.88c.43-.41.85-.8,1-.86a.93.93,0,0,0,.29-.3,1.72,1.72,0,0,1,.43-.43,3.85,3.85,0,0,0,.56-.49,2,2,0,0,1,.45-.37l.41-.21a.54.54,0,0,0,.22-.18s0-.16.08-.26.08-.18.16-.2,3.47-3.38,4.15-4.11c0,0,.26-.23.47-.39a2.4,2.4,0,0,0,.43-.42,6.6,6.6,0,0,1,.73-.79l.9-.9c.17-.18.24-.22.38-.22s.35-.11.79-.5a5.29,5.29,0,0,1,.52-.4,1.8,1.8,0,0,0,.51-.48,11.93,11.93,0,0,1,.83-.89,9.13,9.13,0,0,0,.67-.74c.12-.19.16-.22.31-.23s.2,0,.34-.21a4,4,0,0,1,1.38-1.19c.16,0,.28-.11.22-.22s0-.09,0-.1a.54.54,0,0,0-.1-.22,1.9,1.9,0,0,0-.43-.52,1.59,1.59,0,0,0-.5-.41c-.23-.11-.45-.15-.49-.09a.37.37,0,0,1-.18.09c-.11,0-.15.07-.2.2s-.3.38-.69.59c-.17.09-.22.15-.22.22a.52.52,0,0,1-.36.49,1.31,1.31,0,0,1-.32.12,1.58,1.58,0,0,0-.39.31c-.26.26-.3.31-.27.41s0,.16-.53.66-.6.54-.7.54a.5.5,0,0,0-.44.33c-.05.21-.2.34-.54.47a1.37,1.37,0,0,0-.51.32,4.35,4.35,0,0,1-.58.48,1.65,1.65,0,0,0-.54.55,1.52,1.52,0,0,1-.63.67A11.74,11.74,0,0,0,53.28,41c-1,1-1.21,1.19-1.36,1.22s-.29.17-.37.45A9.54,9.54,0,0,1,50.35,44c-.3.24-.52.5-.49.57s0,.19-.18.2a16.51,16.51,0,0,0-2.08,1.8,10,10,0,0,1-.85.72,1.46,1.46,0,0,0-.71.79.55.55,0,0,1-.48.47A.83.83,0,0,0,45,49c0,.13-.09.17-.31.26a.73.73,0,0,0-.36.28c-.08.12-.59.81-.65.87l-.12,0A1.06,1.06,0,0,0,43,51c0,.16-.06.18-.31.3s-.27.13-.28.31,0,.18-.44.38a.38.38,0,0,0-.26.39c0,.13-.06.2-.18.16s-.22,0-.19.12-.07.08-.16.11S41,52.9,41,53s-.11.36-.28.34-.39.18-.55.48A.33.33,0,0,1,40,54c-.12,0-.14,0-.11.14.07.27.07.28-.1.22s-.23,0-.22.12,0,.19-.22.21-.37.2-.32.36,0,.22-.16.17-.23,0-.24.21a.43.43,0,0,1-.38.38c-.13,0-.23.09-.49.38s-.32.38-.31.44,0,.08-.08,0A.69.69,0,0,0,37.13,56.71Z"/></svg>