<svg id="Layer_1" data-name="Layer 1" xmlns="http://www.w3.org/2000/svg" xmlns:xlink="http://www.w3.org/1999/xlink" viewBox="0 0 384 96"><defs><style>.cls-1,.cls-73,.cls-82,.cls-86,.cls-87{fill:none;}.cls-2{fill:#2a3141;}.cls-3{fill:#f5b656;}.cls-4{fill:#ef5d59;}.cls-5{fill:#a03f3c;}.cls-6{fill:#154236;}.cls-7{fill:#9dd6ed;}.cls-8{fill:#036a96;}.cls-9{fill:#3baedb;}.cls-10{fill:#0d9bd5;}.cls-11{fill:#0e81b5;}.cls-12{fill:#6dc2e5;}.cls-13{clip-path:url(#clip-path);}.cls-14{fill:#62be98;}.cls-15{fill:#61be97;}.cls-16{fill:#60bd97;}.cls-17{fill:#5fbc96;}.cls-18{fill:#5ebb95;}.cls-19{fill:#5dbb94;}.cls-20{fill:#5cba94;}.cls-21{fill:#5bb993;}.cls-22{fill:#5ab892;}.cls-23{fill:#59b891;}.cls-24{fill:#58b791;}.cls-25{fill:#57b690;}.cls-26{fill:#56b58f;}.cls-27{fill:#55b58e;}.cls-28{fill:#54b48e;}.cls-29{fill:#53b38d;}.cls-30{fill:#52b28c;}.cls-31{fill:#51b28b;}.cls-32{fill:#50b18b;}.cls-33{fill:#4fb08a;}.cls-34{fill:#4eaf89;}.cls-35{fill:#4daf88;}.cls-36{fill:#4cae88;}.cls-37{fill:#4aad87;}.cls-38{fill:#49ad86;}.cls-39{fill:#48ac85;}.cls-40{fill:#47ab84;}.cls-41{fill:#46aa84;}.cls-42{fill:#45aa83;}.cls-43{fill:#44a982;}.cls-44{fill:#43a881;}.cls-45{fill:#42a781;}.cls-46{fill:#41a780;}.cls-47{fill:#40a67f;}.cls-48{fill:#3fa57e;}.cls-49{fill:#3ea47e;}.cls-50{fill:#3da47d;}.cls-51{fill:#3ca37c;}.cls-52{fill:#3ba27b;}.cls-53{fill:#3aa17b;}.cls-54{fill:#39a17a;}.cls-55{fill:#38a079;}.cls-56{fill:#379f78;}.cls-57{fill:#369e78;}.cls-58{fill:#359e77;}.cls-59{fill:#349d76;}.cls-60{fill:#67c29c;}.cls-61{fill:#66c19b;}.cls-62{fill:#65c19a;}.cls-63{fill:#64c09a;}.cls-64{fill:#63bf99;}.cls-65{fill:#339c75;}.cls-66{fill:#329b75;}.cls-67{fill:#319b74;}.cls-68{fill:#309a73;}.cls-69{fill:#287d5e;}.cls-70{fill:#b2ddcc;}.cls-71{fill:url(#linear-gradient);}.cls-72{clip-path:url(#clip-path-2);}.cls-73{stroke:#ca9747;}.cls-73,.cls-82,.cls-86,.cls-87{stroke-linecap:round;stroke-linejoin:round;}.cls-73,.cls-82,.cls-86{stroke-width:0.5px;}.cls-74{fill:#ca9747;}.cls-75{fill:#f9dfba;}.cls-76{fill:url(#linear-gradient-2);}.cls-77{fill:url(#linear-gradient-3);}.cls-78{fill:#a6adb4;}.cls-79{fill:#303b4d;}.cls-80{fill:#6f7986;}.cls-81{clip-path:url(#clip-path-3);}.cls-82{stroke:#f3b555;}.cls-83{fill:#dedfe3;}.cls-84{fill:#a27b3b;}.cls-85{clip-path:url(#clip-path-4);}.cls-86{stroke:#a27b3b;}.cls-87{stroke:#1e2636;stroke-width:0.99px;}.cls-88{fill:#1e2636;}</style><clipPath id="clip-path"><path class="cls-1" d="M251.91,17.84c-.64-1.05-1.11-1.65-1.21-1.84l-19.19-1.4h0l-.57.66c.07.21.44,1,.93,2.3l.4,1.14c.29.84.59,1.84.9,3,.15.57.3,1.17.45,1.81.23,1,.45,2.08.65,3.23a61.45,61.45,0,0,1,.76,6.35c.1,1.38.15,2.8.14,4.24a49.18,49.18,0,0,1-.51,7.27h.7l19.78-3.76a35,35,0,0,0,.64-10.31,32.51,32.51,0,0,0-1.68-7.92A26.37,26.37,0,0,0,251.91,17.84Zm.23,5.58a32,32,0,0,1,1.65,8,29.38,29.38,0,0,1-.45,8.05l-16.55,2.89a66.35,66.35,0,0,0,0-10.36,59.42,59.42,0,0,0-1.47-9.55,39.56,39.56,0,0,0-1.74-5.61l0-.08,15.8.81h0c.16.25.33.54.52.87A29.84,29.84,0,0,1,252.14,23.42Z"/></clipPath><linearGradient id="linear-gradient" x1="114.49" y1="31.58" x2="171.53" y2="62.65" gradientUnits="userSpaceOnUse"><stop offset="0" stop-color="#f5c377"/><stop offset="1" stop-color="#ca9747"/></linearGradient><clipPath id="clip-path-2"><path class="cls-1" d="M183.5,36.21c0-.29-.2-.52-.41-.5l-.92.08-.07-1.35c0-.16-.1-.28-.22-.27s-.33.21-.36.46c-.1,1.07-.56,1.27-.83,1.29l-32.22,2.79-.09-.09a1,1,0,0,0-.86-.36l-9.63.83a18.15,18.15,0,0,0-6.46,1.83,24.88,24.88,0,0,0-5.56,3.78,2.46,2.46,0,0,1-1.43.65A2.23,2.23,0,0,1,123,45a1.59,1.59,0,0,0-1-.26l-.27.05-16.57,4.39a.88.88,0,0,0-.55.59,1.41,1.41,0,0,0,0,1,37.17,37.17,0,0,1,2.52,10.69.6.6,0,0,0,.19.43.3.3,0,0,0,.36,0l13.56-9a1.24,1.24,0,0,1,.57-.21,1.29,1.29,0,0,1,.94.35l1.09,1a.59.59,0,0,0,.47.17.47.47,0,0,0,.17,0,.9.9,0,0,0,.49-.59c.71-2.24,2.6-6.07,7.28-6.54l.28,0,4.47-.39,10.07-.87a.59.59,0,0,0,.45-.56l0-.31,8.29-.72,0,1c0,.33.22.57.46.55l.58,0a.36.36,0,0,0,.25-.14l.16-.19.18.16a.36.36,0,0,0,.26.1l.21,0a.39.39,0,0,0,.25-.14l.16-.2.18.17a.33.33,0,0,0,.26.1l.2,0a.36.36,0,0,0,.25-.14l.16-.2.18.17a.36.36,0,0,0,.26.1l.21,0a.37.37,0,0,0,.24-.15l.17-.19.18.17a.32.32,0,0,0,.25.09h.21a.4.4,0,0,0,.25-.15l.16-.19.18.16a.36.36,0,0,0,.26.1h.2a.37.37,0,0,0,.25-.15l.17-.19.17.16a.36.36,0,0,0,.26.1l.21,0a.39.39,0,0,0,.25-.14l.16-.19.18.16a.33.33,0,0,0,.26.1l.2,0a.36.36,0,0,0,.25-.14l.16-.19.18.16a.36.36,0,0,0,.26.1l.21,0a.36.36,0,0,0,.24-.14l.17-.2.18.17a.33.33,0,0,0,.26.1l.2,0a.36.36,0,0,0,.24-.13l.16-.18.17.15a.29.29,0,0,0,.23.09h0a2.56,2.56,0,0,0,2-1.63l.11-.24.2.07,10.07-.87.09.17a.26.26,0,0,0,.24.15l1.74-.15a.28.28,0,0,0,.22-.19l.08-.18.73-.07c.21,0,.37-.27.36-.56L183,39.55a.56.56,0,0,0-.14-.38l-.1-.12c-.35.06-.94.12-1,.14s-.09-.33-.09-.33l-2.05.19s-.11.32-.11.36-10.12.85-10.12.85l-.42-.53,13.32-1.19.9-.08c.21,0,.38-.27.36-.56Zm-27.8,5.17-7.41.6.34-.52,7.3-.67Z"/></clipPath><linearGradient id="linear-gradient-2" x1="176.34" y1="38.53" x2="176.04" y2="43.35" gradientUnits="userSpaceOnUse"><stop offset="0" stop-color="#5e6879"/><stop offset="1" stop-color="#3a4659"/></linearGradient><linearGradient id="linear-gradient-3" x1="156.71" y1="32.59" x2="155.72" y2="48.48" xlink:href="#linear-gradient-2"/><clipPath id="clip-path-3"><path class="cls-1" d="M124,45.34l-1.83-.75L104.9,49.3l-.44,1.21s2.52,6.57,2.52,9c0,0-.07-4.83-.47-7.72a1.67,1.67,0,0,1,.82-1.81c3.39-1.27,13.59-5,15.5-4.05,2.32,1.12,3.07-.37,7.09-3.11l-1-.43A12.05,12.05,0,0,1,124,45.34Z"/></clipPath><clipPath id="clip-path-4"><path class="cls-1" d="M107,59.49c2-1.58,12-10.52,15.91-9.34a1.35,1.35,0,0,0,1.42-.47c1.41-1.61,4.63-4.9,7.4-4.87a3.91,3.91,0,0,1,.56,2.2,8.07,8.07,0,0,0-6.77,5.21s-.82,3.64-2.54,1.07c0,0-.52-2.2-6.33,2.64l-8.71,5.77S107,62.91,107,59.49Z"/></clipPath></defs><title>btn-weapon</title><path class="cls-2" d="M57.23,31.71a2.67,2.67,0,0,0,1.2.6,1.36,1.36,0,0,1,1,.67,6.91,6.91,0,0,0,1.53,1.38,1.13,1.13,0,0,1,.43.41,2.79,2.79,0,0,0,.45.53,3.4,3.4,0,0,1,.71,1,5.43,5.43,0,0,0,1,1.46,4.37,4.37,0,0,1,.92,1.46c.15.39.21.5.36.62a.87.87,0,0,1,.33.67.7.7,0,0,0,.22.61.46.46,0,0,1,.15.33.89.89,0,0,0,.12.36,3.43,3.43,0,0,1,.35.92l.31,1.11a1.36,1.36,0,0,1,0,.6,1.53,1.53,0,0,0,0,.75,4.08,4.08,0,0,1,.16,1.14,2.9,2.9,0,0,0,.16.87c.2.56.4.72,1,.72.35,0,.38,0,.6-.27l.22-.29,0-1a16.41,16.41,0,0,0-.17-1.71,3.64,3.64,0,0,0-.2-1,2.21,2.21,0,0,1-.22-.89c0-.34-.1-.73-.13-.85s-.37-1-.71-1.9A18.1,18.1,0,0,1,66,38a1.36,1.36,0,0,0-.39-.65,6.22,6.22,0,0,1-.94-1.47c0-.3-.21-.57-.78-1.12-.78-.68-1.37-1.13-1.48-1.26s-.18-.3-.33-.5a3.65,3.65,0,0,0-.87-.91c-.34-.32-.78-.64-1-.85a2.33,2.33,0,0,0-.73-.54l-.87-.5a18.62,18.62,0,0,0-1.82-1,17.48,17.48,0,0,0-2.15-.91,1.36,1.36,0,0,1-.53-.31c-.2-.2-.3-.25-1.22-.45s-1-.22-1.21-.16-.56,0-2.36-.26A14.43,14.43,0,0,0,47.6,27a4.34,4.34,0,0,1-.85,0,2.07,2.07,0,0,0-.74.05,3.27,3.27,0,0,1-.85.06,4.25,4.25,0,0,0-.71.05,15,15,0,0,0-1.88.41c-1.35.35-1.66.5-2,.52a1.66,1.66,0,0,0-.63.18c-.15.08-.46.2-.68.32l-.82.47c-.35.21-.46.25-.62.24a1,1,0,0,0-.77.42,6.22,6.22,0,0,1-.61.43l-.54.34-.58.44-1.13.83a6.63,6.63,0,0,1-.66.52,3.17,3.17,0,0,0-.92.88c-.36.49-.75,1-1.12,1.37a9.91,9.91,0,0,1-.91,1.06,5.55,5.55,0,0,0-.47.49l-.38.58a4.92,4.92,0,0,0-.5,1,4.79,4.79,0,0,1-.38,1,19,19,0,0,0-1.44,3.8c-.11.46-.26.91-.34,1.34l-.2,1.22c-.15.73-.14,1.28-.18,1.46a9.74,9.74,0,0,0,0,1.33,15.93,15.93,0,0,1,.09,1.93,22.56,22.56,0,0,0,.3,2.37c.17.61.35,1.42.42,1.81s.24,1,.33,1.37a3.75,3.75,0,0,0,.31.89l.44.62a2.39,2.39,0,0,1,.39.73,19.47,19.47,0,0,0,1.31,2.23,22.6,22.6,0,0,0,3.82,4.21,23,23,0,0,0,5.32,3.26l1.27.46a6.64,6.64,0,0,0,1.13.36c.71.18,1.28.34,1.67.41.23,0,1.1.19,2,.35s1.72.12,1.94.11l1.17-.07,1.06-.06c.39,0,.8-.12,1.22-.17s.85-.11,1.25-.22l1.16-.29a11.89,11.89,0,0,0,1.52-.49,6.6,6.6,0,0,1,1.33-.4A3.65,3.65,0,0,0,57,67c.21-.08.46-.18.76-.32l1-.6c.66-.35,1.45-.91,1.82-1.14a9.08,9.08,0,0,0,.78-.55c.28-.25.6-.55,1-.92a15.71,15.71,0,0,0,1.22-1.31A17.69,17.69,0,0,0,65,60.47,12.61,12.61,0,0,0,66,58.8l.4-.68c.09-.2.16-.36.2-.47a3.06,3.06,0,0,1,.59-1.08,2.89,2.89,0,0,0,.57-1.18,42.87,42.87,0,0,0,1.42-5.8,1.53,1.53,0,0,0,.06-1,.29.29,0,0,1-.08-.18.73.73,0,0,0-.21-.3c-.19-.18-.26-.2-.67-.2s-.47,0-.65.2a1.47,1.47,0,0,0-.45.86,2,2,0,0,1-.09.55,3.08,3.08,0,0,0-.09.85A7.72,7.72,0,0,1,66.44,53a4,4,0,0,0-.26.89,4,4,0,0,1-.53,1.72c-.2.31-.44.65-.53.76s-.37.73-.75,1.3c-.57.92-.64,1.1-.66,1.25s0,.17-.23.45l-.43.6-.34.44-.5.54c-.32.35-.58.64-.81.86l-.58.5a2.91,2.91,0,0,1-.55.41,5.41,5.41,0,0,0-1.33.93,4.33,4.33,0,0,1-1.79,1.1c-.52.24-1,.38-1.61.67a14,14,0,0,1-2.07.74,22,22,0,0,0-2.19.57c-.61.14-1.1.24-1.52.31a5.6,5.6,0,0,1-1.15,0,4.77,4.77,0,0,0-.55,0h-.48L47,67c-.45,0-1,0-1.63-.13l-1-.16-.57-.09-.58-.15c-.51-.14-1-.24-1.38-.37l-1.07-.39a11,11,0,0,1-1.42-.63,3.91,3.91,0,0,1-1-.62,4.28,4.28,0,0,0-1.46-.84l-.67-.45a9.56,9.56,0,0,1-1.21-.94,17,17,0,0,1-2-2,16.55,16.55,0,0,0-1.36-1.72,1.24,1.24,0,0,1-.43-.69,5.38,5.38,0,0,0-.35-.68c-.18-.4-.42-1-.72-1.61A20.12,20.12,0,0,1,28.7,50.2a14.66,14.66,0,0,1,0-3.21c0-.32.07-.64.1-.94s.09-.59.13-.86A12.31,12.31,0,0,0,29,43.9,3.71,3.71,0,0,1,29.5,42,10,10,0,0,0,30.38,40a2.87,2.87,0,0,1,.53-1,6.66,6.66,0,0,0,.72-1.07l.29-.55.55-.83c.2-.29.38-.59.55-.8l.35-.41.25-.19a10,10,0,0,0,.78-.73,8.38,8.38,0,0,0,.81-.85c.23-.34.33-.4,1-.77a2.47,2.47,0,0,0,1-.74c.3-.33.25-.31,1.46-.82a2.72,2.72,0,0,0,1.15-.66.71.71,0,0,1,.67-.28.83.83,0,0,0,.61-.16,1.84,1.84,0,0,1,.53-.17,1.52,1.52,0,0,0,.71-.25,1.87,1.87,0,0,1,1.22-.36,7.85,7.85,0,0,0,2.1-.29,2.25,2.25,0,0,1,.89,0c.31.05.37.05.51-.05.41-.26.43-.28.66-.11a.59.59,0,0,0,.7.11,1.09,1.09,0,0,1,.86.05,2.73,2.73,0,0,0,1.41.15.57.57,0,0,1,.68.1,1.07,1.07,0,0,0,.87.24,2.56,2.56,0,0,1,1.5.44,2.76,2.76,0,0,0,.52.26c.24.12.6.2,1.1.45a10.41,10.41,0,0,0,1.42.59c.13,0,.17,0,.24.17A1.44,1.44,0,0,0,57.23,31.71Z"/><path class="cls-2" d="M37.13,56.71c-.17,0-.26.2-.23.42s0,.3-.26.32a.67.67,0,0,0-.52.47c0,.11-.07.16-.13.17s-.13.07-.18.15a.77.77,0,0,1-.34.25c-.38.15-.43.2-.47.38a.71.71,0,0,1-.38.47c-.12.07-.15.11-.13.21s-.05.22-.18.19-.2,0-.17.15,0,.09-.06.11-.1,0-.1.08a.85.85,0,0,1-.2.28l-.26.31a.28.28,0,0,1-.21.07.24.24,0,0,0-.23.13,1,1,0,0,1-.27.31.46.46,0,0,0-.13.29c0,.26.08.43.47.82a1.34,1.34,0,0,0,.49.37l.24.11.24-.23a5.19,5.19,0,0,1,.41-.35.49.49,0,0,0,.18-.26c0-.09.06-.13.22-.19a.91.91,0,0,0,.25-.13l.42-.47c.28-.31.41-.43.52-.45s.14,0,.16-.17.27-.42.39-.39.25,0,.33-.27a2.85,2.85,0,0,1,.25-.61l.21,0c.15,0,.21-.06.34-.22a.84.84,0,0,1,.32-.26.24.24,0,0,0,.2-.2,4.25,4.25,0,0,1,.61-.74c.56-.59.58-.61.72-.58s.17,0,.36-.22.2-.27.17-.36,0-.22.48-.57a1.54,1.54,0,0,0,.39-.4.35.35,0,0,1,.19-.19.22.22,0,0,0,.15-.17.26.26,0,0,1,.2-.19.59.59,0,0,0,.2-.11l.4-.45c.29-.33.38-.4.5-.41a.21.21,0,0,0,.18-.1.75.75,0,0,1,.12-.21,1.53,1.53,0,0,0,.16-.25c.07-.12.1-.14.19-.12s.21,0,.21-.17a2.87,2.87,0,0,1,1-1c.1,0,.15-.07.26-.3a1.38,1.38,0,0,1,.71-.69.79.79,0,0,0,.55-.56.43.43,0,0,1,.16-.31l.92-.88c.43-.41.85-.8,1-.86a.93.93,0,0,0,.29-.3,1.72,1.72,0,0,1,.43-.43,3.85,3.85,0,0,0,.56-.49,2,2,0,0,1,.45-.37l.41-.21a.54.54,0,0,0,.22-.18s0-.16.08-.26.08-.18.16-.2,3.47-3.38,4.15-4.11c0,0,.26-.23.47-.39a2.4,2.4,0,0,0,.43-.42,6.6,6.6,0,0,1,.73-.79l.9-.9c.17-.18.24-.22.38-.22s.35-.11.79-.5a5.29,5.29,0,0,1,.52-.4,1.8,1.8,0,0,0,.51-.48,11.93,11.93,0,0,1,.83-.89,9.13,9.13,0,0,0,.67-.74c.12-.19.16-.22.31-.23s.2,0,.34-.21a4,4,0,0,1,1.38-1.19c.16,0,.28-.11.22-.22s0-.09,0-.1a.54.54,0,0,0-.1-.22,1.9,1.9,0,0,0-.43-.52,1.59,1.59,0,0,0-.5-.41c-.23-.11-.45-.15-.49-.09a.37.37,0,0,1-.18.09c-.11,0-.15.07-.2.2s-.3.38-.69.59c-.17.09-.22.15-.22.22a.52.52,0,0,1-.36.49,1.31,1.31,0,0,1-.32.12,1.58,1.58,0,0,0-.39.31c-.26.26-.3.31-.27.41s0,.16-.53.66-.6.54-.7.54a.5.5,0,0,0-.44.33c-.05.21-.2.34-.54.47a1.37,1.37,0,0,0-.51.32,4.35,4.35,0,0,1-.58.48,1.65,1.65,0,0,0-.54.55,1.52,1.52,0,0,1-.63.67A11.74,11.74,0,0,0,53.28,41c-1,1-1.21,1.19-1.36,1.22s-.29.17-.37.45A9.54,9.54,0,0,1,50.35,44c-.3.24-.52.5-.49.57s0,.19-.18.2a16.51,16.51,0,0,0-2.08,1.8,10,10,0,0,1-.85.72,1.46,1.46,0,0,0-.71.79.55.55,0,0,1-.48.47A.83.83,0,0,0,45,49c0,.13-.09.17-.31.26a.73.73,0,0,0-.36.28c-.08.12-.59.81-.65.87l-.12,0A1.06,1.06,0,0,0,43,51c0,.16-.06.18-.31.3s-.27.13-.28.31,0,.18-.44.38a.38.38,0,0,0-.26.39c0,.13-.06.2-.18.16s-.22,0-.19.12-.07.08-.16.11S41,52.9,41,53s-.11.36-.28.34-.39.18-.55.48A.33.33,0,0,1,40,54c-.12,0-.14,0-.11.14.07.27.07.28-.1.22s-.23,0-.22.12,0,.19-.22.21-.37.2-.32.36,0,.22-.16.17-.23,0-.24.21a.43.43,0,0,1-.38.38c-.13,0-.23.09-.49.38s-.32.38-.31.44,0,.08-.08,0A.69.69,0,0,0,37.13,56.71Z"/><path class="cls-3" d="M329.55,38.72a5.9,5.9,0,0,0-1.92.1,3.49,3.49,0,0,1-1.67,0,13.23,13.23,0,0,0-2.95,0,3.46,3.46,0,0,1-.85,0,8.35,8.35,0,0,0-1,0,13.79,13.79,0,0,1-1.7,0,10.88,10.88,0,0,0-2.53-.05,14.8,14.8,0,0,1-2.49.06,3.18,3.18,0,0,0-1,0,2.15,2.15,0,0,1-1.07,0,1.87,1.87,0,0,0-.94,0,1.15,1.15,0,0,1-.52,0,2.44,2.44,0,0,0-.54,0l-1.39,0-1.65,0a4,4,0,0,1-.85-.07,4.35,4.35,0,0,0-1.08-.05c-.81,0-.86,0-1.65,0a6.68,6.68,0,0,0-1.26.09c-.81.13-1,.27-1,.69s0,.3.36.48l.37.19h1.36l2.26,0a9.37,9.37,0,0,0,1.3,0,4.9,4.9,0,0,1,1.21,0c.44,0,.94.07,1.11.06l2.65,0c1.73,0,2.45,0,2.83,0a3.22,3.22,0,0,0,1,0,9.58,9.58,0,0,1,2.27,0,4.26,4.26,0,0,0,1.78,0c1.32-.12,2.3-.2,2.51-.2s.45,0,.77.09a8.16,8.16,0,0,0,1.64.07c.62,0,1.32,0,1.69,0a5.82,5.82,0,0,0,1.18,0c.35,0,1.81-.07,4-.08,3.38,0,3.46,0,3.81.08a5.43,5.43,0,0,0,1.69.08,6.09,6.09,0,0,0,1.57-.11,11.09,11.09,0,0,1,2.37-.07h.19l.2-.24s.19-.29.38-.6c.49-.81,1-1.55,1.27-1.86a4.54,4.54,0,0,1,.69-.83c.11-.1.21-.21.32-.33l.32-.34a3.79,3.79,0,0,1,.8-.75l.72-.53.67-.52.61-.41.35-.24.38-.21.52-.31.44-.21.65-.31a6.18,6.18,0,0,1,.73-.23,5.16,5.16,0,0,0,.79-.24,9.37,9.37,0,0,1,.89-.31c.3-.07.81-.25,1.15-.31a2,2,0,0,1,.84-.11,2.29,2.29,0,0,0,1.1-.1c.31,0,.62-.07.93-.08a5.61,5.61,0,0,1,.82,0l.91,0a7,7,0,0,1,.92.11l.84.14a5.19,5.19,0,0,1,.65.17l.38.13c.35.14.62.16,1.53.46l.55.16.28.09.25.12c.35.15.7.3,1,.46a3.75,3.75,0,0,1,.44.24l.39.26c.25.17.47.32.65.46.4.35.88.75,1.33,1.09a9.59,9.59,0,0,0,1.12.9,5.75,5.75,0,0,1,1,.93,5.17,5.17,0,0,1,.42.51l.72,1c.27.38.52.86.82,1.33a6.18,6.18,0,0,1,.39.77l.39.81c.23.55.41,1.12.6,1.64s.27,1.06.38,1.52c.15.92.24,1.61.26,1.84,0,.48,0,1.19.09,1.69,0,.29,0,.64,0,1,0,.2,0,.42,0,.66l-.13.72a13.37,13.37,0,0,1-.32,1.5,14.34,14.34,0,0,1-.41,1.42c-.14.37-.29.81-.46,1.2a9.42,9.42,0,0,1-.48.93,14.71,14.71,0,0,1-1,1.46l-.2.3-.21.27c-.1.12-.19.24-.28.37s-.29.51-.48.79a4.71,4.71,0,0,1-.69.79,8.25,8.25,0,0,1-.67.65l-.75.67c-.29.25-.65.5-1,.78a16.71,16.71,0,0,1-6.48,2.78,17.75,17.75,0,0,1-4,.28,17.18,17.18,0,0,1-3.7-.58,17,17,0,0,1-4.79-2.21l-.3-.2-.45-.34c-.35-.27-.76-.64-1.16-1-.77-.74-1.46-1.55-1.65-1.75s-.27-.34-.61-.76l-.56-.8c-.21-.32-.41-.69-.65-1.1l-.21-.35h-6.73a9.65,9.65,0,0,1-1.78-.08,24.8,24.8,0,0,0-3.79-.16c-1,0-2.19-.05-2.73-.07-.69,0-1.58,0-2.9,0-1.05,0-3.34,0-5.06,0s-3.6,0-4.16,0a6.34,6.34,0,0,1-1.57,0,8.26,8.26,0,0,0-1.65-.07c-3.46,0-7.06,0-7.55-.1a2.85,2.85,0,0,0-1.3,0,.62.62,0,0,1-.23.07,1,1,0,0,0-.37.17c-.23.16-.25.21-.25.53s0,.36.26.5a2.78,2.78,0,0,0,1.2.31,6.78,6.78,0,0,1,.77.05,5.92,5.92,0,0,0,1.19,0,31.45,31.45,0,0,1,3.76,0,5.65,5.65,0,0,0,1.3,0,10.47,10.47,0,0,1,2.5-.08l1.27.11c.2,0,1.15.05,2.11.05a7.32,7.32,0,0,0,2-.08,18,18,0,0,1,3.51-.07,29.58,29.58,0,0,1,3.67.09,9.47,9.47,0,0,0,2.26.06,15.31,15.31,0,0,1,2.95,0c.81.07,1.56.1,2.46.1.71,0,2.11,0,3.12.05,1.48,0,2.08,0,3.22,0s1.82-.06,2.22-.06l-.7-.41c.4.69.6,1.08.84,1.47.07.12.21.34.44.69l.43.56.26.35.32.37a18,18,0,0,0,4.39,3.67c.35.19.67.39,1,.55l.91.43.84.35q.36.15.75.27l.67.22c.21.07.42.11.6.16.37.09.69.19,1,.23,1.12.22,1.53.25,1.8.32a4.52,4.52,0,0,0,1.1.11h.66a5.71,5.71,0,0,0,.77-.09c.13,0,.58,0,1.21-.12l1-.17.59-.1.6-.16c.41-.11.82-.21,1.22-.34l1.14-.42.51-.2.45-.21.69-.33a8.06,8.06,0,0,0,1-.57l.87-.53a7.28,7.28,0,0,0,.8-.67,5.61,5.61,0,0,1,.92-.77c.08-.05.38-.3.87-.73.24-.22.49-.51.8-.83.15-.16.31-.35.48-.52l.47-.61a17.94,17.94,0,0,0,3.39-7.42,20.31,20.31,0,0,0,.35-4.86,8.75,8.75,0,0,0-.12-1.44,8.23,8.23,0,0,0-.23-1.3,8.87,8.87,0,0,0-.63-1.86c-.23-.44-.4-.89-.6-1.32a13.33,13.33,0,0,1-.55-1.36,13.18,13.18,0,0,0-.81-1.53,11.07,11.07,0,0,0-1-1.33q-.62-.65-1.17-1.35a11.57,11.57,0,0,0-1.41-1.39l-.78-.55-.57-.38c-.22-.14-.46-.27-.7-.4a16.87,16.87,0,0,0-2-1l-.4-.25a14.25,14.25,0,0,0-1.52-.62,3,3,0,0,0-.49-.14l-.48-.11a6.84,6.84,0,0,0-.77-.14c-.29-.06-.49-.06-.74-.1l-1.12-.23a5.2,5.2,0,0,0-1.86-.09c-.35,0-.47.08-.77.08h-.62l-1.14,0a5.47,5.47,0,0,0-2,.43,2.61,2.61,0,0,1-1.06.28,2.31,2.31,0,0,0-.93.26,5.64,5.64,0,0,1-.78.29,3.81,3.81,0,0,0-.64.24,2.11,2.11,0,0,0-.4.26c-.27.19-.57.4-.86.57a8.52,8.52,0,0,1-.8.4,9,9,0,0,0-2.58,1.91,10.89,10.89,0,0,1-1,.93c-.35.31-.41.38-.5.59-.28.59-.27.61-.59.81a1.43,1.43,0,0,0-.67.82,4.25,4.25,0,0,1-.7,1.11c-.15.19-.29.39-.42.59l.94-.56a4.31,4.31,0,0,0-1.34.09,1.41,1.41,0,0,1-1,0,2.6,2.6,0,0,0-1.3,0,8.4,8.4,0,0,1-2.24,0,19.55,19.55,0,0,0-2.54-.05,18.13,18.13,0,0,0-2.21.07.56.56,0,0,1-.42,0A2.9,2.9,0,0,0,329.55,38.72Z"/><path class="cls-4" d="M321.63,42.92a5,5,0,0,0-1.76.11,2.84,2.84,0,0,1-1.53,0,11.61,11.61,0,0,0-2.7,0,3.39,3.39,0,0,1-.78,0,5.66,5.66,0,0,0-.92,0,11.42,11.42,0,0,1-1.55,0,9.14,9.14,0,0,0-2.32-.05,11.59,11.59,0,0,1-2.28.05,2.71,2.71,0,0,0-.94,0,1.78,1.78,0,0,1-1,0,1.57,1.57,0,0,0-.86,0,.87.87,0,0,1-.48,0,2,2,0,0,0-.49,0c-.1,0-.68,0-1.29.05l-1.51,0a4.11,4.11,0,0,1-.78-.07,4,4,0,0,0-1-.06c-.75,0-.8,0-1.52,0a7.33,7.33,0,0,0-1.15.09c-.74.13-.95.28-.95.7s0,.29.35.47l.34.19h1.25l2.08,0a9.4,9.4,0,0,0,1.19,0,4.13,4.13,0,0,1,1.11,0c.4,0,.86.06,1,.06l2.42,0a25.06,25.06,0,0,1,2.6,0,2.66,2.66,0,0,0,.89,0,8,8,0,0,1,2.08,0,3.58,3.58,0,0,0,1.63,0c1.21-.13,2.1-.2,2.3-.2a6.57,6.57,0,0,1,.7.09,7.54,7.54,0,0,0,1.5.07c.57,0,1.2,0,1.55,0a3.91,3.91,0,0,0,1.08,0c.31,0,1.65-.06,3.66-.07,3.1,0,3.18,0,3.5.08a4.46,4.46,0,0,0,1.55.07,5,5,0,0,0,1.44-.1,10.88,10.88,0,0,1,2.83,0c.9,0,1.77,0,2.13,0a5.79,5.79,0,0,1,1,0,4.31,4.31,0,0,0,.88,0,4.52,4.52,0,0,1,1,0c.31,0,.69,0,.84,0l2.3,0a16.94,16.94,0,0,1,2.43.05,3.21,3.21,0,0,0,.69,0l.41,0,.12-.34,0-.07a5.88,5.88,0,0,1,.31-.79l.22-.47c.08-.17.19-.35.26-.49a1.45,1.45,0,0,1,.47-.6,2.28,2.28,0,0,0,.63-.75,4.92,4.92,0,0,1,.57-.64l.54-.49c.21-.16.43-.34.66-.49a7.65,7.65,0,0,1,2.3-1.11c.32-.07.55-.17,1.39-.42l.5-.13c.16,0,.34-.06.5-.09a6.37,6.37,0,0,1,1-.08,6.48,6.48,0,0,1,.88,0l.38,0,.33.09.73.17c.25.07.51.16.76.22s.48.16.69.21l.55.14.5.17a3.18,3.18,0,0,1,.61.31l.51.32c.24.16.53.39.87.64a11.43,11.43,0,0,1,1.93,2.24,11.26,11.26,0,0,1,1.28,2.69c.11.41.19.77.26,1a2.91,2.91,0,0,1,.07.59c.07.43.07,1.07.13,1.52,0,.26,0,.57,0,.94a5.4,5.4,0,0,1-.09.58c0,.21-.06.43-.12.65a13.54,13.54,0,0,1-.95,2.53,4.76,4.76,0,0,1-.28.49l-.31.5c-.23.3-.45.57-.59.74a11.47,11.47,0,0,1-1.16,1c-.32.28-.69.54-.81.64l-.26.24c-.11.11-.25.2-.37.3s-.29.22-.42.31a2.19,2.19,0,0,1-.38.17l-.51.24-.57.21-.75.24a10.64,10.64,0,0,1-4.49.21,10.33,10.33,0,0,1-6.67-4.3,11.87,11.87,0,0,1-1.08-2l-.17-.4H340l-2.33,0c-1,0-2.05,0-2.3,0s-2.08,0-4.1,0h-4.81a7.37,7.37,0,0,1-1.63-.09,22.27,22.27,0,0,0-3.47-.16c-.88,0-2,0-2.5-.07s-1.45,0-2.66,0c-1,0-3.06,0-4.63,0s-3.3,0-3.82.05a5.26,5.26,0,0,1-1.43-.05,7,7,0,0,0-1.51-.07c-3.17.05-6.47,0-6.91-.1a2.44,2.44,0,0,0-1.2,0,.48.48,0,0,1-.21.07.91.91,0,0,0-.34.17c-.22.15-.24.2-.24.52s0,.37.25.5a2.3,2.3,0,0,0,1.09.32,5.32,5.32,0,0,1,.69,0,4,4,0,0,0,1.09,0,26.49,26.49,0,0,1,3.45.06,5.92,5.92,0,0,0,1.19,0,8.29,8.29,0,0,1,2.28-.08l1.17.11c.18,0,1,0,1.93,0a6.1,6.1,0,0,0,1.8-.08,15.13,15.13,0,0,1,3.21-.07,28.7,28.7,0,0,1,3.36.08,8.59,8.59,0,0,0,2.09.07,12.19,12.19,0,0,1,2.7,0c.74.07,1.43.09,2.25.09.66,0,1.94,0,2.85.06,1.35.05,1.89,0,2.95,0a27.25,27.25,0,0,1,3.5,0c.5,0,2.79,0,7.15,0h3.37c.17.13-1.57-1.06-.83-.56h0v0l.08.19h0l0-.08,0-.06,0,0v0h0l.84.57-.84-.57a14,14,0,0,0,.85,1.74c.13.21.24.39.35.55l.27.39c.31.44.42.56.5.69a3.69,3.69,0,0,0,.29.4c.11.12.24.26.38.39a3.72,3.72,0,0,0,.48.41,6.27,6.27,0,0,0,.59.42A14.44,14.44,0,0,0,350,58.9a12.64,12.64,0,0,0,3.94.81,10.65,10.65,0,0,0,1.13,0,2.74,2.74,0,0,0,.5,0l.44-.07.67-.12a1.45,1.45,0,0,0,.29-.11,1.33,1.33,0,0,1,.43-.17l.65-.15a10,10,0,0,0,3.17-1.54,11.36,11.36,0,0,0,2.54-2.45A11.53,11.53,0,0,0,366,49.92c0-.24.08-.46.11-.69s0-.45.05-.65,0-.41,0-.6v-.51a6.78,6.78,0,0,0,0-.71,9,9,0,0,0-1.33-4.22c-.28-.39-.54-.76-.78-1.13-.14-.18-.27-.37-.39-.56l-.18-.29-.21-.29a7.24,7.24,0,0,0-2.39-2.15,4.83,4.83,0,0,1-.59-.32c-.2-.13-.46-.28-.88-.52a5.41,5.41,0,0,0-.94-.45,4.3,4.3,0,0,0-.79-.26l-.88-.19c-.21,0-.44-.06-.7-.09a3.71,3.71,0,0,0-.74-.07,12.91,12.91,0,0,0-2.15.06h-.45a3.36,3.36,0,0,0-.63.06,8.82,8.82,0,0,0-.89.2l-.47.14-.43.17a4.07,4.07,0,0,0-.67.31c-.49.29-.64.35-1.59.83a5.57,5.57,0,0,0-.93.58,2.1,2.1,0,0,0-.47.47,6.28,6.28,0,0,1-.49.54c-.11.1-.24.23-.44.4a9.49,9.49,0,0,0-.75.77,4.49,4.49,0,0,0-1,1.62,1.87,1.87,0,0,1-.2.51,2.26,2.26,0,0,1-.26.42,1.36,1.36,0,0,0-.24.38l.95-.66a1.56,1.56,0,0,0-.43,0,3.47,3.47,0,0,1-.72,0,2.59,2.59,0,0,0-1,0,4,4,0,0,1-1.66,0,13.59,13.59,0,0,0-2.78,0,6.53,6.53,0,0,1-1.17,0,1.1,1.1,0,0,0-.67,0c-.55.19-.56.19-.86.06A1.2,1.2,0,0,0,334,43a2.4,2.4,0,0,1-1.13,0,5.06,5.06,0,0,0-1.86,0,1.2,1.2,0,0,1-.91,0,2.15,2.15,0,0,0-1.18,0,7.89,7.89,0,0,1-2.06,0,15,15,0,0,0-2.32-.06,17,17,0,0,0-2,.07.53.53,0,0,1-.39,0A3.07,3.07,0,0,0,321.63,42.92Z"/><path class="cls-3" d="M356.8,42.56a.41.41,0,0,0,.43.16c.2,0,.27,0,.35.21a.89.89,0,0,0,.51.48c.1,0,.15.08.16.13a.4.4,0,0,0,.15.19.75.75,0,0,1,.22.35c.12.38.16.42.3.51a.77.77,0,0,1,.35.48c0,.14.05.18.13.2s.17.13.12.23,0,.19.07.21.07,0,.07.11a.16.16,0,0,0,0,.13.77.77,0,0,1,.15.3l.12.38a.26.26,0,0,1,0,.21.3.3,0,0,0,0,.26.77.77,0,0,1,.07.39.44.44,0,0,0,.11.29c.14.19.29.25.71.25a.65.65,0,0,0,.47-.1l.18-.11v-.39c0-.22,0-.52,0-.66a.78.78,0,0,0-.09-.37c-.07-.08-.08-.14-.08-.34a2,2,0,0,0,0-.35c0-.05-.14-.37-.28-.72a2.73,2.73,0,0,1-.32-.77.28.28,0,0,0-.15-.24,1.07,1.07,0,0,1-.35-.56c0-.16,0-.26-.28-.44a7.06,7.06,0,0,1-.64-.42.85.85,0,0,1-.09-.22.8.8,0,0,0-.31-.37,2.44,2.44,0,0,1-.37-.35.45.45,0,0,0-.27-.2l-.35-.17a4.84,4.84,0,0,0-.69-.35c-.45-.22-.7-.29-.82-.35s-.16-.09-.19-.15-.1-.14-.46-.21-.4-.07-.47,0-.23.05-.91-.08a3.76,3.76,0,0,0-.67,0,.74.74,0,0,1-.33,0,.39.39,0,0,0-.28,0,.58.58,0,0,1-.32,0,.66.66,0,0,0-.28,0,5.65,5.65,0,0,0-.71.17,2.36,2.36,0,0,1-.76.17.37.37,0,0,0-.25,0c-.05,0-.17.09-.25.14l-.3.2a.26.26,0,0,1-.25.08.23.23,0,0,0-.29.15h0a.83.83,0,0,1-.23.19l-.2.13-.22.17-.43.31a2.11,2.11,0,0,1-.27.18c-.12,0-.19.1-.35.35a4.19,4.19,0,0,1-.4.54,2.28,2.28,0,0,1-.38.38l-.21.17c-.05.07-.11.15-.15.22a.82.82,0,0,0-.15.42.92.92,0,0,1-.11.4,6.82,6.82,0,0,0-.56,1.44c-.05.17-.1.35-.13.51s-.06.32-.09.46-.06.49-.08.56a2.18,2.18,0,0,0,0,.51,3,3,0,0,1,0,.73,5.51,5.51,0,0,0,.1.91,4.22,4.22,0,0,1,.14.69,4.86,4.86,0,0,0,.07.55.91.91,0,0,0,.12.35l.21.21a.53.53,0,0,1,.16.28,5.67,5.67,0,0,0,.5.86,8.08,8.08,0,0,0,1.46,1.63A7.79,7.79,0,0,0,352,56c.09,0,.43.09.75.16a3.78,3.78,0,0,0,.75,0l.45,0,.41,0a4.47,4.47,0,0,0,.47-.07,6.14,6.14,0,0,0,.93-.19,3.93,3.93,0,0,0,.58-.19,1,1,0,0,1,.53-.11,1.21,1.21,0,0,0,.38-.06,2.65,2.65,0,0,0,.3-.12,4.39,4.39,0,0,0,.41-.22c.27-.14.59-.35.73-.42a1.73,1.73,0,0,0,.32-.2c.11-.1.24-.22.38-.37s.29-.31.47-.52a6.9,6.9,0,0,0,.53-.68,4,4,0,0,0,.42-.65,2.77,2.77,0,0,0,.22-.46c.09-.27.12-.32.25-.41s.17-.18.26-.45c.35-1,.51-2.14.61-2.28s.11-.37,0-.42-.06-.05-.06-.07-.08-.07-.17-.12a.92.92,0,0,0-.52-.07c-.33,0-.35,0-.5.07s-.35.22-.35.3a.36.36,0,0,1-.06.2.39.39,0,0,0,0,.3,1.62,1.62,0,0,1-.24.93c-.09.17-.11.25-.09.32a.7.7,0,0,1-.15.62,1.81,1.81,0,0,1-.24.24,3.79,3.79,0,0,0-.29.45c-.2.32-.22.39-.2.47s0,.07-.05.18l-.15.21a2.43,2.43,0,0,1-.3.34l-.29.31-.21.17a.48.48,0,0,1-.22.12.75.75,0,0,0-.49.3c-.09.19-.29.29-.64.37a2.54,2.54,0,0,0-.59.19,3.53,3.53,0,0,1-.72.22,2.84,2.84,0,0,0-.76.2,3.21,3.21,0,0,1-.53.15,1.28,1.28,0,0,1-.39,0h-.2a2.31,2.31,0,0,1-.37,0,7.12,7.12,0,0,1-1.31-.18l-.48-.13-.37-.14a2.62,2.62,0,0,1-.48-.22c-.24-.12-.31-.18-.35-.24s-.24-.22-.51-.28a.92.92,0,0,1-.24-.13,3.36,3.36,0,0,1-.43-.31,4.57,4.57,0,0,1-.69-.7,1.94,1.94,0,0,0-.49-.58c-.08,0-.16-.11-.15-.23a8.75,8.75,0,0,1-.76-2.65,4.07,4.07,0,0,1,0-1.1,1.65,1.65,0,0,0,.06-.32,2.5,2.5,0,0,1,.05-.29,1.29,1.29,0,0,0,0-.44.63.63,0,0,1,.17-.64,1.2,1.2,0,0,0,.32-.69c0-.13,0-.18.2-.35a.92.92,0,0,0,.26-.35l.09-.19.17-.3a2.44,2.44,0,0,1,.28-.43l.11,0a1.31,1.31,0,0,0,.28-.24,1.11,1.11,0,0,0,.25-.32c.06-.14.09-.16.35-.26s.26-.11.33-.26.06-.15.5-.26a.44.44,0,0,0,.38-.26.14.14,0,0,1,.16-.12.09.09,0,0,1,.07,0c.08.05.2,0,.22,0s.09,0,.18,0,.18,0,.24-.1a.33.33,0,0,1,.41-.15,1,1,0,0,0,.72-.07.42.42,0,0,1,.31,0c.11,0,.13,0,.17,0s.15-.21.23-.08.12.16.24.07.17-.08.29,0,.39.15.48,0,.17-.1.24,0,.14.16.29.09a.48.48,0,0,1,.46.08c.08.1.19.12.54.27a1.23,1.23,0,0,0,.5.16c.06,0,.07,0,.08.07A.41.41,0,0,0,356.8,42.56Z"/><path class="cls-5" d="M354,45.55c0,.1.11.1.23,0s.17-.07.17.08a.21.21,0,0,0,.19.23h0c.07,0,.09,0,.08.06a.1.1,0,0,0,.07.09.21.21,0,0,1,.08.17c0,.22,0,.23.11.25a.21.21,0,0,1,.18.21c0,.07,0,.08.08.08s.12,0,.06.1-.06.11,0,.1.06,0,0,0,0,0,0,0a.26.26,0,0,1,.09.14l.06.17a.13.13,0,0,1,0,.11.09.09,0,0,0,0,.12.23.23,0,0,1,.05.18.17.17,0,0,0,.09.13,1.3,1.3,0,0,0,.7.12,1.24,1.24,0,0,0,.47-.06l.19-.06v-.59a.27.27,0,0,0-.07-.2c-.06,0-.07-.08,0-.19a.67.67,0,0,0,0-.2c-.05-.13-.11-.27-.17-.4s-.18-.34-.16-.44,0-.1-.08-.13-.25-.24-.21-.32,0-.18-.15-.25a3.79,3.79,0,0,1-.42-.18.77.77,0,0,1,0-.15c0-.1,0-.15-.16-.23a.73.73,0,0,1-.19-.2.16.16,0,0,0-.16-.12q-.3-.12-.6-.27c-.25-.12-.39-.15-.46-.19a.14.14,0,0,1-.09-.12c0-.11-.05-.12-.25-.15s-.24,0-.28,0-.13.07-.51,0a.81.81,0,0,0-.38,0,.28.28,0,0,1-.18,0,.15.15,0,0,0-.16,0,.15.15,0,0,1-.18,0h-.13a2.06,2.06,0,0,0-.39.11c-.29.09-.35.12-.44.08a.12.12,0,0,0-.14,0l-.14.1-.16.13c-.06.07-.09.07-.14,0a.1.1,0,0,0-.17.08,3,3,0,0,1-.77.54c-.07,0-.11,0-.19.2a.94.94,0,0,1-.2.33.6.6,0,0,1-.23.19.43.43,0,0,0-.29.45.33.33,0,0,1,0,.24,4,4,0,0,0-.32.81,7.79,7.79,0,0,0-.19.85.71.71,0,0,0,0,.29.94.94,0,0,1,0,.41,2.19,2.19,0,0,0,0,.51,1.39,1.39,0,0,1,.06.4v.33a.3.3,0,0,0,.05.2l.16.11c.08,0,.11.09.1.15a3,3,0,0,0,.28.49,4.43,4.43,0,0,0,2,1.64,4.37,4.37,0,0,0,.89.27,3.2,3.2,0,0,1,.42.1,1.53,1.53,0,0,0,.43,0l.25,0a3.37,3.37,0,0,0,.5-.06,3.5,3.5,0,0,0,.86-.22.42.42,0,0,1,.32,0,.31.31,0,0,0,.23,0,1.36,1.36,0,0,0,.43-.18c.16-.07.35-.18.44-.22a1,1,0,0,0,.42-.32c.13-.15.39-.46.57-.7a3,3,0,0,0,.24-.38,1.39,1.39,0,0,0,.12-.28c0-.16.06-.18.16-.23s.13-.09.18-.25a8.35,8.35,0,0,1,.4-1.34c.1-.08.11-.21,0-.24s-.07,0-.07,0l-.17-.07a1.83,1.83,0,0,0-.52,0,1.67,1.67,0,0,0-.5,0c-.19,0-.35.11-.33.15s0,.06-.05.09-.05.08,0,.15a.47.47,0,0,1-.14.46c-.07.08-.08.12,0,.15a.22.22,0,0,1,0,.31,0,0,0,0,0,0,0l-.18.09s-.09.11-.16.21-.1.19-.06.25,0,.11-.22.39-.33.27-.39.26-.24,0-.26.13-.12.17-.32.16a.55.55,0,0,0-.31,0,1.05,1.05,0,0,1-.34.08.53.53,0,0,0-.35.1c-.19.11-.32.13-.44.07s-.34,0-.88-.14a2.64,2.64,0,0,1-.4-.12,1.19,1.19,0,0,1-.22-.12c-.11-.06-.14-.09-.15-.14s-.09-.13-.25-.11a.93.93,0,0,1-.34-.18,1.3,1.3,0,0,1-.35-.35c-.09-.16-.2-.27-.25-.26s-.11,0-.07-.11a6,6,0,0,1-.28-1.26,1.25,1.25,0,0,1,0-.51.5.5,0,0,0,0-.49.18.18,0,0,1,0-.25l.08,0a.25.25,0,0,0,.17-.31c0-.07,0-.09.1-.15s.14-.09.15-.15a1.54,1.54,0,0,1,.19-.46h.07a.37.37,0,0,0,.24-.26c0-.09,0-.1.16-.12s.13,0,.14-.13,0-.11.24-.1a.14.14,0,0,0,.16-.16c0-.1,0-.11.11,0s.11.06.1,0,.05,0,.09,0,.09,0,.11-.06.12-.17.18-.09.2.09.35,0a.12.12,0,0,1,.14,0c.05.06.06.06.08,0s.07-.2.11-.07.05.15.11.06.08-.08.13,0,.17.12.22,0,.09-.11.11,0,.05.13.14.05.19-.06.23.07.08.1.23.15.22.07.25,0,.05,0,0,0A.26.26,0,0,0,354,45.55Z"/><path class="cls-6" d="M243.67,57.39a2.75,2.75,0,0,0,.28-1.1,1.8,1.8,0,0,1,.27-.93,6.49,6.49,0,0,0,.5-1.66,2.77,2.77,0,0,1,.11-.48,2.75,2.75,0,0,0,.16-.56c.08-.32.17-.64.28-.95a4.79,4.79,0,0,0,.37-1.43,7.81,7.81,0,0,1,.26-1.43,1.49,1.49,0,0,0,.09-.59,1,1,0,0,1,.11-.61.85.85,0,0,0,.1-.54.45.45,0,0,1,0-.3,1.55,1.55,0,0,0,.06-.31c0-.06,0-.43.1-.81s.11-.81.12-.95a2.42,2.42,0,0,1,.13-.48,2.34,2.34,0,0,0,.14-.58,9.37,9.37,0,0,1,.11-1l0-.37v-.18a1.21,1.21,0,0,0-.05-.42,1,1,0,0,0-.39-.53.61.61,0,0,0-.37-.12.26.26,0,0,0-.28.24v0c0,.19,0,.2.09.37a.22.22,0,0,1,0,.16.13.13,0,0,1,0,.07v.11l-.06.39c-.06.43-.14,1-.19,1.28a6,6,0,0,0-.08.74,2.25,2.25,0,0,1-.11.68c-.06.25-.13.53-.15.63s-.12.77-.23,1.5a12.15,12.15,0,0,1-.34,1.59,1.51,1.51,0,0,0-.11.56,4.66,4.66,0,0,1-.28,1.27,1.9,1.9,0,0,0-.27,1,13.36,13.36,0,0,1-.22,1.44,3,3,0,0,1-.18.41,4.44,4.44,0,0,0-.3.89,7.65,7.65,0,0,1-.31.92,3,3,0,0,0-.2.65,22.39,22.39,0,0,1-.7,2.18c-.66,1.84-.7,1.87-.84,2s-.17.22-.42.87a3.31,3.31,0,0,0-.3.85c0,.18-.08.42-.74,1.62-.25.5-.51,1-.6,1.19a3.1,3.1,0,0,1-.3.57,3.67,3.67,0,0,0-.26.48,2.39,2.39,0,0,1-.32.56c-.11.15-.25.37-.29.44s-.37.64-.74,1.23a6.76,6.76,0,0,1-.86,1.25,1.85,1.85,0,0,0-.3.39c-.06.11-.2.32-.3.47s-.27.41-.37.59-.21.32-.31.38a1.16,1.16,0,0,0-.42.51,17.68,17.68,0,0,1-2.11,2.46,4.26,4.26,0,0,0-.64.7,9,9,0,0,1-.89,1,6.31,6.31,0,0,1-.79.68,8.63,8.63,0,0,0-1.4,1.23,3.59,3.59,0,0,1-.61.56c-.2.18-1.29,1-2.46,1.81l-.86.56-.4.26-.35.17a2.1,2.1,0,0,1-.93.12,3.33,3.33,0,0,1-.82-.23,1.82,1.82,0,0,1-.87-.86,2.33,2.33,0,0,1-.21-.74,2.57,2.57,0,0,1,0-.73,2.06,2.06,0,0,1,.25-.59,1.9,1.9,0,0,1,.35-.4,3.32,3.32,0,0,1,.37-.23c.15-.06.29-.11.43-.18a4.65,4.65,0,0,0,.63-.32l.47-.33a2.26,2.26,0,0,1,.54-.32,3.58,3.58,0,0,0,.5-.28l1.18-.73.78-.5.85-.62c.58-.45,1.23-.89,1.83-1.44a36.69,36.69,0,0,0,5.49-5.72l.93-1.15a13.32,13.32,0,0,0,.83-1.2c0-.07.22-.37.48-.74s.56-.93.9-1.47c.69-1.07,1.29-2.32,1.49-2.67a5.06,5.06,0,0,1,.53-.9,12.6,12.6,0,0,0,1-2c.25-.5.51-1.16.66-1.45s.36-.84.64-1.57.61-1.84.94-2.79.59-2,.67-2.34a3.84,3.84,0,0,1,.28-.87,4.17,4.17,0,0,0,.28-.91l.37-1.47c.12-.47.2-.93.3-1.33a11.59,11.59,0,0,1,.4-1.51,2.16,2.16,0,0,0,.14-.43v0h0l-.33-.05h0l0-.23c0-.22,0-.27-.15-.34a.55.55,0,0,0-.48.12A.83.83,0,0,0,245,42a3,3,0,0,1-.12.43,2.1,2.1,0,0,0-.14.66,13.63,13.63,0,0,1-.49,2.1A2.69,2.69,0,0,0,244,46a4.8,4.8,0,0,1-.3,1.4c-.08.23-.16.46-.26.69s-.22.62-.37,1.15c-.25.83-.29,1-.27,1.1a1,1,0,0,1-.07.39c-.08.27-.24.71-.53,1.53a9.68,9.68,0,0,1-.78,2,4.68,4.68,0,0,0-.52,1.19,5.44,5.44,0,0,1-.23.68c-.12.24-.27.52-.47.86a13.32,13.32,0,0,0-.66,1.24c-.15.37-.56,1.07-.84,1.56-.42.74-.56,1-.88,1.61a14.55,14.55,0,0,1-1.1,1.87c-.1.12-.37.48-.77,1.08-.22.3-.45.67-.77,1.08l-1.1,1.41a20,20,0,0,1-2.94,3.16,6.23,6.23,0,0,0-1,1l-1.4,1.27c-.17.15-.35.3-.53.43l-.58.31-.79.59c-.37.27-.74.48-1,.66a2.61,2.61,0,0,0-.46.34,1.37,1.37,0,0,1-.55.37s-.22.13-.53.3l-1.25.65-.85.44a3,3,0,0,0-1.1.8,3.1,3.1,0,0,0-.6,2.94,3.2,3.2,0,0,0,1.18,1.64,3.29,3.29,0,0,0,1.23.53,3,3,0,0,0,1.92-.21l.36-.2.24-.17a3.37,3.37,0,0,0,.37-.3,6.53,6.53,0,0,1,1.35-.91,7.52,7.52,0,0,0,1.53-1.1,3.82,3.82,0,0,1,.78-.61,5.72,5.72,0,0,0,.86-.68l1-1c.4-.43.8-.84.88-.91l.21-.16a9.9,9.9,0,0,0,1.29-1.38,4,4,0,0,1,.7-.79,2.5,2.5,0,0,0,.66-.8c.16-.31.13-.28.89-1.1a3.17,3.17,0,0,0,.62-.92,1,1,0,0,1,.37-.49,1,1,0,0,0,.32-.43,1.93,1.93,0,0,1,.28-.36,1.7,1.7,0,0,0,.34-.54,2.76,2.76,0,0,1,.54-.92,6.06,6.06,0,0,0,.94-1.51,3,3,0,0,1,.39-.67c.15-.21.17-.25.19-.36,0-.37,0-.37.21-.51a.71.71,0,0,0,.31-.51,1.31,1.31,0,0,1,.33-.64,2.88,2.88,0,0,0,.5-1.08.68.68,0,0,1,.23-.53,1.2,1.2,0,0,0,.32-.68,4.32,4.32,0,0,1,.51-1.21,7.82,7.82,0,0,0,.58-1.37,8.79,8.79,0,0,0,.39-1.23.29.29,0,0,1,.1-.23A1.53,1.53,0,0,0,243.67,57.39Z"/><path class="cls-6" d="M255.14,41h0a.18.18,0,0,1-.14-.22h0a34.67,34.67,0,0,0,.64-10.26,31.65,31.65,0,0,0-1.67-7.87,26.28,26.28,0,0,0-2.18-4.69c-.4-.66-.73-1.13-.95-1.46s-.22-.31-.26-.39a.19.19,0,0,1,.08-.25.19.19,0,0,1,.25.08c0,.06.12.18.23.35s.56.8,1,1.47a25.61,25.61,0,0,1,2.2,4.75,32.37,32.37,0,0,1,1.7,8,35.05,35.05,0,0,1-.65,10.37A.17.17,0,0,1,255.14,41Z"/><path class="cls-6" d="M253.9,41.21h0a.18.18,0,0,1-.14-.22,36,36,0,0,0,.61-10.4,33.55,33.55,0,0,0-1.67-8,26.29,26.29,0,0,0-2.15-4.74c-.39-.68-.73-1.16-.93-1.47a2.84,2.84,0,0,1-.25-.39.18.18,0,0,1,.07-.25h0a.18.18,0,0,1,.24.08c.07.12.15.24.23.35.22.32.55.81,1,1.5A26.07,26.07,0,0,1,253,22.5a33.28,33.28,0,0,1,1.67,8.08,36.63,36.63,0,0,1-.61,10.5A.21.21,0,0,1,253.9,41.21Z"/><path class="cls-6" d="M252.66,41.44h0a.18.18,0,0,1-.15-.21h0a37.59,37.59,0,0,0,.59-10.53,34.92,34.92,0,0,0-1.65-8.09,27.37,27.37,0,0,0-2.12-4.8,14.74,14.74,0,0,0-.92-1.47,3.26,3.26,0,0,1-.24-.4.18.18,0,0,1,.05-.25.17.17,0,0,1,.25.05l0,0c0,.06.12.19.23.37s.54.82.93,1.51a26.42,26.42,0,0,1,2.15,4.87,35.08,35.08,0,0,1,1.66,8.17,37.67,37.67,0,0,1-.59,10.65A.18.18,0,0,1,252.66,41.44Z"/><path class="cls-6" d="M251.43,41.68h0a.19.19,0,0,1-.14-.22,39.74,39.74,0,0,0,.56-10.67,36.93,36.93,0,0,0-1.63-8.19,27.91,27.91,0,0,0-2.09-4.87c-.37-.69-.7-1.18-.91-1.5a3.26,3.26,0,0,1-.24-.4.19.19,0,0,1,.08-.25.19.19,0,0,1,.25.09h0l.22.37c.21.32.53.82.92,1.52a28.62,28.62,0,0,1,2.12,4.93,37.15,37.15,0,0,1,1.64,8.28,39.69,39.69,0,0,1-.56,10.77A.19.19,0,0,1,251.43,41.68Z"/><path class="cls-6" d="M250.19,41.91h0a.19.19,0,0,1-.15-.21,40.72,40.72,0,0,0,.53-10.8,37.36,37.36,0,0,0-1.61-8.31,28.7,28.7,0,0,0-2.06-4.93c-.37-.69-.69-1.19-.89-1.52s-.2-.32-.24-.4a.18.18,0,0,1,.08-.24h0a.17.17,0,0,1,.24.08h0c0,.06.11.2.22.37.21.33.52.84.9,1.54a29.42,29.42,0,0,1,2.09,5,38.09,38.09,0,0,1,1.63,8.39,41.48,41.48,0,0,1-.54,10.9A.18.18,0,0,1,250.19,41.91Z"/><path class="cls-6" d="M249,42.15h0a.2.2,0,0,1-.16-.21h0a43,43,0,0,0,.5-10.93,39.5,39.5,0,0,0-1.6-8.42,28.74,28.74,0,0,0-2-5c-.37-.7-.68-1.21-.88-1.54-.08-.13-.16-.27-.23-.41a.18.18,0,0,1,.33-.15h0l.21.37c.21.33.52.84.9,1.56a30.25,30.25,0,0,1,2.05,5,39.13,39.13,0,0,1,1.61,8.5,42.84,42.84,0,0,1-.5,11A.18.18,0,0,1,249,42.15Z"/><path class="cls-6" d="M247.72,42.38h0a.18.18,0,0,1-.15-.21A44.22,44.22,0,0,0,248,31.09a40.5,40.5,0,0,0-1.58-8.52,29.65,29.65,0,0,0-2-5.05c-.37-.71-.66-1.22-.86-1.55a2.79,2.79,0,0,1-.23-.42.18.18,0,0,1,.09-.24.18.18,0,0,1,.24.1l.21.37c.21.34.51.85.88,1.57a32.17,32.17,0,0,1,2,5.11,41.37,41.37,0,0,1,1.59,8.6,44.93,44.93,0,0,1-.47,11.17A.18.18,0,0,1,247.72,42.38Z"/><path class="cls-6" d="M246.48,42.62h0a.21.21,0,0,1-.15-.22,46.23,46.23,0,0,0,.45-11.21,42.94,42.94,0,0,0-1.57-8.64,32.18,32.18,0,0,0-2-5.1c-.37-.74-.65-1.24-.85-1.58s-.19-.33-.22-.41a.18.18,0,0,1,.09-.24h0a.18.18,0,0,1,.24.09c0,.07.11.2.21.37.2.34.5.87.86,1.59a32.08,32.08,0,0,1,2,5.17,43,43,0,0,1,1.59,8.71,47.51,47.51,0,0,1-.45,11.3A.19.19,0,0,1,246.48,42.62Z"/><path class="cls-6" d="M245.25,42.85h0a.18.18,0,0,1-.15-.21,48.43,48.43,0,0,0,.41-11.35,44.13,44.13,0,0,0-1.55-8.74A32.14,32.14,0,0,0,242,17.38c-.35-.73-.64-1.24-.83-1.59a3,3,0,0,1-.22-.41.19.19,0,0,1,.08-.25.19.19,0,0,1,.25.09v0a4,4,0,0,0,.21.36c.19.37.48.88.84,1.61a33.63,33.63,0,0,1,2,5.23,45.45,45.45,0,0,1,1.56,8.81,48.66,48.66,0,0,1-.42,11.44.18.18,0,0,1-.2.16Z"/><path class="cls-6" d="M244,43.09h0a.2.2,0,0,1-.16-.21,49.55,49.55,0,0,0,.38-11.48,45.91,45.91,0,0,0-1.54-8.86,31.81,31.81,0,0,0-1.91-5.23c-.34-.73-.63-1.26-.81-1.6s-.19-.34-.22-.42a.18.18,0,0,1,.32-.18s0,0,0,0,.1.2.2.37c.19.37.48.88.83,1.63A34,34,0,0,1,243,22.43a47.32,47.32,0,0,1,1.55,8.92,50.5,50.5,0,0,1-.37,11.59A.17.17,0,0,1,244,43.09Z"/><path class="cls-6" d="M242.78,43.33h0a.18.18,0,0,1-.15-.21h0A52.53,52.53,0,0,0,243,31.5a47.68,47.68,0,0,0-1.52-9,34.31,34.31,0,0,0-1.88-5.29c-.34-.74-.62-1.27-.81-1.63-.1-.2-.18-.33-.21-.42a.19.19,0,0,1,.1-.24.19.19,0,0,1,.24.11l.2.38c.19.37.47.89.81,1.65a35,35,0,0,1,1.91,5.34,49.41,49.41,0,0,1,1.53,9,52.63,52.63,0,0,1-.37,11.7A.18.18,0,0,1,242.78,43.33Z"/><path class="cls-6" d="M241.54,43.56h0a.18.18,0,0,1-.16-.2,55.07,55.07,0,0,0,.33-11.76,49.81,49.81,0,0,0-1.52-9.07,36.42,36.42,0,0,0-1.83-5.36c-.33-.73-.61-1.28-.79-1.63s-.18-.35-.21-.43a.19.19,0,1,1,.33-.17s0,0,0,0l.19.39c.19.36.47.9.81,1.66a36.63,36.63,0,0,1,1.86,5.4,51.23,51.23,0,0,1,1.52,9.12,55.15,55.15,0,0,1-.34,11.84A.18.18,0,0,1,241.54,43.56Z"/><path class="cls-6" d="M240.31,43.8h0a.2.2,0,0,1-.16-.21,57,57,0,0,0,.31-11.89,53.73,53.73,0,0,0-1.49-9.18,38.21,38.21,0,0,0-1.82-5.41c-.33-.76-.6-1.3-.78-1.66l-.21-.43a.19.19,0,0,1,.11-.23.18.18,0,0,1,.24.1h0a2.93,2.93,0,0,0,.19.4c.18.37.45.91.78,1.68a37.28,37.28,0,0,1,1.84,5.46,53.46,53.46,0,0,1,1.5,9.24,57,57,0,0,1-.31,12A.18.18,0,0,1,240.31,43.8Z"/><path class="cls-6" d="M239.07,44h0a.18.18,0,0,1-.16-.2h0a59.72,59.72,0,0,0,.28-12,54.12,54.12,0,0,0-1.47-9.29,39.28,39.28,0,0,0-1.79-5.47c-.32-.76-.58-1.31-.76-1.67S235,15,235,15a.19.19,0,0,1,.11-.24.19.19,0,0,1,.24.11,4.15,4.15,0,0,0,.18.4c.18.37.44.92.77,1.69a39.45,39.45,0,0,1,1.81,5.51,55.8,55.8,0,0,1,1.49,9.36,60.32,60.32,0,0,1-.28,12.09A.19.19,0,0,1,239.07,44Z"/><path class="cls-6" d="M237.83,44.27h0a.2.2,0,0,1-.16-.21,61.77,61.77,0,0,0,.25-12.16,57.45,57.45,0,0,0-1.47-9.4A38.66,38.66,0,0,0,234.66,17c-.31-.78-.57-1.33-.73-1.69l-.2-.44a.18.18,0,0,1,.14-.22.18.18,0,0,1,.21.1c0,.07.09.21.18.4.18.37.44.93.74,1.71a40.67,40.67,0,0,1,1.78,5.58,58.17,58.17,0,0,1,1.47,9.46A63.39,63.39,0,0,1,238,44.11.19.19,0,0,1,237.83,44.27Z"/><path class="cls-6" d="M236.6,44.5h0a.17.17,0,0,1-.16-.2h0a65.65,65.65,0,0,0,.22-12.3,61.2,61.2,0,0,0-1.45-9.51,42,42,0,0,0-1.73-5.59c-.31-.78-.57-1.34-.74-1.71-.09-.21-.16-.36-.19-.44a.19.19,0,0,1,.11-.23h0a.19.19,0,0,1,.23.11c0,.08.09.21.18.41.17.37.43.93.73,1.73a42.32,42.32,0,0,1,1.75,5.64A61.43,61.43,0,0,1,237,32a66.37,66.37,0,0,1-.23,12.37A.18.18,0,0,1,236.6,44.5Z"/><path class="cls-6" d="M235.36,44.74h0a.18.18,0,0,1-.16-.2,69,69,0,0,0,.2-12.44,63.83,63.83,0,0,0-1.45-9.62,44.75,44.75,0,0,0-1.7-5.65c-.3-.79-.55-1.35-.72-1.72-.1-.22-.16-.37-.19-.45a.18.18,0,0,1,.12-.23.19.19,0,0,1,.23.11l.18.42c.16.37.42.94.73,1.74a43.49,43.49,0,0,1,1.72,5.7,63.2,63.2,0,0,1,1.44,9.67,68.57,68.57,0,0,1-.19,12.49A.19.19,0,0,1,235.36,44.74Z"/><path class="cls-6" d="M235.36,44.74a.19.19,0,0,1,0-.37l19.77-3.76a.18.18,0,0,1,.22.14h0a.18.18,0,0,1-.15.21L235.4,44.73Z"/><path class="cls-6" d="M235.63,42.72a.17.17,0,0,1-.18-.15.19.19,0,0,1,.15-.21l19.74-3.46a.18.18,0,0,1,.21.15.19.19,0,0,1-.15.22l-19.74,3.44Z"/><path class="cls-6" d="M235.83,40.74a.18.18,0,0,1-.18-.16.18.18,0,0,1,.15-.21h0l19.7-3.12a.18.18,0,0,1,.21.16.18.18,0,0,1-.15.21h0l-19.7,3.12Z"/><path class="cls-6" d="M236,38.78a.17.17,0,0,1-.18-.15.17.17,0,0,1,.15-.21h0l19.67-2.8a.19.19,0,0,1,.21.15h0a.18.18,0,0,1-.16.21h0L236,38.78Z"/><path class="cls-6" d="M236,36.87a.18.18,0,0,1-.18-.17.18.18,0,0,1,.16-.2L255.62,34a.18.18,0,0,1,.2.16.18.18,0,0,1-.15.2h0L236,36.87Z"/><path class="cls-6" d="M236,35a.19.19,0,0,1-.18-.16.18.18,0,0,1,.16-.2h0l19.61-2.15a.18.18,0,0,1,.2.16.17.17,0,0,1-.16.2L236.05,35Z"/><path class="cls-6" d="M236,33.17a.19.19,0,0,1-.19-.17.19.19,0,0,1,.17-.2h0L255.49,31a.18.18,0,0,1,.2.16.19.19,0,0,1-.17.2L236,33.17Z"/><path class="cls-6" d="M235.81,31.19a.19.19,0,0,1-.18-.17.2.2,0,0,1,.17-.2l19.52-1.5a.19.19,0,0,1,.2.17.17.17,0,0,1-.17.19h0l-19.52,1.5Z"/><path class="cls-6" d="M235.6,29.09a.18.18,0,1,1,0-.36l19.48-1.18a.18.18,0,0,1,.2.15v0a.18.18,0,0,1-.17.19h0l-19.48,1.18Z"/><path class="cls-6" d="M235.32,27.15a.19.19,0,0,1-.18-.19.18.18,0,0,1,.18-.18l19.47-.86a.17.17,0,0,1,.19.16v0a.18.18,0,0,1-.17.19h0l-19.48.86Z"/><path class="cls-6" d="M235,25.31a.18.18,0,0,1-.18-.18h0a.19.19,0,0,1,.17-.19l19.42-.53h0a.18.18,0,0,1,.18.18.18.18,0,0,1-.18.19l-19.4.53Z"/><path class="cls-6" d="M234.64,23.6a.19.19,0,0,1-.18-.19.18.18,0,0,1,.18-.18L254,23a.19.19,0,0,1,.18.19.18.18,0,0,1-.18.18l-19.37.22Z"/><path class="cls-6" d="M253.5,21.81h0l-19.34-.11a.18.18,0,0,1-.18-.18.19.19,0,0,1,.18-.19l19.34.12a.18.18,0,1,1,0,.36Z"/><path class="cls-6" d="M252.84,20.11h0l-19.3-.43a.18.18,0,0,1-.18-.19h0a.16.16,0,0,1,.16-.18h0l19.31.44a.19.19,0,0,1,.18.19h0a.18.18,0,0,1-.18.17Z"/><path class="cls-6" d="M252.2,18.75h0L232.93,18a.17.17,0,0,1-.17-.19h0a.19.19,0,0,1,.19-.17l19.26.76a.18.18,0,1,1,0,.36Z"/><path class="cls-6" d="M251.43,17.34h0l-19.23-1.1a.18.18,0,0,1-.17-.19h0a.17.17,0,0,1,.17-.18h0L251.45,17a.18.18,0,0,1,.18.18.19.19,0,0,1-.18.19Z"/><path class="cls-6" d="M250.7,16.19h0l-19.19-1.4a.19.19,0,0,1-.17-.2.18.18,0,0,1,.19-.17h0l19.2,1.41a.18.18,0,0,1,0,.36Z"/><path class="cls-7" d="M251.12,18.49c-.65-1.12-1.15-1.77-1.24-1.95l-18.94-1.28c.07.22.44,1,.93,2.31a48.68,48.68,0,0,1,1.75,5.9A60.46,60.46,0,0,1,235,33a54.1,54.1,0,0,1-.36,11.52l19.51-3.69a27.94,27.94,0,0,0,.86-9.59,31,31,0,0,0-1.65-7.84A29,29,0,0,0,251.12,18.49Zm1,4.93a32,32,0,0,1,1.65,8,29.38,29.38,0,0,1-.45,8.05l-16.55,2.89a66.35,66.35,0,0,0,0-10.36,59.42,59.42,0,0,0-1.47-9.55,39.56,39.56,0,0,0-1.74-5.61l0-.08,15.8.81h0c.16.25.33.54.52.87A29.84,29.84,0,0,1,252.14,23.42Z"/><polygon class="cls-8" points="235.36 44.55 234.66 44.56 254.18 40.87 255.14 40.79 235.36 44.55"/><path class="cls-9" d="M231.51,14.6c.07.22.42.92.9,2.17a43,43,0,0,1,1.71,5.67,62.77,62.77,0,0,1,1.44,9.65,68.25,68.25,0,0,1-.2,12.46h-.7A53.45,53.45,0,0,0,235,33a61.82,61.82,0,0,0-1.42-9.55,49.37,49.37,0,0,0-1.75-5.91c-.49-1.32-.86-2.08-.93-2.3Z"/><path class="cls-10" d="M251.91,17.84c-.64-1.05-1.11-1.65-1.21-1.84l-19.19-1.4c.07.22.42.91.9,2.16a43,43,0,0,1,1.71,5.67,63,63,0,0,1,1.44,9.65,68.36,68.36,0,0,1-.2,12.47l19.78-3.77a35,35,0,0,0,.64-10.31,32.51,32.51,0,0,0-1.68-7.92A26.18,26.18,0,0,0,251.91,17.84Zm.23,5.58a32,32,0,0,1,1.65,8,29.38,29.38,0,0,1-.45,8.05l-16.55,2.89a66.35,66.35,0,0,0,0-10.36,59.42,59.42,0,0,0-1.47-9.55,39.56,39.56,0,0,0-1.74-5.61l0-.08,15.8.81h0c.16.25.33.54.52.87A29.84,29.84,0,0,1,252.14,23.42Z"/><path class="cls-9" d="M250.69,17.77c-.15-.25-.29-.48-.42-.68l-.88.47c.16.25.34.54.52.87a28.58,28.58,0,0,1,2.23,5,32,32,0,0,1,1.65,8,29.38,29.38,0,0,1-.45,8.05l.87-.15a36.45,36.45,0,0,0,.3-8.73,33.37,33.37,0,0,0-1.66-8A27,27,0,0,0,250.69,17.77Z"/><line class="cls-1" x1="249.39" y1="17.56" x2="250.27" y2="17.09"/><path class="cls-1" d="M253.34,39.45a29.38,29.38,0,0,0,.45-8.05,32,32,0,0,0-1.65-8,28.58,28.58,0,0,0-2.23-5c-.18-.33-.36-.62-.52-.87h0l-15.79-.8,0,.07a42.46,42.46,0,0,1,1.74,5.62A61.37,61.37,0,0,1,236.84,32a66.23,66.23,0,0,1,0,10.35Z"/><path class="cls-11" d="M233.6,16.76l15.79.8h0l.88-.47h0l-16.92-1c.07.19.16.39.25.61Z"/><polygon class="cls-12" points="254.21 39.3 253.38 39.27 236.81 42.13 236.79 42.34 254.21 39.3"/><g class="cls-13"><polygon class="cls-14" points="233.66 16.76 233.68 42.34 233.6 42.34 233.6 16.76 233.66 16.76"/><rect class="cls-15" x="233.67" y="16.76" width="0.46" height="25.58"/><rect class="cls-16" x="234.12" y="16.76" width="0.46" height="25.58"/><rect class="cls-17" x="234.58" y="16.76" width="0.46" height="25.58"/><rect class="cls-18" x="235.03" y="16.76" width="0.46" height="25.58"/><rect class="cls-19" x="235.49" y="16.76" width="0.46" height="25.58"/><rect class="cls-20" x="235.94" y="16.76" width="0.46" height="25.58"/><rect class="cls-21" x="236.39" y="16.76" width="0.46" height="25.58"/><rect class="cls-22" x="236.85" y="16.76" width="0.46" height="25.58"/><rect class="cls-23" x="237.3" y="16.76" width="0.46" height="25.58"/><rect class="cls-24" x="237.75" y="16.76" width="0.46" height="25.58"/><rect class="cls-25" x="238.21" y="16.76" width="0.46" height="25.58"/><rect class="cls-26" x="238.66" y="16.76" width="0.46" height="25.58"/><rect class="cls-27" x="239.12" y="16.76" width="0.46" height="25.58"/><rect class="cls-28" x="239.57" y="16.76" width="0.46" height="25.58"/><rect class="cls-29" x="240.02" y="16.76" width="0.46" height="25.58"/><rect class="cls-30" x="240.48" y="16.76" width="0.46" height="25.58"/><rect class="cls-31" x="240.93" y="16.76" width="0.46" height="25.58"/><rect class="cls-32" x="241.39" y="16.76" width="0.46" height="25.58"/><rect class="cls-33" x="241.84" y="16.76" width="0.46" height="25.58"/><rect class="cls-34" x="242.29" y="16.76" width="0.46" height="25.58"/><rect class="cls-35" x="242.74" y="16.76" width="0.46" height="25.58"/><rect class="cls-36" x="243.2" y="16.76" width="0.46" height="25.58"/><rect class="cls-37" x="243.66" y="16.76" width="0.46" height="25.58"/><rect class="cls-38" x="244.11" y="16.76" width="0.46" height="25.58"/><rect class="cls-39" x="244.56" y="16.76" width="0.46" height="25.58"/><rect class="cls-40" x="245.01" y="16.76" width="0.46" height="25.58"/><rect class="cls-41" x="245.47" y="16.76" width="0.46" height="25.58"/><rect class="cls-42" x="245.92" y="16.76" width="0.46" height="25.58"/><rect class="cls-43" x="246.38" y="16.76" width="0.46" height="25.58"/><rect class="cls-44" x="246.83" y="16.76" width="0.46" height="25.58"/><rect class="cls-45" x="247.28" y="16.76" width="0.46" height="25.58"/><rect class="cls-46" x="247.74" y="16.76" width="0.46" height="25.58"/><rect class="cls-47" x="248.19" y="16.76" width="0.46" height="25.58"/><rect class="cls-48" x="248.65" y="16.76" width="0.46" height="25.58"/><rect class="cls-49" x="249.1" y="16.76" width="0.46" height="25.58"/><rect class="cls-50" x="249.55" y="16.76" width="0.46" height="25.58"/><rect class="cls-51" x="250.01" y="16.76" width="0.46" height="25.58"/><rect class="cls-52" x="250.46" y="16.76" width="0.46" height="25.58"/><rect class="cls-53" x="250.91" y="16.76" width="0.46" height="25.58"/><rect class="cls-54" x="251.37" y="16.76" width="0.46" height="25.58"/><rect class="cls-55" x="251.82" y="16.76" width="0.46" height="25.58"/><rect class="cls-56" x="252.28" y="16.76" width="0.46" height="25.58"/><rect class="cls-57" x="252.73" y="16.76" width="0.46" height="25.58"/><rect class="cls-58" x="253.18" y="16.76" width="0.46" height="25.58"/><polygon class="cls-59" points="253.64 42.34 253.63 16.76 253.99 16.76 253.99 42.34 253.64 42.34"/><polygon class="cls-60" points="230.94 15.97 230.95 44.56 230.94 44.56 230.94 15.97"/><polygon class="cls-60" points="231.4 14.6 231.41 44.56 230.95 44.56 230.94 15.97 230.94 14.6 231.4 14.6"/><rect class="cls-61" x="231.4" y="14.6" width="0.46" height="29.96"/><rect class="cls-62" x="231.85" y="14.6" width="0.46" height="29.96"/><rect class="cls-63" x="232.31" y="14.6" width="0.46" height="29.96"/><rect class="cls-64" x="232.76" y="14.6" width="0.46" height="29.96"/><rect class="cls-14" x="233.22" y="14.6" width="0.46" height="29.96"/><rect class="cls-15" x="233.67" y="14.6" width="0.46" height="29.96"/><rect class="cls-16" x="234.12" y="14.6" width="0.46" height="29.96"/><rect class="cls-17" x="234.58" y="14.6" width="0.46" height="29.96"/><rect class="cls-18" x="235.03" y="14.6" width="0.46" height="29.96"/><rect class="cls-19" x="235.49" y="14.6" width="0.46" height="29.96"/><rect class="cls-20" x="235.94" y="14.6" width="0.46" height="29.96"/><rect class="cls-21" x="236.39" y="14.6" width="0.46" height="29.96"/><rect class="cls-22" x="236.85" y="14.6" width="0.46" height="29.96"/><rect class="cls-23" x="237.3" y="14.6" width="0.46" height="29.96"/><rect class="cls-24" x="237.75" y="14.6" width="0.46" height="29.96"/><rect class="cls-25" x="238.21" y="14.6" width="0.46" height="29.96"/><rect class="cls-26" x="238.66" y="14.6" width="0.46" height="29.96"/><rect class="cls-27" x="239.12" y="14.6" width="0.46" height="29.96"/><rect class="cls-28" x="239.57" y="14.6" width="0.46" height="29.96"/><rect class="cls-29" x="240.02" y="14.6" width="0.46" height="29.96"/><rect class="cls-30" x="240.48" y="14.6" width="0.46" height="29.96"/><rect class="cls-31" x="240.93" y="14.6" width="0.46" height="29.96"/><rect class="cls-32" x="241.39" y="14.6" width="0.46" height="29.96"/><rect class="cls-33" x="241.84" y="14.6" width="0.46" height="29.96"/><rect class="cls-34" x="242.29" y="14.6" width="0.46" height="29.96"/><rect class="cls-35" x="242.74" y="14.6" width="0.46" height="29.96"/><rect class="cls-36" x="243.2" y="14.6" width="0.46" height="29.96"/><rect class="cls-37" x="243.66" y="14.6" width="0.46" height="29.96"/><rect class="cls-38" x="244.11" y="14.6" width="0.46" height="29.96"/><rect class="cls-39" x="244.56" y="14.6" width="0.46" height="29.96"/><rect class="cls-40" x="245.01" y="14.6" width="0.46" height="29.96"/><rect class="cls-41" x="245.47" y="14.6" width="0.46" height="29.96"/><rect class="cls-42" x="245.92" y="14.6" width="0.46" height="29.96"/><rect class="cls-43" x="246.38" y="14.6" width="0.46" height="29.96"/><rect class="cls-44" x="246.83" y="14.6" width="0.46" height="29.96"/><rect class="cls-45" x="247.28" y="14.6" width="0.46" height="29.96"/><rect class="cls-46" x="247.74" y="14.6" width="0.46" height="29.96"/><rect class="cls-47" x="248.19" y="14.6" width="0.46" height="29.96"/><rect class="cls-48" x="248.65" y="14.6" width="0.46" height="29.96"/><rect class="cls-49" x="249.1" y="14.6" width="0.46" height="29.96"/><rect class="cls-50" x="249.55" y="14.6" width="0.46" height="29.96"/><rect class="cls-51" x="250.01" y="14.6" width="0.46" height="29.96"/><rect class="cls-52" x="250.46" y="14.6" width="0.46" height="29.96"/><rect class="cls-53" x="250.91" y="14.6" width="0.46" height="29.96"/><rect class="cls-54" x="251.37" y="14.6" width="0.46" height="29.96"/><rect class="cls-55" x="251.82" y="14.6" width="0.46" height="29.96"/><rect class="cls-56" x="252.28" y="14.6" width="0.46" height="29.96"/><rect class="cls-57" x="252.73" y="14.6" width="0.46" height="29.96"/><rect class="cls-58" x="253.18" y="14.6" width="0.46" height="29.96"/><rect class="cls-59" x="253.64" y="14.6" width="0.46" height="29.96"/><rect class="cls-65" x="254.09" y="14.6" width="0.46" height="29.96"/><rect class="cls-66" x="254.55" y="14.6" width="0.46" height="29.96"/><rect class="cls-67" x="255" y="14.6" width="0.46" height="29.96"/><rect class="cls-68" x="255.45" y="14.6" width="0.46" height="29.96"/><polygon class="cls-68" points="255.91 44.56 255.9 14.6 256.05 14.6 256.05 44.56 255.91 44.56"/></g><path class="cls-68" d="M246.05,15.33c.8.36.88,1.3,0,1.53l4.16.23s2.43,2.94,4,11.68c0,0,.77,7.34-.1,10.53l-17.42,3a42.88,42.88,0,0,0,0-11.09.91.91,0,0,1-1.26.11s.65,8.1-.14,13.19l.4.35,19.57-3.69s1.83-5.49.42-14.29c0,0-2.2-9-4.69-11.18Z"/><path class="cls-69" d="M254.41,29.56c.44-.43,1.68-.73,1.47-1.83,0,0,1.13,10.76-.54,13.49l-17.9,3.38s3.67-1.69,2.94-2.87l13.85-2.42S255,31.42,254.41,29.56Z"/><path class="cls-70" d="M234.43,28.14c-.12-4.74-2.7-10.51-2-11.42-.19-.65-.51-1.17-1-2.46l-.81,1.07S234.25,25.54,234.43,28.14Z"/><polygon class="cls-69" points="250.12 17.08 249.39 17.56 233.63 16.83 233.34 16.14 250.12 17.08"/><path class="cls-60" d="M253.37,39.27a28.34,28.34,0,0,0-.05-11.44s-2.25-8.16-3.93-10.28l.88-.47a27.08,27.08,0,0,1,3.78,10.05,43.08,43.08,0,0,1,.16,12.16Z"/><path class="cls-68" d="M254.58,31.43c-.13-.88-.23,5.17-.86,5.77l-.35,2.08.84,0S254.89,33.68,254.58,31.43Z"/><path class="cls-70" d="M250.16,18.76c.19-.29,2.17,2.64,3.41,6.58,0,0-1.07-5.33-3.3-8.25l-.88.47A2.82,2.82,0,0,1,250.16,18.76Z"/><path class="cls-6" d="M235.36,44.74h0a.18.18,0,0,1-.16-.2,69,69,0,0,0,.2-12.44,63.83,63.83,0,0,0-1.45-9.62,44.75,44.75,0,0,0-1.7-5.65c-.31-.79-.56-1.35-.74-1.72l-.18-.45a.18.18,0,0,1,.11-.23.2.2,0,0,1,.24.11,3.27,3.27,0,0,0,.17.42c.17.36.42.94.74,1.74a45.11,45.11,0,0,1,1.73,5.7,63.2,63.2,0,0,1,1.44,9.67,68.57,68.57,0,0,1-.19,12.49A.19.19,0,0,1,235.36,44.74Z"/><path class="cls-6" d="M234.66,44.75a.18.18,0,0,1-.18-.18h0a.19.19,0,0,1,.18-.19h.7a.19.19,0,0,1,.19.18.19.19,0,0,1-.18.19h-.71Z"/><path class="cls-6" d="M250.36,41.28a2.59,2.59,0,0,0-1.08.28,1.62,1.62,0,0,1-.94.2,6.89,6.89,0,0,0-1.69.3,1.6,1.6,0,0,1-.48.11,3.39,3.39,0,0,0-.57.1,8.29,8.29,0,0,1-1,.15,5.49,5.49,0,0,0-1.45.23,6.24,6.24,0,0,1-1.41.31,1.65,1.65,0,0,0-.58.14,1,1,0,0,1-.61.12.89.89,0,0,0-.53.1.51.51,0,0,1-.3.07,1.67,1.67,0,0,0-.31,0,7,7,0,0,1-.79.19l-.94.2a2.7,2.7,0,0,1-.49,0,1.85,1.85,0,0,0-.62.07c-.46.11-.49.12-1,.2a3.23,3.23,0,0,0-.59.16h.12a0,0,0,0,0,0,0,1.14,1.14,0,0,1-.23.3c-.1.1-.21.18-.32.28s-.17.12,0,.25l.21.15h.45l.49-.09L237,45a3.68,3.68,0,0,0,.73-.17,2.78,2.78,0,0,1,.69-.12l.65-.07,1.5-.31a14.42,14.42,0,0,1,1.62-.28,1.36,1.36,0,0,0,.56-.11,4.74,4.74,0,0,1,1.29-.24,2,2,0,0,0,1-.17c.74-.23,1.28-.4,1.41-.42l.45,0a3.82,3.82,0,0,0,.95-.13c.32-.07.64-.12,1-.16a2.21,2.21,0,0,0,.67-.13c.19-.06,1-.23,2.27-.48a13,13,0,0,1,2.2-.37,3.26,3.26,0,0,0,1-.13,2.11,2.11,0,0,0,.6-.15l.33-.32a1,1,0,0,0,0-.29,7.31,7.31,0,0,1,.28-1.8,10,10,0,0,0,.18-1.34,3.5,3.5,0,0,1,.07-.65,2.19,2.19,0,0,0,0-.57,2.81,2.81,0,0,1,.05-.65,5,5,0,0,0,.07-.54c0-.1,0-.76,0-1.47a10,10,0,0,1,0-1.55,2.09,2.09,0,0,0,0-.5c0-.13-.05-.37-.06-.57s-.06-.51-.09-.71a1,1,0,0,1,0-.51,1.28,1.28,0,0,0-.06-.67c-.05-.11-.15-.84-.27-1.59s-.27-1.5-.28-1.69a3.47,3.47,0,0,0-.23-1,23.59,23.59,0,0,1-.67-2.32,6.07,6.07,0,0,0-.65-1.8,3.85,3.85,0,0,1-.37-.73,24.3,24.3,0,0,0-1.41-2.79c-.29-.49-.58-1-.83-1.33s-.44-.64-.45-.68a.21.21,0,0,0-.21-.18h-.08c-.51,0-.63-.06-.69-.07a8.43,8.43,0,0,0-1-.06c-.34,0-.83,0-1.44-.11s-1.33-.13-1.8-.16-1.11-.09-1.4-.13l-1-.16a5.53,5.53,0,0,0-.7-.07l-.56,0a2.56,2.56,0,0,1-.62,0l-1.14-.1-2.65-.2-6.65-.5a.51.51,0,0,0-.37.16l-.58.68,0,0a.41.41,0,0,0-.07.41l.68,1.64.36.93c.06.15.28.78.45,1.39s.37,1.22.43,1.37.4,1.26.69,2.48.56,2.58.63,2.94a4,4,0,0,1,.13,1,14.25,14.25,0,0,0,.22,2.17c.07.55.12,1.25.14,1.57s.07.9.15,1.66c.07.6.17,1.9.21,2.89s.06,2.06.07,2.39a3,3,0,0,1,0,.9,3.74,3.74,0,0,0-.08.94,22.21,22.21,0,0,1-.41,4.3,2.13,2.13,0,0,0-.1.42v.32a.85.85,0,0,0,0,.23,1.05,1.05,0,0,1,.06.24.75.75,0,0,0,.15.31c.13.15.15.13.33,0a1,1,0,0,0,.3-.37l.24-.33a.46.46,0,0,0,.1-.25,3.12,3.12,0,0,1,.09-.44,2.35,2.35,0,0,0,.08-.7,20.48,20.48,0,0,1,.22-2.2,2.75,2.75,0,0,0,0-.76,6,6,0,0,1,0-1.47c0-.29.08-.63.09-.73a10.11,10.11,0,0,0,0-1.23,3.21,3.21,0,0,0-.08-1.15,13,13,0,0,1-.15-2,19.62,19.62,0,0,1-.11-2.14,4.21,4.21,0,0,0-.1-1.32,7.53,7.53,0,0,1-.19-1.71,9.78,9.78,0,0,0-.16-1.43l-.28-1.8a14.77,14.77,0,0,0-.41-1.84,22.25,22.25,0,0,1-.56-2.17,34.61,34.61,0,0,0-1.37-4.37c-.31-.82-.6-1.47-.74-1.82l0-.11v0h0c.11-.55-.15.73-.12.62h0l.08-.09h0l0,0,0,0,0,0h0c.06-.28-.12.62.13-.63l-.13.63.56-.64,0,0h0l-.55.22h0l.51-.23-.56.23a11.87,11.87,0,0,1,1.35.13,5.42,5.42,0,0,0,1.39.08c.29,0,3.43.17,4.3.26a12.07,12.07,0,0,0,1.8.1,1.39,1.39,0,0,1,.67,0c.18.05,3.14.32,6.59.6l2.66.24.95.11-.63-.42c.06.11.13.22.2.33l.16.21.26.37.36.48a4,4,0,0,1,.79,1.35,11.69,11.69,0,0,0,.78,1.64,3.1,3.1,0,0,1,.37.88c.1.33.21.67.34,1,.07.15.29.69.48,1.23a9,9,0,0,1,.37,1.16s0,.14,0,.25a14,14,0,0,0,.44,1.78,3.1,3.1,0,0,1,.18,1,2.53,2.53,0,0,0,.17,1c.12.34.12.29.14,1.36a3.26,3.26,0,0,0,.15,1.07.91.91,0,0,1,0,.59.92.92,0,0,0,0,.52,1.7,1.7,0,0,1,0,.45,1.26,1.26,0,0,0,0,.61,2.15,2.15,0,0,1,0,1,9.09,9.09,0,0,0-.11,1.73,3,3,0,0,1-.07.73c-.06.25-.07.29,0,.42.1.35.11.36,0,.53a.68.68,0,0,0-.11.57,1.26,1.26,0,0,1-.1.69,2.79,2.79,0,0,0-.18,1.14.66.66,0,0,1-.11.56.7.7,0,0,0-.12.28l.62-.6a1.6,1.6,0,0,0-.42.14,4.26,4.26,0,0,1-1.28.23,9,9,0,0,0-1.47.24,10.78,10.78,0,0,0-1.25.29.29.29,0,0,1-.24,0A1.73,1.73,0,0,0,250.36,41.28Z"/><path class="cls-6" d="M236.79,42.52a.18.18,0,0,1-.18-.18v0a65.84,65.84,0,0,0,0-10.32,61.2,61.2,0,0,0-1.45-9.51,42,42,0,0,0-1.73-5.59c-.1-.25-.2-.48-.28-.69a.18.18,0,0,1,.09-.24h0a.17.17,0,0,1,.23.09h0c.09.21.19.44.29.7a42.32,42.32,0,0,1,1.75,5.64A60.24,60.24,0,0,1,237,32a66.14,66.14,0,0,1,0,10.15l17.19-3a.19.19,0,0,1,.21.15.18.18,0,0,1-.15.21l-17.42,3Z"/><path class="cls-6" d="M253.34,39.64h0a.2.2,0,0,1-.14-.22,29,29,0,0,0,.45-8,32.22,32.22,0,0,0-1.64-8,30,30,0,0,0-2.2-4.95c-.17-.3-.33-.56-.47-.79l-15.7-.8a.19.19,0,0,1,0-.37h0l15.79.81a.18.18,0,0,1,.15.08c.16.26.33.55.52.89a29.68,29.68,0,0,1,2.24,5,32.26,32.26,0,0,1,1.66,8,29.42,29.42,0,0,1-.45,8.11A.2.2,0,0,1,253.34,39.64Z"/><path class="cls-6" d="M234.68,17.55l14.29.73.31.53a28.59,28.59,0,0,1,2.17,4.86,31.94,31.94,0,0,1,1.61,7.79,28.73,28.73,0,0,1-.35,7.35L237.6,41.47a67.22,67.22,0,0,0,0-9.52,60.76,60.76,0,0,0-1.47-9.66,43.46,43.46,0,0,0-1.4-4.73m-1.1-.79h0l0,.08a41,41,0,0,1,1.74,5.62A59.25,59.25,0,0,1,236.83,32a66.23,66.23,0,0,1,0,10.35l16.55-2.89a29.38,29.38,0,0,0,.45-8,32.28,32.28,0,0,0-1.64-8,30.14,30.14,0,0,0-2.23-5c-.2-.34-.37-.63-.53-.88l-15.79-.8Z"/><path class="cls-6" d="M254.21,39.48h0a.19.19,0,0,1-.16-.21h0a36,36,0,0,0,.3-8.68,33.45,33.45,0,0,0-1.67-8,26.29,26.29,0,0,0-2.15-4.74c-.13-.22-.24-.42-.36-.6l-16.84-.95a.19.19,0,0,1-.17-.19.18.18,0,0,1,.19-.17h0l16.93.95a.19.19,0,0,1,.15.08l.41.69A26,26,0,0,1,253,22.49a33.38,33.38,0,0,1,1.67,8.08,36.25,36.25,0,0,1-.3,8.77A.17.17,0,0,1,254.21,39.48Z"/><path class="cls-6" d="M249.39,17.74a.18.18,0,0,1-.18-.19.2.2,0,0,1,.1-.16l.88-.46a.19.19,0,0,1,.25.08.19.19,0,0,1-.08.25l-.88.46Z"/><path class="cls-71" d="M183.5,36.21c0-.29-.2-.52-.41-.5l-.92.08-.07-1.35c0-.16-.1-.28-.22-.27s-.33.21-.36.46c-.1,1.07-.56,1.27-.83,1.29l-32.22,2.79-.09-.09a1,1,0,0,0-.86-.36l-9.63.83a18.15,18.15,0,0,0-6.46,1.83,24.88,24.88,0,0,0-5.56,3.78,2.46,2.46,0,0,1-1.43.65A2.23,2.23,0,0,1,123,45a1.59,1.59,0,0,0-1-.26l-.27.05-16.57,4.39a.88.88,0,0,0-.55.59,1.41,1.41,0,0,0,0,1,37.17,37.17,0,0,1,2.52,10.69.6.6,0,0,0,.19.43.3.3,0,0,0,.36,0l13.56-9a1.24,1.24,0,0,1,.57-.21,1.29,1.29,0,0,1,.94.35l1.09,1a.59.59,0,0,0,.47.17.47.47,0,0,0,.17,0,.9.9,0,0,0,.49-.59c.71-2.24,2.6-6.07,7.28-6.54l.28,0,4.47-.39,10.07-.87a.59.59,0,0,0,.45-.56l0-.31,8.29-.72,0,1c0,.33.22.57.46.55l.58,0a.36.36,0,0,0,.25-.14l.16-.19.18.16a.36.36,0,0,0,.26.1l.21,0a.39.39,0,0,0,.25-.14l.16-.2.18.17a.33.33,0,0,0,.26.1l.2,0a.36.36,0,0,0,.25-.14l.16-.2.18.17a.36.36,0,0,0,.26.1l.21,0a.37.37,0,0,0,.24-.15l.17-.19.18.17a.32.32,0,0,0,.25.09h.21a.4.4,0,0,0,.25-.15l.16-.19.18.16a.36.36,0,0,0,.26.1h.2a.37.37,0,0,0,.25-.15l.17-.19.17.16a.36.36,0,0,0,.26.1l.21,0a.39.39,0,0,0,.25-.14l.16-.19.18.16a.33.33,0,0,0,.26.1l.2,0a.36.36,0,0,0,.25-.14l.16-.19.18.16a.36.36,0,0,0,.26.1l.21,0a.36.36,0,0,0,.24-.14l.17-.2.18.17a.33.33,0,0,0,.26.1l.2,0a.36.36,0,0,0,.24-.13l.16-.18.17.15a.29.29,0,0,0,.23.09h0a2.56,2.56,0,0,0,2-1.63l.11-.24.2.07,10.07-.87.09.17a.26.26,0,0,0,.24.15l1.74-.15a.28.28,0,0,0,.22-.19l.08-.18.73-.07c.21,0,.37-.27.36-.56L183,39.55a.56.56,0,0,0-.14-.38l-.1-.12c-.35.06-.94.12-1,.14s-.09-.33-.09-.33l-2.05.19s-.11.32-.11.36-10.12.85-10.12.85l-.42-.53,13.32-1.19.9-.08c.21,0,.38-.27.36-.56Zm-27.8,5.17-7.41.6.34-.52,7.3-.67Z"/><g class="cls-72"><path class="cls-73" d="M106.31,45.31l-4.88.89-1,.54.27.77a16.81,16.81,0,0,1,2.79-1.25C104.57,45.91,105.44,45.65,106.31,45.31Z"/><path class="cls-73" d="M109.6,44.7l-3.29.61c-.87.34-1.74.6-2.83.95a16.81,16.81,0,0,0-2.79,1.25l.35,1a24,24,0,0,1,3.75-1.63A17.91,17.91,0,0,0,109.6,44.7Z"/><path class="cls-73" d="M111.88,44.29l-2.28.41a17.91,17.91,0,0,1-4.81,2.18A24,24,0,0,0,101,48.51l.3.85a18.23,18.23,0,0,1,3.17-1.26A27.07,27.07,0,0,0,111.88,44.29Z"/><polygon class="cls-73" points="107.12 65.91 107.12 65.91 107.12 65.91 107.12 65.91"/><path class="cls-73" d="M100.31,46.41l.11.33,1-.54Z"/><path class="cls-73" d="M114.4,43.83l-2.52.46a27.07,27.07,0,0,1-7.37,3.81,18.23,18.23,0,0,0-3.17,1.26l.32.92a72.35,72.35,0,0,0,7.12-2.83A55.65,55.65,0,0,0,114.4,43.83Z"/><path class="cls-73" d="M119.45,53a69.57,69.57,0,0,0,8.67-4.89c2.3-1.47,3.21-1.61,6-3l-.19-1.22c-.71.3-1.34.57-1.79.74a29.1,29.1,0,0,0-5.3,3c-1.48,1.08-5.41,3.73-5.41,3.73s3.93-2.65,5.41-3.73a29.1,29.1,0,0,1,5.3-3c.45-.17,1.08-.44,1.79-.74l-.11-.73a55.66,55.66,0,0,0-5.67,2.77c-2.77,1.64-5.77,4.45-9.46,6.15s-6.71,1.29-8.35,1.57a40.69,40.69,0,0,0-6.63,2.58l.37,1.06.63-.38a22,22,0,0,1,6.59-2.6,22,22,0,0,0-6.59,2.6l-.63.38.32.91a28.06,28.06,0,0,1,6.32-2.94C113.84,54.28,117.39,53.78,119.45,53ZM134,44.48s-4,1.74-5.29,2.58C130,46.22,134,44.48,134,44.48Z"/><path class="cls-73" d="M112.15,57.11c2.94-.77,3.83-.33,8.14-2.21s10.34-6.19,12.58-7.24c.52-.25,1-.47,1.53-.7l-.13-.91-1.21.52c-1.86.79-5.5,2.94-7.75,4.26S121,54.08,113.7,55.55a28.11,28.11,0,0,0-8,3l-1,.56.29.82c.33-.2.68-.4,1-.59A24,24,0,0,1,112.15,57.11Z"/><path class="cls-73" d="M106.9,60.32c1.51-1.2,2.35-1.26,3.28-1.15a13.89,13.89,0,0,0,5.24-.28,52.77,52.77,0,0,0,8.82-3.74c3.05-1.65,5.79-3.37,7.7-4.49.84-.49,1.8-1,2.79-1.52l-.18-1.2a31.67,31.67,0,0,0-3.22,1.94,31.67,31.67,0,0,1,3.22-1.94l-.15-1c-.51.23-1,.45-1.53.7-2.24,1.05-8.26,5.36-12.58,7.24s-5.2,1.44-8.14,2.21a24,24,0,0,0-6.08,2.22c-.36.19-.71.39-1,.59l.25.71a5.84,5.84,0,0,1,.91-.56,5.84,5.84,0,0,0-.91.56l.38,1.11A5.23,5.23,0,0,1,106.9,60.32Zm15.06-5c3.74-1.83,8.43-4.82,8.43-4.82s-4.69,3-8.43,4.82a38.21,38.21,0,0,1-11,3A38.21,38.21,0,0,0,122,55.31Z"/><path class="cls-73" d="M125.41,57.06a82.3,82.3,0,0,0,7-4.38,82.3,82.3,0,0,1-7,4.38c-1.89,1-4.93,2.39-7.23,3.59l14.76-7A4.13,4.13,0,0,1,135,51l-.12-.81c-2.85,1.22-5.22,3.36-8.16,4.92s-8.14,3.89-10.89,5.49a22.76,22.76,0,0,0-4.36,3.23l6.7-3.19C120.48,59.45,123.52,58,125.41,57.06Z"/><path class="cls-73" d="M126.73,55.12c2.94-1.56,5.31-3.7,8.16-4.92l-.16-1.06c-1,.47-1.95,1-2.79,1.52-1.91,1.12-4.65,2.84-7.7,4.49a52.77,52.77,0,0,1-8.82,3.74,13.89,13.89,0,0,1-5.24.28c-.93-.11-1.77-.05-3.28,1.15a5.23,5.23,0,0,0-1.24,1.42l.33.92c1.05-1.6,2.57-2.49,2.92-2.41s0,3.49-1,4.36a2.31,2.31,0,0,1-1.08.49l.28.81h0l2.1-1c1.36-1.23,3.25-3.84,6.44-5.3-3.19,1.46-5.08,4.07-6.44,5.3l2.26-1.07a22.76,22.76,0,0,1,4.36-3.23C118.59,59,123.67,56.74,126.73,55.12Zm-15.74,5c-.95-.13-1.12.19-1.15.5-.11,1.2-.48,2.07-.23,2.47s1-1.41,1.9-2c-.93.63-1.64,2.44-1.9,2s.12-1.27.23-2.47c0-.31.2-.63,1.15-.5a8.11,8.11,0,0,0,2,0A8.11,8.11,0,0,1,111,60.14Z"/><path class="cls-73" d="M113.7,55.55c7.33-1.47,9.36-3.4,11.61-4.72s5.89-3.47,7.75-4.26l1.21-.52-.15-1c-2.79,1.42-3.7,1.56-6,3A69.57,69.57,0,0,1,119.45,53c-2.06.82-5.61,1.32-8.73,2.23a28.06,28.06,0,0,0-6.32,2.94l.34,1,1-.56A28.11,28.11,0,0,1,113.7,55.55Z"/><path class="cls-73" d="M118.69,52c3.69-1.7,6.69-4.51,9.46-6.15a55.66,55.66,0,0,1,5.67-2.77l-.12-.83c-4.69,1.74-11.23,3.3-11.23,3.3S129,44,133.7,42.26l-.12-.82c-.75.27-1.46.51-2.17.75-2.67.88-7.44,2.19-9.11,2.64a19.32,19.32,0,0,0-6.87,2.62c-3.19,2-3.4,2.79-6.71,4.27-1.6.71-3.8,1.74-5.64,2.62l.28.82c2-.88,4.51-1.89,6.24-2.43,3.46-1.08,4.61.72,9.16-1.8,4-2.22,2.51-4.93,2.51-4.93s1.52,2.71-2.51,4.93c-4.55,2.52-5.7.72-9.16,1.8-1.73.54-4.2,1.55-6.24,2.43l.35,1a40.69,40.69,0,0,1,6.63-2.58C112,53.3,115,53.71,118.69,52Zm-9.23.09c1.87-.76,2.47-.45,2.47-.45S111.33,51.34,109.46,52.1ZM111.53,51a2.92,2.92,0,0,0,1-.72A2.92,2.92,0,0,1,111.53,51Zm5.34-.09c-2.26.79-4.06.82-4.19.36s1.73-2.42,4.39-3.84,3.5-.85,3.69-.13C121,48.3,119.13,50.09,116.87,50.87Zm6-3.47s1.23-.75,1.89-.6C124.13,46.65,122.9,47.4,122.9,47.4Zm-.79.16c.14-1.14.92-1.23,2.38-1.64l4-1.1-4,1.1c-1.46.41-2.24.5-2.38,1.64,0,.47-.16,1,.11,1.15s1.08-.38,1.79-1c-.71.62-1.53,1.12-1.79,1S122.06,48,122.11,47.56Z"/><path class="cls-73" d="M116.12,45.39a35.68,35.68,0,0,1,9.94-3.48c2.42-.52,5.11-2,7.22-2.44l-.16-1.08a10.36,10.36,0,0,0-1.42.49,49.41,49.41,0,0,1-8.5,2.8c-2.61.56-5.22,1.22-10.13,4.32-6.16,3.88-6.7,3.68-9.11,4.6-.64.24-1.29.51-1.91.79l.37,1c1.37-.62,3-1.31,4.41-1.84C109.9,49.47,111.62,47.69,116.12,45.39Z"/><path class="cls-73" d="M115.43,47.45a19.32,19.32,0,0,1,6.87-2.62c1.67-.45,6.44-1.76,9.11-2.64.71-.24,1.42-.48,2.17-.75l-.14-.94c-4.18,1.56-7.84,2.5-7.84,2.5a40.06,40.06,0,0,0-4.95,1.42A40.06,40.06,0,0,1,125.6,43s3.66-.94,7.84-2.5l-.16-1c-2.11.44-4.8,1.92-7.22,2.44a35.68,35.68,0,0,0-9.94,3.48c-4.5,2.3-6.22,4.08-9.29,5.21-1.45.53-3,1.22-4.41,1.84l.38,1.09,2.38-1.07a39.22,39.22,0,0,0,5.35-2.6c1.94-1.24,4.55-3.53,8.66-5-4.11,1.45-6.72,3.74-8.66,5a39.22,39.22,0,0,1-5.35,2.6l-2.38,1.07.28.81c1.84-.88,4-1.91,5.64-2.62C112,50.24,112.24,49.46,115.43,47.45Z"/><path class="cls-73" d="M113.07,46c4.91-3.1,7.52-3.76,10.13-4.32a49.41,49.41,0,0,0,8.5-2.8,10.36,10.36,0,0,1,1.42-.49l0-.3-16.82,5.39-1.86.35a55.65,55.65,0,0,1-5.62,3.62,72.35,72.35,0,0,1-7.12,2.83l.39,1.11c.62-.28,1.27-.55,1.91-.79C106.37,49.68,106.91,49.88,113.07,46Z"/><path class="cls-73" d="M117.07,47.39c-2.66,1.42-4.52,3.38-4.39,3.84s1.93.43,4.19-.36,4.16-2.57,3.89-3.61C120.57,46.54,119.73,46,117.07,47.39Zm.22,2.51c-2.85,1.34-3.16.67-3.16.5,0-.55,2.34-2.48,3.84-2.44-1.5,0-3.86,1.89-3.84,2.44,0,.17.31.84,3.16-.5s2.81-2.17,2.81-2.17S120.14,48.56,117.29,49.9Zm.33-.94c-1.44.78-1.59.55-1.59.55S116.18,49.74,117.62,49Z"/><path class="cls-73" d="M108.91,60.25c-.35-.08-1.87.81-2.92,2.41l.31.9a12.13,12.13,0,0,1,2.08-2.25,12.13,12.13,0,0,0-2.08,2.25l.27.79a2.58,2.58,0,0,0,1.48-1.52,2.58,2.58,0,0,1-1.48,1.52l.27.75a2.31,2.31,0,0,0,1.08-.49C109,63.74,109.38,60.36,108.91,60.25Z"/><path class="cls-73" d="M135.15,51.94A3.91,3.91,0,0,0,134,53.13l1.24-.59Z"/><path class="cls-73" d="M132.94,53.64l1.06-.51a3.91,3.91,0,0,1,1.15-1.19L135,51A4.13,4.13,0,0,0,132.94,53.64Z"/></g><path class="cls-74" d="M107,59.49c2-1.58,12-10.52,15.91-9.34a1.35,1.35,0,0,0,1.42-.47c1.41-1.61,4.63-4.9,7.4-4.87a3.91,3.91,0,0,1,.56,2.2,8.07,8.07,0,0,0-6.77,5.21s-.82,3.64-2.54,1.07c0,0-.52-2.2-6.33,2.64l-8.71,5.77S107,62.91,107,59.49Z"/><path class="cls-75" d="M124,45.34l-1.83-.75L104.9,49.3l-.44,1.21s2.52,6.57,2.52,9c0,0-.07-4.83-.47-7.72a1.67,1.67,0,0,1,.82-1.81c3.39-1.27,13.59-5,15.5-4.05,2.32,1.12,3.07-.37,7.09-3.11l-1-.43A12.05,12.05,0,0,1,124,45.34Z"/><path class="cls-76" d="M182.86,39.17l-.21-.24-1.13.1-.15-.17-1.73.19-.08.16-10.23.92c.58.89,0,2.74,0,2.74l.2.07,10.07-.87.09.17a.26.26,0,0,0,.24.15l1.74-.15a.28.28,0,0,0,.22-.19l.08-.18.73-.07c.21,0,.37-.27.36-.56L183,39.55A.56.56,0,0,0,182.86,39.17Z"/><path class="cls-77" d="M183.5,36.21c0-.29-.2-.52-.41-.5l-.92.08-.07-1.35c0-.16-.1-.28-.22-.27s-.33.21-.36.46c-.1,1.07-.56,1.27-.83,1.29l-32.22,2.79-.09-.09a1,1,0,0,0-.86-.36l-9.63.83a18.15,18.15,0,0,0-6.46,1.83,26.28,26.28,0,0,0-2.53,1.45s3.46,1.22,3.37,4.64l.28,0,4.47-.39,10.07-.87a.59.59,0,0,0,.45-.56l0-.31,8.29-.72-.11-2.78-7.28.66.13-.55,16.1-1.39c2.26-.21,4.06-.37,4.09-.36l13.52-1.17.9-.08c.21,0,.38-.27.36-.56Z"/><path class="cls-2" d="M163.29,40.65a9.43,9.43,0,0,0,1.52-.17,5.27,5.27,0,0,1,1.33-.14,21.12,21.12,0,0,0,2.35-.19l.2,0h.14l.34,0L170,40c.38,0,.83-.08,1.35-.1a18.78,18.78,0,0,0,2-.15,19.85,19.85,0,0,1,2-.2,5.52,5.52,0,0,0,.81-.08,2.84,2.84,0,0,1,.85-.08,2.54,2.54,0,0,0,.75-.06,1.59,1.59,0,0,1,.41,0,4.11,4.11,0,0,0,.43,0c.09,0,.59-.07,1.11-.12L181,39c.2,0,.5,0,.68,0a5.85,5.85,0,0,0,.85,0l.67-.07h.07l.16,0a.74.74,0,0,0,.27-.16,1,1,0,0,0,.3-.59,1.41,1.41,0,0,0,0-.2v-.13l0-.25c0-.17,0-.33-.05-.5-.08-.65-.15-.82-.32-.82s-.13,0-.19.3l-.06.3,0,1.09a.47.47,0,0,1-.09.33.14.14,0,0,1-.09.06l-.24,0-.82.06-1,.11a9.41,9.41,0,0,1-1,.08l-.89.05-2.1.19c-1.38.13-2,.17-2.26.18a5,5,0,0,0-.78.07,14.61,14.61,0,0,1-1.81.15,7,7,0,0,0-1.41.11c-1,.15-1.82.24-2,.26h-.61c-.38,0-.62,0-1.31.08-.49.05-1,.1-1.35.11a8.08,8.08,0,0,0-.93.08c-.27,0-1.44.15-3.18.31a29.49,29.49,0,0,1-3.05.23,8.9,8.9,0,0,0-1.35.08,8.62,8.62,0,0,0-1.24.16,23.39,23.39,0,0,1-2.46.23c-.78.06-1.54.12-1.85.16s-.66.07-.88.08a7.1,7.1,0,0,0-.77.07,7.66,7.66,0,0,1-.89.07l-.46,0h-.15l0,.16-.06.27-.06.28-.06.27.28,0,1.71-.17c1.44-.14,1.8-.16,2.11-.17s.48,0,.68,0l.77-.09,1-.11a2.69,2.69,0,0,1,.69,0h.35l-.26-.23a3.82,3.82,0,0,0,0,.57c0,.16.07,1.18.12,2.21l.17-.21c-1,.09-2.06.17-2.32.18a11.63,11.63,0,0,0-1.31.12c-1.25.15-2.52.25-3.28.28-.42,0-.92.05-1.38.09h-.21l0,.21,0,.34a.58.58,0,0,1-.08.21.27.27,0,0,1-.1.11l-.06,0-.11,0c-.31,0-.6.08-1.1.13l-4.23.35c-2,.17-3.87.33-4.24.35s-1,.08-1.39.12-1.14.11-2,.17c-.5,0-1.2.09-1.75.15l.25.22v-.42a3.07,3.07,0,0,0,0-.34c0-.17-.06-.36-.11-.54a4.84,4.84,0,0,0-.17-.54c-.07-.17-.14-.33-.21-.47l-.19-.35c-.05-.1-.13-.19-.2-.3l-.12-.16c0-.06-.09-.11-.13-.16-.18-.22-.38-.4-.52-.55a6,6,0,0,0-.82-.6,6.43,6.43,0,0,0-.72-.34l-.28-.1.05.43c.21-.14.35-.23.5-.31s.92-.58,2.32-1.26a17.82,17.82,0,0,1,5.56-1.6c2.17-.2,4.48-.39,6.42-.56l2.61-.23,1-.09h.18l.15,0a.55.55,0,0,1,.23.11l.08.05a1.57,1.57,0,0,1,.19.19l.08.08h.13l1.61-.13c.89-.06,1.78-.14,2-.17l3.56-.32,4.19-.36a13,13,0,0,1,1.42-.09c.46,0,1.08,0,3-.19.76-.07,1.74-.14,2.17-.16s1.26-.09,2.31-.2l4-.36,3.31-.3a9.16,9.16,0,0,1,1.25-.09,12.67,12.67,0,0,0,1.31-.09l2.05-.18h.08l.1,0,.19-.07a1.13,1.13,0,0,0,.31-.21,1.43,1.43,0,0,0,.35-.54,2.16,2.16,0,0,0,.15-.52,2,2,0,0,0,0-.24v-.08a0,0,0,0,1,0,0l0,0,0,0a.15.15,0,0,1,0-.06h0v-.13h0l0,0a.28.28,0,0,1-.14.09h0V35c0,.37,0,.62,0,.72v.08l0,.44h.53a5.4,5.4,0,0,0,.56,0l.25,0h.11l0-.19h0s0,0,0,.08,0,0,0,0h0s0,0,.07,0,.1.1.23.09.11,0,.13,0,0-.09,0-.2a.5.5,0,0,0-.1-.26.46.46,0,0,0-.32-.17,3.48,3.48,0,0,0-.47,0l-.47,0,.22.19v-.14a6.45,6.45,0,0,0,0-1l0-.23a.54.54,0,0,0-.17-.4A.31.31,0,0,0,182,34a.52.52,0,0,0-.17,0,.66.66,0,0,0-.24.11.73.73,0,0,0-.25.42s0,.08,0,.12v.09l0,.19a2.29,2.29,0,0,1-.12.37,1,1,0,0,1-.22.31.39.39,0,0,1-.14.08l-.08,0h-.11a8.37,8.37,0,0,0-1,.09,15.83,15.83,0,0,1-2,.2l-1,0c-.15,0-.91.06-1.67.13a9.39,9.39,0,0,0-1.56.17c-.16,0-.4.06-2.79.27-2.11.17-2.68.22-2.93.22a12.61,12.61,0,0,0-1.8.13,23.14,23.14,0,0,1-2.35.18c-.64,0-1.24.07-2,.13-.57,0-1.68.14-2.47.19-1.18.08-1.65.13-2.56.23-1.42.15-2.24.22-3,.27-.35,0-1.71.12-5,.41l.29.11-.29-.11h0l.29.11h0l-.07-.07-.14-.13A1.52,1.52,0,0,0,148,38a1.37,1.37,0,0,0-.35-.08h-.19l-.14,0c-4.8.41-5.64.48-6.05.49a15.36,15.36,0,0,0-1.91.18l-.92.09c-.47,0-1.1.1-1.75.2a20,20,0,0,0-3.23.8,14.12,14.12,0,0,0-2.31,1,5.47,5.47,0,0,1-.82.44l-.32.17c-.24.13-.65.36-1.34.8l-.4.26.48.35s0,0,.11.05l.28.14a6.06,6.06,0,0,1,1,.64,4.81,4.81,0,0,1,1.17,1.32,4.07,4.07,0,0,1,.54,2.16l0,.43.44,0,1.1-.1,3.67-.29c1.49-.09,2.86-.22,3.54-.32a14.74,14.74,0,0,1,2.2-.19c.72,0,1.9-.11,2.57-.21a12,12,0,0,1,1.35-.1l.22,0h.11l.15,0a.9.9,0,0,0,.6-.42,1.16,1.16,0,0,0,.18-.51l0-.31h0l-.41.4,3.55-.36h.36c.44,0,2-.15,2.56-.23a10.39,10.39,0,0,1,1.43-.12l.39,0,.39-.45a7.67,7.67,0,0,0-.06-1,10.42,10.42,0,0,1-.07-1.75l-.45-.4h-.16a12.49,12.49,0,0,0-1.51.16,3,3,0,0,1-.82.07,4.26,4.26,0,0,0-.73,0l-.63.05a4,4,0,0,0-.86.09,8.19,8.19,0,0,1-1.45.14c-.19,0-.59,0-1.12.07l.47.53.12-.55-.39.33.74-.08c.47-.05.73-.07,1-.08a2.31,2.31,0,0,0,.58,0,1.5,1.5,0,0,1,.75-.1,2,2,0,0,0,.8,0,4,4,0,0,1,1-.09,8.89,8.89,0,0,0,1.61-.15,2.2,2.2,0,0,1,.79-.07,3.64,3.64,0,0,0,1-.08,12.61,12.61,0,0,1,1.78-.15c.35,0,.75,0,2-.15,1.07-.1,1.64-.16,1.75-.19a.91.91,0,0,1,.33,0Z"/><path class="cls-78" d="M146,41.57,140.6,42c-.3,0-.56-.29-.58-.71L140,40.2a.72.72,0,0,1,.51-.8l5.41-.47c.31,0,.56.29.58.71l.05,1.13C146.54,41.19,146.31,41.55,146,41.57Z"/><path class="cls-79" d="M147.41,40.36l0,1.51,1.18-.41,8.22-.75.27.41s.49-.95,1.15-.13c.07.09.37-1.11,1,.12.33-1.08.78-.68,1.05,0,.26-1.17.83-.64,1.07-.07.21-1.12.81-.77,1-.08h.05c.23-1.19.79-.74,1-.09.26-1.24,1-.74,1.05-.11.22-1,.84-.8,1.06-.11.24-1,.89-.73,1-.12.22,0-.08-.69.63-.63,7.29-.68,16.32-1.57,16.32-1.57l-.13-2.57s-.35,0-1,.06C182.46,38.28,175.47,38.59,147.41,40.36Z"/><polygon class="cls-79" points="169.28 43.02 179.71 42.1 177.76 41.18 169.59 41.87 169.28 43.02"/><path class="cls-79" d="M147.53,44.85l8.33-.7-.05-1.21s-5.67.52-6.24.51c-1,0-.71-1.58-.06-1.58l-2.1.29.12,2.69"/><path class="cls-79" d="M179.22,39.32c0,.19-.19,1.75-1.46,1.86l.71,1,1.24-.2Z"/><path class="cls-79" d="M182.07,39.1c0,.19.6,1.68.88,1.66l.06.83-1.1,0-.08-2.46Z"/><path class="cls-79" d="M131.71,44.81a8.08,8.08,0,0,1,.67,2.18l14.71-1.27c.74-.3.32-4.41.32-4.41C146.24,42.73,145.64,43.56,131.71,44.81Z"/><path class="cls-79" d="M179.62,40.86c1.31.8,1.8-.13,1.75-1.83l.4-.05.14,3.22-1.39.32s-.94-.69-.94-.69Z"/><path class="cls-80" d="M144.32,39.07c.39.36-1.06,2.36-4.29,1.93,0,0-.11,1.1,1.39,1l4.34-.39s1.12-.55.52-2.13A1.54,1.54,0,0,0,144.32,39.07Z"/><g class="cls-81"><path class="cls-82" d="M106.31,45.31l-4.88.89-1,.54.27.77a16.81,16.81,0,0,1,2.79-1.25C104.57,45.91,105.44,45.65,106.31,45.31Z"/><path class="cls-82" d="M109.6,44.7l-3.29.61c-.87.34-1.74.6-2.83.95a16.81,16.81,0,0,0-2.79,1.25l.35,1a24,24,0,0,1,3.75-1.63A17.91,17.91,0,0,0,109.6,44.7Z"/><path class="cls-82" d="M111.88,44.29l-2.28.41a17.91,17.91,0,0,1-4.81,2.18A24,24,0,0,0,101,48.51l.3.85a18.23,18.23,0,0,1,3.17-1.26A27.07,27.07,0,0,0,111.88,44.29Z"/><polygon class="cls-82" points="107.12 65.91 107.12 65.91 107.12 65.91 107.12 65.91"/><path class="cls-82" d="M100.31,46.41l.11.33,1-.54Z"/><path class="cls-82" d="M114.4,43.83l-2.52.46a27.07,27.07,0,0,1-7.37,3.81,18.23,18.23,0,0,0-3.17,1.26l.32.92a72.35,72.35,0,0,0,7.12-2.83A55.65,55.65,0,0,0,114.4,43.83Z"/><path class="cls-82" d="M119.45,53a69.57,69.57,0,0,0,8.67-4.89c2.3-1.47,3.21-1.61,6-3l-.19-1.22c-.71.3-1.34.57-1.79.74a29.1,29.1,0,0,0-5.3,3c-1.48,1.08-5.41,3.73-5.41,3.73s3.93-2.65,5.41-3.73a29.1,29.1,0,0,1,5.3-3c.45-.17,1.08-.44,1.79-.74l-.11-.73a55.66,55.66,0,0,0-5.67,2.77c-2.77,1.64-5.77,4.45-9.46,6.15s-6.71,1.29-8.35,1.57a40.69,40.69,0,0,0-6.63,2.58l.37,1.06.63-.38a22,22,0,0,1,6.59-2.6,22,22,0,0,0-6.59,2.6l-.63.38.32.91a28.06,28.06,0,0,1,6.32-2.94C113.84,54.28,117.39,53.78,119.45,53ZM134,44.48s-4,1.74-5.29,2.58C130,46.22,134,44.48,134,44.48Z"/><path class="cls-82" d="M112.15,57.11c2.94-.77,3.83-.33,8.14-2.21s10.34-6.19,12.58-7.24c.52-.25,1-.47,1.53-.7l-.13-.91-1.21.52c-1.86.79-5.5,2.94-7.75,4.26S121,54.08,113.7,55.55a28.11,28.11,0,0,0-8,3l-1,.56.29.82c.33-.2.68-.4,1-.59A24,24,0,0,1,112.15,57.11Z"/><path class="cls-82" d="M106.9,60.32c1.51-1.2,2.35-1.26,3.28-1.15a13.89,13.89,0,0,0,5.24-.28,52.77,52.77,0,0,0,8.82-3.74c3.05-1.65,5.79-3.37,7.7-4.49.84-.49,1.8-1,2.79-1.52l-.18-1.2a31.67,31.67,0,0,0-3.22,1.94,31.67,31.67,0,0,1,3.22-1.94l-.15-1c-.51.23-1,.45-1.53.7-2.24,1.05-8.26,5.36-12.58,7.24s-5.2,1.44-8.14,2.21a24,24,0,0,0-6.08,2.22c-.36.19-.71.39-1,.59l.25.71a5.84,5.84,0,0,1,.91-.56,5.84,5.84,0,0,0-.91.56l.38,1.11A5.23,5.23,0,0,1,106.9,60.32Zm15.06-5c3.74-1.83,8.43-4.82,8.43-4.82s-4.69,3-8.43,4.82a38.21,38.21,0,0,1-11,3A38.21,38.21,0,0,0,122,55.31Z"/><path class="cls-82" d="M125.41,57.06a82.3,82.3,0,0,0,7-4.38,82.3,82.3,0,0,1-7,4.38c-1.89,1-4.93,2.39-7.23,3.59l14.76-7A4.13,4.13,0,0,1,135,51l-.12-.81c-2.85,1.22-5.22,3.36-8.16,4.92s-8.14,3.89-10.89,5.49a22.76,22.76,0,0,0-4.36,3.23l6.7-3.19C120.48,59.45,123.52,58,125.41,57.06Z"/><path class="cls-82" d="M126.73,55.12c2.94-1.56,5.31-3.7,8.16-4.92l-.16-1.06c-1,.47-1.95,1-2.79,1.52-1.91,1.12-4.65,2.84-7.7,4.49a52.77,52.77,0,0,1-8.82,3.74,13.89,13.89,0,0,1-5.24.28c-.93-.11-1.77-.05-3.28,1.15a5.23,5.23,0,0,0-1.24,1.42l.33.92c1.05-1.6,2.57-2.49,2.92-2.41s0,3.49-1,4.36a2.31,2.31,0,0,1-1.08.49l.28.81h0l2.1-1c1.36-1.23,3.25-3.84,6.44-5.3-3.19,1.46-5.08,4.07-6.44,5.3l2.26-1.07a22.76,22.76,0,0,1,4.36-3.23C118.59,59,123.67,56.74,126.73,55.12Zm-15.74,5c-.95-.13-1.12.19-1.15.5-.11,1.2-.48,2.07-.23,2.47s1-1.41,1.9-2c-.93.63-1.64,2.44-1.9,2s.12-1.27.23-2.47c0-.31.2-.63,1.15-.5a8.11,8.11,0,0,0,2,0A8.11,8.11,0,0,1,111,60.14Z"/><path class="cls-82" d="M113.7,55.55c7.33-1.47,9.36-3.4,11.61-4.72s5.89-3.47,7.75-4.26l1.21-.52-.15-1c-2.79,1.42-3.7,1.56-6,3A69.57,69.57,0,0,1,119.45,53c-2.06.82-5.61,1.32-8.73,2.23a28.06,28.06,0,0,0-6.32,2.94l.34,1,1-.56A28.11,28.11,0,0,1,113.7,55.55Z"/><path class="cls-82" d="M118.69,52c3.69-1.7,6.69-4.51,9.46-6.15a55.66,55.66,0,0,1,5.67-2.77l-.12-.83c-4.69,1.74-11.23,3.3-11.23,3.3S129,44,133.7,42.26l-.12-.82c-.75.27-1.46.51-2.17.75-2.67.88-7.44,2.19-9.11,2.64a19.32,19.32,0,0,0-6.87,2.62c-3.19,2-3.4,2.79-6.71,4.27-1.6.71-3.8,1.74-5.64,2.62l.28.82c2-.88,4.51-1.89,6.24-2.43,3.46-1.08,4.61.72,9.16-1.8,4-2.22,2.51-4.93,2.51-4.93s1.52,2.71-2.51,4.93c-4.55,2.52-5.7.72-9.16,1.8-1.73.54-4.2,1.55-6.24,2.43l.35,1a40.69,40.69,0,0,1,6.63-2.58C112,53.3,115,53.71,118.69,52Zm-9.23.09c1.87-.76,2.47-.45,2.47-.45S111.33,51.34,109.46,52.1ZM111.53,51a2.92,2.92,0,0,0,1-.72A2.92,2.92,0,0,1,111.53,51Zm5.34-.09c-2.26.79-4.06.82-4.19.36s1.73-2.42,4.39-3.84,3.5-.85,3.69-.13C121,48.3,119.13,50.09,116.87,50.87Zm6-3.47s1.23-.75,1.89-.6C124.13,46.65,122.9,47.4,122.9,47.4Zm-.79.16c.14-1.14.92-1.23,2.38-1.64l4-1.1-4,1.1c-1.46.41-2.24.5-2.38,1.64,0,.47-.16,1,.11,1.15s1.08-.38,1.79-1c-.71.62-1.53,1.12-1.79,1S122.06,48,122.11,47.56Z"/><path class="cls-82" d="M116.12,45.39a35.68,35.68,0,0,1,9.94-3.48c2.42-.52,5.11-2,7.22-2.44l-.16-1.08a10.36,10.36,0,0,0-1.42.49,49.41,49.41,0,0,1-8.5,2.8c-2.61.56-5.22,1.22-10.13,4.32-6.16,3.88-6.7,3.68-9.11,4.6-.64.24-1.29.51-1.91.79l.37,1c1.37-.62,3-1.31,4.41-1.84C109.9,49.47,111.62,47.69,116.12,45.39Z"/><path class="cls-82" d="M115.43,47.45a19.32,19.32,0,0,1,6.87-2.62c1.67-.45,6.44-1.76,9.11-2.64.71-.24,1.42-.48,2.17-.75l-.14-.94c-4.18,1.56-7.84,2.5-7.84,2.5a40.06,40.06,0,0,0-4.95,1.42A40.06,40.06,0,0,1,125.6,43s3.66-.94,7.84-2.5l-.16-1c-2.11.44-4.8,1.92-7.22,2.44a35.68,35.68,0,0,0-9.94,3.48c-4.5,2.3-6.22,4.08-9.29,5.21-1.45.53-3,1.22-4.41,1.84l.38,1.09,2.38-1.07a39.22,39.22,0,0,0,5.35-2.6c1.94-1.24,4.55-3.53,8.66-5-4.11,1.45-6.72,3.74-8.66,5a39.22,39.22,0,0,1-5.35,2.6l-2.38,1.07.28.81c1.84-.88,4-1.91,5.64-2.62C112,50.24,112.24,49.46,115.43,47.45Z"/><path class="cls-82" d="M113.07,46c4.91-3.1,7.52-3.76,10.13-4.32a49.41,49.41,0,0,0,8.5-2.8,10.36,10.36,0,0,1,1.42-.49l0-.3-16.82,5.39-1.86.35a55.65,55.65,0,0,1-5.62,3.62,72.35,72.35,0,0,1-7.12,2.83l.39,1.11c.62-.28,1.27-.55,1.91-.79C106.37,49.68,106.91,49.88,113.07,46Z"/><path class="cls-82" d="M117.07,47.39c-2.66,1.42-4.52,3.38-4.39,3.84s1.93.43,4.19-.36,4.16-2.57,3.89-3.61C120.57,46.54,119.73,46,117.07,47.39Zm.22,2.51c-2.85,1.34-3.16.67-3.16.5,0-.55,2.34-2.48,3.84-2.44-1.5,0-3.86,1.89-3.84,2.44,0,.17.31.84,3.16-.5s2.81-2.17,2.81-2.17S120.14,48.56,117.29,49.9Zm.33-.94c-1.44.78-1.59.55-1.59.55S116.18,49.74,117.62,49Z"/><path class="cls-82" d="M108.91,60.25c-.35-.08-1.87.81-2.92,2.41l.31.9a12.13,12.13,0,0,1,2.08-2.25,12.13,12.13,0,0,0-2.08,2.25l.27.79a2.58,2.58,0,0,0,1.48-1.52,2.58,2.58,0,0,1-1.48,1.52l.27.75a2.31,2.31,0,0,0,1.08-.49C109,63.74,109.38,60.36,108.91,60.25Z"/><path class="cls-82" d="M135.15,51.94A3.91,3.91,0,0,0,134,53.13l1.24-.59Z"/><path class="cls-82" d="M132.94,53.64l1.06-.51a3.91,3.91,0,0,1,1.15-1.19L135,51A4.13,4.13,0,0,0,132.94,53.64Z"/></g><path class="cls-78" d="M129.85,42.85c3.12-2,6.41-3,17.39-4v-.62s-10.46.75-12.58,1.39L129,42.37S129.66,42.52,129.85,42.85Z"/><path class="cls-78" d="M130.16,41.82a5.52,5.52,0,0,1,1.5,2.81s-1.84-2.22-2.57-2.38Z"/><path class="cls-83" d="M140,41a5.6,5.6,0,0,1,4.15-1.81,30.14,30.14,0,0,0-3.64.3A1.48,1.48,0,0,0,140,41Z"/><path class="cls-78" d="M148.47,39.58c9.75-1.19,35-3.87,35-3.87l-35,3Z"/><path class="cls-84" d="M155.83,43.54c.32.21,1.19.66,1.43-.32,0,0,.52,1.25,1.06,0,0,0,.52,1.09,1.05-.11,0,0,.51,1.2,1.06-.09,0,0,.59,1.27,1-.08,0,0,.49,1.16,1.06,0,0,0,.65.89,1.05-.09,0,0,.6,1.15,1.06-.09,0,0,.55,1.11,1-.09,0,0,.57,1.11,1.06-.1,0,0,1.89.88,2.1-2.79,0,0,1.36.43.42,2.79,0,0-1.46,3.16-2.45,1.94,0,0-.67.74-1,.06,0,0-.62.82-1.06.1,0,0-.67,1-1.12.06,0,0-.52.88-1,.12,0,0-.52.94-1.06.09,0,0-.55,1-1,.09,0,0-.53.85-1.06.09,0,0-.42,1.06-1.05.09,0,0-.58.85-1.06.1,0,0,0,.45-.81.37C156.54,45.67,155.63,46.09,155.83,43.54Z"/><path class="cls-75" d="M155.86,43.74c.32-.52-.3-2.88,1.26-2.62.11,0-.43-.33-.32-.34s-1.15-.35-1.06.72S155.86,43.74,155.86,43.74Z"/><path class="cls-75" d="M157.3,43.6c.32-.51-.3-2.7.89-2.54.11,0-.31-.37-.2-.38s-.9-.39-.81.69S157.3,43.6,157.3,43.6Z"/><path class="cls-75" d="M158.33,43.6c.32-.51-.3-2.7.9-2.54.1,0-.32-.37-.21-.38s-.9-.39-.81.69S158.33,43.6,158.33,43.6Z"/><path class="cls-75" d="M159.37,43.48c.32-.51-.3-2.7.89-2.54.11,0-.31-.37-.2-.38s-.9-.39-.81.69S159.37,43.48,159.37,43.48Z"/><path class="cls-75" d="M160.45,43.27c.32-.51-.3-2.7.89-2.54.11,0-.31-.37-.2-.38s-.9-.39-.81.69S160.45,43.27,160.45,43.27Z"/><path class="cls-75" d="M161.48,43.18c.32-.52-.3-2.7.9-2.54.1,0-.32-.37-.21-.38s-.9-.39-.81.69S161.48,43.18,161.48,43.18Z"/><path class="cls-75" d="M162.58,43.18c.32-.52-.3-2.7.9-2.54.1,0-.31-.37-.21-.38s-.9-.39-.8.69S162.58,43.18,162.58,43.18Z"/><path class="cls-75" d="M163.62,43c.32-.52-.3-2.7.89-2.54.11,0-.31-.37-.2-.38s-.9-.39-.81.69S163.62,43,163.62,43Z"/><path class="cls-75" d="M164.69,43c.32-.52-.3-2.71.89-2.55.11,0-.31-.36-.2-.38s-.9-.38-.81.69S164.69,43,164.69,43Z"/><path class="cls-75" d="M165.73,42.89c.32-.52-.3-2.7.89-2.54.11,0-.31-.37-.2-.38s-.9-.39-.81.69S165.73,42.89,165.73,42.89Z"/><path class="cls-75" d="M166.81,42.76c.12-1.78.49-2.62,1.94-2.86.11,0-.07-.17,0-.19s-2.19-.26-2.1.82S166.81,42.76,166.81,42.76Z"/><g class="cls-85"><path class="cls-86" d="M106.31,45.31l-4.88.89-1,.54.27.77a16.81,16.81,0,0,1,2.79-1.25C104.57,45.91,105.44,45.65,106.31,45.31Z"/><path class="cls-86" d="M109.6,44.7l-3.29.61c-.87.34-1.74.6-2.83.95a16.81,16.81,0,0,0-2.79,1.25l.35,1a24,24,0,0,1,3.75-1.63A17.91,17.91,0,0,0,109.6,44.7Z"/><path class="cls-86" d="M111.88,44.29l-2.28.41a17.91,17.91,0,0,1-4.81,2.18A24,24,0,0,0,101,48.51l.3.85a18.23,18.23,0,0,1,3.17-1.26A27.07,27.07,0,0,0,111.88,44.29Z"/><polygon class="cls-86" points="107.12 65.91 107.12 65.91 107.12 65.91 107.12 65.91"/><path class="cls-86" d="M100.31,46.41l.11.33,1-.54Z"/><path class="cls-86" d="M114.4,43.83l-2.52.46a27.07,27.07,0,0,1-7.37,3.81,18.23,18.23,0,0,0-3.17,1.26l.32.92a72.35,72.35,0,0,0,7.12-2.83A55.65,55.65,0,0,0,114.4,43.83Z"/><path class="cls-86" d="M119.45,53a69.57,69.57,0,0,0,8.67-4.89c2.3-1.47,3.21-1.61,6-3l-.19-1.22c-.71.3-1.34.57-1.79.74a29.1,29.1,0,0,0-5.3,3c-1.48,1.08-5.41,3.73-5.41,3.73s3.93-2.65,5.41-3.73a29.1,29.1,0,0,1,5.3-3c.45-.17,1.08-.44,1.79-.74l-.11-.73a55.66,55.66,0,0,0-5.67,2.77c-2.77,1.64-5.77,4.45-9.46,6.15s-6.71,1.29-8.35,1.57a40.69,40.69,0,0,0-6.63,2.58l.37,1.06.63-.38a22,22,0,0,1,6.59-2.6,22,22,0,0,0-6.59,2.6l-.63.38.32.91a28.06,28.06,0,0,1,6.32-2.94C113.84,54.28,117.39,53.78,119.45,53ZM134,44.48s-4,1.74-5.29,2.58C130,46.22,134,44.48,134,44.48Z"/><path class="cls-86" d="M112.15,57.11c2.94-.77,3.83-.33,8.14-2.21s10.34-6.19,12.58-7.24c.52-.25,1-.47,1.53-.7l-.13-.91-1.21.52c-1.86.79-5.5,2.94-7.75,4.26S121,54.08,113.7,55.55a28.11,28.11,0,0,0-8,3l-1,.56.29.82c.33-.2.68-.4,1-.59A24,24,0,0,1,112.15,57.11Z"/><path class="cls-86" d="M106.9,60.32c1.51-1.2,2.35-1.26,3.28-1.15a13.89,13.89,0,0,0,5.24-.28,52.77,52.77,0,0,0,8.82-3.74c3.05-1.65,5.79-3.37,7.7-4.49.84-.49,1.8-1,2.79-1.52l-.18-1.2a31.67,31.67,0,0,0-3.22,1.94,31.67,31.67,0,0,1,3.22-1.94l-.15-1c-.51.23-1,.45-1.53.7-2.24,1.05-8.26,5.36-12.58,7.24s-5.2,1.44-8.14,2.21a24,24,0,0,0-6.08,2.22c-.36.19-.71.39-1,.59l.25.71a5.84,5.84,0,0,1,.91-.56,5.84,5.84,0,0,0-.91.56l.38,1.11A5.23,5.23,0,0,1,106.9,60.32Zm15.06-5c3.74-1.83,8.43-4.82,8.43-4.82s-4.69,3-8.43,4.82a38.21,38.21,0,0,1-11,3A38.21,38.21,0,0,0,122,55.31Z"/><path class="cls-86" d="M125.41,57.06a82.3,82.3,0,0,0,7-4.38,82.3,82.3,0,0,1-7,4.38c-1.89,1-4.93,2.39-7.23,3.59l14.76-7A4.13,4.13,0,0,1,135,51l-.12-.81c-2.85,1.22-5.22,3.36-8.16,4.92s-8.14,3.89-10.89,5.49a22.76,22.76,0,0,0-4.36,3.23l6.7-3.19C120.48,59.45,123.52,58,125.41,57.06Z"/><path class="cls-86" d="M126.73,55.12c2.94-1.56,5.31-3.7,8.16-4.92l-.16-1.06c-1,.47-1.95,1-2.79,1.52-1.91,1.12-4.65,2.84-7.7,4.49a52.77,52.77,0,0,1-8.82,3.74,13.89,13.89,0,0,1-5.24.28c-.93-.11-1.77-.05-3.28,1.15a5.23,5.23,0,0,0-1.24,1.42l.33.92c1.05-1.6,2.57-2.49,2.92-2.41s0,3.49-1,4.36a2.31,2.31,0,0,1-1.08.49l.28.81h0l2.1-1c1.36-1.23,3.25-3.84,6.44-5.3-3.19,1.46-5.08,4.07-6.44,5.3l2.26-1.07a22.76,22.76,0,0,1,4.36-3.23C118.59,59,123.67,56.74,126.73,55.12Zm-15.74,5c-.95-.13-1.12.19-1.15.5-.11,1.2-.48,2.07-.23,2.47s1-1.41,1.9-2c-.93.63-1.64,2.44-1.9,2s.12-1.27.23-2.47c0-.31.2-.63,1.15-.5a8.11,8.11,0,0,0,2,0A8.11,8.11,0,0,1,111,60.14Z"/><path class="cls-86" d="M113.7,55.55c7.33-1.47,9.36-3.4,11.61-4.72s5.89-3.47,7.75-4.26l1.21-.52-.15-1c-2.79,1.42-3.7,1.56-6,3A69.57,69.57,0,0,1,119.45,53c-2.06.82-5.61,1.32-8.73,2.23a28.06,28.06,0,0,0-6.32,2.94l.34,1,1-.56A28.11,28.11,0,0,1,113.7,55.55Z"/><path class="cls-86" d="M118.69,52c3.69-1.7,6.69-4.51,9.46-6.15a55.66,55.66,0,0,1,5.67-2.77l-.12-.83c-4.69,1.74-11.23,3.3-11.23,3.3S129,44,133.7,42.26l-.12-.82c-.75.27-1.46.51-2.17.75-2.67.88-7.44,2.19-9.11,2.64a19.32,19.32,0,0,0-6.87,2.62c-3.19,2-3.4,2.79-6.71,4.27-1.6.71-3.8,1.74-5.64,2.62l.28.82c2-.88,4.51-1.89,6.24-2.43,3.46-1.08,4.61.72,9.16-1.8,4-2.22,2.51-4.93,2.51-4.93s1.52,2.71-2.51,4.93c-4.55,2.52-5.7.72-9.16,1.8-1.73.54-4.2,1.55-6.24,2.43l.35,1a40.69,40.69,0,0,1,6.63-2.58C112,53.3,115,53.71,118.69,52Zm-9.23.09c1.87-.76,2.47-.45,2.47-.45S111.33,51.34,109.46,52.1ZM111.53,51a2.92,2.92,0,0,0,1-.72A2.92,2.92,0,0,1,111.53,51Zm5.34-.09c-2.26.79-4.06.82-4.19.36s1.73-2.42,4.39-3.84,3.5-.85,3.69-.13C121,48.3,119.13,50.09,116.87,50.87Zm6-3.47s1.23-.75,1.89-.6C124.13,46.65,122.9,47.4,122.9,47.4Zm-.79.16c.14-1.14.92-1.23,2.38-1.64l4-1.1-4,1.1c-1.46.41-2.24.5-2.38,1.64,0,.47-.16,1,.11,1.15s1.08-.38,1.79-1c-.71.62-1.53,1.12-1.79,1S122.06,48,122.11,47.56Z"/><path class="cls-86" d="M116.12,45.39a35.68,35.68,0,0,1,9.94-3.48c2.42-.52,5.11-2,7.22-2.44l-.16-1.08a10.36,10.36,0,0,0-1.42.49,49.41,49.41,0,0,1-8.5,2.8c-2.61.56-5.22,1.22-10.13,4.32-6.16,3.88-6.7,3.68-9.11,4.6-.64.24-1.29.51-1.91.79l.37,1c1.37-.62,3-1.31,4.41-1.84C109.9,49.47,111.62,47.69,116.12,45.39Z"/><path class="cls-86" d="M115.43,47.45a19.32,19.32,0,0,1,6.87-2.62c1.67-.45,6.44-1.76,9.11-2.64.71-.24,1.42-.48,2.17-.75l-.14-.94c-4.18,1.56-7.84,2.5-7.84,2.5a40.06,40.06,0,0,0-4.95,1.42A40.06,40.06,0,0,1,125.6,43s3.66-.94,7.84-2.5l-.16-1c-2.11.44-4.8,1.92-7.22,2.44a35.68,35.68,0,0,0-9.94,3.48c-4.5,2.3-6.22,4.08-9.29,5.21-1.45.53-3,1.22-4.41,1.84l.38,1.09,2.38-1.07a39.22,39.22,0,0,0,5.35-2.6c1.94-1.24,4.55-3.53,8.66-5-4.11,1.45-6.72,3.74-8.66,5a39.22,39.22,0,0,1-5.35,2.6l-2.38,1.07.28.81c1.84-.88,4-1.91,5.64-2.62C112,50.24,112.24,49.46,115.43,47.45Z"/><path class="cls-86" d="M113.07,46c4.91-3.1,7.52-3.76,10.13-4.32a49.41,49.41,0,0,0,8.5-2.8,10.36,10.36,0,0,1,1.42-.49l0-.3-16.82,5.39-1.86.35a55.65,55.65,0,0,1-5.62,3.62,72.35,72.35,0,0,1-7.12,2.83l.39,1.11c.62-.28,1.27-.55,1.91-.79C106.37,49.68,106.91,49.88,113.07,46Z"/><path class="cls-86" d="M117.07,47.39c-2.66,1.42-4.52,3.38-4.39,3.84s1.93.43,4.19-.36,4.16-2.57,3.89-3.61C120.57,46.54,119.73,46,117.07,47.39Zm.22,2.51c-2.85,1.34-3.16.67-3.16.5,0-.55,2.34-2.48,3.84-2.44-1.5,0-3.86,1.89-3.84,2.44,0,.17.31.84,3.16-.5s2.81-2.17,2.81-2.17S120.14,48.56,117.29,49.9Zm.33-.94c-1.44.78-1.59.55-1.59.55S116.18,49.74,117.62,49Z"/><path class="cls-86" d="M108.91,60.25c-.35-.08-1.87.81-2.92,2.41l.31.9a12.13,12.13,0,0,1,2.08-2.25,12.13,12.13,0,0,0-2.08,2.25l.27.79a2.58,2.58,0,0,0,1.48-1.52,2.58,2.58,0,0,1-1.48,1.52l.27.75a2.31,2.31,0,0,0,1.08-.49C109,63.74,109.38,60.36,108.91,60.25Z"/><path class="cls-86" d="M135.15,51.94A3.91,3.91,0,0,0,134,53.13l1.24-.59Z"/><path class="cls-86" d="M132.94,53.64l1.06-.51a3.91,3.91,0,0,1,1.15-1.19L135,51A4.13,4.13,0,0,0,132.94,53.64Z"/></g><path class="cls-87" d="M104.63,50.7a37.4,37.4,0,0,1,2.52,10.69c0,.38.3.61.55.45l13.56-9a1.19,1.19,0,0,1,1.51.14l1.09,1c.4.36.93.14,1.13-.46.65-2.07,2.56-6.14,7.39-6.56l14.71-1.27c.27,0,.47-.34.45-.71l-.3-6.73-9.35.81a18,18,0,0,0-6.46,1.83,24.92,24.92,0,0,0-5.56,3.78A2.29,2.29,0,0,1,123,45h0a1.6,1.6,0,0,0-1.27-.21l-16.57,4.39A1.16,1.16,0,0,0,104.63,50.7Z"/><polyline class="cls-87" points="169.55 42.94 179.65 42.07 179.53 39.31 169.48 40.19"/><polygon class="cls-87" points="155.86 44.13 147.53 44.85 147.41 42.1 155.74 41.38 155.86 44.13"/><path class="cls-87" d="M156,40.82l-7.4.64-.13-2.75,34.62-3c.21,0,.39.21.41.5l.07,1.69c0,.29-.15.55-.36.56l-14.42,1.25"/><path class="cls-87" d="M147.69,42.07l-.28,0-.17-3.82.28,0a1.1,1.1,0,0,1,.95.45h0l.13,2.75h0A1.23,1.23,0,0,1,147.69,42.07Z"/><path class="cls-87" d="M157.1,45.62l-.9.08c-.15,0-.28-.15-.29-.36l-.18-4.12c0-.21.1-.39.25-.4l.9-.08c.15,0,.28.15.29.36l.18,4.12C157.36,45.43,157.25,45.61,157.1,45.62Z"/><path class="cls-87" d="M158.15,45.53l-.51,0c-.15,0-.28-.14-.29-.35l-.18-4.12c0-.21.1-.39.25-.4l.51-.05c.15,0,.28.15.29.36l.19,4.12A.37.37,0,0,1,158.15,45.53Z"/><path class="cls-87" d="M159.2,45.44l-.51,0c-.15,0-.28-.14-.28-.35L158.22,41c0-.21.1-.39.25-.4l.51,0c.15,0,.28.15.29.36l.19,4.12A.37.37,0,0,1,159.2,45.44Z"/><path class="cls-87" d="M160.26,45.34l-.51,0c-.15,0-.28-.15-.29-.35l-.19-4.12a.37.37,0,0,1,.26-.41l.51,0c.15,0,.28.15.29.35l.18,4.12C160.52,45.15,160.41,45.33,160.26,45.34Z"/><path class="cls-87" d="M161.31,45.25l-.51,0c-.15,0-.28-.15-.29-.36l-.18-4.12a.36.36,0,0,1,.25-.4l.51,0c.15,0,.28.14.29.35l.19,4.12C161.58,45.06,161.46,45.24,161.31,45.25Z"/><path class="cls-87" d="M162.37,45.16l-.51.05c-.15,0-.28-.15-.29-.36l-.19-4.12a.36.36,0,0,1,.26-.4l.51,0c.15,0,.28.14.29.35l.18,4.12C162.63,45,162.52,45.15,162.37,45.16Z"/><path class="cls-87" d="M163.42,45.07l-.51,0c-.15,0-.28-.15-.29-.36l-.18-4.12c0-.21.1-.39.25-.4l.51,0c.15,0,.28.14.29.35l.19,4.12C163.69,44.88,163.57,45.06,163.42,45.07Z"/><path class="cls-87" d="M164.47,45l-.5,0c-.16,0-.28-.14-.29-.35l-.19-4.12c0-.21.1-.39.25-.4l.51,0c.15,0,.28.14.29.35l.19,4.12C164.74,44.79,164.63,45,164.47,45Z"/><path class="cls-87" d="M165.53,44.89l-.51,0c-.15,0-.28-.14-.29-.35l-.19-4.12c0-.21.11-.39.26-.4l.51-.05c.15,0,.28.15.29.36l.18,4.12C165.79,44.7,165.68,44.88,165.53,44.89Z"/><path class="cls-87" d="M166.58,44.8l-.51,0c-.15,0-.28-.14-.29-.35l-.18-4.12c0-.21.1-.39.25-.4l.51,0c.15,0,.28.15.29.36l.19,4.12A.37.37,0,0,1,166.58,44.8Z"/><path class="cls-87" d="M166.83,44.25l-.17-3.83c0-.29.14-.54.35-.55l1.54-.14c.56,0,1,.54,1.07,1.31h0a5.12,5.12,0,0,1-.49,1.9"/><path class="cls-87" d="M181.79,42.23l-1.94.17c-.1,0-.19-.1-.19-.24l-.13-2.94a.24.24,0,0,1,.17-.27l1.93-.17a.23.23,0,0,1,.2.24L182,42C182,42.1,181.89,42.22,181.79,42.23Z"/><path class="cls-87" d="M181.83,39.12l.12,2.75.77-.07c.21,0,.37-.27.36-.56L183,39.55c0-.3-.19-.52-.4-.5Z"/><path class="cls-87" d="M182.17,35.79l-.07-1.35c0-.16-.1-.28-.22-.27h0c-.18,0-.33.21-.36.46-.05.49-.22,1.24-.83,1.29Z"/><path class="cls-87" d="M146,41.57,140.6,42c-.3,0-.56-.29-.58-.71L140,40.2a.72.72,0,0,1,.51-.8l5.41-.47c.31,0,.56.29.58.71l.05,1.13C146.54,41.19,146.31,41.55,146,41.57Z"/><path class="cls-87" d="M136.06,49.49l-2.29.2c-.6.05-1.12-.58-1.16-1.41l-.06-1.3,4.47-.39.06,1.3C137.12,48.72,136.66,49.44,136.06,49.49Z"/><path class="cls-87" d="M133.62,46.89c0,.33,0,1.75.78,1.68"/><path class="cls-87" d="M105.69,49a35.82,35.82,0,0,1,2.86,12.26"/><path class="cls-87" d="M128.9,42.37c.56,0,3,1.26,3.48,4.62"/><path class="cls-88" d="M117.85,46.28a17.08,17.08,0,0,0,2.07-.6,10.73,10.73,0,0,1,1.8-.49,1.32,1.32,0,0,1,1.17.24,2.8,2.8,0,0,0,1,.34,2.54,2.54,0,0,0,1-.08,3.52,3.52,0,0,0,1-.47l.17-.13.11-.09.11-.09.49-.43a15.6,15.6,0,0,1,1.48-1.13c.73-.49,1.18-.75,1.51-1s.55-.33.85-.52A13.69,13.69,0,0,1,133,40.69l1-.39A4.39,4.39,0,0,1,135.2,40a7.17,7.17,0,0,0,1-.22,2.71,2.71,0,0,1,.56-.11l.59-.07a4.23,4.23,0,0,1,.53-.07l1-.1,1.84-.17c.28,0,.7,0,1,0s.62,0,1.2-.08c.9-.09,1-.1,1.84-.17.48,0,.93-.09,1.4-.16.9-.13,1.14-.21,1.13-.39s0-.12-.43-.16l-.41,0-1.52.13-2.51.2c-.63.05-1.17.1-1.45.14s-.61.07-1.34.11l-1.25.09a18.06,18.06,0,0,0-2.94.44,20.28,20.28,0,0,0-2.09.62l-1,.36a6.1,6.1,0,0,0-1,.46l-1.27.71-1,.55a7.61,7.61,0,0,0-1.66,1.12c-.58.46-1.06.89-1.42,1.23l-.25.23-.2.17-.26.18a2,2,0,0,1-.76.23,2.23,2.23,0,0,1-.68,0,2,2,0,0,1-.4-.12l-.24-.11-.13-.07-.16-.1a1.85,1.85,0,0,0-1.15-.17l-.84.2c-.55.13-.82.2-1.27.34l-4.32,1.18c-3.65,1-3.75,1-4.14,1.06a16.89,16.89,0,0,0-1.83.46,16.06,16.06,0,0,0-1.69.49,8,8,0,0,1-.81.25l-1,.25-.7.18a1,1,0,0,0-.46.21,1.2,1.2,0,0,0-.32.45,1.64,1.64,0,0,0-.09.9,1.9,1.9,0,0,0,.12.4l.13.33.36,1c.16.42.31.88.39,1.18s.2.67.32,1a11.6,11.6,0,0,1,.32,1.21l.23,1c.05.19.34,1.41.52,2.73.08.5.11.91.15,1.24l0,.82a.7.7,0,0,0,.33.61.49.49,0,0,0,.31.07l.14,0,.1-.05c.3-.17.57-.35.81-.51l.89-.62,1.13-.77a5.68,5.68,0,0,1,.82-.52,8,8,0,0,0,1.06-.7c.37-.28,4.67-3.12,5.3-3.5.36-.21.63-.4,1.54-1l1.08-.74.53-.35.26-.18a1.58,1.58,0,0,1,.23-.14.94.94,0,0,1,.91,0,1.74,1.74,0,0,1,.34.28l.31.3.34.33.17.17.1.08,0,0,.07.05a.82.82,0,0,0,.67.18,1,1,0,0,0,.56-.36,1,1,0,0,0,.16-.26c0-.09.07-.19.09-.25s.09-.29.14-.42.17-.49.24-.66a6.6,6.6,0,0,1,.66-1.37,9.84,9.84,0,0,1,1.28-1.66,7.49,7.49,0,0,1,3.13-1.93c.16,0,.33-.08.49-.12a3.88,3.88,0,0,1,.49-.11l.48-.06.24,0,.25,0,1.78-.15,2.14-.17c.54,0,1.37-.11,1.94-.17s1.6-.15,2.79-.24c1-.07,2.55-.2,3.46-.28l1.48-.13.69-.05h.24l.11,0a.84.84,0,0,0,.29-.21,1,1,0,0,0,.22-.58c0-.12,0-.21,0-.29l.28,0,1,0,1.33,0,1-.06c.49,0,.81-.06,1.14-.06l.55,0c.44,0,1.2-.08,2.59-.2l-.27-.24,0,.51v.49a1.4,1.4,0,0,0,.11.37.76.76,0,0,0,.31.34.66.66,0,0,0,.28.09h.21l.38,0h.16l.09,0a.75.75,0,0,0,.29-.16l.1-.12,0,0a.1.1,0,0,1-.05,0,.08.08,0,0,1,0,0,.06.06,0,0,1,0,0s0,0,0,0h0s0,0,0,0l.06.06a.71.71,0,0,0,.14.1.62.62,0,0,0,.19.07h.18l.15,0a.55.55,0,0,0,.18-.06.82.82,0,0,0,.27-.25v0h0l0,0,0,0s0,0,0,0l0,0s0,0,0,.06a.86.86,0,0,0,.14.13.66.66,0,0,0,.41.1l.16,0a.49.49,0,0,0,.21-.08.64.64,0,0,0,.15-.13.27.27,0,0,0,.07-.08l0,0s0,0,0,0a.12.12,0,0,1-.05-.08.18.18,0,0,1,0,.06l0,0s0,0,0,0l.08.07a.68.68,0,0,0,.19.11.59.59,0,0,0,.23,0h.17c.32,0,.6-.39.42-.43,0,0,0,0-.05.07s0,0,0,0v0l0,0,.09.08a.68.68,0,0,0,.21.1l.13,0h.18l.12,0a1.13,1.13,0,0,0,.22-.11,1.1,1.1,0,0,0,.15-.16l0-.05h0l0-.06s0,0,0,0l-.05.06h0l0,0,0,0a.68.68,0,0,0,.45.18l.19,0a.5.5,0,0,0,.24-.09.63.63,0,0,0,.17-.15l.07-.09h0l0,0,0,0s0-.06,0,0l0,0h0s0,0,0,0,0,0,0,0a.66.66,0,0,0,.45.21l4.16-.36h0a2.25,2.25,0,0,0,.66-.16,2.32,2.32,0,0,0,.68-.42,3.44,3.44,0,0,0,.94-1.35l-.22.16,6.22-.55,2.83-.23,1.31-.1-.31-.27a.88.88,0,0,0,.06.26.58.58,0,0,0,.2.24.67.67,0,0,0,.26.09h.18l.43,0,.47-.05.28,0,.36,0h.06l.12,0a.55.55,0,0,0,.22-.14.78.78,0,0,0,.21-.46l-.36.23.36-.23h0l-.36.23h0a.2.2,0,0,0,.11,0l.41,0,.17,0h.23a.61.61,0,0,0,.34-.19.93.93,0,0,0,.18-.32,1.06,1.06,0,0,0,0-.35v-.29l0-.61,0-.66a1.22,1.22,0,0,0-.07-.42.73.73,0,0,0-.37-.39.44.44,0,0,0-.26,0l.29.24,0-.53-.24.28.4,0,.2,0h.13l.17-.07a.84.84,0,0,0,.33-.48,1.07,1.07,0,0,0,0-.25v-.2l-.06-1.37V36.2a.64.64,0,0,0,0-.2.84.84,0,0,0-.2-.37.58.58,0,0,0-.42-.18h-.26l-.71.06.29.25,0-.48,0-.75v-.16a.68.68,0,0,0-.07-.23.6.6,0,0,0-.17-.19.44.44,0,0,0-.28-.07.59.59,0,0,0-.34.15.82.82,0,0,0-.17.22,1.09,1.09,0,0,0-.09.23.52.52,0,0,0,0,.11l0,.08a2.59,2.59,0,0,1-.13.47.68.68,0,0,1-.31.39h-.14l-.27,0-.64,0-1.68.14-3,.24c-.75,0-1.73.14-3.18.29l-5.52.56-4.57.49-1.71.17-1.79.18c-3.83.42-7.83.82-8.32.87l-.82.09H149c.1.25-.13-.35-.11-.29h0a1.36,1.36,0,0,0-.17-.17,1.11,1.11,0,0,0-.26-.18l-.33-.13a1.11,1.11,0,0,0-.58,0c-.25.08-.28.11-.26.24s0,.15.31.18a1.06,1.06,0,0,1,.55.25,1.51,1.51,0,0,1,.21.23l0,0h0c0,.1-.06-.14-.05-.11h.25l.84-.07,1.32-.1c.83-.07,2.28-.19,4.19-.33l1.44-.1c.78-.08,1.79-.16,2.83-.23l1.39-.08,2.35-.16c1.72-.13,2-.15,2.24-.19s.58-.07,4-.33c3-.24,3.78-.3,4.13-.31.62,0,1.83-.1,2.54-.19s1.79-.18,3.32-.26l1.35-.09h.17l.19,0a1,1,0,0,0,.47-.21,1.53,1.53,0,0,0,.47-.78,2.21,2.21,0,0,0,.07-.3l0-.16,0-.15a.2.2,0,0,1,0-.13h-.07l-.06,0s0,0,0,0V35l0,.8a.35.35,0,0,0,.36.33h0l.56,0,.3,0h0a.24.24,0,0,1,0,.17l0,.86,0,.79V38l0,.09,0,0h-.08l-.55.06h0a.33.33,0,0,0-.3.36l.05.52.35.31s0,0,0,0a.15.15,0,0,1,0,.09s0,0,0,.06v.32l0,.83,0,.37v.28a.26.26,0,0,1-.06.13s0,0,0,0h0l-.72.06.15,0h0a.35.35,0,0,0-.44.21s0,0,0,.06v0s0,.12,0,.07l-.8.07-.59.05H180s0,0,0,0,0,0,0,0l-.39-.34-5.26.45-4.42.38-.55.05h-.12l-.31.23h0v.05l-.05.1,0,0,0-.07,0-.05v-.06h0l.32-.24a.11.11,0,0,0-.13-.17l0,0-.15.37a2.8,2.8,0,0,1-.72,1.07,1.81,1.81,0,0,1-.64.38,1.41,1.41,0,0,1-.34.07h0a.3.3,0,0,1,.09,0h0l0,0a.51.51,0,0,0-.09-.13.52.52,0,0,0-.36-.14.43.43,0,0,0-.22.07.59.59,0,0,0-.18.17l0,.07h-.15l0,0s0,0,0,0l-.1-.08a.54.54,0,0,0-.29-.07.58.58,0,0,0-.3.08.74.74,0,0,0-.18.17l0,0,0,0h-.09l0,0a.58.58,0,0,0-.29-.16.56.56,0,0,0-.37.07.53.53,0,0,0-.2.2.08.08,0,0,1,0,0h-.1s0,0,0,0l0,0h0l0-.06a.58.58,0,0,0-.34-.13.48.48,0,0,0-.36.13.35.35,0,0,0-.1.11l0,0,0,0h-.09l0,0,0,0-.07-.07a.41.41,0,0,0-.21-.1.51.51,0,0,0-.47.13l-.06.07,0,.05v0l0,0H162l0,0a.55.55,0,0,0-.43-.2.51.51,0,0,0-.41.24.3.3,0,0,1-.07.08H161l0,0h0l0,0a.43.43,0,0,0-.2-.14.53.53,0,0,0-.28,0,.45.45,0,0,0-.23.11.6.6,0,0,0-.08.08l0,.06,0,0s0,0,0,0h-.12l0,0h0l0,0a.56.56,0,0,0-.44-.17.52.52,0,0,0-.37.24l0,0h0s0,0,0,0h-.14l0,0h0l0,0,0,0a.64.64,0,0,0-.16-.11.51.51,0,0,0-.42,0,.58.58,0,0,0-.15.11l-.05.06,0,0a.12.12,0,0,1-.06,0h-.13l0,0a.56.56,0,0,0-.16-.14.53.53,0,0,0-.49,0l-.16.13,0,0,0,0h0a.07.07,0,0,1,0,0h-.09l-.28,0h-.31a.29.29,0,0,1-.1-.17s0,0,0-.07V44.8l0-.33c0-.19,0-.32,0-.36v0a.34.34,0,0,0-.36-.29l-.17,0a9.31,9.31,0,0,1-1.34.13l-1.29.13c-.73.08-1.76.22-3,.4l-1.9.29-.51.07c-.15,0-.42,0-.34.22a.39.39,0,0,1-.07.27l0,0h-.18l-4.74.4-5.13.42c-1,.07-2,.15-2.91.23l-1.17.11c-.34,0-.64.07-.89.12a10.56,10.56,0,0,0-3.08,1l-.37.21-.2.12-.19.14a3.91,3.91,0,0,0-.41.3l-.39.34a7.7,7.7,0,0,0-1.21,1.42l-.21.33-.2.33a3.58,3.58,0,0,0-.25.42l-.16.27-.17.34a11.88,11.88,0,0,0-.49,1.1c-.06.16-.11.32-.16.47a.82.82,0,0,1-.11.23.48.48,0,0,1-.11.09s-.07,0-.16,0L123,52.63a1.71,1.71,0,0,0-1-.39,1.57,1.57,0,0,0-.92.28l-.72.48-.43.26c-.52.31-2.34,1.52-3,2s-.67.48-1.68,1.11a15.93,15.93,0,0,0-1.63,1.09,21.74,21.74,0,0,1-2.25,1.46c-.7.44-1.43.94-1.75,1.2a5.57,5.57,0,0,1-1,.64,5.74,5.74,0,0,0-.86.55l-.25.17,0,0h0a.06.06,0,0,1,.06,0s.06,0,0,0,0,0,0-.06,0,0,0,0V61.3l0-.3a3.34,3.34,0,0,0-.06-.51c-.11-.69-.23-1.55-.28-2.05a20.5,20.5,0,0,0-.72-3.35c-.19-.64-.29-1-.4-1.4a3.66,3.66,0,0,0-.25-.79,3.09,3.09,0,0,1-.36-1,3.85,3.85,0,0,0-.37-1.08,2.38,2.38,0,0,1-.13-.29.65.65,0,0,1-.06-.21.87.87,0,0,1,.1-.52.53.53,0,0,1,.22-.21l.58-.15a8.41,8.41,0,0,0,.93-.29,4.19,4.19,0,0,1,1.07-.29,7.28,7.28,0,0,0,1.41-.36,25,25,0,0,1,2.42-.64c.48-.1,1-.24,2.75-.71,1.46-.39,2.23-.6,2.38-.66a1.65,1.65,0,0,1,.45-.11Z"/><path class="cls-88" d="M107.94,59.25s0,.1,0,.14.07.06,0,.12a.18.18,0,0,0,0,.21s0,.05,0,.06a.25.25,0,0,0,0,.08.26.26,0,0,1,0,.12c0,.12,0,.14,0,.19a.18.18,0,0,1,0,.18s0,0,0,.07,0,0,0,.08a0,0,0,0,0,0,.07s0,0,0,0v0a.29.29,0,0,1,0,.1l0,.12a.11.11,0,0,1,0,.07s0,0,0,.08a.23.23,0,0,1,0,.12.09.09,0,0,0,0,.08c.06.06.12.08.29.07a.38.38,0,0,0,.2,0l.07,0v-.11a.76.76,0,0,1,0-.16.13.13,0,0,0,0-.1s0,0,0-.09a.2.2,0,0,0,0-.08l0-.2c0-.13,0-.18,0-.21s0-.05,0-.07,0-.15,0-.17,0-.06,0-.14a1,1,0,0,1-.1-.17.11.11,0,0,1,0-.06.14.14,0,0,0,0-.13.28.28,0,0,1,0-.13s0,0,0-.08a1.57,1.57,0,0,1-.06-.3c0-.25,0-.25,0-.28s0,0,0-.13,0-.1,0-.11,0,0-.06-.23a.65.65,0,0,0,0-.17.08.08,0,0,1,0-.08.07.07,0,0,0,0-.07.08.08,0,0,1,0-.08.41.41,0,0,0,0-.07l-.05-.19c0-.13,0-.16,0-.19s0-.05,0-.07a.11.11,0,0,1,0-.07l0-.08s0-.05,0-.07,0-.06,0-.08a1,1,0,0,1-.07-.42s0-.05,0-.12a.35.35,0,0,1-.06-.3.24.24,0,0,0-.05-.24.15.15,0,0,1-.06-.09,3.31,3.31,0,0,0-.07-.39,3.72,3.72,0,0,1-.07-.39.31.31,0,0,0,0-.13.4.4,0,0,1,0-.18c0-.07,0-.17,0-.23a.38.38,0,0,1,0-.17v-.15a.17.17,0,0,0,0-.09l0,0s0-.05,0-.08a2.33,2.33,0,0,0-.06-.24c0-.15-.09-.33-.14-.53-.11-.4-.25-.82-.3-1s0-.1,0-.19a.49.49,0,0,0,0-.17,1.67,1.67,0,0,1-.12-.32l-.13-.37c0-.07,0-.09,0-.13s0-.12,0-.29a1,1,0,0,1,0-.2.43.43,0,0,0-.07-.21c0-.07-.1-.23-.15-.35a1.06,1.06,0,0,0-.13-.28c0-.06,0-.07,0-.12a.14.14,0,0,0,0-.12,1.49,1.49,0,0,1-.19-.55s0-.1,0-.09H106a.52.52,0,0,0-.2.07.46.46,0,0,0-.18.11c-.06,0-.1.11-.08.13a.11.11,0,0,1,0,.06.07.07,0,0,0,0,.08.44.44,0,0,1,.08.26c0,.06,0,.08,0,.09a.17.17,0,0,1,.1.16s0,.08,0,.1a.27.27,0,0,0,0,.15c0,.11.05.12.08.12s0,0,.12.23.07.24.06.27a.15.15,0,0,0,0,.16c.06,0,.07.1.06.21a.41.41,0,0,0,0,.19s0,.15.06.22a.44.44,0,0,0,.07.22.45.45,0,0,1,.1.27,5.11,5.11,0,0,0,.15.55c.13.42.15.49.14.54s0,.1.06.16a2.81,2.81,0,0,1,.18.52c0,.11,0,.21.07.21s0,.05,0,.08a4.37,4.37,0,0,0,.15.83c0,.14,0,.29,0,.33a.42.42,0,0,0,.09.32.15.15,0,0,1,0,.19.25.25,0,0,0,0,.24s0,0,0,.12a.33.33,0,0,0,0,.14s.11.28.12.31a.1.1,0,0,0,0,0,.32.32,0,0,0,.05.23s0,.05,0,.13,0,.09,0,.13,0,0,0,.17a.1.1,0,0,0,0,.13s0,0,0,.08,0,.06,0,.07,0,0,0,.06,0,0,0,.07.07.09,0,.13a.25.25,0,0,0,0,.22.09.09,0,0,1,0,.1s0,0,0,.05.08,0,0,.06-.05.05,0,.08,0,0,0,.09,0,.13,0,.14.06,0,0,.08,0,.06,0,.09a.13.13,0,0,1,0,.16s0,.07,0,.19,0,.15,0,.16,0,0,0,0Z"/></svg>