<?xml version="1.0" encoding="utf-8"?>
<!-- Generator: Adobe Illustrator 21.0.2, SVG Export Plug-In . SVG Version: 6.00 Build 0)  -->
<svg version="1.0" xmlns="http://www.w3.org/2000/svg" xmlns:xlink="http://www.w3.org/1999/xlink" x="0px" y="0px"
	 viewBox="0 0 780 255" style="enable-background:new 0 0 780 255;" xml:space="preserve">
<style type="text/css">
	.st0{display:none;}
	.st1{display:inline;fill:#5C6770;}
	.st2{display:inline;fill:#EEEEEE;}
	.st3{display:inline;}
	.st4{fill:#5C6770;}
	.st5{fill:#911E5E;}
	.st6{display:inline;fill:#D6D6D6;}
	.st7{display:inline;fill:#911E5E;}
	.st8{fill:#EEEEEE;}
	.st9{fill:#F9ACAD;}
</style>
<g id="레이어_1" class="st0">
	<rect x="105" y="44" class="st1" width="620" height="1"/>
	<rect x="105" y="85" class="st2" width="620" height="1"/>
	<rect x="105" y="126" class="st2" width="620" height="1"/>
	<rect x="105" y="167" class="st2" width="620" height="1"/>
	<rect x="105" y="208" class="st2" width="620" height="1"/>
	<rect x="105" y="249" class="st2" width="620" height="1"/>
	<g class="st3">
		<path class="st4" d="M54.5,8.9c2,0,3.1,0.9,3.1,2.6c0,1.4-1,2.3-2.6,2.5l2.6,3.4h-2l-2.4-3.3h-0.5v3.3H51V8.9H54.5z M52.7,10.4
			v2.1h1.8c0.9,0,1.4-0.3,1.4-1c0-0.7-0.5-1-1.4-1H52.7z"/>
		<path class="st4" d="M63.8,14.3c0,0.2,0,0.4,0,0.5h-4.1c0.2,0.8,0.8,1.2,1.5,1.2c0.5,0,1-0.2,1.5-0.6l0.9,1
			c-0.7,0.6-1.5,0.9-2.5,0.9c-1.8,0-3-1.2-3-3c0-1.8,1.2-3.1,2.9-3.1C62.6,11.3,63.8,12.5,63.8,14.3z M59.7,13.8h2.6
			c-0.1-0.7-0.6-1.2-1.3-1.2C60.2,12.6,59.8,13.1,59.7,13.8z"/>
		<path class="st4" d="M68.9,12V8.6h1.6v8.6h-1.5v-0.6c-0.4,0.5-0.9,0.8-1.7,0.8c-1.6,0-2.8-1.3-2.8-3.1c0-1.7,1.2-3.1,2.8-3.1
			C68,11.3,68.5,11.6,68.9,12z M66,14.3c0,0.9,0.6,1.6,1.5,1.6c0.9,0,1.5-0.7,1.5-1.6s-0.6-1.6-1.5-1.6C66.5,12.7,66,13.5,66,14.3z"
			/>
		<path class="st4" d="M77.2,14.8c0,1.8-1.3,2.6-2.7,2.6c-1.5,0-2.8-0.8-2.8-2.6v-3.3h1.6v3.2c0,0.9,0.5,1.3,1.2,1.3
			c0.7,0,1.2-0.4,1.2-1.3v-3.2h1.6V14.8z"/>
		<path class="st4" d="M83.5,12.4l-1.1,0.9c-0.4-0.4-0.7-0.6-1.2-0.6c-0.8,0-1.5,0.6-1.5,1.6c0,1,0.6,1.6,1.5,1.6
			c0.5,0,0.9-0.2,1.3-0.6l1.1,1c-0.5,0.7-1.4,1.1-2.3,1.1c-1.9,0-3.1-1.3-3.1-3.1c0-1.8,1.2-3.1,3.1-3.1
			C82.1,11.3,82.9,11.7,83.5,12.4z"/>
		<path class="st4" d="M88.5,12.8h-2.1V15c0,0.7,0.4,1,0.9,1c0.4,0,0.8-0.2,1.1-0.4l0.6,1.2c-0.5,0.3-1.1,0.6-1.9,0.6
			c-1.4,0-2.2-0.8-2.2-2.3v-2.2h-1.1v-1.4h1.1V9.7h1.6v1.7h2.1V12.8z"/>
		<path class="st4" d="M91.3,9.5c0,0.6-0.4,1-1,1c-0.6,0-1-0.4-1-1c0-0.6,0.4-1,1-1C90.9,8.5,91.3,9,91.3,9.5z M91.1,17.2h-1.6v-5.8
			h1.6V17.2z"/>
		<path class="st4" d="M98.3,14.3c0,1.8-1.3,3.1-3.1,3.1c-1.8,0-3.1-1.3-3.1-3.1c0-1.8,1.3-3.1,3.1-3.1C97,11.3,98.3,12.6,98.3,14.3
			z M93.6,14.3c0,0.9,0.7,1.6,1.5,1.6c0.9,0,1.5-0.7,1.5-1.6c0-0.9-0.7-1.6-1.5-1.6C94.3,12.7,93.6,13.4,93.6,14.3z"/>
		<path class="st4" d="M104.7,13.5v3.7h-1.6v-3.2c0-0.8-0.4-1.3-1.1-1.3c-0.7,0-1.2,0.4-1.2,1.3v3.2h-1.6v-5.8h1.5v0.7
			c0.4-0.6,1-0.8,1.7-0.8C103.8,11.3,104.7,12.2,104.7,13.5z"/>
		<path class="st4" d="M114.5,14.3c0,1.8-1.3,3.1-3.1,3.1c-1.8,0-3.1-1.3-3.1-3.1c0-1.8,1.3-3.1,3.1-3.1
			C113.2,11.3,114.5,12.6,114.5,14.3z M109.8,14.3c0,0.9,0.7,1.6,1.5,1.6c0.9,0,1.5-0.7,1.5-1.6c0-0.9-0.7-1.6-1.5-1.6
			C110.5,12.7,109.8,13.4,109.8,14.3z"/>
		<path class="st4" d="M119.3,12.8h-1.8v4.4h-1.6v-4.4h-1.1v-1.4h1.1v-0.7c0-1.4,0.7-2.3,2.1-2.3c0.8,0,1.3,0.2,1.8,0.5l-0.6,1.2
			c-0.3-0.2-0.6-0.3-1-0.3c-0.4,0-0.7,0.3-0.7,0.8v0.7h1.8V12.8z"/>
		<path class="st4" d="M126.9,12.8h-2.1V15c0,0.7,0.4,1,0.9,1c0.4,0,0.8-0.2,1.1-0.4l0.6,1.2c-0.5,0.3-1.1,0.6-1.9,0.6
			c-1.4,0-2.2-0.8-2.2-2.3v-2.2h-1.1v-1.4h1.1V9.7h1.6v1.7h2.1V12.8z"/>
		<path class="st4" d="M129.4,12.1c0.4-0.6,1-0.8,1.7-0.8c1.3,0,2.3,0.9,2.3,2.3v3.7h-1.6v-3.2c0-0.8-0.4-1.3-1.1-1.3
			c-0.7,0-1.2,0.4-1.2,1.3v3.2h-1.6V8.6h1.6V12.1z"/>
		<path class="st4" d="M140,14.3c0,0.2,0,0.4,0,0.5h-4.1c0.2,0.8,0.8,1.2,1.5,1.2c0.5,0,1-0.2,1.5-0.6l0.9,1
			c-0.7,0.6-1.5,0.9-2.5,0.9c-1.8,0-3-1.2-3-3c0-1.8,1.2-3.1,2.9-3.1C138.9,11.3,140,12.5,140,14.3z M135.9,13.8h2.6
			c-0.1-0.7-0.6-1.2-1.3-1.2C136.4,12.6,136,13.1,135.9,13.8z"/>
		<path class="st4" d="M72,24.8h-2.6v6.8h-1.7v-6.8h-2.6v-1.6H72V24.8z"/>
		<path class="st4" d="M79.1,31.6h-6.3v-8.4H79v1.5h-4.6v1.9h4.3v1.5h-4.3v1.9h4.6V31.6z"/>
		<path class="st4" d="M89.8,31.6h-2l-1.8-6l-1.8,6h-2l-2.5-8.4h1.7l1.8,6.4l1.9-6.4H87l1.9,6.4l1.8-6.4h1.7L89.8,31.6z"/>
		<path class="st4" d="M99.3,31.6h-6.1v-8.4h1.7v6.8h4.4V31.6z"/>
		<path class="st4" d="M104.1,23.9c0,0.6-0.4,1-1,1c-0.6,0-1-0.4-1-1c0-0.6,0.4-1,1-1C103.7,22.9,104.1,23.4,104.1,23.9z
			 M103.9,31.6h-1.6v-5.8h1.6V31.6z"/>
		<path class="st4" d="M110.7,27.9v3.7h-1.6v-3.2c0-0.8-0.4-1.3-1.1-1.3c-0.7,0-1.2,0.4-1.2,1.3v3.2h-1.6v-5.8h1.5v0.7
			c0.4-0.6,1-0.8,1.7-0.8C109.7,25.7,110.7,26.6,110.7,27.9z"/>
		<path class="st4" d="M118.8,25.4c0,1.3-1,2.3-2.3,2.3c-1.3,0-2.3-1-2.3-2.3c0-1.3,1-2.3,2.3-2.3C117.8,23.1,118.8,24.1,118.8,25.4
			z M115.5,25.4c0,0.6,0.4,1,1,1c0.6,0,1-0.4,1-1c0-0.6-0.4-1-1-1C115.9,24.4,115.5,24.8,115.5,25.4z M117.6,31.6H116l5.6-8.4h1.6
			L117.6,31.6z M125.1,29.5c0,1.3-1,2.3-2.3,2.3c-1.3,0-2.3-1-2.3-2.3c0-1.3,1-2.3,2.3-2.3C124.1,27.2,125.1,28.2,125.1,29.5z
			 M121.8,29.5c0,0.6,0.4,1,1,1c0.6,0,1-0.4,1-1c0-0.6-0.4-1-1-1C122.2,28.5,121.8,28.9,121.8,29.5z"/>
	</g>
	<g class="st3">
		<path class="st4" d="M263.7,108.2h-1.8l-0.7-2h-3.6l-0.7,2h-1.7l3.3-8.4h2L263.7,108.2z M258.2,104.8h2.4l-1.2-3.2L258.2,104.8z"
			/>
		<path class="st4" d="M265.9,108.2h-1.6v-8.6h1.6V108.2z"/>
		<path class="st4" d="M271.1,103.8h-1.8v4.4h-1.6v-4.4h-1.1v-1.4h1.1v-0.7c0-1.4,0.7-2.3,2.1-2.3c0.8,0,1.3,0.2,1.8,0.5l-0.6,1.2
			c-0.3-0.2-0.6-0.3-1-0.3c-0.4,0-0.7,0.3-0.7,0.8v0.7h1.8V103.8z"/>
		<path class="st4" d="M277.4,108.2h-1.5v-0.6c-0.4,0.5-0.9,0.8-1.7,0.8c-1.6,0-2.8-1.3-2.8-3.1c0-1.7,1.2-3.1,2.8-3.1
			c0.8,0,1.4,0.3,1.7,0.8v-0.6h1.5V108.2z M272.9,105.3c0,0.9,0.6,1.6,1.5,1.6c0.9,0,1.5-0.7,1.5-1.6s-0.6-1.6-1.5-1.6
			C273.5,103.7,272.9,104.5,272.9,105.3z"/>
		<path class="st4" d="M282.9,104.1c-0.5-0.2-1.2-0.5-1.9-0.5c-0.6,0-0.9,0.2-0.9,0.5c0,0.3,0.4,0.4,0.9,0.5l0.5,0.1
			c1.3,0.2,2,0.8,2,1.7c0,1.2-1,2-2.7,2c-0.8,0-1.8-0.1-2.6-0.7l0.6-1.2c0.5,0.3,1.1,0.6,2,0.6c0.7,0,1.1-0.2,1.1-0.5
			c0-0.3-0.3-0.4-1-0.5l-0.5-0.1c-1.3-0.2-2-0.8-2-1.8c0-1.2,0.9-1.9,2.5-1.9c0.9,0,1.7,0.2,2.4,0.6L282.9,104.1z"/>
		<path class="st4" d="M290.3,105.3c0,1.8-1.3,3.1-3.1,3.1c-1.8,0-3.1-1.3-3.1-3.1c0-1.8,1.3-3.1,3.1-3.1
			C289,102.3,290.3,103.6,290.3,105.3z M285.6,105.3c0,0.9,0.7,1.6,1.5,1.6c0.9,0,1.5-0.7,1.5-1.6c0-0.9-0.7-1.6-1.5-1.6
			C286.3,103.7,285.6,104.4,285.6,105.3z"/>
		<path class="st4" d="M296.7,104.5v3.7h-1.6v-3.2c0-0.8-0.4-1.3-1.1-1.3c-0.7,0-1.2,0.4-1.2,1.3v3.2h-1.6v-5.8h1.5v0.7
			c0.4-0.6,1-0.8,1.7-0.8C295.8,102.3,296.7,103.2,296.7,104.5z"/>
		<path class="st4" d="M304.3,99.9c2,0,3.1,0.9,3.1,2.6c0,1.4-1,2.3-2.6,2.5l2.6,3.4h-2l-2.4-3.3h-0.5v3.3h-1.7v-8.4H304.3z
			 M302.4,101.4v2.1h1.8c0.9,0,1.4-0.3,1.4-1c0-0.7-0.5-1-1.4-1H302.4z"/>
		<path class="st4" d="M313.5,105.3c0,0.2,0,0.4,0,0.5h-4.1c0.2,0.8,0.8,1.2,1.5,1.2c0.5,0,1-0.2,1.5-0.6l0.9,1
			c-0.7,0.6-1.5,0.9-2.5,0.9c-1.8,0-3-1.2-3-3c0-1.8,1.2-3.1,2.9-3.1C312.4,102.3,313.5,103.5,313.5,105.3z M309.4,104.8h2.6
			c-0.1-0.7-0.6-1.2-1.3-1.2C310,103.6,309.5,104.1,309.4,104.8z"/>
		<path class="st4" d="M320.5,105.3c0,1.7-1.2,3.1-2.8,3.1c-0.8,0-1.3-0.3-1.7-0.8v3h-1.6v-8.2h1.5v0.6c0.4-0.5,0.9-0.8,1.7-0.8
			C319.3,102.3,320.5,103.6,320.5,105.3z M315.9,105.3c0,0.9,0.6,1.6,1.5,1.6c0.9,0,1.5-0.7,1.5-1.6c0-0.9-0.6-1.6-1.5-1.6
			C316.6,103.7,315.9,104.4,315.9,105.3z"/>
		<path class="st4" d="M327.2,108.2h-1.5v-0.6c-0.4,0.5-0.9,0.8-1.7,0.8c-1.6,0-2.8-1.3-2.8-3.1c0-1.7,1.2-3.1,2.8-3.1
			c0.8,0,1.4,0.3,1.7,0.8v-0.6h1.5V108.2z M322.7,105.3c0,0.9,0.6,1.6,1.5,1.6c0.9,0,1.5-0.7,1.5-1.6s-0.6-1.6-1.5-1.6
			C323.3,103.7,322.7,104.5,322.7,105.3z"/>
		<path class="st4" d="M330.2,100.5c0,0.6-0.4,1-1,1c-0.6,0-1-0.4-1-1c0-0.6,0.4-1,1-1C329.8,99.5,330.2,100,330.2,100.5z
			 M330,108.2h-1.6v-5.8h1.6V108.2z"/>
		<path class="st4" d="M335.3,102.4l-0.2,1.6c-0.3-0.1-0.6-0.2-0.9-0.2c-0.7,0-1.2,0.4-1.2,1.3v3.2h-1.6v-5.8h1.5v0.6
			c0.4-0.5,0.9-0.8,1.6-0.8C334.8,102.3,335.1,102.3,335.3,102.4z"/>
	</g>
	<g class="st3">
		<path class="st5" d="M493.5,183.2H492l-4.3-5.6l0,5.6H486v-8.4h1.6l4.3,5.6v-5.6h1.7V183.2z"/>
		<path class="st5" d="M500.3,180.3c0,0.2,0,0.4,0,0.5h-4.1c0.2,0.8,0.8,1.2,1.5,1.2c0.5,0,1-0.2,1.5-0.6l0.9,1
			c-0.7,0.6-1.5,0.9-2.5,0.9c-1.8,0-3-1.2-3-3c0-1.8,1.2-3.1,2.9-3.1C499.2,177.3,500.3,178.5,500.3,180.3z M496.2,179.8h2.6
			c-0.1-0.7-0.6-1.2-1.3-1.2C496.8,178.6,496.3,179.1,496.2,179.8z"/>
		<path class="st5" d="M506.7,180.8c0,1.8-1.3,2.6-2.7,2.6c-1.5,0-2.8-0.8-2.8-2.6v-3.3h1.6v3.2c0,0.9,0.5,1.3,1.2,1.3
			c0.7,0,1.2-0.4,1.2-1.3v-3.2h1.6V180.8z"/>
		<path class="st5" d="M511.9,177.4l-0.2,1.6c-0.3-0.1-0.6-0.2-0.9-0.2c-0.7,0-1.2,0.4-1.2,1.3v3.2H508v-5.8h1.5v0.6
			c0.4-0.5,0.9-0.8,1.6-0.8C511.4,177.3,511.7,177.3,511.9,177.4z"/>
		<path class="st5" d="M518.4,180.3c0,1.8-1.3,3.1-3.1,3.1c-1.8,0-3.1-1.3-3.1-3.1c0-1.8,1.3-3.1,3.1-3.1
			C517,177.3,518.4,178.6,518.4,180.3z M513.7,180.3c0,0.9,0.7,1.6,1.5,1.6c0.9,0,1.5-0.7,1.5-1.6s-0.7-1.6-1.5-1.6
			C514.3,178.7,513.7,179.4,513.7,180.3z"/>
		<path class="st5" d="M523.4,178v-3.4h1.6v8.6h-1.5v-0.6c-0.4,0.5-0.9,0.8-1.7,0.8c-1.6,0-2.8-1.3-2.8-3.1c0-1.7,1.2-3.1,2.8-3.1
			C522.5,177.3,523.1,177.6,523.4,178z M520.5,180.3c0,0.9,0.6,1.6,1.5,1.6c0.9,0,1.5-0.7,1.5-1.6s-0.6-1.6-1.5-1.6
			C521.1,178.7,520.5,179.5,520.5,180.3z"/>
		<path class="st5" d="M531.7,180.3c0,0.2,0,0.4,0,0.5h-4.1c0.2,0.8,0.8,1.2,1.5,1.2c0.5,0,1-0.2,1.5-0.6l0.9,1
			c-0.7,0.6-1.5,0.9-2.5,0.9c-1.8,0-3-1.2-3-3c0-1.8,1.2-3.1,2.9-3.1C530.5,177.3,531.7,178.5,531.7,180.3z M527.6,179.8h2.6
			c-0.1-0.7-0.6-1.2-1.3-1.2C528.1,178.6,527.7,179.1,527.6,179.8z"/>
		<path class="st5" d="M536.6,177.4l-0.2,1.6c-0.3-0.1-0.6-0.2-0.9-0.2c-0.7,0-1.2,0.4-1.2,1.3v3.2h-1.6v-5.8h1.5v0.6
			c0.4-0.5,0.9-0.8,1.6-0.8C536.1,177.3,536.4,177.3,536.6,177.4z"/>
		<path class="st5" d="M546.7,179.5v3.7h-1.6v-3.2c0-0.8-0.4-1.3-1.1-1.3c-0.7,0-1.2,0.4-1.2,1.3v3.2h-1.6v-3.2
			c0-0.8-0.4-1.3-1.1-1.3c-0.7,0-1.2,0.4-1.2,1.3v3.2h-1.6v-5.8h1.5v0.7c0.4-0.6,1-0.8,1.7-0.8c0.8,0,1.5,0.4,1.9,1
			c0.5-0.7,1.2-1,2-1C545.8,177.3,546.7,178.2,546.7,179.5z"/>
		<path class="st5" d="M554.2,174.9c2,0,3.1,0.9,3.1,2.6c0,1.4-1,2.3-2.6,2.5l2.6,3.4h-2l-2.4-3.3h-0.5v3.3h-1.7v-8.4H554.2z
			 M552.4,176.4v2.1h1.8c0.9,0,1.4-0.3,1.4-1c0-0.7-0.5-1-1.4-1H552.4z"/>
		<path class="st5" d="M563.5,180.3c0,0.2,0,0.4,0,0.5h-4.1c0.2,0.8,0.8,1.2,1.5,1.2c0.5,0,1-0.2,1.5-0.6l0.9,1
			c-0.7,0.6-1.5,0.9-2.5,0.9c-1.8,0-3-1.2-3-3c0-1.8,1.2-3.1,2.9-3.1C562.4,177.3,563.5,178.5,563.5,180.3z M559.4,179.8h2.6
			c-0.1-0.7-0.6-1.2-1.3-1.2C559.9,178.6,559.5,179.1,559.4,179.8z"/>
		<path class="st5" d="M570.5,180.3c0,1.7-1.2,3.1-2.8,3.1c-0.8,0-1.3-0.3-1.7-0.8v3h-1.6v-8.2h1.5v0.6c0.4-0.5,0.9-0.8,1.7-0.8
			C569.3,177.3,570.5,178.6,570.5,180.3z M565.9,180.3c0,0.9,0.6,1.6,1.5,1.6c0.9,0,1.5-0.7,1.5-1.6c0-0.9-0.6-1.6-1.5-1.6
			C566.5,178.7,565.9,179.4,565.9,180.3z"/>
		<path class="st5" d="M577.2,183.2h-1.5v-0.6c-0.4,0.5-0.9,0.8-1.7,0.8c-1.6,0-2.8-1.3-2.8-3.1c0-1.7,1.2-3.1,2.8-3.1
			c0.8,0,1.4,0.3,1.7,0.8v-0.6h1.5V183.2z M572.7,180.3c0,0.9,0.6,1.6,1.5,1.6c0.9,0,1.5-0.7,1.5-1.6s-0.6-1.6-1.5-1.6
			C573.3,178.7,572.7,179.5,572.7,180.3z"/>
		<path class="st5" d="M580.2,175.5c0,0.6-0.4,1-1,1s-1-0.4-1-1s0.4-1,1-1S580.2,175,580.2,175.5z M580,183.2h-1.6v-5.8h1.6V183.2z"
			/>
		<path class="st5" d="M585.3,177.4L585,179c-0.3-0.1-0.6-0.2-0.9-0.2c-0.7,0-1.2,0.4-1.2,1.3v3.2h-1.6v-5.8h1.5v0.6
			c0.4-0.5,0.9-0.8,1.6-0.8C584.8,177.3,585.1,177.3,585.3,177.4z"/>
	</g>
	<g class="st3">
		<path class="st4" d="M580,23.2v-1.6h0.8v1.6l1.5-0.5l0.2,0.7l-1.5,0.5l0.9,1.3l-0.6,0.4l-0.9-1.3l-0.9,1.3l-0.6-0.4l0.9-1.3
			l-1.5-0.5l0.2-0.7L580,23.2z"/>
		<path class="st4" d="M589.4,27.4c0,1.7-1.3,3-2.8,3c-0.9,0-1.6-0.3-2-0.9v3.2h-1v-8.1h1v0.8c0.4-0.5,1.1-0.9,2-0.9
			C588.1,24.4,589.4,25.7,589.4,27.4z M584.4,27.4c0,1.2,0.8,2.1,2,2.1c1.2,0,2-0.9,2-2.1c0-1.1-0.8-2-2-2
			C585.2,25.4,584.4,26.2,584.4,27.4z"/>
		<path class="st4" d="M595.6,29.8l-4.8-2.2v-1l4.8-2.2v1l-3.8,1.7l3.8,1.7V29.8z"/>
		<path class="st4" d="M607,26.1c0,2.7-1.6,4.3-3.5,4.3c-1.9,0-3.5-1.6-3.5-4.3c0-2.7,1.6-4.3,3.5-4.3C605.5,21.7,607,23.4,607,26.1
			z M601.1,26.1c0,2.2,1.1,3.3,2.4,3.3c1.3,0,2.4-1.2,2.4-3.3s-1.1-3.3-2.4-3.3C602.2,22.7,601.1,23.9,601.1,26.1z"/>
		<path class="st4" d="M609.5,28.7l-0.6,3.1H608l0.3-3.1H609.5z"/>
		<path class="st4" d="M617.5,26.1c0,2.7-1.6,4.3-3.5,4.3c-1.9,0-3.5-1.6-3.5-4.3c0-2.7,1.6-4.3,3.5-4.3
			C616,21.7,617.5,23.4,617.5,26.1z M611.6,26.1c0,2.2,1.1,3.3,2.4,3.3c1.3,0,2.4-1.2,2.4-3.3s-1.1-3.3-2.4-3.3
			C612.7,22.7,611.6,23.9,611.6,26.1z"/>
		<path class="st4" d="M623.8,22.8h-3.7l-0.1,2.4h1.2c2,0,2.9,1.1,2.9,2.5c0,1.7-1.3,2.7-2.9,2.7c-1.2,0-2.2-0.4-2.9-1.3l0.7-0.7
			c0.5,0.6,1.4,1,2.2,1c1.2,0,1.8-0.8,1.8-1.6c0-0.9-0.6-1.6-2.2-1.6h-1.9l0.1-4.3h4.6V22.8z"/>
		<path class="st4" d="M631,30.3h-1.2l-2.4-5.7h1.1l1.9,4.7l1.9-4.7h1L631,30.3z"/>
		<path class="st4" d="M638.1,25.8c-0.4-0.2-1.1-0.5-1.8-0.5c-0.8,0-1.3,0.3-1.3,0.8c0,0.5,0.4,0.7,1.1,0.7l0.7,0.1
			c1.2,0.2,1.9,0.7,1.9,1.6c0,1.1-1,1.8-2.5,1.8c-0.7,0-1.6-0.2-2.4-0.7l0.5-0.7c0.4,0.3,1,0.6,1.9,0.6c0.9,0,1.5-0.3,1.5-0.9
			c0-0.4-0.4-0.7-1.1-0.8l-0.7-0.1c-1.3-0.2-1.9-0.7-1.9-1.6c0-1.1,0.9-1.8,2.3-1.8c0.9,0,1.7,0.2,2.3,0.6L638.1,25.8z"/>
		<path class="st4" d="M641.2,29.5c0,0.4-0.4,0.8-0.8,0.8s-0.8-0.4-0.8-0.8c0-0.4,0.4-0.8,0.8-0.8S641.2,29.1,641.2,29.5z"/>
		<path class="st4" d="M652.6,30.2h-1.1l-0.9-2.3h-4.1l-0.9,2.3h-1.1l3.4-8.4h1.3L652.6,30.2z M646.9,27h3.3l-1.6-4.1L646.9,27z"/>
		<path class="st4" d="M654.5,30.2h-1v-8.6h1V30.2z"/>
		<path class="st4" d="M659.9,25.4h-2.2v4.8h-1v-4.8h-1.3v-0.9h1.3v-1c0-1.2,0.6-2.1,1.9-2.1c0.6,0,1.2,0.2,1.6,0.4l-0.4,0.8
			c-0.3-0.2-0.7-0.3-1.1-0.3c-0.7,0-1,0.4-1,1.2v1h2.2V25.4z"/>
		<path class="st4" d="M666.2,30.2h-1v-0.8c-0.4,0.5-1.1,0.9-2,0.9c-1.6,0-2.8-1.2-2.8-3c0-1.7,1.2-3,2.8-3c0.9,0,1.6,0.3,2,0.9
			v-0.8h1V30.2z M661.3,27.4c0,1.1,0.8,2.1,2,2.1c1.2,0,2-0.9,2-2.1c0-1.2-0.8-2-2-2C662.1,25.4,661.3,26.3,661.3,27.4z"/>
		<path class="st4" d="M671.7,25.8c-0.4-0.2-1.1-0.5-1.8-0.5c-0.8,0-1.3,0.3-1.3,0.8c0,0.5,0.4,0.7,1.1,0.7l0.7,0.1
			c1.2,0.2,1.9,0.7,1.9,1.6c0,1.1-1,1.8-2.5,1.8c-0.7,0-1.6-0.2-2.4-0.7l0.5-0.7c0.4,0.3,1,0.6,1.9,0.6c0.9,0,1.5-0.3,1.5-0.9
			c0-0.4-0.4-0.7-1.1-0.8l-0.7-0.1c-1.3-0.2-1.9-0.7-1.9-1.6c0-1.1,0.9-1.8,2.3-1.8c0.9,0,1.7,0.2,2.3,0.6L671.7,25.8z"/>
		<path class="st4" d="M679.1,27.4c0,1.7-1.3,3-3,3s-3-1.3-3-3c0-1.7,1.3-3,3-3S679.1,25.7,679.1,27.4z M674.1,27.4
			c0,1.2,0.9,2.1,2,2.1c1.1,0,2-0.9,2-2.1s-0.9-2-2-2C674.9,25.4,674.1,26.2,674.1,27.4z"/>
		<path class="st4" d="M685.6,26.7v3.5h-1V27c0-1-0.6-1.7-1.6-1.7c-0.9,0-1.7,0.6-1.7,1.7v3.2h-1v-5.7h1v0.7
			c0.5-0.6,1.2-0.9,1.9-0.9C684.6,24.4,685.6,25.3,685.6,26.7z"/>
		<path class="st4" d="M693.6,21.9c1.9,0,2.9,0.9,2.9,2.4c0,1.5-1.1,2.4-2.9,2.4h-0.1l3,3.6h-1.3l-2.9-3.6h-1v3.6h-1.1v-8.4H693.6z
			 M691.3,22.8v2.8h2.3c1.2,0,1.9-0.5,1.9-1.4c0-0.9-0.6-1.4-1.9-1.4H691.3z"/>
		<path class="st4" d="M702.8,27.4c0,0.1,0,0.3,0,0.4h-4.5c0.1,1.2,1,1.8,1.9,1.8c0.7,0,1.3-0.3,1.8-0.7l0.5,0.7
			c-0.7,0.7-1.5,0.9-2.3,0.9c-1.7,0-2.9-1.2-2.9-3c0-1.8,1.2-3,2.8-3C701.6,24.4,702.8,25.6,702.8,27.4z M698.3,27h3.5
			c-0.1-1-0.8-1.7-1.7-1.7C699.1,25.3,698.4,26,698.3,27z"/>
		<path class="st4" d="M709.9,27.4c0,1.7-1.3,3-2.8,3c-0.9,0-1.6-0.3-2-0.9v3.2h-1v-8.1h1v0.8c0.4-0.5,1.1-0.9,2-0.9
			C708.6,24.4,709.9,25.7,709.9,27.4z M705,27.4c0,1.2,0.8,2.1,2,2.1c1.2,0,2-0.9,2-2.1c0-1.1-0.8-2-2-2
			C705.8,25.4,705,26.2,705,27.4z"/>
		<path class="st4" d="M716.6,30.2h-1v-0.8c-0.5,0.5-1.1,0.9-2,0.9c-1.6,0-2.8-1.2-2.8-3c0-1.7,1.2-3,2.8-3c0.9,0,1.6,0.3,2,0.9
			v-0.8h1V30.2z M711.8,27.4c0,1.1,0.8,2.1,2,2.1c1.2,0,2-0.9,2-2.1c0-1.2-0.8-2-2-2C712.5,25.4,711.8,26.3,711.8,27.4z"/>
		<path class="st4" d="M719.5,22.6c0,0.4-0.3,0.7-0.7,0.7s-0.7-0.3-0.7-0.7c0-0.4,0.3-0.7,0.7-0.7S719.5,22.2,719.5,22.6z
			 M719.3,30.2h-1v-5.7h1V30.2z"/>
		<path class="st4" d="M724.7,24.6l-0.2,1c-0.3-0.1-0.7-0.2-1-0.2c-0.9,0-1.5,0.7-1.5,1.7v3.2h-1v-5.7h1v0.7c0.4-0.6,1-0.9,1.7-0.9
			C724,24.4,724.4,24.5,724.7,24.6z"/>
	</g>
	<g class="st3">
		<path class="st4" d="M88.8,46.5h-3.4v-0.9h3.4V46.5z"/>
		<path class="st4" d="M92.6,49.2h-1v-7l-2.4,1v-1.1l3.4-1.5V49.2z"/>
		<path class="st4" d="M101.2,45.1c0,2.7-1.6,4.3-3.5,4.3c-1.9,0-3.5-1.6-3.5-4.3c0-2.7,1.6-4.3,3.5-4.3
			C99.6,40.7,101.2,42.4,101.2,45.1z M95.3,45.1c0,2.2,1.1,3.3,2.4,3.3c1.3,0,2.4-1.2,2.4-3.3s-1.1-3.3-2.4-3.3
			C96.4,41.7,95.3,42.9,95.3,45.1z"/>
	</g>
	<g class="st3">
		<path class="st4" d="M88.8,86.5h-3.4v-0.9h3.4V86.5z"/>
		<path class="st4" d="M92.6,89.2h-1v-7l-2.4,1v-1.1l3.4-1.5V89.2z"/>
		<path class="st4" d="M99.3,81.8h-3.7l-0.1,2.4h1.2c2,0,2.9,1.1,2.9,2.5c0,1.7-1.3,2.7-2.9,2.7c-1.2,0-2.2-0.4-2.9-1.3l0.7-0.7
			c0.5,0.6,1.4,1,2.2,1c1.2,0,1.8-0.8,1.8-1.6c0-0.9-0.6-1.6-2.2-1.6h-1.9l0.1-4.3h4.6V81.8z"/>
	</g>
	<g class="st3">
		<path class="st4" d="M88.8,127.5h-3.4v-0.9h3.4V127.5z"/>
		<path class="st4" d="M89.3,123.1c0.4-0.6,1.1-1.4,2.6-1.4c1.7,0,2.7,1.1,2.7,2.6c0,1-0.6,1.8-1.1,2.4l-2.4,2.6h3.8v1h-5.3v-0.8
			l3.1-3.3c0.5-0.5,0.8-1.1,0.8-1.8c0-0.9-0.6-1.6-1.7-1.6c-0.9,0-1.4,0.5-1.8,1L89.3,123.1z"/>
		<path class="st4" d="M102.8,126.1c0,2.7-1.6,4.3-3.5,4.3c-1.9,0-3.5-1.6-3.5-4.3c0-2.7,1.6-4.3,3.5-4.3
			C101.2,121.7,102.8,123.4,102.8,126.1z M96.9,126.1c0,2.2,1.1,3.3,2.4,3.3c1.3,0,2.4-1.2,2.4-3.3s-1.1-3.3-2.4-3.3
			C97.9,122.7,96.9,123.9,96.9,126.1z"/>
	</g>
	<g class="st3">
		<path class="st4" d="M88.8,169.5h-3.4v-0.9h3.4V169.5z"/>
		<path class="st4" d="M89.3,165.1c0.4-0.6,1.1-1.4,2.6-1.4c1.7,0,2.7,1.1,2.7,2.6c0,1-0.6,1.8-1.1,2.4l-2.4,2.6h3.8v1h-5.3v-0.8
			l3.1-3.3c0.5-0.5,0.8-1.1,0.8-1.8c0-0.9-0.6-1.6-1.7-1.6c-0.9,0-1.4,0.5-1.8,1L89.3,165.1z"/>
		<path class="st4" d="M100.9,164.8h-3.7l-0.1,2.4h1.2c2,0,2.9,1.1,2.9,2.5c0,1.7-1.3,2.7-2.9,2.7c-1.2,0-2.2-0.4-2.9-1.3l0.7-0.7
			c0.5,0.6,1.4,1,2.2,1c1.2,0,1.8-0.8,1.8-1.6c0-0.9-0.6-1.6-2.2-1.6h-1.9l0.1-4.3h4.6V164.8z"/>
	</g>
	<rect x="245" y="45" class="st6" width="100" height="50"/>
	<rect x="486" y="45" class="st7" width="100" height="123"/>
</g>
<g id="레이어_2">
	<rect x="105" y="44" class="st4" width="620" height="1"/>
	<rect x="105" y="85" class="st8" width="620" height="1"/>
	<rect x="105" y="126" class="st8" width="620" height="1"/>
	<rect x="105" y="167" class="st8" width="620" height="1"/>
	<rect x="105" y="208" class="st8" width="620" height="1"/>
	<rect x="105" y="249" class="st8" width="620" height="1"/>
	<rect x="505" y="45" class="st9" width="60" height="138"/>
	<rect x="384" y="45" class="st9" width="60" height="116"/>
	<rect x="265" y="45" class="st9" width="60" height="69"/>
	<g>
		<path class="st4" d="M65,8.9c2,0,3.1,0.9,3.1,2.6c0,1.4-1,2.3-2.6,2.5l2.6,3.4h-2l-2.4-3.3h-0.5v3.3h-1.7V8.9H65z M63.1,10.4v2.1
			h1.8c0.9,0,1.4-0.3,1.4-1c0-0.7-0.5-1-1.4-1H63.1z"/>
		<path class="st4" d="M74.2,14.3c0,0.2,0,0.4,0,0.5h-4.1c0.2,0.8,0.8,1.2,1.5,1.2c0.5,0,1-0.2,1.5-0.6l0.9,1
			c-0.7,0.6-1.5,0.9-2.5,0.9c-1.8,0-3-1.2-3-3c0-1.8,1.2-3.1,2.9-3.1C73.1,11.3,74.2,12.5,74.2,14.3z M70.1,13.8h2.6
			c-0.1-0.7-0.6-1.2-1.3-1.2C70.7,12.6,70.2,13.1,70.1,13.8z"/>
		<path class="st4" d="M79.3,12V8.6h1.6v8.6h-1.5v-0.6c-0.4,0.5-0.9,0.8-1.7,0.8c-1.6,0-2.8-1.3-2.8-3.1c0-1.7,1.2-3.1,2.8-3.1
			C78.4,11.3,78.9,11.6,79.3,12z M76.4,14.3c0,0.9,0.6,1.6,1.5,1.6c0.9,0,1.5-0.7,1.5-1.6s-0.6-1.6-1.5-1.6
			C77,12.7,76.4,13.5,76.4,14.3z"/>
		<path class="st4" d="M87.6,14.8c0,1.8-1.3,2.6-2.7,2.6c-1.5,0-2.8-0.8-2.8-2.6v-3.3h1.6v3.2c0,0.9,0.5,1.3,1.2,1.3
			c0.7,0,1.2-0.4,1.2-1.3v-3.2h1.6V14.8z"/>
		<path class="st4" d="M93.9,12.4l-1.1,0.9c-0.4-0.4-0.7-0.6-1.2-0.6c-0.8,0-1.5,0.6-1.5,1.6c0,1,0.6,1.6,1.5,1.6
			c0.5,0,0.9-0.2,1.3-0.6l1.1,1c-0.5,0.7-1.4,1.1-2.3,1.1c-1.9,0-3.1-1.3-3.1-3.1c0-1.8,1.2-3.1,3.1-3.1
			C92.6,11.3,93.4,11.7,93.9,12.4z"/>
		<path class="st4" d="M99,12.8h-2.1V15c0,0.7,0.4,1,0.9,1c0.4,0,0.8-0.2,1.1-0.4l0.6,1.2c-0.5,0.3-1.1,0.6-1.9,0.6
			c-1.4,0-2.2-0.8-2.2-2.3v-2.2h-1.1v-1.4h1.1V9.7h1.6v1.7H99V12.8z"/>
		<path class="st4" d="M101.8,9.5c0,0.6-0.4,1-1,1c-0.6,0-1-0.4-1-1c0-0.6,0.4-1,1-1C101.3,8.5,101.8,9,101.8,9.5z M101.6,17.2H100
			v-5.8h1.6V17.2z"/>
		<path class="st4" d="M108.8,14.3c0,1.8-1.3,3.1-3.1,3.1c-1.8,0-3.1-1.3-3.1-3.1c0-1.8,1.3-3.1,3.1-3.1
			C107.4,11.3,108.8,12.6,108.8,14.3z M104.1,14.3c0,0.9,0.7,1.6,1.5,1.6c0.9,0,1.5-0.7,1.5-1.6c0-0.9-0.7-1.6-1.5-1.6
			C104.7,12.7,104.1,13.4,104.1,14.3z"/>
		<path class="st4" d="M115.2,13.5v3.7h-1.6v-3.2c0-0.8-0.4-1.3-1.1-1.3c-0.7,0-1.2,0.4-1.2,1.3v3.2h-1.6v-5.8h1.5v0.7
			c0.4-0.6,1-0.8,1.7-0.8C114.2,11.3,115.2,12.2,115.2,13.5z"/>
		<path class="st4" d="M124.9,14.3c0,1.8-1.3,3.1-3.1,3.1c-1.8,0-3.1-1.3-3.1-3.1c0-1.8,1.3-3.1,3.1-3.1
			C123.6,11.3,124.9,12.6,124.9,14.3z M120.3,14.3c0,0.9,0.7,1.6,1.5,1.6c0.9,0,1.5-0.7,1.5-1.6c0-0.9-0.7-1.6-1.5-1.6
			C120.9,12.7,120.3,13.4,120.3,14.3z"/>
		<path class="st4" d="M129.7,12.8h-1.8v4.4h-1.6v-4.4h-1.1v-1.4h1.1v-0.7c0-1.4,0.7-2.3,2.1-2.3c0.8,0,1.3,0.2,1.8,0.5l-0.6,1.2
			c-0.3-0.2-0.6-0.3-1-0.3c-0.4,0-0.7,0.3-0.7,0.8v0.7h1.8V12.8z"/>
		<path class="st4" d="M66,23.9c0,0.6-0.4,1-1,1c-0.6,0-1-0.4-1-1c0-0.6,0.4-1,1-1C65.5,22.9,66,23.4,66,23.9z M65.7,31.6h-1.6v-5.8
			h1.6V31.6z"/>
		<path class="st4" d="M71.2,27.2h-2.1v2.1c0,0.7,0.4,1,0.9,1c0.4,0,0.8-0.2,1.1-0.4l0.6,1.2c-0.5,0.3-1.1,0.6-1.9,0.6
			c-1.4,0-2.2-0.8-2.2-2.3v-2.2h-1.1v-1.4h1.1v-1.7h1.6v1.7h2.1V27.2z"/>
		<path class="st4" d="M77.3,26.8l-1.1,0.9c-0.4-0.4-0.7-0.6-1.2-0.6c-0.8,0-1.5,0.6-1.5,1.6c0,1,0.6,1.6,1.5,1.6
			c0.5,0,0.9-0.2,1.3-0.6l1.1,1c-0.5,0.7-1.4,1.1-2.3,1.1c-1.9,0-3.1-1.3-3.1-3.1c0-1.8,1.2-3.1,3.1-3.1
			C75.9,25.7,76.7,26.1,77.3,26.8z"/>
		<path class="st4" d="M79.6,26.5c0.4-0.6,1-0.8,1.7-0.8c1.3,0,2.3,0.9,2.3,2.3v3.7H82v-3.2c0-0.8-0.4-1.3-1.1-1.3
			c-0.7,0-1.2,0.4-1.2,1.3v3.2H78V23h1.6V26.5z"/>
		<path class="st4" d="M86.5,23.9c0,0.6-0.4,1-1,1c-0.6,0-1-0.4-1-1c0-0.6,0.4-1,1-1C86.1,22.9,86.5,23.4,86.5,23.9z M86.3,31.6
			h-1.6v-5.8h1.6V31.6z"/>
		<path class="st4" d="M93.1,27.9v3.7h-1.6v-3.2c0-0.8-0.4-1.3-1.1-1.3c-0.7,0-1.2,0.4-1.2,1.3v3.2h-1.6v-5.8h1.5v0.7
			c0.4-0.6,1-0.8,1.7-0.8C92.2,25.7,93.1,26.6,93.1,27.9z"/>
		<path class="st4" d="M98.5,26.5v-0.6h1.5v5.3c0,1.9-1.2,3-3.1,3c-0.9,0-1.9-0.2-2.5-0.7l0.6-1.3c0.6,0.4,1.2,0.6,1.9,0.6
			c1,0,1.7-0.5,1.7-1.5v-0.4c-0.4,0.5-1,0.8-1.8,0.8c-1.4,0-2.7-1.2-2.7-3c0-1.8,1.3-3,2.7-3C97.5,25.7,98.1,26,98.5,26.5z
			 M95.6,28.7c0,0.8,0.6,1.5,1.5,1.5c0.9,0,1.5-0.7,1.5-1.5c0-0.9-0.6-1.5-1.5-1.5C96.2,27.1,95.6,27.8,95.6,28.7z"/>
		<path class="st4" d="M105.7,23.9c0,0.6-0.4,1-1,1c-0.6,0-1-0.4-1-1c0-0.6,0.4-1,1-1C105.2,22.9,105.7,23.4,105.7,23.9z
			 M105.5,31.6h-1.6v-5.8h1.6V31.6z"/>
		<path class="st4" d="M112.2,27.9v3.7h-1.6v-3.2c0-0.8-0.4-1.3-1.1-1.3c-0.7,0-1.2,0.4-1.2,1.3v3.2h-1.6v-5.8h1.5v0.7
			c0.4-0.6,1-0.8,1.7-0.8C111.3,25.7,112.2,26.6,112.2,27.9z"/>
		<path class="st4" d="M120.4,25.4c0,1.3-1,2.3-2.3,2.3c-1.3,0-2.3-1-2.3-2.3c0-1.3,1-2.3,2.3-2.3C119.4,23.1,120.4,24.1,120.4,25.4
			z M117,25.4c0,0.6,0.4,1,1,1c0.6,0,1-0.4,1-1c0-0.6-0.4-1-1-1C117.5,24.4,117,24.8,117,25.4z M119.2,31.6h-1.6l5.6-8.4h1.6
			L119.2,31.6z M126.7,29.5c0,1.3-1,2.3-2.3,2.3c-1.3,0-2.3-1-2.3-2.3c0-1.3,1-2.3,2.3-2.3C125.7,27.2,126.7,28.2,126.7,29.5z
			 M123.3,29.5c0,0.6,0.4,1,1,1c0.6,0,1-0.4,1-1c0-0.6-0.4-1-1-1C123.8,28.5,123.3,28.9,123.3,29.5z"/>
	</g>
	<g>
		<path class="st5" d="M258.8,128.2h-1.5v-0.6c-0.4,0.5-0.9,0.8-1.7,0.8c-1.6,0-2.8-1.3-2.8-3.1c0-1.7,1.2-3.1,2.8-3.1
			c0.8,0,1.4,0.3,1.7,0.8v-0.6h1.5V128.2z M254.3,125.3c0,0.9,0.6,1.6,1.5,1.6c0.9,0,1.5-0.7,1.5-1.6s-0.6-1.6-1.5-1.6
			C254.9,123.7,254.3,124.5,254.3,125.3z"/>
		<path class="st5" d="M264,123.8h-1.8v4.4h-1.6v-4.4h-1.1v-1.4h1.1v-0.7c0-1.4,0.7-2.3,2.1-2.3c0.8,0,1.3,0.2,1.8,0.5l-0.6,1.2
			c-0.3-0.2-0.6-0.3-1-0.3c-0.4,0-0.7,0.3-0.7,0.8v0.7h1.8V123.8z"/>
		<path class="st5" d="M268.9,123.8h-2.1v2.1c0,0.7,0.4,1,0.9,1c0.4,0,0.8-0.2,1.1-0.4l0.6,1.2c-0.5,0.3-1.1,0.6-1.9,0.6
			c-1.4,0-2.2-0.8-2.2-2.3v-2.2h-1.1v-1.4h1.1v-1.7h1.6v1.7h2.1V123.8z"/>
		<path class="st5" d="M275.3,125.3c0,0.2,0,0.4,0,0.5h-4.1c0.2,0.8,0.8,1.2,1.5,1.2c0.5,0,1-0.2,1.5-0.6l0.9,1
			c-0.7,0.6-1.5,0.9-2.5,0.9c-1.8,0-3-1.2-3-3c0-1.8,1.2-3.1,2.9-3.1C274.1,122.3,275.3,123.5,275.3,125.3z M271.1,124.8h2.6
			c-0.1-0.7-0.6-1.2-1.3-1.2C271.7,123.6,271.3,124.1,271.1,124.8z"/>
		<path class="st5" d="M280.2,122.4l-0.2,1.6c-0.3-0.1-0.6-0.2-0.9-0.2c-0.7,0-1.2,0.4-1.2,1.3v3.2h-1.6v-5.8h1.5v0.6
			c0.4-0.5,0.9-0.8,1.6-0.8C279.7,122.3,279.9,122.3,280.2,122.4z"/>
		<path class="st5" d="M286.5,128.2h-1.6V122l-2,0.8v-1.6l3.6-1.5V128.2z"/>
		<path class="st5" d="M293.1,121.4h-3.4l0,1.7h1c2,0,2.9,1.1,2.9,2.5c0,1.8-1.4,2.8-3.1,2.8c-1.3,0-2.3-0.5-3-1.3l0.9-1.1
			c0.5,0.5,1.3,0.9,2.1,0.9c0.9,0,1.4-0.6,1.4-1.2c0-0.6-0.4-1.2-1.7-1.2h-2l0.1-4.6h4.8V121.4z"/>
		<path class="st5" d="M304,124.5v3.7h-1.6v-3.2c0-0.8-0.4-1.3-1.1-1.3c-0.7,0-1.2,0.4-1.2,1.3v3.2h-1.6v-3.2c0-0.8-0.4-1.3-1.1-1.3
			c-0.7,0-1.2,0.4-1.2,1.3v3.2h-1.6v-5.8h1.5v0.7c0.4-0.6,1-0.8,1.7-0.8c0.8,0,1.5,0.4,1.9,1c0.4-0.7,1.2-1,2-1
			C303.1,122.3,304,123.2,304,124.5z"/>
		<path class="st5" d="M307,120.5c0,0.6-0.4,1-1,1c-0.6,0-1-0.4-1-1c0-0.6,0.4-1,1-1C306.6,119.5,307,120,307,120.5z M306.8,128.2
			h-1.6v-5.8h1.6V128.2z"/>
		<path class="st5" d="M313.6,124.5v3.7H312v-3.2c0-0.8-0.4-1.3-1.1-1.3c-0.7,0-1.2,0.4-1.2,1.3v3.2h-1.6v-5.8h1.5v0.7
			c0.4-0.6,1-0.8,1.7-0.8C312.7,122.3,313.6,123.2,313.6,124.5z"/>
		<path class="st5" d="M320.3,125.8c0,1.8-1.3,2.6-2.7,2.6c-1.5,0-2.8-0.8-2.8-2.6v-3.3h1.6v3.2c0,0.9,0.5,1.3,1.2,1.3
			c0.7,0,1.2-0.4,1.2-1.3v-3.2h1.6V125.8z"/>
		<path class="st5" d="M325.7,123.8h-2.1v2.1c0,0.7,0.4,1,0.9,1c0.4,0,0.8-0.2,1.1-0.4l0.6,1.2c-0.5,0.3-1.1,0.6-1.9,0.6
			c-1.4,0-2.2-0.8-2.2-2.3v-2.2h-1.1v-1.4h1.1v-1.7h1.6v1.7h2.1V123.8z"/>
		<path class="st5" d="M332.1,125.3c0,0.2,0,0.4,0,0.5h-4.1c0.2,0.8,0.8,1.2,1.5,1.2c0.5,0,1-0.2,1.5-0.6l0.9,1
			c-0.7,0.6-1.5,0.9-2.5,0.9c-1.8,0-3-1.2-3-3c0-1.8,1.2-3.1,2.9-3.1C330.9,122.3,332.1,123.5,332.1,125.3z M327.9,124.8h2.6
			c-0.1-0.7-0.6-1.2-1.3-1.2C328.5,123.6,328.1,124.1,327.9,124.8z"/>
		<path class="st5" d="M337.1,124.1c-0.5-0.2-1.2-0.5-1.9-0.5c-0.6,0-0.9,0.2-0.9,0.5c0,0.3,0.4,0.4,0.9,0.5l0.5,0.1
			c1.3,0.2,2,0.8,2,1.7c0,1.2-1,2-2.7,2c-0.8,0-1.8-0.1-2.6-0.7l0.6-1.2c0.5,0.3,1.1,0.6,2,0.6c0.7,0,1.1-0.2,1.1-0.5
			c0-0.3-0.3-0.4-1-0.5l-0.5-0.1c-1.3-0.2-2-0.8-2-1.8c0-1.2,0.9-1.9,2.5-1.9c0.9,0,1.7,0.2,2.4,0.6L337.1,124.1z"/>
	</g>
	<g>
		<path class="st5" d="M494.7,197.2h-1.5v-0.6c-0.4,0.5-0.9,0.8-1.7,0.8c-1.6,0-2.8-1.3-2.8-3.1c0-1.7,1.2-3.1,2.8-3.1
			c0.8,0,1.4,0.3,1.7,0.8v-0.6h1.5V197.2z M490.2,194.3c0,0.9,0.6,1.6,1.5,1.6c0.9,0,1.5-0.7,1.5-1.6s-0.6-1.6-1.5-1.6
			C490.8,192.7,490.2,193.5,490.2,194.3z"/>
		<path class="st5" d="M499.9,192.8h-1.8v4.4h-1.6v-4.4h-1.1v-1.4h1.1v-0.7c0-1.4,0.7-2.3,2.1-2.3c0.8,0,1.3,0.2,1.8,0.5l-0.6,1.2
			c-0.3-0.2-0.6-0.3-1-0.3c-0.4,0-0.7,0.3-0.7,0.8v0.7h1.8V192.8z"/>
		<path class="st5" d="M504.8,192.8h-2.1v2.1c0,0.7,0.4,1,0.9,1c0.4,0,0.8-0.2,1.1-0.4l0.6,1.2c-0.5,0.3-1.1,0.6-1.9,0.6
			c-1.4,0-2.2-0.8-2.2-2.3v-2.2H500v-1.4h1.1v-1.7h1.6v1.7h2.1V192.8z"/>
		<path class="st5" d="M511.2,194.3c0,0.2,0,0.4,0,0.5H507c0.2,0.8,0.8,1.2,1.5,1.2c0.5,0,1.1-0.2,1.5-0.6l0.9,1
			c-0.7,0.6-1.5,0.9-2.5,0.9c-1.8,0-3-1.2-3-3c0-1.8,1.2-3.1,2.9-3.1C510,191.3,511.2,192.5,511.2,194.3z M507,193.8h2.6
			c-0.1-0.7-0.6-1.2-1.3-1.2C507.6,192.6,507.2,193.1,507,193.8z"/>
		<path class="st5" d="M516.1,191.4l-0.2,1.6c-0.3-0.1-0.6-0.2-0.9-0.2c-0.7,0-1.2,0.4-1.2,1.3v3.2h-1.6v-5.8h1.5v0.6
			c0.4-0.5,0.9-0.8,1.6-0.8C515.6,191.3,515.8,191.3,516.1,191.4z"/>
		<path class="st5" d="M522.4,197.2h-1.6V191l-2,0.8v-1.6l3.6-1.5V197.2z"/>
		<path class="st5" d="M526.4,191.8c0.1,0,0.2,0,0.4,0c1.7,0,2.9,1.2,2.9,2.8c0,1.6-1.4,2.9-3.2,2.9c-1.8,0-3.1-1.2-3.1-2.8
			c0-0.8,0.3-1.5,0.8-2.2l2.3-3.5h2L526.4,191.8z M525.1,194.6c0,0.8,0.6,1.4,1.5,1.4c0.8,0,1.5-0.6,1.5-1.4c0-0.8-0.6-1.4-1.5-1.4
			C525.7,193.2,525.1,193.7,525.1,194.6z"/>
		<path class="st5" d="M537.6,193.1c0,2.7-1.6,4.3-3.6,4.3c-2,0-3.6-1.6-3.6-4.3s1.6-4.3,3.6-4.3C536,188.7,537.6,190.3,537.6,193.1
			z M532.1,193.1c0,1.8,0.9,2.8,1.9,2.8c1.1,0,1.9-1,1.9-2.8c0-1.8-0.9-2.8-1.9-2.8C532.9,190.3,532.1,191.2,532.1,193.1z"/>
		<path class="st5" d="M548.1,193.5v3.7h-1.6v-3.2c0-0.8-0.4-1.3-1.1-1.3c-0.7,0-1.2,0.4-1.2,1.3v3.2h-1.6v-3.2
			c0-0.8-0.4-1.3-1.1-1.3c-0.7,0-1.2,0.4-1.2,1.3v3.2h-1.6v-5.8h1.5v0.7c0.4-0.6,1-0.8,1.7-0.8c0.8,0,1.5,0.4,1.9,1
			c0.5-0.7,1.2-1,2-1C547.2,191.3,548.1,192.2,548.1,193.5z"/>
		<path class="st5" d="M551.1,189.5c0,0.6-0.4,1-1,1c-0.6,0-1-0.4-1-1s0.4-1,1-1C550.7,188.5,551.1,189,551.1,189.5z M550.9,197.2
			h-1.6v-5.8h1.6V197.2z"/>
		<path class="st5" d="M557.7,193.5v3.7h-1.6v-3.2c0-0.8-0.4-1.3-1.1-1.3c-0.7,0-1.2,0.4-1.2,1.3v3.2h-1.6v-5.8h1.5v0.7
			c0.4-0.6,1-0.8,1.7-0.8C556.8,191.3,557.7,192.2,557.7,193.5z"/>
		<path class="st5" d="M564.4,194.8c0,1.8-1.3,2.6-2.7,2.6c-1.5,0-2.8-0.8-2.8-2.6v-3.3h1.6v3.2c0,0.9,0.5,1.3,1.2,1.3
			c0.7,0,1.2-0.4,1.2-1.3v-3.2h1.6V194.8z"/>
		<path class="st5" d="M569.8,192.8h-2.1v2.1c0,0.7,0.4,1,0.9,1c0.4,0,0.8-0.2,1.1-0.4l0.6,1.2c-0.5,0.3-1.1,0.6-1.9,0.6
			c-1.4,0-2.2-0.8-2.2-2.3v-2.2H565v-1.4h1.1v-1.7h1.6v1.7h2.1V192.8z"/>
		<path class="st5" d="M576.2,194.3c0,0.2,0,0.4,0,0.5H572c0.2,0.8,0.8,1.2,1.5,1.2c0.5,0,1.1-0.2,1.5-0.6l0.9,1
			c-0.7,0.6-1.5,0.9-2.5,0.9c-1.8,0-3-1.2-3-3c0-1.8,1.2-3.1,2.9-3.1C575,191.3,576.2,192.5,576.2,194.3z M572,193.8h2.6
			c-0.1-0.7-0.6-1.2-1.3-1.2C572.6,192.6,572.2,193.1,572,193.8z"/>
		<path class="st5" d="M581.2,193.1c-0.5-0.2-1.2-0.5-1.9-0.5c-0.6,0-0.9,0.2-0.9,0.5c0,0.3,0.4,0.4,0.9,0.5l0.5,0.1
			c1.3,0.2,2,0.8,2,1.7c0,1.2-1,2-2.7,2c-0.8,0-1.8-0.2-2.6-0.7l0.6-1.2c0.5,0.3,1.1,0.6,2,0.6c0.7,0,1.1-0.2,1.1-0.5
			c0-0.3-0.3-0.4-1-0.5l-0.5-0.1c-1.3-0.2-2-0.8-2-1.8c0-1.2,0.9-1.9,2.5-1.9c0.9,0,1.7,0.2,2.4,0.6L581.2,193.1z"/>
	</g>
	<g>
		<path class="st5" d="M373.8,181.2h-1.5v-0.6c-0.4,0.5-0.9,0.8-1.7,0.8c-1.6,0-2.8-1.3-2.8-3.1c0-1.7,1.2-3.1,2.8-3.1
			c0.8,0,1.4,0.3,1.7,0.8v-0.6h1.5V181.2z M369.3,178.3c0,0.9,0.6,1.6,1.5,1.6c0.9,0,1.5-0.7,1.5-1.6s-0.6-1.6-1.5-1.6
			C369.9,176.7,369.3,177.5,369.3,178.3z"/>
		<path class="st5" d="M379,176.8h-1.8v4.4h-1.6v-4.4h-1.1v-1.4h1.1v-0.7c0-1.4,0.7-2.3,2.1-2.3c0.8,0,1.3,0.2,1.8,0.5l-0.6,1.2
			c-0.3-0.2-0.6-0.3-1-0.3c-0.5,0-0.7,0.3-0.7,0.8v0.7h1.8V176.8z"/>
		<path class="st5" d="M383.9,176.8h-2.1v2.1c0,0.7,0.4,1,0.9,1c0.4,0,0.8-0.2,1.1-0.4l0.6,1.2c-0.5,0.3-1.1,0.6-1.9,0.6
			c-1.4,0-2.2-0.8-2.2-2.3v-2.2h-1.1v-1.4h1.1v-1.7h1.6v1.7h2.1V176.8z"/>
		<path class="st5" d="M390.3,178.3c0,0.2,0,0.4,0,0.5h-4.1c0.2,0.8,0.8,1.2,1.5,1.2c0.5,0,1-0.2,1.5-0.6l0.9,1
			c-0.7,0.6-1.5,0.9-2.5,0.9c-1.8,0-3-1.2-3-3c0-1.8,1.2-3.1,2.9-3.1C389.1,175.3,390.2,176.5,390.3,178.3z M386.1,177.8h2.6
			c-0.1-0.7-0.6-1.2-1.3-1.2C386.7,176.6,386.2,177.1,386.1,177.8z"/>
		<path class="st5" d="M395.1,175.4l-0.2,1.6c-0.3-0.1-0.6-0.2-0.9-0.2c-0.7,0-1.2,0.4-1.2,1.3v3.2h-1.6v-5.8h1.5v0.6
			c0.4-0.5,0.9-0.8,1.6-0.8C394.7,175.3,394.9,175.3,395.1,175.4z"/>
		<path class="st5" d="M401.5,181.2h-1.6V175l-2,0.8v-1.6l3.6-1.5V181.2z"/>
		<path class="st5" d="M402.5,174.2c0.5-0.6,1.3-1.4,2.9-1.4c1.8,0,2.8,1.1,2.8,2.7c0,1-0.5,1.7-1.2,2.5l-1.8,1.9h3.2v1.5h-5.5V180
			l3-3c0.4-0.5,0.7-0.9,0.7-1.4c0-0.7-0.5-1.3-1.3-1.3c-0.8,0-1.3,0.4-1.7,0.9L402.5,174.2z"/>
		<path class="st5" d="M416.4,177.1c0,2.7-1.6,4.3-3.6,4.3c-2,0-3.6-1.6-3.6-4.3s1.6-4.3,3.6-4.3
			C414.8,172.7,416.4,174.3,416.4,177.1z M410.8,177.1c0,1.8,0.9,2.8,1.9,2.8c1.1,0,1.9-1,1.9-2.8c0-1.8-0.9-2.8-1.9-2.8
			C411.7,174.3,410.8,175.2,410.8,177.1z"/>
		<path class="st5" d="M426.9,177.5v3.7h-1.6v-3.2c0-0.8-0.4-1.3-1.1-1.3c-0.7,0-1.2,0.4-1.2,1.3v3.2h-1.6v-3.2
			c0-0.8-0.4-1.3-1.1-1.3c-0.7,0-1.2,0.4-1.2,1.3v3.2h-1.6v-5.8h1.5v0.7c0.4-0.6,1-0.8,1.7-0.8c0.8,0,1.5,0.4,1.9,1
			c0.4-0.7,1.2-1,2-1C426,175.3,426.9,176.2,426.9,177.5z"/>
		<path class="st5" d="M429.9,173.5c0,0.6-0.4,1-1,1c-0.6,0-1-0.4-1-1s0.4-1,1-1C429.5,172.5,429.9,173,429.9,173.5z M429.7,181.2
			h-1.6v-5.8h1.6V181.2z"/>
		<path class="st5" d="M436.5,177.5v3.7h-1.6v-3.2c0-0.8-0.4-1.3-1.1-1.3c-0.7,0-1.2,0.4-1.2,1.3v3.2H431v-5.8h1.5v0.7
			c0.4-0.6,1-0.8,1.7-0.8C435.5,175.3,436.5,176.2,436.5,177.5z"/>
		<path class="st5" d="M443.2,178.8c0,1.8-1.3,2.6-2.7,2.6c-1.5,0-2.8-0.8-2.8-2.6v-3.3h1.6v3.2c0,0.9,0.5,1.3,1.2,1.3
			c0.7,0,1.2-0.4,1.2-1.3v-3.2h1.6V178.8z"/>
		<path class="st5" d="M448.6,176.8h-2.1v2.1c0,0.7,0.4,1,0.9,1c0.4,0,0.8-0.2,1.1-0.4l0.6,1.2c-0.5,0.3-1.1,0.6-1.9,0.6
			c-1.4,0-2.2-0.8-2.2-2.3v-2.2h-1.1v-1.4h1.1v-1.7h1.6v1.7h2.1V176.8z"/>
		<path class="st5" d="M455,178.3c0,0.2,0,0.4,0,0.5h-4.1c0.2,0.8,0.8,1.2,1.5,1.2c0.5,0,1-0.2,1.5-0.6l0.9,1
			c-0.7,0.6-1.5,0.9-2.5,0.9c-1.8,0-3-1.2-3-3c0-1.8,1.2-3.1,2.9-3.1C453.8,175.3,455,176.5,455,178.3z M450.8,177.8h2.6
			c-0.1-0.7-0.6-1.2-1.3-1.2C451.4,176.6,451,177.1,450.8,177.8z"/>
		<path class="st5" d="M460,177.1c-0.5-0.2-1.2-0.5-1.9-0.5c-0.6,0-0.9,0.2-0.9,0.5c0,0.3,0.4,0.4,0.9,0.5l0.5,0.1
			c1.3,0.2,2,0.8,2,1.7c0,1.2-1,2-2.7,2c-0.8,0-1.8-0.2-2.6-0.7l0.6-1.2c0.5,0.3,1.1,0.6,2,0.6c0.7,0,1.1-0.2,1.1-0.5
			c0-0.3-0.3-0.4-1-0.5l-0.5-0.1c-1.3-0.2-2-0.8-2-1.8c0-1.2,0.9-1.9,2.5-1.9c0.9,0,1.7,0.2,2.4,0.6L460,177.1z"/>
	</g>
	<g>
		<path class="st4" d="M674.2,23.2v-1.6h0.8v1.6l1.5-0.5l0.2,0.7l-1.5,0.5l0.9,1.3l-0.6,0.4l-0.9-1.3l-0.9,1.3l-0.6-0.4l0.9-1.3
			l-1.5-0.5l0.2-0.7L674.2,23.2z"/>
		<path class="st4" d="M683.6,27.4c0,1.7-1.3,3-2.8,3c-0.9,0-1.6-0.3-2-0.9v3.2h-1v-8.1h1v0.8c0.4-0.5,1.1-0.9,2-0.9
			C682.3,24.4,683.6,25.7,683.6,27.4z M678.7,27.4c0,1.2,0.8,2.1,2,2.1c1.2,0,2-0.9,2-2.1c0-1.1-0.8-2-2-2
			C679.5,25.4,678.7,26.2,678.7,27.4z"/>
		<path class="st4" d="M689.8,29.8l-4.8-2.2v-1l4.8-2.2v1l-3.8,1.7l3.8,1.7V29.8z"/>
		<path class="st4" d="M701.2,26.1c0,2.7-1.6,4.3-3.5,4.3c-1.9,0-3.5-1.6-3.5-4.3c0-2.7,1.6-4.3,3.5-4.3
			C699.7,21.7,701.2,23.4,701.2,26.1z M695.3,26.1c0,2.2,1.1,3.3,2.4,3.3c1.3,0,2.4-1.2,2.4-3.3s-1.1-3.3-2.4-3.3
			C696.4,22.7,695.3,23.9,695.3,26.1z"/>
		<path class="st4" d="M703.7,28.7l-0.6,3.1h-0.8l0.3-3.1H703.7z"/>
		<path class="st4" d="M711.7,26.1c0,2.7-1.6,4.3-3.5,4.3c-1.9,0-3.5-1.6-3.5-4.3c0-2.7,1.6-4.3,3.5-4.3
			C710.2,21.7,711.7,23.4,711.7,26.1z M705.8,26.1c0,2.2,1.1,3.3,2.4,3.3c1.3,0,2.4-1.2,2.4-3.3s-1.1-3.3-2.4-3.3
			C706.9,22.7,705.8,23.9,705.8,26.1z"/>
		<path class="st4" d="M719.9,26.1c0,2.7-1.6,4.3-3.5,4.3c-1.9,0-3.5-1.6-3.5-4.3c0-2.7,1.6-4.3,3.5-4.3
			C718.3,21.7,719.9,23.4,719.9,26.1z M714,26.1c0,2.2,1.1,3.3,2.4,3.3c1.3,0,2.4-1.2,2.4-3.3s-1.1-3.3-2.4-3.3
			C715.1,22.7,714,23.9,714,26.1z"/>
		<path class="st4" d="M724.1,30.2h-1v-7l-2.4,1v-1.1l3.4-1.5V30.2z"/>
	</g>
	<g>
		<path class="st4" d="M87.8,46.5h-3.4v-0.9h3.4V46.5z"/>
		<path class="st4" d="M91.6,49.2h-1v-7l-2.4,1v-1.1l3.4-1.5V49.2z"/>
		<path class="st4" d="M100.2,45.1c0,2.7-1.6,4.3-3.5,4.3c-1.9,0-3.5-1.6-3.5-4.3c0-2.7,1.6-4.3,3.5-4.3
			C98.6,40.7,100.2,42.4,100.2,45.1z M94.3,45.1c0,2.2,1.1,3.3,2.4,3.3c1.3,0,2.4-1.2,2.4-3.3s-1.1-3.3-2.4-3.3
			C95.4,41.7,94.3,42.9,94.3,45.1z"/>
	</g>
	<g>
		<path class="st4" d="M87.8,86.5h-3.4v-0.9h3.4V86.5z"/>
		<path class="st4" d="M88.3,82.1c0.4-0.6,1.1-1.4,2.6-1.4c1.7,0,2.7,1.1,2.7,2.6c0,1-0.6,1.8-1.1,2.4L90,88.3h3.8v1h-5.3v-0.8
			l3.1-3.3c0.5-0.5,0.8-1.1,0.8-1.8c0-0.9-0.6-1.6-1.7-1.6c-0.9,0-1.4,0.5-1.8,1L88.3,82.1z"/>
		<path class="st4" d="M101.8,85.1c0,2.7-1.6,4.3-3.5,4.3c-1.9,0-3.5-1.6-3.5-4.3c0-2.7,1.6-4.3,3.5-4.3
			C100.2,80.7,101.8,82.4,101.8,85.1z M95.9,85.1c0,2.2,1.1,3.3,2.4,3.3c1.3,0,2.4-1.2,2.4-3.3s-1.1-3.3-2.4-3.3
			C96.9,81.7,95.9,82.9,95.9,85.1z"/>
	</g>
	<g>
		<path class="st4" d="M87.8,127.5h-3.4v-0.9h3.4V127.5z"/>
		<path class="st4" d="M93.6,127.6H95v1h-1.4v1.7h-1v-1.7h-3.9v-0.8l3.1-5.9H93l-3.1,5.7h2.7v-2.3h1V127.6z"/>
		<path class="st4" d="M102.7,126.1c0,2.7-1.6,4.3-3.5,4.3c-1.9,0-3.5-1.6-3.5-4.3c0-2.7,1.6-4.3,3.5-4.3
			C101.1,121.7,102.7,123.4,102.7,126.1z M96.8,126.1c0,2.2,1.1,3.3,2.4,3.3c1.3,0,2.4-1.2,2.4-3.3s-1.1-3.3-2.4-3.3
			C97.9,122.7,96.8,123.9,96.8,126.1z"/>
	</g>
	<g>
		<path class="st4" d="M87.8,169.5h-3.4v-0.9h3.4V169.5z"/>
		<path class="st4" d="M91,167.1c0.2-0.1,0.5-0.2,1-0.2c1.6,0,2.8,1.2,2.8,2.7c0,1.6-1.3,2.7-3,2.7c-1.7,0-3-1.2-3-2.7
			c0-0.7,0.2-1.3,0.7-1.9l2.5-3.9h1.2L91,167.1z M89.9,169.6c0,1.1,0.8,1.8,1.9,1.8s1.9-0.7,1.9-1.8c0-1.1-0.8-1.8-1.9-1.8
			S89.9,168.6,89.9,169.6z"/>
		<path class="st4" d="M102.7,168.1c0,2.7-1.6,4.3-3.5,4.3c-1.9,0-3.5-1.6-3.5-4.3c0-2.7,1.6-4.3,3.5-4.3
			C101.1,163.7,102.7,165.4,102.7,168.1z M96.8,168.1c0,2.2,1.1,3.3,2.4,3.3c1.3,0,2.4-1.2,2.4-3.3c0-2.2-1.1-3.3-2.4-3.3
			C97.9,164.7,96.8,165.9,96.8,168.1z"/>
	</g>
</g>
</svg>
