<?xml version="1.0" encoding="utf-8"?>
<?xml-stylesheet type="text/css" href="../css/common.css"?>
<!-- Generator: Adobe Illustrator 21.0.2, SVG Export Plug-In . SVG Version: 6.00 Build 0)  -->
<svg version="1.0" id="레이어_1" xmlns="http://www.w3.org/2000/svg" xmlns:xlink="http://www.w3.org/1999/xlink" x="0px"
	 y="0px" viewBox="0 0 780 255" style="enable-background:new 0 0 780 255;" xml:space="preserve">
<style type="text/css">
	.st0{fill:#5C6770;}
	.st1{fill:#EEEEEE;}
	.st2{fill:#f9acad;}
	.st3{fill:#D6D6D6;}
</style>
<rect x="105" y="44" class="st0" width="620" height="1"/>
<rect x="105" y="85" class="st1" width="620" height="1"/>
<rect x="105" y="126" class="st1" width="620" height="1"/>
<rect x="105" y="167" class="st1" width="620" height="1"/>
<rect x="105" y="208" class="st1" width="620" height="1"/>
<rect x="105" y="249" class="st1" width="620" height="1"/>
<g>
	<path class="st0" d="M54.5,8.9c2,0,3.1,0.9,3.1,2.6c0,1.4-1,2.3-2.6,2.5l2.6,3.4h-2l-2.4-3.3h-0.5v3.3H51V8.9H54.5z M52.7,10.4v2.1
		h1.8c0.9,0,1.4-0.3,1.4-1c0-0.7-0.5-1-1.4-1H52.7z"/>
	<path class="st0" d="M63.8,14.3c0,0.2,0,0.4,0,0.5h-4.1c0.2,0.8,0.8,1.2,1.5,1.2c0.5,0,1-0.2,1.5-0.6l0.9,1
		c-0.7,0.6-1.5,0.9-2.5,0.9c-1.8,0-3-1.2-3-3c0-1.8,1.2-3.1,2.9-3.1C62.6,11.3,63.8,12.5,63.8,14.3z M59.7,13.8h2.6
		c-0.1-0.7-0.6-1.2-1.3-1.2C60.2,12.6,59.8,13.1,59.7,13.8z"/>
	<path class="st0" d="M68.9,12V8.6h1.6v8.6h-1.5v-0.6c-0.4,0.5-0.9,0.8-1.7,0.8c-1.6,0-2.8-1.3-2.8-3.1c0-1.7,1.2-3.1,2.8-3.1
		C68,11.3,68.5,11.6,68.9,12z M66,14.3c0,0.9,0.6,1.6,1.5,1.6c0.9,0,1.5-0.7,1.5-1.6s-0.6-1.6-1.5-1.6C66.5,12.7,66,13.5,66,14.3z"
		/>
	<path class="st0" d="M77.2,14.8c0,1.8-1.3,2.6-2.7,2.6c-1.5,0-2.8-0.8-2.8-2.6v-3.3h1.6v3.2c0,0.9,0.5,1.3,1.2,1.3
		c0.7,0,1.2-0.4,1.2-1.3v-3.2h1.6V14.8z"/>
	<path class="st0" d="M83.5,12.4l-1.1,0.9c-0.4-0.4-0.7-0.6-1.2-0.6c-0.8,0-1.5,0.6-1.5,1.6c0,1,0.6,1.6,1.5,1.6
		c0.5,0,0.9-0.2,1.3-0.6l1.1,1c-0.5,0.7-1.4,1.1-2.3,1.1c-1.9,0-3.1-1.3-3.1-3.1c0-1.8,1.2-3.1,3.1-3.1
		C82.1,11.3,82.9,11.7,83.5,12.4z"/>
	<path class="st0" d="M88.5,12.8h-2.1V15c0,0.7,0.4,1,0.9,1c0.4,0,0.8-0.2,1.1-0.4l0.6,1.2c-0.5,0.3-1.1,0.6-1.9,0.6
		c-1.4,0-2.2-0.8-2.2-2.3v-2.2h-1.1v-1.4h1.1V9.7h1.6v1.7h2.1V12.8z"/>
	<path class="st0" d="M91.3,9.5c0,0.6-0.4,1-1,1c-0.6,0-1-0.4-1-1c0-0.6,0.4-1,1-1C90.9,8.5,91.3,9,91.3,9.5z M91.1,17.2h-1.6v-5.8
		h1.6V17.2z"/>
	<path class="st0" d="M98.3,14.3c0,1.8-1.3,3.1-3.1,3.1c-1.8,0-3.1-1.3-3.1-3.1c0-1.8,1.3-3.1,3.1-3.1C97,11.3,98.3,12.6,98.3,14.3z
		 M93.6,14.3c0,0.9,0.7,1.6,1.5,1.6c0.9,0,1.5-0.7,1.5-1.6c0-0.9-0.7-1.6-1.5-1.6C94.3,12.7,93.6,13.4,93.6,14.3z"/>
	<path class="st0" d="M104.7,13.5v3.7h-1.6v-3.2c0-0.8-0.4-1.3-1.1-1.3c-0.7,0-1.2,0.4-1.2,1.3v3.2h-1.6v-5.8h1.5v0.7
		c0.4-0.6,1-0.8,1.7-0.8C103.8,11.3,104.7,12.2,104.7,13.5z"/>
	<path class="st0" d="M114.5,14.3c0,1.8-1.3,3.1-3.1,3.1c-1.8,0-3.1-1.3-3.1-3.1c0-1.8,1.3-3.1,3.1-3.1
		C113.2,11.3,114.5,12.6,114.5,14.3z M109.8,14.3c0,0.9,0.7,1.6,1.5,1.6c0.9,0,1.5-0.7,1.5-1.6c0-0.9-0.7-1.6-1.5-1.6
		C110.5,12.7,109.8,13.4,109.8,14.3z"/>
	<path class="st0" d="M119.3,12.8h-1.8v4.4h-1.6v-4.4h-1.1v-1.4h1.1v-0.7c0-1.4,0.7-2.3,2.1-2.3c0.8,0,1.3,0.2,1.8,0.5l-0.6,1.2
		c-0.3-0.2-0.6-0.3-1-0.3c-0.4,0-0.7,0.3-0.7,0.8v0.7h1.8V12.8z"/>
	<path class="st0" d="M126.9,12.8h-2.1V15c0,0.7,0.4,1,0.9,1c0.4,0,0.8-0.2,1.1-0.4l0.6,1.2c-0.5,0.3-1.1,0.6-1.9,0.6
		c-1.4,0-2.2-0.8-2.2-2.3v-2.2h-1.1v-1.4h1.1V9.7h1.6v1.7h2.1V12.8z"/>
	<path class="st0" d="M129.4,12.1c0.4-0.6,1-0.8,1.7-0.8c1.3,0,2.3,0.9,2.3,2.3v3.7h-1.6v-3.2c0-0.8-0.4-1.3-1.1-1.3
		c-0.7,0-1.2,0.4-1.2,1.3v3.2h-1.6V8.6h1.6V12.1z"/>
	<path class="st0" d="M140,14.3c0,0.2,0,0.4,0,0.5h-4.1c0.2,0.8,0.8,1.2,1.5,1.2c0.5,0,1-0.2,1.5-0.6l0.9,1
		c-0.7,0.6-1.5,0.9-2.5,0.9c-1.8,0-3-1.2-3-3c0-1.8,1.2-3.1,2.9-3.1C138.9,11.3,140,12.5,140,14.3z M135.9,13.8h2.6
		c-0.1-0.7-0.6-1.2-1.3-1.2C136.4,12.6,136,13.1,135.9,13.8z"/>
	<path class="st0" d="M72,24.8h-2.6v6.8h-1.7v-6.8h-2.6v-1.6H72V24.8z"/>
	<path class="st0" d="M79.1,31.6h-6.3v-8.4H79v1.5h-4.6v1.9h4.3v1.5h-4.3v1.9h4.6V31.6z"/>
	<path class="st0" d="M89.8,31.6h-2l-1.8-6l-1.8,6h-2l-2.5-8.4h1.7l1.8,6.4l1.9-6.4H87l1.9,6.4l1.8-6.4h1.7L89.8,31.6z"/>
	<path class="st0" d="M99.3,31.6h-6.1v-8.4h1.7v6.8h4.4V31.6z"/>
	<path class="st0" d="M104.1,23.9c0,0.6-0.4,1-1,1c-0.6,0-1-0.4-1-1c0-0.6,0.4-1,1-1C103.7,22.9,104.1,23.4,104.1,23.9z M103.9,31.6
		h-1.6v-5.8h1.6V31.6z"/>
	<path class="st0" d="M110.7,27.9v3.7h-1.6v-3.2c0-0.8-0.4-1.3-1.1-1.3c-0.7,0-1.2,0.4-1.2,1.3v3.2h-1.6v-5.8h1.5v0.7
		c0.4-0.6,1-0.8,1.7-0.8C109.7,25.7,110.7,26.6,110.7,27.9z"/>
	<path class="st0" d="M118.8,25.4c0,1.3-1,2.3-2.3,2.3c-1.3,0-2.3-1-2.3-2.3c0-1.3,1-2.3,2.3-2.3C117.8,23.1,118.8,24.1,118.8,25.4z
		 M115.5,25.4c0,0.6,0.4,1,1,1c0.6,0,1-0.4,1-1c0-0.6-0.4-1-1-1C115.9,24.4,115.5,24.8,115.5,25.4z M117.6,31.6H116l5.6-8.4h1.6
		L117.6,31.6z M125.1,29.5c0,1.3-1,2.3-2.3,2.3c-1.3,0-2.3-1-2.3-2.3c0-1.3,1-2.3,2.3-2.3C124.1,27.2,125.1,28.2,125.1,29.5z
		 M121.8,29.5c0,0.6,0.4,1,1,1c0.6,0,1-0.4,1-1c0-0.6-0.4-1-1-1C122.2,28.5,121.8,28.9,121.8,29.5z"/>
</g>
<g>
	<path class="st0" d="M263.7,108.2h-1.8l-0.7-2h-3.6l-0.7,2h-1.7l3.3-8.4h2L263.7,108.2z M258.2,104.8h2.4l-1.2-3.2L258.2,104.8z"/>
	<path class="st0" d="M265.9,108.2h-1.6v-8.6h1.6V108.2z"/>
	<path class="st0" d="M271.1,103.8h-1.8v4.4h-1.6v-4.4h-1.1v-1.4h1.1v-0.7c0-1.4,0.7-2.3,2.1-2.3c0.8,0,1.3,0.2,1.8,0.5l-0.6,1.2
		c-0.3-0.2-0.6-0.3-1-0.3c-0.4,0-0.7,0.3-0.7,0.8v0.7h1.8V103.8z"/>
	<path class="st0" d="M277.4,108.2h-1.5v-0.6c-0.4,0.5-0.9,0.8-1.7,0.8c-1.6,0-2.8-1.3-2.8-3.1c0-1.7,1.2-3.1,2.8-3.1
		c0.8,0,1.4,0.3,1.7,0.8v-0.6h1.5V108.2z M272.9,105.3c0,0.9,0.6,1.6,1.5,1.6c0.9,0,1.5-0.7,1.5-1.6s-0.6-1.6-1.5-1.6
		C273.5,103.7,272.9,104.5,272.9,105.3z"/>
	<path class="st0" d="M282.9,104.1c-0.5-0.2-1.2-0.5-1.9-0.5c-0.6,0-0.9,0.2-0.9,0.5c0,0.3,0.4,0.4,0.9,0.5l0.5,0.1
		c1.3,0.2,2,0.8,2,1.7c0,1.2-1,2-2.7,2c-0.8,0-1.8-0.1-2.6-0.7l0.6-1.2c0.5,0.3,1.1,0.6,2,0.6c0.7,0,1.1-0.2,1.1-0.5
		c0-0.3-0.3-0.4-1-0.5l-0.5-0.1c-1.3-0.2-2-0.8-2-1.8c0-1.2,0.9-1.9,2.5-1.9c0.9,0,1.7,0.2,2.4,0.6L282.9,104.1z"/>
	<path class="st0" d="M290.3,105.3c0,1.8-1.3,3.1-3.1,3.1c-1.8,0-3.1-1.3-3.1-3.1c0-1.8,1.3-3.1,3.1-3.1
		C289,102.3,290.3,103.6,290.3,105.3z M285.6,105.3c0,0.9,0.7,1.6,1.5,1.6c0.9,0,1.5-0.7,1.5-1.6c0-0.9-0.7-1.6-1.5-1.6
		C286.3,103.7,285.6,104.4,285.6,105.3z"/>
	<path class="st0" d="M296.7,104.5v3.7h-1.6v-3.2c0-0.8-0.4-1.3-1.1-1.3c-0.7,0-1.2,0.4-1.2,1.3v3.2h-1.6v-5.8h1.5v0.7
		c0.4-0.6,1-0.8,1.7-0.8C295.8,102.3,296.7,103.2,296.7,104.5z"/>
	<path class="st0" d="M304.3,99.9c2,0,3.1,0.9,3.1,2.6c0,1.4-1,2.3-2.6,2.5l2.6,3.4h-2l-2.4-3.3h-0.5v3.3h-1.7v-8.4H304.3z
		 M302.4,101.4v2.1h1.8c0.9,0,1.4-0.3,1.4-1c0-0.7-0.5-1-1.4-1H302.4z"/>
	<path class="st0" d="M313.5,105.3c0,0.2,0,0.4,0,0.5h-4.1c0.2,0.8,0.8,1.2,1.5,1.2c0.5,0,1-0.2,1.5-0.6l0.9,1
		c-0.7,0.6-1.5,0.9-2.5,0.9c-1.8,0-3-1.2-3-3c0-1.8,1.2-3.1,2.9-3.1C312.4,102.3,313.5,103.5,313.5,105.3z M309.4,104.8h2.6
		c-0.1-0.7-0.6-1.2-1.3-1.2C310,103.6,309.5,104.1,309.4,104.8z"/>
	<path class="st0" d="M320.5,105.3c0,1.7-1.2,3.1-2.8,3.1c-0.8,0-1.3-0.3-1.7-0.8v3h-1.6v-8.2h1.5v0.6c0.4-0.5,0.9-0.8,1.7-0.8
		C319.3,102.3,320.5,103.6,320.5,105.3z M315.9,105.3c0,0.9,0.6,1.6,1.5,1.6c0.9,0,1.5-0.7,1.5-1.6c0-0.9-0.6-1.6-1.5-1.6
		C316.6,103.7,315.9,104.4,315.9,105.3z"/>
	<path class="st0" d="M327.2,108.2h-1.5v-0.6c-0.4,0.5-0.9,0.8-1.7,0.8c-1.6,0-2.8-1.3-2.8-3.1c0-1.7,1.2-3.1,2.8-3.1
		c0.8,0,1.4,0.3,1.7,0.8v-0.6h1.5V108.2z M322.7,105.3c0,0.9,0.6,1.6,1.5,1.6c0.9,0,1.5-0.7,1.5-1.6s-0.6-1.6-1.5-1.6
		C323.3,103.7,322.7,104.5,322.7,105.3z"/>
	<path class="st0" d="M330.2,100.5c0,0.6-0.4,1-1,1c-0.6,0-1-0.4-1-1c0-0.6,0.4-1,1-1C329.8,99.5,330.2,100,330.2,100.5z M330,108.2
		h-1.6v-5.8h1.6V108.2z"/>
	<path class="st0" d="M335.3,102.4l-0.2,1.6c-0.3-0.1-0.6-0.2-0.9-0.2c-0.7,0-1.2,0.4-1.2,1.3v3.2h-1.6v-5.8h1.5v0.6
		c0.4-0.5,0.9-0.8,1.6-0.8C334.8,102.3,335.1,102.3,335.3,102.4z"/>
</g>
<g>
	<path class="st2" d="M493.5,183.2H492l-4.3-5.6l0,5.6H486v-8.4h1.6l4.3,5.6v-5.6h1.7V183.2z"/>
	<path class="st2" d="M500.3,180.3c0,0.2,0,0.4,0,0.5h-4.1c0.2,0.8,0.8,1.2,1.5,1.2c0.5,0,1-0.2,1.5-0.6l0.9,1
		c-0.7,0.6-1.5,0.9-2.5,0.9c-1.8,0-3-1.2-3-3c0-1.8,1.2-3.1,2.9-3.1C499.2,177.3,500.3,178.5,500.3,180.3z M496.2,179.8h2.6
		c-0.1-0.7-0.6-1.2-1.3-1.2C496.8,178.6,496.3,179.1,496.2,179.8z"/>
	<path class="st2" d="M506.7,180.8c0,1.8-1.3,2.6-2.7,2.6c-1.5,0-2.8-0.8-2.8-2.6v-3.3h1.6v3.2c0,0.9,0.5,1.3,1.2,1.3
		c0.7,0,1.2-0.4,1.2-1.3v-3.2h1.6V180.8z"/>
	<path class="st2" d="M511.9,177.4l-0.2,1.6c-0.3-0.1-0.6-0.2-0.9-0.2c-0.7,0-1.2,0.4-1.2,1.3v3.2H508v-5.8h1.5v0.6
		c0.4-0.5,0.9-0.8,1.6-0.8C511.4,177.3,511.7,177.3,511.9,177.4z"/>
	<path class="st2" d="M518.4,180.3c0,1.8-1.3,3.1-3.1,3.1c-1.8,0-3.1-1.3-3.1-3.1c0-1.8,1.3-3.1,3.1-3.1
		C517,177.3,518.4,178.6,518.4,180.3z M513.7,180.3c0,0.9,0.7,1.6,1.5,1.6c0.9,0,1.5-0.7,1.5-1.6s-0.7-1.6-1.5-1.6
		C514.3,178.7,513.7,179.4,513.7,180.3z"/>
	<path class="st2" d="M523.4,178v-3.4h1.6v8.6h-1.5v-0.6c-0.4,0.5-0.9,0.8-1.7,0.8c-1.6,0-2.8-1.3-2.8-3.1c0-1.7,1.2-3.1,2.8-3.1
		C522.5,177.3,523.1,177.6,523.4,178z M520.5,180.3c0,0.9,0.6,1.6,1.5,1.6c0.9,0,1.5-0.7,1.5-1.6s-0.6-1.6-1.5-1.6
		C521.1,178.7,520.5,179.5,520.5,180.3z"/>
	<path class="st2" d="M531.7,180.3c0,0.2,0,0.4,0,0.5h-4.1c0.2,0.8,0.8,1.2,1.5,1.2c0.5,0,1-0.2,1.5-0.6l0.9,1
		c-0.7,0.6-1.5,0.9-2.5,0.9c-1.8,0-3-1.2-3-3c0-1.8,1.2-3.1,2.9-3.1C530.5,177.3,531.7,178.5,531.7,180.3z M527.6,179.8h2.6
		c-0.1-0.7-0.6-1.2-1.3-1.2C528.1,178.6,527.7,179.1,527.6,179.8z"/>
	<path class="st2" d="M536.6,177.4l-0.2,1.6c-0.3-0.1-0.6-0.2-0.9-0.2c-0.7,0-1.2,0.4-1.2,1.3v3.2h-1.6v-5.8h1.5v0.6
		c0.4-0.5,0.9-0.8,1.6-0.8C536.1,177.3,536.4,177.3,536.6,177.4z"/>
	<path class="st2" d="M546.7,179.5v3.7h-1.6v-3.2c0-0.8-0.4-1.3-1.1-1.3c-0.7,0-1.2,0.4-1.2,1.3v3.2h-1.6v-3.2
		c0-0.8-0.4-1.3-1.1-1.3c-0.7,0-1.2,0.4-1.2,1.3v3.2h-1.6v-5.8h1.5v0.7c0.4-0.6,1-0.8,1.7-0.8c0.8,0,1.5,0.4,1.9,1
		c0.5-0.7,1.2-1,2-1C545.8,177.3,546.7,178.2,546.7,179.5z"/>
	<path class="st2" d="M554.2,174.9c2,0,3.1,0.9,3.1,2.6c0,1.4-1,2.3-2.6,2.5l2.6,3.4h-2l-2.4-3.3h-0.5v3.3h-1.7v-8.4H554.2z
		 M552.4,176.4v2.1h1.8c0.9,0,1.4-0.3,1.4-1c0-0.7-0.5-1-1.4-1H552.4z"/>
	<path class="st2" d="M563.5,180.3c0,0.2,0,0.4,0,0.5h-4.1c0.2,0.8,0.8,1.2,1.5,1.2c0.5,0,1-0.2,1.5-0.6l0.9,1
		c-0.7,0.6-1.5,0.9-2.5,0.9c-1.8,0-3-1.2-3-3c0-1.8,1.2-3.1,2.9-3.1C562.4,177.3,563.5,178.5,563.5,180.3z M559.4,179.8h2.6
		c-0.1-0.7-0.6-1.2-1.3-1.2C559.9,178.6,559.5,179.1,559.4,179.8z"/>
	<path class="st2" d="M570.5,180.3c0,1.7-1.2,3.1-2.8,3.1c-0.8,0-1.3-0.3-1.7-0.8v3h-1.6v-8.2h1.5v0.6c0.4-0.5,0.9-0.8,1.7-0.8
		C569.3,177.3,570.5,178.6,570.5,180.3z M565.9,180.3c0,0.9,0.6,1.6,1.5,1.6c0.9,0,1.5-0.7,1.5-1.6c0-0.9-0.6-1.6-1.5-1.6
		C566.5,178.7,565.9,179.4,565.9,180.3z"/>
	<path class="st2" d="M577.2,183.2h-1.5v-0.6c-0.4,0.5-0.9,0.8-1.7,0.8c-1.6,0-2.8-1.3-2.8-3.1c0-1.7,1.2-3.1,2.8-3.1
		c0.8,0,1.4,0.3,1.7,0.8v-0.6h1.5V183.2z M572.7,180.3c0,0.9,0.6,1.6,1.5,1.6c0.9,0,1.5-0.7,1.5-1.6s-0.6-1.6-1.5-1.6
		C573.3,178.7,572.7,179.5,572.7,180.3z"/>
	<path class="st2" d="M580.2,175.5c0,0.6-0.4,1-1,1s-1-0.4-1-1s0.4-1,1-1S580.2,175,580.2,175.5z M580,183.2h-1.6v-5.8h1.6V183.2z"
		/>
	<path class="st2" d="M585.3,177.4L585,179c-0.3-0.1-0.6-0.2-0.9-0.2c-0.7,0-1.2,0.4-1.2,1.3v3.2h-1.6v-5.8h1.5v0.6
		c0.4-0.5,0.9-0.8,1.6-0.8C584.8,177.3,585.1,177.3,585.3,177.4z"/>
</g>
<g>
	<path class="st0" d="M580,23.2v-1.6h0.8v1.6l1.5-0.5l0.2,0.7l-1.5,0.5l0.9,1.3l-0.6,0.4l-0.9-1.3l-0.9,1.3l-0.6-0.4l0.9-1.3
		l-1.5-0.5l0.2-0.7L580,23.2z"/>
	<path class="st0" d="M589.4,27.4c0,1.7-1.3,3-2.8,3c-0.9,0-1.6-0.3-2-0.9v3.2h-1v-8.1h1v0.8c0.4-0.5,1.1-0.9,2-0.9
		C588.1,24.4,589.4,25.7,589.4,27.4z M584.4,27.4c0,1.2,0.8,2.1,2,2.1c1.2,0,2-0.9,2-2.1c0-1.1-0.8-2-2-2
		C585.2,25.4,584.4,26.2,584.4,27.4z"/>
	<path class="st0" d="M595.6,29.8l-4.8-2.2v-1l4.8-2.2v1l-3.8,1.7l3.8,1.7V29.8z"/>
	<path class="st0" d="M607,26.1c0,2.7-1.6,4.3-3.5,4.3c-1.9,0-3.5-1.6-3.5-4.3c0-2.7,1.6-4.3,3.5-4.3C605.5,21.7,607,23.4,607,26.1z
		 M601.1,26.1c0,2.2,1.1,3.3,2.4,3.3c1.3,0,2.4-1.2,2.4-3.3s-1.1-3.3-2.4-3.3C602.2,22.7,601.1,23.9,601.1,26.1z"/>
	<path class="st0" d="M609.5,28.7l-0.6,3.1H608l0.3-3.1H609.5z"/>
	<path class="st0" d="M617.5,26.1c0,2.7-1.6,4.3-3.5,4.3c-1.9,0-3.5-1.6-3.5-4.3c0-2.7,1.6-4.3,3.5-4.3
		C616,21.7,617.5,23.4,617.5,26.1z M611.6,26.1c0,2.2,1.1,3.3,2.4,3.3c1.3,0,2.4-1.2,2.4-3.3s-1.1-3.3-2.4-3.3
		C612.7,22.7,611.6,23.9,611.6,26.1z"/>
	<path class="st0" d="M623.8,22.8h-3.7l-0.1,2.4h1.2c2,0,2.9,1.1,2.9,2.5c0,1.7-1.3,2.7-2.9,2.7c-1.2,0-2.2-0.4-2.9-1.3l0.7-0.7
		c0.5,0.6,1.4,1,2.2,1c1.2,0,1.8-0.8,1.8-1.6c0-0.9-0.6-1.6-2.2-1.6h-1.9l0.1-4.3h4.6V22.8z"/>
	<path class="st0" d="M631,30.3h-1.2l-2.4-5.7h1.1l1.9,4.7l1.9-4.7h1L631,30.3z"/>
	<path class="st0" d="M638.1,25.8c-0.4-0.2-1.1-0.5-1.8-0.5c-0.8,0-1.3,0.3-1.3,0.8c0,0.5,0.4,0.7,1.1,0.7l0.7,0.1
		c1.2,0.2,1.9,0.7,1.9,1.6c0,1.1-1,1.8-2.5,1.8c-0.7,0-1.6-0.2-2.4-0.7l0.5-0.7c0.4,0.3,1,0.6,1.9,0.6c0.9,0,1.5-0.3,1.5-0.9
		c0-0.4-0.4-0.7-1.1-0.8l-0.7-0.1c-1.3-0.2-1.9-0.7-1.9-1.6c0-1.1,0.9-1.8,2.3-1.8c0.9,0,1.7,0.2,2.3,0.6L638.1,25.8z"/>
	<path class="st0" d="M641.2,29.5c0,0.4-0.4,0.8-0.8,0.8s-0.8-0.4-0.8-0.8c0-0.4,0.4-0.8,0.8-0.8S641.2,29.1,641.2,29.5z"/>
	<path class="st0" d="M652.6,30.2h-1.1l-0.9-2.3h-4.1l-0.9,2.3h-1.1l3.4-8.4h1.3L652.6,30.2z M646.9,27h3.3l-1.6-4.1L646.9,27z"/>
	<path class="st0" d="M654.5,30.2h-1v-8.6h1V30.2z"/>
	<path class="st0" d="M659.9,25.4h-2.2v4.8h-1v-4.8h-1.3v-0.9h1.3v-1c0-1.2,0.6-2.1,1.9-2.1c0.6,0,1.2,0.2,1.6,0.4l-0.4,0.8
		c-0.3-0.2-0.7-0.3-1.1-0.3c-0.7,0-1,0.4-1,1.2v1h2.2V25.4z"/>
	<path class="st0" d="M666.2,30.2h-1v-0.8c-0.4,0.5-1.1,0.9-2,0.9c-1.6,0-2.8-1.2-2.8-3c0-1.7,1.2-3,2.8-3c0.9,0,1.6,0.3,2,0.9v-0.8
		h1V30.2z M661.3,27.4c0,1.1,0.8,2.1,2,2.1c1.2,0,2-0.9,2-2.1c0-1.2-0.8-2-2-2C662.1,25.4,661.3,26.3,661.3,27.4z"/>
	<path class="st0" d="M671.7,25.8c-0.4-0.2-1.1-0.5-1.8-0.5c-0.8,0-1.3,0.3-1.3,0.8c0,0.5,0.4,0.7,1.1,0.7l0.7,0.1
		c1.2,0.2,1.9,0.7,1.9,1.6c0,1.1-1,1.8-2.5,1.8c-0.7,0-1.6-0.2-2.4-0.7l0.5-0.7c0.4,0.3,1,0.6,1.9,0.6c0.9,0,1.5-0.3,1.5-0.9
		c0-0.4-0.4-0.7-1.1-0.8l-0.7-0.1c-1.3-0.2-1.9-0.7-1.9-1.6c0-1.1,0.9-1.8,2.3-1.8c0.9,0,1.7,0.2,2.3,0.6L671.7,25.8z"/>
	<path class="st0" d="M679.1,27.4c0,1.7-1.3,3-3,3s-3-1.3-3-3c0-1.7,1.3-3,3-3S679.1,25.7,679.1,27.4z M674.1,27.4
		c0,1.2,0.9,2.1,2,2.1c1.1,0,2-0.9,2-2.1s-0.9-2-2-2C674.9,25.4,674.1,26.2,674.1,27.4z"/>
	<path class="st0" d="M685.6,26.7v3.5h-1V27c0-1-0.6-1.7-1.6-1.7c-0.9,0-1.7,0.6-1.7,1.7v3.2h-1v-5.7h1v0.7c0.5-0.6,1.2-0.9,1.9-0.9
		C684.6,24.4,685.6,25.3,685.6,26.7z"/>
	<path class="st0" d="M693.6,21.9c1.9,0,2.9,0.9,2.9,2.4c0,1.5-1.1,2.4-2.9,2.4h-0.1l3,3.6h-1.3l-2.9-3.6h-1v3.6h-1.1v-8.4H693.6z
		 M691.3,22.8v2.8h2.3c1.2,0,1.9-0.5,1.9-1.4c0-0.9-0.6-1.4-1.9-1.4H691.3z"/>
	<path class="st0" d="M702.8,27.4c0,0.1,0,0.3,0,0.4h-4.5c0.1,1.2,1,1.8,1.9,1.8c0.7,0,1.3-0.3,1.8-0.7l0.5,0.7
		c-0.7,0.7-1.5,0.9-2.3,0.9c-1.7,0-2.9-1.2-2.9-3c0-1.8,1.2-3,2.8-3C701.6,24.4,702.8,25.6,702.8,27.4z M698.3,27h3.5
		c-0.1-1-0.8-1.7-1.7-1.7C699.1,25.3,698.4,26,698.3,27z"/>
	<path class="st0" d="M709.9,27.4c0,1.7-1.3,3-2.8,3c-0.9,0-1.6-0.3-2-0.9v3.2h-1v-8.1h1v0.8c0.4-0.5,1.1-0.9,2-0.9
		C708.6,24.4,709.9,25.7,709.9,27.4z M705,27.4c0,1.2,0.8,2.1,2,2.1c1.2,0,2-0.9,2-2.1c0-1.1-0.8-2-2-2
		C705.8,25.4,705,26.2,705,27.4z"/>
	<path class="st0" d="M716.6,30.2h-1v-0.8c-0.5,0.5-1.1,0.9-2,0.9c-1.6,0-2.8-1.2-2.8-3c0-1.7,1.2-3,2.8-3c0.9,0,1.6,0.3,2,0.9v-0.8
		h1V30.2z M711.8,27.4c0,1.1,0.8,2.1,2,2.1c1.2,0,2-0.9,2-2.1c0-1.2-0.8-2-2-2C712.5,25.4,711.8,26.3,711.8,27.4z"/>
	<path class="st0" d="M719.5,22.6c0,0.4-0.3,0.7-0.7,0.7s-0.7-0.3-0.7-0.7c0-0.4,0.3-0.7,0.7-0.7S719.5,22.2,719.5,22.6z
		 M719.3,30.2h-1v-5.7h1V30.2z"/>
	<path class="st0" d="M724.7,24.6l-0.2,1c-0.3-0.1-0.7-0.2-1-0.2c-0.9,0-1.5,0.7-1.5,1.7v3.2h-1v-5.7h1v0.7c0.4-0.6,1-0.9,1.7-0.9
		C724,24.4,724.4,24.5,724.7,24.6z"/>
</g>
<g>
	<path class="st0" d="M88.8,46.5h-3.4v-0.9h3.4V46.5z"/>
	<path class="st0" d="M92.6,49.2h-1v-7l-2.4,1v-1.1l3.4-1.5V49.2z"/>
	<path class="st0" d="M101.2,45.1c0,2.7-1.6,4.3-3.5,4.3c-1.9,0-3.5-1.6-3.5-4.3c0-2.7,1.6-4.3,3.5-4.3
		C99.6,40.7,101.2,42.4,101.2,45.1z M95.3,45.1c0,2.2,1.1,3.3,2.4,3.3c1.3,0,2.4-1.2,2.4-3.3s-1.1-3.3-2.4-3.3
		C96.4,41.7,95.3,42.9,95.3,45.1z"/>
</g>
<g>
	<path class="st0" d="M88.8,86.5h-3.4v-0.9h3.4V86.5z"/>
	<path class="st0" d="M92.6,89.2h-1v-7l-2.4,1v-1.1l3.4-1.5V89.2z"/>
	<path class="st0" d="M99.3,81.8h-3.7l-0.1,2.4h1.2c2,0,2.9,1.1,2.9,2.5c0,1.7-1.3,2.7-2.9,2.7c-1.2,0-2.2-0.4-2.9-1.3l0.7-0.7
		c0.5,0.6,1.4,1,2.2,1c1.2,0,1.8-0.8,1.8-1.6c0-0.9-0.6-1.6-2.2-1.6h-1.9l0.1-4.3h4.6V81.8z"/>
</g>
<g>
	<path class="st0" d="M88.8,127.5h-3.4v-0.9h3.4V127.5z"/>
	<path class="st0" d="M89.3,123.1c0.4-0.6,1.1-1.4,2.6-1.4c1.7,0,2.7,1.1,2.7,2.6c0,1-0.6,1.8-1.1,2.4l-2.4,2.6h3.8v1h-5.3v-0.8
		l3.1-3.3c0.5-0.5,0.8-1.1,0.8-1.8c0-0.9-0.6-1.6-1.7-1.6c-0.9,0-1.4,0.5-1.8,1L89.3,123.1z"/>
	<path class="st0" d="M102.8,126.1c0,2.7-1.6,4.3-3.5,4.3c-1.9,0-3.5-1.6-3.5-4.3c0-2.7,1.6-4.3,3.5-4.3
		C101.2,121.7,102.8,123.4,102.8,126.1z M96.9,126.1c0,2.2,1.1,3.3,2.4,3.3c1.3,0,2.4-1.2,2.4-3.3s-1.1-3.3-2.4-3.3
		C97.9,122.7,96.9,123.9,96.9,126.1z"/>
</g>
<g>
	<path class="st0" d="M88.8,169.5h-3.4v-0.9h3.4V169.5z"/>
	<path class="st0" d="M89.3,165.1c0.4-0.6,1.1-1.4,2.6-1.4c1.7,0,2.7,1.1,2.7,2.6c0,1-0.6,1.8-1.1,2.4l-2.4,2.6h3.8v1h-5.3v-0.8
		l3.1-3.3c0.5-0.5,0.8-1.1,0.8-1.8c0-0.9-0.6-1.6-1.7-1.6c-0.9,0-1.4,0.5-1.8,1L89.3,165.1z"/>
	<path class="st0" d="M100.9,164.8h-3.7l-0.1,2.4h1.2c2,0,2.9,1.1,2.9,2.5c0,1.7-1.3,2.7-2.9,2.7c-1.2,0-2.2-0.4-2.9-1.3l0.7-0.7
		c0.5,0.6,1.4,1,2.2,1c1.2,0,1.8-0.8,1.8-1.6c0-0.9-0.6-1.6-2.2-1.6h-1.9l0.1-4.3h4.6V164.8z"/>
</g>
<rect x="245" y="45" class="st3" width="100" height="50"/>
<rect x="486" y="45" class="st2 graph-1-bar" id="graph-1-bar-2" width="100" height="0"/>
<animate 
	id="graph-1-bar-2-animation"
    xlink:href="#graph-1-bar-2"
    attributeName="height"
    from="10"
    to="123" 
    dur="0.2s"
    begin="indefinite"
    fill="freeze" />
</svg>
