<svg id="Layer_5" data-name="Layer 5" xmlns="http://www.w3.org/2000/svg" viewBox="0 0 720 720"><defs><style>.cls-1{fill:#fff;}.cls-2{fill:#ff2257;}.cls-3{fill:#2a3141;}.cls-4{fill:#3d71bf;}.cls-5{fill:#ffdb2c;}.cls-6{fill:#fbae17;}</style></defs><title>face-3</title><polygon class="cls-1" points="191.12 94.03 177.47 97.13 162.94 111.64 157.08 126.38 157.08 128.31 203.62 137.05 217.16 143.81 219.91 133.36 222.36 116.06 221.12 104.05 219.81 98.33 210.57 94.99 191.12 94.03"/><polygon class="cls-2" points="244.98 133.9 244.29 147.59 240.97 158.28 217.16 143.81 221.26 128.19 221.4 113.82 219.81 98.33 229.34 100.72 244.13 112.4 244.98 133.9"/><path class="cls-3" d="M197.68,148.69a5,5,0,0,0-3-.12,3,3,0,0,1-2.58-.25,11.59,11.59,0,0,0-4.57-.64,3,3,0,0,1-1.32-.1,6.39,6.39,0,0,0-1.55-.22A13.26,13.26,0,0,1,182,147c-2.47-.6-2.92-.64-3.95-.5a13.64,13.64,0,0,1-3.93-.11,2.65,2.65,0,0,0-1.61,0,2,2,0,0,1-1.7,0,1.65,1.65,0,0,0-1.48-.06,1,1,0,0,1-.82,0,2.18,2.18,0,0,0-.87,0c-.16.05-1.16.1-2.22.14s-2.23.11-2.63.13a4,4,0,0,1-.58,0l.63.05a3.14,3.14,0,0,1-.66-.31,3.37,3.37,0,0,0-1.42-.49,5.92,5.92,0,0,1-1.93-.61,5.41,5.41,0,0,0-1.24-.44,2.21,2.21,0,0,0-2.26.56c-.63.49-.69.51-.69,1.31,0,.27,0,.56.08.84a9.26,9.26,0,0,0,2,1.4,19.37,19.37,0,0,0,3.55,1.32,7.19,7.19,0,0,0,1.82.31l.3,0,.21,0a3.85,3.85,0,0,1,1.85,0,15.71,15.71,0,0,0,1.71.16c.26,0,2.08-.05,4,0a19.57,19.57,0,0,1,4.32.31,2.69,2.69,0,0,0,1.51.08,8,8,0,0,1,3.48.27c.5.41,1.13.49,2.71.36a32.71,32.71,0,0,1,3.92-.16,7.62,7.62,0,0,1,1.14.4,7.28,7.28,0,0,0,2.48.5,14.5,14.5,0,0,1,2.58.44,4.4,4.4,0,0,0,1.81.24,59.88,59.88,0,0,1,6.13.66c5.13.79,5.26.9,5.74,1.24s.65.41,2.5.72c1.63.29,2.09.34,2.43.21.49-.18,1.15-.07,4.7.88a29.52,29.52,0,0,0,3.51.76,6.87,6.87,0,0,1,1.69.37,4.05,4.05,0,0,0,1.47.29,4.49,4.49,0,0,1,1.7.38,8.81,8.81,0,0,0,1.38.43l3.84.67c2.8.48,3.5.58,4.06.86a3,3,0,0,0,1.3.32c.34,0,1,0,1.52.1s1.37.08,1.93.1c.84,0,1.07.06,1.34.27a2.2,2.2,0,0,0,1.77.21,4.59,4.59,0,0,1,1.05,0l1.46.1.08-1.31a36.07,36.07,0,0,1,.62-3.92,23.33,23.33,0,0,1,.95-3.58,7.32,7.32,0,0,0,.55-2.48,37.82,37.82,0,0,1,1.39-6.35,11.06,11.06,0,0,0,.48-5.19,7.36,7.36,0,0,1-.19-2.2c0-.36,0-1.49,0-3,0-.74-.06-1.66,0-2.42l.1-2.79a78.29,78.29,0,0,0-.27-8.44,14.87,14.87,0,0,0-.46-2.76c-.27-.91-.55-2.24-1-3.91l-.32-1.16a9.83,9.83,0,0,0-2.07-3.65c-.91-1.1-2.22-2.31-2.81-2.9s-1.56-1.51-2.18-2a8.38,8.38,0,0,0-1.61-1.13c-.25-.11-.92-.35-1.46-.55a4.88,4.88,0,0,1-1.54-.77,43.05,43.05,0,0,0-4.81-2.35A68.05,68.05,0,0,0,218,95.07a100.32,100.32,0,0,0-12.59-1.95c-3.81-.38-6.89-.63-8.53-.76-.46,0-2.25-.23-4-.35a22.37,22.37,0,0,0-4,0,37.72,37.72,0,0,0-7.24,1.37,29.62,29.62,0,0,0-7.76,3.82,11.54,11.54,0,0,1-2.48,1.57,6.32,6.32,0,0,0-1.7,1.07,14.12,14.12,0,0,0-1.31,1.15c-.52.48-1.1,1.08-1.77,1.82-.55.58-1.1,1.29-1.65,1.89s-1,1.2-1.27,1.54a21.71,21.71,0,0,0-2.57,4,62,62,0,0,0-3.29,7.55,48.59,48.59,0,0,0-1.89,6.42,5.9,5.9,0,0,1-.74,2.39,7.12,7.12,0,0,0-.77,2.51c-1,5.42-1.85,11-2.26,11.67a2.62,2.62,0,0,0-.3,2,.56.56,0,0,1,.15.37,1.45,1.45,0,0,0,.41.63c.4.42.54.48,1.45.6s1,.12,1.48-.21a2.9,2.9,0,0,0,1.15-1.7,5.2,5.2,0,0,1,.3-1.16,4,4,0,0,0,.27-1.82,23,23,0,0,1,1.07-5.68,5.07,5.07,0,0,0,.37-2,8,8,0,0,1,.56-3.78c.28-.73.64-1.54.78-1.81s.55-1.65,1-3c.67-2.2.78-2.56.68-2.9s-.06-.83,1.78-5c1.73-3.58,2.45-4.39,2.79-4.72a9.14,9.14,0,0,0,2-2.67,8.85,8.85,0,0,1,2.86-3.27c.49-.35.93-.71,1.38-1.09s.91-.75,1.4-1.18a21.64,21.64,0,0,1,3.67-2.49l4-2a11.55,11.55,0,0,1,5.17-1.4,60.44,60.44,0,0,1,11.49.23c9.29.82,10.79,1.15,11.57,1.41a9.35,9.35,0,0,0,3.58.43,37.7,37.7,0,0,1,4.9.85,42.84,42.84,0,0,1,5.85,1.75,27,27,0,0,0,4.36,1.57,2.31,2.31,0,0,1,1.55.69c.18.17,2,1.09,4.53,2.74a33.35,33.35,0,0,1,4.06,3.07,16.8,16.8,0,0,1,1.89,2,7.78,7.78,0,0,1,1.2,2.1,29.25,29.25,0,0,1,1.32,6.45,52.23,52.23,0,0,0,.61,6.49,7.71,7.71,0,0,1-.08,4.15,14.21,14.21,0,0,0-.06,5.11,5.39,5.39,0,0,1-.09,2.5,18.1,18.1,0,0,0-.3,2.68,29.22,29.22,0,0,1-.23,3.32c-.18,1.44-.45,2.88-.52,3.14a5.93,5.93,0,0,1-.29.63,18.27,18.27,0,0,0-1.11,4.92,7,7,0,0,1-.6,2.79c-.57,1.74-.56,1.79-.45,2.74a3.1,3.1,0,0,1,0,1.32l2.82-2.21c-.36-.05-1-.22-2.32-.52a5.84,5.84,0,0,0-2.86-.13,1.66,1.66,0,0,1-1.56-.25,1.73,1.73,0,0,0-1.35-.31,4.28,4.28,0,0,1-1.16-.27,2.57,2.57,0,0,0-1.65-.2,4.1,4.1,0,0,1-2.74-.41,14.19,14.19,0,0,0-4.54-1.05,5.51,5.51,0,0,1-1.92-.48c-.63-.29-.75-.32-1.11-.19-1,.34-1,.34-1.46-.14a1.3,1.3,0,0,0-1.48-.49,2.51,2.51,0,0,1-1.88-.42,5,5,0,0,0-3.08-.61,1.32,1.32,0,0,1-1.52-.32,2.27,2.27,0,0,0-2-.46,7.75,7.75,0,0,1-3.44-.7,15,15,0,0,0-3.92-.87,16.5,16.5,0,0,0-3.47-.34.53.53,0,0,1-.65-.14A3.3,3.3,0,0,0,197.68,148.69Z"/><polygon class="cls-2" points="205.63 95.53 195.02 95.53 184.13 103.04 176.86 115.63 174.12 128.88 191.4 133.36 193.12 115.08 198.94 101.68 205.63 97.5 205.63 95.53"/><path class="cls-4" d="M242.57,160.06c-8.51-9.81-18.6-15.33-30.74-20.12s-25-7.44-37.93-9.54c-15.8-2.57-32.06-4.33-47.74-1.07a20.17,20.17,0,0,0-7.59,2.84c-2.22,1.56-3.9,4.11-3.73,6.8a8.19,8.19,0,0,0,4.29,6.23,22.59,22.59,0,0,0,7.53,2.36A155.42,155.42,0,0,0,163,149.69s12.9-1.87,36.44,2.66S242.57,160.06,242.57,160.06Z"/><path class="cls-3" d="M197.75,155.31a5.74,5.74,0,0,0,3.18.26,3.6,3.6,0,0,1,2.82.4,14,14,0,0,0,5,.91,3.64,3.64,0,0,1,1.44.18,8.14,8.14,0,0,0,1.71.31,18.63,18.63,0,0,1,2.94.57c2.84.75,3.37.81,4.41.75a16.86,16.86,0,0,1,4.23.4,3.39,3.39,0,0,0,1.68.11,2.79,2.79,0,0,1,1.82.2,2.36,2.36,0,0,0,1.59.2c.13-.08.35-.07.84.05a3.58,3.58,0,0,0,.94.12c.14,0,1.16.06,2.25.17l2.7.27a12.51,12.51,0,0,1,1.56.3,9.12,9.12,0,0,0,1.9.3c1.27.1,1.36.11,2.68.27a13.78,13.78,0,0,0,1.82.1c1,0,1-.19-.08-.78a8.63,8.63,0,0,0-1.77-.78l-1-.39-2.13-.44-3.55-.78a13.37,13.37,0,0,0-1.91-.36,7,7,0,0,1-1.87-.41c-.76-.21-1.58-.44-1.84-.49l-4-.81a34.81,34.81,0,0,1-4.32-1,3,3,0,0,0-1.47-.3,9.78,9.78,0,0,1-3.41-.7,4.2,4.2,0,0,0-2.69-.63c-1.9,0-3.39-.08-3.73-.15a9,9,0,0,1-1.17-.48,7.52,7.52,0,0,0-2.49-.65,15.83,15.83,0,0,1-2.55-.58,4.44,4.44,0,0,0-1.79-.32,18.25,18.25,0,0,1-2-.23l-4.28-.69c-5.39-.82-5.54-.77-6.06-1.14s-.71-.39-2.68-.55c-1.72-.15-2.21-.15-2.55,0-.49.25-1.17.15-5-.27a24.62,24.62,0,0,0-3.73-.19,7.86,7.86,0,0,1-1.8-.06,4.3,4.3,0,0,0-1.56,0,4.81,4.81,0,0,1-1.81,0,9.49,9.49,0,0,0-1.5-.12c-.28,0-2.11.1-4.08.29l-1.32.15-.2,0h0a9.91,9.91,0,0,1-2.68,0,3.31,3.31,0,0,0-1.35-.07,13.22,13.22,0,0,1-1.52.17c-.51,0-1.38.12-1.94.18-.84.09-1.09.07-1.38-.1a2.25,2.25,0,0,0-1.8-.06,24.68,24.68,0,0,1-4.35.06,32.1,32.1,0,0,1-4.62-.43,7.31,7.31,0,0,0-2.61-.16,22.27,22.27,0,0,1-6.48-.71,14.77,14.77,0,0,0-5.09-.73,6.8,6.8,0,0,1-2.21-.14c-.36-.07-1.48-.26-2.91-.62a15.14,15.14,0,0,1-4.6-1.89,7.36,7.36,0,0,1-2.87-3.5,4.25,4.25,0,0,1-.19-2.32,11,11,0,0,1,.71-2.09,5.87,5.87,0,0,1,2.27-2.47,18.93,18.93,0,0,1,7.7-2.55c.79,0,2.06-.17,2.84-.19a10.65,10.65,0,0,0,1.87-.21c.25-.1.9-.31,1.44-.48a4.45,4.45,0,0,1,1.67-.26l1.51-.1c.91-.07,2.19-.16,3.73-.21,3.09-.12,7.25-.11,11.59.16,8.7.48,18.12,2,21.38,2.48.46.07,2.25.42,4,.78s3.47.7,3.92.72,3.59.55,7,1.29,7,1.63,8.09,1.91a7.17,7.17,0,0,1,2.64,1c.8.54,2,.93,5.57,2.16a41.67,41.67,0,0,1,4,1.59c1,.47,2.26,1,4.23,1.68,1.56.57,4.86,1.92,7.26,3.1s5,2.54,5.75,2.93a4.93,4.93,0,0,1,2,1.37,7.77,7.77,0,0,0,2,1.57c4.48,2.83,8.3,6.85,8.55,7.6a2.84,2.84,0,0,0,.28.51l.18.25.07.08a.1.1,0,0,1,0-.05.76.76,0,0,1,.1-.8,5.18,5.18,0,0,0,.36-.42,1.41,1.41,0,0,1,1-.37,3.22,3.22,0,0,1,1.78.62c.83.46.88.54,1,.31a1.85,1.85,0,0,0,0-1.13,3,3,0,0,0-.69-1.31,6,6,0,0,1-.81-1,4,4,0,0,0-1.37-1.38,53.21,53.21,0,0,1-4.54-4.17,5.57,5.57,0,0,0-1.69-1.3,11.34,11.34,0,0,1-3.49-2.13c-.63-.55-1.35-1.15-1.59-1.38a21.61,21.61,0,0,0-2.91-1.84c-2.19-1.18-2.58-1.33-3-1.29s-.8-.21-5.23-2.23c-3.92-1.73-5-2.14-5.39-2.48a8.31,8.31,0,0,0-3.37-1.45,15.6,15.6,0,0,1-4.5-1.63,22,22,0,0,0-3.74-1.42c-1.11-.32-3.28-1-4.82-1.45a27.75,27.75,0,0,0-5.08-1.19,34.38,34.38,0,0,1-6.06-1.21c-.84-.26-4.79-1.12-12.34-2.32-9.59-1.47-11.33-1.54-12.14-1.85a9.63,9.63,0,0,0-3.88-.26c-.41,0-2.8-.1-5.41-.18l-3.85-.09c-1.19,0-2.2,0-2.82,0a19.55,19.55,0,0,0-5.06.28,3.12,3.12,0,0,1-1.88.14,42.52,42.52,0,0,0-5.88.36l-2.73.35-3.08.53a23.87,23.87,0,0,0-7.22,2.4,13.42,13.42,0,0,0-2.37,1.64,12.4,12.4,0,0,0-1.89,2,11.2,11.2,0,0,0-1.77,3.54,8.43,8.43,0,0,0,.41,6,8,8,0,0,0,2.48,3.14c1.61,1.16,3,2,4.57,3a11.6,11.6,0,0,0,5.5,1.68,8.13,8.13,0,0,1,2.71.55,13.71,13.71,0,0,0,3,.61c.95.1,6.72.52,7.29.54a5.59,5.59,0,0,1,.71.21,18.71,18.71,0,0,0,5.23.35,7.39,7.39,0,0,1,2.91.18c1.86.28,1.91.3,2.86,0s.87-.25,3.9.16a6.43,6.43,0,0,0,3.09-.24,1.93,1.93,0,0,1,1.69,0,2,2,0,0,0,1.48.06,4.76,4.76,0,0,1,1.29,0,2.8,2.8,0,0,0,1.77-.16l.17-.06.23,0a3.44,3.44,0,0,1,2.49-.27,15.83,15.83,0,0,0,4.69,0,5.72,5.72,0,0,1,2,.07c.68.18.81.18,1.14,0,.93-.53,1-.54,1.47-.13a1.35,1.35,0,0,0,1.57.23,2.45,2.45,0,0,1,1.93.12,5.35,5.35,0,0,0,3.16.19,1.32,1.32,0,0,1,1.55.13,2.34,2.34,0,0,0,2,.28,6.93,6.93,0,0,1,3.49.45,19.94,19.94,0,0,0,3.93.75,22.62,22.62,0,0,0,3.45.37.54.54,0,0,1,.65.16A3.45,3.45,0,0,0,197.75,155.31Z"/><path class="cls-1" d="M137.25,137.87h0c-.89.37-1.87.93-2,1.87a14,14,0,0,0,3.65.52q16.08.78,32.2.28c1.18,0,2.69-.35,2.87-1.5s-17.23-3.51-19-3.57C148.9,135.26,142.91,135.47,137.25,137.87Z"/><path class="cls-3" d="M150,132.22c-.29-.21-.67-.08-.93.33s-.43.46-.82.13a1.28,1.28,0,0,0-1.46,0c-.18.14-.31.17-.41.09a.71.71,0,0,0-.5,0,1.52,1.52,0,0,1-.86,0c-.85-.26-1-.24-1.29,0a1.48,1.48,0,0,1-1.22.37c-.31,0-.4,0-.49.21s-.32.35-.52.13-.42-.16-.47.09-.1.17-.25.12a.26.26,0,0,0-.27.05,1.94,1.94,0,0,1-.66.32l-.79.3a.59.59,0,0,1-.47-.07.5.5,0,0,0-.58,0,2.23,2.23,0,0,1-.79.35.86.86,0,0,0-.5.48c-.25.5-.18.93.29,2.06a3.35,3.35,0,0,0,.69,1.2l.36.44.57-.2c.31-.11.76-.21,1-.26a.78.78,0,0,0,.52-.27c.1-.17.2-.2.52-.13a1.86,1.86,0,0,0,.53,0c.08,0,.57-.2,1.12-.35.74-.22,1.07-.24,1.26-.15s.28.1.43-.09.86-.38,1-.16.39.34.8,0a4,4,0,0,1,1.07-.7,1.13,1.13,0,0,1,.37.23.71.71,0,0,0,.75.14,1.4,1.4,0,0,1,.78.06.42.42,0,0,0,.53,0,5.5,5.5,0,0,1,1.81-.26c1.55-.05,1.59,0,1.75.23s.21.28.77.24.63-.09.73-.28a.38.38,0,0,1,.36-.23,3.57,3.57,0,0,1,1,.16,2.72,2.72,0,0,0,1,.11.6.6,0,0,1,.52.06.39.39,0,0,0,.44,0,.42.42,0,0,1,.51.08.94.94,0,0,0,.41.2l1.16.07c.84.07,1,.12,1.2.32a.34.34,0,0,0,.37.17,2,2,0,0,1,.46-.06,3,3,0,0,0,.58-.06c.26,0,.33,0,.38.18s.29.32.52.12a5,5,0,0,1,2.59.44c.14.17.28.18.76.09a2.23,2.23,0,0,1,1.86.35,1.27,1.27,0,0,0,1.46.29.69.69,0,0,1,.67-.1c.18.06,1.31.31,2.21.65l.24.11h0c0-.05.12-.18.17-.26a1.13,1.13,0,0,1,.15-.21c.22-.3.38-.43.46-.44h0l-1.23-.19h0s0,0,0,0l0,0-.08-.06s-.2.07-.25.05a.94.94,0,0,0-.48.16,1.22,1.22,0,0,1-.92.09,6.39,6.39,0,0,0-1.44-.06,3.52,3.52,0,0,1-1.13-.1l-.84-.3a.92.92,0,0,0-.57,0l-.43.3c-.22.14-.36.16-.5.08s-.64,0-1.56,0h-3.42c-2.56,0-5.34,0-6.31,0-.13,0-.66-.06-1.18-.14a3.53,3.53,0,0,0-1.16,0,10.7,10.7,0,0,1-2.08,0l-2.44-.06c-.49,0-.63,0-.81-.27s-.62-.41-1.74-.51a6.2,6.2,0,0,1-1.26-.25,3.26,3.26,0,0,0-1.34-.1,22.43,22.43,0,0,1-2.35,0,13.11,13.11,0,0,0-1.91,0c-.4.08-.48.06-.65-.18s-.27-.26-.6-.27a2.17,2.17,0,0,1-1.1-.21l.63,3a1.83,1.83,0,0,1,.35.21,4,4,0,0,1,.72.71c.07.07.14.07.2.14s.31.15.24-.11a.51.51,0,0,1,0-.21,2.22,2.22,0,0,0-.09-.5,7.23,7.23,0,0,0-.51-1.43,3.45,3.45,0,0,0-.68-1.27c-.37-.43-.82-.67-1-.55a.88.88,0,0,1-.47.11c-.3,0-.44.12-.64.47a7.2,7.2,0,0,1-.46.65,3.78,3.78,0,0,0-.64,1.31l-.07.24,1.05,1.38a3.48,3.48,0,0,0,.5.33c.39.23.57.26.7.17a1.23,1.23,0,0,1,1.33,0,4.56,4.56,0,0,1,.61.38,2.8,2.8,0,0,0,1,.19c.71,0,.83,0,.93-.19s.24-.21,1.65-.12c1.24.08,1.57.14,1.71.31a.84.84,0,0,0,1.05.21c.36-.23.75-.18,1.37.17a2.37,2.37,0,0,0,1.15.32,10,10,0,0,1,1.45.2,2.77,2.77,0,0,0,1.51,0,2.67,2.67,0,0,1,1.8,0,19.3,19.3,0,0,0,3.65.21c2.83,0,3.33,0,3.57.23s.63.19,1.12-.11a16.79,16.79,0,0,1,3.49-.23c.74.08,1.4,0,1.45-.15s.34-.22.54,0a27.89,27.89,0,0,0,5.36.32,13.8,13.8,0,0,0,1.65,0,10.76,10.76,0,0,0,1.38-.23,4,4,0,0,0,2.5-1.67,3.44,3.44,0,0,0,.6-1.51c0-.12,0-.23,0-.34l0-.24c0-.11,0-.23,0-.35a3.74,3.74,0,0,0-.1-.67,2.72,2.72,0,0,0-.17-.44,3.9,3.9,0,0,0-.19-.35c-.07-.11-.16-.23-.22-.31l-.13-.14a3.23,3.23,0,0,0-.29-.25,1.73,1.73,0,0,0-.36-.22,3.78,3.78,0,0,0-.85-.26,3.61,3.61,0,0,1-.48-.13,1.65,1.65,0,0,1-.71-.5,1.65,1.65,0,0,0-1.58-.53c-.27.08-.38,0-.8-.25a1.35,1.35,0,0,0-.86-.32c-.3,0-2,0-2.18-.05a.61.61,0,0,1-.18-.17,1.88,1.88,0,0,0-1.52-.2c-.3.14-.37.12-.84-.16s-.51-.31-.82-.08-.3.25-1.11-.28a.67.67,0,0,0-.91.08c-.19.22-.41.18-.49-.1s-.29-.33-.4-.18-.2,0-.36-.12-.32-.18-.52,0-.7.3-.87,0-.74-.43-1.4-.31a.6.6,0,0,1-.6-.14c-.19-.18-.23-.18-.35,0-.35.51-.36.52-.47.13s-.21-.47-.46-.21-.36.21-.61-.08a.77.77,0,0,0-.58-.26,1,1,0,0,0-.37,0c-.12,0-.14.11-.2.19-.16.34-.3.34-.47,0s-.34-.35-.62-.07a.79.79,0,0,1-1.07,0c-.21-.17-.45-.21-1.23-.17s-1,.11-1.07.22-.12.13-.21-.05A1.24,1.24,0,0,0,150,132.22Z"/><path class="cls-3" d="M213.31,94.43c-.18.12-.07.07.29-.1s.41-.16.1,0-.3.18,0,.1c.11,0,.13,0,.06,0s-.08,0,0,0,0,0-.12.07c-.34.12-.36.1-.14.07s.29,0,.15,0-.06,0,.12,0,.27,0,0,0-.25,0,0,0h0l.13,0,.07,0-.21,0-.16,0h.06l.25.07,1.93.62c.76.24.81.26,1.31.38l.54.11.07-.18a2.09,2.09,0,0,1,.15-.3c.05-.08,0-.16-.08-.2s-.12-.09,0-.17.19-.12.19-.15,0-.2-.07-.38,0-.35.08-.42.12-.1,0-.13-.29-.23-.06-.32.34-.2,0-.27a3.58,3.58,0,0,1-.65-.14,1.25,1.25,0,0,1,.21-.18c.17-.14.19-.19.1-.28a.17.17,0,0,1,0-.25c.08-.12.06-.15-.07-.15s-.27-.13-.45-.35-.29-.34-.1-.54.18-.22,0-.32-.21-.07-.37,0-.28.14-.38-.19c0-.13-.14-.21-.22-.19s-.13,0-.11-.09,0-.11-.11-.06-.13,0-.1-.1,0-.18,0-.19l-.32-.12c-.22-.09-.26-.13-.21-.31s0-.19,0-.16a.41.41,0,0,1-.18,0,.45.45,0,0,0-.2.06c-.1,0-.11,0-.05-.15s0-.29-.11-.11-.64,0-.64-.28,0-.15-.21,0-.44.14-.48-.15-.24-.38-.38-.08-.14.23-.21.2a4,4,0,0,0-.59-.16,1.43,1.43,0,0,1-.59-.21.13.13,0,0,0-.2,0c-.07.08-.16.07-.28,0a.57.57,0,0,0-.34-.11.28.28,0,0,1-.27-.12l-.21-.31c-.05-.09-.12-.11-.13-.06l-.1.28c0,.14-.08.17-.12.08a4.34,4.34,0,0,0-1.16,0,6.18,6.18,0,0,0-1.61.27,1.3,1.3,0,0,1-.37,0c-.17,0-.33,0-.35.1a1.78,1.78,0,0,1-.58.36,4.06,4.06,0,0,0-.71.45c-.13.12-.18.12-.38,0s-.45-.15-.78.11a1.13,1.13,0,0,1-.45.23c-.16,0-.26.14-.32.36a5.7,5.7,0,0,1-.31.71,1,1,0,0,0-.15.56c0,.15,0,.16-.21.13s-.26,0-.27.11c0,.46-.31.77-.61.71s-.31,0-.06.13a.65.65,0,0,1,.18.09l.45.21c.41.18.55.23,1.41.56s1,.36,1.35.48a2.9,2.9,0,0,0,.89.2s.05,0,.15,0,.16,0,.05-.1-.05-.22.27-.26c.14,0,.15,0,.05-.1-.3-.19-.34-.29-.12-.28a1.51,1.51,0,0,1,.34,0,.19.19,0,0,0,.19-.09c.06-.1,0-.12-.13-.23s-.19-.15-.05-.32.2-.15.34-.07.35.17.21,0-.1-.2.18,0,.24.16.26.15.09,0,.15.08.09.09,0,0,0-.25.08-.09.13.11.37.06.46,0,.51.13.12.17.17-.13c0-.15.49-.33.63-.25s.26,0,.27-.15.05-.22.09,0,.49.33.95.44a.52.52,0,0,1,.33.21c.12.24.23.2.33-.1s.17-.31.18,0,.09.39.19.15.07-.12.09.09,0,.22.07.16a2.35,2.35,0,0,1,.34-.28l0,.14c0,.21.07.2.19,0s.1-.16.08,0,0,.23.1,0,.16-.26.06.14c0,.16,0,.1.19-.15s.14-.19,0,0-.12.26,0,.12,0,0,0,.07,0,.12.07,0,.27-.3.12,0-.15.29,0,.17.07,0,0,.07-.09.13.05,0c.38-.4.39-.4.15-.11s-.28.33-.08.14.2-.16,0,0-.16.24.1,0,.28-.21,0,0-.24.24,0,.07.25-.12,0,.08-.15.14-.08.16a.27.27,0,0,0,.21-.05c.12-.06.11,0,0,0Z"/><path class="cls-3" d="M217.61,134.93c-.25.12-.17.35.19.58s.38.33,0,.47a.48.48,0,0,0-.24.78c.1.13.1.2,0,.24a.23.23,0,0,0-.1.26q0,.21-.24.42c-.44.36-.47.43-.29.65a.5.5,0,0,1,0,.71c-.11.14-.1.19,0,.3s.22.26,0,.29-.29.13-.08.24.13.11,0,.16-.11.1-.06.14a.73.73,0,0,1,0,.41l0,.46c0,.07-.12.15-.26.18s-.24.1-.23.25a.65.65,0,0,1-.05.46c0,.11,0,.24.17.4.31.31.71.47,1.89.77a5.3,5.3,0,0,0,1.36.23l.55,0,.11-.37a4.13,4.13,0,0,1,.24-.6.34.34,0,0,0,0-.39c-.11-.12-.09-.18.1-.32s.25-.22.25-.27l.11-.74c.07-.49.14-.69.29-.76s.18-.13.05-.28-.11-.61.14-.63.42-.13.21-.47a2.59,2.59,0,0,1-.42-.82.79.79,0,0,1,.3-.16c.23-.09.28-.17.28-.42a.65.65,0,0,1,.2-.45c.15-.11.17-.19.07-.33a2.45,2.45,0,0,1,0-1.16c.13-.95.13-1,.42-1s.29-.08.3-.43,0-.41-.22-.5-.26-.25,0-.89a1.06,1.06,0,0,0,.09-.66.25.25,0,0,1,0-.31c.1-.08.1-.17,0-.28s-.08-.2.06-.31a.48.48,0,0,0,.18-.24c0-.05,0-.38,0-.72,0-.53,0-.65.24-.74s.2-.15.15-.22a.88.88,0,0,1-.09-.3,1.46,1.46,0,0,0-.11-.36c-.07-.16,0-.2.14-.24s.3-.17.09-.31a2,2,0,0,1,.18-1.62c.14-.1.15-.18,0-.48a.92.92,0,0,1,.1-1.17.58.58,0,0,0,.05-.94.39.39,0,0,1-.22-.41c0-.13.08-.81.12-1.52a8.32,8.32,0,0,1,.18-1.52.65.65,0,0,0,0-.51,1,1,0,0,1,0-.72,3.06,3.06,0,0,0,.09-.89,1.43,1.43,0,0,1,.09-.71l.3-.53c.08-.15.11-.31.05-.36l-.3-.26c-.15-.13-.17-.21-.09-.31a22.07,22.07,0,0,0-.17-3.1,35.12,35.12,0,0,0-.6-3.91,4.42,4.42,0,0,1,0-.75,1.37,1.37,0,0,0-.13-.72,5,5,0,0,1-.38-1.25c-.13-.63-.33-1.3-.38-1.49s-.08-.39.1-.57.26-.5.12-1.21a2.79,2.79,0,0,1-.06-.83,1.36,1.36,0,0,0-.24-.84,13.64,13.64,0,0,1-.63-1.38,4.29,4.29,0,0,0-.58-1.11c-.2-.21-.2-.27,0-.48s.13-.3,0-.54c-.55-.89-.92-1.92-.72-2.18s.09-.45-.17-.37a.42.42,0,0,1-.21,0,1.78,1.78,0,0,0-.48.13,7.79,7.79,0,0,0-1.38.64,6.75,6.75,0,0,0-1.23.74c-.43.34-.73.66-.65.71s0,.14,0,.25,0,.23.14.3.36.43.3,1c0,.24,0,.32.14.32.39,0,.57.21.49.52a2.91,2.91,0,0,1-.17.45,1,1,0,0,0,.09.58c.16.38.21.43.42.4s.26,0,.51.82.23.89.11,1-.22.54,0,.63.33.35.12.8a1,1,0,0,0-.08.71,3.1,3.1,0,0,1,.07.85.94.94,0,0,0,.23.82c.33.41.41.68.28,1a8.1,8.1,0,0,0,.26,2.08c.27,1.59.25,1.88.1,2s-.13.38.2.62a5,5,0,0,1,.41,2c-.06.44,0,.81.2.82s.23.19,0,.31a12.56,12.56,0,0,0-.32,3.09,4.85,4.85,0,0,1-.19,1.24,1,1,0,0,0,.11,1.2c.33.27.32.5,0,.75a.56.56,0,0,0-.16.86c.13.14.12.21-.1.46s-.22.35-.17.49a8.36,8.36,0,0,1,.27,1.23.51.51,0,0,1-.14.11c-.22.13-.23.66,0,.88s.16.21-.07.48-.25.29,0,.48.28.17-.17.63c-.18.19-.12.41.15.54s.21.24-.06.28-.31.16-.15.23,0,.12-.09.21-.16.18,0,.3.35.43,0,.51-.39.4-.24.8c.06.17,0,.26-.11.34s-.17.12,0,.2c.52.24.53.25.15.28s-.46.09-.2.25.22.22-.06.33-.35.42,0,.56.31.23,0,.27-.37.14-.11.34.2.46-.12.61-.24.21-.28.65,0,.58.09.63.11.09-.07.11A1.4,1.4,0,0,0,217.61,134.93Z"/><path class="cls-3" d="M172.08,120.82c-.24.13-.17.39.18.64s.38.36,0,.52a.56.56,0,0,0-.24.87c.1.14.1.23,0,.27s-.12.17-.1.29a.57.57,0,0,1-.22.49c-.43.43-.46.52-.27.75a.57.57,0,0,1,0,.77c-.1.17-.09.23.08.33s.24.26,0,.32-.27.19-.05.28.14.1,0,.17-.09.12,0,.16a.8.8,0,0,1,.08.44l0,.5c0,.08-.1.18-.24.24s-.23.15-.19.31,0,.19.05.26,0,.06,0,.1a1.21,1.21,0,0,0,0,.32,2.79,2.79,0,0,0,.25,1.25,3,3,0,0,0,.76,1.07,2.85,2.85,0,0,0,.67.46l.18.08.25.09a2.69,2.69,0,0,0,.76.14,2.65,2.65,0,0,0,1.42-.32,2.6,2.6,0,0,0,.44-.3,4,4,0,0,0,.29-.3,2.2,2.2,0,0,0,.45-1,2.77,2.77,0,0,0,0-.91,2.66,2.66,0,0,0-.16-.55,1.71,1.71,0,0,0-.14-.27,1.9,1.9,0,0,0-.22-.33,1.71,1.71,0,0,0-1.13-.61,1.23,1.23,0,0,0-.4,0,.54.54,0,0,0-.2.14.91.91,0,0,0-.16.79c.06.39.13.62.13.76,0,0,0,0-.07,0s-.07,0,0,0,0,.07,0,0h0l0-.08h0a.86.86,0,0,1,.45-.1h.61v0l0-.18a1.3,1.3,0,0,1,.08-.29.34.34,0,0,0-.07-.38c-.12-.11-.11-.17.06-.34a.72.72,0,0,0,.22-.3l0-.75c0-.5.07-.7.22-.79s.16-.14,0-.27-.16-.62.09-.64.41-.16.18-.49a2.59,2.59,0,0,1-.45-.8.91.91,0,0,1,.3-.17c.23-.1.27-.17.27-.42a.6.6,0,0,1,.2-.46c.15-.11.16-.18.07-.32a2.19,2.19,0,0,1,0-1.16c.17-.94.18-1,.47-1s.29-.06.33-.41,0-.4-.18-.5-.24-.28.1-.88a1,1,0,0,0,.17-.64.24.24,0,0,1,.09-.3c.1-.06.12-.15,0-.27s0-.21.12-.3.21-.15.22-.2.07-.36.14-.7c.12-.5.2-.61.39-.65s.23-.1.2-.18a1,1,0,0,1,0-.3,1.67,1.67,0,0,0,0-.38c0-.17,0-.2.2-.19s.34-.08.17-.27.35-1.39.65-1.45.2-.12.16-.44a.88.88,0,0,1,.52-1c.42-.13.6-.5.42-.81a.38.38,0,0,1,0-.46c.08-.1.41-.69.81-1.26a6,6,0,0,1,.93-1.17.58.58,0,0,0,.26-.41.87.87,0,0,1,.42-.56,2.7,2.7,0,0,0,.6-.62,1.15,1.15,0,0,1,.51-.44l.57-.18c.15-.05.26-.14.26-.21l-.05-.39c0-.18,0-.26.15-.26s1-1,2.15-2,2.47-2,2.91-2.32a2.6,2.6,0,0,1,.65-.29,1.17,1.17,0,0,0,.58-.34,3.4,3.4,0,0,1,1-.69c.52-.29,1.11-.55,1.27-.64s.35-.14.54,0,.49.23,1.11,0a1.61,1.61,0,0,1,.73-.07,1,1,0,0,0,.73-.2,5.22,5.22,0,0,1,1.22-.46,6.38,6.38,0,0,0,1-.36c.21-.15.27-.14.42.05s.23.19.45.13a4,4,0,0,1,1.23-.18c.36,0,.62.13.69.28s.3.26.32,0a.46.46,0,0,1,.05-.2,2.23,2.23,0,0,0,.08-.51,9.49,9.49,0,0,0,0-1.51,6.57,6.57,0,0,0-.12-1.44c-.12-.53-.31-.93-.4-.88s-.15,0-.25-.12-.21-.13-.37,0-.61.16-1.18,0c-.26-.09-.36-.08-.41,0A.5.5,0,0,1,199,93a2.55,2.55,0,0,1-.45-.24,1.2,1.2,0,0,0-.67,0c-.48.09-.54.15-.55.36s-.1.26-1,.48-1,.25-1.15.12a.45.45,0,0,0-.73.06c-.14.31-.38.38-.9.24a1.18,1.18,0,0,0-.83,0,5.57,5.57,0,0,1-1,.28,1.22,1.22,0,0,0-.91.48c-.39.47-.66.64-1,.63a6.73,6.73,0,0,0-2.16,1.2c-1.57,1.09-1.8,1.33-2.06,1.28s-.46.12-.51.57a9.36,9.36,0,0,1-1.59,1.74c-.43.28-.69.65-.59.78s0,.32-.23.28a9.53,9.53,0,0,0-2.65,2.47,12.25,12.25,0,0,1-1,1.08c-.53.35-.8.84-.67,1.24s0,.65-.47.73a.71.71,0,0,0-.62.82c.05.2,0,.26-.32.43s-.39.28-.4.45-.28,1.32-.32,1.41a.4.4,0,0,1-.19.07.85.85,0,0,0-.36.94c.09.24.07.28-.26.5s-.34.26-.16.53.21.26-.39.65a.37.37,0,0,0,0,.63c.19.18.13.31-.14.29s-.35.11-.21.22,0,.13-.15.21-.21.17-.06.34.24.54-.08.57-.48.39-.42.85c0,.2,0,.29-.18.36s-.19.11,0,.23c.47.34.48.34.09.33s-.46,0-.24.26.18.27-.11.36-.41.44-.11.62.29.27-.07.3-.38.13-.15.37.14.51-.19.67-.26.23-.33.72-.05.64.05.71.1.1-.08.11A1.18,1.18,0,0,0,172.08,120.82Z"/><path class="cls-3" d="M204.72,101.14c.24.09.29-.11.14-.5s-.12-.48.23-.31.59,0,.58-.34c0-.16,0-.2.13-.16a.16.16,0,0,0,.21-.09c.06-.1.19-.14.39-.1.5.1.56.1.56-.18s.13-.42.4-.41.18,0,.14-.21,0-.33.2-.14.26.15.2-.08,0-.16.08-.11.12,0,.12,0,.09-.18.22-.27l.31-.21c.05,0,.16,0,.26.11s.2.15.29,0a.41.41,0,0,1,.32-.19c.09,0,.14-.14.16-.35a4.73,4.73,0,0,0-.47-2,5.67,5.67,0,0,0-.57-1.26l-.28-.47L208,94l-.62.16a.34.34,0,0,0-.29.24c0,.16-.08.18-.31.11a.65.65,0,0,0-.36,0l-.63.39c-.4.28-.59.35-.75.29s-.22,0-.23.15-.36.51-.55.34-.39-.21-.47.18a2.76,2.76,0,0,1-.25.88,1.11,1.11,0,0,1-.32-.09.34.34,0,0,0-.48.12.65.65,0,0,1-.44.21c-.19,0-.25,0-.26.21s-.28.45-.71.89c-.66.68-.67.7-.93.58s-.3-.11-.49.18-.19.36-.09.53.08.34-.47.75a.92.92,0,0,0-.4.51.23.23,0,0,1-.19.24c-.11,0-.16.1-.14.23s0,.21-.2.24a.4.4,0,0,0-.27.13s-.17.32-.33.62c-.23.46-.32.55-.53.55s-.24,0-.22.14a1.6,1.6,0,0,1,0,.3,1.44,1.44,0,0,0-.05.37c0,.18,0,.2-.22.16s-.34,0-.19.26-.45,1.34-.73,1.42-.19.12-.14.44a.93.93,0,0,1-.44,1.06c-.4.17-.54.57-.29.85a.37.37,0,0,1,.1.44c-.05.12-.28.73-.47,1.38a9.5,9.5,0,0,1-.5,1.37.57.57,0,0,0-.09.46,1,1,0,0,1-.15.67,2.42,2.42,0,0,0-.26.8,1.24,1.24,0,0,1-.24.62l-.39.43c-.11.12-.16.26-.12.32l.24.3c.12.14.13.23,0,.29a52.91,52.91,0,0,0-.84,6.41,3.87,3.87,0,0,1-.19.65,1.06,1.06,0,0,0-.08.66,4.21,4.21,0,0,1,0,1.19c-.06.57-.12,1.2-.13,1.38s0,.36-.28.45-.43.33-.54,1a2.09,2.09,0,0,1-.26.7,1.1,1.1,0,0,0-.1.77,8.19,8.19,0,0,1,0,1.34,4.33,4.33,0,0,0,.05,1.12c.09.24.07.29-.16.4s-.25.18-.22.43c.09.92-.1,1.87-.4,2s-.3.29,0,.34l.19.07a2,2,0,0,0,.49.12,8.86,8.86,0,0,0,1.51.14,6.76,6.76,0,0,0,1.44,0c.54-.07,1-.19.92-.27s.05-.12.15-.19.15-.17,0-.31-.1-.54.2-1c.14-.2.14-.28,0-.34-.34-.19-.4-.43-.19-.66a2.91,2.91,0,0,1,.35-.32.89.89,0,0,0,.17-.53c0-.4,0-.47-.2-.53s-.22-.14-.13-.92.13-.87.3-.94.41-.39.22-.57-.18-.43.18-.76a.89.89,0,0,0,.33-.61,3.24,3.24,0,0,1,.23-.79.88.88,0,0,0,.05-.83c-.18-.49-.17-.75.05-1a6.27,6.27,0,0,0,.36-2c.17-1.56.23-1.82.43-1.94s.22-.32-.05-.63a4.83,4.83,0,0,1,0-1.92c.14-.39.13-.75,0-.8s-.19-.21,0-.29a11.11,11.11,0,0,0,.91-2.74,3.67,3.67,0,0,1,.43-1.06c.32-.39.37-.8.13-1.07s-.2-.51.19-.64.52-.43.34-.69-.08-.21.19-.36.29-.23.27-.36a6.46,6.46,0,0,1,0-1.1.41.41,0,0,1,.16,0c.25,0,.38-.46.24-.7s-.09-.23.2-.36.31-.14.13-.38-.2-.25.34-.43c.22-.07.23-.26,0-.48s-.11-.27.14-.19.33,0,.21-.11,0-.09.15-.11.2-.07.07-.25-.16-.49.14-.4.49-.11.5-.48c0-.16.07-.21.22-.2s.2,0,.07-.15c-.35-.45-.35-.46,0-.29s.41.18.26-.07-.09-.28.19-.21.45-.12.25-.39-.16-.34.15-.17.35.11.23-.19.05-.43.37-.35.28,0,.52-.28.28-.38.23-.49,0-.13.1,0A1.53,1.53,0,0,0,204.72,101.14Z"/><path class="cls-3" d="M145.31,240.93c-.14.17-.05.09.22-.2s.31-.31.08,0-.22.27,0,.08.11-.1,0,0-.06.07,0,0,0,0-.08.12c-.24.27-.24.29-.08.13s.21-.21.12-.09,0,.05.09-.08.19-.19,0,0-.16.19,0,0,.1-.11,0-.05,0,.06,0,0l.11-.09.05,0s0,.07-.13.16-.14.16-.1.13.07-.06.05,0l.19-.18c.26-.27.56-.58,1.39-1.47l.94-1,.37-.4v0a.2.2,0,0,1,0-.08s0,0-.08.06-.1.1,0,0a1.51,1.51,0,0,0,.11-.14l-.07,0s0,0,0-.1.1-.11,0,0-.18.16,0,0,.25-.29,0-.09-.42.41-.42.4.08-.09.18-.19.16-.19.12-.16,0,0,.05-.09.08-.09,0,0-.13.12-.18.12-.06,0,.13-.19.18-.2.13-.17a1.8,1.8,0,0,0-.22.2c-.19.2-.21.22-.12.08s0,0,0,0-.06.05,0,0,0-.06,0,0-.08.08,0,0l.09-.11-.08,0s0,0,.07-.12.12-.14.08-.1l-.1.09-.11.09.07-.08c.18-.2.19-.21,0-.05s-.19.12,0-.06.08-.1,0,0-.21.17,0,0,.19-.25,0,0-.18.18-.18.16,0-.05,0-.08a.27.27,0,0,1,.05-.16s0,0,0,0-.07.05,0,0,.07-.11,0-.1,0,0,.06-.11l.2-.25c0-.06.07-.09,0-.05l-.2.19c-.1.1-.11.12-.06.05s-.07-.27-.15-.25,0-.05.06-.11,0-.07,0,0-.09.06-.1,0a.07.07,0,0,0-.05,0s0,0,.16-.2.26-.3.28-.37a.79.79,0,0,1,.12-.16c.06-.09.06-.1,0-.06a.14.14,0,0,1-.12,0s-.06,0-.11.05-.07.06.08-.11.15-.18.12-.16-.06,0,.14-.28.18-.21,0,0l-.14.15-.34.36-1,1.1c-.65.69-.72.76-1,1.05l-.61.67-.09.11c-.09.1-.09.11,0,0s.1-.07-.07.14-.08.1,0,0c.24-.25.31-.3.17-.14l-.21.25c-.05,0-.08.1-.07.11s0,0,.17-.15.16-.16.16-.11,0,.08-.13.2-.24.29-.1.15.16-.14-.06.11a1.65,1.65,0,0,0-.17.22s0,.07-.08.15-.07.11,0,0,.18-.15.06,0-.08.14,0,.18,0,.08-.09.22-.11.15.1-.06.24-.16.2-.09,0,0,.11-.07.16-.15,0,0a.92.92,0,0,0-.21.42.75.75,0,0,1-.09.18q-.21.27.12-.06c.24-.23.24-.23,0,0s-.24.3-.06.12.1-.09,0,.06-.13.16-.08.12a1.85,1.85,0,0,1,.28-.22l-.09.1c-.14.16-.1.14.07,0s.13-.13,0,0-.14.17.05,0,.2-.21-.05.09c-.1.12,0,.07.16-.14s.17-.16,0,0-.19.21-.07.09,0,0,0,.06-.09.1.06,0,.28-.29.09-.07-.22.26-.06.12.05,0,0,.05-.1.12,0,0c.38-.39.39-.4.13-.12s-.29.32-.09.12.17-.18,0,0-.17.22.07,0,.24-.25,0,0-.22.26,0,.05.2-.19,0,0-.13.15-.09.13a.46.46,0,0,0,.16-.13c.1-.1.09-.09,0,0Z"/><path class="cls-3" d="M150.6,245.89c-.14.16,0,.09.23-.19s.32-.31.09,0-.2.28,0,.09.11-.09.05,0-.05.07,0,0,0,0-.07.13c-.22.29-.23.3-.06.15s.22-.19.14-.08,0,.06.1-.06.2-.19,0,0-.16.19,0,0,.11-.11.05,0,0,.06,0,0a.62.62,0,0,1,.12-.08l.07,0s0,.07-.13.17-.14.16-.09.13.07-.05.07,0,.06,0,.2-.17.56-.57,1.39-1.46l.94-1,.36-.41v0a.22.22,0,0,1,0-.1s0,0-.1.06-.09.08,0,0a.79.79,0,0,0,.11-.15H154c-.06,0,0,0,0-.13s.09-.11,0,0-.2.14,0,0,.25-.29,0-.1a4.86,4.86,0,0,1-.43.39,1.35,1.35,0,0,1,.16-.2c.14-.16.16-.19.11-.17s0,0,0-.1.08-.11,0,0a.27.27,0,0,1-.21.09c-.09,0-.09,0,.09-.22s.18-.21.12-.18-.09.05-.23.19-.21.21-.15.06,0-.07,0,0-.06,0,0,0,0-.06,0,0-.08.07,0,0,.1-.12.09-.12l-.1,0c-.07,0-.06,0,.05-.15s.11-.14.07-.1l-.1.08-.12.09c-.07,0-.06,0,.06-.1s.18-.21,0-.05-.22.08-.07-.1.08-.1-.06,0-.23.14,0-.08.17-.26-.06,0-.19.17-.19.15l0-.12a.21.21,0,0,1,0-.19s0,0,0,0-.08,0,0-.05,0-.12,0-.12,0,0,0-.12.14-.19.19-.26.06-.1,0-.07l-.21.2c-.11.09-.13.1-.07,0s-.22-.41-.34-.42,0-.05,0-.12,0-.09,0-.05a.09.09,0,0,1-.13,0l-.08-.09s0,0,.14-.2.24-.31.25-.4a.49.49,0,0,1,.09-.18c.07-.09.06-.12,0-.08a.15.15,0,0,1-.16,0s-.09,0-.14,0-.08,0,.06-.13.15-.18.11-.17-.11-.1.08-.33.18-.22,0,0l-.14.14-.34.36-1,1.1-1,1.05-.6.68s0,0-.08.11-.09.12,0,0,.12-.06,0,.17-.07.11,0,0c.25-.25.32-.29.2-.13l-.21.26s-.07.11-.05.13,0,0,.18-.14.17-.16.19-.09,0,.11-.1.23-.23.3-.08.16.16-.13,0,.13-.17.23-.15.25,0,.08-.06.16-.06.13.06,0,.21-.13.09,0a.16.16,0,0,0,0,.24c.09.1.08.13,0,.27s-.11.16.12,0,.28-.12.25,0,0,.07.14-.05.16-.14,0,0a.64.64,0,0,0-.12.49.39.39,0,0,1-.06.22c-.13.19-.06.18.16,0s.26-.22,0,.05-.22.31,0,.14.11-.09,0,.07-.12.17-.06.14a3,3,0,0,1,.31-.2l-.08.11c-.14.16-.08.16.09,0s.14-.12,0,.05-.13.17.07,0,.21-.21,0,.11c-.09.12,0,.07.18-.13s.18-.16,0,0-.18.22-.07.1,0,0,0,.07-.08.1.07,0,.29-.27.1-.05-.2.27,0,.14.07,0,0,.06-.09.12,0,0c.39-.4.39-.4.14-.12s-.28.32-.09.13.19-.18,0,0-.16.23.08,0,.24-.24,0,0-.22.26,0,0,.21-.17,0,.05-.12.16-.06.15.1,0,.17-.12.09-.08,0,0A2.18,2.18,0,0,0,150.6,245.89Z"/><path class="cls-3" d="M156.1,251c-.14.16,0,.09.23-.19s.32-.31.09,0-.2.28,0,.09.11-.09.05,0-.05.07,0,0,0,0-.07.13c-.22.29-.23.3-.06.15s.22-.19.14-.07,0,.05.1-.07.2-.19,0,0-.16.19,0,0,.11-.11.05,0,0,.06,0,0,.09-.07.12-.07l.07,0s0,.07-.13.17-.13.16-.09.13.07-.05.07,0,.06,0,.2-.17.56-.57,1.39-1.46l.94-1,.36-.41v0a.13.13,0,0,1,0-.1s0,0-.1.06-.09.08,0,0a.79.79,0,0,0,.11-.15h-.09c-.06,0,0,0,0-.13s.09-.11,0,0-.2.14,0,0,.25-.29.05-.1a5.75,5.75,0,0,1-.44.39,1.35,1.35,0,0,1,.16-.2c.14-.16.16-.19.11-.17s0,0,0-.1.08-.11,0,0a.27.27,0,0,1-.21.09c-.09,0-.09,0,.09-.22s.18-.21.12-.18-.09.05-.23.19-.21.21-.15.06,0-.07,0,0-.06,0,0,0,0-.06,0,0-.08.07,0,0,.1-.12.09-.12l-.1,0c-.07,0-.06,0,.05-.15s.11-.14.07-.1l-.1.08-.12.09c-.07,0-.06,0,.06-.1s.18-.21,0,0-.23.08-.08-.1.08-.1-.06,0-.23.14,0-.08.17-.26-.06,0-.19.18-.19.16a.79.79,0,0,0,0-.13.21.21,0,0,1,0-.19c0-.05,0-.05,0,0s-.08,0,0,0,0-.13,0-.12,0-.06,0-.13.14-.19.19-.26.06-.1,0-.07l-.21.2c-.11.09-.13.1-.07,0s-.22-.42-.34-.42,0-.06,0-.13,0-.09,0-.05a.09.09,0,0,1-.13,0,.28.28,0,0,0-.08-.08s0-.05.14-.21.25-.31.25-.4a.73.73,0,0,1,.09-.18c.07-.09.06-.12,0-.08a.15.15,0,0,1-.16,0s-.09,0-.14,0-.08,0,.06-.12.15-.19.11-.18-.11-.1.08-.33.18-.22,0,0l-.13.14s-.16.16-.35.36l-1,1.1-1,1.05-.6.68s0,0-.08.12-.09.11,0,0,.11-.06,0,.17-.07.11,0,0c.25-.25.32-.29.2-.13L155,248c0,.05-.07.11-.05.13s0,0,.18-.14.17-.16.19-.09,0,.11-.1.23-.23.3-.08.16.16-.13,0,.13-.17.23-.15.25,0,.08-.06.16-.06.13.06,0,.21-.13.09,0a.16.16,0,0,0,0,.24c.09.1.08.13,0,.27s-.11.16.12,0,.28-.12.25,0,0,.07.14,0,.16-.15,0,0a.65.65,0,0,0-.12.49.39.39,0,0,1-.06.22c-.12.19-.06.18.16,0s.26-.21,0,.05-.22.31,0,.14.11-.09,0,.08-.12.17-.06.13a3,3,0,0,1,.31-.2l-.08.11c-.14.16-.08.16.09,0s.14-.12,0,.05-.13.18.07,0,.21-.21,0,.11c-.09.12,0,.07.18-.13s.18-.16,0,0-.18.22-.07.1,0,0,0,.07-.08.11.07,0,.29-.27.1-.05-.2.27,0,.14.07,0,0,.06-.09.12,0,0c.39-.4.39-.4.14-.12s-.28.32-.09.13.19-.17,0,0-.16.23.08,0,.24-.24,0,0-.22.26,0,0,.21-.17,0,.05-.13.16-.07.15a.31.31,0,0,0,.17-.11c.1-.1.09-.09,0,0A2.18,2.18,0,0,0,156.1,251Z"/><path class="cls-3" d="M161.6,256.19c-.14.16,0,.09.24-.19s.31-.31.09,0-.21.29,0,.1.11-.1.05,0-.05.07,0,0,0,0-.07.13c-.22.29-.23.31-.06.15s.22-.19.14-.07,0,.05.1-.07.2-.19,0,0-.16.19,0,0,.11-.11.05,0,0,.06,0,0,.09-.08.12-.08l.07,0s0,.07-.13.17-.13.16-.09.13.07-.05.07,0,.06,0,.2-.17.56-.57,1.39-1.46l.94-1,.36-.41v0a.13.13,0,0,1,0-.1s0,0-.09.06-.1.08,0,0a.54.54,0,0,0,.11-.15H165c-.06,0,0,0,0-.13s.09-.11,0,0-.2.14,0,0,.25-.29.05-.1a5.75,5.75,0,0,1-.44.39,1.35,1.35,0,0,1,.16-.2c.14-.16.16-.19.11-.17s0,0,0-.1.08-.11,0,0a.27.27,0,0,1-.21.09c-.09,0-.09,0,.09-.22s.18-.21.12-.18-.09,0-.23.19-.21.21-.15.06,0-.07,0,0-.06,0,0,0,0-.06,0,0-.08.07,0,0,.1-.12.09-.12l-.1,0c-.07,0-.06,0,.05-.15s.11-.13.07-.1l-.1.08-.12.09c-.07.05-.06,0,.06-.1s.18-.21,0,0-.23.08-.08-.1.08-.1-.06,0-.23.14,0-.07.17-.27-.06,0-.19.18-.19.16a.79.79,0,0,0,0-.13.19.19,0,0,1,0-.18c0-.06,0-.06,0,0s-.08,0,0,0,0-.13,0-.12,0-.06,0-.13.14-.19.19-.26.06-.1,0-.06l-.21.19c-.11.09-.13.1-.07,0s-.22-.42-.34-.42,0-.06,0-.13,0-.09,0-.05a.09.09,0,0,1-.13,0,.28.28,0,0,0-.08-.08s0,0,.14-.21.25-.31.25-.4a.73.73,0,0,1,.09-.18c.07-.09.06-.11,0-.08a.15.15,0,0,1-.16,0s-.09,0-.14,0-.08,0,.06-.12.16-.19.11-.18-.11-.1.09-.33.17-.22,0,0l-.14.14s-.16.16-.35.36l-1,1.1-1,1.06c-.36.39-.63.7-.6.67s0,0-.08.12-.09.11,0,0,.11-.06,0,.17-.07.11,0,0c.25-.25.32-.29.2-.13l-.21.26c0,.05-.07.11-.05.13s0,0,.18-.14.17-.16.19-.09,0,.11-.1.23-.23.3-.08.16.16-.13,0,.13-.17.24-.15.25,0,.08-.06.16-.06.13.06,0,.21-.13.09,0a.16.16,0,0,0,0,.24c.09.1.08.14,0,.27s-.11.16.12,0,.29-.12.25,0,0,.07.14,0,.16-.15,0,0a.71.71,0,0,0-.12.5.38.38,0,0,1-.06.21c-.12.19-.06.18.16,0s.26-.21,0,0-.22.31,0,.14.11-.09,0,.08-.11.17-.06.13a3,3,0,0,1,.31-.2l-.08.11c-.14.16-.08.16.09,0s.14-.12,0,0-.13.18.07,0,.21-.21,0,.11c-.1.12,0,.07.17-.13s.18-.16,0,0-.18.21-.07.1,0,0,0,.06-.08.11.07,0,.29-.27.1-.05-.2.27,0,.14.07,0,0,.06-.09.12,0,0c.39-.39.4-.4.14-.12s-.28.33-.08.13.18-.17,0,0-.16.23.08,0,.24-.24,0,0-.22.26,0,.05.21-.17,0,.05-.13.16-.07.16a.44.44,0,0,0,.17-.12c.1-.1.09-.09,0,0S161.64,256.14,161.6,256.19Z"/><path class="cls-3" d="M167.1,261.34c-.14.17,0,.09.24-.19s.31-.31.09,0-.21.29,0,.1.11-.1.05,0-.05.07,0,.05,0,0-.07.12c-.22.29-.23.31-.06.15s.22-.19.14-.07,0,.05.1-.07.2-.19,0,0-.16.19,0,0,.11-.11.05,0,0,.06,0,0a.23.23,0,0,1,.11-.08l.07,0a1.22,1.22,0,0,1-.13.16c-.11.13-.13.16-.09.13s.07-.05.07,0,.06,0,.2-.18.56-.57,1.39-1.46l.94-1,.36-.4v0a.13.13,0,0,1,0-.1s0,0-.09.06-.1.08,0,0a.63.63,0,0,0,.1-.15h-.09c-.06,0,0,0,0-.13s.09-.11,0,0-.2.14,0,0,.25-.29.05-.1a5.75,5.75,0,0,1-.44.39,2.37,2.37,0,0,1,.16-.2c.14-.16.16-.19.11-.17s0,0,0-.1.08-.1,0,0a.27.27,0,0,1-.21.09c-.09,0-.09,0,.09-.22s.18-.21.12-.18-.09.06-.23.19-.21.21-.15.06,0-.07,0,0-.06,0,0,0,0-.06,0,0-.08.07,0,0,.1-.12.09-.12l-.1,0c-.07,0-.06,0,.05-.15s.11-.13.07-.1l-.1.08-.12.09c-.07,0-.06,0,.06-.1s.18-.21,0-.05-.23.08-.08-.1.08-.1-.06,0-.23.14,0-.07.17-.27-.06-.05-.19.18-.19.16a.79.79,0,0,0,0-.13.19.19,0,0,1,0-.18c0-.06,0-.06,0,0s-.08,0,0,0,0-.13,0-.12,0-.06,0-.13.14-.19.19-.26.06-.1,0-.06l-.21.19c-.11.09-.13.11-.07,0s-.22-.42-.34-.42,0-.06,0-.13,0-.09,0-.05a.09.09,0,0,1-.13,0l-.08-.08s0,0,.14-.21.25-.31.25-.39a.5.5,0,0,1,.1-.19c.06-.09.05-.11,0-.08a.15.15,0,0,1-.16,0s-.09,0-.14,0-.08.05.06-.12.16-.19.11-.18-.11-.1.09-.33.17-.22,0,0l-.14.14s-.16.16-.35.36l-1,1.1-1,1.06c-.36.39-.63.7-.6.67s0,0-.08.12-.09.11,0,0,.11-.06,0,.17-.07.11,0,0c.25-.25.32-.29.2-.13l-.21.26c0,.05-.07.11-.05.13s0,0,.19-.14.16-.16.18-.09,0,.11-.1.23-.23.3-.08.16.16-.12,0,.14-.17.23-.15.24,0,.08-.06.16-.06.13.06,0,.21-.13.09,0a.15.15,0,0,0,0,.23c.09.1.08.14,0,.28s-.11.15.12-.05.29-.12.25,0,0,.06.14-.05.16-.15,0,0a.71.71,0,0,0-.12.5.38.38,0,0,1-.06.21c-.12.19-.06.18.16,0s.26-.21,0,.05-.22.31,0,.14.11-.09,0,.08-.11.17-.06.13.31-.2.31-.2l-.08.11c-.14.16-.08.16.09,0s.14-.12,0,.05-.13.18.07,0,.21-.21,0,.11c-.1.12,0,.07.17-.13s.18-.16,0,0-.18.22-.07.1,0,0,0,.06-.08.11.07,0,.29-.27.1-.05-.2.27,0,.14.07,0,0,.06-.09.12.05,0c.38-.39.39-.4.13-.12s-.28.33-.08.13.18-.17,0,0-.16.23.08,0,.25-.24,0,0-.22.26,0,.06.21-.18,0,0-.13.16-.07.16a.54.54,0,0,0,.18-.12c.09-.1.08-.09,0,0S167.14,261.29,167.1,261.34Z"/><path class="cls-3" d="M172.6,266.49c-.14.17,0,.09.24-.19s.31-.31.09,0-.21.29,0,.1.11-.1.05,0-.05.07,0,.05,0,0-.07.12c-.22.29-.23.31-.06.15s.22-.19.14-.07,0,.05.1-.07.2-.19,0,0-.16.2,0,0,.11-.11.05,0,0,.06,0,0a.23.23,0,0,1,.11-.08l.07,0a1.22,1.22,0,0,1-.13.16c-.11.13-.13.17-.09.13s.07-.05.07,0,.06,0,.2-.18.56-.56,1.39-1.45l.94-1,.36-.4v0a.13.13,0,0,1,0-.1s0,0-.09.06-.1.09,0,0a.63.63,0,0,0,.1-.15H176c-.06,0,0,0,0-.12s.09-.12,0,0-.2.14,0,0,.25-.29.05-.1a5.75,5.75,0,0,1-.44.39l.16-.2c.14-.16.16-.19.11-.17s0,0,0-.1.08-.1,0,0a.27.27,0,0,1-.21.09c-.09,0-.09,0,.09-.22s.18-.2.12-.18-.09.06-.23.19-.21.21-.15.06,0-.07,0,0-.06,0,0,0,0-.06,0,0-.08.07,0,0,.1-.12.09-.12l-.1,0c-.07,0-.06,0,.05-.15s.11-.13.07-.1a.31.31,0,0,1-.1.08l-.12.09c-.07.06-.06,0,.06-.1s.18-.21,0,0-.23.08-.08-.1.08-.1-.06,0-.23.14,0-.07.17-.27-.06,0-.19.17-.19.15a.79.79,0,0,0,0-.13.19.19,0,0,1,0-.18c0-.06,0-.06,0,0s-.08,0,0,0,0-.13,0-.12,0-.06,0-.13.14-.19.19-.26.06-.1,0-.06l-.21.19c-.11.1-.12.11-.07,0s-.22-.42-.34-.42,0-.06,0-.13,0-.09,0-.05a.09.09,0,0,1-.13,0,.28.28,0,0,0-.08-.08s0,0,.14-.21.25-.31.25-.39a.5.5,0,0,1,.1-.19c.06-.09.05-.11,0-.08a.15.15,0,0,1-.16,0s-.09,0-.14,0-.08.05.06-.12.16-.19.11-.18-.11-.1.09-.33.17-.22,0,0l-.14.15-.35.35-1,1.1-1,1.06-.6.67s0,0-.08.12-.09.11,0,0,.11-.06,0,.17-.07.11,0,0c.25-.25.32-.29.2-.13l-.21.26c0,.06-.07.11-.05.13s.05,0,.19-.14.16-.16.18-.09,0,.11-.1.23-.23.3-.08.16.16-.12,0,.14-.17.23-.15.24,0,.08-.06.16-.06.13.06,0,.21-.13.09,0a.15.15,0,0,0,0,.23c.09.1.08.14,0,.28s-.1.15.12-.05.29-.12.25,0,0,.06.14-.05.16-.15,0,0a.71.71,0,0,0-.12.5.38.38,0,0,1-.06.21c-.12.19-.06.18.16,0s.26-.21,0,.05-.22.31,0,.14.11-.08,0,.08-.11.17-.06.13l.31-.2s0,.05-.08.11-.08.16.09,0,.14-.12,0,0-.14.18.06,0,.21-.21,0,.11c-.1.13,0,.07.17-.13s.18-.16,0,0-.18.22-.07.1,0,0,0,.06-.08.11.07,0,.29-.27.1-.05-.2.27,0,.14.07,0,0,.06-.09.12.05,0c.38-.39.39-.4.13-.12s-.28.33-.08.13.18-.17,0,0-.16.23.08,0,.25-.24,0,0-.22.26,0,.06.21-.18,0,0-.13.16-.07.16a.41.41,0,0,0,.18-.12c.09-.1.08-.09,0,0S172.64,266.44,172.6,266.49Z"/><path class="cls-3" d="M178.1,271.64c-.14.17,0,.09.24-.19s.31-.31.09,0-.21.29,0,.1.11-.1.06,0-.06.07,0,0,0,0-.07.12c-.22.29-.22.31-.06.15s.22-.19.14-.07,0,0,.1-.07.2-.19,0,0-.16.2,0,0,.11-.1.05,0,0,.06,0,0a.33.33,0,0,1,.11-.08l.07,0s0,.06-.13.16-.13.17-.09.14.07-.05.07,0,.06,0,.2-.17.56-.57,1.39-1.46l.94-1,.36-.4v0a.14.14,0,0,1,0-.1s0,0-.09.06-.1.09,0,0a.63.63,0,0,0,.1-.15h-.09c-.06,0,0,0,0-.12s.08-.12,0,0-.2.15,0,0,.25-.3.05-.11a5.75,5.75,0,0,1-.44.39l.16-.2c.14-.16.16-.19.11-.17s0,0,0-.1.08-.1,0,0a.33.33,0,0,1-.21.1c-.09,0-.09,0,.09-.23s.18-.2.12-.18-.09.06-.23.19-.21.21-.15.06,0-.07,0,0-.06,0,0,0,0-.06,0,0-.08.07,0,0L181,268l-.1,0c-.07,0-.06,0,.05-.15s.11-.13.07-.09l-.1.07-.12.09c-.07.06-.06,0,.06-.09s.18-.22,0-.06-.23.08-.08-.1.08-.1-.06,0-.23.14,0-.07.17-.27-.06,0-.19.17-.19.15a.54.54,0,0,0,0-.12.21.21,0,0,1,0-.19c0-.05,0-.06,0,0s-.08,0,0,0,0-.12,0-.12,0-.06,0-.13.14-.19.19-.26.06-.1,0-.06l-.21.19c-.11.1-.12.11-.07,0s-.22-.41-.34-.42,0-.06,0-.13,0-.09,0-.05a.09.09,0,0,1-.13,0l-.08-.08s0,0,.14-.21.25-.31.25-.39a.5.5,0,0,1,.1-.19c.06-.09.05-.11,0-.08a.18.18,0,0,1-.16,0s-.09,0-.14,0-.08,0,.06-.12.16-.19.12-.17-.12-.11.08-.33.17-.23,0,0l-.14.15-.35.35-1,1.1-1,1.06c-.36.4-.63.7-.6.68l-.08.11c-.09.11-.09.11,0,0s.12-.06,0,.17-.07.11,0,0c.25-.25.32-.29.2-.13l-.2.26c-.05.06-.08.11-.06.13s.05,0,.19-.14.16-.16.19-.09,0,.11-.11.23-.23.3-.08.16.16-.12,0,.14-.17.23-.15.24a.41.41,0,0,1-.06.17c-.07.11-.06.12.06,0s.21-.13.09,0a.15.15,0,0,0,0,.23c.09.1.08.14,0,.28s-.1.15.12,0,.29-.12.25,0,0,.07.14-.05.16-.15,0,0a.71.71,0,0,0-.12.5.36.36,0,0,1-.06.21c-.12.19-.06.18.16,0s.26-.22,0,0-.22.31,0,.14.11-.08,0,.08-.11.17-.06.13l.31-.19s0,.05-.08.1-.08.16.09,0,.14-.12,0,.05-.14.18.06,0,.21-.21,0,.11c-.1.13,0,.07.17-.13s.18-.16,0,0-.18.22-.07.1,0,0,0,.06-.08.11.07,0,.29-.27.1-.05-.2.27,0,.14.07,0,0,.06-.09.12.05,0c.38-.39.39-.4.13-.12s-.28.33-.08.13.18-.17,0,0-.16.23.08,0,.25-.25,0,0-.22.26,0,.06.21-.18,0,0-.12.16-.07.16a.41.41,0,0,0,.18-.12c.09-.1.08-.09,0,0Z"/><path class="cls-3" d="M183.6,276.79c-.14.17,0,.09.24-.19s.31-.31.09,0-.21.29,0,.1.11-.09.06,0,0,.07,0,.05,0,0-.07.13c-.22.28-.22.3-.06.14s.22-.19.15-.07,0,.05.09-.07.2-.19,0,0-.16.2,0,0,.11-.1.05,0,0,.06,0,0a.33.33,0,0,1,.11-.08l.07,0s0,.06-.13.16-.13.17-.09.14.07,0,.07,0,.06,0,.2-.17.56-.57,1.39-1.46c.55-.58.59-.62.94-1l.36-.4v0a.14.14,0,0,1,0-.1s0,0-.09.06-.1.09,0,0a.63.63,0,0,0,.1-.15H187c-.06,0,0,0,0-.12s.08-.12,0,0-.2.15,0,0,.26-.3.05-.11a5.75,5.75,0,0,1-.44.39l.16-.2c.14-.16.16-.19.11-.17s0,0,0-.1.07-.1,0,0a.33.33,0,0,1-.21.1c-.09,0-.09,0,.09-.23s.18-.2.12-.18-.09.06-.23.19-.21.21-.15.06,0-.07,0,0-.06.05,0,0,0-.07,0,0-.08.07,0,0l.09-.11-.1,0c-.07,0-.06,0,.05-.14s.11-.14.07-.1l-.1.07-.12.09c-.07.06-.06,0,.06-.09s.18-.22,0,0-.23.07-.08-.11.08-.1-.06,0-.23.15,0-.07.17-.27-.06,0-.19.17-.19.15a.54.54,0,0,0,0-.12.21.21,0,0,1,0-.19c0-.05,0-.06,0,0s-.08,0,0,0,0-.12,0-.12,0-.06,0-.13.14-.19.19-.26.06-.1,0-.06l-.21.19c-.11.1-.12.11-.07,0s-.22-.41-.34-.42,0-.06,0-.13,0-.09,0,0a.09.09,0,0,1-.13,0,.28.28,0,0,0-.08-.08s0,0,.14-.21.25-.31.25-.39a.58.58,0,0,1,.1-.19c.06-.09.05-.11,0-.08a.18.18,0,0,1-.16,0s-.09,0-.14,0-.08.05.06-.12.16-.19.12-.17-.12-.11.08-.33.17-.23,0,0l-.14.15-.35.35-1,1.11-1,1.05a7.72,7.72,0,0,0-.59.68l-.09.11c-.09.11-.09.12,0,0s.12-.06,0,.17-.07.11,0,0c.25-.24.32-.29.2-.13l-.2.26c-.05.06-.08.11-.06.13s.05,0,.19-.14.16-.16.19-.09,0,.11-.11.23-.23.3-.08.17.17-.13,0,.13-.17.23-.15.24a.41.41,0,0,1-.06.17c-.07.11-.06.12.06,0s.21-.13.09,0a.16.16,0,0,0,0,.23c.09.1.09.14,0,.28s-.1.15.12-.05.29-.12.25,0,0,.07.14,0,.16-.15,0,0a.72.72,0,0,0-.12.5.36.36,0,0,1-.06.21c-.12.19-.06.19.16,0s.26-.22,0,0-.22.31,0,.14.11-.08,0,.08-.11.17-.06.13l.31-.19s0,.05-.08.1-.08.17.09,0,.14-.12,0,.05-.14.18.06,0,.21-.21,0,.11c-.1.13,0,.07.17-.13s.18-.16,0,0-.18.22-.06.1,0,0,0,.06-.08.11.07,0,.29-.27.1,0-.2.27,0,.14.07,0,0,.06-.09.12.05,0c.38-.39.39-.4.14-.12s-.29.33-.09.13.18-.17,0,0-.16.23.08,0,.25-.25,0,0-.22.26,0,.06.21-.18,0,0-.12.16-.07.16.1,0,.18-.12.08-.09,0,0Z"/><path class="cls-3" d="M193.42,280.64c.14.17.08.06-.14-.27s-.24-.37,0-.09.24.25.1,0-.07-.13,0-.06.06.06,0,0,0,0,.11.09c.24.27.26.28.14.09s-.15-.26,0-.16,0,0,0-.11-.15-.23,0,0,.16.2,0,0-.09-.13,0-.06.05.05,0,0a.27.27,0,0,1-.05-.13v-.07s.06.05.14.15.14.17.12.12,0-.08,0-.07,0-.07-.13-.23c-.2-.31-.44-.67-1.15-1.66l-.81-1.11-.32-.44h0s-.06,0-.09,0,0,0,0,.1.07.11,0,0l-.12-.13,0,.09c0,.06,0,.05-.11-.05s-.1-.11,0,0,.11.22,0,0-.24-.3-.09-.06l.29.51-.17-.2c-.13-.17-.15-.19-.14-.14s0,0-.1-.06-.08-.09,0,0a.3.3,0,0,1,0,.23c0,.09,0,.09-.21-.13s-.16-.22-.15-.15,0,.1.14.26.16.25,0,.16-.07,0,0,.05,0,.07,0,0,0-.05,0,0,.05.09,0,0l-.1-.1v.1c0,.07,0,.06-.13-.08s-.12-.13-.09-.09l.06.12a.62.62,0,0,0,.06.14c0,.07,0,.06-.08-.08s-.18-.22,0,0,0,.24-.12.06-.09-.09,0,.06.09.26-.09.05-.23-.22-.05.05.13.21.11.21l-.14,0a.19.19,0,0,1-.18,0l0,0a0,0,0,0,0,0,0h0l1.84.12h0c-.07.05-.08,0,0-.05s.05-.13,0-.13,0-.05,0-.12l.19-.27c.05-.07.06-.1,0-.06l-.21.19c-.1.1-.12.11-.07,0s-.24-.43-.36-.45,0-.05,0-.12,0-.1,0-.06a.1.1,0,0,1-.14,0,.25.25,0,0,0-.09-.09s0,0,.14-.21.25-.31.25-.4a.59.59,0,0,1,.09-.19c.06-.08.06-.11,0-.08a.15.15,0,0,1-.16,0,.17.17,0,0,0-.15,0c-.09.06-.08.05.06-.12s.16-.19.12-.17-.13-.11.07-.34.17-.23,0,0l-.14.14-.35.35-1,1.11-1,1c-.36.4-.63.71-.59.68a.43.43,0,0,1-.08.11c-.1.11-.09.12,0,0s.12-.06,0,.17-.07.11,0,0c.25-.25.32-.29.2-.13l-.2.26c0,.06-.07.12-.06.13s.05,0,.19-.13.17-.16.2-.09,0,.11-.11.24-.23.3-.08.16.17-.13,0,.14-.17.23-.15.24a.29.29,0,0,1-.06.17c-.06.12,0,.13.07,0s.21-.13.09,0a.17.17,0,0,0,0,.24c.09.1.09.14,0,.28s-.11.16.12,0,.29-.12.26,0,0,.07.14-.05.16-.14,0,0a.72.72,0,0,0-.11.51.19.19,0,0,1,0,.14l3.64.24a.09.09,0,0,1,.06,0c.17.16.18.1,0-.16s-.16-.3,0,0,.27.27.14.05-.07-.12.07,0,.15.14.12.09-.13-.35-.13-.36l.09.11c.14.16.15.1,0-.1s-.09-.15,0,0,.15.16,0-.07-.16-.24.11.06c.1.11.06,0-.09-.2s-.13-.21,0,0,.18.23.09.09,0,0,0,0,.09.1,0-.07-.21-.35,0-.11.23.24.13.06,0-.07.06,0,.1.11,0-.05c-.31-.45-.31-.46-.09-.16s.27.35.11.11-.13-.21,0,0,.19.2,0-.08-.19-.29,0,0,.21.26.05,0-.12-.24.06,0,.13.15.14.1,0-.11-.08-.2-.07-.11,0,0Z"/><path class="cls-3" d="M199.84,276.05c.14.16.08.05-.14-.27s-.24-.38,0-.1.24.26.1,0-.07-.12,0-.06.06.07.05,0,0,0,.11.1c.24.27.25.28.13.08s-.14-.25,0-.15.05,0,0-.11-.14-.23,0,0,.16.19,0,0-.08-.12,0-.06.05.06,0,0a.36.36,0,0,1-.05-.13.25.25,0,0,1,0-.08l.14.16c.11.14.13.17.11.12s0-.09,0-.07a1,1,0,0,0-.13-.23c-.2-.32-.45-.67-1.16-1.66-.46-.65-.49-.69-.8-1.11l-.33-.44h0l-.09,0s0,0,0,.1.06.12,0,0l-.13-.14a.39.39,0,0,1,0,.09c0,.07,0,.05-.12-.05s-.09-.11,0,0,.11.23,0,0-.24-.31-.09-.06l.29.5-.17-.2c-.13-.16-.15-.19-.14-.14s0,0-.09-.06-.09-.09,0,0a.28.28,0,0,1,.05.22c0,.09,0,.09-.2-.13s-.17-.22-.16-.15a.94.94,0,0,0,.14.26c.16.23.17.25,0,.16s-.07,0,0,.05,0,.07,0,0-.06-.05,0,0,.06.1,0,0l-.1-.1v.1c0,.07,0,.05-.14-.08s-.11-.14-.08-.09a.51.51,0,0,1,.05.12l.07.13c0,.08,0,.07-.08-.08s-.18-.21,0,0,0,.24-.12.06-.09-.1,0,.06.1.25-.08,0-.23-.22-.06.05.13.22.11.21l-.13,0a.26.26,0,0,1-.19-.05s0,0,0,0,0,.08-.05,0-.12-.07-.12,0-.06,0-.12-.07l-.21-.23c-.06-.06-.09-.08-.07,0s.1.16.15.25.08.14,0,.07-.47.15-.5.27-.06,0-.12-.07-.09,0-.06,0a.1.1,0,0,1,0,.14l-.1.06s0,0-.18-.17-.25-.31-.34-.33a.44.44,0,0,1-.17-.12c-.07-.08-.1-.08-.08,0a.15.15,0,0,1,0,.15.17.17,0,0,0,0,.16c.05.09,0,.08-.1-.09s-.16-.19-.15-.14-.13.09-.32-.14-.18-.22,0,0l.11.17.28.4.88,1.24c.55.77.61.85.84,1.16s.57.76.55.72l.09.11c.1.11.1.11,0,0s0-.13.16.07.1.09,0,0c-.19-.29-.22-.37-.08-.21s.17.19.21.25.1.09.12.08,0-.05-.1-.22-.12-.19,0-.2.1,0,.2.14.26.29.15.12-.09-.19.12,0,.2.21.22.2.08,0,.15.09.11.08,0-.06-.09-.23,0-.08a.17.17,0,0,0,.24,0c.12-.07.16-.06.27.08s.14.13,0-.13-.05-.31,0-.26.07,0,0-.14-.11-.19,0,0a.61.61,0,0,0,.47.21.35.35,0,0,1,.2.1c.17.16.17.1,0-.16s-.16-.3.06,0,.26.27.13.06-.06-.12.07,0,.15.15.12.09a2.44,2.44,0,0,1-.12-.35l.09.1c.13.17.14.11,0-.09s-.09-.16.05,0,.15.16,0-.07-.16-.25.11,0c.1.12.06,0-.09-.2s-.13-.2,0,0,.18.22.09.08,0,0,.05,0,.09.1,0-.07-.21-.35,0-.12.23.25.13.07,0-.08.06,0,.1.11,0-.05c-.31-.45-.31-.46-.09-.16s.26.35.11.11-.13-.21,0,0,.19.2,0-.08-.18-.29,0,0,.21.26.05,0-.13-.24,0,0,.13.15.14.1,0-.11-.08-.2-.07-.11,0,0Z"/><path class="cls-3" d="M206.26,271.45c.13.17.08.06-.14-.27s-.24-.37,0-.09.24.25.09,0-.07-.13,0-.06.06.06,0,0,0,0,.12.09c.23.27.25.28.13.09s-.14-.26,0-.16,0,0-.05-.1-.14-.23,0,0,.16.19,0,0-.08-.12,0-.06.05.06,0,0a.3.3,0,0,1-.06-.13v-.07l.13.16c.11.14.14.16.12.11s0-.08,0-.07,0-.07-.13-.23c-.2-.31-.44-.66-1.15-1.65l-.81-1.11-.32-.44h0l-.09,0s0,0,0,.1.07.12,0,0l-.13-.14a.78.78,0,0,0,0,.09c0,.06,0,.05-.12-.05s-.09-.11,0,0,.1.23,0,0-.24-.3-.1-.06a5.62,5.62,0,0,1,.29.51l-.16-.2c-.13-.16-.16-.19-.15-.14s0,0-.09-.06-.09-.09,0,0a.3.3,0,0,1,0,.23c0,.09,0,.08-.21-.13s-.16-.22-.15-.16,0,.11.14.27.16.25,0,.16-.07,0,0,0,0,.08,0,0,0-.05,0,0,.05.1,0,0-.1-.12-.1-.11a.2.2,0,0,1,0,.11c0,.06,0,.05-.13-.08s-.11-.14-.09-.09a.45.45,0,0,1,.06.12,1.18,1.18,0,0,0,.06.13c0,.08,0,.06-.08-.08s-.18-.22,0,0,0,.24-.12.06-.08-.1,0,.05.09.26-.09.05-.23-.22-.05,0,.13.21.11.21l-.14,0a.2.2,0,0,1-.18,0c-.05,0-.06,0,0,0s0,.08-.06,0-.11-.07-.11,0-.06,0-.12-.07l-.22-.23c-.06-.07-.09-.08-.06,0l.15.24c.07.13.08.15,0,.08s-.46.15-.5.27l-.12-.07c-.06,0-.08,0,0,0a.11.11,0,0,1,0,.14.27.27,0,0,0-.11.06s0,0-.17-.18-.26-.3-.34-.32a.5.5,0,0,1-.17-.13c-.07-.07-.1-.07-.08,0s0,.13,0,.15,0,.09,0,.15,0,.09-.11-.08-.15-.19-.15-.15-.13.1-.31-.14-.19-.21,0,0l.12.16a4.16,4.16,0,0,0,.28.41c.25.37.34.49.87,1.24s.61.85.85,1.16.57.76.54.72,0,0,.1.1.1.11,0,0,0-.13.16.08.09.09,0,0c-.19-.29-.22-.37-.09-.22s.17.2.22.25.1.09.12.08,0,0-.1-.21-.12-.19,0-.2.11,0,.21.14.25.29.14.11-.09-.19.13.06.19.21.21.2.08,0,.15.09.12.07,0-.06-.08-.23.05-.09a.16.16,0,0,0,.24,0c.12-.07.16-.06.27.08s.13.13,0-.13-.06-.31,0-.26.08,0,0-.15-.11-.18,0,0a.69.69,0,0,0,.48.21.34.34,0,0,1,.2.1c.16.16.17.1,0-.16s-.16-.3.05,0,.27.27.14.05-.07-.11.07,0,.14.15.12.09-.13-.35-.13-.35l.09.1c.13.17.15.11,0-.09s-.09-.16.05,0,.15.17,0-.06-.17-.25.1.05c.11.12.07,0-.09-.2s-.12-.2,0,0,.18.22.08.08,0,0,.06.05.09.1,0-.08-.21-.34,0-.11.22.25.13.06,0-.07.06,0,.09.12,0,0c-.31-.46-.31-.46-.08-.16s.26.34.1.11-.13-.21,0,0,.19.2,0-.08-.19-.29,0,0,.21.26.05,0-.12-.24.06,0,.13.15.14.1a.37.37,0,0,0-.08-.2c-.08-.11-.07-.11,0,0S206.21,271.4,206.26,271.45Z"/><path class="cls-3" d="M212.67,266.86c.14.17.08.06-.14-.27s-.24-.37,0-.1.24.26.1,0-.07-.12,0-.05.07.06,0,0,0,0,.11.09c.24.27.26.28.14.09s-.15-.26,0-.16,0,0,0-.11-.15-.23,0,0,.16.19,0,0-.08-.13,0-.06.05.05,0,0a.27.27,0,0,1-.05-.13.56.56,0,0,0,0-.07s.06.05.14.16.13.16.11.11,0-.08,0-.07a1.29,1.29,0,0,0-.13-.23c-.2-.31-.45-.66-1.16-1.65-.46-.65-.49-.7-.8-1.12l-.33-.43h0a.21.21,0,0,1-.1,0s0,0,0,.1.07.11,0,0l-.13-.13a.44.44,0,0,1,0,.09c0,.06,0,.05-.12,0s-.09-.11,0,0,.11.22,0,0-.24-.3-.09-.06.3.51.29.51l-.17-.2c-.13-.17-.15-.19-.14-.14s0,0-.09-.06-.09-.09,0,0a.27.27,0,0,1,0,.23c0,.09,0,.08-.2-.13s-.17-.22-.16-.16a.74.74,0,0,0,.15.27c.15.22.16.25,0,.16s-.07,0,0,0,0,.07,0,0-.06-.05,0,0,.06.1,0,0l-.1-.1v.1c0,.07,0,.06-.13-.08s-.12-.13-.09-.08l.06.11a.62.62,0,0,0,.06.14c0,.08,0,.06-.08-.08s-.18-.22-.05,0,0,.24-.12,0-.09-.09,0,.06.1.26-.08.05-.23-.22-.06.05.13.21.11.21l-.13,0a.2.2,0,0,1-.19-.05s-.05,0,0,0,0,.09,0,0-.12-.07-.12,0-.05,0-.12-.07-.16-.17-.21-.24-.09-.07-.06,0l.14.24c.08.12.08.14,0,.08s-.47.15-.5.26-.06,0-.12-.06-.09,0-.06,0a.09.09,0,0,1,0,.13.21.21,0,0,0-.1.07s0,0-.18-.18-.25-.3-.34-.32a.69.69,0,0,1-.17-.13c-.07-.08-.09-.08-.08,0a.16.16,0,0,1,0,.16s0,.09,0,.15,0,.09-.1-.09-.16-.18-.15-.14-.13.1-.32-.14-.18-.21,0,0l.11.16.28.41.88,1.23c.55.78.61.86.84,1.17s.57.76.55.72l.1.1c.09.11.09.11,0,0s0-.13.16.08.1.08,0,0c-.19-.29-.22-.37-.08-.22l.21.25c0,.06.1.09.12.08s0-.05-.1-.21-.12-.19,0-.21.1,0,.2.15.26.28.15.11-.09-.19.12.06.2.21.22.2.08,0,.15.09.11.07.05-.06-.09-.23,0-.09a.18.18,0,0,0,.25,0c.11-.07.15-.07.26.07s.14.14,0-.12-.05-.31,0-.26.07,0,0-.15-.11-.18,0,0a.67.67,0,0,0,.47.21.33.33,0,0,1,.2.09c.17.17.17.1,0-.16s-.16-.29.06,0,.26.28.13.06-.06-.12.07,0,.15.14.12.09a2.49,2.49,0,0,1-.12-.36l.09.11c.13.16.14.1,0-.1s-.09-.15,0,0,.15.16,0-.06-.16-.25.11,0c.1.11.06,0-.09-.2s-.13-.2,0,0,.18.22.09.08,0,0,.05,0,.09.1,0-.07-.21-.34,0-.11.23.25.13.06,0-.07.06,0,.1.12,0,0c-.31-.46-.31-.46-.09-.16s.26.34.11.11-.13-.21,0,0,.19.2,0-.09-.19-.28,0,0,.21.27,0,0-.13-.23.05,0,.13.15.14.09,0-.11-.08-.2-.07-.1,0,0Z"/><path class="cls-3" d="M219.09,262.27c.13.17.08.06-.14-.27s-.24-.37,0-.1.24.26.09,0-.07-.12,0-.06.06.07,0,0,0,0,.12.09c.23.27.25.28.13.09s-.14-.26,0-.16.05,0,0-.11-.14-.23,0,0,.16.2,0,0-.08-.13,0-.06.05,0,0,0a.36.36,0,0,1-.06-.13v-.08l.13.16c.11.14.14.17.12.12s0-.08,0-.07,0-.07-.13-.23-.44-.67-1.15-1.66l-.81-1.11-.32-.44h0l-.09,0s0,0,0,.1.07.11,0,0a.63.63,0,0,0-.13-.13.41.41,0,0,0,0,.09c0,.06,0,0-.12-.06s-.09-.1,0,0,.1.22,0,0-.24-.3-.1-.06.3.51.29.5l-.16-.2c-.13-.16-.16-.18-.15-.13s0,0-.09-.07-.09-.09,0,0a.29.29,0,0,1,.05.22c0,.09,0,.09-.21-.13s-.16-.21-.15-.15,0,.1.14.26.16.26,0,.16-.07,0,0,0,0,.07,0,0-.05-.05,0,0,0,.1,0,0l-.1-.1a.16.16,0,0,1,0,.1c0,.07,0,.06-.13-.08s-.11-.13-.08-.09l.05.12a1.18,1.18,0,0,0,.06.13c0,.08,0,.07-.08-.07s-.18-.22-.05,0,0,.24-.12.06-.08-.09,0,.06.09.26-.09,0-.23-.22-.05,0,.13.22.11.22a.27.27,0,0,0-.14,0,.2.2,0,0,1-.18-.05s-.06,0,0,0,0,.09-.06,0-.11-.06-.11,0-.06,0-.12-.06l-.22-.24c-.06-.06-.09-.08-.06,0l.15.24c.07.12.08.14,0,.07s-.46.15-.5.27l-.12-.06c-.06-.05-.08,0-.05,0a.1.1,0,0,1,0,.14s-.1.05-.1.07,0,0-.18-.18-.26-.3-.34-.32a.69.69,0,0,1-.17-.13c-.07-.08-.1-.08-.08,0a.2.2,0,0,1,0,.16.13.13,0,0,0,0,.15c0,.1,0,.09-.11-.09s-.15-.18-.15-.14-.13.1-.31-.14-.19-.22,0,0l.12.17s.12.18.28.41.34.49.88,1.23.61.85.84,1.17.57.76.55.72,0,0,.09.1.1.11,0,0,0-.13.16.07.09.09,0,0c-.19-.3-.22-.37-.09-.22s.17.19.22.25.1.09.12.08,0-.05-.1-.21-.12-.2-.05-.21.11,0,.21.15.25.28.14.11-.09-.19.13.06.19.21.21.19.08,0,.15.09.12.08.05-.05-.08-.24,0-.09a.16.16,0,0,0,.24,0c.12-.08.16-.07.27.07s.13.13,0-.12-.06-.31,0-.26.08,0,0-.15-.11-.19,0,0a.73.73,0,0,0,.48.21.39.39,0,0,1,.2.09c.17.16.17.1,0-.16s-.16-.29.06,0,.26.28.13.06-.07-.12.07,0,.14.15.12.09-.13-.34-.13-.35l.09.11c.13.16.15.1,0-.1s-.09-.16.05,0,.15.16,0-.07-.17-.24.1.05c.11.12.07,0-.09-.19s-.12-.21,0,0,.18.23.08.09,0,0,.06,0,.09.1,0-.07-.21-.35,0-.11.22.24.13.06,0-.07.06,0,.09.12,0,0c-.31-.45-.31-.46-.08-.16s.26.35.1.11-.13-.21,0,0,.19.2,0-.08-.19-.29,0,0,.21.27,0,0-.12-.24.06,0,.13.15.14.1a.4.4,0,0,0-.08-.2q-.12-.17,0,0C219,262.1,219,262.21,219.09,262.27Z"/><path class="cls-3" d="M225.5,257.68c.14.16.08.05-.14-.27s-.24-.38,0-.1.25.26.1,0-.07-.12,0-.06.07.07.05,0,0,0,.11.1c.24.27.26.28.14.08s-.15-.25-.05-.15.05,0,0-.11-.15-.23,0,0,.15.19,0,0-.08-.12,0-.06.05.06,0,0a.36.36,0,0,1,0-.13s0-.06,0-.08l.14.16c.11.14.13.17.11.12s0-.09,0-.07a1,1,0,0,0-.13-.23c-.2-.32-.45-.67-1.16-1.66-.46-.65-.49-.69-.8-1.11l-.33-.44h0a.21.21,0,0,1-.1,0s0,0,0,.1.07.12,0,0l-.13-.14a.39.39,0,0,1,0,.09c0,.07,0,0-.11-.05s-.1-.11,0,0,.11.23,0,0-.24-.31-.09-.06l.29.5L223,254c-.13-.16-.15-.19-.14-.14s0,0-.09-.06-.09-.09,0,0a.25.25,0,0,1,.05.22c0,.09,0,.09-.2-.13s-.17-.22-.16-.15a.83.83,0,0,0,.15.26c.15.23.16.25,0,.16s-.07,0,0,.05,0,.07,0,0-.06,0,0,0,.06.1,0,0l-.1-.1v.1c0,.07,0,0-.13-.08s-.12-.14-.09-.09l.06.12a.45.45,0,0,0,.06.13c0,.08,0,.07-.08-.08s-.18-.21,0,0,0,.24-.12.06-.09-.1,0,.06.1.25-.08,0-.23-.22-.06.05.13.22.11.21l-.13,0a.26.26,0,0,1-.19,0s0,0,0,0,0,.08-.05,0-.11-.07-.12,0,0,0-.12-.07l-.21-.23c-.06-.06-.09-.08-.06,0l.14.25c.08.12.08.14,0,.07s-.47.15-.5.27-.06,0-.12-.07-.09,0-.06,0a.1.1,0,0,1,0,.14l-.1.06s0,0-.18-.17-.25-.31-.34-.33a.36.36,0,0,1-.16-.12c-.08-.08-.1-.08-.09,0a.15.15,0,0,1,0,.15.17.17,0,0,0,0,.16c.05.09,0,.08-.1-.09s-.16-.19-.15-.14-.13.09-.32-.14-.18-.22,0,0l.11.17.28.4.88,1.24c.55.77.61.85.84,1.16s.57.76.55.72l.1.11c.09.11.09.11,0,0s0-.13.16.07.1.09,0,0c-.19-.29-.22-.37-.08-.21s.17.19.21.25.1.09.12.08,0-.05-.1-.22-.12-.19,0-.2.11,0,.2.14.26.29.15.12-.09-.19.12.05.2.21.22.2.08,0,.15.09.11.08,0-.06-.09-.23,0-.08a.18.18,0,0,0,.25,0c.11-.07.15-.06.27.08s.13.13,0-.13,0-.31,0-.26.07,0,0-.14-.11-.19,0,0a.63.63,0,0,0,.47.21.35.35,0,0,1,.2.1c.17.16.17.1,0-.16s-.16-.3.06,0,.26.27.13.06-.06-.12.08,0,.14.15.11.09a2.44,2.44,0,0,1-.12-.35l.09.1c.13.17.14.11,0-.09s-.09-.16.05,0,.15.16,0-.07-.16-.25.11,0c.1.12.06,0-.09-.2s-.13-.2,0,0,.18.22.09.08,0,0,0,0,.09.1,0-.07-.21-.35,0-.12.23.25.13.07,0-.08.06,0,.1.11,0-.05c-.31-.45-.31-.46-.09-.16s.26.35.11.11-.13-.21,0,0,.19.2,0-.08-.19-.29,0,0,.21.26.05,0-.13-.24,0,0,.13.15.14.1,0-.11-.08-.2-.07-.11,0,0Z"/><path class="cls-3" d="M231.92,253.08c.13.17.08.06-.14-.27s-.24-.37,0-.09.24.25.09,0-.06-.13,0-.06.06.06,0,0,0,0,.12.09c.24.27.25.28.13.09s-.14-.26,0-.16,0,0-.05-.1-.14-.23,0,0,.16.19,0,0-.08-.12,0-.06,0,.06,0,0a.3.3,0,0,1-.06-.13v-.07l.13.16c.11.14.14.16.12.11s0-.08,0-.07,0-.07-.12-.23c-.21-.31-.45-.66-1.16-1.65l-.81-1.11-.32-.44h0l-.09,0s0,0,0,.1.07.12,0,0l-.13-.14a.78.78,0,0,0,0,.09c0,.06,0,0-.12-.05s-.09-.11,0,0,.1.23,0,0-.24-.3-.1-.06a5.62,5.62,0,0,1,.29.51l-.16-.2c-.13-.16-.16-.19-.15-.14s0,0-.09-.06-.09-.09,0,0a.3.3,0,0,1,0,.23c0,.09,0,.08-.21-.13s-.16-.22-.15-.16,0,.11.14.27.16.25,0,.16-.07,0,0,0,0,.08,0,0,0-.05,0,0,.05.1,0,0l-.1-.11a.2.2,0,0,1,0,.11c0,.06,0,0-.13-.09s-.11-.13-.08-.08l.05.12a1.18,1.18,0,0,0,.06.13c0,.08,0,.06-.08-.08s-.18-.22,0,0,0,.24-.12.06-.08-.1,0,.05.09.26-.09,0-.23-.22,0,.05.13.21.11.21l-.13,0a.21.21,0,0,1-.19,0c-.05-.05-.06,0,0,0s0,.09-.06,0-.11-.07-.11,0-.06,0-.12-.07l-.22-.23c-.06-.07-.08-.08-.06,0l.15.24c.07.13.08.15,0,.08s-.46.15-.5.27l-.12-.07c-.06,0-.08,0-.05,0a.09.09,0,0,1,0,.13.23.23,0,0,0-.1.07s-.05,0-.18-.18-.26-.3-.34-.32a.5.5,0,0,1-.17-.13c-.07-.07-.1-.07-.08,0s0,.13,0,.15a.13.13,0,0,0,0,.15c0,.1,0,.09-.11-.08s-.15-.19-.15-.15-.13.1-.31-.14-.19-.21,0,0l.12.16s.12.19.28.41c.26.37.34.49.88,1.24s.61.85.84,1.16.57.76.55.72l.09.1c.09.11.1.11,0,0s0-.13.16.08.09.09,0,0c-.19-.29-.22-.37-.09-.22s.17.2.22.25.1.09.12.08,0,0-.1-.21-.12-.19,0-.2.11,0,.21.14.25.29.14.11-.09-.19.13.06.19.21.21.2.08,0,.15.09.12.07,0-.06-.08-.23.05-.09a.16.16,0,0,0,.24,0c.12-.07.16-.06.27.08s.13.13,0-.13-.06-.31,0-.26.08,0,0-.15-.12-.18,0,0a.69.69,0,0,0,.48.21.34.34,0,0,1,.2.1c.17.16.17.1,0-.16s-.16-.3.06,0,.26.27.13,0-.07-.11.07,0,.14.15.12.09-.13-.35-.13-.35l.09.1c.13.17.15.11,0-.09s-.09-.16,0,0,.15.17,0-.06-.17-.25.1.05c.11.12.07,0-.09-.2s-.12-.2,0,0,.18.22.08.08,0,0,.06.05.09.1,0-.08-.21-.34,0-.11.22.25.13.06,0-.07.06,0,.09.12,0,0c-.31-.46-.31-.46-.08-.16s.26.34.1.11-.13-.21,0,0,.19.2,0-.08-.19-.29,0,0,.21.26.05,0-.12-.24.06,0,.13.15.14.1a.37.37,0,0,0-.08-.2c-.08-.11-.07-.11,0,0S231.87,253,231.92,253.08Z"/><path class="cls-3" d="M238.33,248.49c.14.17.08.06-.14-.27s-.24-.37,0-.1.25.26.1,0-.07-.12,0,0,.07.06.05,0,0,0,.11.09c.24.27.26.28.14.09s-.15-.26-.05-.16.05,0,0-.11-.15-.23,0,0,.15.2,0,0-.08-.13,0-.06.05.05,0,0a.27.27,0,0,1-.05-.13.56.56,0,0,0,0-.07s.06.05.14.16.13.16.11.11,0-.08,0-.07a1.29,1.29,0,0,0-.13-.23c-.2-.31-.45-.66-1.16-1.65-.46-.65-.49-.7-.8-1.12l-.33-.43h0a.21.21,0,0,1-.1,0s0,0,0,.1.07.11,0,0l-.13-.13a.51.51,0,0,1,0,.09c0,.06,0,.05-.11-.05s-.1-.11,0,0,.11.22,0,0-.24-.3-.09-.06a4.34,4.34,0,0,1,.29.51l-.17-.2c-.13-.17-.15-.19-.14-.14s0,0-.09-.06-.09-.09,0,0a.27.27,0,0,1,0,.23c0,.09,0,.08-.2-.14s-.17-.21-.16-.15a.74.74,0,0,0,.15.27c.15.22.16.25,0,.15s-.07,0,0,.05,0,.07,0,0-.06-.05,0,0,0,.1,0,0l-.1-.1v.1c0,.07,0,.06-.13-.08s-.12-.13-.09-.08l.06.11a.62.62,0,0,0,.06.14c0,.08,0,.06-.08-.08s-.18-.22-.05,0,0,.24-.12.05-.09-.09,0,.06.1.26-.08,0-.23-.22-.06.05.13.21.11.21l-.13,0a.2.2,0,0,1-.19,0s-.05,0,0,0,0,.09,0,0-.11-.07-.12,0-.05,0-.11-.07l-.22-.24c-.06-.06-.09-.07-.06,0l.14.24c.08.12.08.14,0,.08s-.47.15-.5.26-.06,0-.12-.06-.09,0-.06,0a.09.09,0,0,1,0,.13.21.21,0,0,0-.1.07s0,0-.18-.18-.25-.3-.34-.32a.69.69,0,0,1-.16-.13c-.08-.08-.1-.08-.09,0s0,.14,0,.16,0,.09,0,.15,0,.09-.1-.09-.16-.18-.15-.14-.13.1-.32-.14-.18-.21,0,0l.11.16.28.41.88,1.23c.55.78.61.86.84,1.17s.57.76.55.72,0,0,.1.1.09.11,0,0,0-.13.16.08.1.08,0,0c-.19-.29-.22-.37-.08-.22s.17.19.21.25.1.09.12.08,0,0-.09-.21-.13-.19-.05-.21.11,0,.21.15.25.28.14.11-.09-.19.13.06.19.21.21.2.08,0,.15.09.11.07.05-.06-.09-.23,0-.09a.16.16,0,0,0,.24,0c.11-.07.15-.07.27.07s.13.14,0-.12-.05-.31,0-.26.07,0,0-.15-.11-.18,0,0a.67.67,0,0,0,.47.21.33.33,0,0,1,.2.09c.17.17.18.1,0-.16s-.16-.29.06,0,.26.28.13.06-.06-.12.08,0,.14.15.11.1a2.49,2.49,0,0,1-.12-.36l.09.11c.13.16.14.1,0-.1s-.09-.15.05,0,.15.16,0-.06-.16-.25.11,0c.1.11.06,0-.09-.2s-.13-.2,0,0,.18.22.09.08,0,0,.05,0,.09.1,0-.07-.21-.34,0-.11.23.25.13.06,0-.07.06,0,.1.12,0,0c-.31-.46-.31-.46-.09-.16s.26.34.11.11-.13-.21,0,0,.19.2,0-.09-.19-.28,0,0,.21.27,0,0-.13-.23.05,0,.14.15.14.09,0-.11-.08-.2-.07-.1,0,0Z"/><path class="cls-3" d="M244.75,243.9c.13.16.08.06-.14-.27s-.24-.37,0-.1.24.26.1,0-.07-.12,0-.06.06.07,0,0,0,0,.12.09c.24.27.25.28.13.09s-.14-.26,0-.16.05,0,0-.11-.14-.23,0,0,.16.2,0,0-.08-.13,0-.06.05.05,0,0a.36.36,0,0,1-.06-.13v-.08l.13.16c.11.14.14.17.12.12s0-.08,0-.07,0-.07-.12-.23c-.21-.31-.45-.67-1.16-1.66-.46-.65-.5-.69-.81-1.11l-.32-.44h0a.14.14,0,0,1-.09,0s0,0,0,.11.06.11,0,0l-.13-.13a.41.41,0,0,0,0,.09c0,.06,0,0-.12-.06s-.09-.1,0,0,.1.22,0,0-.24-.3-.1-.06.3.51.29.5l-.16-.2c-.13-.16-.16-.18-.15-.13s0,0-.09-.07-.09-.09,0,0a.28.28,0,0,1,.05.22c0,.09,0,.09-.21-.13s-.16-.21-.15-.15a.71.71,0,0,0,.14.26c.16.23.16.26,0,.16s-.07,0,0,0,0,.07,0,0-.05,0,0,0,.05.1,0,0-.1-.11-.1-.1a.25.25,0,0,1,0,.1c0,.07,0,.06-.14-.08s-.11-.14-.08-.09l.05.12.06.13c0,.08,0,.07-.08-.07s-.18-.22-.05,0,0,.24-.12.06-.08-.09,0,.06.09.26-.09,0-.23-.22-.05.05.13.22.11.22a.23.23,0,0,0-.13,0,.25.25,0,0,1-.19,0s0,0,0,0,0,.09-.06,0-.11-.06-.11,0-.06,0-.12-.06l-.22-.24c-.06-.06-.08-.08-.06,0l.15.24c.07.12.08.14,0,.07s-.46.15-.5.27l-.11-.06c-.07-.05-.09,0-.06,0a.1.1,0,0,1,0,.14c-.05,0-.1.05-.1.07s0,0-.18-.18-.26-.3-.34-.32a.69.69,0,0,1-.17-.13c-.07-.08-.1-.08-.08,0a.2.2,0,0,1,0,.16.13.13,0,0,0,0,.15c0,.1,0,.09-.11-.09s-.15-.19-.15-.14-.13.1-.31-.14-.19-.22,0,0l.12.17.28.41c.26.36.34.49.88,1.23s.61.85.84,1.17.57.76.55.72,0,0,.09.1.1.11,0,0,0-.13.16.07.09.09,0,0c-.19-.3-.22-.37-.09-.22s.17.19.22.25.1.09.12.08,0-.05-.1-.21-.12-.2-.05-.21.11,0,.21.15.25.28.15.11-.1-.19.12.06.2.21.21.19.08,0,.15.09.12.08.05,0-.08-.24.05-.09a.16.16,0,0,0,.24,0c.12-.08.16-.07.27.07s.13.13,0-.12-.06-.31,0-.26.08,0,0-.15-.12-.19,0,0a.73.73,0,0,0,.48.21.39.39,0,0,1,.2.09c.17.16.17.1,0-.16s-.16-.29.06,0,.26.28.13.06-.07-.12.07,0,.15.15.12.09-.13-.34-.13-.35l.09.11c.13.16.15.1,0-.1s-.09-.16.05,0,.15.16,0-.07-.16-.24.1.05c.11.12.07,0-.09-.19s-.12-.21,0,0,.18.23.08.09,0,0,.06,0,.09.1,0-.07-.21-.35,0-.11.22.24.13.06,0-.07.06,0,.09.12,0,0c-.3-.45-.31-.46-.08-.16s.26.35.1.11-.13-.21,0,0,.19.2,0-.08-.19-.29,0,0,.21.27.06,0-.13-.24,0,0,.13.15.14.1a.4.4,0,0,0-.08-.2q-.12-.16,0,0Z"/><path class="cls-3" d="M249.84,240.25c.13.17.07.07-.15-.25s-.25-.37,0-.09.22.27.07,0-.08-.12,0,0,.06.06,0,0,0,0,.1.1c.22.28.23.29.11.1s-.16-.25-.07-.14,0,0-.05-.1-.15-.22,0,0,.15.2,0,0-.09-.12,0-.06,0,.06,0,0a.33.33,0,0,1-.06-.12.16.16,0,0,0,0-.06s.06.06.13.16.13.17.11.12,0-.07,0-.06l-.14-.22c-.21-.31-.46-.66-1.17-1.65-.46-.65-.49-.69-.8-1.11l-.32-.44h0l-.07,0s0,0,.05.09.07.11,0,0l-.11-.14a.32.32,0,0,0,0,.08c0,.05,0,0-.09-.08s-.09-.11,0,0,.12.21,0,0-.23-.31-.07-.07a5.1,5.1,0,0,1,.31.49l-.16-.21c-.12-.17-.15-.19-.13-.15l-.07-.07c-.08-.1-.08-.1,0,0a.45.45,0,0,1,.08.19c0,.07,0,.07-.17-.15s-.16-.22-.14-.17a1.44,1.44,0,0,0,.16.26c.16.22.17.24,0,.13s0,0,0,0,0,.07,0,0-.05,0,0,0,.06.09,0,0l-.09-.11,0,.08c0,.06,0,0-.11-.09l-.08-.1.06.11a.76.76,0,0,0,.08.13c0,.07,0,.06-.08-.09s-.17-.22,0,0,.08.21-.06,0-.08-.1,0,0,.12.24,0,0-.21-.24,0,0a.86.86,0,0,1,.13.2h-.08a.25.25,0,0,1-.14-.08c0-.05,0,0,0,0s0,.08,0,0-.09-.08-.09-.06,0,0-.09-.08l-.2-.25c-.06-.07-.08-.09,0,0s.1.14.15.23.09.14,0,.07-.28,0-.28.11l-.09-.08c-.05-.06-.07,0,0,0s0,.1,0,.1-.06,0-.06,0,0,0-.16-.19-.24-.32-.3-.35l-.15-.15c-.06-.08-.08-.09-.05,0a.17.17,0,0,1,0,.13s0,.07,0,.12,0,.08-.09-.1-.15-.19-.13-.15-.07.05-.25-.19-.17-.22,0,0l.12.16.28.41.88,1.23c.56.77.61.85.84,1.17s.56.76.54.72l.09.11c.08.11.09.11,0,0s0-.12.13.1.08.09,0,0c-.2-.29-.24-.36-.11-.2a3.08,3.08,0,0,1,.2.26.32.32,0,0,0,.1.09s0,0-.12-.2-.12-.19-.08-.18.08,0,.18.17.23.3.12.13-.1-.18.1.07a1,1,0,0,0,.19.22s.06,0,.12.11.1.09,0,0-.11-.21,0-.06.12.11.17.08.09,0,.2.12.12.15,0-.1-.11-.28-.05-.22.05,0,0-.12-.12-.18,0,0a1.07,1.07,0,0,0,.37.29.51.51,0,0,1,.16.12c.15.18.14.13,0-.13s-.18-.28,0,0,.24.29.11.08-.08-.11.05,0,.13.16.1.11-.17-.32-.16-.32,0,0,.08.1.12.13,0-.07-.1-.15,0,0,.14.17,0-.05-.16-.25.08.06c.1.12.06.05-.1-.18s-.13-.2,0,0,.18.23.08.09,0,0,.05,0,.08.1,0-.06-.22-.34-.05-.11.21.26.1.09,0-.07,0,0,.09.12,0,0c-.31-.45-.32-.45-.1-.15s.26.35.1.12-.14-.21,0,0,.17.21,0-.07-.2-.29,0,0,.21.27,0,0-.14-.23,0,0,.13.16.12.11a.56.56,0,0,0-.1-.18q-.12-.16,0,0Z"/><circle class="cls-5" cx="190.46" cy="278.81" r="11.98"/><path class="cls-3" d="M195.49,270.37c.1.24.39.29.7.21s.45,0,.53.32a1.16,1.16,0,0,0,.79.76c.17,0,.24.11.24.2a.62.62,0,0,0,.23.29.88.88,0,0,1,.33.54c.16.62.21.68.45.81a1,1,0,0,1,.54.73c0,.22.09.28.24.31s.29.18.18.35-.07.31.11.32.12.06.1.17,0,.17.06.19a1.26,1.26,0,0,1,.24.47l.19.59a.4.4,0,0,1-.07.34.36.36,0,0,0,0,.4,1.17,1.17,0,0,1,.11.6.72.72,0,0,0,.2.46c.26.29.56.38,1.37.38a1.47,1.47,0,0,0,.9-.16l.36-.18,0-.64c0-.35-.06-.83-.07-1.06a1,1,0,0,0-.17-.59c-.12-.13-.14-.23-.12-.56a2.21,2.21,0,0,0,0-.54c0-.08-.24-.6-.47-1.17a3.88,3.88,0,0,1-.5-1.24.4.4,0,0,0-.24-.4c-.3-.18-.64-.74-.59-.91s0-.45-.45-.72a9,9,0,0,1-1.08-.63,1.91,1.91,0,0,1-.13-.38c-.07-.25-.16-.36-.48-.61a3.6,3.6,0,0,1-.59-.56.65.65,0,0,0-.45-.34c-.17,0-.77-.4-1.71-.84-.72-.35-1.11-.46-1.32-.56s-.25-.16-.3-.27-.16-.26-.74-.36-.66-.1-.78,0-.36.12-1.46-.11a4.34,4.34,0,0,0-1.1,0,1,1,0,0,1-.52,0,.55.55,0,0,0-.45,0,.73.73,0,0,1-.53,0,1.52,1.52,0,0,0-.45,0c-.08,0-.61.11-1.15.29-.83.24-1,.32-1.24.27a.51.51,0,0,0-.41.07c-.08.06-.26.16-.39.24a5.36,5.36,0,0,0-.49.34c-.2.17-.27.18-.4.12s-.4,0-.49.24a18.44,18.44,0,0,1-2.19,1.58c-.19.06-.3.15-.56.56a4.28,4.28,0,0,1-.63.89,2.39,2.39,0,0,1-.63.61,1.73,1.73,0,0,0-.83,1.31,1.16,1.16,0,0,1-.16.66,11.6,11.6,0,0,0-.9,2.33,16.66,16.66,0,0,0-.5,2.47,2.55,2.55,0,0,0,0,.83,3.9,3.9,0,0,1,.05,1.19,7.79,7.79,0,0,0,.15,1.47,5.26,5.26,0,0,1,.21,1.14c0,.25.07.65.1.9a1.12,1.12,0,0,0,.17.57l.37.34a.61.61,0,0,1,.27.45,10.82,10.82,0,0,0,.8,1.4,13,13,0,0,0,5.71,4.68,14.13,14.13,0,0,0,2.55.76c.14,0,.68.14,1.21.26a5.53,5.53,0,0,0,1.21.08l.74-.07a12.09,12.09,0,0,0,1.42-.15,10.79,10.79,0,0,0,2.47-.63,1.39,1.39,0,0,1,.87-.16,1.29,1.29,0,0,0,.62-.06,5.18,5.18,0,0,0,1.18-.54c.43-.22,1-.55,1.21-.67a3.5,3.5,0,0,0,1.14-.93,18.14,18.14,0,0,0,1.63-2,6.78,6.78,0,0,0,.68-1.07,3.88,3.88,0,0,0,.36-.76c.14-.44.18-.52.42-.67s.3-.28.44-.72c.54-1.69.83-3.5,1-3.74s.21-.6,0-.68-.13-.08-.13-.12a.72.72,0,0,0-.32-.19,2,2,0,0,0-1-.13,1.94,1.94,0,0,0-1,.12c-.36.14-.65.35-.63.48a.49.49,0,0,1-.1.3.53.53,0,0,0-.06.48,2.14,2.14,0,0,1-.39,1.46c-.16.28-.18.4-.15.5a.94.94,0,0,1-.21,1,2.81,2.81,0,0,1-.42.37,5.93,5.93,0,0,0-.46.69c-.32.51-.34.62-.29.75s0,.27-.77,1.18a5.19,5.19,0,0,1-.8.75.67.67,0,0,1-.36.17.94.94,0,0,0-.77.46c-.14.32-.46.47-1,.56a3,3,0,0,0-.93.26,5.1,5.1,0,0,1-1.15.33,3.23,3.23,0,0,0-1.18.32,2,2,0,0,1-1.44.2c-.11-.05-.4,0-.88-.07a11.4,11.4,0,0,1-2-.3,7.82,7.82,0,0,1-1.31-.42A4.29,4.29,0,0,1,186,288c-.35-.19-.47-.29-.52-.39-.13-.26-.36-.36-.8-.41a4.68,4.68,0,0,1-1.06-.68,7,7,0,0,1-1.1-1.1c-.32-.52-.67-.91-.78-.9s-.26-.16-.24-.37a15.06,15.06,0,0,1-1.12-4.13,5.84,5.84,0,0,1,.07-1.71,3.07,3.07,0,0,0,.12-1.65.81.81,0,0,1,.27-1,1.46,1.46,0,0,0,.51-1.08c0-.19,0-.28.31-.54a1.17,1.17,0,0,0,.43-.53,6.66,6.66,0,0,1,.8-1.45.44.44,0,0,1,.18-.06,2.13,2.13,0,0,0,.82-.86c.07-.24.12-.28.52-.4s.42-.15.51-.41.07-.28.79-.4a.58.58,0,0,0,.57-.43c0-.21.21-.28.36-.14s.33.09.35,0,.14-.07.29-.06.28,0,.36-.16.44-.39.64-.24a1.31,1.31,0,0,0,1.12-.1.5.5,0,0,1,.48,0c.17.09.19.09.27,0,.21-.37.22-.39.35-.13s.19.3.37.12.26-.15.45,0,.6.27.75.05.27-.19.37.05.21.28.46.14a.64.64,0,0,1,.79.24c.11.18.28.23.82.44s.72.27.8.23.11,0,.11.11A.94.94,0,0,0,195.49,270.37Z"/><path class="cls-6" d="M188,273.92c.07.13.07,0,0-.22s0-.29.06-.08.15.2.14,0,0-.1,0-.05,0,.05.05,0,.05,0,.1.07.13.23.13.07,0-.2.08-.12,0,0,0-.08,0-.19,0,0,.05.16,0,0,0-.1,0,0,0,0,0,0a.12.12,0,0,1,.05-.1l.07-.05s0,.05,0,.14,0,.14.05.1,0-.06.07,0,0-.05.05-.18a10.4,10.4,0,0,0,0-1.35c0-.53,0-.56,0-.91l0-.36h-.11l-.19-.05s-.08,0-.09.08,0,.09-.1,0-.09-.12-.11-.11l-.2.07c-.13.05-.19,0-.24,0s-.06-.09-.08,0-.12.19-.18,0-.12-.24-.15,0a2,2,0,0,1-.09.42.67.67,0,0,1-.11-.15c-.08-.12-.11-.13-.16-.08a.11.11,0,0,1-.16,0c-.06-.07-.08-.06-.09,0s-.09.16-.25.25-.23.14-.34,0-.11-.15-.19-.07-.07.11,0,.23,0,.2-.17.21-.15.05-.15.1,0,.08-.08.05-.07,0,0,.06,0,.09-.08,0-.11,0-.12,0a1.25,1.25,0,0,1-.13.17c-.09.11-.13.12-.23.05s-.11-.06-.1,0a.24.24,0,0,1,0,.12.31.31,0,0,0,0,.14c0,.07,0,.06-.1,0s-.17-.09-.09,0-.2.38-.35.32-.1,0-.07.11,0,.31-.23.25-.29.05-.15.22.09.15.06.18a2.1,2.1,0,0,0-.27.33,1.24,1.24,0,0,1-.3.31c-.06,0-.08.07-.06.13s0,.12-.1.17a.41.41,0,0,0-.16.19.21.21,0,0,1-.15.15l-.25.05c-.07,0-.11.05-.08.08l.15.14c.07.06.08.09,0,.09a5.28,5.28,0,0,0-.53,1.8.47.47,0,0,1-.11.18c-.06.08-.08.16,0,.18a.57.57,0,0,1,0,.34,3.12,3.12,0,0,0,0,.39c0,.08,0,.1-.17.11s-.28.08-.34.25a.43.43,0,0,1-.15.2c-.07,0-.08.11,0,.21a1.32,1.32,0,0,1,.05.37.52.52,0,0,0,.06.31c.07.07.06.08-.09.11s-.17,0-.14.11c.08.25,0,.5-.22.52s-.19.08,0,.1a.46.46,0,0,1,.13,0l.33,0c.3,0,.4,0,1,0s.7,0,1,0a1.92,1.92,0,0,0,.6-.06s0,0,.09-.05.1,0,0-.08-.08-.14.11-.25.09-.07,0-.08c-.23-.06-.29-.12-.15-.18l.22-.07a.19.19,0,0,0,.1-.14c0-.1,0-.12-.15-.14s-.15,0-.11-.24.06-.22.17-.23.26-.09.13-.14-.13-.11.1-.18.19-.08.2-.14a.32.32,0,0,1,.13-.18c.09-.08.1-.12,0-.2s-.14-.19,0-.24.12-.17.18-.44.11-.4.23-.4.14,0,0-.15-.1-.37,0-.43.07-.15,0-.19-.12-.09,0-.07.32-.2.5-.43a.37.37,0,0,1,.22-.14c.17,0,.18-.08,0-.22s-.14-.2.08-.11.26,0,.15-.07,0-.08.08,0,.14,0,.12,0a1.57,1.57,0,0,1-.06-.3l.08,0c.12.08.16,0,.07-.13s-.07-.11.06,0,.14.07,0-.08-.12-.16.12,0c.09.06.08,0,0-.16s-.07-.15,0,0,.14.13.08,0,0,0,0,0,.09.05,0-.07-.11-.25,0-.1.18.13.16,0,0-.07.07,0,.07.07,0,0c-.18-.33-.17-.33,0-.13s.17.24.09.07,0-.16.05,0,.16.12.06-.08-.08-.22,0,0,.13.19.07,0,0-.19.09,0,.09.1.15.05a.15.15,0,0,0,0-.17c0-.09,0-.08,0,0Z"/><path class="cls-5" d="M190,285.86a7.51,7.51,0,0,0,6.44-8.84"/><path class="cls-3" d="M198.69,279.2c.15,0,.08-.12-.18-.18s-.29-.1-.06-.16.25-.18.06-.26-.09-.06,0-.08a.05.05,0,0,0,0-.09s0-.09.09-.15.25-.18.1-.23-.21-.13-.12-.23,0-.07-.08-.08-.18-.06,0-.1.16-.08,0-.08-.1,0-.05-.05.05,0,0-.05-.08-.06-.1-.11l-.06-.14s0-.07.13-.1.13-.07.09-.11-.07-.07-.07-.14-.06-.07-.19-.09a5.2,5.2,0,0,0-1.33.16,8.8,8.8,0,0,0-.9.2l-.35.08v.09a.33.33,0,0,1,0,.15s0,.07.08.07.09,0,0,.08l-.11.09.06.16c0,.1,0,.15-.06.18s-.1,0,0,.06.17.12,0,.14-.25,0-.06.11a1.82,1.82,0,0,1,.39.16l-.18.05c-.14,0-.16,0-.13.1s0,.08-.08.1-.08,0,0,.07.1.12.11.26,0,.22-.17.22-.19,0-.16.08.06.09.18.13.19.08.06.21-.06.11,0,.14,0,.07,0,.07-.05,0,0,.07.06.05,0,.06-.11,0-.11,0a.42.42,0,0,1,0,.16c0,.12,0,.15-.14.13s-.13,0-.09,0l.06.08a.24.24,0,0,0,.06.11c0,.05,0,.05-.09,0s-.19,0-.05.06,0,.35-.14.32-.1,0,0,.11.07.25-.12.22-.25,0-.08.18.12.13.09.16l-.2.27a.58.58,0,0,1-.27.22s-.07,0,0,.09,0,.11-.1.12a.24.24,0,0,0-.17.11.13.13,0,0,1-.16.06l-.23-.06c-.06,0-.09,0-.08,0l.1.17c.05.08.05.1,0,.08s-.95.75-1.15.9a.39.39,0,0,1-.18,0c-.08,0-.14,0-.13.07s-.09.12-.2.18l-.29.14c-.05,0-.08,0-.16-.1s-.18-.21-.32-.2a.26.26,0,0,1-.19-.07c-.06,0-.11,0-.16,0a.52.52,0,0,1-.24.15.36.36,0,0,0-.2.14c0,.08,0,.07-.1-.06s-.08-.15-.12-.12a.25.25,0,0,1-.42-.12c-.05-.18-.08-.18-.06,0v.13s0,.15,0,.33,0,.4.11,1,.09.69.14.95a1.63,1.63,0,0,0,.17.58s0,0,.07.08.07.09.1,0,.15-.1.32.05.11.06.11,0c0-.24.06-.3.16-.19a2,2,0,0,1,.16.19s.11.06.19,0,.14-.05.11-.19,0-.16.24-.21.27,0,.33,0,.22.19.22.05.07-.18.26,0,.2.12.27.09a.49.49,0,0,1,.28,0c.16,0,.21,0,.25-.14s.13-.25.27-.18.29,0,.64-.27.51-.34.62-.27.18,0,.12-.19.27-.48.4-.53.21-.17.14-.25-.06-.15.06-.08.5-.18.88-.56a1.06,1.06,0,0,1,.35-.26c.23-.05.29-.2.16-.38s-.1-.25.14-.21.33-.06.22-.21,0-.1.11-.11.18,0,.17-.1a2.88,2.88,0,0,1,0-.47.29.29,0,0,1,.1,0c.15,0,.2-.16.08-.28s-.09-.11.08-.15.17,0,0-.15-.16-.12.14-.18c.12,0,.09-.12-.08-.21s-.12-.11,0-.08.2,0,.1-.05,0,0,.06-.06.11,0,0-.11-.22-.19,0-.17.25-.09.14-.24,0-.09.07-.1.11,0,0-.07c-.35-.14-.35-.14-.1-.11s.29,0,.12-.07-.15-.09,0-.11.21-.12,0-.18-.22-.1,0-.09.23,0,0-.11-.15-.16,0-.2.15-.06.14-.21-.05-.19-.12-.21-.08,0,0,0A.73.73,0,0,0,198.69,279.2Z"/></svg>