<svg id="Layer_3" data-name="Layer 3" xmlns="http://www.w3.org/2000/svg" viewBox="0 0 720 720"><defs><style>.cls-1{fill:#fff;}.cls-2{fill:#2a3141;}</style></defs><title>face-1</title><path class="cls-1" d="M157.51,135.71c6.5-.54,12.22-7.44,15.6-13.16s5.79-12.09,8.78-18.09a23.76,23.76,0,0,1,4.38-6.59c1.86-1.78,4.33-2.9,6.62-2.34,5,1.21,6.73,9.33,11.75,10.5,2.15.5,4.44-.46,6.31-1.91A49.58,49.58,0,0,0,216.08,99a8.89,8.89,0,0,1,4.35-2.33,14.72,14.72,0,0,1,4.3.24c3.18,1.21,4,3,5.86,6.2,1.33,2.31,1.63,5.21,2.11,8,1.64,9.35,3.94,19.22,8.32,27.19,3.17,5.78,10.48,13,16,15.67L247.85,161l-17.29-1.92-48.92-13.25-22.82-5.39Z"/><path class="cls-2" d="M198.26,147a5.27,5.27,0,0,0-3-.51,3.13,3.13,0,0,1-2.59-.61,12.53,12.53,0,0,0-4.52-1.3,3,3,0,0,1-1.32-.3,7.23,7.23,0,0,0-1.52-.46,13.17,13.17,0,0,1-2.58-.84c-2.39-.95-2.83-1.06-3.89-1.08a13.09,13.09,0,0,1-3.9-.77,3,3,0,0,0-1.61-.26,2,2,0,0,1-1.67-.37,1.68,1.68,0,0,0-1.45-.37c-.22.09-.44.05-.82-.13a2.32,2.32,0,0,0-.84-.22,19.25,19.25,0,0,1-2.2-.38l-2.58-.54a4.2,4.2,0,0,1-1.27-.52,3.86,3.86,0,0,0-1.63-.55c-.66-.11-1-.16-1.34-.24l2.18,2.1a4.09,4.09,0,0,0-.23-.6,3.47,3.47,0,0,0-.93-.91c-.93-.77-1.45-1.37-2.44-2.06-.66-.45-.68-.5-1-.18l-.38.41c.12.84.27,1.71.45,2.57.13.64.31,1.37.44,1.89l.18.7.76.21,1.92.51a8.35,8.35,0,0,0,2,.37,4.29,4.29,0,0,1,1.87.47c.66.26,1.42.53,1.68.59l4.1.9a25,25,0,0,1,4.35,1.14A2.87,2.87,0,0,0,176,146a8.81,8.81,0,0,1,3.51.83c.45.49,1.09.61,2.72.78a40.11,40.11,0,0,1,4,.48,7.82,7.82,0,0,1,1.11.57,7.36,7.36,0,0,0,2.47.87,16.11,16.11,0,0,1,2.57.81,4.82,4.82,0,0,0,1.81.49c.55,0,2.81.58,6.19,1.46,5.21,1.35,5.35,1.39,5.82,1.8s.65.46,2.54.92c1.65.39,2.13.46,2.48.36.51-.15,1.18,0,4.79,1.15a32.14,32.14,0,0,0,3.56.94,7,7,0,0,1,1.72.47,4.35,4.35,0,0,0,1.48.37,4.57,4.57,0,0,1,1.72.48,9.13,9.13,0,0,0,1.38.52l3.87,1,.39.1.26,0h0l-.24,0,.21,0a14.5,14.5,0,0,1,3.73.58,3.33,3.33,0,0,0,1.33.27c.34,0,1,0,1.54,0s1.39.07,2,.07c.85,0,1.09.06,1.36.27a2.29,2.29,0,0,0,1.79.24,43.3,43.3,0,0,1,5.58.47l.53.07.46-.35a28.7,28.7,0,0,1,2.82-2,7.38,7.38,0,0,0,2.06-1.65,27,27,0,0,1,4.28-3.44l1.83-1.09-2.07-1.27a5.64,5.64,0,0,1-.82-.56,21.54,21.54,0,0,0-4.06-2.78,5.52,5.52,0,0,1-1.79-1.19,51.23,51.23,0,0,1-5.66-6,29.47,29.47,0,0,1-2.91-4.31,26.46,26.46,0,0,1-1.27-2.66c-.28-.7-.74-1.75-1.12-2.46a19,19,0,0,1-1.38-3.64l-1.36-4.67a28.59,28.59,0,0,1-.84-3.69c-.1-.79-.25-2.07-.33-2.84a9.51,9.51,0,0,0-.33-1.86l-.57-1.43a4.36,4.36,0,0,1-.39-1.65l-.86-5.26a24.61,24.61,0,0,0-.61-2.66,13.68,13.68,0,0,0-1.27-3c-.5-.85-1-1.77-1.64-2.76a10.32,10.32,0,0,0-2.67-2.84,11.28,11.28,0,0,0-1.76-1,7.82,7.82,0,0,0-1.06-.38,8.84,8.84,0,0,0-1.07-.18c-.64-.07-1.23-.09-1.83-.1a13.1,13.1,0,0,0-1.91.09,7.25,7.25,0,0,0-2,.63,11.66,11.66,0,0,0-1.64.89,10,10,0,0,0-1.5,1.17c-.45.45-.74.78-1.09,1.15a41.57,41.57,0,0,1-3.5,3.57,10.41,10.41,0,0,1-2.5,1.63,4.37,4.37,0,0,1-2.81.23,5.26,5.26,0,0,1-1.49-.82c-.43-.34-.76-.64-.91-.76s-.25-.23-.51-.49-.58-.64-1-1.14c-.76-1-1.69-2.36-2.92-3.83A12.43,12.43,0,0,0,196,95a8,8,0,0,0-1.38-.83,11.12,11.12,0,0,0-1.51-.5,7.66,7.66,0,0,0-4.25.37,14.45,14.45,0,0,0-2,.94c-.44.23-.75.38-1.14.54a6.24,6.24,0,0,0-1.87,1.33,17.58,17.58,0,0,0-2.81,3.68c-.86,1.43-1.81,3.19-2.27,3.94a31.37,31.37,0,0,0-2,4.23c-.65,1.58-2.07,4.89-3.24,7.28s-2.53,4.93-2.93,5.69a4.43,4.43,0,0,1-1.38,1.9,7.6,7.6,0,0,0-1.61,1.86,22.86,22.86,0,0,1-4.89,5,6.91,6.91,0,0,1-3.13,1.46c-.6,0-1.34.14-1.45.45l0,.09,0,0-.12.05a3.45,3.45,0,0,1-.47.17,2.91,2.91,0,0,0-1.24,1c-.47.78-.3.86.42,1.39a7.11,7.11,0,0,0,1.53.84,3.46,3.46,0,0,1,.49.35c.14.11.17.23.42.24a2.25,2.25,0,0,0,1.05,0,9.49,9.49,0,0,1,1.33-.34,3.89,3.89,0,0,0,1.86-.93c1-.76,2.85-2,5.1-3.86,1-.84,1.33-1.24,1.47-1.59a13,13,0,0,1,2.36-3.39c.57-.62,1.21-1.33,1.44-1.56a19.57,19.57,0,0,0,1.88-2.91c1.2-2.19,1.32-2.58,1.29-2.94s.21-.82,2.25-5.18c1.77-3.84,2.27-4.83,2.63-5.21a8.92,8.92,0,0,0,1.68-3.13,9.18,9.18,0,0,1,2.27-3.83c.81-.85,1.53-1.62,2.37-2.38a6.47,6.47,0,0,1,1.46-1,4.15,4.15,0,0,1,1.7-.45,3.31,3.31,0,0,1,1.43.28c.2.07.39.19.6.27s.46.24.73.47a10,10,0,0,1,2.12,2.16,19.41,19.41,0,0,1,1.41,2.16,13.25,13.25,0,0,0,.77,1.1c.22.27.43.58.77.94l.51.57.67.63a8.75,8.75,0,0,0,4.63,2.2,10,10,0,0,0,6.38-1.65,18.25,18.25,0,0,0,2.94-2.34c.77-.74,1.38-1.39,1.91-2a22.75,22.75,0,0,1,2.18-2.22,3.94,3.94,0,0,1,1.82-.86l.46,0h.14l.17,0,1.81-.25.53,0,.4,0c.11,0,.29,0,.19,0l.08,0,.13.05.29.11c.18.08.37.16.55.26a4.51,4.51,0,0,1,1,.7,10.91,10.91,0,0,1,1.8,2.5l.78,1.37a7.7,7.7,0,0,1,.38.8c.68,1.84,1,4,1.2,4.18a2.7,2.7,0,0,1,.32,1.8,57.57,57.57,0,0,0,.83,5.74,100.29,100.29,0,0,0,3,12.38c.93,3,2.23,6.24,2.59,7.2a25,25,0,0,0,1.92,4,12.32,12.32,0,0,0,2,2.55,14.26,14.26,0,0,1,2.93,3.64,13.4,13.4,0,0,0,3.71,4,9.27,9.27,0,0,1,2.11,1.92,12.18,12.18,0,0,0,2.45,2.05,31.83,31.83,0,0,0,3.81,2l-.51-5-2.53,2.13a4.44,4.44,0,0,1-.65.33,20.31,20.31,0,0,0-4,3.19,6.39,6.39,0,0,1-1.89,1.53l2-.57c.05,0-.16-.07-.41-.13-1.79-.42-1.83-.42-2.78-.26s-.88.2-3.79-.52a6.21,6.21,0,0,0-3-.12,1.85,1.85,0,0,1-1.64-.21,2,2,0,0,0-1.43-.28,4.42,4.42,0,0,1-1.24-.2,2.68,2.68,0,0,0-1.73-.12,5,5,0,0,1-1.28.13l.4.08a3.7,3.7,0,0,1-1.54-.59,14.08,14.08,0,0,0-4.64-1.39,6.16,6.16,0,0,1-2-.59c-.63-.34-.76-.37-1.13-.27-1.05.29-1.08.29-1.5-.21A1.38,1.38,0,0,0,219,153a2.66,2.66,0,0,1-1.9-.52,5.29,5.29,0,0,0-3.13-.78,1.34,1.34,0,0,1-1.53-.41,2.36,2.36,0,0,0-2-.58,7.75,7.75,0,0,1-3.44-1,17.64,17.64,0,0,0-3.87-1.21,17.27,17.27,0,0,0-3.44-.72.56.56,0,0,1-.64-.22A3.64,3.64,0,0,0,198.26,147Z"/><path class="cls-1" d="M133.08,136h0c5.42,5.19,12.37,7.79,19.16,10.22,7.61,2.71,3.28,1.13,11.24,2.3,11.16,1.63,22.66.33,33.8,2.07,10.53,1.65,20.47,6,30.63,9.3A170,170,0,0,0,252.32,166c5.71,1,11.66,1.64,17.31-.29,12.25-4.19,19.83-20.11,19.38-34.6-9.36,3.92-16.31,13.31-25,19.1-12,8-25.81,4.22-39,1.42s-26.42-4.33-39.35-8.39c-14.55-4.57-17.72-2.69-31.87-8.55a33.22,33.22,0,0,1-9.87-5.77c-3.7-3.36-6.28-8.08-8.19-13.06a68.25,68.25,0,0,1-4.07-30.52c-.5.75-1.14,1.72-1.43,2.2-.52.87-1,1.75-1.46,2.66a39,39,0,0,0-2.25,5.41,43.53,43.53,0,0,0-2.2,11.71c-.15,3.34.54,6.06.94,9.25.46,3.58.39,6.82,1.68,10.19A25.49,25.49,0,0,0,133.08,136Z"/><path class="cls-2" d="M135.51,102.94a15.26,15.26,0,0,0-.93-4.65,6.72,6.72,0,0,1-.37-4.12,51.82,51.82,0,0,0,.21-7.31,11.23,11.23,0,0,1,0-1.29v0a2.78,2.78,0,0,0-5.09-1.78,5.34,5.34,0,0,1-.53.72,12,12,0,0,0-1.47,2.29c-.59,1.17-1.42,2.52-2.26,4.13A28.35,28.35,0,0,0,123.19,95a11.47,11.47,0,0,0-.57,2.46c-.25,1.94-.65,4-1.11,6.8a7,7,0,0,0-.1,2.82,8.4,8.4,0,0,1,.06,3.11,4.5,4.5,0,0,0,.28,2.61,2.66,2.66,0,0,1,.27,1.35,6,6,0,0,0,.19,1.37,23.8,23.8,0,0,1,.55,3.41c.16,1.67.41,3.72.55,4.42s.25,1.79.31,2.46a8.08,8.08,0,0,0,.91,3.07c.51,1.06.82,1.6,1.11,2.14s.59,1.08,1.19,2.05a12.53,12.53,0,0,0,2.34,2.74c1.8,1.52,2.6,1.56,3.43.71.56-.58.55-.64.3-1.64-.08-.35-.15-.69-.22-1a24.88,24.88,0,0,1-2-2.65,23.59,23.59,0,0,1-2.47-4.94c-.44-1.26-.71-2.38-.92-3a7.65,7.65,0,0,1-.37-3c0-1.13,0-2.46-.09-2.91,0-.22-.13-1.13-.33-2.38s-.49-2.79-.67-4.36a20.58,20.58,0,0,1,0-4.71,12.93,12.93,0,0,1,.37-2.23,8.21,8.21,0,0,0,.39-2.42,15.51,15.51,0,0,1,.56-3.17,8.31,8.31,0,0,1,.9-2.31c.64-.7.95-1.64,1.75-4.06.25-.78.56-1.48.84-2.13s.5-1.24.76-1.73c.52-1,.89-1.65,1-1.88l.11-.16-1.82-.64c0,.23-.21,1-.4,1.79a15.8,15.8,0,0,0-.35,4.3c0,1.64,0,3.47,0,4.47a10.85,10.85,0,0,0,.24,3.1c.22.88.58,4.74,2,10.34a78.5,78.5,0,0,0,2.48,7.64,7.42,7.42,0,0,1,.58,2c.15.91.19,1.28,1.83,4.15,1.51,2.49,2.12,3.08,2.58,3.41a8.19,8.19,0,0,1,1.49,1.46,26.29,26.29,0,0,0,10.17,7.18,25.3,25.3,0,0,1,2.7,1.14,10.32,10.32,0,0,0,2.36.89,15.41,15.41,0,0,1,2.76,1,17,17,0,0,0,2.27.87c.43.14,3.32.93,6.43,1.51,4.67.85,5.76,1.06,6.7,1.43a8.76,8.76,0,0,0,2.09.57c.54.08,1.63.26,2.43.45l3.05.66a4.65,4.65,0,0,1,2.09.73,5.79,5.79,0,0,0,2.81.9c.55.06,3.71.91,7,1.69s6.6,1.53,7.41,1.81a18.76,18.76,0,0,0,4.22.77,69,69,0,0,1,10.47,1.92A40.3,40.3,0,0,0,224.3,153a17.7,17.7,0,0,1,3.54.52c.59.13,2.39.53,4.85,1s5.58,1.09,8.81,1.44a50,50,0,0,0,9,.21l1.8-.18c.55-.06,1-.17,1.49-.24a15.78,15.78,0,0,0,1.81-.34,21.21,21.21,0,0,0,2.27-.61c.79-.3,1.59-.6,2.22-.9s1.6-.8,2.59-1.35,2.13-1.2,3.29-2a58.78,58.78,0,0,0,6.41-5.09c1.59-1.44,3.7-3.29,4.72-4.08s2.68-2.06,3.69-2.77,2.1-1.51,2.41-1.8,1.12-1,1.78-1.59a8.12,8.12,0,0,1,2.23-1.41l.36-.19c.31-.19.92-.45,2.06-1l-2.38-1.53a43,43,0,0,1-.75,8.58,39.52,39.52,0,0,1-6.64,15.79,25.66,25.66,0,0,1-6.75,6.45,19.54,19.54,0,0,1-8.09,2.92,32.6,32.6,0,0,1-7.46,0c-2.19-.22-4-.52-5.23-.72-.75-.12-3.62-.68-6.37-1.35s-5.53-1.34-6.22-1.46-5.7-1.33-11-3.09-11.05-3.89-12.78-4.46a23.32,23.32,0,0,1-4.32-1.71,17.88,17.88,0,0,0-2.91-1.25,67.64,67.64,0,0,0-6.6-1.88c-2.48-.6-5.74-1.18-7.17-1.42a50.38,50.38,0,0,0-7.69-.62c-2.8-.08-8.7-.06-13.08-.2-2.19-.08-4.45-.19-6.34-.33s-3.38-.33-4.1-.4a22.87,22.87,0,0,1-4.2-.61c-.57-.15-1.19-.22-1.54-.28-.15,0-.28-.06-.58-.15l-1.28-.4a104.92,104.92,0,0,1-11.53-4.38,23.21,23.21,0,0,1-5.45-3.34,6.76,6.76,0,0,0-2.43-1.83,1.08,1.08,0,0,1-.53-.18,2.4,2.4,0,0,0-1-.2c-.71,0-.86,0-1.5.68s-.69.79-.47,1.51a5.58,5.58,0,0,0,1.86,2.71c.29.21,1,.79,1.62,1.31a9.16,9.16,0,0,0,2.73,1.64c1.75.78,4.85,2.34,9,4.17a13.74,13.74,0,0,0,3.17,1.16,20,20,0,0,1,2.89.68l1.7.55a10.83,10.83,0,0,0,2.07.41,26.18,26.18,0,0,1,3.13.6c.24.06.94.2,1.91.35s2.26.34,3.52.46c4,.35,4.66.28,5.17.13s1.33-.12,9.11,0c6.82.15,8.59.39,9.37.59a29.38,29.38,0,0,0,5.65.76,22.41,22.41,0,0,1,7.25,1.59c1.92.68,3.73,1.3,5.91,2,1.73.54,5.08,1.76,7.47,2.71a73.4,73.4,0,0,0,7.87,2.75c4.49,1.29,7.07,2,9.57,2.94.68.24,2.59.84,5.86,1.66s7.89,1.88,14.09,2.85a43.4,43.4,0,0,0,10,.5,26.42,26.42,0,0,0,6.2-1.22c3-1.09,3.91-1.74,4.64-2a13.69,13.69,0,0,0,2.56-1.58c.44-.35.86-.77,1.32-1.22a12.61,12.61,0,0,0,1.4-1.55,41.35,41.35,0,0,0,5.39-7.52,46.43,46.43,0,0,0,2.72-5.88c.67-1.86,1.19-3.48,1.45-4.48a27.15,27.15,0,0,0,1.28-8.34,10.07,10.07,0,0,1,.1-3.13s0-.11,0-1.43a2.24,2.24,0,0,0-2.23-2.26,2.39,2.39,0,0,0-.66.09l-.32.1a32.14,32.14,0,0,0-8.19,4.61c-2.16,1.58-4.5,3.58-7,5.76s-5,4.54-7.82,6.67c-.94.71-1.92,1.41-2.87,2a24.36,24.36,0,0,1-2.76,1.49c-.44.2-.85.4-1.24.56l-1.13.39-.9.31-.67.15a42.47,42.47,0,0,1-6,.93l-2.51.16c-.75,0-1.4.08-1.92.15a17.26,17.26,0,0,1-6.78-.73,52.18,52.18,0,0,0-8-1.66,18.88,18.88,0,0,1-4.26-1,32.51,32.51,0,0,0-4.72-1.11L209.9,145.9c-.13,0-.63-.18-1.11-.34a57.54,57.54,0,0,0-8.11-1.5,16.49,16.49,0,0,1-4.46-1c-2.78-.89-2.84-.92-4.33-1s-1.38,0-5.8-1.78a15.43,15.43,0,0,0-4.89-1.18,5.3,5.3,0,0,1-2.68-.69,4.8,4.8,0,0,0-2.33-.63,13.44,13.44,0,0,1-2-.48,7.07,7.07,0,0,0-2.79-.45,10.3,10.3,0,0,1-4.53-.8,68.73,68.73,0,0,0-7.18-2.21,12.9,12.9,0,0,1-3-1.19A3.08,3.08,0,0,0,155,132c-1.58-.06-1.63-.08-2.22-.76a3.16,3.16,0,0,0-2.11-1.2,4.72,4.72,0,0,1-2.48-1.49,20.92,20.92,0,0,0-3.52-2.91,2.43,2.43,0,0,1-1.47-1.75,5.84,5.84,0,0,0-1.65-2.54,12.22,12.22,0,0,1-2.41-4.83c-.24-1.05-.75-2.16-2-5.93-1-3.18-1.37-4.9-1.55-5.21a1.27,1.27,0,0,1-.16-1A9.4,9.4,0,0,0,135.51,102.94Z"/><path class="cls-2" d="M283.22,142.24c.33-.12.4-.48.2-.9s-.17-.58.31-.7a1.09,1.09,0,0,0,.76-1.08c0-.22,0-.33.16-.35a.61.61,0,0,0,.28-.35,1.11,1.11,0,0,1,.53-.55c.68-.37.76-.44.73-.79a.92.92,0,0,1,.49-.9c.21-.13.24-.2.17-.39s0-.4.26-.32.37,0,.25-.25,0-.18.09-.19.17-.06.16-.13a1,1,0,0,1,.27-.45l.41-.42a.33.33,0,0,1,.35,0c.18.09.26.07.36-.05a.66.66,0,0,1,.38-.29c.11,0,.17-.15.21-.38a4.32,4.32,0,0,0-.34-2,3,3,0,0,0-.59-1.25l-.37-.44a7.26,7.26,0,0,0-.7.27c-.37.17-.87.42-1.1.54a.9.9,0,0,0-.5.48c-.05.22-.15.27-.51.37a1.79,1.79,0,0,0-.55.25c-.07.07-.5.51-.9,1-.54.68-.78.95-1,1s-.29.14-.28.39-.39.94-.66.9-.53.09-.56.65a5.1,5.1,0,0,1-.17,1.32,1.31,1.31,0,0,1-.41.17c-.3.08-.41.18-.58.55a1.52,1.52,0,0,1-.51.63.46.46,0,0,0-.29.47,6.48,6.48,0,0,1-.77,1.73c-.75,1.39-.78,1.41-1.1,1.42s-.34,0-.58.56-.23.6-.11.78.09.44-.61,1.29a2.56,2.56,0,0,0-.54.91.57.57,0,0,1-.28.43.4.4,0,0,0-.21.39c0,.21-.07.31-.29.42a.81.81,0,0,0-.35.27c0,.07-.29.51-.57,1-.44.69-.58.84-.83.87s-.3.1-.32.22a1.61,1.61,0,0,1-.17.42c-.07.13-.17.36-.23.51s-.14.28-.33.23-.42.06-.36.35c0,.14-.32.58-.71,1a2.85,2.85,0,0,1-1,.75c-.22,0-.31.12-.53.55a2.19,2.19,0,0,1-1.42,1.25,1.28,1.28,0,0,0-1.11,1,.66.66,0,0,1-.33.58c-.17.11-1,.78-1.93,1.31a6.92,6.92,0,0,1-2,.87,1.77,1.77,0,0,0-.65.24,1.39,1.39,0,0,1-1,.22c-.36,0-.9,0-1.21,0a1.78,1.78,0,0,1-.94-.17c-.18-.12-.47-.27-.64-.41a.69.69,0,0,0-.45-.16,2.73,2.73,0,0,1-.45.19c-.25.09-.4.07-.52-.05a15.66,15.66,0,0,0-1.51-.43l-3.28-.86c-1.21-.33-2.5-.69-3.43-1s-2-.75-2.42-.89c-.13,0-.62-.29-1.1-.52a3.79,3.79,0,0,0-1.12-.41,12.48,12.48,0,0,1-2.07-.55c-1-.31-2.07-.61-2.4-.69-.49-.12-.61-.19-.75-.46s-.53-.55-1.64-.88a7.2,7.2,0,0,1-1.22-.5,3.15,3.15,0,0,0-1.35-.34c-.5,0-1.57-.22-2.38-.38a11.91,11.91,0,0,0-2-.24c-.44,0-.53,0-.71-.26s-.3-.3-.73-.33c-1.65-.13-3.31-.52-3.5-.84s-.5-.36-.61-.11-.1.19-.13.19a1.22,1.22,0,0,0-.24.46,5.19,5.19,0,0,0-.33,1.49,3.93,3.93,0,0,0-.07,1.44c.08.56.27,1,.42,1a.57.57,0,0,1,.33.19c.18.17.28.18.54.08a2.45,2.45,0,0,1,1.7.42c.33.18.47.2.58.11a.92.92,0,0,1,1.18,0,4.06,4.06,0,0,1,.52.43,2.86,2.86,0,0,0,.92.3c.69.13.81.12.93-.06s.27-.18,1.62.12c1.19.28,1.5.39,1.6.58a.82.82,0,0,0,1,.4c.39-.16.76,0,1.28.43a2.28,2.28,0,0,0,1,.55,7.61,7.61,0,0,1,1.32.52,2.77,2.77,0,0,0,1.41.39,2.31,2.31,0,0,1,1.66.46,25.63,25.63,0,0,0,3.27,1.3l2.63,1c.51.2.69.31.78.43.25.3.59.37,1.17.22a18.91,18.91,0,0,1,3.46.69c.71.27,1.36.36,1.44.22s.38-.13.53.1a1.28,1.28,0,0,0,.45.24l.47.18a5.85,5.85,0,0,0,.67.22,11.55,11.55,0,0,0,4.54.47,26.57,26.57,0,0,0,2.73-.49,3.08,3.08,0,0,0,2.26-1.2,1.3,1.3,0,0,1,1.28-.78,1.69,1.69,0,0,0,1.43-.9c.11-.26.21-.33.72-.48a1.39,1.39,0,0,0,.8-.48c.19-.25,1.28-1.6,1.4-1.71a.53.53,0,0,1,.25,0,1.85,1.85,0,0,0,1.09-1.09c.09-.35.14-.4.69-.64s.58-.29.59-.69,0-.39.9-.85a.76.76,0,0,0,.46-.88c-.09-.28.06-.46.35-.4s.45-.11.37-.28.11-.18.3-.28.32-.22.26-.48c-.11-.46.08-.79.44-.8s.75-.49.94-1.16c.09-.29.18-.42.39-.5s.27-.13.16-.32c-.31-.54-.31-.55.09-.48s.51,0,.39-.34,0-.4.32-.5.65-.56.44-.86-.15-.43.23-.41.47-.13.35-.5a.76.76,0,0,1,.55-.9c.25-.09.39-.28.74-.94s.39-.88.33-1-.05-.16.14-.14A1.08,1.08,0,0,0,283.22,142.24Z"/><path class="cls-2" d="M137.68,128.34c0,.29.3.37.69.18s.51-.15.5.28a.67.67,0,0,0,.76.65c.18,0,.26,0,.26.13a.36.36,0,0,0,.25.23.69.69,0,0,1,.41.44c.26.6.34.67.65.6a.73.73,0,0,1,.81.3c.13.17.2.19.36.07s.36-.1.33.17.09.34.26.17.15-.09.19,0,.1.13.16.1a1,1,0,0,1,.49.09l.53.19a.39.39,0,0,1,.17.32c0,.2.09.27.27.29a1.06,1.06,0,0,1,.56.17.49.49,0,0,0,.49-.08c.39-.23.61-.61,1.05-1.75a4.7,4.7,0,0,0,.39-1.32l.1-.55-.36-.17a5.36,5.36,0,0,1-.57-.34.37.37,0,0,0-.38-.06c-.15.08-.21.05-.31-.18a.79.79,0,0,0-.21-.31s-.37-.13-.71-.29-.63-.34-.66-.5-.07-.21-.25-.13-.63-.12-.55-.36,0-.44-.38-.36a2.28,2.28,0,0,1-.93.06.72.72,0,0,1,0-.35.36.36,0,0,0-.27-.43.58.58,0,0,1-.33-.38c0-.19-.09-.24-.26-.22a2.41,2.41,0,0,1-1-.59c-.77-.63-.78-.65-.67-.92s.09-.28-.2-.49-.35-.21-.53-.12-.37.07-.73-.55a1.08,1.08,0,0,0-.46-.5.26.26,0,0,1-.22-.24c0-.12-.06-.19-.21-.2s-.2-.08-.19-.26a.48.48,0,0,0-.06-.31s-.27-.26-.52-.52-.42-.52-.34-.71,0-.24-.05-.27a.69.69,0,0,1-.27-.16,1.71,1.71,0,0,0-.33-.21c-.16-.08-.16-.13,0-.27s.12-.33-.14-.31-1-1.13-.85-1.43,0-.23-.27-.39a.94.94,0,0,1-.55-1.08.61.61,0,0,0-.43-.85.38.38,0,0,1-.38-.27c0-.14-.33-.78-.55-1.47a6,6,0,0,1-.4-1.52.66.66,0,0,0-.17-.48,1,1,0,0,1-.21-.71,3.2,3.2,0,0,0-.14-.9,1.22,1.22,0,0,1-.06-.72l.2-.58c0-.16,0-.32,0-.36l-.33-.21c-.17-.11-.21-.19-.14-.29s-.21-1.51-.36-3.12-.21-3.36-.22-4a6.45,6.45,0,0,1,.13-.74,1.5,1.5,0,0,0,.05-.73,4,4,0,0,1,0-1.31l.15-1.53c0-.31.08-.39.32-.49s.44-.33.61-1a2.22,2.22,0,0,1,.34-.74,1.23,1.23,0,0,0,.19-.8,9.49,9.49,0,0,1,.22-1.43,5.23,5.23,0,0,0,.2-1.18c0-.28,0-.33.24-.39s.3-.13.34-.39c.15-1,.66-1.89,1-1.91s.38-.2.15-.33S134,87,134,86.93a3.36,3.36,0,0,0-.43-.28,8.64,8.64,0,0,0-1.38-.64,5.37,5.37,0,0,0-1.36-.46c-.54-.1-1-.09-1,0s-.09.12-.22.18-.21.14-.14.35-.12.64-.55,1.08c-.19.19-.22.29-.14.39a.51.51,0,0,1,0,.83,2.88,2.88,0,0,1-.43.3,1.33,1.33,0,0,0-.3.61c-.14.47-.13.56,0,.67s.18.21-.07,1.14-.3,1-.48,1.09a.46.46,0,0,0-.3.68c.2.28.1.54-.28.92a1.25,1.25,0,0,0-.39.74,5.78,5.78,0,0,1-.29,1,1.33,1.33,0,0,0-.08,1,1.41,1.41,0,0,1,0,1.25,8.08,8.08,0,0,0-.23,2.53c0,2,0,2.32-.14,2.5s-.14.46.18.78a9.6,9.6,0,0,1,.47,2.39c0,.53.13,1,.29,1s.25.2.08.36a10.91,10.91,0,0,0,.41,3.76,13.14,13.14,0,0,1,.27,1.52,1.32,1.32,0,0,0,.61,1.36c.42.17.52.43.32.86a.78.78,0,0,0,.31,1c.19.09.22.16.17.54a.67.67,0,0,0,.13.63,14,14,0,0,1,1,1.18.63.63,0,0,1-.05.19c-.09.26.27.81.59.91s.27.12.28.53,0,.45.36.47.34,0,.34.73a.41.41,0,0,0,.54.41c.26-.06.34.08.18.3s-.1.36.07.31.1.1.1.26,0,.28.27.25c.41,0,.6.12.46.42s.09.65.54.88c.19.09.25.19.23.36s0,.24.2.16c.54-.21.55-.21.34.12s-.2.43.11.35.33,0,.27.32.2.61.52.45.39-.09.24.23-.07.42.27.35.54.17.53.54.09.36.52.7.59.39.7.33.14,0,.08.13A.88.88,0,0,0,137.68,128.34Z"/><path class="cls-2" d="M217.08,108.77c.27-.19.24-.53-.08-.87s-.32-.5.1-.71a1,1,0,0,0,.46-1.18c-.07-.2,0-.31.07-.36a.5.5,0,0,0,.19-.37.86.86,0,0,1,.4-.6c.58-.47.65-.55.56-.88a.89.89,0,0,1,.33-1c.19-.16.21-.24.1-.41s-.06-.4.22-.37.36-.1.21-.3-.06-.17.06-.21.17-.09.15-.16a1.22,1.22,0,0,1,.22-.52c.13-.23.31-.45.36-.53a.43.43,0,0,1,.37-.11.34.34,0,0,0,.4-.18,1.26,1.26,0,0,1,.4-.48.55.55,0,0,0,.18-.49c0-.49-.19-.89-.93-1.86a3,3,0,0,0-1-1l-.48-.3-.56.43c-.29.25-.68.6-.89.76a.82.82,0,0,0-.37.56c0,.22-.09.3-.43.45a1.64,1.64,0,0,0-.49.34c-.05.08-.41.58-.73,1.15-.45.76-.61,1.08-.83,1.18s-.28.19-.23.44-.25,1-.51,1-.5.2-.45.78a5.75,5.75,0,0,1,.09,1.38,1.42,1.42,0,0,1-.37.27c-.27.16-.35.29-.45.71a1.75,1.75,0,0,1-.33.78.47.47,0,0,0-.16.56,9.43,9.43,0,0,1-.26,2c-.27,1.63-.26,1.67-.56,1.8s-.32.18-.34.79,0,.68.19.81.23.39,0,1.55a2.65,2.65,0,0,0,0,1.15.69.69,0,0,1,0,.55.45.45,0,0,0,0,.47.46.46,0,0,1,0,.55,1,1,0,0,0-.14.46c0,.09.08.64.14,1.23.12.88.12,1.1,0,1.31a.36.36,0,0,0-.07.42,3,3,0,0,1,.17.46,4.12,4.12,0,0,0,.21.58c.13.25.12.32-.05.43s-.22.4,0,.56a6.41,6.41,0,0,1,.48,2.74c-.1.21-.07.35.21.79a2.69,2.69,0,0,1,.49,2,1.4,1.4,0,0,0,.47,1.53.8.8,0,0,1,.43.57c.07.22.43,1.34.88,2.46.3.75.61,1.47.64,1.63l1.9-1.87a3.85,3.85,0,0,1-.57-.42,1.65,1.65,0,0,0-.56-.39,1.24,1.24,0,0,1-.37-.22,2.52,2.52,0,0,1-.35-.46,12.47,12.47,0,0,0-.75-1,2.83,2.83,0,0,1-.47-.91l-.1-.82c0-.22-.1-.44-.18-.48l-.44-.25c-.21-.11-.29-.22-.26-.39s-.23-.55-.51-1.39-.66-2-1-3.18-.64-2.57-1-3.75-.74-2.08-.94-2.55c-.05-.14-.23-.68-.37-1.22a3.48,3.48,0,0,0-.5-1.14c-.11-.1-.58-1-1.1-2s-1.14-2-1.34-2.25-.34-.59-.28-.88-.05-.79-.73-1.81a8.17,8.17,0,0,1-.67-1.2,3.54,3.54,0,0,0-.87-1.15c-.39-.36-1.14-1.19-1.71-1.81a11.16,11.16,0,0,0-1.44-1.42c-.38-.26-.43-.33-.42-.65s-.07-.42-.4-.71c-1.24-1.12-2.34-2.44-2.28-2.82s-.18-.59-.42-.46-.2.09-.22.07a1.28,1.28,0,0,0-.48.22,5.05,5.05,0,0,0-1.17,1,3.78,3.78,0,0,0-.94,1.1c-.28.49-.39,1-.26,1a.55.55,0,0,1,.15.36c0,.25.11.32.39.41s.75.6,1.12,1.38c.16.35.26.46.41.45a1,1,0,0,1,1,.7,4.28,4.28,0,0,1,.17.66,2.56,2.56,0,0,0,.56.81c.48.53.57.6.79.53s.33,0,1.22,1.09.93,1.24.9,1.45a.83.83,0,0,0,.51.92c.39.12.6.46.71,1.14a2.17,2.17,0,0,0,.4,1.06,6.81,6.81,0,0,1,.62,1.24,2.59,2.59,0,0,0,.75,1.21,2.26,2.26,0,0,1,.84,1.46c0,.27.48,1.26,1.22,3.22a21.3,21.3,0,0,1,.8,2.47,1.37,1.37,0,0,1,0,.77c-.14.33,0,.64.4,1a24.69,24.69,0,0,1,1.23,3.47c.16.8.49,1.45.66,1.44s.32.27.24.55A6,6,0,0,0,210,129a14.92,14.92,0,0,0,2.25,3.76c.41.42.78.89,1.17,1.24s.69.65.83.8a5.47,5.47,0,0,0,1.19.87l.18.08a3.05,3.05,0,0,0,4-1.5,3.12,3.12,0,0,0-.06-2.67,1.59,1.59,0,0,0-.63-.75.8.8,0,0,1-.46-1.1,1.33,1.33,0,0,0-.37-1.36c-.21-.15-.24-.25-.18-.72a1.11,1.11,0,0,0-.1-.81A16.35,16.35,0,0,1,217,125a1.08,1.08,0,0,1,.09-.22,1.74,1.74,0,0,0-.37-1.38c-.23-.21-.25-.28-.13-.78s.13-.55-.18-.76-.34-.19-.06-1.06A.64.64,0,0,0,216,120c-.26-.11-.27-.32,0-.46s.25-.35.08-.41,0-.18,0-.35.11-.33-.11-.47c-.38-.25-.45-.59-.16-.8s.28-.74.08-1.33a.5.5,0,0,1,.05-.56c.16-.19.16-.22,0-.31-.54-.26-.55-.28-.17-.41s.44-.22.17-.43-.23-.3,0-.52.32-.69,0-.85-.31-.3,0-.41.37-.27.12-.56a.69.69,0,0,1,.16-1c.2-.16.26-.37.36-1.07s.1-.89,0-1-.1-.13.08-.17A.88.88,0,0,0,217.08,108.77Z"/></svg>