<svg id="Layer_8" data-name="Layer 8" xmlns="http://www.w3.org/2000/svg" viewBox="0 0 720 720"><defs><style>.cls-1{fill:#2a3141;}</style></defs><title>face-4</title><path class="cls-1" d="M214.25,245.43c-21.8,1.33-42.09,6.18-63.83,4.08h-3.06c.53-2.87,1.4-10.33,1.9-12.48,1.68-.56,6.86.92,8.55,1.1,5.45.58,5.33.57,7.74.84q15.66,1.77,31.28,3.92,4.47.62,8.92,1.27C208.38,244.54,211.61,245.59,214.25,245.43Z"/><path d="M190.33,244.23a2.26,2.26,0,0,0,1.64,0,1.37,1.37,0,0,1,1.41.11,5.22,5.22,0,0,0,2.48.36,1.27,1.27,0,0,1,.72.06,2.81,2.81,0,0,0,.84.14,6.28,6.28,0,0,1,1.41.3,4.08,4.08,0,0,0,2.11.4,5.41,5.41,0,0,1,2.11.2c.49.12.65.13.87,0a.87.87,0,0,1,.9.12.71.71,0,0,0,.77.12c.11-.07.21-.07.41,0a.8.8,0,0,0,.42.09,6.24,6.24,0,0,1,1.14.14l1.39.25a1.94,1.94,0,0,1,.7.28,1.64,1.64,0,0,0,.92.28c.75.07.79.07,1.53.18a3.17,3.17,0,0,0,1.22-.09c.81-.23,1-.56,1-1.36a1,1,0,0,0-.35-.9l-.29-.36a9.81,9.81,0,0,1-1.08-.08,17.89,17.89,0,0,1-1.82-.31,3.5,3.5,0,0,0-1.08-.14,1.78,1.78,0,0,1-1-.23,6.42,6.42,0,0,0-.91-.32c-.14,0-1.17-.23-2.27-.35a11.35,11.35,0,0,1-2.37-.41,1.15,1.15,0,0,0-.83-.11,3.85,3.85,0,0,1-1.91-.28c-.26-.28-.61-.34-1.49-.28a20,20,0,0,1-2.17.09,4.07,4.07,0,0,1-.62-.25,3.09,3.09,0,0,0-1.37-.3,7.85,7.85,0,0,1-1.42-.25,2,2,0,0,0-1-.13,30.75,30.75,0,0,1-3.4-.28c-2.86-.32-2.93-.34-3.2-.56s-.38-.23-1.41-.32-1.17-.07-1.35,0-.63.13-2.63-.23a13.38,13.38,0,0,0-2-.23,2.86,2.86,0,0,1-.94-.12,2,2,0,0,0-.82-.08,2,2,0,0,1-.94-.13,4.43,4.43,0,0,0-.77-.19l-2.12-.21a7,7,0,0,1-2.23-.38,1.36,1.36,0,0,0-.71-.16c-.18,0-.55,0-.82,0s-.75,0-1.05,0c-.46,0-.58,0-.72-.16a1,1,0,0,0-1-.15,28.11,28.11,0,0,1-4.8-.56,3.12,3.12,0,0,0-1.4-.12,13.69,13.69,0,0,1-1.95-.08,4.38,4.38,0,0,1-1.43-.37,5.84,5.84,0,0,0-2.71-.54,3.51,3.51,0,0,1-1.22-.06c-.57-.1-1.16-.19-1.77-.24a5.58,5.58,0,0,0-2,.12.79.79,0,0,0-.57.59v0c-.09.39-.16.76-.23,1.13-.36,2.09-.67,4.09-.77,4.48a7.88,7.88,0,0,0-.19,1.47,11.92,11.92,0,0,1-.3,2.11c-.16.73-.36,1.9-.46,2.58,0,.25-.09.52-.13.72a1,1,0,0,0,.8,1.22l.18,0h.05a11.31,11.31,0,0,1,1.29.08l1.54.21.23,0h-.14a3.32,3.32,0,0,0,.81.08l.84-.13a1.94,1.94,0,0,1,.92,0c.07,0,1.18.15,2.87.21l2.91.13,3.41,0c4.74,0,9.86-.33,11.62-.49l2.18-.09a18.26,18.26,0,0,0,2.13-.17c.23-.06,1.94-.26,3.79-.44l4.46-.48a3.37,3.37,0,0,1,1.52,0,10,10,0,0,0,3.24-.07c.81-.08,1.85-.15,2.31-.14a16.11,16.11,0,0,0,2.46-.26c.88-.15,2.8-.41,4.25-.56s3-.37,3.5-.46a2.4,2.4,0,0,1,1.32-.05,3.16,3.16,0,0,0,1.4,0c1.45-.18,2.93-.31,4.11-.38a10.65,10.65,0,0,1,2.24.05c.39.16,1,.12,1.1-.06s.13-.15.18-.15.18-.16.29-.35.19-.42.16-1-.06-.69-.29-.94a1.55,1.55,0,0,0-1-.53,2,2,0,0,1-.66,0,1.82,1.82,0,0,0-1,.07,13.52,13.52,0,0,1-3.21.16,2.18,2.18,0,0,0-1.1.09,4.26,4.26,0,0,1-2.11.35c-.43,0-.93-.08-1.1-.11a12.79,12.79,0,0,0-1.79.09c-1.29.14-1.5.19-1.65.34s-.41.19-3,.46a14.2,14.2,0,0,1-3.11.21,3.7,3.7,0,0,0-1.92.11,5.66,5.66,0,0,1-2.5.21,10.66,10.66,0,0,0-2.1.06c-.6.07-1.78.16-2.63.19a13.59,13.59,0,0,0-2.71.31,12.2,12.2,0,0,1-3.21.36c-.47,0-2.58.16-6.57.44-5.07.32-6,.28-6.4.19a4.06,4.06,0,0,0-2,.12,50.28,50.28,0,0,1-6.23.11,9,9,0,0,0-2.6,0,1.14,1.14,0,0,1-1,0,35,35,0,0,0-3.84-.43h-.16a3,3,0,0,0-.67,0l-2.39-.05,1.73,2.09c0,.07.29-1.34.51-2.74.25-1.63.55-3.36.67-3.87a12.89,12.89,0,0,0,.46-3.73,3.29,3.29,0,0,1,.33-2.06l-1.22,1.34,0,0c0,.09.39.12.78.17a6.85,6.85,0,0,0,1.19,0,2.52,2.52,0,0,1,1.32.27,5.68,5.68,0,0,0,1.49.39l2,.27c1,.13,1.82.13,2,.15l.37.13a8.49,8.49,0,0,0,2.72.25,2.9,2.9,0,0,1,1.51.19c1,.25,1,.25,1.48.13s.48-.15,2,.31a2.72,2.72,0,0,0,1.61.06.82.82,0,0,1,.87.13.84.84,0,0,0,.76.17,2,2,0,0,1,.66.13c.5.16.61.17.92.07a1.94,1.94,0,0,1,1.54.12,6,6,0,0,0,2.55.4,2.63,2.63,0,0,1,1.08.18c.36.15.43.15.62,0,.54-.31.56-.31.81,0a.61.61,0,0,0,.83.2,1.15,1.15,0,0,1,1,.14,2.32,2.32,0,0,0,1.71.17.6.6,0,0,1,.84.1,1,1,0,0,0,1.09.16,3.29,3.29,0,0,1,1.88.25,15.72,15.72,0,0,0,4,.47c.16-.07.22-.06.35.08A1.84,1.84,0,0,0,190.33,244.23Z"/><path class="cls-1" d="M228.73,236.89h0c4.76-3.33,11.11-7.67,15.87-11,.55,4.57,1,10.17,1.32,14.51-2.89.11-12.65,1.56-14,1.76-2.46.37-3.93.2-6.37.7a64.1,64.1,0,0,1-6.89.71C221.73,241.13,225.5,239.15,228.73,236.89Z"/><path d="M220.05,245.24a.6.6,0,0,0,.48-.63c0-.37.12-.46.5-.45a1.31,1.31,0,0,0,1-.66c.09-.16.17-.23.27-.23a.73.73,0,0,0,.36-.2,1.28,1.28,0,0,1,.64-.31c.7-.17.8-.22,1-.49a1.4,1.4,0,0,1,.84-.65c.24-.09.3-.14.33-.3s.18-.33.38-.25.35,0,.35-.2,0-.15.17-.16a.26.26,0,0,0,.2-.11,2.27,2.27,0,0,1,.47-.4l.58-.42a.57.57,0,0,1,.39-.08.52.52,0,0,0,.46-.17,2.52,2.52,0,0,1,.59-.44.89.89,0,0,0,.36-.46c.16-.41.07-.7-.39-1.36a1.63,1.63,0,0,0-.65-.66l-.34-.21-.48.31c-.27.17-.64.38-.83.48a.9.9,0,0,0-.42.35c-.07.15-.16.2-.45.26a2.61,2.61,0,0,0-.47.15l-.93.64c-.61.42-.88.57-1.07.58s-.26.05-.35.23-.66.61-.83.53-.42,0-.68.36a6,6,0,0,1-.7.93,1.28,1.28,0,0,1-.37,0,.93.93,0,0,0-.67.31,1.92,1.92,0,0,1-.64.38.58.58,0,0,0-.42.31,3,3,0,0,1-.6.58l-1.11.95a1.07,1.07,0,0,0,1.39,1.63,1.1,1.1,0,0,0,.37-.89,4.86,4.86,0,0,1,.92-.11c1.46-.14,1.5-.15,1.67,0s.22.17.74.08.59-.13.66-.27.29-.22,1.33-.24a3.4,3.4,0,0,0,1-.15.94.94,0,0,1,.5-.09.48.48,0,0,0,.4-.09.47.47,0,0,1,.46-.08.93.93,0,0,0,.38,0c.07,0,.52-.11,1-.18.75-.1.94-.09,1.11,0a.4.4,0,0,0,.37.05l.41-.11a2.78,2.78,0,0,0,.53-.14c.23-.07.3-.07.39,0a.31.31,0,0,0,.51,0,7.21,7.21,0,0,1,2.44-.33c.17.07.3,0,.7-.13a2.86,2.86,0,0,1,1.75-.24,1.6,1.6,0,0,0,1.37-.2.83.83,0,0,1,.57-.23l2.26-.27c1-.12,2.06-.19,2.26-.18a2.06,2.06,0,0,0,.74-.09,2.83,2.83,0,0,1,1.06-.11,9.08,9.08,0,0,0,1.29,0H246a1,1,0,0,0,1-1v-.13a4.15,4.15,0,0,1,0-.66l.14-.79a1.14,1.14,0,0,0,0-.53l-.23-.39a.52.52,0,0,1-.09-.46s0-.59-.09-1.44l-.26-3.16c-.21-2.37-.44-4.95-.55-5.83,0-.13,0-.62,0-1.1v-.25a1.19,1.19,0,0,0-1.17-1.21,1.2,1.2,0,0,0-.65.18l-.2.13a3.28,3.28,0,0,0-.68.48,14,14,0,0,1-1.54,1.14l-1.86,1.29c-.37.26-.49.31-.72.29s-.63.12-1.51.68a7.24,7.24,0,0,1-1,.55,4,4,0,0,0-1,.69c-.35.29-1.13.87-1.74,1.29a13.2,13.2,0,0,0-1.42,1.09c-.29.27-.36.31-.61.3s-.35.05-.65.3a8.88,8.88,0,0,1-2.78,1.68c-.26-.05-.51.13-.47.31s0,.15,0,.16a.92.92,0,0,0,.06.36,1.79,1.79,0,0,0,.15.37,1.35,1.35,0,0,0,.13.21l.59.86-.32-.46.06.09.1.13.15.19a1.13,1.13,0,0,0,.27.22c.33.21.68.3.77.2a.72.72,0,0,1,.32-.11.52.52,0,0,0,.43-.28,2.93,2.93,0,0,1,1.38-.84c.32-.12.43-.2.46-.31a1.1,1.1,0,0,1,.8-.73,4.08,4.08,0,0,1,.57-.14,2.62,2.62,0,0,0,.79-.44c.54-.37.62-.44.61-.6s.09-.25,1.16-1,1.22-.78,1.39-.77a1,1,0,0,0,.86-.46,1.51,1.51,0,0,1,1.09-.65,2.77,2.77,0,0,0,1-.45c.25-.17.77-.47,1.16-.67a3.33,3.33,0,0,0,1.13-.79,3.23,3.23,0,0,1,1.33-1,10.44,10.44,0,0,0,1.34-.84l-2.6-1.17c0-.11,0,.69.12,1.75.23,2.56.25,3,.15,3.24a1.1,1.1,0,0,0,.17,1,20.88,20.88,0,0,1,.42,3.14,2.55,2.55,0,0,0,.2,1.31c.14,0,.17.29.06.48a22.44,22.44,0,0,0,.09,3.51l1.7-1.88a10.34,10.34,0,0,0-1.47,0c-.85.06-1.75.1-2,.08a3.22,3.22,0,0,0-1.91.32,1.14,1.14,0,0,1-1.19.14,1.76,1.76,0,0,0-1.39.11c-.19.12-.29.13-.72,0a1.66,1.66,0,0,0-.81,0c-.24.09-1.73.49-1.88.51a.48.48,0,0,1-.2-.06,2.17,2.17,0,0,0-1.36.24c-.23.16-.3.17-.77.1s-.52-.07-.72.14-.19.23-.95,0a.71.71,0,0,0-.76.21.25.25,0,0,1-.43,0c-.1-.14-.32-.17-.4-.05s-.17,0-.34,0-.33-.07-.48.08a.64.64,0,0,1-.83.15,1.78,1.78,0,0,0-1.42.11.84.84,0,0,1-.6.08c-.18-.07-.2-.07-.25.07-.16.4-.17.41-.34.18s-.26-.25-.42,0-.25.2-.5.06a.62.62,0,0,0-.83.14c-.1.24-.23.26-.41.05s-.32-.19-.54,0a.85.85,0,0,1-.94.08c-.19-.1-.4-.1-1.07,0s-.85.12-.9.2-.1.09-.18,0l-.11-.12-.07-.05,0,0h0l1.46,3.8Z"/><path class="cls-1" d="M219,304.19a31.66,31.66,0,0,0,.92,7.95c1.45,4.95,5.18,8.86,8.78,12.56a122.36,122.36,0,0,0,3.86-12,27.59,27.59,0,0,0,1.2-7.3,31.19,31.19,0,0,0-1.13-7h0c-3.53-14.58-7.64-29.27-11.39-43.8a53,53,0,0,0-2.94-6.31s-.79,8.84-.73,10.54l.64,20.36Q218.56,291.71,219,304.19Z"/><path d="M216,278.17a2.67,2.67,0,0,0,.25,1.77,1.64,1.64,0,0,1,.11,1.55,6.36,6.36,0,0,0,0,2.74,1.63,1.63,0,0,1,.06.79,3.43,3.43,0,0,0,0,.92,6.6,6.6,0,0,1,0,1.58,4.91,4.91,0,0,0,0,2.35,6.56,6.56,0,0,1,.18,2.31c0,.55,0,.73.1.94a1,1,0,0,1,.05,1,.84.84,0,0,0,0,.87c.09.11.11.23.06.48a1,1,0,0,0,0,.5,8.43,8.43,0,0,1,.13,1.3l.09,1.53a2.1,2.1,0,0,1-.11.79,1.92,1.92,0,0,0-.08,1,10,10,0,0,1,.09,1.54,3.39,3.39,0,0,0,.21,1.16,1.16,1.16,0,0,0,1.38.92c.53,0,.56,0,.9-.37l.35-.35,0-1.27c0-.69,0-1.64,0-2.09a4.07,4.07,0,0,0-.11-1.2,2.12,2.12,0,0,1,0-1.12,8.91,8.91,0,0,0,.08-1.05l-.12-2.44a13.89,13.89,0,0,1,0-2.63,1.42,1.42,0,0,0,0-.91,4.65,4.65,0,0,1-.07-2.11c.23-.33.23-.71,0-1.65a21.24,21.24,0,0,1-.46-2.32,3.21,3.21,0,0,1,.15-.72,3.81,3.81,0,0,0,.08-1.52,7.93,7.93,0,0,1,0-1.57,2.36,2.36,0,0,0,0-1.1c-.07-.31-.17-1.67-.25-3.7-.14-3.14-.14-3.22,0-3.56s.17-.43.1-1.57c-.06-1-.11-1.27-.25-1.45s-.22-.65-.18-2.86a16.47,16.47,0,0,0-.08-2.15,3.42,3.42,0,0,1,0-1,2.25,2.25,0,0,0,0-.89,2.26,2.26,0,0,1,0-1,4.93,4.93,0,0,0,.06-.86c0-.14-.09-1.25-.11-2.28a7.32,7.32,0,0,1,.22-2.41,1.57,1.57,0,0,0,.13-.77c0-.2,0-.61,0-.9s0-.81,0-1.14c0-.5,0-.64.13-.8a1.14,1.14,0,0,0,.12-1,19,19,0,0,1,.14-2.94l-1.7.35a14.3,14.3,0,0,1,1,2.1,3.9,3.9,0,0,0,.69,1.35,12.08,12.08,0,0,1,1,1.83,4,4,0,0,1,.24.79,5.44,5.44,0,0,1,.09.75,7.1,7.1,0,0,0,.77,2.92,3.47,3.47,0,0,1,.47,1.21l1.21,4.79c.56,2.21,1.07,4.37,1.14,4.8a11.8,11.8,0,0,0,.42,1.57,14.18,14.18,0,0,1,.58,2.25c.16.8.45,2.07.66,2.8a19.17,19.17,0,0,1,.48,2.19l.22,1.68a5.36,5.36,0,0,0,.24,1.1l.41.81a2.34,2.34,0,0,1,.3.95c0,.08.29,1.25.74,3l1.69,6.63c.64,2.47,1.3,5.06,1.87,7.26a31.37,31.37,0,0,1,.87,4.83,11.83,11.83,0,0,1-.07,2.19c-.11,1-.28,1.92-.28,2.17a26.47,26.47,0,0,1-.86,3.95c-.53,1.94-1.16,4-1.35,4.63a3.86,3.86,0,0,1-.66,1.51,12.53,12.53,0,0,0-1.41,3.19c-.28.73-.67,1.63-.88,2.05l3-.62-.17-.2A20.88,20.88,0,0,0,228,321.3a39,39,0,0,1-3-3.38c-.93-1.19-1.78-2.55-2.05-3a2.14,2.14,0,0,1-.52-1.22,3.78,3.78,0,0,0-.39-1.32,13.87,13.87,0,0,1-.85-6.33c.17-.4.15-1,0-1.18a.36.36,0,0,1-.13-.2.91.91,0,0,0-.35-.33c-.3-.21-.4-.23-1-.21s-.7,0-.95.28a1.67,1.67,0,0,0-.57,1.13,3.08,3.08,0,0,1-.06.73,2.29,2.29,0,0,0,.06,1.12,32.85,32.85,0,0,1,.38,3.62,2.76,2.76,0,0,0,.29,1.24,7.18,7.18,0,0,1,1,2.26l.34,1.22a9.39,9.39,0,0,0,.94,1.84c.8,1.25,1,1.41,1.2,1.49s.36.34,2.2,2.52a22.37,22.37,0,0,1,2.22,2.65,4.42,4.42,0,0,0,1.06,1.35l.18.15a1.24,1.24,0,0,0,1.75-.16,1.36,1.36,0,0,0,.24-.44,3.1,3.1,0,0,0,.08-.4,7.55,7.55,0,0,1,1-2.57,12.91,12.91,0,0,0,.93-2.13c.21-.64.65-1.87,1-2.75a14.86,14.86,0,0,0,.84-2.91,19.1,19.1,0,0,1,.88-3.52,16.24,16.24,0,0,0,.5-2.21,18.6,18.6,0,0,0,.14-5.53,54.09,54.09,0,0,0-1.1-5.53,8,8,0,0,1-.29-1.59,5,5,0,0,0-.63-2.13c-.21-.43-1.57-5.27-1.87-6.65a11.57,11.57,0,0,0-.8-2.76c-.17-.09-.31-.62-.29-1s-1-4.95-2.37-10.32c-.43-1.73-.86-3.61-.95-4.17a15.24,15.24,0,0,0-1.12-4,4.92,4.92,0,0,1-.64-2.49,7.71,7.71,0,0,0-.68-2.91,3.87,3.87,0,0,1-.35-1.53,6.84,6.84,0,0,0-.34-1.7l-.67-2.05a15.79,15.79,0,0,0-.9-2.14,2.72,2.72,0,0,1-.1-.44,9.33,9.33,0,0,0-1.39-2.74,3.78,3.78,0,0,1-.77-1.51l0-.06h0l-3.66.75h0l3.66-.75a2.44,2.44,0,1,0-2.87-2.91l-.79,3.66a2.53,2.53,0,0,0-.09,1.56c.15.6.16.51-.25,2.22a3.3,3.3,0,0,0,0,1.78,1,1,0,0,1-.09,1,1,1,0,0,0-.13.84,2.42,2.42,0,0,1-.1.74,1.44,1.44,0,0,0,0,1,3.45,3.45,0,0,1,.16,1,2.52,2.52,0,0,1-.12.89,7,7,0,0,0,0,2.82,2.93,2.93,0,0,1,0,1.19c-.09.41-.09.49.05.68.38.54.39.55.15.87a.72.72,0,0,0-.07.94,1.41,1.41,0,0,1,0,1.15,2.71,2.71,0,0,0,.1,1.87.71.71,0,0,1,0,.92,1.23,1.23,0,0,0,0,1.21,3.89,3.89,0,0,1,.06,2.08,8.51,8.51,0,0,0,0,2.36,9.08,9.08,0,0,0,.2,2c.09.15.09.22,0,.39A2.09,2.09,0,0,0,216,278.17Z"/><path class="cls-1" d="M223,240.89q-1.82,5-3.95,9.92c-2.27-1.48-10-7.09-10-7.09s4.56-.76,5.33-1C215.31,242.5,220.69,241.62,223,240.89Z"/><path d="M217.4,244.33c.15.12.3,0,.37-.28s.14-.32.35-.13a.43.43,0,0,0,.65-.07c.06-.1.12-.12.17-.07a.22.22,0,0,0,.22,0,.45.45,0,0,1,.39,0c.4.16.46.16.57,0a.45.45,0,0,1,.52-.21c.14,0,.18,0,.21-.12s.13-.22.23-.07.2.13.21,0,0-.11.1-.07.11,0,.13,0,.14-.11.28-.16l.36-.13a.22.22,0,0,1,.22.09.21.21,0,0,0,.28,0,.75.75,0,0,1,.36-.15.91.91,0,0,1-.81-.25.65.65,0,0,1-.17-.76,2.62,2.62,0,0,1,.59-.72c.38-.37.44-.37.53-.65a.82.82,0,0,0,0-.35,1.83,1.83,0,0,0-.84,0,2.67,2.67,0,0,1-.51.08.29.29,0,0,0-.25.14c0,.1-.09.11-.25,0a.73.73,0,0,0-.26-.06l-.54.17c-.36.11-.51.12-.61,0s-.14-.06-.2.06-.4.24-.48.1-.21-.22-.39,0-.41.48-.46.48a.59.59,0,0,1-.19-.14.31.31,0,0,0-.38-.06.53.53,0,0,1-.37,0c-.12-.07-.18-.05-.25,0a2.1,2.1,0,0,1-.83.3c-.72.18-.74.18-.85,0s-.13-.16-.39-.07-.28.13-.3.26-.1.22-.68.25a.89.89,0,0,0-.49.1.23.23,0,0,1-.24.05c-.08-.05-.14,0-.2.05s-.12.1-.24,0-.18-.07-.21-.05l-.52.15c-.38.1-.47.1-.58,0s-.15-.09-.2,0a.63.63,0,0,1-.18.12.75.75,0,0,0-.24.14c-.1.07-.14.07-.2,0s-.19-.16-.24,0a1.64,1.64,0,0,1-1.2.2c-.1-.08-.16-.06-.35.09a1.44,1.44,0,0,1-.22.15l-.45.27a.74.74,0,0,0-.27,1,.73.73,0,0,0,.34.31.69.69,0,0,1,.46.47.48.48,0,0,0,.59.4.3.3,0,0,1,.34.05l.92.7a7.89,7.89,0,0,1,.9.75.53.53,0,0,0,.31.21.92.92,0,0,1,.45.32,2.66,2.66,0,0,0,.51.45,1.16,1.16,0,0,1,.39.37l.2.4c.06.11.14.2.19.19l.28,0c.14,0,.2,0,.22.09s.83.65,1.76,1.32,2,1.4,2.39,1.68l0,0a1.14,1.14,0,0,0,1.58-.33,1,1,0,0,0,.11-.23l.08-.2a4.41,4.41,0,0,1,.3-.54,1.26,1.26,0,0,0,.23-.57,5.21,5.21,0,0,1,.34-1c.19-.51.39-1.06.44-1.22a.56.56,0,0,1,.31-.42c.25-.14.38-.33.61-.93a5.18,5.18,0,0,1,.33-.7,1.7,1.7,0,0,0,.24-.74,12.08,12.08,0,0,1,.26-1.23,6.39,6.39,0,0,0,.19-1c0-.19,0-.23.17-.42a.78.78,0,0,0,.21-.46,6.21,6.21,0,0,1,.56-1.91c.17-.23.2-.4.08-.31s-.09,0-.08,0a.81.81,0,0,0-.22.15,6.05,6.05,0,0,0-.71.64c-.46.44-.51.49-.72.72a5,5,0,0,0-.54.64,1.38,1.38,0,0,1-.14.21c-.12.14-.14.18-.12.22s-.12.33-.43.76c-.14.19-.18.25-.13.24s.1.13-.11.38-.25.28-.31.33a2.76,2.76,0,0,0-.28.41c-.14.27-.15.3,0,.28s.1,0-.19.58-.35.6-.48.68-.39.31-.31.4,0,.26-.33.5a1.34,1.34,0,0,0-.39.41,2.43,2.43,0,0,1-.35.5c-.2.23-.24.32-.23.52a.63.63,0,0,1-.25.64,4.61,4.61,0,0,0-.64,1.28l2.48-.75-2.48.75h0l2.48-.75h0c-1.06-.76-1.24-.9-1.27-1.07s-.16-.27-.46-.23a5.07,5.07,0,0,1-1.38-.82c-.25-.25-.52-.39-.6-.31s-.21,0-.21-.14a10,10,0,0,0-1.84-1.66,5.49,5.49,0,0,1-.74-.68.89.89,0,0,0-.84-.49c-.29.06-.44,0-.48-.35a.5.5,0,0,0-.52-.47c-.14,0-.18,0-.27-.25s-.16-.28-.27-.3-.87-.33-.93-.37,0,0,0,0l-.8,3.41.07,0c.14.12.57,0,.7-.17s.14-.15.4-.05.29.09.38-.11.08-.21.54,0a.27.27,0,0,0,.39-.22c0-.17.15-.18.24,0s.2.15.21,0,.09,0,.19,0,.18.06.23-.09.24-.32.38-.14.42.14.69,0c.12-.08.2-.09.3,0s.14.08.15-.05c0-.38.05-.39.18-.16s.19.26.25.06.13-.19.25,0,.33.11.35-.13.08-.25.2,0,.19.19.27,0,.28-.23.47-.08.23.1.57,0,.42-.15.44-.23,0-.09.1,0A.83.83,0,0,0,217.4,244.33Z"/><path d="M224,280.48c.14-.09.06-.21-.2-.29s-.3-.14-.07-.26a.25.25,0,0,0,0-.45c-.09-.06-.1-.1,0-.13a.12.12,0,0,0,0-.15c0-.08,0-.16.09-.26s.25-.29.1-.39a.25.25,0,0,1-.1-.38c.06-.09,0-.12-.08-.16s-.18-.12,0-.16.17-.11,0-.14-.1,0,0-.08.05-.07,0-.09-.07-.11-.09-.21l0-.26s.06-.09.14-.12.15-.09.11-.17a.32.32,0,0,1,0-.25c0-.07-.05-.13-.17-.2a3.29,3.29,0,0,0-1.35-.18,4,4,0,0,0-.91,0l-.37.05,0,.21a1.48,1.48,0,0,1-.06.35.18.18,0,0,0,.07.21c.09.05.09.09,0,.19a.39.39,0,0,0-.13.17l0,.41c0,.27,0,.39-.07.44s-.1.09,0,.16.16.32,0,.35-.26.12-.07.28a2,2,0,0,1,.39.39.57.57,0,0,1-.18.12c-.13.08-.16.12-.12.26a.29.29,0,0,1-.07.26c-.08.08-.08.12,0,.19s.12.28.15.62c0,.53,0,.54-.14.6s-.18.08-.14.27.08.21.21.24.2.11.1.48a.46.46,0,0,0,0,.36.12.12,0,0,1,0,.18s0,.09,0,.15.08.1,0,.17-.1.12-.09.15,0,.2.07.39,0,.35-.08.42-.11.09-.07.13a.54.54,0,0,1,.09.15.7.7,0,0,0,.1.19c.06.08,0,.1-.07.13s-.18.13,0,.18.18.78,0,.89-.08.11,0,.26.21.48,0,.64-.18.41,0,.51.17.11.17.2,0,.45,0,.84a2.86,2.86,0,0,1,0,.83.29.29,0,0,0,0,.27.46.46,0,0,1,0,.39,1.38,1.38,0,0,0,0,.49.56.56,0,0,1-.05.39l-.18.3c0,.08-.07.17,0,.19l.2.13c.1.07.12.11.07.16a32.5,32.5,0,0,0,.35,3.79,2.6,2.6,0,0,1,0,.41.61.61,0,0,0,0,.39,1.75,1.75,0,0,1,.15.68c0,.35.09.71.11.82a.23.23,0,0,1-.13.3c-.18.12-.23.25-.22.63a1.13,1.13,0,0,1-.07.44.59.59,0,0,0,0,.46,4.81,4.81,0,0,1,.19.77,2,2,0,0,0,.18.64c.09.13.08.16,0,.26s-.14.14-.1.27c.19.52.19,1.1,0,1.21s-.16.21,0,.2l.14,0h.33a6.78,6.78,0,0,0,1-.14,5.66,5.66,0,0,0,.94-.2c.35-.12.6-.25.56-.29s0-.08.08-.13.07-.12,0-.18-.13-.3,0-.59c.06-.13.05-.18,0-.2-.25-.06-.32-.19-.21-.35a1.31,1.31,0,0,1,.18-.23c.05,0,.06-.19,0-.34s-.06-.26-.19-.27-.17,0-.22-.52,0-.52.08-.58.21-.28.06-.36-.17-.22,0-.46a.5.5,0,0,0,.13-.4,1.81,1.81,0,0,1,0-.49.47.47,0,0,0-.08-.48c-.19-.26-.21-.41-.11-.58a3.29,3.29,0,0,0,0-1.2c-.11-.92-.1-1.08,0-1.18s.1-.21-.12-.35a2.55,2.55,0,0,1-.24-1.12c0-.25,0-.46-.14-.47s-.15-.09,0-.17a5.08,5.08,0,0,0,.15-1.77,2.4,2.4,0,0,1,.07-.71c.13-.3.08-.56-.13-.68s-.24-.26,0-.42.22-.38,0-.5-.09-.1,0-.26.12-.21.07-.28a7,7,0,0,1-.28-.68l.09-.07c.13-.09.09-.39-.07-.49s-.12-.1,0-.27.14-.19-.05-.27-.2-.07.05-.37c.1-.12,0-.24-.15-.28s-.17-.12,0-.16.18-.12.07-.15,0-.06,0-.12.09-.11-.05-.16-.28-.2-.08-.28.21-.26.06-.47-.05-.14,0-.19.09-.09,0-.12c-.37-.07-.37-.08-.12-.14s.28-.09.09-.15-.16-.1,0-.19.17-.27-.06-.31-.23-.09,0-.15.23-.12,0-.2-.18-.23,0-.34.13-.15.1-.4-.07-.31-.14-.33-.09,0,0-.07A.63.63,0,0,0,224,280.48Z"/><path d="M230.49,303.24c.14,0,.07-.11-.19-.19s-.28-.11-.05-.15.25-.15.08-.25-.09-.06,0-.07a.05.05,0,0,0,0-.09s0-.09.11-.13c.25-.11.26-.13.12-.21s-.19-.14-.09-.22.05-.06-.06-.1-.18-.08,0-.09.17,0,0-.08-.09,0,0-.05.06,0,0,0a.21.21,0,0,1-.08-.13l0-.15s.06-.05.15-.06.14,0,.11-.08-.05-.08,0-.14,0-.08-.17-.13a5.26,5.26,0,0,0-1.33-.25,7.4,7.4,0,0,0-.91-.07h-.36l0,.11a.47.47,0,0,1-.07.19s0,.09.06.12.08.06,0,.11-.13.06-.13.08l0,.23c0,.15,0,.22-.1.24s-.1,0,0,.08.14.2,0,.2-.26,0-.08.15a1.65,1.65,0,0,1,.37.26l-.18.05c-.14,0-.17.05-.14.12a.12.12,0,0,1-.09.14c-.08,0-.09.06,0,.1s.11.17.11.37,0,.3-.18.31-.18,0-.15.13.06.13.18.16.2.08.07.28-.05.16,0,.2,0,.08,0,.1-.05.05,0,.08.07.07,0,.1-.11.05-.1.07a1.84,1.84,0,0,1,0,.22c0,.16,0,.2-.12.22s-.12,0-.08.07a.2.2,0,0,1,.07.09.29.29,0,0,0,.09.11c.05.06,0,.07-.08.07s-.19.05,0,.1.1.45-.06.49-.09.05,0,.14.15.3,0,.36-.23.2,0,.28.16.08.14.14,0,.24-.08.45a1,1,0,0,1-.14.46.11.11,0,0,0,0,.15c.05.06.05.13,0,.22a.47.47,0,0,0-.1.26.21.21,0,0,1-.1.2l-.22.14c-.06,0-.08.08,0,.1l.18.1c.09.05.1.08,0,.1a12.46,12.46,0,0,0-.24,2.1.71.71,0,0,1-.1.22c-.05.09-.07.18,0,.21a.66.66,0,0,1,0,.39,4.32,4.32,0,0,0-.05.46c0,.09,0,.12-.18.14a.35.35,0,0,0-.33.31.63.63,0,0,1-.16.23c-.07.05-.09.13-.05.25a1.2,1.2,0,0,1,0,.44.73.73,0,0,0,.05.37c.06.08,0,.1-.1.13s-.17.05-.15.13c.07.31-.05.62-.25.65s-.2.09,0,.11l.13,0,.32.05a9.42,9.42,0,0,0,1,.08,8.16,8.16,0,0,0,1,0c.36,0,.64,0,.61-.07s0,0,.1-.06.1,0,0-.1-.07-.18.13-.32.09-.08,0-.11c-.23-.07-.27-.15-.13-.22l.23-.1s.09-.09.1-.17,0-.15-.13-.18-.15-.05-.11-.31.08-.29.19-.3.26-.13.13-.19-.12-.15.11-.25.2-.12.2-.2a.75.75,0,0,1,.14-.26c.09-.12.1-.17,0-.27s-.14-.25,0-.33.13-.26.17-.66.08-.61.2-.64.13-.11-.06-.22a.86.86,0,0,1-.07-.64c.07-.13,0-.26-.06-.28s-.14-.07,0-.1.27-.44.38-.95a.9.9,0,0,1,.17-.38c.16-.15.15-.3,0-.39s-.21-.18,0-.24.26-.18.1-.27-.08-.07.06-.14.15-.1.11-.15a2.48,2.48,0,0,1-.2-.4l.09,0c.15,0,.13-.21,0-.28s-.11-.08,0-.15.16-.09,0-.16-.19-.06.09-.2c.11-.05.06-.12-.13-.17s-.15-.09,0-.09.19,0,.08-.07,0,0,.06-.06.09-.06,0-.1-.26-.15-.06-.17.23-.12.11-.25-.05-.08,0-.1.11,0,0-.07c-.36-.09-.36-.09-.11-.09s.29,0,.11-.08-.16-.07,0-.1.2-.13,0-.18-.22-.08,0-.09.23,0,0-.11-.16-.14,0-.19.14-.06.13-.2,0-.19-.12-.21-.08,0,0,0Z"/></svg>