<?xml version="1.0" encoding="utf-8"?>
<!-- Generator: Adobe Illustrator 22.1.0, SVG Export Plug-In . SVG Version: 6.00 Build 0)  -->
<svg version="1.1" id="레이어_1" xmlns="http://www.w3.org/2000/svg" xmlns:xlink="http://www.w3.org/1999/xlink" x="0px"
	 y="0px" viewBox="0 0 80 50" style="enable-background:new 0 0 80 50;" xml:space="preserve">
<style type="text/css">
	.st0{fill:#FFFFFF;}
</style>
<path class="st0" d="M36.3,46.6c-0.5,2.7-1.5,3.5-4.3,3.5H6.6c-3.5,0-3.5-5.1,0-5.1h6V15.1h-6c-3.5,0-3.5-5.1,0-5.1h17
	c3.4,0,3.4,5.1,0,5.1h-5.9V45h13.7l1.9-10.1c0.6-3.3,5.7-2.4,5.1,1L36.3,46.6z"/>
<path class="st0" d="M42.3,18.3c-1.4,0.8-2.5,2-3.2,4h10.5c3.5,0,3.5,5.1,0,5.1h-13c-2.7,0-3.6-0.9-3.2-3.6c0.9-5.8,3.5-8.2,6.3-9.9
	c3.1-1.8,7.4-1.3,7.4-5.2c0-1.9-1.5-3.5-3.7-3.5c-3,0-4.6,2-4.6,3.7c0,3.5-5.1,3.5-5.1,0C33.6,5,36.8,0,43.3,0
	c5.5,0,8.9,4.2,8.9,8.6C52.2,14.7,47.1,15.5,42.3,18.3z"/>
<path class="st0" d="M65.6,27.9c-6.2,0-10.5-4.2-10.5-11.6C55.1,4.2,61.4,0,68.9,0c0.9,0,1.7,0.1,2.7,0.2c3.3,0.4,2.5,5.6-0.8,5.1
	c-0.7-0.1-1.2-0.1-1.8-0.1c-3.8,0-7,1.8-8.3,5.4c1.5-0.7,3.3-1,4.9-1c5.6,0,10.4,3.4,10.4,9C76,23.6,71.4,27.9,65.6,27.9z
	 M65.6,14.6c-2.7,0-5.1,1.4-5.1,3.9c0,2.3,2.2,4.3,5.1,4.3c2.8,0,5.2-1.8,5.2-4.3C70.8,16,68.3,14.6,65.6,14.6z"/>
</svg>
