<?xml version="1.0" encoding="utf-8"?>
<!-- Generator: Adobe Illustrator 22.1.0, SVG Export Plug-In . SVG Version: 6.00 Build 0)  -->
<svg version="1.1" id="레이어_1" xmlns="http://www.w3.org/2000/svg" xmlns:xlink="http://www.w3.org/1999/xlink" x="0px"
	 y="0px" viewBox="0 0 270 71" style="enable-background:new 0 0 270 71;" xml:space="preserve">
<style type="text/css">
	.st0{fill:#FFFFFF;}
	.st1{opacity:0.7;fill:#FFFFFF;}
</style>
<path class="st0" d="M12.2,34.3c-0.2-1.8-1.6-2.7-3.6-2.7c-3,0-4.1,2.6-4.1,5.2c0,2.6,1.1,5.2,4.1,5.2c2.1,0,3.4-1.2,3.6-3.3h4.6
	c-0.2,4.5-3.6,7.2-8,7.2c-5.3,0-8.8-4.1-8.8-9.2c0-5.1,3.5-9.2,8.8-9.2c3.8,0,7.9,2.4,8,6.7H12.2z"/>
<path class="st0" d="M19.3,28h9c3.1,0,6.2,1.4,6.2,5c0,1.9-0.9,3.7-2.8,4.4v0c1.9,0.4,2.4,2.5,2.6,4.2c0,0.7,0.1,3.3,0.7,4h-4.5
	c-0.4-0.6-0.5-2.3-0.5-2.8c-0.1-1.8-0.4-3.6-2.6-3.6h-3.5v6.4h-4.6V28z M23.9,35.6h3.8c1.4,0,2.1-0.7,2.1-2.1c0-1.3-1-1.9-2.3-1.9
	h-3.7V35.6z"/>
<path class="st0" d="M37.1,28h14v3.7h-9.4v3.1h8.6v3.6h-8.6v3.4h9.7v3.9H37.1V28z"/>
<path class="st0" d="M71.3,45.6h-4.6l-2.4-12.1h0l-2.4,12.1h-4.7L52.4,28H57l2.5,12.9h0L62.1,28h4.3L69,40.8h0L71.6,28h4.6
	L71.3,45.6z"/>
<path class="st0" d="M81.3,39.7c0.1,2.1,1.4,2.7,3.3,2.7c1.4,0,2.8-0.5,2.8-1.8c0-1.6-2.5-1.8-5.1-2.6c-2.5-0.7-5.2-1.8-5.2-5.1
	c0-3.8,3.9-5.4,7.2-5.4c3.5,0,7,1.7,7.1,5.7h-4.6c0.1-1.6-1.4-2.1-2.8-2.1c-1,0-2.2,0.3-2.2,1.5c0,1.4,2.5,1.6,5.1,2.3
	c2.5,0.7,5.1,1.9,5.1,5.1c0,4.5-3.8,5.9-7.7,5.9c-4,0-7.6-1.8-7.6-6.3H81.3z"/>
<path class="st0" d="M94.1,28h4.6v6.4h6V28h4.6v17.6h-4.6v-7.3h-6v7.3h-4.6V28z"/>
<path class="st0" d="M120.5,27.6c5.6,0,8.7,4.1,8.7,9.2c0,5.1-3.1,9.2-8.7,9.2s-8.7-4.1-8.7-9.2C111.8,31.7,114.9,27.6,120.5,27.6z
	 M120.5,42c3,0,4.1-2.6,4.1-5.2c0-2.6-1.1-5.2-4.1-5.2c-3,0-4.1,2.6-4.1,5.2C116.4,39.4,117.5,42,120.5,42z"/>
<path class="st0" d="M131.7,28h8.4c3.3,0,6.4,1.5,6.4,5.7c0,4.4-2.5,6.1-6.4,6.1h-3.8v5.9h-4.6V28z M136.3,36.2h3.1
	c1.4,0,2.5-0.6,2.5-2.2c0-1.7-1.1-2.3-2.5-2.3h-3.1V36.2z"/>
<path class="st1" d="M151.5,28h4.7l6.6,17.6H158l-1.1-3.2h-6.1l-1.1,3.2h-4.7L151.5,28z M151.8,39h4l-1.9-6.2h0L151.8,39z"/>
<path class="st1" d="M164.1,28h4.6v17.6h-4.6V28z"/>
<path class="st1" d="M171.9,28h9c3.1,0,6.2,1.4,6.2,5c0,1.9-0.9,3.7-2.8,4.4v0c1.9,0.4,2.4,2.5,2.6,4.2c0,0.7,0.1,3.3,0.7,4H183
	c-0.4-0.6-0.5-2.3-0.5-2.8c-0.1-1.8-0.4-3.6-2.6-3.6h-3.5v6.4h-4.6V28z M176.5,35.6h3.8c1.4,0,2.1-0.7,2.1-2.1c0-1.3-1-1.9-2.3-1.9
	h-3.6V35.6z"/>
<path class="st1" d="M189.7,28h8.4c3.3,0,6.4,1.5,6.4,5.7c0,4.4-2.5,6.1-6.4,6.1h-3.8v5.9h-4.6V28z M194.3,36.2h3.1
	c1.4,0,2.5-0.6,2.5-2.2c0-1.7-1.1-2.3-2.5-2.3h-3.1V36.2z"/>
<path class="st1" d="M214.6,27.6c5.6,0,8.7,4.1,8.7,9.2c0,5.1-3.1,9.2-8.7,9.2c-5.6,0-8.7-4.1-8.7-9.2
	C205.9,31.7,209.1,27.6,214.6,27.6z M214.6,42c3,0,4.1-2.6,4.1-5.2c0-2.6-1.1-5.2-4.1-5.2c-3,0-4.1,2.6-4.1,5.2
	C210.5,39.4,211.7,42,214.6,42z"/>
<path class="st1" d="M225.8,28h9c3.1,0,6.2,1.4,6.2,5c0,1.9-0.9,3.7-2.8,4.4v0c1.9,0.4,2.4,2.5,2.6,4.2c0,0.7,0.1,3.3,0.7,4h-4.5
	c-0.4-0.6-0.5-2.3-0.5-2.8c-0.1-1.8-0.4-3.6-2.6-3.6h-3.5v6.4h-4.6V28z M230.4,35.6h3.8c1.4,0,2.1-0.7,2.1-2.1c0-1.3-1-1.9-2.3-1.9
	h-3.6V35.6z"/>
<path class="st1" d="M257.1,31.9h-5.3v13.7h-4.6V31.9H242V28h15.1V31.9z"/>
<path class="st0" d="M244.8,8l3.6,3.5c0.4,0.4,1,0.5,1.5,0.3l18.3-6.4c0,0,2.4-0.6,1.7-2.2C269.3,2,267,3,267,3l-6.7,2.4l-7.1-4.8
	c0,0-1.3-1.1-2.5-0.6s-1.5,0.5-1.5,0.5l6.1,6.6l-5.2,2l-2.3-1.3c-0.5-0.3-1-0.4-1.6-0.2L244.8,8z"/>
</svg>
