<?xml version="1.0" encoding="utf-8"?>
<!-- Generator: Adobe Illustrator 22.1.0, SVG Export Plug-In . SVG Version: 6.00 Build 0)  -->
<svg version="1.1" id="레이어_1" xmlns="http://www.w3.org/2000/svg" xmlns:xlink="http://www.w3.org/1999/xlink" x="0px"
	 y="0px" viewBox="0 0 200 48" style="enable-background:new 0 0 200 48;" xml:space="preserve">
<style type="text/css">
	.st0{fill:#FFFFFF;}
</style>
<g>
	<path class="st0" d="M24.3,6.7l-4.8,2.8c-1.2-2-3.1-3-5.5-3c-3.6,0-6.3,2.7-6.3,6.7c0,4.3,2.9,6.7,6.3,6.7c2.3,0,4.2-1.1,5.5-3
		l4.5,3.2c-2.1,3.1-5.6,5.1-10,5.1C7,25,2,20.1,2,13.1S7,1.2,14.1,1.2C18.5,1.2,22.4,3.2,24.3,6.7z"/>
	<path class="st0" d="M37.4,1.6c5.7,0,8.7,2.8,8.7,7.4c0,3.6-2.3,6.2-6.4,6.9l6.6,8.8h-6.5l-6.1-8.6h-0.8v8.6h-5.5v-23L37.4,1.6
		L37.4,1.6z M32.9,6.6v4.8h4.4c2,0,3.2-0.8,3.2-2.4s-1.2-2.4-3.2-2.4H32.9z"/>
	<path class="st0" d="M67.1,24.6H49.5v-23H67v4.9H55v4h11.3v4.9H55v4.2h12.1V24.6z"/>
	<path class="st0" d="M97.5,24.6H91L86.7,9.8l-4.3,14.8h-6.5L69,1.6h5.7l4.4,16.5l4.6-16.5h5.9l4.6,16.5l4.4-16.5h5.6L97.5,24.6z"/>
	<path class="st0" d="M122.1,8.1c-1.6-1-3.9-1.9-6.6-1.9c-2.1,0-3.6,0.7-3.6,2.1s2.2,1.8,4.7,2.2l1,0.2c4.5,0.8,7.3,2.9,7.3,6.6
		c0,5.5-4.7,7.7-9.6,7.7c-3.8,0-7.6-1-10.1-2.9l2.7-4.5c1.8,1.2,4.2,2.4,7.4,2.4c2.1,0,3.6-0.7,3.6-2.1s-1.5-1.8-4.5-2.2l-1.1-0.2
		c-4.7-0.7-7.3-2.9-7.2-7c0.1-4.5,3.9-7.3,9.3-7.3c3.1,0,5.8,0.5,9.3,2.4L122.1,8.1z"/>
	<path class="st0" d="M133.7,10.5h9.7V1.6h5.5v23h-5.5v-9.1h-9.7v9.1h-5.5v-23h5.5V10.5z"/>
	<path class="st0" d="M176.3,13.1c0,6.9-5,11.9-12.1,11.9s-12.1-5.1-12.1-11.9c0-6.9,5-11.9,12.1-11.9
		C171.2,1.2,176.3,6.2,176.3,13.1z M157.7,13.1c0,3.9,2.7,6.7,6.4,6.7s6.4-2.7,6.4-6.7c0-3.9-2.7-6.7-6.4-6.7S157.7,9.2,157.7,13.1z
		"/>
	<path class="st0" d="M185,16.8v7.8h-5.5v-23h9.8c5.7,0,8.7,3.1,8.7,7.7c0,4.5-3,7.5-8.6,7.5H185z M185,6.6V12h4.3
		c2,0,3.2-0.9,3.2-2.7s-1.2-2.7-3.2-2.7C189.3,6.6,185,6.6,185,6.6z"/>
</g>
<g>
	<path class="st0" d="M64.1,39.9h0.4v-0.2c0-1.3-0.7-1.8-1.7-1.8c-0.8,0-1.4,0.3-1.7,0.5c-0.2,0.1-0.3,0.1-0.5-0.1l-0.1-0.1
		c-0.1-0.2-0.1-0.4,0.1-0.5c0.4-0.2,1.1-0.6,2.2-0.6c1.7,0,2.6,0.9,2.6,2.7v4.1c0,0.2-0.1,0.3-0.3,0.3h-0.2c-0.2,0-0.3-0.1-0.3-0.3
		v-0.5c0-0.3,0-0.5,0-0.5h0c0,0-0.6,1.6-2.3,1.6c-1.2,0-2.3-0.7-2.3-2C59.9,40,62.8,39.9,64.1,39.9z M62.4,43.5
		c1.3,0,2.1-1.4,2.1-2.6v-0.3h-0.4c-1.1,0-3.3,0-3.3,1.6C60.8,42.8,61.3,43.5,62.4,43.5z"/>
	<path class="st0" d="M66.6,37.6c-0.1-0.2,0-0.4,0.3-0.4h0.3c0.2,0,0.3,0.1,0.4,0.3l1.8,4.8c0.1,0.3,0.2,0.8,0.2,0.8h0
		c0,0,0.1-0.5,0.2-0.8l1.8-4.8c0.1-0.2,0.2-0.3,0.4-0.3h0.3c0.3,0,0.4,0.2,0.3,0.4l-2.4,6.3c-0.1,0.2-0.2,0.3-0.4,0.3h-0.5
		c-0.2,0-0.3-0.1-0.4-0.3L66.6,37.6z"/>
	<path class="st0" d="M77.6,39.9H78v-0.2c0-1.3-0.7-1.8-1.7-1.8c-0.8,0-1.4,0.3-1.7,0.5c-0.2,0.1-0.3,0.1-0.5-0.1l-0.1-0.1
		c-0.1-0.2-0.1-0.4,0.1-0.5c0.4-0.2,1.1-0.6,2.2-0.6c1.7,0,2.6,0.9,2.6,2.7v4.1c0,0.2-0.1,0.3-0.3,0.3h-0.2c-0.2,0-0.3-0.1-0.3-0.3
		v-0.5c0-0.3,0-0.5,0-0.5h0c0,0-0.6,1.6-2.3,1.6c-1.2,0-2.3-0.7-2.3-2C73.4,40,76.3,39.9,77.6,39.9z M75.9,43.5
		c1.3,0,2.1-1.4,2.1-2.6v-0.3h-0.4c-1.1,0-3.3,0-3.3,1.6C74.3,42.8,74.8,43.5,75.9,43.5z"/>
	<path class="st0" d="M80.9,35.3v-0.5c0-0.2,0.1-0.3,0.3-0.3h0.3c0.2,0,0.3,0.1,0.3,0.3v0.5c0,0.2-0.1,0.3-0.3,0.3h-0.3
		C81,35.6,80.9,35.5,80.9,35.3z M81,37.6c0-0.2,0.1-0.3,0.3-0.3h0.3c0.2,0,0.3,0.1,0.3,0.3v6.2c0,0.2-0.1,0.3-0.3,0.3h-0.3
		c-0.2,0-0.3-0.1-0.3-0.3V37.6z"/>
	<path class="st0" d="M84,34.8c0-0.2,0.1-0.3,0.3-0.3h0.3c0.2,0,0.3,0.1,0.3,0.3v7.5c0,0.9,0.4,1,0.7,1c0.2,0,0.3,0.1,0.3,0.3v0.2
		c0,0.2-0.1,0.3-0.4,0.3c-0.6,0-1.6-0.2-1.6-1.7V34.8z"/>
	<path class="st0" d="M91,39.9h0.4v-0.2c0-1.3-0.7-1.8-1.7-1.8c-0.8,0-1.4,0.3-1.7,0.5c-0.2,0.1-0.3,0.1-0.5-0.1l-0.1-0.1
		c-0.1-0.2-0.1-0.4,0.1-0.5c0.4-0.2,1.1-0.6,2.2-0.6c1.7,0,2.6,0.9,2.6,2.7v4.1c0,0.2-0.1,0.3-0.3,0.3h-0.2c-0.2,0-0.3-0.1-0.3-0.3
		v-0.5c0-0.3,0-0.5,0-0.5h0c0,0-0.6,1.6-2.3,1.6c-1.2,0-2.3-0.7-2.3-2C86.8,40,89.7,39.9,91,39.9z M89.3,43.5c1.3,0,2.1-1.4,2.1-2.6
		v-0.3H91c-1.1,0-3.3,0-3.3,1.6C87.8,42.8,88.3,43.5,89.3,43.5z"/>
	<path class="st0" d="M94.4,34.8c0-0.2,0.1-0.3,0.3-0.3H95c0.2,0,0.3,0.1,0.3,0.3v3.1c0,0.3-0.1,0.6-0.1,0.6h0c0,0,0.6-1.4,2.4-1.4
		c1.9,0,3,1.5,3,3.6c0,2.2-1.3,3.6-3.1,3.6c-1.7,0-2.3-1.4-2.3-1.4h0c0,0,0.1,0.2,0.1,0.5v0.5c0,0.2-0.1,0.3-0.3,0.3h-0.2
		c-0.2,0-0.3-0.1-0.3-0.3V34.8z M97.5,43.5c1.2,0,2.2-1,2.2-2.8c0-1.7-0.9-2.8-2.2-2.8c-1.2,0-2.2,0.8-2.2,2.8
		C95.3,42.1,96,43.5,97.5,43.5z"/>
	<path class="st0" d="M102.4,34.8c0-0.2,0.1-0.3,0.3-0.3h0.3c0.2,0,0.3,0.1,0.3,0.3v7.5c0,0.9,0.4,1,0.7,1c0.2,0,0.3,0.1,0.3,0.3
		v0.2c0,0.2-0.1,0.3-0.4,0.3c-0.6,0-1.6-0.2-1.6-1.7V34.8z"/>
	<path class="st0" d="M108.7,37c1.8,0,2.9,1.3,2.9,3.3c0,0.2-0.2,0.3-0.4,0.3h-5c0,1.8,1.3,2.8,2.7,2.8c0.9,0,1.5-0.4,1.8-0.6
		c0.2-0.1,0.3-0.1,0.5,0.1l0.1,0.2c0.1,0.2,0.1,0.3-0.1,0.5c-0.4,0.3-1.2,0.8-2.3,0.8c-2.1,0-3.6-1.5-3.6-3.6
		C105.3,38.4,106.8,37,108.7,37z M110.6,40c-0.1-1.5-0.9-2.2-2-2.2c-1.2,0-2.2,0.8-2.4,2.2H110.6z"/>
	<path class="st0" d="M118.7,36.4h-2.2c-0.5,0-0.8-0.3-0.8-0.8v-0.6c0-0.5,0.3-0.8,0.8-0.8h6.9c0.5,0,0.8,0.3,0.8,0.8v0.6
		c0,0.5-0.3,0.8-0.8,0.8h-2.2v7c0,0.5-0.3,0.8-0.8,0.8h-0.9c-0.5,0-0.8-0.3-0.8-0.8V36.4z"/>
	<path class="st0" d="M126.4,34.9c0.1-0.4,0.4-0.6,0.9-0.6h1.2c0.4,0,0.7,0.2,0.9,0.6l2.8,8.3c0.2,0.5-0.1,0.9-0.6,0.9h-0.9
		c-0.4,0-0.7-0.2-0.9-0.6l-0.4-1.4h-3.1l-0.4,1.4c-0.1,0.4-0.4,0.6-0.8,0.6h-0.9c-0.5,0-0.8-0.3-0.6-0.9L126.4,34.9z M128.8,40.1
		l-0.6-1.9c-0.2-0.6-0.4-1.7-0.4-1.7h0c0,0-0.2,1.1-0.4,1.7l-0.6,1.9H128.8z"/>
	<path class="st0" d="M135.3,39.3l-2.4-4c-0.3-0.5-0.1-0.9,0.5-0.9h1.1c0.4,0,0.7,0.2,0.9,0.5l0.8,1.5c0.3,0.6,0.6,1.3,0.6,1.3h0
		c0,0,0.3-0.6,0.6-1.3l0.8-1.5c0.2-0.4,0.5-0.5,0.9-0.5h1.1c0.6,0,0.8,0.4,0.5,0.9l-2.5,4l2.4,4c0.3,0.5,0.1,0.9-0.5,0.9h-1
		c-0.4,0-0.7-0.2-0.9-0.5l-0.8-1.5c-0.3-0.6-0.6-1.2-0.6-1.2h0c0,0-0.3,0.6-0.6,1.2l-0.8,1.5c-0.2,0.4-0.5,0.5-0.9,0.5h-1
		c-0.6,0-0.8-0.4-0.5-0.9L135.3,39.3z"/>
	<path class="st0" d="M145.6,35.1c0-0.5,0.3-0.8,0.8-0.8h2.7c1,0,1.5,0.1,1.9,0.2c1.1,0.4,1.8,1.4,1.8,2.9c0,1-0.5,2.2-1.5,2.7v0
		c0,0,0.1,0.2,0.4,0.6l1.4,2.5c0.3,0.5,0.1,0.9-0.5,0.9h-1c-0.4,0-0.7-0.2-0.9-0.5l-1.5-2.8H148v2.6c0,0.5-0.3,0.8-0.8,0.8h-0.9
		c-0.5,0-0.8-0.3-0.8-0.8V35.1z M149,38.8c0.8,0,1.3-0.4,1.3-1.2c0-0.5-0.1-0.9-0.6-1c-0.2-0.1-0.5-0.1-0.9-0.1H148v2.4H149z"/>
	<path class="st0" d="M154.4,35.1c0-0.5,0.3-0.8,0.8-0.8h4.6c0.5,0,0.8,0.3,0.8,0.8v0.6c0,0.5-0.3,0.8-0.8,0.8h-3v1.8h2.2
		c0.5,0,0.8,0.3,0.8,0.8v0.5c0,0.5-0.3,0.8-0.8,0.8h-2.2v1.9h3.2c0.5,0,0.8,0.3,0.8,0.8v0.6c0,0.5-0.3,0.8-0.8,0.8h-4.8
		c-0.5,0-0.8-0.3-0.8-0.8V35.1z"/>
	<path class="st0" d="M162.1,35.1c0-0.5,0.3-0.8,0.8-0.8h4.5c0.5,0,0.8,0.3,0.8,0.8v0.6c0,0.5-0.3,0.8-0.8,0.8h-2.9v2.1h2.2
		c0.5,0,0.8,0.3,0.8,0.8v0.5c0,0.5-0.3,0.8-0.8,0.8h-2.2v2.9c0,0.5-0.3,0.8-0.8,0.8h-0.9c-0.5,0-0.8-0.3-0.8-0.8V35.1z"/>
	<path class="st0" d="M169.2,35.1c0-0.5,0.3-0.8,0.8-0.8h0.9c0.5,0,0.8,0.3,0.8,0.8v5.5c0,1,0.7,1.6,1.7,1.6c1,0,1.7-0.5,1.7-1.6
		v-5.5c0-0.5,0.3-0.8,0.8-0.8h0.9c0.5,0,0.8,0.3,0.8,0.8v5.5c0,2.2-1.6,3.8-4.1,3.8c-2.5,0-4.1-1.6-4.1-3.8V35.1z"/>
	<path class="st0" d="M179.2,35.1c0-0.5,0.3-0.8,0.8-0.8h1.1c0.4,0,0.7,0.2,0.9,0.5l2.4,4.1c0.4,0.6,0.8,1.7,0.8,1.7h0
		c0,0-0.1-1.1-0.1-1.7v-3.8c0-0.5,0.3-0.8,0.8-0.8h0.9c0.5,0,0.8,0.3,0.8,0.8v8.3c0,0.5-0.3,0.8-0.8,0.8h-1.1
		c-0.4,0-0.7-0.2-0.9-0.5l-2.4-4.1c-0.4-0.6-0.8-1.7-0.8-1.7h0c0,0,0.1,1.1,0.1,1.7v3.8c0,0.5-0.3,0.8-0.8,0.8H180
		c-0.5,0-0.8-0.3-0.8-0.8V35.1z"/>
	<path class="st0" d="M189.4,35.1c0-0.5,0.3-0.8,0.8-0.8h2.7c3.1,0,5.1,1.8,5.1,4.9s-2,4.9-5.1,4.9h-2.7c-0.5,0-0.8-0.3-0.8-0.8
		V35.1z M192.8,42.1c1.7,0,2.7-1,2.7-2.9c0-1.9-1.1-2.8-2.7-2.8h-1v5.7H192.8z"/>
</g>
</svg>
