<?xml version="1.0" encoding="utf-8"?>
<!-- Generator: Adobe Illustrator 22.1.0, SVG Export Plug-In . SVG Version: 6.00 Build 0)  -->
<svg version="1.1" id="레이어_1" xmlns="http://www.w3.org/2000/svg" xmlns:xlink="http://www.w3.org/1999/xlink" x="0px"
	 y="0px" viewBox="0 0 200 53" style="enable-background:new 0 0 200 53;" xml:space="preserve">
<style type="text/css">
	.st0{fill:#FFFFFF;}
</style>
<g>
	<path class="st0" d="M65.1,46.9h0.4v-0.2c0-1.3-0.7-1.8-1.7-1.8c-0.8,0-1.4,0.3-1.7,0.5c-0.2,0.1-0.3,0.1-0.5-0.1l-0.1-0.1
		c-0.1-0.2-0.1-0.4,0.1-0.5c0.4-0.2,1.1-0.6,2.2-0.6c1.7,0,2.6,0.9,2.6,2.7v4.1c0,0.2-0.1,0.3-0.3,0.3h-0.2c-0.2,0-0.3-0.1-0.3-0.3
		v-0.5c0-0.3,0-0.5,0-0.5l0,0c0,0-0.6,1.6-2.3,1.6c-1.2,0-2.3-0.7-2.3-2C60.9,47,63.8,46.9,65.1,46.9z M63.4,50.5
		c1.3,0,2.1-1.4,2.1-2.6v-0.3h-0.4c-1.1,0-3.3,0-3.3,1.6C61.8,49.8,62.3,50.5,63.4,50.5z"/>
	<path class="st0" d="M67.6,44.6c-0.1-0.2,0-0.4,0.3-0.4h0.3c0.2,0,0.3,0.1,0.4,0.3l1.8,4.8c0.1,0.3,0.2,0.8,0.2,0.8l0,0
		c0,0,0.1-0.5,0.2-0.8l1.8-4.8c0.1-0.2,0.2-0.3,0.4-0.3h0.3c0.3,0,0.4,0.2,0.3,0.4l-2.4,6.3c-0.1,0.2-0.2,0.3-0.4,0.3h-0.5
		c-0.2,0-0.3-0.1-0.4-0.3L67.6,44.6z"/>
	<path class="st0" d="M78.6,46.9H79v-0.2c0-1.3-0.7-1.8-1.7-1.8c-0.8,0-1.4,0.3-1.7,0.5c-0.2,0.1-0.3,0.1-0.5-0.1L75,45.2
		c-0.1-0.2-0.1-0.4,0.1-0.5c0.4-0.2,1.1-0.6,2.2-0.6c1.7,0,2.6,0.9,2.6,2.7v4.1c0,0.2-0.1,0.3-0.3,0.3h-0.2c-0.2,0-0.3-0.1-0.3-0.3
		v-0.5c0-0.3,0-0.5,0-0.5l0,0c0,0-0.6,1.6-2.3,1.6c-1.2,0-2.3-0.7-2.3-2C74.4,47,77.3,46.9,78.6,46.9z M76.9,50.5
		c1.3,0,2.1-1.4,2.1-2.6v-0.3h-0.4c-1.1,0-3.3,0-3.3,1.6C75.3,49.8,75.8,50.5,76.9,50.5z"/>
	<path class="st0" d="M81.9,42.3v-0.5c0-0.2,0.1-0.3,0.3-0.3h0.3c0.2,0,0.3,0.1,0.3,0.3v0.5c0,0.2-0.1,0.3-0.3,0.3h-0.3
		C82,42.6,81.9,42.5,81.9,42.3z M82,44.6c0-0.2,0.1-0.3,0.3-0.3h0.3c0.2,0,0.3,0.1,0.3,0.3v6.2c0,0.2-0.1,0.3-0.3,0.3h-0.3
		c-0.2,0-0.3-0.1-0.3-0.3V44.6z"/>
	<path class="st0" d="M85,41.8c0-0.2,0.1-0.3,0.3-0.3h0.3c0.2,0,0.3,0.1,0.3,0.3v7.5c0,0.9,0.4,1,0.7,1c0.2,0,0.3,0.1,0.3,0.3v0.2
		c0,0.2-0.1,0.3-0.4,0.3c-0.6,0-1.6-0.2-1.6-1.7L85,41.8L85,41.8z"/>
	<path class="st0" d="M92,46.9h0.4v-0.2c0-1.3-0.7-1.8-1.7-1.8c-0.8,0-1.4,0.3-1.7,0.5c-0.2,0.1-0.3,0.1-0.5-0.1l-0.1-0.1
		c-0.1-0.2-0.1-0.4,0.1-0.5c0.4-0.2,1.1-0.6,2.2-0.6c1.7,0,2.6,0.9,2.6,2.7v4.1c0,0.2-0.1,0.3-0.3,0.3h-0.2c-0.2,0-0.3-0.1-0.3-0.3
		v-0.5c0-0.3,0-0.5,0-0.5l0,0c0,0-0.6,1.6-2.3,1.6c-1.2,0-2.3-0.7-2.3-2C87.8,47,90.7,46.9,92,46.9z M90.3,50.5
		c1.3,0,2.1-1.4,2.1-2.6v-0.3H92c-1.1,0-3.3,0-3.3,1.6C88.8,49.8,89.3,50.5,90.3,50.5z"/>
	<path class="st0" d="M95.4,41.8c0-0.2,0.1-0.3,0.3-0.3H96c0.2,0,0.3,0.1,0.3,0.3v3.1c0,0.3-0.1,0.6-0.1,0.6l0,0
		c0,0,0.6-1.4,2.4-1.4c1.9,0,3,1.5,3,3.6c0,2.2-1.3,3.6-3.1,3.6c-1.7,0-2.3-1.4-2.3-1.4l0,0c0,0,0.1,0.2,0.1,0.5v0.5
		c0,0.2-0.1,0.3-0.3,0.3h-0.2c-0.2,0-0.3-0.1-0.3-0.3L95.4,41.8L95.4,41.8z M98.5,50.5c1.2,0,2.2-1,2.2-2.8c0-1.7-0.9-2.8-2.2-2.8
		c-1.2,0-2.2,0.8-2.2,2.8C96.3,49.1,97,50.5,98.5,50.5z"/>
	<path class="st0" d="M103.4,41.8c0-0.2,0.1-0.3,0.3-0.3h0.3c0.2,0,0.3,0.1,0.3,0.3v7.5c0,0.9,0.4,1,0.7,1c0.2,0,0.3,0.1,0.3,0.3
		v0.2c0,0.2-0.1,0.3-0.4,0.3c-0.6,0-1.6-0.2-1.6-1.7L103.4,41.8L103.4,41.8z"/>
	<path class="st0" d="M109.7,44c1.8,0,2.9,1.3,2.9,3.3c0,0.2-0.2,0.3-0.4,0.3h-5c0,1.8,1.3,2.8,2.7,2.8c0.9,0,1.5-0.4,1.8-0.6
		c0.2-0.1,0.3-0.1,0.5,0.1l0.1,0.2c0.1,0.2,0.1,0.3-0.1,0.5c-0.4,0.3-1.2,0.8-2.3,0.8c-2.1,0-3.6-1.5-3.6-3.6
		C106.3,45.4,107.8,44,109.7,44z M111.6,47c-0.1-1.5-0.9-2.2-2-2.2c-1.2,0-2.2,0.8-2.4,2.2H111.6z"/>
	<path class="st0" d="M119.7,43.4h-2.2c-0.5,0-0.8-0.3-0.8-0.8V42c0-0.5,0.3-0.8,0.8-0.8h6.9c0.5,0,0.8,0.3,0.8,0.8v0.6
		c0,0.5-0.3,0.8-0.8,0.8h-2.2v7c0,0.5-0.3,0.8-0.8,0.8h-0.9c-0.5,0-0.8-0.3-0.8-0.8V43.4z"/>
	<path class="st0" d="M127.4,41.9c0.1-0.4,0.4-0.6,0.9-0.6h1.2c0.4,0,0.7,0.2,0.9,0.6l2.8,8.3c0.2,0.5-0.1,0.9-0.6,0.9h-0.9
		c-0.4,0-0.7-0.2-0.9-0.6l-0.4-1.4h-3.1l-0.4,1.4c-0.1,0.4-0.4,0.6-0.8,0.6h-0.9c-0.5,0-0.8-0.3-0.6-0.9L127.4,41.9z M129.8,47.1
		l-0.6-1.9c-0.2-0.6-0.4-1.7-0.4-1.7l0,0c0,0-0.2,1.1-0.4,1.7l-0.6,1.9H129.8z"/>
	<path class="st0" d="M136.3,46.3l-2.4-4c-0.3-0.5-0.1-0.9,0.5-0.9h1.1c0.4,0,0.7,0.2,0.9,0.5l0.8,1.5c0.3,0.6,0.6,1.3,0.6,1.3l0,0
		c0,0,0.3-0.6,0.6-1.3l0.8-1.5c0.2-0.4,0.5-0.5,0.9-0.5h1.1c0.6,0,0.8,0.4,0.5,0.9l-2.5,4l2.4,4c0.3,0.5,0.1,0.9-0.5,0.9h-1
		c-0.4,0-0.7-0.2-0.9-0.5l-0.8-1.5c-0.3-0.6-0.6-1.2-0.6-1.2l0,0c0,0-0.3,0.6-0.6,1.2l-0.8,1.5c-0.2,0.4-0.5,0.5-0.9,0.5h-1
		c-0.6,0-0.8-0.4-0.5-0.9L136.3,46.3z"/>
	<path class="st0" d="M146.6,42.1c0-0.5,0.3-0.8,0.8-0.8h2.7c1,0,1.5,0.1,1.9,0.2c1.1,0.4,1.8,1.4,1.8,2.9c0,1-0.5,2.2-1.5,2.7l0,0
		c0,0,0.1,0.2,0.4,0.6l1.4,2.5c0.3,0.5,0.1,0.9-0.5,0.9h-1c-0.4,0-0.7-0.2-0.9-0.5l-1.5-2.8H149v2.6c0,0.5-0.3,0.8-0.8,0.8h-0.9
		c-0.5,0-0.8-0.3-0.8-0.8v-8.3H146.6z M150,45.8c0.8,0,1.3-0.4,1.3-1.2c0-0.5-0.1-0.9-0.6-1c-0.2-0.1-0.5-0.1-0.9-0.1H149v2.4h1
		V45.8z"/>
	<path class="st0" d="M155.4,42.1c0-0.5,0.3-0.8,0.8-0.8h4.6c0.5,0,0.8,0.3,0.8,0.8v0.6c0,0.5-0.3,0.8-0.8,0.8h-3v1.8h2.2
		c0.5,0,0.8,0.3,0.8,0.8v0.5c0,0.5-0.3,0.8-0.8,0.8h-2.2v1.9h3.2c0.5,0,0.8,0.3,0.8,0.8v0.6c0,0.5-0.3,0.8-0.8,0.8h-4.8
		c-0.5,0-0.8-0.3-0.8-0.8V42.1z"/>
	<path class="st0" d="M163.1,42.1c0-0.5,0.3-0.8,0.8-0.8h4.5c0.5,0,0.8,0.3,0.8,0.8v0.6c0,0.5-0.3,0.8-0.8,0.8h-2.9v2.1h2.2
		c0.5,0,0.8,0.3,0.8,0.8v0.5c0,0.5-0.3,0.8-0.8,0.8h-2.2v2.9c0,0.5-0.3,0.8-0.8,0.8h-0.9c-0.5,0-0.8-0.3-0.8-0.8L163.1,42.1
		L163.1,42.1z"/>
	<path class="st0" d="M170.2,42.1c0-0.5,0.3-0.8,0.8-0.8h0.9c0.5,0,0.8,0.3,0.8,0.8v5.5c0,1,0.7,1.6,1.7,1.6s1.7-0.5,1.7-1.6v-5.5
		c0-0.5,0.3-0.8,0.8-0.8h0.9c0.5,0,0.8,0.3,0.8,0.8v5.5c0,2.2-1.6,3.8-4.1,3.8s-4.1-1.6-4.1-3.8v-5.5H170.2z"/>
	<path class="st0" d="M180.2,42.1c0-0.5,0.3-0.8,0.8-0.8h1.1c0.4,0,0.7,0.2,0.9,0.5l2.4,4.1c0.4,0.6,0.8,1.7,0.8,1.7l0,0
		c0,0-0.1-1.1-0.1-1.7v-3.8c0-0.5,0.3-0.8,0.8-0.8h0.9c0.5,0,0.8,0.3,0.8,0.8v8.3c0,0.5-0.3,0.8-0.8,0.8h-1.1
		c-0.4,0-0.7-0.2-0.9-0.5l-2.4-4.1c-0.4-0.6-0.8-1.7-0.8-1.7l0,0c0,0,0.1,1.1,0.1,1.7v3.8c0,0.5-0.3,0.8-0.8,0.8H181
		c-0.5,0-0.8-0.3-0.8-0.8V42.1z"/>
	<path class="st0" d="M190.4,42.1c0-0.5,0.3-0.8,0.8-0.8h2.7c3.1,0,5.1,1.8,5.1,4.9s-2,4.9-5.1,4.9h-2.7c-0.5,0-0.8-0.3-0.8-0.8
		V42.1z M193.8,49.1c1.7,0,2.7-1,2.7-2.9s-1.1-2.8-2.7-2.8h-1v5.7H193.8z"/>
</g>
<g>
	<g>
		<path class="st0" d="M9.1,25.4c-0.2-1.3-1.2-2-2.6-2c-2.2,0-3,1.9-3,3.9c0,1.9,0.8,3.9,3,3.9c1.6,0,2.5-0.9,2.6-2.4h3.4
			c-0.2,3.4-2.6,5.3-6,5.3C2.6,34,0,31,0,27.2c0-3.8,2.6-6.8,6.5-6.8c2.8,0,5.9,1.8,6,4.9H9.1z"/>
		<path class="st0" d="M14.3,20.7h6.7c2.3,0,4.6,1,4.6,3.7c0,1.4-0.7,2.7-2,3.3v0c1.4,0.3,1.8,1.9,1.9,3.1c0,0.5,0.1,2.5,0.5,2.9
			h-3.4c-0.3-0.4-0.3-1.7-0.4-2.1c-0.1-1.3-0.3-2.7-1.9-2.7h-2.6v4.8h-3.4V20.7z M17.7,26.4h2.9c1,0,1.6-0.5,1.6-1.5
			c0-1-0.8-1.4-1.7-1.4h-2.7V26.4z"/>
		<path class="st0" d="M27.5,20.7h10.4v2.7h-7v2.3h6.4v2.6h-6.4v2.5H38v2.9H27.5V20.7z"/>
		<path class="st0" d="M52.8,33.8h-3.4l-1.8-9h0l-1.8,9h-3.5l-3.5-13h3.4l1.8,9.5h0l1.9-9.5h3.2l1.9,9.5h0l1.8-9.5h3.4L52.8,33.8z"
			/>
		<path class="st0" d="M60.2,29.4c0.1,1.5,1,2,2.5,2c1,0,2.1-0.4,2.1-1.3c0-1.2-1.9-1.4-3.7-1.9c-1.9-0.5-3.8-1.4-3.8-3.8
			c0-2.9,2.9-4,5.3-4c2.6,0,5.2,1.3,5.2,4.2h-3.4c0.1-1.2-1.1-1.6-2.1-1.6c-0.7,0-1.6,0.3-1.6,1.1c0,1,1.9,1.2,3.8,1.7
			c1.9,0.5,3.8,1.4,3.8,3.8c0,3.3-2.8,4.4-5.7,4.4c-3,0-5.6-1.3-5.7-4.7H60.2z"/>
		<path class="st0" d="M69.7,20.7h3.4v4.8h4.5v-4.8H81v13h-3.4v-5.4h-4.5v5.4h-3.4V20.7z"/>
		<path class="st0" d="M89.3,20.4c4.1,0,6.4,3,6.4,6.8c0,3.8-2.3,6.8-6.4,6.8c-4.1,0-6.4-3-6.4-6.8C82.8,23.5,85.1,20.4,89.3,20.4z
			 M89.3,31.1c2.2,0,3-1.9,3-3.9c0-1.9-0.8-3.9-3-3.9c-2.2,0-3,1.9-3,3.9C86.2,29.2,87.1,31.1,89.3,31.1z"/>
		<path class="st0" d="M97.5,20.7h6.2c2.4,0,4.7,1.1,4.7,4.2c0,3.2-1.8,4.5-4.7,4.5h-2.8v4.3h-3.4V20.7z M100.9,26.8h2.3
			c1.1,0,1.8-0.4,1.8-1.6c0-1.2-0.8-1.7-1.8-1.7h-2.3V26.8z"/>
		<path class="st0" d="M112.2,20.7h3.5l4.9,13H117l-0.8-2.3h-4.5l-0.8,2.3h-3.5L112.2,20.7z M112.5,28.9h3l-1.4-4.6h0L112.5,28.9z"
			/>
		<path class="st0" d="M121.6,20.7h3.4v13h-3.4V20.7z"/>
		<path class="st0" d="M127.3,20.7h6.7c2.3,0,4.6,1,4.6,3.7c0,1.4-0.7,2.7-2,3.3v0c1.4,0.3,1.8,1.9,1.9,3.1c0,0.5,0.1,2.5,0.5,2.9
			h-3.4c-0.3-0.4-0.3-1.7-0.4-2.1c-0.1-1.3-0.3-2.7-1.9-2.7h-2.6v4.8h-3.4V20.7z M130.7,26.4h2.9c1,0,1.6-0.5,1.6-1.5
			c0-1-0.8-1.4-1.7-1.4h-2.7V26.4z"/>
		<path class="st0" d="M140.5,20.7h6.2c2.4,0,4.7,1.1,4.7,4.2c0,3.2-1.8,4.5-4.7,4.5h-2.8v4.3h-3.4V20.7z M143.9,26.8h2.3
			c1.1,0,1.8-0.4,1.8-1.6c0-1.2-0.8-1.7-1.8-1.7h-2.3V26.8z"/>
		<path class="st0" d="M159,20.4c4.1,0,6.4,3,6.4,6.8c0,3.8-2.3,6.8-6.4,6.8s-6.4-3-6.4-6.8C152.5,23.5,154.9,20.4,159,20.4z
			 M159,31.1c2.2,0,3-1.9,3-3.9c0-1.9-0.8-3.9-3-3.9s-3,1.9-3,3.9C155.9,29.2,156.8,31.1,159,31.1z"/>
		<path class="st0" d="M167.3,20.7h6.7c2.3,0,4.6,1,4.6,3.7c0,1.4-0.7,2.7-2,3.3v0c1.4,0.3,1.8,1.9,1.9,3.1c0,0.5,0.1,2.5,0.5,2.9
			h-3.4c-0.3-0.4-0.3-1.7-0.4-2.1c-0.1-1.3-0.3-2.7-1.9-2.7h-2.6v4.8h-3.4V20.7z M170.7,26.4h2.9c1,0,1.6-0.5,1.6-1.5
			c0-1-0.8-1.4-1.7-1.4h-2.7V26.4z"/>
		<path class="st0" d="M190.5,23.6h-3.9v10.1h-3.4V23.6h-3.9v-2.9h11.2V23.6z"/>
	</g>
	<path class="st0" d="M181.3,5.9l2.7,2.6c0.3,0.3,0.7,0.4,1.1,0.2L198.7,4c0,0,1.8-0.5,1.2-1.6c-0.4-0.9-2.1-0.1-2.1-0.1l-5,1.8
		l-5.3-3.5c0,0-1-0.8-1.9-0.4c-0.9,0.4-1.1,0.4-1.1,0.4l4.5,4.9l-3.8,1.5l-1.7-1c-0.4-0.2-0.8-0.3-1.2-0.2L181.3,5.9z"/>
</g>
</svg>
