<?xml version="1.0" encoding="utf-8"?>
<!-- Generator: Adobe Illustrator 22.1.0, SVG Export Plug-In . SVG Version: 6.00 Build 0)  -->
<svg version="1.1" id="Layer_1" xmlns="http://www.w3.org/2000/svg" xmlns:xlink="http://www.w3.org/1999/xlink" x="0px" y="0px"
	 viewBox="0 0 882 254.4" style="enable-background:new 0 0 882 254.4;" xml:space="preserve">
<style type="text/css">
	.st0{fill:#2A3141;}
	.st1{fill:#F5B54D;}
	.st2{fill:#CC61A8;}
	.st3{fill:#BACC54;}
	.st4{fill:#21ABB0;}
</style>
<title>embold logo</title>
<g id="Layer_2_1_">
	<g id="Layer_1-2">
		<path class="st0" d="M705.9,52h28.2c2.2,0,3.9,1.8,3.9,3.9v107c0,2.2-1.8,3.9-3.9,3.9h-28.2c-2.2,0-3.9-1.8-3.9-3.9v-107
			C702,53.8,703.7,52,705.9,52z"/>
		<path class="st0" d="M802,55.9v32c0,0.6-0.5,1.1-1.1,1.1c-0.2,0-0.5-0.1-0.7-0.2c-5.5-4.2-12.2-6.5-19.1-6.4
			c-20.4,0-34,17.5-34,43.1c0,23.8,12.3,43.1,34,43.1c6.9,0.1,13.6-2.1,19.1-6.3c0.5-0.4,1.1-0.3,1.5,0.2c0.2,0.2,0.2,0.4,0.2,0.7
			l0,0c0,2.2,1.8,3.9,3.9,3.9h28.2c2.2,0,3.9-1.8,3.9-3.9V55.9c0-2.2-1.8-3.9-3.9-3.9h-28.2C803.7,52,802,53.8,802,55.9z
			 M793.6,138.6c-5.4,0-8.4-5.9-8.4-13.1c0-7.8,3.4-13.2,8.4-13.2s8.4,5.3,8.4,13.2C802,132.7,798.9,138.6,793.6,138.6L793.6,138.6z
			"/>
		<path class="st0" d="M646.1,82.4c-29,0-46.5,19.3-46.5,43.1s17.5,43.1,46.5,43.1s46.5-19.3,46.5-43S675.2,82.4,646.1,82.4z
			 M646.1,138.6c-5.4,0-8.4-5.9-8.4-13.2c0-7.8,3.4-13.2,8.4-13.2s8.4,5.3,8.4,13.2C654.6,132.7,651.5,138.6,646.1,138.6z"/>
		<path class="st0" d="M354,134.7c1,0,1.8-0.7,1.9-1.6c0.4-2.5,0.6-5.1,0.6-7.7c0-23.8-17.5-43-46.5-43s-46.5,19.3-46.5,43
			s17.5,43.1,46.5,43.1c22.2,0,37.6-11.3,43.7-27.2c0.4-1-0.2-2.2-1.3-2.5c-0.2-0.1-0.4-0.1-0.6-0.1h-33.1c-0.5,0-1,0.2-1.4,0.6
			c-1.8,2.1-4.5,3.3-7.3,3.3c-4.2,0-7.4-2.5-9.4-6.3c-0.2-0.5,0-1.1,0.5-1.3c0.1-0.1,0.2-0.1,0.4-0.1L354,134.7z M310,108.3
			c4.1,0,7.4,2.4,9.4,6.3c0.2,0.5,0,1.1-0.5,1.3c-0.1,0.1-0.3,0.1-0.4,0.1h-17c-0.6,0-1-0.5-1-1c0-0.1,0-0.3,0.1-0.4
			C302.7,110.7,306,108.3,310,108.3z"/>
		<path class="st0" d="M560,82.4c-6.9-0.1-13.7,2.2-19.1,6.4c-0.5,0.4-1.1,0.3-1.5-0.2c-0.1-0.2-0.2-0.4-0.2-0.7v-32
			c0-2.2-1.7-3.9-3.9-3.9c0,0,0,0,0,0H507c-2.2,0-3.9,1.8-3.9,3.9c0,0,0,0,0,0V163c0,2.2,1.8,3.9,3.9,3.9l0,0h28.2
			c2.2,0,3.9-1.8,3.9-3.9l0,0c0-0.6,0.5-1.1,1.1-1.1c0.3,0,0.5,0.1,0.7,0.2c5.5,4.2,12.2,6.5,19.1,6.3c21.8,0,34-19.3,34-43
			C594,99.8,580.4,82.4,560,82.4z M547.6,138.6c-5.4,0-8.4-5.9-8.4-13.2c0-7.8,3.4-13.2,8.4-13.2c5.1,0,8.4,5.3,8.4,13.2
			C556,132.7,553,138.6,547.6,138.6L547.6,138.6z"/>
		<path class="st0" d="M462.1,82.4c-8.2,0-16.1,3.2-22,8.9c-9.1-10.6-25.1-11.9-35.7-2.8c-1.4,1.2-2.6,2.5-3.7,3.9v-4.4
			c0-2.2-1.7-3.9-3.9-3.9c0,0,0,0,0,0h-28.2c-2.2,0-3.9,1.8-3.9,3.9v0v75c0,2.2,1.8,3.9,3.9,3.9l0,0h32.2v-48.9
			c0-2.8,2.3-5.1,5.1-5.1l0,0c2.8,0,5.1,2.3,5.1,5.1v45c0,2.2,1.7,3.9,3.9,3.9h32.1v-48.9c0-2.8,2.3-5.1,5.1-5.1c0,0,0,0,0,0l0,0
			c2.8,0,5.1,2.3,5.1,5.1c0,0,0,0,0,0v45c0,2.2,1.8,3.9,3.9,3.9l0,0h28.2c2.2,0,3.9-1.8,3.9-3.9v0v-50.1
			C493.3,94.9,480.5,82.4,462.1,82.4z"/>
		<path class="st1" d="M61.1,57.5h128.1c2.2,0,3.9,1.8,3.9,3.9v30.2c0,2.2-1.8,3.9-3.9,3.9H61.1c-2.2,0-3.9-1.8-3.9-3.9V61.4
			C57.2,59.2,59,57.5,61.1,57.5z"/>
		<path class="st2" d="M41.9,106.4h58.8c2.2,0,3.9,1.8,3.9,3.9v30.2c0,2.2-1.8,3.9-3.9,3.9H41.9c-2.2,0-3.9-1.8-3.9-3.9v-30.2
			C38,108.2,39.8,106.4,41.9,106.4z"/>
		<path class="st3" d="M124.3,106.4h30.2c2.2,0,3.9,1.8,3.9,3.9v30.2c0,2.2-1.8,3.9-3.9,3.9h-30.2c-2.2,0-3.9-1.8-3.9-3.9v-30.2
			C120.4,108.2,122.2,106.4,124.3,106.4z"/>
		<path class="st4" d="M189.2,193.4H61.1c-2.2,0-3.9-1.8-3.9-3.9v-30.2c0-2.2,1.8-3.9,3.9-3.9h128.1c2.2,0,3.9,1.8,3.9,3.9v30.2
			C193.2,191.7,191.4,193.4,189.2,193.4z"/>
	</g>
</g>
</svg>
