<?xml version="1.0" encoding="utf-8"?>
<!-- Generator: Adobe Illustrator 21.0.2, SVG Export Plug-In . SVG Version: 6.00 Build 0)  -->
<svg version="1.0" id="레이어_4" xmlns="http://www.w3.org/2000/svg" xmlns:xlink="http://www.w3.org/1999/xlink" x="0px"
	 y="0px" viewBox="0 0 436 40" style="enable-background:new 0 0 436 40;" xml:space="preserve">
<style type="text/css">
	.st0{fill:#9E0060;}
	.st1{fill:#FFA8AB;}
</style>
<g>
	<g>
		<g>
			<g>
				<path class="st0" d="M4.1,4L4.1,4c1.4,0,2.6,0.7,3.4,1.9l9.9,15.4c0.3,0.4,0.9,0.2,0.9-0.3V4.5h2.1v24.9c0,1.1-0.8,1.9-1.9,1.9
					h0c-0.6,0-1.2-0.3-1.6-0.9L3.4,9.1C3,8.5,2.1,8.8,2.1,9.4v21.3H0V8.2C0,5.9,1.8,4,4.1,4z"/>
			</g>
		</g>
		<path class="st0" d="M25.8,13.3h8v1.2h-6.6c-0.6,0-1,0.5-1,1v5.5h6.3v1.2h-6.3v6.2c0,0.6,0.5,1,1,1h7.2v1.2h-8.7
			c-1.5,0-2.8-1.3-2.8-2.9V16.2C23,14.6,24.2,13.3,25.8,13.3z"/>
		<path class="st0" d="M104.6,13.3h8v1.2H106c-0.6,0-1,0.5-1,1v5.5h6.3v1.2H105v6.2c0,0.6,0.5,1,1,1h7.2v1.2h-8.7
			c-1.5,0-2.8-1.3-2.8-2.9V16.2C101.8,14.6,103.1,13.3,104.6,13.3z"/>
		<path class="st0" d="M48.8,24.9c0,2.3-0.3,3.3-1.2,4.4c-1,1.2-2.7,1.9-4.8,1.9c-2.4,0-4.3-0.8-5.4-2.4c-0.8-1-1.1-2.1-1.1-3.9
			V13.3h3.2v11.6c0,1.3,0.2,2.2,0.6,2.9c0.6,1,1.9,1.7,3.3,1.7c1.4,0,2.6-0.6,3.3-1.6c0.5-0.8,0.6-1.4,0.6-3V13.3h1.4V24.9z"/>
		<path class="st0" d="M51.6,13.3h6.3c1.8,0,3,0.3,4.2,1c1.3,0.8,2.1,2.3,2.1,3.9c0,2.6-1.7,4.2-4.7,4.4l4.7,8.1h-3.6l-4.3-7.9
			c-0.3-0.6,0-0.9,0.2-0.9c1.3,0,2.6-0.4,3.4-1.2c0.6-0.6,1-1.5,1-2.5c0-1.8-0.9-3.2-2.3-3.6c-0.6-0.2-1.5-0.3-2.6-0.3
			c-0.4,0-0.6,0-1.2,0.1v16.4h-3.2V13.3z"/>
		<path class="st0" d="M115.8,13.3h6.3c1.8,0,3,0.3,4.2,1c1.3,0.8,2.1,2.3,2.1,3.9c0,2.6-1.7,4.2-4.7,4.4l4.7,8.1h-3.6l-4.3-7.9
			c-0.3-0.6,0-0.9,0.2-0.9c1.3,0,2.6-0.4,3.4-1.2c0.6-0.6,1-1.5,1-2.5c0-1.8-0.9-3.2-2.3-3.6c-0.6-0.2-1.5-0.3-2.6-0.3
			c-0.4,0-0.6,0-1.2,0.1v16.4h-3.2V13.3z"/>
		<path class="st0" d="M68.4,15.3c1.6-1.6,3.7-2.5,6-2.5c5,0,8.7,4,8.7,9.2c0,5.2-3.7,9.1-8.7,9.1c-5.1,0-8.8-3.8-8.8-9.1
			C65.5,19.7,66.6,17,68.4,15.3z M78,28.1c1-1.4,1.5-3.4,1.5-6.1c0-4.9-1.9-7.9-5.2-7.9c-3.2,0-5.3,3.1-5.3,8c0,4.9,2,7.9,5.3,7.9
			C75.8,30,77.2,29.3,78,28.1z"/>
		<path class="st0" d="M85.1,13.3h5.5c2.9,0,5.1,0.7,6.7,2.3c1.9,1.8,3,4.3,3,6.9c0,2.8-1.2,5.3-3.3,6.8c-1.5,1-3.1,1.5-5.3,1.5
			h-6.6V13.3z M90.3,29.6c2.1,0,3.5-0.4,4.5-1.3c1.3-1.2,2.1-3.4,2.1-5.9c0-3.1-1.1-5.7-3-7c-1-0.7-2.2-1-4-1c-0.5,0-0.8,0-1.6,0.1
			v15C89.2,29.6,89.7,29.6,90.3,29.6z"/>
		<path class="st0" d="M132.8,12.9L132.8,12.9c1,0,1.8,0.6,2.2,1.5l3.5,9.6l3-9.2c0.4-1.2,1.4-1.9,2.6-1.9l0,0
			c1.5,0,2.8,1.3,2.8,2.8v15.1h-3.1V16.1c0-0.3-0.4-0.4-0.5-0.1l-4.6,14.5c-0.3,0.9-1.5,0.9-1.8,0L132.3,16
			c-0.1-0.2-0.4-0.2-0.4,0.1v14.7h-1.4V15.2C130.5,13.9,131.5,12.9,132.8,12.9z"/>
		<g>
			<path class="st0" d="M135.1,6.6c0.2-0.4,0.4-0.8,0.8-1.1c0.3-0.3,0.7-0.6,1.1-0.7c0.4-0.2,0.9-0.3,1.3-0.3c0.5,0,0.9,0.1,1.3,0.3
				c0.4,0.2,0.8,0.4,1.1,0.7c0.3,0.3,0.6,0.7,0.7,1.1c0.2,0.4,0.3,0.9,0.3,1.4c0,0.5-0.1,1-0.3,1.4c-0.2,0.4-0.4,0.8-0.7,1.1
				c-0.3,0.3-0.7,0.6-1.1,0.7c-0.4,0.2-0.9,0.3-1.3,0.3c-0.5,0-0.9-0.1-1.3-0.3c-0.4-0.2-0.8-0.4-1.1-0.7c-0.3-0.3-0.6-0.7-0.8-1.1
				c-0.2-0.4-0.3-0.9-0.3-1.4C134.9,7.5,135,7,135.1,6.6z M135.7,9.2c0.1,0.4,0.3,0.7,0.6,1c0.3,0.3,0.6,0.5,0.9,0.6
				c0.3,0.2,0.7,0.2,1.1,0.2c0.4,0,0.8-0.1,1.1-0.2c0.3-0.2,0.6-0.4,0.9-0.6c0.3-0.3,0.5-0.6,0.6-1c0.1-0.4,0.2-0.8,0.2-1.2
				c0-0.4-0.1-0.8-0.2-1.2c-0.1-0.4-0.3-0.7-0.6-1c-0.3-0.3-0.6-0.5-0.9-0.6C139.1,5,138.8,5,138.4,5c-0.4,0-0.8,0.1-1.1,0.2
				c-0.3,0.2-0.7,0.4-0.9,0.6c-0.3,0.3-0.5,0.6-0.6,1c-0.1,0.4-0.2,0.8-0.2,1.2C135.5,8.4,135.6,8.8,135.7,9.2z M138.6,5.9
				c0.5,0,0.8,0.1,1.1,0.3c0.2,0.2,0.3,0.5,0.3,0.9c0,0.4-0.1,0.6-0.3,0.8c-0.2,0.2-0.5,0.3-0.8,0.3l1.2,1.8h-0.7l-1.1-1.8h-0.7v1.8
				H137V5.9H138.6z M138.3,7.7c0.1,0,0.3,0,0.4,0s0.2,0,0.3-0.1c0.1,0,0.2-0.1,0.2-0.2c0.1-0.1,0.1-0.2,0.1-0.4c0-0.1,0-0.3-0.1-0.3
				c-0.1-0.1-0.1-0.1-0.2-0.2c-0.1,0-0.2-0.1-0.3-0.1c-0.1,0-0.2,0-0.3,0h-0.8v1.3H138.3z"/>
		</g>
	</g>
	<g>
		<path class="st1" d="M169.8,6.2c5.6,0,8.7,2.5,8.7,7.2c0,4.2-3.2,7-8.2,7.2l8.1,10.4h-4.9l-7.8-10.4h-2v10.4h-4V6.2H169.8z
			 M163.7,10v7h6c3.2,0,4.7-1.2,4.7-3.5c0-2.3-1.6-3.4-4.7-3.4H163.7z"/>
		<path class="st1" d="M197,22.5c0,0.5,0,1-0.1,1.4h-12.4c0.5,3,2.6,4.3,5,4.3c1.7,0,3.5-0.7,4.8-1.8l1.8,2.6
			c-2,1.8-4.4,2.4-6.9,2.4c-5,0-8.6-3.5-8.6-8.9c0-5.3,3.4-8.9,8.3-8.9C193.7,13.6,197,17.2,197,22.5z M184.5,21h8.7
			c-0.4-2.6-1.9-4.2-4.2-4.2C186.4,16.9,184.9,18.6,184.5,21z"/>
		<path class="st1" d="M218.1,22.5c0,5.2-3.7,8.9-8.4,8.9c-2.4,0-4.1-1-5.2-2.5V38h-3.7V14h3.7v2c1.2-1.5,2.9-2.5,5.2-2.5
			C214.4,13.6,218.1,17.3,218.1,22.5z M204.2,22.5c0,3.1,2,5.4,5.1,5.4c3.1,0,5.1-2.5,5.1-5.4s-1.9-5.4-5.1-5.4
			C206.2,17.1,204.2,19.4,204.2,22.5z"/>
		<path class="st1" d="M238,30.9h-3.7v-2c-1.2,1.5-2.9,2.5-5.3,2.5c-4.7,0-8.4-3.7-8.4-8.9s3.7-8.9,8.4-8.9c2.4,0,4.1,1,5.3,2.5v-2
			h3.7V30.9z M224.4,22.5c0,3,1.9,5.4,5.1,5.4c3,0,5.1-2.3,5.1-5.4s-2-5.4-5.1-5.4C226.3,17.1,224.4,19.5,224.4,22.5z"/>
		<path class="st1" d="M247.4,8.2c0,1.5-1.1,2.6-2.6,2.6c-1.5,0-2.6-1.1-2.6-2.6s1.1-2.6,2.6-2.6C246.3,5.6,247.4,6.7,247.4,8.2z
			 M246.7,30.9H243V14h3.7V30.9z"/>
		<path class="st1" d="M263,14.1l-0.9,3.7c-0.8-0.4-1.9-0.6-2.8-0.6c-2.3,0-4,1.7-4,4.5v9.3h-3.7V14h3.6v1.9
			c1.1-1.6,2.8-2.3,4.9-2.3C261.3,13.6,262.2,13.7,263,14.1z"/>
	</g>
</g>
</svg>
