<?xml version="1.0" encoding="utf-8"?>
<!-- Generator: Adobe Illustrator 21.0.2, SVG Export Plug-In . SVG Version: 6.00 Build 0)  -->
<svg version="1.0" id="레이어_2" xmlns="http://www.w3.org/2000/svg" xmlns:xlink="http://www.w3.org/1999/xlink" x="0px"
	 y="0px" viewBox="0 0 436 40" style="enable-background:new 0 0 436 40;" xml:space="preserve">
<style type="text/css">
	.st0{fill:#9E0060;}
	.st1{fill:#FFA8AB;}
</style>
<g>
	<g>
		<g>
			<g>
				<path class="st0" d="M4.1,4L4.1,4c1.4,0,2.6,0.7,3.4,1.8L17.4,21c0.3,0.4,0.9,0.2,0.9-0.3V4.5h2.2V29c0,1-0.8,1.9-1.9,1.9h0
					c-0.6,0-1.2-0.3-1.6-0.8L3.4,9C3,8.4,2.2,8.7,2.2,9.4v21H0V8.1C0,5.8,1.8,4,4.1,4z"/>
			</g>
		</g>
		<path class="st0" d="M25.8,13.2h8v1.2h-6.6c-0.6,0-1,0.5-1,1v5.4h6.3v1.2h-6.3v6.1c0,0.6,0.5,1,1,1h7.3v1.2h-8.7
			c-1.5,0-2.8-1.3-2.8-2.8V16C23,14.5,24.3,13.2,25.8,13.2z"/>
		<path class="st0" d="M104.8,13.2h8v1.2h-6.6c-0.6,0-1,0.5-1,1v5.4h6.3v1.2h-6.3v6.1c0,0.6,0.5,1,1,1h7.3v1.2h-8.7
			c-1.5,0-2.8-1.3-2.8-2.8V16C102,14.5,103.2,13.2,104.8,13.2z"/>
		<path class="st0" d="M48.8,24.6c0,2.3-0.3,3.2-1.2,4.4c-1,1.2-2.7,1.9-4.8,1.9c-2.4,0-4.3-0.8-5.4-2.3c-0.8-1-1.1-2.1-1.1-3.9
			V13.2h3.2v11.4c0,1.3,0.2,2.1,0.6,2.9c0.6,1,1.9,1.7,3.3,1.7c1.4,0,2.7-0.6,3.3-1.6c0.5-0.8,0.6-1.4,0.6-2.9V13.2h1.4V24.6z"/>
		<path class="st0" d="M51.7,13.2H58c1.8,0,3,0.3,4.2,1c1.3,0.8,2.1,2.3,2.1,3.9c0,2.5-1.7,4.1-4.7,4.3l4.7,8h-3.6l-4.3-7.7
			c-0.3-0.6,0-0.9,0.2-0.9c1.3,0,2.6-0.4,3.4-1.2c0.6-0.6,1-1.4,1-2.5c0-1.8-0.9-3.1-2.3-3.6c-0.6-0.2-1.5-0.3-2.6-0.3
			c-0.4,0-0.6,0-1.2,0.1v16.1h-3.2V13.2z"/>
		<path class="st0" d="M116,13.2h6.3c1.8,0,3,0.3,4.2,1c1.3,0.8,2.1,2.3,2.1,3.9c0,2.5-1.7,4.1-4.7,4.3l4.7,8H125l-4.3-7.7
			c-0.3-0.6,0-0.9,0.2-0.9c1.3,0,2.6-0.4,3.4-1.2c0.6-0.6,1-1.4,1-2.5c0-1.8-0.9-3.1-2.3-3.6c-0.6-0.2-1.5-0.3-2.6-0.3
			c-0.4,0-0.6,0-1.2,0.1v16.1H116V13.2z"/>
		<path class="st0" d="M68.5,15.2c1.6-1.6,3.7-2.4,6-2.4c5,0,8.8,3.9,8.8,9.1c0,5.1-3.7,8.9-8.8,8.9c-5.1,0-8.8-3.8-8.8-9
			C65.6,19.4,66.7,16.8,68.5,15.2z M78.1,27.8c1-1.4,1.5-3.3,1.5-6.1c0-4.9-1.9-7.8-5.2-7.8c-3.2,0-5.3,3-5.3,7.9
			c0,4.8,2,7.8,5.3,7.8C75.9,29.6,77.3,28.9,78.1,27.8z"/>
		<path class="st0" d="M85.2,13.2h5.5c2.9,0,5.1,0.7,6.8,2.3c1.9,1.8,3,4.2,3,6.8c0,2.8-1.2,5.2-3.4,6.7c-1.5,1-3.1,1.4-5.3,1.4
			h-6.6V13.2z M90.4,29.3c2.1,0,3.5-0.4,4.5-1.3c1.4-1.2,2.1-3.3,2.1-5.8c0-3.1-1.1-5.6-3-6.9c-1-0.7-2.2-1-4-1
			c-0.5,0-0.8,0-1.6,0.1v14.8C89.4,29.2,89.9,29.3,90.4,29.3z"/>
		<path class="st0" d="M133,12.7L133,12.7c1,0,1.8,0.6,2.2,1.5l3.5,9.4l3-9c0.4-1.1,1.4-1.9,2.6-1.9l0,0c1.5,0,2.8,1.3,2.8,2.8v14.8
			h-3.1V15.9c0-0.3-0.4-0.4-0.5-0.1l-4.6,14.3c-0.3,0.8-1.5,0.8-1.8,0l-4.5-14.2c-0.1-0.2-0.4-0.2-0.4,0.1v14.5h-1.4V15
			C130.7,13.8,131.7,12.7,133,12.7z"/>
		<g>
			<path class="st0" d="M135.3,6.5c0.2-0.4,0.4-0.8,0.8-1.1s0.7-0.6,1.1-0.7c0.4-0.2,0.9-0.3,1.3-0.3c0.5,0,0.9,0.1,1.3,0.3
				c0.4,0.2,0.8,0.4,1.1,0.7c0.3,0.3,0.6,0.7,0.8,1.1c0.2,0.4,0.3,0.9,0.3,1.4c0,0.5-0.1,1-0.3,1.4c-0.2,0.4-0.4,0.8-0.8,1.1
				c-0.3,0.3-0.7,0.6-1.1,0.7c-0.4,0.2-0.9,0.3-1.3,0.3c-0.5,0-0.9-0.1-1.3-0.3c-0.4-0.2-0.8-0.4-1.1-0.7c-0.3-0.3-0.6-0.7-0.8-1.1
				s-0.3-0.9-0.3-1.4C135.1,7.4,135.2,7,135.3,6.5z M135.9,9.1c0.1,0.4,0.3,0.7,0.6,0.9c0.3,0.3,0.6,0.5,0.9,0.6
				c0.3,0.2,0.7,0.2,1.1,0.2c0.4,0,0.8-0.1,1.1-0.2c0.3-0.2,0.6-0.4,0.9-0.6c0.3-0.3,0.5-0.6,0.6-0.9c0.1-0.4,0.2-0.8,0.2-1.2
				c0-0.4-0.1-0.8-0.2-1.2c-0.1-0.4-0.3-0.7-0.6-0.9c-0.3-0.3-0.6-0.5-0.9-0.6c-0.3-0.2-0.7-0.2-1.1-0.2c-0.4,0-0.8,0.1-1.1,0.2
				c-0.3,0.2-0.7,0.4-0.9,0.6c-0.3,0.3-0.5,0.6-0.6,0.9c-0.1,0.4-0.2,0.8-0.2,1.2C135.7,8.3,135.8,8.7,135.9,9.1z M138.8,5.9
				c0.5,0,0.8,0.1,1.1,0.3c0.2,0.2,0.3,0.5,0.3,0.9c0,0.4-0.1,0.6-0.3,0.8c-0.2,0.2-0.5,0.3-0.8,0.3l1.2,1.8h-0.7l-1.1-1.8h-0.7V10
				h-0.6V5.9H138.8z M138.5,7.7c0.1,0,0.3,0,0.4,0c0.1,0,0.2,0,0.3-0.1c0.1,0,0.2-0.1,0.2-0.2c0.1-0.1,0.1-0.2,0.1-0.4
				c0-0.1,0-0.2-0.1-0.3c-0.1-0.1-0.1-0.1-0.2-0.2c-0.1,0-0.2-0.1-0.3-0.1c-0.1,0-0.2,0-0.3,0h-0.8v1.3H138.5z"/>
		</g>
	</g>
	<g>
		<path class="st1" d="M181.6,10.8l-3.3,2.2c-1.5-2.2-3.9-3.5-6.8-3.5c-5,0-8.7,3.6-8.7,8.9c0,5.3,3.7,8.9,8.7,8.9
			c2.9,0,5.3-1.3,6.8-3.5l3.2,2.3c-2.1,3-5.8,4.9-10,4.9c-7.5,0-12.8-5.4-12.8-12.6c0-7.3,5.3-12.6,12.8-12.6
			C175.8,5.7,179.7,7.7,181.6,10.8z"/>
		<path class="st1" d="M201.4,30.5h-3.7v-2c-1.2,1.5-2.9,2.4-5.3,2.4c-4.7,0-8.4-3.7-8.4-8.8s3.7-8.8,8.4-8.8c2.4,0,4.1,1,5.3,2.5
			v-2h3.7V30.5z M187.8,22.2c0,2.9,1.9,5.3,5.1,5.3c3,0,5.1-2.3,5.1-5.3s-2-5.3-5.1-5.3C189.7,16.9,187.8,19.3,187.8,22.2z"/>
		<path class="st1" d="M217.7,13.9l-0.9,3.6c-0.8-0.4-1.9-0.6-2.8-0.6c-2.3,0-4,1.6-4,4.5v9.2h-3.7V13.9h3.6v1.9
			c1.1-1.6,2.8-2.3,4.9-2.3C216,13.4,216.9,13.6,217.7,13.9z"/>
		<path class="st1" d="M235.1,22.2c0,0.5,0,0.9-0.1,1.4h-12.4c0.5,3,2.6,4.2,5,4.2c1.7,0,3.5-0.7,4.8-1.8l1.8,2.6
			c-2,1.7-4.4,2.3-6.9,2.3c-5,0-8.6-3.5-8.6-8.8c0-5.2,3.4-8.8,8.3-8.8C231.9,13.4,235.1,17,235.1,22.2z M222.7,20.8h8.7
			c-0.4-2.6-1.9-4.1-4.3-4.1C224.5,16.7,223,18.3,222.7,20.8z"/>
		<path class="st1" d="M269.8,10.8l-3.3,2.2c-1.5-2.2-3.9-3.5-6.8-3.5c-5,0-8.7,3.6-8.7,8.9c0,5.3,3.7,8.9,8.7,8.9
			c2.9,0,5.3-1.3,6.8-3.5l3.2,2.3c-2.1,3-5.8,4.9-10,4.9c-7.5,0-12.8-5.4-12.8-12.6c0-7.3,5.3-12.6,12.8-12.6
			C264,5.7,267.9,7.7,269.8,10.8z"/>
		<path class="st1" d="M285.1,13.9l-0.9,3.6c-0.8-0.4-1.9-0.6-2.8-0.6c-2.3,0-4,1.6-4,4.5v9.2h-3.7V13.9h3.6v1.9
			c1.1-1.6,2.8-2.3,4.9-2.3C283.4,13.4,284.3,13.6,285.1,13.9z"/>
		<path class="st1" d="M302.5,22.2c0,0.5,0,0.9-0.1,1.4H290c0.5,3,2.6,4.2,5,4.2c1.7,0,3.5-0.7,4.8-1.8l1.8,2.6
			c-2,1.7-4.4,2.3-6.9,2.3c-5,0-8.6-3.5-8.6-8.8c0-5.2,3.4-8.8,8.3-8.8C299.3,13.4,302.5,17,302.5,22.2z M290.1,20.8h8.7
			c-0.4-2.6-1.9-4.1-4.3-4.1C291.9,16.7,290.4,18.3,290.1,20.8z"/>
		<path class="st1" d="M322.4,30.5h-3.7v-2c-1.2,1.5-2.9,2.4-5.3,2.4c-4.7,0-8.4-3.7-8.4-8.8s3.7-8.8,8.4-8.8c2.4,0,4.1,1,5.3,2.5
			v-2h3.7V30.5z M308.9,22.2c0,2.9,1.9,5.3,5.1,5.3c3,0,5.1-2.3,5.1-5.3s-2-5.3-5.1-5.3C310.8,16.9,308.9,19.3,308.9,22.2z"/>
		<path class="st1" d="M355,20.1v10.5h-3.7v-9.3c0-2.8-1.5-4.4-3.9-4.4c-2.4,0-4.3,1.5-4.3,4.4v9.2h-3.7v-9.3c0-2.8-1.5-4.4-3.9-4.4
			c-2.4,0-4.3,1.5-4.3,4.4v9.2h-3.7V13.9h3.6v2c1.3-2,3.4-2.5,5.1-2.5c2.6,0,4.6,1.1,5.8,3c1.5-2.4,4-3,6.1-3
			C352.2,13.4,355,16.2,355,20.1z"/>
	</g>
</g>
</svg>
