<?xml version="1.0" encoding="utf-8"?>
<!-- Generator: Adobe Illustrator 21.0.2, SVG Export Plug-In . SVG Version: 6.00 Build 0)  -->
<svg version="1.0" id="레이어_3" xmlns="http://www.w3.org/2000/svg" xmlns:xlink="http://www.w3.org/1999/xlink" x="0px"
	 y="0px" viewBox="0 0 436 40" style="enable-background:new 0 0 436 40;" xml:space="preserve">
<style type="text/css">
	.st0{fill:#9E0060;}
	.st1{fill:#FFA8AB;}
</style>
<g>
	<g>
		<g>
			<g>
				<path class="st0" d="M4.1,4L4.1,4c1.4,0,2.6,0.7,3.4,1.9l9.9,15.4c0.3,0.4,0.9,0.2,0.9-0.3V4.5h2.2v24.9c0,1.1-0.8,1.9-1.9,1.9
					h0c-0.6,0-1.2-0.3-1.6-0.9L3.4,9.1C3,8.5,2.2,8.8,2.2,9.4v21.3H0V8.2C0,5.9,1.8,4,4.1,4z"/>
			</g>
		</g>
		<path class="st0" d="M25.8,13.3h8v1.2h-6.6c-0.6,0-1,0.5-1,1v5.5h6.3v1.2h-6.3v6.2c0,0.6,0.5,1,1,1h7.3v1.2h-8.7
			c-1.5,0-2.8-1.3-2.8-2.9V16.2C23,14.6,24.2,13.3,25.8,13.3z"/>
		<path class="st0" d="M104.7,13.3h8v1.2h-6.6c-0.6,0-1,0.5-1,1v5.5h6.3v1.2h-6.3v6.2c0,0.6,0.5,1,1,1h7.3v1.2h-8.7
			c-1.5,0-2.8-1.3-2.8-2.9V16.2C101.9,14.6,103.2,13.3,104.7,13.3z"/>
		<path class="st0" d="M48.8,24.9c0,2.3-0.3,3.3-1.2,4.4c-1,1.2-2.7,1.9-4.8,1.9c-2.4,0-4.3-0.8-5.4-2.4c-0.8-1-1.1-2.1-1.1-3.9
			V13.3h3.2v11.6c0,1.3,0.2,2.2,0.6,2.9c0.6,1,1.9,1.7,3.3,1.7c1.4,0,2.7-0.6,3.3-1.6c0.5-0.8,0.6-1.4,0.6-3V13.3h1.4V24.9z"/>
		<path class="st0" d="M51.7,13.3h6.3c1.8,0,3,0.3,4.2,1c1.3,0.8,2.1,2.3,2.1,3.9c0,2.6-1.7,4.2-4.7,4.4l4.7,8.1h-3.6l-4.3-7.9
			c-0.3-0.6,0-0.9,0.2-0.9c1.3,0,2.6-0.4,3.4-1.2c0.6-0.6,1-1.5,1-2.5c0-1.8-0.9-3.2-2.3-3.6c-0.6-0.2-1.5-0.3-2.6-0.3
			c-0.4,0-0.6,0-1.2,0.1v16.4h-3.2V13.3z"/>
		<path class="st0" d="M116,13.3h6.3c1.8,0,3,0.3,4.2,1c1.3,0.8,2.1,2.3,2.1,3.9c0,2.6-1.7,4.2-4.7,4.4l4.7,8.1H125l-4.3-7.9
			c-0.3-0.6,0-0.9,0.2-0.9c1.3,0,2.6-0.4,3.4-1.2c0.6-0.6,1-1.5,1-2.5c0-1.8-0.9-3.2-2.3-3.6c-0.6-0.2-1.5-0.3-2.6-0.3
			c-0.4,0-0.6,0-1.2,0.1v16.4H116V13.3z"/>
		<path class="st0" d="M68.4,15.3c1.6-1.6,3.7-2.5,6-2.5c5,0,8.8,4,8.8,9.2c0,5.2-3.7,9.1-8.8,9.1c-5.1,0-8.8-3.8-8.8-9.1
			C65.6,19.7,66.7,17,68.4,15.3z M78.1,28.1c1-1.4,1.5-3.4,1.5-6.1c0-4.9-1.9-7.9-5.2-7.9c-3.2,0-5.3,3.1-5.3,8c0,4.9,2,7.9,5.3,7.9
			C75.9,30,77.3,29.3,78.1,28.1z"/>
		<path class="st0" d="M85.2,13.3h5.5c2.9,0,5.1,0.7,6.8,2.3c1.9,1.8,3,4.3,3,6.9c0,2.8-1.2,5.3-3.4,6.8c-1.5,1-3.1,1.5-5.3,1.5
			h-6.6V13.3z M90.4,29.6c2.1,0,3.5-0.4,4.5-1.3c1.4-1.2,2.1-3.4,2.1-5.9c0-3.1-1.1-5.7-3-7c-1-0.7-2.2-1-4-1c-0.5,0-0.8,0-1.6,0.1
			v15C89.3,29.6,89.8,29.6,90.4,29.6z"/>
		<path class="st0" d="M133,12.9L133,12.9c1,0,1.8,0.6,2.2,1.5l3.5,9.6l3-9.2c0.4-1.2,1.4-1.9,2.6-1.9l0,0c1.5,0,2.8,1.3,2.8,2.8
			v15.1h-3.1V16.1c0-0.3-0.4-0.4-0.5-0.1l-4.6,14.5c-0.3,0.9-1.5,0.9-1.8,0L132.4,16c-0.1-0.2-0.4-0.2-0.4,0.1v14.7h-1.4V15.2
			C130.7,13.9,131.7,12.9,133,12.9z"/>
		<g>
			<path class="st0" d="M135.3,6.6c0.2-0.4,0.4-0.8,0.8-1.1c0.3-0.3,0.7-0.6,1.1-0.7c0.4-0.2,0.9-0.3,1.3-0.3c0.5,0,0.9,0.1,1.3,0.3
				c0.4,0.2,0.8,0.4,1.1,0.7c0.3,0.3,0.6,0.7,0.8,1.1C141.9,7,142,7.5,142,8c0,0.5-0.1,1-0.3,1.4c-0.2,0.4-0.4,0.8-0.8,1.1
				c-0.3,0.3-0.7,0.6-1.1,0.7c-0.4,0.2-0.9,0.3-1.3,0.3c-0.5,0-0.9-0.1-1.3-0.3c-0.4-0.2-0.8-0.4-1.1-0.7c-0.3-0.3-0.6-0.7-0.8-1.1
				C135.1,8.9,135,8.5,135,8C135,7.5,135.1,7,135.3,6.6z M135.9,9.2c0.1,0.4,0.3,0.7,0.6,1c0.3,0.3,0.6,0.5,0.9,0.6
				c0.3,0.2,0.7,0.2,1.1,0.2c0.4,0,0.8-0.1,1.1-0.2c0.3-0.2,0.6-0.4,0.9-0.6c0.3-0.3,0.5-0.6,0.6-1c0.1-0.4,0.2-0.8,0.2-1.2
				c0-0.4-0.1-0.8-0.2-1.2c-0.1-0.4-0.3-0.7-0.6-1c-0.3-0.3-0.6-0.5-0.9-0.6C139.3,5,138.9,5,138.5,5c-0.4,0-0.8,0.1-1.1,0.2
				c-0.3,0.2-0.7,0.4-0.9,0.6c-0.3,0.3-0.5,0.6-0.6,1c-0.1,0.4-0.2,0.8-0.2,1.2C135.7,8.4,135.7,8.8,135.9,9.2z M138.7,5.9
				c0.5,0,0.8,0.1,1.1,0.3c0.2,0.2,0.3,0.5,0.3,0.9c0,0.4-0.1,0.6-0.3,0.8c-0.2,0.2-0.5,0.3-0.8,0.3l1.2,1.8h-0.7l-1.1-1.8h-0.7v1.8
				h-0.6V5.9H138.7z M138.5,7.7c0.1,0,0.3,0,0.4,0s0.2,0,0.3-0.1c0.1,0,0.2-0.1,0.2-0.2c0.1-0.1,0.1-0.2,0.1-0.4
				c0-0.1,0-0.3-0.1-0.3c-0.1-0.1-0.1-0.1-0.2-0.2c-0.1,0-0.2-0.1-0.3-0.1c-0.1,0-0.2,0-0.3,0h-0.8v1.3H138.5z"/>
		</g>
	</g>
	<g>
		<path class="st1" d="M181.6,10.9l-3.3,2.2c-1.5-2.2-3.9-3.6-6.8-3.6c-5,0-8.7,3.7-8.7,9c0,5.3,3.7,9,8.7,9c2.9,0,5.3-1.3,6.8-3.5
			l3.2,2.4c-2.1,3.1-5.8,5-10,5c-7.5,0-12.8-5.4-12.8-12.8c0-7.4,5.3-12.8,12.8-12.8C175.8,5.8,179.6,7.7,181.6,10.9z"/>
		<path class="st1" d="M201.3,30.9h-3.7v-2c-1.2,1.5-2.9,2.5-5.3,2.5c-4.7,0-8.4-3.7-8.4-8.9s3.7-8.9,8.4-8.9c2.4,0,4.1,1,5.3,2.5
			v-2h3.7V30.9z M187.8,22.5c0,3,1.9,5.4,5.1,5.4c3,0,5.1-2.3,5.1-5.4s-2-5.4-5.1-5.4C189.7,17.1,187.8,19.5,187.8,22.5z"/>
		<path class="st1" d="M217.7,14.1l-0.9,3.7c-0.8-0.4-1.9-0.6-2.8-0.6c-2.3,0-4,1.7-4,4.5v9.3h-3.7V14h3.6v1.9
			c1.1-1.6,2.8-2.3,4.9-2.3C216,13.6,216.8,13.7,217.7,14.1z"/>
		<path class="st1" d="M235,22.5c0,0.5,0,1-0.1,1.4h-12.4c0.5,3,2.6,4.3,5,4.3c1.7,0,3.5-0.7,4.8-1.8l1.8,2.6
			c-2,1.8-4.4,2.4-6.9,2.4c-5,0-8.6-3.5-8.6-8.9c0-5.3,3.4-8.9,8.3-8.9C231.8,13.6,235,17.2,235,22.5z M222.6,21h8.7
			c-0.4-2.6-1.9-4.2-4.3-4.2C224.4,16.9,223,18.6,222.6,21z"/>
		<path class="st1" d="M269.7,10.9l-3.3,2.2c-1.5-2.2-3.9-3.6-6.8-3.6c-5,0-8.7,3.7-8.7,9c0,5.3,3.7,9,8.7,9c2.9,0,5.3-1.3,6.8-3.5
			l3.2,2.4c-2.1,3.1-5.8,5-10,5c-7.5,0-12.8-5.4-12.8-12.8c0-7.4,5.3-12.8,12.8-12.8C263.9,5.8,267.8,7.7,269.7,10.9z"/>
		<path class="st1" d="M285,14.1l-0.9,3.7c-0.8-0.4-1.9-0.6-2.8-0.6c-2.3,0-4,1.7-4,4.5v9.3h-3.7V14h3.6v1.9
			c1.1-1.6,2.8-2.3,4.9-2.3C283.3,13.6,284.2,13.7,285,14.1z"/>
		<path class="st1" d="M302.4,22.5c0,0.5,0,1-0.1,1.4H290c0.5,3,2.6,4.3,5,4.3c1.7,0,3.5-0.7,4.8-1.8l1.8,2.6
			c-2,1.8-4.4,2.4-6.9,2.4c-5,0-8.6-3.5-8.6-8.9c0-5.3,3.4-8.9,8.3-8.9C299.2,13.6,302.4,17.2,302.4,22.5z M290,21h8.7
			c-0.4-2.6-1.9-4.2-4.3-4.2C291.8,16.9,290.4,18.6,290,21z"/>
		<path class="st1" d="M322.4,30.9h-3.7v-2c-1.2,1.5-2.9,2.5-5.3,2.5c-4.7,0-8.4-3.7-8.4-8.9s3.7-8.9,8.4-8.9c2.4,0,4.1,1,5.3,2.5
			v-2h3.7V30.9z M308.8,22.5c0,3,1.9,5.4,5.1,5.4c3,0,5.1-2.3,5.1-5.4s-2-5.4-5.1-5.4C310.7,17.1,308.8,19.5,308.8,22.5z"/>
		<path class="st1" d="M354.9,20.3v10.6h-3.7v-9.4c0-2.8-1.5-4.4-3.9-4.4c-2.4,0-4.3,1.6-4.3,4.5v9.4h-3.7v-9.4
			c0-2.8-1.5-4.4-3.9-4.4c-2.4,0-4.3,1.6-4.3,4.5v9.4h-3.7V14h3.6v2.1c1.3-2,3.4-2.5,5.1-2.5c2.6,0,4.6,1.1,5.8,3c1.5-2.4,4-3,6.1-3
			C352.1,13.6,354.9,16.3,354.9,20.3z"/>
		<path class="st1" d="M386.5,30.9H369V6.2h4v20.9h13.6V30.9z"/>
		<path class="st1" d="M393.7,8.2c0,1.5-1.1,2.6-2.6,2.6c-1.5,0-2.6-1.1-2.6-2.6s1.1-2.6,2.6-2.6C392.6,5.6,393.7,6.7,393.7,8.2z
			 M393,30.9h-3.7V14h3.7V30.9z"/>
		<path class="st1" d="M415.3,22.5c0,5.2-3.7,8.9-8.4,8.9c-2.4,0-4.1-1-5.2-2.5V38H398V14h3.7v2c1.2-1.5,2.9-2.5,5.2-2.5
			C411.6,13.6,415.3,17.3,415.3,22.5z M401.5,22.5c0,3.1,2,5.4,5.1,5.4c3.2,0,5.1-2.5,5.1-5.4s-1.9-5.4-5.1-5.4
			C403.5,17.1,401.5,19.4,401.5,22.5z"/>
		<path class="st1" d="M436,22.5c0,5.1-3.9,8.9-9,8.9s-9-3.8-9-8.9s3.8-8.9,9-8.9S436,17.4,436,22.5z M421.7,22.5
			c0,3.2,2.3,5.4,5.2,5.4c3,0,5.3-2.2,5.3-5.4s-2.3-5.4-5.3-5.4C424,17.1,421.7,19.3,421.7,22.5z"/>
	</g>
</g>
</svg>
