<?xml version="1.0" encoding="utf-8"?>
<!-- Generator: Adobe Illustrator 21.0.2, SVG Export Plug-In . SVG Version: 6.00 Build 0)  -->
<svg version="1.0" id="레이어_2" xmlns="http://www.w3.org/2000/svg" xmlns:xlink="http://www.w3.org/1999/xlink" x="0px"
	 y="0px" viewBox="0 0 720 76" style="enable-background:new 0 0 720 76;" xml:space="preserve">
<style type="text/css">
	.st0{fill:#911E5E;}
	.st1{fill:#5C6770;}
	.st2{fill:#727373;}
	.st3{fill:#57B14C;}
</style>
<g>
	<g>
		<g>
			<g>
				<path class="st0" d="M38.2,18.8L38.2,18.8c2.2,0,4.2,1.1,5.4,2.9l15.7,23.7c0.4,0.6,1.3,0.3,1.3-0.4V19.5h3.4v38.3
					c0,1.6-1.3,2.9-2.9,2.9h0c-1,0-1.9-0.5-2.5-1.3L37.2,26.6c-0.6-0.9-2-0.5-2,0.6V60h-3.4V25.2C31.8,21.7,34.7,18.8,38.2,18.8z"/>
			</g>
		</g>
		<path class="st0" d="M72.5,33.1h12.7V35H74.7c-0.9,0-1.6,0.7-1.6,1.6v8.5h9.9V47h-9.9v9.5c0,0.9,0.7,1.6,1.6,1.6h11.4V60H72.5
			c-2.4,0-4.4-2-4.4-4.4v-18C68.1,35.1,70.1,33.1,72.5,33.1z"/>
		<path class="st0" d="M197.1,33.1h12.7V35h-10.5c-0.9,0-1.6,0.7-1.6,1.6v8.5h9.9V47h-9.9v9.5c0,0.9,0.7,1.6,1.6,1.6h11.4V60h-13.7
			c-2.4,0-4.4-2-4.4-4.4v-18C192.7,35.1,194.7,33.1,197.1,33.1z"/>
		<path class="st0" d="M108.9,50.9c0,3.6-0.4,5.1-1.9,6.8c-1.6,1.9-4.2,2.9-7.5,2.9c-3.8,0-6.7-1.2-8.5-3.6
			c-1.2-1.6-1.7-3.3-1.7-6.1V33.1h5v17.8c0,2,0.3,3.3,1,4.5c1,1.6,3,2.6,5.2,2.6c2.2,0,4.2-0.9,5.2-2.5c0.8-1.2,0.9-2.1,0.9-4.5
			V33.1h2.3V50.9z"/>
		<path class="st0" d="M113.4,33.1h9.9c2.9,0,4.8,0.4,6.6,1.5c2.1,1.2,3.4,3.5,3.4,6c0,3.9-2.7,6.4-7.4,6.8l7.4,12.5h-5.7l-6.7-12.1
			c-0.5-0.9,0-1.4,0.3-1.4c2.1,0,4.1-0.7,5.4-1.8c1-0.9,1.6-2.3,1.6-3.9c0-2.7-1.4-4.9-3.7-5.6c-0.9-0.3-2.3-0.4-4.1-0.4
			c-0.7,0-1,0-1.8,0.1V60h-5V33.1z"/>
		<path class="st0" d="M214.9,33.1h9.9c2.9,0,4.8,0.4,6.6,1.5c2.1,1.2,3.4,3.5,3.4,6c0,3.9-2.7,6.4-7.4,6.8l7.4,12.5H229l-6.7-12.1
			c-0.5-0.9,0-1.4,0.3-1.4c2.1,0,4.1-0.7,5.4-1.8c1-0.9,1.6-2.3,1.6-3.9c0-2.7-1.4-4.9-3.7-5.6c-0.9-0.3-2.3-0.4-4.1-0.4
			c-0.7,0-1,0-1.8,0.1V60h-5V33.1z"/>
		<path class="st0" d="M139.8,36.2c2.5-2.5,5.9-3.8,9.5-3.8c7.9,0,13.8,6.1,13.8,14.2c0,8-5.9,14-13.8,14c-8.1,0-13.9-5.9-13.9-14
			C135.4,42.9,137.1,38.8,139.8,36.2z M155.1,55.9c1.6-2.2,2.4-5.2,2.4-9.4c0-7.6-3.1-12.1-8.2-12.1c-5.1,0-8.3,4.7-8.3,12.3
			c0,7.6,3.2,12.1,8.3,12.1C151.6,58.7,153.8,57.7,155.1,55.9z"/>
		<path class="st0" d="M166.3,33.1h8.6c4.6,0,8,1.1,10.7,3.6c3.1,2.8,4.8,6.6,4.8,10.6c0,4.3-2,8.1-5.3,10.4
			c-2.3,1.6-4.8,2.3-8.3,2.3h-10.5V33.1z M174.5,58.2c3.2,0,5.5-0.6,7.2-2.1c2.1-1.8,3.4-5.2,3.4-9.1c0-4.8-1.8-8.8-4.8-10.7
			c-1.6-1.1-3.4-1.5-6.4-1.5c-0.8,0-1.3,0-2.6,0.1v23.2C172.8,58.2,173.6,58.2,174.5,58.2z"/>
		<path class="st0" d="M241.7,32.4L241.7,32.4c1.5,0,2.9,0.9,3.4,2.4l5.5,14.7l4.7-14.1c0.6-1.8,2.3-3,4.2-3h0c2.4,0,4.4,2,4.4,4.4
			V60h-4.9V37.3c0-0.5-0.6-0.6-0.8-0.1l-7.3,22.3c-0.5,1.3-2.4,1.3-2.9,0l-7.2-22.2c-0.1-0.3-0.6-0.2-0.6,0.1V60h-2.2V36
			C238.1,34,239.7,32.4,241.7,32.4z"/>
		<g>
			<path class="st0" d="M245.4,22.7c0.3-0.7,0.7-1.2,1.2-1.7c0.5-0.5,1.1-0.9,1.8-1.1c0.7-0.3,1.4-0.4,2.1-0.4
				c0.7,0,1.5,0.1,2.1,0.4c0.7,0.3,1.2,0.7,1.7,1.1c0.5,0.5,0.9,1.1,1.2,1.7s0.4,1.4,0.4,2.1c0,0.8-0.1,1.5-0.4,2.2
				s-0.7,1.2-1.2,1.7c-0.5,0.5-1.1,0.9-1.7,1.1c-0.7,0.3-1.4,0.4-2.1,0.4c-0.8,0-1.5-0.1-2.1-0.4c-0.7-0.3-1.3-0.7-1.8-1.1
				c-0.5-0.5-0.9-1.1-1.2-1.7s-0.4-1.4-0.4-2.2C244.9,24.1,245.1,23.4,245.4,22.7z M246.3,26.7c0.2,0.6,0.5,1.1,1,1.5
				c0.4,0.4,0.9,0.7,1.4,1c0.6,0.2,1.1,0.4,1.8,0.4c0.6,0,1.2-0.1,1.8-0.4c0.5-0.2,1-0.6,1.4-1c0.4-0.4,0.7-0.9,1-1.5
				c0.2-0.6,0.3-1.2,0.3-1.9c0-0.7-0.1-1.3-0.3-1.8c-0.2-0.6-0.5-1.1-1-1.5c-0.4-0.4-0.9-0.7-1.4-1c-0.5-0.2-1.1-0.4-1.8-0.4
				c-0.6,0-1.2,0.1-1.8,0.4c-0.5,0.2-1,0.6-1.4,1c-0.4,0.4-0.7,0.9-1,1.5c-0.2,0.6-0.3,1.2-0.3,1.8
				C245.9,25.5,246.1,26.2,246.3,26.7z M250.8,21.7c0.8,0,1.3,0.2,1.7,0.5c0.4,0.3,0.5,0.8,0.5,1.4c0,0.6-0.2,1-0.5,1.3
				c-0.3,0.3-0.7,0.4-1.2,0.5l1.8,2.8h-1.1l-1.7-2.7h-1.1v2.7h-1v-6.4H250.8z M250.4,24.5c0.2,0,0.4,0,0.6,0c0.2,0,0.4-0.1,0.5-0.1
				c0.2-0.1,0.3-0.2,0.4-0.3c0.1-0.1,0.1-0.3,0.1-0.6c0-0.2,0-0.4-0.1-0.5c-0.1-0.1-0.2-0.2-0.3-0.3c-0.1-0.1-0.3-0.1-0.5-0.1
				c-0.2,0-0.3,0-0.5,0h-1.3v2H250.4z"/>
		</g>
	</g>
	<g>
		<path class="st1" d="M312.9,47c0,8.2-6.2,14.3-14.2,14.3c-5.3,0-9.6-2.8-11.9-6.8V61h-2.1V17.8h2.1v21.7c2.3-4.1,6.6-6.9,11.9-6.9
			C306.8,32.7,312.9,38.8,312.9,47z M286.7,47c0,7,5.1,12.3,12.1,12.3c7,0,12.1-5.4,12.1-12.3c0-7-5.1-12.4-12.1-12.4
			C291.8,34.7,286.7,40,286.7,47z"/>
		<path class="st1" d="M318,73.1h-2.3l11.1-18.5L313.2,33h2.4l12.3,19.4L339.4,33h2.3L318,73.1z"/>
	</g>
	<g>
		<path class="st2" d="M401.1,18.8h7.6v41.3h-7.6V18.8z"/>
		<path class="st2" d="M416.7,31.9L416.7,31.9c1.3,0,2.6,0.7,3.3,1.7l10.6,15.5c0.5,0.7,1.7,0.4,1.7-0.5V32.5h2.3v27.1
			c0,0.6-0.5,1.1-1.1,1.1l0,0c-0.4,0-0.7-0.2-0.9-0.5L417,38.8c-0.6-0.9-2-0.4-2,0.6v20.6h-2.3V35.9
			C412.7,33.7,414.5,31.9,416.7,31.9z"/>
		<path class="st2" d="M442.7,32.5h12.5v1.9h-9.8c-1,0-1.8,0.8-1.8,1.8v8.9h10.5v1.9h-10.5v13h-5.3V37
			C438.2,34.5,440.2,32.5,442.7,32.5z"/>
		<path class="st2" d="M462.8,32.5h12.9v1.9h-10.2c-1,0-1.8,0.8-1.8,1.8v8.6h9.7v1.9h-9.7v9.6c0,1,0.8,1.8,1.8,1.8h10.5v1.9h-13.2
			c-2.4,0-4.4-2-4.4-4.4V37C458.4,34.5,460.3,32.5,462.8,32.5z"/>
		<path class="st2" d="M500.9,53.7c-2.3,4.5-6.3,7.1-11,7.1c-7.4,0-13.1-6.2-13.1-14.3c0-4.4,1.6-8.3,4.6-11
			c2.4-2.2,5.8-3.6,8.9-3.6c4.2,0,7.7,2,10.1,5.8l-1.6,1c-1.9-3.2-4.6-4.9-7.7-4.9c-2.7,0-5.3,1.4-7,3.7c-1.6,2.2-2.4,5.4-2.4,9
			c0,7.4,3.6,12.3,9.1,12.3c3.7,0,6.7-2.2,8.6-6.1L500.9,53.7z"/>
		<path class="st2" d="M506.9,34.5h-6v-1.9h17.4v1.9h-6.1v25.6h-5.3V34.5z"/>
		<path class="st2" d="M521.9,35.7c2.6-2.5,6.1-3.9,9.7-3.9c8.1,0,14.2,6.3,14.2,14.6c0,8.2-6.1,14.3-14.2,14.3
			c-8.3,0-14.3-6.1-14.3-14.4C517.3,42.5,519,38.4,521.9,35.7z M537.5,55.9c1.7-2.3,2.5-5.4,2.5-9.7c0-7.8-3.2-12.5-8.4-12.5
			c-5.3,0-8.6,4.8-8.6,12.6c0,7.8,3.2,12.5,8.6,12.5C534,58.8,536.2,57.7,537.5,55.9z"/>
		<path class="st2" d="M549.5,18.5h15.7c8.2,0,14.2,5.3,14.2,12.5c0,4.3-2.3,8.3-5.7,10c-2.7,1.4-5.7,1.9-11.2,1.9h-5.4v17.2h-7.6
			V18.5z M560.8,40.5c6.8,0,10.7-3.7,10.7-10c0-6.4-3.5-9.8-10.2-9.8h-4.2v19.8H560.8z"/>
		<path class="st2" d="M582.4,32.5h5.3v11.3h12.2V32.5h5.3v27.5h-5.3V45.8h-12.2v14.2h-5.3V32.5z"/>
		<path class="st2" d="M624.1,35.6l7.4,24.4H626l-2.4-7.5h-11.1l-2.5,7.5h-2.6l8.1-24.5C616.9,31.3,622.9,31.4,624.1,35.6z
			 M623,50.3l-3.5-12.1c-0.3-1-1.8-1.1-2.1,0l-4,12.1H623z"/>
		<path class="st2" d="M634.8,32.5h10.8c3.2,0,5.2,0.5,7.2,1.6c2.2,1.3,3.7,3.6,3.7,6.2c0,4-2.9,6.6-8.1,6.9l8.1,12.8h-6.2
			l-6.9-11.6c-0.7-1.3-0.5-2.3-0.2-2.3c2.3,0,4.5-0.7,5.8-1.9c1.1-0.9,1.7-2.3,1.7-4c0-2.8-1.5-5-4-5.7c-1-0.3-2.5-0.4-4.5-0.4
			c-0.8,0-1.1,0-2,0.1v25.8h-5.5V32.5z"/>
		<path class="st2" d="M665,32.5L665,32.5c1.8,0,3.5,1.1,4.1,2.8l4.3,12.6c0.3,1,1.7,1,2,0l4.7-12.8c0.6-1.6,2.1-2.7,3.9-2.7l0,0
			c2.3,0,4.1,1.8,4.1,4.1v23.5h-5.2V38.5c0-0.8-1.1-1-1.4-0.2L674.3,60c-0.3,1-1.8,1-2.1,0l-7.6-21.8c-0.3-0.9-1.7-0.7-1.7,0.3v21.5
			h-2.3V37C660.6,34.5,662.6,32.5,665,32.5z"/>
		<path class="st3" d="M383.3,53.4c0-4.1,0-33.5,0-33.5s-1.9,3.2-5.3,6.2c2-2.2,3.3-5.2,3.3-8.5c0-7-5.7-12.7-12.7-12.7
			s-12.7,5.7-12.7,12.7c0,7,5.7,12.7,12.7,12.7c1.7,0,3.2-0.3,4.7-0.9c-2.1,1.1-4.6,1.8-7.2,1.8h-11.2c0,0,2.8,0.8,2.8,3.4
			c0,5.5,0,16,0,19c0,4.4-3.4,6.3-3.4,6.3h32.2C386.5,60.1,383.3,57.9,383.3,53.4z"/>
	</g>
</g>
</svg>
