<?xml version="1.0" encoding="utf-8"?>
<!-- Generator: Adobe Illustrator 21.0.2, SVG Export Plug-In . SVG Version: 6.00 Build 0)  -->
<svg version="1.0" id="레이어_1" xmlns="http://www.w3.org/2000/svg" xmlns:xlink="http://www.w3.org/1999/xlink" x="0px"
	 y="0px" viewBox="0 0 720 76" style="enable-background:new 0 0 720 76;" xml:space="preserve">
<style type="text/css">
	.st0{fill:#911E5E;}
	.st1{fill:#5C6770;}
	.st2{fill:#F9ACAD;}
</style>
<g>
	<g>
		<g>
			<g>
				<path class="st0" d="M47,18.8L47,18.8c2.2,0,4.2,1.1,5.4,2.9l15.7,23.7c0.4,0.6,1.3,0.3,1.3-0.4V19.5h3.4v38.3
					c0,1.6-1.3,2.9-2.9,2.9l0,0c-1,0-1.9-0.5-2.5-1.3L46,26.6c-0.6-0.9-2-0.5-2,0.6V60h-3.4V25.2C40.6,21.7,43.5,18.8,47,18.8z"/>
			</g>
		</g>
		<path class="st0" d="M81.3,33.1H94V35H83.5c-0.9,0-1.6,0.7-1.6,1.6v8.5h9.9V47h-9.9v9.5c0,0.9,0.7,1.6,1.6,1.6H95V60H81.3
			c-2.4,0-4.4-2-4.4-4.4v-18C76.9,35.1,78.9,33.1,81.3,33.1z"/>
		<path class="st0" d="M205.9,33.1h12.7V35h-10.5c-0.9,0-1.6,0.7-1.6,1.6v8.5h9.9V47h-9.9v9.5c0,0.9,0.7,1.6,1.6,1.6h11.4V60h-13.7
			c-2.4,0-4.4-2-4.4-4.4v-18C201.5,35.1,203.5,33.1,205.9,33.1z"/>
		<path class="st0" d="M117.7,50.9c0,3.6-0.4,5.1-1.9,6.8c-1.6,1.9-4.2,2.9-7.5,2.9c-3.8,0-6.7-1.2-8.5-3.6
			c-1.2-1.6-1.7-3.3-1.7-6.1V33.1h5v17.8c0,2,0.3,3.3,1,4.5c1,1.6,3,2.6,5.2,2.6c2.2,0,4.2-0.9,5.2-2.5c0.8-1.2,0.9-2.1,0.9-4.5
			V33.1h2.3V50.9z"/>
		<path class="st0" d="M122.2,33.1h9.9c2.9,0,4.8,0.4,6.6,1.5c2.1,1.2,3.4,3.5,3.4,6c0,3.9-2.7,6.4-7.4,6.8L142,60h-5.7l-6.7-12.1
			c-0.5-0.9,0-1.4,0.3-1.4c2.1,0,4.1-0.7,5.4-1.8c1-0.9,1.6-2.3,1.6-3.9c0-2.7-1.4-4.9-3.7-5.6c-0.9-0.3-2.3-0.4-4.1-0.4
			c-0.7,0-1,0-1.8,0.1V60h-5V33.1z"/>
		<path class="st0" d="M223.7,33.1h9.9c2.9,0,4.8,0.4,6.6,1.5c2.1,1.2,3.4,3.5,3.4,6c0,3.9-2.7,6.4-7.4,6.8l7.4,12.5h-5.7l-6.7-12.1
			c-0.5-0.9,0-1.4,0.3-1.4c2.1,0,4.1-0.7,5.4-1.8c1-0.9,1.6-2.3,1.6-3.9c0-2.7-1.4-4.9-3.7-5.6c-0.9-0.3-2.3-0.4-4.1-0.4
			c-0.7,0-1,0-1.8,0.1V60h-5V33.1z"/>
		<path class="st0" d="M148.6,36.2c2.5-2.5,5.9-3.8,9.5-3.8c7.9,0,13.8,6.1,13.8,14.2c0,8-5.9,14-13.8,14c-8.1,0-13.9-5.9-13.9-14
			C144.1,42.9,145.9,38.8,148.6,36.2z M163.9,55.9c1.6-2.2,2.4-5.2,2.4-9.4c0-7.6-3.1-12.1-8.2-12.1c-5.1,0-8.3,4.7-8.3,12.3
			c0,7.6,3.2,12.1,8.3,12.1C160.4,58.7,162.6,57.7,163.9,55.9z"/>
		<path class="st0" d="M175,33.1h8.6c4.6,0,8,1.1,10.7,3.6c3.1,2.8,4.8,6.6,4.8,10.6c0,4.3-2,8.1-5.3,10.4c-2.3,1.6-4.8,2.3-8.3,2.3
			H175V33.1z M183.2,58.2c3.2,0,5.5-0.6,7.2-2.1c2.1-1.8,3.4-5.2,3.4-9.1c0-4.8-1.8-8.8-4.8-10.7c-1.6-1.1-3.4-1.5-6.4-1.5
			c-0.8,0-1.3,0-2.6,0.1v23.2C181.6,58.2,182.4,58.2,183.2,58.2z"/>
		<path class="st0" d="M250.5,32.4L250.5,32.4c1.5,0,2.9,0.9,3.4,2.4l5.5,14.7l4.7-14.1c0.6-1.8,2.3-3,4.2-3l0,0
			c2.4,0,4.4,2,4.4,4.4V60h-4.9V37.3c0-0.5-0.6-0.6-0.8-0.1l-7.3,22.3c-0.5,1.3-2.4,1.3-2.9,0l-7.2-22.2c-0.1-0.3-0.6-0.2-0.6,0.1
			V60h-2.2V36C246.8,34,248.5,32.4,250.5,32.4z"/>
		<g>
			<path class="st0" d="M254.2,22.7c0.3-0.7,0.7-1.2,1.2-1.7s1.1-0.9,1.8-1.1c0.7-0.3,1.4-0.4,2.1-0.4c0.7,0,1.5,0.1,2.1,0.4
				c0.7,0.3,1.2,0.7,1.7,1.1c0.5,0.5,0.9,1.1,1.2,1.7c0.3,0.7,0.4,1.4,0.4,2.1c0,0.8-0.1,1.5-0.4,2.2c-0.3,0.7-0.7,1.2-1.2,1.7
				c-0.5,0.5-1.1,0.9-1.7,1.1c-0.7,0.3-1.4,0.4-2.1,0.4c-0.8,0-1.5-0.1-2.1-0.4c-0.7-0.3-1.3-0.7-1.8-1.1c-0.5-0.5-0.9-1.1-1.2-1.7
				s-0.4-1.4-0.4-2.2C253.7,24.1,253.9,23.4,254.2,22.7z M255.1,26.7c0.2,0.6,0.5,1.1,1,1.5c0.4,0.4,0.9,0.7,1.4,1
				c0.6,0.2,1.1,0.4,1.8,0.4c0.6,0,1.2-0.1,1.8-0.4c0.5-0.2,1-0.6,1.4-1c0.4-0.4,0.7-0.9,1-1.5c0.2-0.6,0.3-1.2,0.3-1.9
				c0-0.7-0.1-1.3-0.3-1.8c-0.2-0.6-0.5-1.1-1-1.5c-0.4-0.4-0.9-0.7-1.4-1c-0.5-0.2-1.1-0.4-1.8-0.4c-0.6,0-1.2,0.1-1.8,0.4
				c-0.5,0.2-1,0.6-1.4,1c-0.4,0.4-0.7,0.9-1,1.5c-0.2,0.6-0.3,1.2-0.3,1.8C254.7,25.5,254.8,26.2,255.1,26.7z M259.6,21.7
				c0.8,0,1.3,0.2,1.7,0.5c0.4,0.3,0.5,0.8,0.5,1.4c0,0.6-0.2,1-0.5,1.3c-0.3,0.3-0.7,0.4-1.2,0.5l1.8,2.8h-1.1l-1.7-2.7h-1.1v2.7
				h-1v-6.4H259.6z M259.1,24.5c0.2,0,0.4,0,0.6,0c0.2,0,0.4-0.1,0.5-0.1c0.2-0.1,0.3-0.2,0.4-0.3c0.1-0.1,0.1-0.3,0.1-0.6
				c0-0.2,0-0.4-0.1-0.5c-0.1-0.1-0.2-0.2-0.3-0.3c-0.1-0.1-0.3-0.1-0.5-0.1c-0.2,0-0.3,0-0.5,0h-1.3v2H259.1z"/>
		</g>
	</g>
	<g>
		<path class="st1" d="M312.3,34.9h-13.2V61H297V34.9h-7.5V33h7.5v-4.9c0-6.4,2.5-10.7,9.2-10.7c3,0,5.6,0.9,7.4,2.1l-0.8,1.7
			c-1.6-1-4-1.9-6.5-1.9c-5.3,0-7.2,3.3-7.2,8.7V33h13.2V34.9z"/>
		<path class="st1" d="M332.6,33.9l-0.6,1.9c-1.4-0.8-3.2-1.2-5-1.2c-5.4,0-8.7,4.6-8.7,10.3V61h-2.1V33h2.1v4.9
			c1.7-3.1,4.7-5.2,8.9-5.2C329.1,32.7,331.1,33.1,332.6,33.9z"/>
		<path class="st1" d="M362,47c0,8.2-6.2,14.3-14.3,14.3c-8.1,0-14.2-6.2-14.2-14.3c0-8.2,6.2-14.3,14.2-14.3
			C355.9,32.7,362,38.8,362,47z M335.6,47c0,7.1,5.2,12.3,12.1,12.3c6.9,0,12.2-5.2,12.2-12.3c0-7.1-5.3-12.4-12.2-12.4
			C340.8,34.7,335.6,39.9,335.6,47z"/>
		<path class="st1" d="M415.5,44.6V61h-2.1V44.6c0-5.9-3.6-9.9-10.3-9.9c-6.1,0-10.3,4.4-10.3,10.1V61h-2.1V44.6
			c0-5.9-3.6-9.9-10.3-9.9c-6.1,0-10.3,4.4-10.3,10.1V61h-2.1V33h2.1v5.4c2-3.4,5.6-5.7,10.5-5.7c5.6,0,9.6,2.6,11.3,6.9
			c1.9-4.1,5.9-6.9,11.2-6.9C410.8,32.7,415.5,37.3,415.5,44.6z"/>
		<path class="st2" d="M472.1,26l-1.7,1.6c-3.4-4.2-8.7-6.8-14.6-6.8c-10.6,0-19,7.7-19,19.2s8.4,19.2,18.9,19.2s17.3-7,17.6-17.9
			h-15.7v-2.1h18.1v0.7c0,12.5-7.8,21.4-20,21.4c-11.4,0-21.2-8.3-21.2-21.3c0-12.7,9.4-21.3,21.3-21.3
			C462.4,18.7,468.2,21.5,472.1,26z"/>
		<path class="st2" d="M507.2,46.8c0,0.3,0,0.6,0,0.9h-24.7c0.3,7.1,5.3,11.6,11.9,11.6c4.4,0,7.6-1.8,10.1-4.5l1.3,1.4
			c-3.6,4-7.6,5-11.5,5c-8.1,0-13.9-5.9-13.9-14.3c0-8.3,6.1-14.3,13.8-14.3C501.4,32.7,507,38.6,507.2,46.8z M482.4,45.8H505
			c-0.4-6.5-5-11.2-10.9-11.2C487.7,34.7,483,39.4,482.4,45.8z"/>
		<path class="st2" d="M529.6,33.9l-0.6,1.9c-1.4-0.8-3.2-1.2-5-1.2c-5.4,0-8.7,4.6-8.7,10.3V61h-2.1V33h2.1v4.9
			c1.7-3.1,4.7-5.2,8.9-5.2C526.2,32.7,528.1,33.1,529.6,33.9z"/>
		<path class="st2" d="M581.4,44.6V61h-2.1V44.6c0-5.9-3.6-9.9-10.3-9.9c-6.1,0-10.3,4.4-10.3,10.1V61h-2.1V44.6
			c0-5.9-3.6-9.9-10.3-9.9c-6.1,0-10.3,4.4-10.3,10.1V61H534V33h2.1v5.4c2-3.4,5.6-5.7,10.5-5.7c5.6,0,9.6,2.6,11.3,6.9
			c1.9-4.1,5.9-6.9,11.2-6.9C576.7,32.7,581.4,37.3,581.4,44.6z"/>
		<path class="st2" d="M615.3,61h-2.1v-6.5c-2.3,4.1-6.6,6.9-11.9,6.9c-8,0-14.2-6.1-14.2-14.3s6.2-14.3,14.2-14.3
			c5.3,0,9.6,2.8,11.9,6.9V33h2.1V61z M589.3,47c0,7,5.1,12.3,12.1,12.3c6.9,0,12.1-5.3,12.1-12.3c0-7-5.1-12.4-12.1-12.4
			C594.3,34.7,589.3,40,589.3,47z"/>
		<path class="st2" d="M648.5,44.6V61h-2.1V44.6c0-5.9-3.6-9.9-10.3-9.9c-6.1,0-10.3,4.4-10.3,10.1V61h-2.1V33h2.1v5.4
			c2-3.4,5.6-5.7,10.5-5.7C643.8,32.7,648.5,37.3,648.5,44.6z"/>
		<path class="st2" d="M655.7,73.1h-2.3l11.1-18.5L650.9,33h2.4l12.3,19.4L677.1,33h2.3L655.7,73.1z"/>
	</g>
</g>
</svg>
