<?xml version="1.0" encoding="utf-8"?>
<!-- Generator: Adobe Illustrator 21.0.2, SVG Export Plug-In . SVG Version: 6.00 Build 0)  -->
<svg version="1.0" id="레이어_1_사본" xmlns="http://www.w3.org/2000/svg" xmlns:xlink="http://www.w3.org/1999/xlink" x="0px"
	 y="0px" viewBox="0 0 720 76" style="enable-background:new 0 0 720 76;" xml:space="preserve">
<style type="text/css">
	.st0{fill:#911E5E;}
	.st1{fill:#5C6770;}
	.st2{fill:#F9ACAD;}
</style>
<g>
	<g>
		<g>
			<g>
				<path class="st0" d="M52.6,18.8L52.6,18.8c2.2,0,4.2,1.1,5.4,2.9l15.7,23.7c0.4,0.6,1.3,0.3,1.3-0.4V19.5h3.4v38.3
					c0,1.6-1.3,2.9-2.9,2.9l0,0c-1,0-1.9-0.5-2.5-1.3L51.6,26.6c-0.6-0.9-2-0.5-2,0.6V60h-3.4V25.2C46.2,21.7,49.1,18.8,52.6,18.8z"
					/>
			</g>
		</g>
		<path class="st0" d="M86.9,33.1h12.7V35H89.1c-0.9,0-1.6,0.7-1.6,1.6v8.5h9.9V47h-9.9v9.5c0,0.9,0.7,1.6,1.6,1.6h11.4V60H86.9
			c-2.4,0-4.4-2-4.4-4.4v-18C82.5,35.1,84.5,33.1,86.9,33.1z"/>
		<path class="st0" d="M211.5,33.1h12.7V35h-10.5c-0.9,0-1.6,0.7-1.6,1.6v8.5h9.9V47h-9.9v9.5c0,0.9,0.7,1.6,1.6,1.6h11.4V60h-13.7
			c-2.4,0-4.4-2-4.4-4.4v-18C207.1,35.1,209.1,33.1,211.5,33.1z"/>
		<path class="st0" d="M123.3,50.9c0,3.6-0.4,5.1-1.9,6.8c-1.6,1.9-4.2,2.9-7.5,2.9c-3.8,0-6.7-1.2-8.5-3.6
			c-1.2-1.6-1.7-3.3-1.7-6.1V33.1h5v17.8c0,2,0.3,3.3,1,4.5c1,1.6,3,2.6,5.2,2.6c2.2,0,4.2-0.9,5.2-2.5c0.8-1.2,0.9-2.1,0.9-4.5
			V33.1h2.3V50.9z"/>
		<path class="st0" d="M127.8,33.1h9.9c2.9,0,4.8,0.4,6.6,1.5c2.1,1.2,3.4,3.5,3.4,6c0,3.9-2.7,6.4-7.4,6.8l7.4,12.5h-5.7l-6.7-12.1
			c-0.5-0.9,0-1.4,0.3-1.4c2.1,0,4.1-0.7,5.4-1.8c1-0.9,1.6-2.3,1.6-3.9c0-2.7-1.4-4.9-3.7-5.6c-0.9-0.3-2.3-0.4-4.1-0.4
			c-0.7,0-1,0-1.8,0.1V60h-5V33.1z"/>
		<path class="st0" d="M229.3,33.1h9.9c2.9,0,4.8,0.4,6.6,1.5c2.1,1.2,3.4,3.5,3.4,6c0,3.9-2.7,6.4-7.4,6.8l7.4,12.5h-5.7l-6.7-12.1
			c-0.5-0.9,0-1.4,0.3-1.4c2.1,0,4.1-0.7,5.4-1.8c1-0.9,1.6-2.3,1.6-3.9c0-2.7-1.4-4.9-3.7-5.6c-0.9-0.3-2.3-0.4-4.1-0.4
			c-0.7,0-1,0-1.8,0.1V60h-5V33.1z"/>
		<path class="st0" d="M154.2,36.2c2.5-2.5,5.9-3.8,9.5-3.8c7.9,0,13.8,6.1,13.8,14.2c0,8-5.9,14-13.8,14c-8.1,0-13.9-5.9-13.9-14
			C149.8,42.9,151.5,38.8,154.2,36.2z M169.5,55.9c1.6-2.2,2.4-5.2,2.4-9.4c0-7.6-3.1-12.1-8.2-12.1c-5.1,0-8.3,4.7-8.3,12.3
			c0,7.6,3.2,12.1,8.3,12.1C166,58.7,168.2,57.7,169.5,55.9z"/>
		<path class="st0" d="M180.7,33.1h8.6c4.6,0,8,1.1,10.7,3.6c3.1,2.8,4.8,6.6,4.8,10.6c0,4.3-2,8.1-5.3,10.4
			c-2.3,1.6-4.8,2.3-8.3,2.3h-10.5V33.1z M188.9,58.2c3.2,0,5.5-0.6,7.2-2.1c2.1-1.8,3.4-5.2,3.4-9.1c0-4.8-1.8-8.8-4.8-10.7
			c-1.6-1.1-3.4-1.5-6.4-1.5c-0.8,0-1.3,0-2.6,0.1v23.2C187.2,58.2,188,58.2,188.9,58.2z"/>
		<path class="st0" d="M256.1,32.4L256.1,32.4c1.5,0,2.9,0.9,3.4,2.4l5.5,14.7l4.7-14.1c0.6-1.8,2.3-3,4.2-3l0,0
			c2.4,0,4.4,2,4.4,4.4V60h-4.9V37.3c0-0.5-0.6-0.6-0.8-0.1l-7.3,22.3c-0.5,1.3-2.4,1.3-2.9,0l-7.2-22.2c-0.1-0.3-0.6-0.2-0.6,0.1
			V60h-2.2V36C252.5,34,254.1,32.4,256.1,32.4z"/>
		<g>
			<path class="st0" d="M259.8,22.7c0.3-0.7,0.7-1.2,1.2-1.7c0.5-0.5,1.1-0.9,1.8-1.1c0.7-0.3,1.4-0.4,2.1-0.4
				c0.7,0,1.5,0.1,2.1,0.4c0.7,0.3,1.2,0.7,1.7,1.1c0.5,0.5,0.9,1.1,1.2,1.7c0.3,0.7,0.4,1.4,0.4,2.1c0,0.8-0.1,1.5-0.4,2.2
				c-0.3,0.7-0.7,1.2-1.2,1.7c-0.5,0.5-1.1,0.9-1.7,1.1c-0.7,0.3-1.4,0.4-2.1,0.4c-0.8,0-1.5-0.1-2.1-0.4c-0.7-0.3-1.3-0.7-1.8-1.1
				c-0.5-0.5-0.9-1.1-1.2-1.7c-0.3-0.7-0.4-1.4-0.4-2.2C259.3,24.1,259.5,23.4,259.8,22.7z M260.7,26.7c0.2,0.6,0.5,1.1,1,1.5
				c0.4,0.4,0.9,0.7,1.4,1c0.6,0.2,1.1,0.4,1.8,0.4c0.6,0,1.2-0.1,1.8-0.4c0.5-0.2,1-0.6,1.4-1c0.4-0.4,0.7-0.9,1-1.5
				c0.2-0.6,0.3-1.2,0.3-1.9c0-0.7-0.1-1.3-0.3-1.8c-0.2-0.6-0.5-1.1-1-1.5c-0.4-0.4-0.9-0.7-1.4-1c-0.5-0.2-1.1-0.4-1.8-0.4
				c-0.6,0-1.2,0.1-1.8,0.4c-0.5,0.2-1,0.6-1.4,1c-0.4,0.4-0.7,0.9-1,1.5c-0.2,0.6-0.3,1.2-0.3,1.8
				C260.3,25.5,260.5,26.2,260.7,26.7z M265.2,21.7c0.8,0,1.3,0.2,1.7,0.5c0.4,0.3,0.5,0.8,0.5,1.4c0,0.6-0.2,1-0.5,1.3
				c-0.3,0.3-0.7,0.4-1.2,0.5l1.8,2.8h-1.1l-1.7-2.7h-1.1v2.7h-1v-6.4H265.2z M264.8,24.5c0.2,0,0.4,0,0.6,0c0.2,0,0.4-0.1,0.5-0.1
				c0.2-0.1,0.3-0.2,0.4-0.3c0.1-0.1,0.1-0.3,0.1-0.6c0-0.2,0-0.4-0.1-0.5c-0.1-0.1-0.2-0.2-0.3-0.3c-0.1-0.1-0.3-0.1-0.5-0.1
				c-0.2,0-0.3,0-0.5,0h-1.3v2H264.8z"/>
		</g>
	</g>
	<g>
		<path class="st1" d="M317.9,34.9h-13.2V61h-2.1V34.9h-7.5V33h7.5v-4.9c0-6.4,2.5-10.7,9.2-10.7c3,0,5.6,0.9,7.4,2.1l-0.8,1.7
			c-1.6-1-4-1.9-6.5-1.9c-5.3,0-7.2,3.3-7.2,8.7V33h13.2V34.9z"/>
		<path class="st1" d="M338.2,33.9l-0.6,1.9c-1.4-0.8-3.2-1.2-5-1.2c-5.4,0-8.7,4.6-8.7,10.3V61h-2.1V33h2.1v4.9
			c1.7-3.1,4.7-5.2,8.9-5.2C334.7,32.7,336.7,33.1,338.2,33.9z"/>
		<path class="st1" d="M367.7,47c0,8.2-6.2,14.3-14.3,14.3c-8.1,0-14.2-6.2-14.2-14.3c0-8.2,6.2-14.3,14.2-14.3
			C361.5,32.7,367.7,38.8,367.7,47z M341.2,47c0,7.1,5.2,12.3,12.1,12.3c6.9,0,12.2-5.2,12.2-12.3c0-7.1-5.3-12.4-12.2-12.4
			C346.4,34.7,341.2,39.9,341.2,47z"/>
		<path class="st1" d="M421.1,44.6V61H419V44.6c0-5.9-3.6-9.9-10.3-9.9c-6.1,0-10.3,4.4-10.3,10.1V61h-2.1V44.6
			c0-5.9-3.6-9.9-10.3-9.9c-6.1,0-10.3,4.4-10.3,10.1V61h-2.1V33h2.1v5.4c2-3.4,5.6-5.7,10.5-5.7c5.6,0,9.6,2.6,11.3,6.9
			c1.9-4.1,5.9-6.9,11.2-6.9C416.4,32.7,421.1,37.3,421.1,44.6z"/>
		<path class="st2" d="M458.2,19c9.1,0,14.3,4.2,14.3,11.5c0,7.2-5.4,11.5-14.3,11.5h-2.8l16.9,19h-2.8l-16.7-19H445v19h-2.2V19
			H458.2z M445,21.1v18.8h13.3c7.6,0,12-3.4,12-9.4c0-6-4.3-9.4-12-9.4H445z"/>
		<path class="st2" d="M502.6,46.8c0,0.3,0,0.6,0,0.9h-24.7c0.3,7.1,5.3,11.6,11.9,11.6c4.4,0,7.6-1.8,10.1-4.5l1.3,1.4
			c-3.6,4-7.6,5-11.5,5c-8.1,0-13.9-5.9-13.9-14.3c0-8.3,6.1-14.3,13.8-14.3C496.8,32.7,502.5,38.6,502.6,46.8z M477.9,45.8h22.5
			c-0.4-6.5-5-11.2-10.9-11.2C483.2,34.7,478.4,39.4,477.9,45.8z"/>
		<path class="st2" d="M527.2,37.6c-2-1.5-5.7-3-9.9-3c-4.9,0-8.5,2.1-8.5,5.8c0,2.8,2.1,4.7,7.2,5.2l3.9,0.4c5.7,0.6,9,2.9,9,7.2
			c0,5.3-4.9,8-11.8,8c-4.6,0-8.5-1.4-11.3-3.5l1-1.6c2.3,1.8,5.3,3.2,10.3,3.2c5.5,0,9.6-1.9,9.6-6c0-3.1-2.4-4.9-7.3-5.3l-4-0.4
			c-6.4-0.7-8.9-3.4-8.9-7.1c0-5,4.5-7.8,10.7-7.8c4.5,0,8.5,1.4,10.9,3.2L527.2,37.6z"/>
		<path class="st2" d="M559.2,46.8c0,0.3,0,0.6,0,0.9h-24.7c0.3,7.1,5.3,11.6,11.9,11.6c4.4,0,7.6-1.8,10.1-4.5l1.3,1.4
			c-3.6,4-7.6,5-11.5,5c-8.1,0-13.9-5.9-13.9-14.3c0-8.3,6.1-14.3,13.8-14.3C553.4,32.7,559,38.6,559.2,46.8z M534.4,45.8h22.5
			c-0.4-6.5-5-11.2-10.9-11.2C539.7,34.7,534.9,39.4,534.4,45.8z"/>
		<path class="st2" d="M591.1,61H589v-6.5c-2.3,4.1-6.6,6.9-11.9,6.9c-8,0-14.2-6.1-14.2-14.3s6.2-14.3,14.2-14.3
			c5.3,0,9.6,2.8,11.9,6.9V33h2.1V61z M565,47c0,7,5.1,12.3,12.1,12.3c6.9,0,12.1-5.3,12.1-12.3c0-7-5.1-12.4-12.1-12.4
			C570.1,34.7,565,40,565,47z"/>
		<path class="st2" d="M615.9,33.9l-0.6,1.9c-1.4-0.8-3.2-1.2-5-1.2c-5.4,0-8.7,4.6-8.7,10.3V61h-2.1V33h2.1v4.9
			c1.7-3.1,4.7-5.2,8.9-5.2C612.4,32.7,614.4,33.1,615.9,33.9z"/>
		<path class="st2" d="M641.2,37l-1.4,1.4c-2.3-2.3-5.4-3.7-8.9-3.7c-6.8,0-12,5.2-12,12.4c0,7.1,5.2,12.3,12,12.3
			c3.6,0,6.7-1.4,9-3.7l1.3,1.4c-2.5,2.7-6.1,4.3-10.2,4.3c-8.2,0-14.2-6.2-14.2-14.3c0-8.2,6-14.3,14.2-14.3
			C635.1,32.7,638.7,34.3,641.2,37z"/>
		<path class="st2" d="M648.8,38.4c2-3.4,5.6-5.7,10.4-5.7c7.5,0,12.2,4.6,12.2,11.9V61h-2.1V44.6c0-5.9-3.6-9.9-10.3-9.9
			c-6.1,0-10.3,4.4-10.3,10.1V61h-2.1V17.8h2.1V38.4z"/>
	</g>
</g>
</svg>
