<?xml version="1.0" standalone="no"?>
<!DOCTYPE svg PUBLIC "-//W3C//DTD SVG 20010904//EN"
 "http://www.w3.org/TR/2001/REC-SVG-20010904/DTD/svg10.dtd">
<svg version="1.0" xmlns="http://www.w3.org/2000/svg"
 width="700.000000pt" height="700.000000pt" viewBox="0 0 700.000000 700.000000"
 preserveAspectRatio="xMidYMid meet">
<metadata>
Created by potrace 1.11, written by Peter Selinger 2001-2013
</metadata>
<g transform="translate(0.000000,700.000000) scale(0.100000,-0.100000)"
fill="#000000" stroke="none">
<path d="M475 6990 c-173 -35 -334 -157 -410 -313 -69 -142 -64 129 -62 -3192
l2 -3010 27 -77 c62 -174 184 -296 367 -367 l66 -26 3010 -2 c2011 -2 3023 1
3050 8 22 5 45 11 50 13 6 2 23 7 39 11 48 13 146 76 205 131 63 59 112 133
150 232 l26 67 2 3010 c2 2085 -1 3025 -8 3060 -6 28 -29 88 -51 133 -56 119
-152 214 -268 270 -47 22 -107 45 -135 50 -60 13 -5996 15 -6060 2z"/>
</g>
</svg>
