<?xml version="1.0" encoding="utf-8"?>
<!-- Generator: Adobe Illustrator 24.2.1, SVG Export Plug-In . SVG Version: 6.00 Build 0)  -->
<svg version="1.1" id="Layer_1" xmlns="http://www.w3.org/2000/svg" xmlns:xlink="http://www.w3.org/1999/xlink" x="0px" y="0px"
	 viewBox="0 0 100 90" style="enable-background:new 0 0 100 90;" xml:space="preserve">
<style type="text/css">
  .st0 {
    fill:#1D2534;
  }
  @media (prefers-color-scheme: dark) {
    .st0 {
      fill:#21ABB0;
    }
  }
</style>
<g>
	<path class="st0" d="M60,50H40.3c-2.6,0-4.6-2.1-4.6-4.6s2.1-4.6,4.6-4.6H60c2.6,0,4.6,2.1,4.6,4.6S62.6,50,60,50z"/>
	<path class="st0" d="M95.3,50H75.6c-2.6,0-4.6-2.1-4.6-4.6s2.1-4.6,4.6-4.6h19.8c2.6,0,4.6,2.1,4.6,4.6S97.9,50,95.3,50z"/>
	<path class="st0" d="M24.4,50H4.7C2.1,50,0,47.9,0,45.3s2.1-4.6,4.6-4.6h19.8c2.6,0,4.6,2.1,4.6,4.6S27,50,24.4,50z"/>
	<path class="st0" d="M95.3,13.3H75.6c-2.6,0-4.6-2.1-4.6-4.7C70.9,6.1,73,4,75.6,4h19.8c2.6,0,4.7,2.1,4.7,4.6
		C100,11.2,97.9,13.3,95.3,13.3C95.4,13.3,95.3,13.3,95.3,13.3z"/>
	<path class="st0" d="M59.7,13.3H40c-2.6,0-4.6-2.1-4.6-4.7C35.3,6.1,37.4,4,40,4h19.8c2.6,0,4.7,2.1,4.7,4.6
		C64.4,11.2,62.3,13.3,59.7,13.3C59.7,13.3,59.7,13.3,59.7,13.3z"/>
	<path class="st0" d="M6.5,13.3H4.7C2.1,13.3,0,11.2,0,8.6C0,6.1,2.1,4,4.7,4h1.8c2.6,0,4.7,2.1,4.7,4.6S9.1,13.3,6.5,13.3
		C6.5,13.3,6.5,13.3,6.5,13.3z"/>
	<path class="st0" d="M42.1,31.6h-1.8c-2.6,0-4.6-2.1-4.6-4.7c0-2.6,2.1-4.6,4.6-4.6h1.8c2.6,0,4.6,2.1,4.6,4.7
		C46.7,29.6,44.7,31.6,42.1,31.6z"/>
	<path class="st0" d="M59.7,31.6h-1.8c-2.6,0-4.7-2.1-4.7-4.6c0-2.6,2.1-4.7,4.6-4.7c0,0,0,0,0,0h1.8c2.6,0,4.7,2.1,4.7,4.6
		C64.4,29.6,62.3,31.6,59.7,31.6C59.7,31.6,59.7,31.6,59.7,31.6z"/>
	<path class="st0" d="M77.4,31.6h-1.8c-2.6,0-4.6-2.1-4.6-4.7c0-2.6,2.1-4.6,4.6-4.6h1.8c2.6,0,4.7,2.1,4.7,4.6
		C82,29.6,80,31.6,77.4,31.6C77.4,31.6,77.4,31.6,77.4,31.6z"/>
	<path class="st0" d="M24.4,31.6H4.7C2.1,31.7,0,29.6,0,27s2.1-4.7,4.6-4.7c0,0,0,0,0,0h19.8c2.6,0,4.7,2.1,4.7,4.6
		C29.1,29.6,27,31.6,24.4,31.6C24.4,31.6,24.4,31.6,24.4,31.6z"/>
	<path class="st0" d="M42.1,84.7h-1.8c-2.6,0-4.6-2.1-4.6-4.6s2.1-4.6,4.6-4.6l0,0h1.8c2.6,0,4.6,2.1,4.6,4.6S44.7,84.7,42.1,84.7z"
		/>
	<path class="st0" d="M59.7,84.7h-1.8c-2.6,0-4.6-2.1-4.6-4.6s2.1-4.6,4.6-4.6h1.8c2.6,0,4.6,2.1,4.6,4.6S62.3,84.7,59.7,84.7z"/>
	<path class="st0" d="M24.4,84.7H4.7c-2.6,0-4.6-2.1-4.6-4.6s2.1-4.6,4.6-4.6h19.8c2.6,0,4.6,2.1,4.6,4.6S27,84.7,24.4,84.7z"/>
	<path class="st0" d="M6.5,66.4H4.7c-2.6,0-4.6-2.1-4.6-4.6s2.1-4.6,4.6-4.6h1.8c2.6,0,4.6,2.1,4.6,4.6S9.1,66.4,6.5,66.4z"/>
	<path class="st0" d="M59.7,66.4h-1.8c-2.6,0-4.6-2.1-4.6-4.6s2.1-4.6,4.6-4.6h1.8c2.6,0,4.6,2.1,4.6,4.6S62.3,66.4,59.7,66.4z"/>
	<path class="st0" d="M77.4,66.4h-1.8c-2.6,0-4.6-2.1-4.6-4.6s2.1-4.6,4.6-4.6h1.8c2.6,0,4.6,2.1,4.6,4.6S80,66.4,77.4,66.4z"/>
	<path class="st0" d="M42.1,66.4H22.3c-2.6,0-4.6-2.1-4.6-4.6s2.1-4.6,4.6-4.6l0,0h19.8c2.6,0,4.6,2.1,4.6,4.6S44.7,66.4,42.1,66.4z
		"/>
</g>
</svg>
