<?xml version="1.0" standalone="no"?>
<!DOCTYPE svg PUBLIC "-//W3C//DTD SVG 20010904//EN"
 "http://www.w3.org/TR/2001/REC-SVG-20010904/DTD/svg10.dtd">
<svg version="1.0" xmlns="http://www.w3.org/2000/svg"
 width="700.000000pt" height="700.000000pt" viewBox="0 0 700.000000 700.000000"
 preserveAspectRatio="xMidYMid meet">
<metadata>
Created by potrace 1.11, written by Peter Selinger 2001-2013
</metadata>
<g transform="translate(0.000000,700.000000) scale(0.100000,-0.100000)"
fill="#000000" stroke="none">
<path d="M1224 6231 c-25 -12 -50 -33 -65 -57 l-24 -39 0 -656 0 -656 25 -36
c14 -21 43 -46 66 -57 40 -20 62 -20 2670 -18 l2629 3 35 22 c19 12 44 38 55
59 19 36 20 57 20 678 -1 353 -4 652 -8 666 -8 33 -54 82 -90 98 -21 9 -625
12 -2650 12 -2536 0 -2623 -1 -2663 -19z"/>
<path d="M465 4259 c-17 -4 -41 -18 -53 -29 -53 -50 -51 -29 -52 -716 0 -395
4 -653 10 -675 11 -38 49 -78 93 -97 21 -9 325 -11 1257 -9 1223 2 1229 2
1256 23 15 11 37 33 48 48 21 27 21 36 21 696 0 660 0 669 -21 696 -11 15 -33
37 -48 48 -27 21 -32 21 -1254 23 -691 1 -1240 -3 -1257 -8z"/>
<path d="M3584 4251 c-25 -11 -50 -33 -64 -56 l-23 -36 1 -647 c0 -724 -2
-703 69 -752 l37 -25 645 -3 c732 -3 709 -5 759 71 l27 41 0 655 c0 640 0 657
-20 691 -12 21 -39 44 -65 58 l-44 22 -641 0 c-602 0 -642 -2 -681 -19z"/>
<path d="M1245 2278 c-43 -15 -84 -57 -96 -98 -6 -23 -9 -259 -7 -682 3 -635
3 -647 24 -674 11 -15 33 -37 48 -48 l27 -21 2649 0 2649 0 27 21 c15 11 37
33 48 48 21 27 21 36 21 695 l0 668 -28 36 c-55 73 183 67 -2716 66 -1796 0
-2625 -4 -2646 -11z"/>
</g>
</svg>
