<?xml version="1.0" encoding="utf-8"?>
<!-- Generator: Adobe Illustrator 23.0.2, SVG Export Plug-In . SVG Version: 6.00 Build 0)  -->
<svg version="1.1" id="Layer_1" xmlns="http://www.w3.org/2000/svg" xmlns:xlink="http://www.w3.org/1999/xlink" x="0px" y="0px"
	 viewBox="0 0 48 48" style="enable-background:new 0 0 48 48;" xml:space="preserve">
<style type="text/css">
	.st0{fill:#787E8D;}
</style>
<title>arrow-light-right</title>
<path class="st0" d="M16.5,40c-0.27,0-0.52-0.1-0.71-0.29c-0.39-0.39-0.39-1.02-0.01-1.41c0,0,0,0,0.01-0.01L30.09,24L15.79,9.71
	c-0.39-0.39-0.39-1.03,0-1.42c0.39-0.39,1.03-0.39,1.42,0l15,15c0.39,0.39,0.39,1.02,0.01,1.41c0,0,0,0-0.01,0.01l-15,15
	C17.02,39.9,16.77,40,16.5,40z"/>
</svg>
