<svg xmlns="http://www.w3.org/2000/svg" xmlns:xlink="http://www.w3.org/1999/xlink" viewBox="0 0 600 400"><defs><style>.cls-1{isolation:isolate;}.cls-2{fill:#f5f6f8;}.cls-3{fill:#2a3141;}.cls-4{fill:#797e84;}.cls-5,.cls-6{fill:none;stroke-miterlimit:10;stroke-width:1.59px;}.cls-5{stroke:#585f6b;}.cls-6{stroke:#97a4b7;}.cls-7{fill:url(#linear-gradient);}.cls-8{fill:#ecedef;}.cls-14,.cls-9{fill:#f5b54d;}.cls-9{mix-blend-mode:multiply;}.cls-10{fill:#e9eff4;}.cls-11{fill:#e2e5eb;}.cls-12{fill:#d0d4e0;}.cls-13{fill:#bacc54;}.cls-15{fill:#21abb0;}.cls-16{fill:#fff;}.cls-17{fill:#1c212b;}.cls-18{fill:#97a4b7;}.cls-19{fill:#5c677f;}</style><linearGradient id="linear-gradient" x1="348.26" y1="284.62" x2="471.89" y2="284.62" gradientUnits="userSpaceOnUse"><stop offset="0" stop-color="#d0d4e0"/><stop offset="1" stop-color="#ecedef"/></linearGradient></defs><title>header-sub-user-stories-industry copy</title><g class="cls-1"><g id="Layer_3" data-name="Layer 3"><path class="cls-2" d="M235.16,207.6V148.92a1.59,1.59,0,0,0-2.5-1.31l-18.58,12.9a1.61,1.61,0,0,0-.68,1.31v23.42H192.15V321.66h64.26V207.6Z"/></g><g id="Layer_5" data-name="Layer 5"><path class="cls-3" d="M455.85,247.59h14.28a3.18,3.18,0,0,1,3.18,3.18v9a0,0,0,0,1,0,0H452.67a0,0,0,0,1,0,0v-9A3.18,3.18,0,0,1,455.85,247.59Z"/><polygon class="cls-4" points="464.93 213.8 461.05 213.8 457.87 247.59 468.11 247.59 464.93 213.8"/><circle class="cls-3" cx="462.99" cy="207.77" r="6.03"/><line class="cls-5" x1="456.95" y1="207.77" x2="469" y2="207.77"/><line class="cls-6" x1="197.92" y1="335.65" x2="207.89" y2="335.65"/><path class="cls-3" d="M453.92,250.11c.89-2.91,13.27-1,15.6-.79,3.11.35,2.21,1.86,2.3,4.58a63.07,63.07,0,0,0,.66,7l1.45-1.9c-5.49,0-11.19,1.11-16.65.68-3.08-.24-3.87-1.23-3.92-4.26a30.36,30.36,0,0,1,.56-5.3c.31-1.89-2.58-2.7-2.89-.8-.6,3.61-1.88,9.5,1.39,12.26,2,1.68,5,1.11,7.35,1,4.72-.2,9.43-.62,14.16-.6a1.52,1.52,0,0,0,1.44-1.9,56.07,56.07,0,0,1-.58-7.66c0-1.2.3-2.83-.23-4-1-2.12-3.86-2-5.8-2.22a70.72,70.72,0,0,0-13-.34c-2.51.24-4,.92-4.72,3.4C450.46,251.16,453.35,252,453.92,250.11Z"/><path class="cls-3" d="M456.49,248h0a1.52,1.52,0,0,0,1.5,1.5l10.55.42a1.5,1.5,0,0,0,1.5-1.5c-.64-5.82-1.33-11.65-2-17.47-.76-6.25-1-13-2.67-19.14a1.53,1.53,0,0,0-1.45-1.1c-5.59.26-4.65,4.89-5.06,9.3-.88,9.33-1.74,18.64-2.34,28-.13,1.93,2.87,1.92,3,0q.58-9.13,1.39-18.24c.26-2.92.55-5.84.85-8.76.2-1.94-.27-7.18,2.16-7.29l-1.45-1.11c1.71,6.18,1.93,13,2.69,19.37.66,5.48,1.31,11,1.91,16.45l1.5-1.5L458,246.51l1.5,1.5h0C459.61,246.08,456.61,246.09,456.49,248Z"/><path class="cls-3" d="M457,202.28c-2.54,2.59-2.49,8.4-.13,11.13,2.73,3.14,8.91,3.19,11.63.16,3.19-3.54,3.12-8-.53-11.12-3.32-2.79-7.69-3.17-11-.17-1.43,1.3.7,3.42,2.12,2.12,1.87-1.71,4.21-1.54,6.23-.18,2.73,1.85,3.23,4.54,1.1,7.12-1.56,1.9-6.14,2-7.56-.25-1-1.63-1.16-5.27.23-6.69S458.33,200.9,457,202.28Z"/><path class="cls-3" d="M457,209.18a51.55,51.55,0,0,1,11.38-.21c1.92.18,1.91-2.83,0-3a51.55,51.55,0,0,0-11.38.21c-1.89.25-1.91,3.25,0,3Z"/></g><g id="Layer_4" data-name="Layer 4"><path class="cls-7" d="M386.29,272.89V249.17a1.59,1.59,0,0,0-1.59-1.58H349.85a1.59,1.59,0,0,0-1.59,1.58v72.49H471.89V274.48a1.59,1.59,0,0,0-1.58-1.59Z"/></g><g id="Layer_2" data-name="Layer 2"><rect class="cls-2" x="147.64" y="294.38" width="34.63" height="27.28"/><rect class="cls-8" x="147.64" y="301.85" width="34.63" height="6.17"/><rect class="cls-8" x="147.64" y="315.5" width="34.63" height="6.17"/><rect class="cls-3" x="145.73" y="286.09" width="38.44" height="8.29" rx="1.59"/><polygon class="cls-9" points="180.17 252.73 125.87 226.69 125.87 219.17 180.17 245.21 180.17 252.73"/><polygon class="cls-9" points="240.03 252.73 180.17 226.69 180.17 219.17 240.03 245.21 240.03 252.73"/><polygon class="cls-9" points="303.65 252.73 240.03 226.69 240.03 219.17 303.65 245.21 303.65 252.73"/></g><g id="Layer_6" data-name="Layer 6"><path class="cls-10" d="M383.46,171.2l-.19,42.68c-.16,35.88-.31,71.78-1.82,107.63,4.79,1.53,9.95,1.15,15,.79a1030.56,1030.56,0,0,1,110.46-2q.74-63.94-1.68-127.87a1.76,1.76,0,0,0-2.3-1.94l-42.14.38-2.21-20.41a90.23,90.23,0,0,0-18.15,0c.74-.07-.47-18.87-.61-20.62a109.65,109.65,0,0,0-3.47-19.53,15.76,15.76,0,0,0-2.38-5.83c-2.4-3.1-6.64-3.94-10.07-5.84a3.64,3.64,0,0,1-1.68-1.56,4.05,4.05,0,0,1-.24-1.47L421,90.81a23.82,23.82,0,0,0-7.31,1.1,105.09,105.09,0,0,0-.33,24.56,2.61,2.61,0,0,1-.17,1.64,2.57,2.57,0,0,1-1.37,1l-5.72,2.36a17.7,17.7,0,0,0-5.32,3c-2.06,1.89-3.09,4.65-3.72,7.37-2.89,12.54,1.39,26-2.28,38.38a51.5,51.5,0,0,1-11.7.61"/><path class="cls-11" d="M135.28,225.67a184.07,184.07,0,0,1,23.25,10.2V226c0-3.37,0-6.75.28-10.11.19-2.28.51-4.55.61-6.84.28-5.86-.83-11.74-.38-17.59.27-3.48,1.09-7,.51-10.41-5.33,1-10.82.63-16.24.22h0c-2.59-.19-6-1.55-6.3,1.78s0,6.94-.13,10.36q-.21,10.44-.82,20.85C136,215.25,135.46,225.67,135.28,225.67Z"/><path class="cls-12" d="M136.68,181.66c1.8,0,3.59.16,5.39.26,6,.32,12.07-.12,18.09.32a51.89,51.89,0,0,0-.41-8.72,16.66,16.66,0,0,1-3.53,0h0q-6.32-.43-12.64-.57c-2.67-.06-6.33-.84-6.92,2.59C136.55,176.16,136.39,181.65,136.68,181.66Z"/></g><g id="Layer_7" data-name="Layer 7"><path class="cls-13" d="M467.33,319.68c6.07-.08,12.14-.16,18.21.06-3.55-18.25.11-37.14-1.45-55.67a4.06,4.06,0,0,0-.78-2.47c-.79-.87-2.13-.9-3.31-.87q-39.08,1-78.17.08a5.67,5.67,0,0,1-3.7-1c-1.08-.93.23-2.63.08-4-.74-6.84.52-13.53-.22-20.37-20,.76-43.47.61-63.42-.44h0l.49,43.14.24,21.37.12,10.89.06,5.34c0,1.24-.46,3.65.19,4.73,1.14,1.9,6.17.85,8,.83l10.72-.14,21.64-.29,43.06-.56,43.28-.57C464,319.72,465.69,319.68,467.33,319.68Z"/><path class="cls-10" d="M349.67,289.87c-.36,10.05-1.48,20.13-.3,30.11,8.61-1.17,17.33-.79,26-.71,32.38.31,64.75-3.63,97.08-1.95a363.09,363.09,0,0,0-.52-41.73,2.38,2.38,0,0,0-3.12-2.61c-27.93.88-55.88.14-83.82-.59A215.27,215.27,0,0,1,382.83,247h0l-30.37.77c-2.49.06-4.18-.6-4.11,2.25.06,2.46.34,4.93.5,7.39.32,5.05.61,10.12.78,15.18C349.82,278.37,349.87,284.12,349.67,289.87Z"/><path class="cls-14" d="M304.91,319.37q-.74-19.58-1.13-39.16c-.13-6.17-.26-12.33-.52-18.5-.21-4.86.51-11.55-1.45-16.09-1.34-3.08-4.54-4.28-7.48-5.34-5.95-2.14-11.94-4.16-17.85-6.44-12.28-4.74-24.31-10.08-36.1-15.92a1.53,1.53,0,0,0-2.26,1.3,161.13,161.13,0,0,0-.9,22.93c-20.07-4.58-38.47-13.85-56.69-23.22a1.51,1.51,0,0,0-2.25,1.3q.16,10.86.35,21.72a562.36,562.36,0,0,1-53.18-24.44c-1.2-.63-3,.76-2,2.05s.11,5.19,0,6.6c-.08,2-.22,4.05-.27,6.07-.29,10.63,0,21.3,0,31.94s0,21.29,0,31.94q0,6.92,0,13.82c0,3.06-.85,7.44.68,10.3,1,1.86,2.62,2.33,4.61,2.63a113.36,113.36,0,0,0,14.74.75c10,.19,19.95-.13,29.92-.4,20.57-.57,41.14-.9,61.71-1.4,22.89-.56,45.78-1,68.67-.94a1.38,1.38,0,0,0,1.15-.55A1.34,1.34,0,0,0,304.91,319.37Z"/><path class="cls-15" d="M180.89,242.42c-2.74-1.32-6.24-1.75-9.13-2.83a107.28,107.28,0,0,1-10.25-4.51C149.45,229.13,138,222,125,218.17a1.52,1.52,0,0,0-1.9,1.45c-.42,3.87-.55,7.53,3.17,9.63,6,3.41,12.66,6.13,18.84,9.3,5.95,3,11.44,7,17.56,9.69s12.43,4.68,18.65,6.92a1.52,1.52,0,0,0,1.9-1.44C183.45,249.75,185.2,244.51,180.89,242.42Z"/><path class="cls-15" d="M231.68,239.88c-2.15-.92-4.3-1.83-6.46-2.7-10.49-4.24-21.39-7-31.63-11.87-3.72-1.77-7.51-4.14-11.37-5.53-1.36-.49-2.88-.65-3.87.64-3.34,4.38,2.79,8.76,5.88,10.18,8.88,4.07,17.94,7.81,27.06,11.35,9.31,3.62,19.94,6.05,28.08,12a1.5,1.5,0,0,0,2.25-1.29c-.26-2.71-.13-7.42-2.14-9.41C237.93,241.73,233.64,240.71,231.68,239.88Z"/><path class="cls-15" d="M302,243.56c-1-1.34-3.73-1.92-5.15-2.42-6.74-2.38-13.43-4.67-20.08-7.35-10.16-4.1-20.43-8.18-30.2-13.14-2-1-5.36-3.16-7.59-1.52-1.74,1.27-1.24,4.11-1.3,6-.32,3.9,4.87,5.95,7.7,7.31,5.42,2.6,11.2,4.54,16.81,6.71l39.27,15.21a1.51,1.51,0,0,0,1.9-1.45C303.09,250.29,303.59,245.71,302,243.56Z"/><path class="cls-16" d="M200,280.85l.34,12h1.78c1.14,0,2.29,0,3.43,0a48.45,48.45,0,0,0,6.8.31,9.77,9.77,0,0,1,3.05-.06,80.84,80.84,0,0,0-.5-10.44,17.75,17.75,0,0,1-.26-2.62c0-1.45.49-3,0-4.31h0a40.79,40.79,0,0,1-8.34-.1c-1.39-.12-2.77-.25-4.15-.34a8.12,8.12,0,0,0-2.08-.1c-.62.15-.46.45-.37,1.06A42.89,42.89,0,0,1,200,280.85Z"/><path class="cls-17" d="M198.46,280.85l.34,12a1.52,1.52,0,0,0,1.5,1.5c2.43,0,4.83,0,7.25.19,2.61.2,5.24-.18,7.81.09a1.52,1.52,0,0,0,1.5-1.5c0-3.28-.09-6.53-.43-9.79-.27-2.66.14-5.37-.38-8a1.49,1.49,0,0,0-1.44-1.1,36.78,36.78,0,0,1-7,0c-2.33-.16-5.32-1.06-7.61-.55-3.13.69-1.65,4.82-1.58,7.1.06,1.92,3.06,1.93,3,0,0-.47-.5-4.4-.29-4.54-.67.46,3.36.73,3.71.76a49.47,49.47,0,0,0,9.73.22l-1.45-1.1a18.91,18.91,0,0,1-.06,3.91c0,1.53.33,3,.47,4.57.26,2.82.27,5.65.29,8.49l1.5-1.5c-2.57-.27-5.2.11-7.81-.09-2.43-.19-4.82-.21-7.25-.19l1.5,1.5-.34-12C201.41,278.92,198.41,278.91,198.46,280.85Z"/><path class="cls-16" d="M232.39,292.47h0a.53.53,0,0,0,.6.66l13.61.61c.49,0,1.06,0,1.32-.4a1.41,1.41,0,0,0,.12-.93q-.81-8.39-1.78-16.77c0,.26-13.16-.93-14.21,1.06-.9,1.71-.13,5.11-.06,7C232.09,286.59,232.23,289.53,232.39,292.47Z"/><path class="cls-17" d="M231,292.87c.88,2.38,3.19,1.81,5.44,1.91l6.13.28c1.56.07,3.69.58,5.22.09,2.47-.8,1.73-3.52,1.53-5.53-.47-4.67-1-9.32-1.51-14a1.53,1.53,0,0,0-2.26-1.29c1.05-.47-.64-.19-1.31-.22-1.31,0-2.61-.09-3.91-.1-2.4,0-5.19-.21-7.51.55-2.16.71-2.62,2.41-2.65,4.58-.08,4.37.53,8.94.77,13.31.11,1.92,3.11,1.93,3,0-.21-3.8-.32-7.59-.65-11.38-.1-1.1-.5-2.94.33-3.62.59-.48,2.35-.36,3.09-.4,2.21-.12,4.44,0,6.66,0,1.16,0,2.6.33,3.7-.16l-2.26-1.3c.35,3,.69,6.05,1,9.08.28,2.73,1,5.9.65,8.62l.75-1.3c-1.39.87-5.09,0-6.69-.07-2.37-.11-5.18.17-7.48-.38l1.05,1.05-.21-.57C233.18,290.28,230.28,291.05,231,292.87Z"/><path class="cls-16" d="M264.93,292.4l15.11-.29c.19,0,.41,0,.51-.19a.52.52,0,0,0,.05-.35l-1-16.43h0c-2.89.2-5.79.26-8.68.2-1.56,0-6.53-1-7.28.13S264.92,292.4,264.93,292.4Z"/><path class="cls-17" d="M264.93,293.9l8.93-.17c2.14,0,5.05.37,7.09-.36a1.5,1.5,0,0,0,1.05-1.05c.35-2.4-.16-5.17-.31-7.6l-.58-9.58a1.52,1.52,0,0,0-1.5-1.5c-4.54.31-8.88-.18-13.38-.23-2.48,0-4.1.6-4.24,3.2-.29,5.17.75,10.67,1.44,15.79.25,1.89,3.25,1.91,3,0-.58-4.32-1.1-8.68-1.36-13a8.57,8.57,0,0,1-.08-2.94c.11-.31-.86-.05.53,0,.75,0,1.49.05,2.23.11a74.53,74.53,0,0,0,11.86.13l-1.5-1.5.5,8.21c.15,2.51.86,5.69.5,8.17l1-1c-2.12.76-5.42.23-7.67.27l-7.55.15C263,290.94,263,293.94,264.93,293.9Z"/><path class="cls-8" d="M148.55,300.63c11.47-.83,23,.84,34.46.35a39.1,39.1,0,0,1-.9-7.69h0a173.54,173.54,0,0,1-26.49.4l-3.68-.18a16.61,16.61,0,0,0-3.65-.15C148.31,294,149.06,300.6,148.55,300.63Z"/><path class="cls-16" d="M148.88,307.58h0a42,42,0,0,1,7.61-.13c3,.1,6.07.07,9.1,0l9.36-.09,7-.08a.41.41,0,0,0,.31-.09.38.38,0,0,0,.09-.25,29,29,0,0,0,0-6.18,67.7,67.7,0,0,0-6.82.45c-6.89.54-13.81-.22-20.7-.76-1.17-.09-2.34-.18-3.51-.18-.67,0-2.18-.21-2.59.49s0,2.35.07,3.14C148.87,305.15,148.89,306.36,148.88,307.58Z"/><path class="cls-8" d="M148.74,314.4q16.69-.34,33.4-.24a25,25,0,0,0,0-6.41h0a114.51,114.51,0,0,1-16,.38c-2.69-.08-5.38-.2-8.07-.29a79.15,79.15,0,0,0-8-.14c-1.38.1-1.17,1.13-1.18,2.26C148.87,310.33,148.82,314.4,148.74,314.4Z"/><path class="cls-16" d="M148.56,321.84h0l20.56-.47c4.54-.11,9.1-.21,13.64,0a14.27,14.27,0,0,0-.09-6.37.56.56,0,0,0-.13-.28.52.52,0,0,0-.37-.07c-3,.12-6,.17-9,.1-4.42-.11-8.83-.49-13.26-.63-2.2-.07-4.4-.08-6.6,0-1.22.06-3.52-.17-4.3,1.05a5.92,5.92,0,0,0-.42,2.77C148.54,319.28,148.53,320.56,148.56,321.84Z"/><path class="cls-17" d="M146.19,293.21c5.37.27,10.75.5,16.13.56,7.4.07,14.8-.17,22.2-.4a68.07,68.07,0,0,1-.55-6.83l-5.91.37c-2.08.13-4.16.26-6.24.29-1.71,0-3.42,0-5.12-.09l-11.24-.34-5.48-.16c-1,0-3.56-.7-3.78.74a17,17,0,0,0,.08,2.76C146.29,291.14,146.26,292.18,146.19,293.21Z"/><path class="cls-17" d="M146.19,294.71c12.79.64,25.52.57,38.33.16.73,0,1.59-.68,1.5-1.5-.27-2.28-.45-4.54-.55-6.83A1.52,1.52,0,0,0,184,285c-10.17.64-20.16.49-30.34.18-1.94-.06-6-1.07-7.81.2-2.11,1.49-1,5.67-1.13,7.79-.1,1.93,2.9,1.92,3,0,0-.74-.44-3.88,0-4.48.89-1.24,1.13-.46,2.3-.62,3.75-.54,8.27.25,12,.36,7.37.23,14.58,0,21.95-.43l-1.5-1.5c.1,2.29.28,4.55.55,6.83l1.5-1.5c-12.81.41-25.54.48-38.33-.16C144.26,291.61,144.26,294.61,146.19,294.71Z"/><path class="cls-3" d="M302.33,321.3q63.09,1.59,126.2-.11c41.72-1.13,83.53-3.88,125.21-.35,1.92.16,1.91-2.84,0-3-41.68-3.53-83.49-.78-125.21.35q-63.09,1.72-126.2.11c-1.93-.05-1.93,2.95,0,3Z"/><path class="cls-17" d="M137.29,321.51Q72.63,325.14,7.83,323c-1.93-.06-1.93,2.94,0,3q64.72,2.14,129.46-1.48c1.92-.11,1.93-3.11,0-3Z"/></g><g id="Layer_8" data-name="Layer 8"><path class="cls-3" d="M136.79,337.29q26.58.94,53.18.84a1.5,1.5,0,0,0,0-3q-26.59.11-53.18-.84c-1.93-.07-1.92,2.93,0,3Z"/><path class="cls-18" d="M197.89,337.51a52.07,52.07,0,0,1,9.26-.14c1.92.14,1.91-2.86,0-3a52.07,52.07,0,0,0-9.26.14c-1.9.2-1.92,3.21,0,3Z"/><path class="cls-11" d="M82.79,365.2a315.7,315.7,0,0,1,32.7-.76c1.93.06,1.93-2.94,0-3a315.7,315.7,0,0,0-32.7.76c-1.92.14-1.93,3.14,0,3Z"/><path class="cls-11" d="M126.39,364.64q3.79.41,7.6.5c1.93.05,1.93-2.95,0-3q-3.81-.09-7.6-.5c-1.91-.21-1.9,2.79,0,3Z"/><path class="cls-12" d="M242.75,377.1a13,13,0,0,0,5.08.18,1.51,1.51,0,0,0,1-1.84,1.54,1.54,0,0,0-1.85-1.05,9.27,9.27,0,0,1-3.48-.18c-1.87-.45-2.68,2.45-.8,2.89Z"/><path class="cls-18" d="M254.87,377.44l19.65.19a1.5,1.5,0,0,0,0-3l-19.65-.19a1.5,1.5,0,0,0,0,3Z"/><path class="cls-12" d="M428.09,364.54l15.53-.49c1.93-.06,1.94-3.06,0-3l-15.53.49c-1.92.07-1.93,3.07,0,3Z"/><path class="cls-19" d="M462.11,341.27l27.42,1.22c1.93.08,1.93-2.92,0-3l-27.42-1.22c-1.93-.08-1.92,2.92,0,3Z"/><path class="cls-18" d="M497,342.67l4.79.5a1.5,1.5,0,0,0,1.5-1.5,1.54,1.54,0,0,0-1.5-1.5l-4.79-.5a1.51,1.51,0,0,0-1.5,1.5,1.53,1.53,0,0,0,1.5,1.5Z"/><path class="cls-8" d="M517.77,356.72h6.93a1.5,1.5,0,0,0,0-3h-6.93a1.5,1.5,0,0,0,0,3Z"/></g></g></svg>