<svg id="Layer_1" data-name="Layer 1" xmlns="http://www.w3.org/2000/svg" viewBox="0 0 240 160"><defs><style>.cls-1{fill:#9aa0ad;}</style></defs><title>ic-logo-digit</title><path class="cls-1" d="M71.26,46.34V67.83c-1.52-1.5-4.61-3.55-10.21-3.55A18.23,18.23,0,0,0,43,82.76c0,12.37,8.16,19.78,17.76,19.78,5.53,0,8.76-1.88,10.5-3.47v2.51h9.65V46.34ZM61.74,92.86c-6.77,0-8.85-5.89-8.85-9.45C52.89,79,55.61,74,62,74,71.05,74,71.26,83,71.26,83v1.54C71.26,85.84,69.93,92.86,61.74,92.86Z"/><path class="cls-1" d="M144.56,100.57V65.05h-9.68v2.59c-1.44-1.42-4.38-3.36-9.68-3.36A17.29,17.29,0,0,0,108.08,81.8c0,11.74,7.73,18.77,16.84,18.77,5.24,0,8.3-1.78,10-3.29v3.29a19.55,19.55,0,0,1-.44,2.52c-.24.76-1.64,5.48-8,5.48a8.19,8.19,0,0,1-8-5.68l-9,3.44s3,8.87,11,10.79,14,.68,19.16-4.16S144.56,100.57,144.56,100.57Zm-18.48-9.64c-5.8,0-8.11-4.5-8.11-8.26,0-4.07,2.49-8.67,8.33-8.67a8.48,8.48,0,0,1,8.58,6.36v4.35A9.16,9.16,0,0,1,126.08,90.93Z"/><rect class="cls-1" x="90.89" y="65" width="9.65" height="36.58"/><rect class="cls-1" x="154.66" y="65" width="9.65" height="36.58"/><path class="cls-1" d="M185.32,74.38H197V65H185.32V57.53H180l-9.65,12v4.9h5.28V88.57s-.23,6.49,3.31,9.92a12.27,12.27,0,0,0,8.63,3.09H197V92.41s-7.63,0-8.16,0a4.37,4.37,0,0,1-2.45-1.28c-1.17-1-1.07-3.71-1.07-3.71Z"/><rect class="cls-1" x="95.71" y="46.34" width="48.85" height="7.68"/><polygon class="cls-1" points="157.01 58.34 154.66 58.34 154.66 42.01 157.01 42.01 164.31 50.18 157.01 58.34"/></svg>