<svg id="Layer_1" data-name="Layer 1" xmlns="http://www.w3.org/2000/svg" viewBox="0 0 240 160"><defs><style>.cls-1{fill:#9aa0ad;}</style></defs><title>ic-logo-toyota</title><path class="cls-1" d="M159.28,37.35c-9.93-6.79-23.9-10.53-39.33-10.53s-29.4,3.74-39.33,10.53S65.17,53.79,65.17,64.42,70.89,84.54,81.29,91.5C91.43,98.29,105.17,102,120,102s28.51-3.74,38.66-10.53c10.4-7,16.12-16.57,16.12-27.08s-5.49-20.24-15.45-27.07m-7,7.87a4.46,4.46,0,0,1-2.34,3.51c-3.05,2-8.46,3.57-15.28,4.45h0c-.33,0-.48-.08-.54-.32C133,45.5,130.92,39.49,128,35.57l0,0,0-.06,0,0c-.35-.45-.12-.66.36-.61,13.87,1.51,24,6.57,24,10.4M120,43.37c2.09,0,4.12,4,5.16,10.12,0,.26,0,.47-.36.48h0c-1.57.06-3.18.09-4.79.09s-3.24,0-4.81-.09c-.33,0-.39-.22-.35-.48,1-6.09,3.07-10.12,5.16-10.12m-8.17-8.56c.48-.06.71.17.36.61l0,0c-3,3.92-5.18,10-6.28,17.33a.08.08,0,0,1,0,0c0,.27-.21.41-.55.37-6.93-.91-12.39-2.5-15.42-4.54a4.41,4.41,0,0,1-2.23-3.43c0-3.86,10.19-8.93,24.16-10.41M75.45,64.32a24.92,24.92,0,0,1,2.42-10.59c.2-.41.46-.26.64,0l0,0c3.93,5.35,13.42,9.49,26,11.27h0a.47.47,0,0,1,.47.52v.07c.29,11.55,3,21.82,7.13,27.68h0c.23.32.16.59-.36.54-10-1.21-19.06-4.68-25.67-9.88-6.92-5.45-10.73-12.43-10.73-19.66M120,82.1c-2.68,0-5.2-7-5.76-15.74a.38.38,0,0,1,.43-.42h0c1.74.07,3.51.12,5.31.12s3.57,0,5.32-.12h0a.37.37,0,0,1,.42.41c-.57,8.77-3.08,15.75-5.76,15.75M153.72,84c-6.6,5.19-15.62,8.66-25.6,9.87h-.05c-.54.06-.61-.21-.38-.53h0c4.18-5.86,6.85-16.14,7.12-27.68,0,0,0,0,0-.07a.47.47,0,0,1,.47-.52h.05c12.6-1.78,22.08-5.92,26-11.27l0-.05c.19-.25.44-.41.64,0a24.88,24.88,0,0,1,2.42,10.59c0,7.23-3.81,14.21-10.73,19.66"/><path class="cls-1" d="M119.85,121.79a11.35,11.35,0,0,1,11.39-11.39,11.39,11.39,0,1,1-11.39,11.39M131.24,129c3.42,0,6.26-3.26,6.29-7.19s-2.87-7.23-6.29-7.2-6.4,3.19-6.3,7.2c-.1,3.93,2.74,7.14,6.3,7.19"/><polyline class="cls-1" points="155.53 115.19 155.53 132.58 150.73 132.58 150.73 115.19 143.83 115.19 143.83 111.3 162.12 111.3 162.12 115.19"/><path class="cls-1" d="M167.81,127.78l-1.79,4.8h-5.7l9-21.28h6l8.7,21.28h-5.69l-1.8-4.8m-4.2-3.59h3l-3-7.8-3,7.8h3"/><polyline class="cls-1" points="67.39 115.19 67.39 132.58 62.59 132.58 62.59 115.19 56 115.19 56 111.3 73.98 111.3 73.98 115.19"/><path class="cls-1" d="M75.18,121.79a11.39,11.39,0,0,1,22.78,0,11.39,11.39,0,0,1-22.78,0M86.57,129c3.46,0,6.3-3.26,6.3-7.19s-2.84-7.23-6.3-7.2-6.37,3.19-6.29,7.2c-.08,3.93,2.75,7.14,6.29,7.19"/><polyline class="cls-1" points="108.76 132.58 111.16 132.58 111.16 124.49 119.55 111.3 114.16 111.3 108.76 120.29 103.66 111.3 97.97 111.3 106.36 124.49 106.36 132.58"/></svg>