<svg id="Layer_1" data-name="Layer 1" xmlns="http://www.w3.org/2000/svg" viewBox="0 0 48 48"><defs><style>.cls-1,.cls-2{fill:none;stroke-linecap:round;stroke-linejoin:round;stroke-width:2px;}.cls-1{stroke:#2a3141;}.cls-2{stroke:#21abb0;}</style></defs><title>ic-md-gift-box</title><polygon class="cls-1" points="37.3 21.91 10.7 21.91 12.83 15 35.17 15 37.3 21.91"/><rect class="cls-1" x="10.7" y="21.91" width="26.6" height="18.09"/><line class="cls-1" x1="24" y1="15" x2="24" y2="29.89"/><path class="cls-2" d="M32.65,8.24a3.22,3.22,0,0,0-4.53-.55c-1.4,1.09-3.72,7-3.72,7s6.3-.83,7.7-1.93A3.22,3.22,0,0,0,32.65,8.24Z"/><path class="cls-2" d="M16.23,8.24a3.21,3.21,0,0,1,4.52-.55c1.4,1.09,3.72,7,3.72,7s-6.29-.83-7.69-1.93A3.22,3.22,0,0,1,16.23,8.24Z"/></svg>