<svg id="Layer_1" data-name="Layer 1" xmlns="http://www.w3.org/2000/svg" viewBox="0 0 48 48"><defs><style>.cls-1{fill:#2a3141;}</style></defs><title>ic-md-repository-link</title><path class="cls-1" d="M16.71,19.78a3.45,3.45,0,1,1,3.45-3.45A3.45,3.45,0,0,1,16.71,19.78Zm0-4.89a1.45,1.45,0,1,0,1.45,1.44A1.45,1.45,0,0,0,16.71,14.89Z"/><path class="cls-1" d="M16.71,34.44A3.44,3.44,0,1,1,20.16,31,3.44,3.44,0,0,1,16.71,34.44Zm0-4.88A1.44,1.44,0,1,0,18.16,31,1.44,1.44,0,0,0,16.71,29.56Z"/><path class="cls-1" d="M24,19.78a3.45,3.45,0,1,1,3.45-3.45A3.45,3.45,0,0,1,24,19.78Zm0-4.89a1.45,1.45,0,1,0,1.45,1.44A1.45,1.45,0,0,0,24,14.89Z"/><path class="cls-1" d="M18.09,26.38l5.67-3.76A2.9,2.9,0,0,0,25,20.21V18.56a2.35,2.35,0,0,1-1,.22,2.44,2.44,0,0,1-1-.22v1.65a.87.87,0,0,1-.39.74l-4.94,3.28v2.83A.87.87,0,0,1,18.09,26.38Z"/><path class="cls-1" d="M15.71,27s0,.09,0,.13v1.66h0Z"/><path class="cls-1" d="M30.38,18.56v3.36a1.81,1.81,0,0,1-1,1.63L18.25,29.11a2.46,2.46,0,0,1,.9,1.79l11.11-5.56a3.79,3.79,0,0,0,2.12-3.42V18.56a2.4,2.4,0,0,1-1,.22A2.36,2.36,0,0,1,30.38,18.56Z"/><path class="cls-1" d="M17.7,28.77h0V27.06s0,0,0,.06Z"/><path class="cls-1" d="M17,24.71l.73-.48V18.56a2.36,2.36,0,0,1-1,.22,2.4,2.4,0,0,1-1-.22V27A2.88,2.88,0,0,1,17,24.71Z"/><path class="cls-1" d="M16.71,28.56a2.38,2.38,0,0,1,1,.21V27.12s0,0,0-.06V24.23l-.73.48A2.88,2.88,0,0,0,15.71,27v1.78A2.56,2.56,0,0,1,16.71,28.56Z"/><path class="cls-1" d="M31.38,19.78a3.45,3.45,0,1,1,3.44-3.45A3.46,3.46,0,0,1,31.38,19.78Zm0-4.89a1.45,1.45,0,1,0,1.44,1.44A1.45,1.45,0,0,0,31.38,14.89Z"/><path class="cls-1" d="M22.74,37.33H11.38a1,1,0,0,1-1-1V11a1,1,0,0,1,1-1H36.71a1,1,0,0,1,1,1V34.82a3.18,3.18,0,0,1,1.9,1.59l.08.16c0-.08,0-.16,0-.24V11a3,3,0,0,0-3-3H11.38a3,3,0,0,0-3,3V36.33a3,3,0,0,0,3,3H22.74A3.25,3.25,0,0,1,22.74,37.33Z"/><path class="cls-1" d="M36.75,43H35.54A4.18,4.18,0,0,1,32,41.12l-3-4.47a2.24,2.24,0,0,0-1.85-1H26a2.2,2.2,0,0,0-2,1.2l-.24.45a2.25,2.25,0,0,0,0,2l.24.46A2.2,2.2,0,0,0,26,41h1.21a3.85,3.85,0,0,0,2.41-1.44l1.1,1.56A4.19,4.19,0,0,1,27.21,43H26a4.19,4.19,0,0,1-3.74-2.29L22,40.26a4.16,4.16,0,0,1,0-3.85l.23-.46A4.18,4.18,0,0,1,26,33.67h1.21a4.2,4.2,0,0,1,3.51,1.87l3,4.47a2.2,2.2,0,0,0,1.84,1h1.21a2.21,2.21,0,0,0,2-1.2l.23-.45a2.21,2.21,0,0,0,0-2l-.23-.45a2.21,2.21,0,0,0-2-1.2H35.54a2.22,2.22,0,0,0-1.84,1l-.48.8L31.93,35.7l.11-.16a4.2,4.2,0,0,1,3.5-1.87h1.21A4.2,4.2,0,0,1,40.5,36l.23.46a4.22,4.22,0,0,1,0,3.85l-.23.45A4.21,4.21,0,0,1,36.75,43Z"/></svg>