<svg id="Layer_1" data-name="Layer 1" xmlns="http://www.w3.org/2000/svg" viewBox="0 0 48 48"><defs><style>.cls-1{fill:#fff;}.cls-2{fill:#2a3141;}</style></defs><title>ic-md-coin</title><path class="cls-1" d="M23.5,16.5c-7.73,0-14,1.79-14,4v6c0,2.21,6.27,4,14,4s14-1.79,14-4v-6C37.5,18.29,31.23,16.5,23.5,16.5Z"/><path class="cls-2" d="M23.5,15.5c-7.22,0-15,1.56-15,5v6c0,3.44,7.78,5,15,5s15-1.56,15-5v-6C38.5,17.06,30.72,15.5,23.5,15.5Zm0,2c8.58,0,13,2.1,13,3s-4.42,3-13,3-13-2.1-13-3S14.92,17.5,23.5,17.5ZM17,25.06v4a25.76,25.76,0,0,1-3-.64V24.47A30.08,30.08,0,0,0,17,25.06Zm2,.23c1.31.12,2.66.19,4,.2v4c-1.46,0-2.79-.08-4-.2Zm6,.19c1.35,0,2.7-.14,4-.29v4c-1.19.15-2.53.26-4,.31Zm6-.58c.7-.12,1.38-.27,2-.43v3.92c-.59.17-1.26.33-2,.47V25S31,24.93,31,24.9ZM10.5,26.5V23.17a10.94,10.94,0,0,0,1.53.69A.7.7,0,0,0,12,24v3.69C11,27.24,10.5,26.8,10.5,26.5ZM35,27.69V24a.7.7,0,0,0,0-.14,10.94,10.94,0,0,0,1.53-.69V26.5C36.5,26.8,36,27.24,35,27.69Z"/></svg>