<svg id="Layer_1" data-name="Layer 1" xmlns="http://www.w3.org/2000/svg" viewBox="0 0 48 48"><defs><style>.cls-1,.cls-2{fill:#fff;stroke-linecap:round;stroke-linejoin:round;stroke-width:2px;}.cls-1{stroke:#2a3141;}.cls-2{stroke:#21abb0;}</style></defs><title>ic-md-report</title><path class="cls-1" d="M19,15.66H42a1,1,0,0,1,1,1V40a1,1,0,0,1-1,1H19a0,0,0,0,1,0,0V15.66A0,0,0,0,1,19,15.66Z"/><path class="cls-1" d="M14.65,15.66H19a0,0,0,0,1,0,0V41a0,0,0,0,1,0,0H14.65a1,1,0,0,1-1-1V16.66A1,1,0,0,1,14.65,15.66Z"/><circle class="cls-1" cx="31" cy="24.33" r="4.67"/><rect class="cls-1" x="22.99" y="33" width="16.01" height="4"/><rect class="cls-1" x="22.99" y="33" width="6.67" height="4"/><path class="cls-2" d="M12.11,8.78h23a1,1,0,0,1,1,1V33.12a1,1,0,0,1-1,1h-23a0,0,0,0,1,0,0V8.78A0,0,0,0,1,12.11,8.78Z"/><path class="cls-2" d="M7.78,8.78h4.34a0,0,0,0,1,0,0V34.12a0,0,0,0,1,0,0H7.78a1,1,0,0,1-1-1V9.78A1,1,0,0,1,7.78,8.78Z"/><circle class="cls-2" cx="24.12" cy="17.45" r="4.67"/><rect class="cls-2" x="16.11" y="26.12" width="16.01" height="4"/><rect class="cls-2" x="16.11" y="26.12" width="6.67" height="4"/></svg>