<svg id="Layer_1" data-name="Layer 1" xmlns="http://www.w3.org/2000/svg" viewBox="0 0 48 48"><defs><style>.cls-1{fill:#fff;}.cls-2{fill:#2a3141;}</style></defs><title>ic-md-location</title><ellipse class="cls-1" cx="24" cy="38" rx="16" ry="5"/><path class="cls-2" d="M24,34c10.32,0,15,3.07,15,4s-4.68,4-15,4S9,38.93,9,38s4.68-4,15-4m0-2c-9.39,0-17,2.69-17,6s7.61,6,17,6,17-2.69,17-6-7.61-6-17-6Z"/><path class="cls-1" d="M24,37.81c-2.49-1.64-13.17-9.21-13.17-18.64A13.52,13.52,0,0,1,24,6,12.88,12.88,0,0,1,37.17,19.17C37.17,28.6,26.49,36.17,24,37.81ZM24,12.5a6.67,6.67,0,1,0,6.67,6.67A6.67,6.67,0,0,0,24,12.5Z"/><path class="cls-2" d="M24,7A11.9,11.9,0,0,1,36.17,19.17c0,8.37-9.06,15.31-12.17,17.44-3.11-2.13-12.17-9.07-12.17-17.44A12.49,12.49,0,0,1,24,7m0,19.83a7.67,7.67,0,1,0-7.67-7.66A7.68,7.68,0,0,0,24,26.83M24,5A14.52,14.52,0,0,0,9.83,19.17C9.83,30.5,24,39,24,39s14.17-8.5,14.17-19.83A13.91,13.91,0,0,0,24,5Zm0,19.83a5.67,5.67,0,1,1,5.67-5.66A5.66,5.66,0,0,1,24,24.83Z"/></svg>