<svg id="Layer_1" data-name="Layer 1" xmlns="http://www.w3.org/2000/svg" viewBox="0 0 48 48"><defs><style>.cls-1,.cls-2{fill:#fff;stroke-miterlimit:10;stroke-width:2px;}.cls-1{stroke:#2a3141;}.cls-2{stroke:#21abb0;}</style></defs><title>ic-md-people</title><path class="cls-1" d="M29.48,31.91H9.27a.73.73,0,0,1-.72-.78c.39-5.63,5.09-8.21,10.83-8.21s10.43,2.58,10.83,8.21A.73.73,0,0,1,29.48,31.91Z"/><circle class="cls-1" cx="19.38" cy="17.19" r="7.35"/><path class="cls-2" d="M37.42,39.87H14.84A.8.8,0,0,1,14,39c.44-6.3,5.69-9.49,12.1-9.49S37.79,32.71,38.24,39A.81.81,0,0,1,37.42,39.87Z"/><circle class="cls-2" cx="26.13" cy="23.42" r="8.22"/></svg>