<svg id="Layer_1" data-name="Layer 1" xmlns="http://www.w3.org/2000/svg" viewBox="0 0 48 48"><defs><style>.cls-1{fill:#2a3141;}</style></defs><title>ic-md-folder-add</title><path class="cls-1" d="M37,13H27.28l-1.86-2.7A3,3,0,0,0,23,9H11a3,3,0,0,0-3,3V37a3,3,0,0,0,3,3H37a3,3,0,0,0,3-3V16A3,3,0,0,0,37,13Zm1,3v.93a3,3,0,0,0-1-.18H11a3,3,0,0,0-1,.18V12a1,1,0,0,1,1-1h7.47l2.75,4H37A1,1,0,0,1,38,16Zm0,4.68a3,3,0,0,0-1-.18H11a3,3,0,0,0-1,.18v-.93a1,1,0,0,1,1-1H37a1,1,0,0,1,1,1ZM23,11a1,1,0,0,1,.82.43L24.85,13H22.28L20.9,11ZM38,37a1,1,0,0,1-1,1H11a1,1,0,0,1-1-1V23.5a1,1,0,0,1,1-1H37a1,1,0,0,1,1,1Z"/><path class="cls-1" d="M27.75,29.25H25V26.5a1,1,0,0,0-2,0v2.75H20.25a1,1,0,0,0,0,2H23V34a1,1,0,0,0,2,0V31.25h2.75a1,1,0,0,0,0-2Z"/></svg>