<svg id="Layer_1" data-name="Layer 1" xmlns="http://www.w3.org/2000/svg" viewBox="0 0 48 48"><defs><style>.cls-1{fill:#21abb0;}.cls-2{fill:#2a3141;}</style></defs><title>ic-md-building-big</title><path class="cls-1" d="M37.66,10.41H22.93a1,1,0,0,0-1,1V25.06l2-1.25v-4H33.7a1,1,0,0,0,0-2H23.93v-1.4H33.7a1,1,0,1,0,0-2H23.93v-2H36.66V37.59h-1.4V31.8a1,1,0,0,0-1-1h-3.4a1,1,0,0,0-1,1v5.79h-2.4v1H21.93a1,1,0,0,0,1,1H37.66a1,1,0,0,0,1-1V11.41A1,1,0,0,0,37.66,10.41Zm-4.4,27.18h-1.4V32.8h1.4Z"/><path class="cls-1" d="M33.7,21.17H27.46a1,1,0,0,0-1,1s0,0,0,0l1-.62v1.57H33.7a1,1,0,0,0,0-2Z"/><path class="cls-1" d="M33.7,24.57H27.46v2H33.7a1,1,0,0,0,0-2Z"/><path class="cls-1" d="M33.7,28H27.46v2H33.7a1,1,0,0,0,0-2Z"/><path class="cls-2" d="M27.46,39.59H9.34a1,1,0,0,1-1-1V27.27a1,1,0,0,1,.47-.85l9.06-5.67a1,1,0,0,1,1,0,1,1,0,0,1,.51.87v3.86l7.53-4.71a1,1,0,0,1,1,0,1,1,0,0,1,.51.87v17A1,1,0,0,1,27.46,39.59Zm-17.12-2H26.46V23.41l-7.53,4.7a1,1,0,0,1-1,0,1,1,0,0,1-.52-.87V23.41l-7.06,4.41Z"/></svg>