<svg id="Layer_1" data-name="Layer 1" xmlns="http://www.w3.org/2000/svg" viewBox="0 0 48 48"><defs><style>.cls-1{fill:#fff;}.cls-2{fill:#2a3141;}.cls-3{fill:#21abb0;}</style></defs><title>ic-md-press</title><path class="cls-1" d="M35,39m0,0,0,0a2.62,2.62,0,0,0,2.21-1A2.58,2.58,0,0,1,35,39Zm0,0a2.58,2.58,0,0,1-2.21-1A2.62,2.62,0,0,0,35,39Zm3-4-6,0,6,0-6,0,0-7h0v0Z"/><path class="cls-2" d="M38,27H32a1,1,0,0,0-1,1v7c0,3.13,1.5,5,4,5s4-1.87,4-5V28a1,1,0,0,0-1-1ZM35,38c-.5,0-2,0-2-3V29h4v6c0,3-1.5,3-2,3Z"/><path class="cls-1" d="M33.27,39l-.67-1.29A2.64,2.64,0,0,0,35,39ZM15,39m0,0a2.58,2.58,0,0,1-2.21-1A2.62,2.62,0,0,0,15,39Zm17-4,0,0M12,35m20,0M12,35m0-24h0v0Z"/><path class="cls-2" d="M32,10H12a1,1,0,0,0-1,1V35c0,3.13,1.5,5,4,5H35a1,1,0,0,0,0-2c-.5,0-2,0-2-3V11a1,1,0,0,0-1-1ZM15,38c-.49,0-2,0-2-3V12H31V35a6.5,6.5,0,0,0,.63,3Z"/><rect class="cls-3" x="15" y="14" width="11" height="2"/><rect class="cls-3" x="15" y="20" width="6" height="6"/><rect class="cls-3" x="23" y="20" width="6" height="2"/><rect class="cls-3" x="23" y="24" width="4" height="2"/><rect class="cls-3" x="15" y="28" width="10" height="2"/><rect class="cls-3" x="15" y="32" width="13" height="2"/></svg>