<svg id="Layer_1" data-name="Layer 1" xmlns="http://www.w3.org/2000/svg" viewBox="0 0 48 48"><defs><style>.cls-1,.cls-2{fill:none;stroke-linecap:round;stroke-linejoin:round;stroke-width:2px;}.cls-1{stroke:#2a3141;}.cls-2{stroke:#21abb0;}</style></defs><title>ic-md-office</title><polyline class="cls-1" points="35.8 36.92 35.8 42.21 19.01 42.21"/><polyline class="cls-1" points="19.01 16.44 19.01 6.97 33.8 6.97 33.8 24.38"/><line class="cls-1" x1="19.01" y1="10.63" x2="27.41" y2="10.63"/><line class="cls-1" x1="19.01" y1="14.17" x2="28.8" y2="14.17"/><path class="cls-1" d="M38.08,34.64a2.28,2.28,0,0,1-4.56,0c0-1.26,2.28-8.37,2.28-8.37S38.08,33.38,38.08,34.64Z"/><rect class="cls-2" x="10.18" y="18.84" width="14.64" height="23.37"/><rect class="cls-2" x="12.9" y="21.75" width="3" height="3"/><rect class="cls-2" x="19.1" y="21.75" width="3" height="3"/><rect class="cls-2" x="12.9" y="27.31" width="3" height="3"/><rect class="cls-2" x="19.1" y="27.31" width="3" height="3"/><rect class="cls-2" x="12.9" y="32.86" width="3" height="3"/><rect class="cls-2" x="19.1" y="32.86" width="3" height="3"/></svg>