<svg id="Layer_1" data-name="Layer 1" xmlns="http://www.w3.org/2000/svg" viewBox="0 0 48 48"><defs><style>.cls-1,.cls-2{fill:none;stroke-linejoin:round;stroke-width:2px;}.cls-1{stroke:#21abb0;}.cls-2{stroke:#2a3141;}</style></defs><title>ic-md-coffee</title><path class="cls-1" d="M12,16.49H36a0,0,0,0,1,0,0v7a10,10,0,0,1-10,10H22a10,10,0,0,1-10-10v-7A0,0,0,0,1,12,16.49Z"/><rect class="cls-1" x="12" y="11.79" width="24" height="4.7"/><path class="cls-1" d="M36,14.08h3.51a2,2,0,0,1,2,2v2.86a2,2,0,0,1-.59,1.41l-4.81,4.81"/><path class="cls-2" d="M9.25,33.51H38.75a0,0,0,0,1,0,0v0a3,3,0,0,1-3,3H12.22a3,3,0,0,1-3-3v0a0,0,0,0,1,0,0Z"/></svg>