<svg id="Layer_1" data-name="Layer 1" xmlns="http://www.w3.org/2000/svg" viewBox="0 0 48 48"><defs><style>.cls-1{fill:#fff;stroke:#2a3141;stroke-linecap:round;stroke-linejoin:round;stroke-width:2px;}.cls-2{fill:#2a3141;}</style></defs><title>ic-md-faq</title><path class="cls-1" d="M11.12,33.4h2.63l0,6.6,6.34-6.6H32.88a2,2,0,0,0,2-2V17a2,2,0,0,0-2-2H11.12a2,2,0,0,0-2,2V31.4A2,2,0,0,0,11.12,33.4Z"/><path class="cls-1" d="M36.88,29.4H35.25l0,6.6-6.34-6.6H15.12a2,2,0,0,1-2-2V13a2,2,0,0,1,2-2H36.88a2,2,0,0,1,2,2V27.4A2,2,0,0,1,36.88,29.4Z"/><path class="cls-2" d="M24.38,21.88a2.17,2.17,0,0,1,1.51-2.6l.59-.23a1.24,1.24,0,0,0,.83-1.14A1.18,1.18,0,0,0,26,16.68a1.38,1.38,0,0,0-1.39,1.41h-2A3.19,3.19,0,0,1,26,14.67a3.08,3.08,0,0,1,3.33,3.14,3.12,3.12,0,0,1-2.18,3.05c-.61.21-1.05.37-1.05,1v.31H24.38Zm-.49,2.88a1.36,1.36,0,0,1,2.71,0,1.36,1.36,0,0,1-2.71,0Z"/></svg>