<svg id="Layer_1" data-name="Layer 1" xmlns="http://www.w3.org/2000/svg" viewBox="0 0 32 32"><defs><style>.cls-1{fill:#2a3141;}</style></defs><title>ic-sm-technology</title><path class="cls-1" d="M25,10a3,3,0,1,0-3-3A3,3,0,0,0,25,10Zm0-4a1,1,0,1,1-1,1A1,1,0,0,1,25,6Z"/><path class="cls-1" d="M7,10A3,3,0,1,0,4,7,3,3,0,0,0,7,10ZM7,6A1,1,0,1,1,6,7,1,1,0,0,1,7,6Z"/><path class="cls-1" d="M25,13a3,3,0,0,0-2.82,2H18.82A3,3,0,0,0,13,16a3,3,0,0,0,.3,1.29l-5,5A3,3,0,1,0,9.7,23.71l5-5A3,3,0,0,0,16,19a3,3,0,0,0,2.82-2h3.36A3,3,0,1,0,25,13ZM7,26a1,1,0,1,1,1-1A1,1,0,0,1,7,26Zm9-9a1,1,0,1,1,1-1A1,1,0,0,1,16,17Zm9,0a1,1,0,1,1,1-1A1,1,0,0,1,25,17Z"/><path class="cls-1" d="M7,19a3,3,0,0,0,2.7-4.29l5-5A3,3,0,1,0,13.3,8.29l-5,5A3,3,0,1,0,7,19ZM16,6a1,1,0,1,1-1,1A1,1,0,0,1,16,6ZM7,15a1,1,0,1,1-1,1A1,1,0,0,1,7,15Z"/><path class="cls-1" d="M25,22a3,3,0,0,0-2.82,2H18.82a3,3,0,1,0,0,2h3.36A3,3,0,1,0,25,22Zm-9,4a1,1,0,1,1,1-1A1,1,0,0,1,16,26Zm9,0a1,1,0,1,1,1-1A1,1,0,0,1,25,26Z"/></svg>