<svg id="Layer_1" data-name="Layer 1" xmlns="http://www.w3.org/2000/svg" viewBox="0 0 32 32"><defs><style>.cls-1{fill:#fff;}</style></defs><title>ic-sm-financial-wh</title><path class="cls-1" d="M12.5,13.5h9a1,1,0,0,0,0-2h-9a1,1,0,0,0,0,2Z"/><path class="cls-1" d="M26,15V3a1,1,0,0,0-1-1H2.5a1,1,0,0,0-1,1V21a1,1,0,0,0,1,1H6v8H30.5V15ZM3.5,4H24V5.5H3.5Zm0,3.5H24v1H3.5ZM3.5,20V10.5H24V15H9.81a2,2,0,0,0-1.31-.5,2,2,0,0,0-1,.28A2,2,0,1,0,6,18.43V20Zm25,8H8V17H28.5Z"/><path class="cls-1" d="M18.5,26.5a4,4,0,1,0-4-4A4,4,0,0,0,18.5,26.5Zm0-6a2,2,0,1,1-2,2A2,2,0,0,1,18.5,20.5Z"/><path class="cls-1" d="M23.5,20.5h.17a3,3,0,0,0,1.83,1.83v.34a3,3,0,0,0-1.83,1.83H23.5a1,1,0,0,0,0,2h1a1,1,0,0,0,1-1,1,1,0,0,1,1-1,1,1,0,0,0,1-1v-2a1,1,0,0,0-1-1,1,1,0,0,1-1-1,1,1,0,0,0-1-1h-1a1,1,0,0,0,0,2Z"/><path class="cls-1" d="M10.5,24.5a1,1,0,0,1,1,1,1,1,0,0,0,1,1h1a1,1,0,0,0,0-2h-.17a3,3,0,0,0-1.83-1.83v-.34a3,3,0,0,0,1.83-1.83h.17a1,1,0,0,0,0-2h-1a1,1,0,0,0-1,1,1,1,0,0,1-1,1,1,1,0,0,0-1,1v2A1,1,0,0,0,10.5,24.5Z"/></svg>