<svg id="Layer_1" data-name="Layer 1" xmlns="http://www.w3.org/2000/svg" viewBox="0 0 32 32"><defs><style>.cls-1{fill:#fff;}</style></defs><title>ic-sm-user-developer-wh</title><polygon class="cls-1" points="21 19 22 19 23 19 24 19 26 19 28 19 30 19 30 17 17 17 17 19 21 19"/><rect class="cls-1" x="23" y="21" width="3" height="2"/><rect class="cls-1" x="17" y="21" width="4" height="2"/><polygon class="cls-1" points="23 25 22 25 21 25 17 25 17 27 23 27 25 27 27 27 27 25 26 25 24 25 23 25"/><rect class="cls-1" x="17" y="29" width="6" height="2"/><polygon class="cls-1" points="25 29 25 31 31 31 31 29 29 29 27 29 25 29"/><path class="cls-1" d="M17.31,12a7.58,7.58,0,0,0,1.36-4.34A7.67,7.67,0,1,0,4.68,12,11,11,0,0,0,0,19.44a2.2,2.2,0,0,0,.53,1.77A2.27,2.27,0,0,0,2.26,22H15V20H2.26a.26.26,0,0,1-.21-.1A.23.23,0,0,1,2,19.72a9,9,0,0,1,4-6.24,7.65,7.65,0,0,0,10,0A9.08,9.08,0,0,1,17.74,15h2.52A11,11,0,0,0,17.31,12ZM11,13.33a5.67,5.67,0,1,1,5.67-5.66A5.68,5.68,0,0,1,11,13.33Z"/></svg>