<svg id="Layer_1" data-name="Layer 1" xmlns="http://www.w3.org/2000/svg" viewBox="0 0 32 32"><defs><style>.cls-1{fill:#2a3141;}</style></defs><title>ic-sm-user-architect</title><path class="cls-1" d="M11,15.33a7.67,7.67,0,1,1,7.67-7.66A7.68,7.68,0,0,1,11,15.33ZM11,2a5.67,5.67,0,1,0,5.67,5.67A5.68,5.68,0,0,0,11,2Z"/><path class="cls-1" d="M29,32V29h3V27H29V21h3V19H29V16H27v3H21V16H19v3H16v2h3v6H16v2h3v3h2V29h6v3Zm-8-5V21h6v6Z"/><path class="cls-1" d="M14,21V20H2.26a.26.26,0,0,1-.21-.1A.23.23,0,0,1,2,19.72,9,9,0,0,1,7,13a6.52,6.52,0,0,1-1.43-1.49,11,11,0,0,0-5.51,8,2.2,2.2,0,0,0,.53,1.77A2.27,2.27,0,0,0,2.26,22H14Z"/><path class="cls-1" d="M16.48,11.46A6.61,6.61,0,0,1,15,13a8.44,8.44,0,0,1,1.6,1h2.87A11.39,11.39,0,0,0,16.48,11.46Z"/></svg>