<svg id="Layer_1" data-name="Layer 1" xmlns="http://www.w3.org/2000/svg" viewBox="0 0 32 32"><defs><style>.cls-1{fill:#fff;}</style></defs><title>ic-sm-user-executive-wh</title><path class="cls-1" d="M17.32,12A7.67,7.67,0,1,0,4.68,12,11,11,0,0,0,0,19.44a2.2,2.2,0,0,0,.53,1.77A2.27,2.27,0,0,0,2.26,22H11l-.34-.33L9,20H2.26a.26.26,0,0,1-.21-.1A.23.23,0,0,1,2,19.72a9,9,0,0,1,4-6.24,7.63,7.63,0,0,0,10,0,9.44,9.44,0,0,1,2.45,2.35l1-2A11.44,11.44,0,0,0,17.32,12ZM11,13.33a5.67,5.67,0,1,1,5.67-5.66A5.68,5.68,0,0,1,11,13.33Z"/><path class="cls-1" d="M22.05,16.81l1.84,3.73,4.11.6L25,24l.71,4.1L22.05,26.2l-3.68,1.94.7-4.1-3-2.9,4.12-.6,1.84-3.73m0-4.51-1.8,3.63-1.37,2.78-3.07.45-4,.58,2.9,2.83,2.22,2.17L16.4,27.8l-.69,4,3.59-1.88,2.75-1.45,2.75,1.45,3.58,1.88-.68-4-.53-3.06,2.23-2.17,2.9-2.83-4-.58-3.08-.45-1.37-2.78L22.05,12.3Z"/></svg>