<svg id="Layer_1" data-name="Layer 1" xmlns="http://www.w3.org/2000/svg" viewBox="0 0 32 32"><defs><style>.cls-1{fill:#fff;}</style></defs><title>ic-sm-industrial-building-wh</title><path class="cls-1" d="M29.54,15.16a1,1,0,0,0-.95-.07l-4.81,2.14L23,3.94A1,1,0,0,0,22,3H18a1,1,0,0,0-1,.94l-.74,12.63L12,18.46V16a1,1,0,0,0-1.41-.91l-9,4A1,1,0,0,0,1,20v9a1,1,0,0,0,1,1H29a1,1,0,0,0,1-1V16A1,1,0,0,0,29.54,15.16ZM18.94,5h2.12l.09,1.5h-2.3Zm-.2,3.5h2.52l.57,9.59-.83.37V16a1,1,0,0,0-1.41-.91l-1.27.56ZM3,20.65l7-3.11V28H3Zm9,0,7-3.11V28H12ZM28,28H21V20.65l7-3.11Z"/><rect class="cls-1" x="6.5" y="21" width="2" height="2"/><rect class="cls-1" x="15.5" y="21" width="2" height="2"/><rect class="cls-1" x="24.5" y="21" width="2" height="2"/></svg>