<svg id="Layer_1" data-name="Layer 1" xmlns="http://www.w3.org/2000/svg" viewBox="0 0 32 32"><defs><style>.cls-1{fill:#2a3141;}</style></defs><title>ic-sm-car</title><path class="cls-1" d="M30,17a3,3,0,0,0-3-3H22V10a4,4,0,0,0-4-4H11a4,4,0,0,0-4,4v4H5a3,3,0,0,0-3,3v6H4.14a4,4,0,0,0,7.72,0h7.28a4,4,0,0,0,7.72,0H30ZM20,14H13V11h7ZM9,10a2,2,0,0,1,2-2h7a2,2,0,0,1,1.72,1H12a1,1,0,0,0-1,1v4H9ZM8,24a2,2,0,1,1,2-2A2,2,0,0,1,8,24Zm15,0a2,2,0,1,1,2-2A2,2,0,0,1,23,24Zm5-3H26.86a4,4,0,0,0-7.72,0H11.86a4,4,0,0,0-7.72,0H4V17a1,1,0,0,1,1-1H27a1,1,0,0,1,1,1Z"/></svg>