<svg id="Layer_1" data-name="Layer 1" xmlns="http://www.w3.org/2000/svg" viewBox="0 0 32 32"><defs><style>.cls-1{fill:#fff;}</style></defs><title>ic-sm-building-big-wh</title><rect class="cls-1" x="21" y="6" width="4" height="2"/><rect class="cls-1" x="14" y="18" width="5" height="2"/><rect class="cls-1" x="14" y="22" width="5" height="2"/><path class="cls-1" d="M17,2V7H3V29H29V2Zm4,25H12V16h9ZM11.28,14l.5-2h9.44l.5,2ZM5,27V9H17v1H10.22L10,11H7v2H9.47L9,15H7v2h3v2H7v2h3v2H7v2h3v2Zm22,0H23V24h2V22H23V20h2V18H23V16h2V14H23.78l-.5-2H25V10H19V4h8Z"/></svg>