<svg id="Layer_1" data-name="Layer 1" xmlns="http://www.w3.org/2000/svg" viewBox="0 0 32 32"><defs><style>.cls-1{fill:#fff;stroke:#2a3141;stroke-miterlimit:10;stroke-width:2px;}.cls-2{fill:#2a3141;}</style></defs><title>ic-sm-building-big</title><rect class="cls-1" x="18" y="3" width="10" height="25"/><rect class="cls-2" x="21" y="6" width="4" height="2"/><rect class="cls-2" x="21" y="10" width="4" height="2"/><rect class="cls-2" x="21" y="14" width="4" height="2"/><rect class="cls-2" x="21" y="18" width="4" height="2"/><rect class="cls-2" x="21" y="22" width="4" height="2"/><rect class="cls-1" x="4" y="8" width="14" height="20"/><rect class="cls-2" x="7" y="11" width="8" height="2"/><rect class="cls-2" x="7" y="15" width="8" height="2"/><rect class="cls-2" x="7" y="19" width="8" height="2"/><rect class="cls-2" x="7" y="23" width="8" height="2"/><rect class="cls-1" x="11" y="15" width="11" height="13"/><rect class="cls-2" x="14" y="18" width="5" height="2"/><rect class="cls-2" x="14" y="22" width="5" height="2"/><polygon class="cls-1" points="22 11 11 11 10 15 23 15 22 11"/></svg>