<svg id="Layer_1" data-name="Layer 1" xmlns="http://www.w3.org/2000/svg" xmlns:xlink="http://www.w3.org/1999/xlink" viewBox="0 0 235 235"><defs><style>.cls-1,.cls-17{fill:#fff;}.cls-2{fill:#253858;}.cls-18,.cls-3{fill:none;}.cls-4{fill:#2684ff;}.cls-5{fill:url(#linear-gradient);}.cls-6{fill:#100e0f;}.cls-7{fill:#d33833;}.cls-10,.cls-11,.cls-12,.cls-13,.cls-14,.cls-16,.cls-17,.cls-19,.cls-20,.cls-21,.cls-22,.cls-7{fill-rule:evenodd;}.cls-19,.cls-8{fill:#ef3d3a;}.cls-20,.cls-9{fill:#231f20;}.cls-10{fill:#f0d6b7;}.cls-11{fill:#335061;}.cls-12{fill:#6d6b6d;}.cls-13{fill:#dcd9d8;}.cls-14,.cls-15{fill:#f7e4cd;}.cls-16{fill:#49728b;}.cls-18{stroke:#d33833;stroke-width:2px;}.cls-21{fill:#81b0c4;}.cls-22{fill:#1d1919;}.cls-23{isolation:isolate;}</style><linearGradient id="linear-gradient" x1="73.38" y1="119" x2="62.23" y2="110.3" gradientTransform="matrix(1, 0, 0, -1, 0, 236)" gradientUnits="userSpaceOnUse"><stop offset="0.18" stop-color="#0052cc"/><stop offset="1" stop-color="#2684ff"/></linearGradient></defs><title>il-index-step-1</title><circle class="cls-1" cx="117.5" cy="117.5" r="117.5"/><g id="Blue"><path class="cls-2" d="M92.37,107.76c4.24,0,6.29,2.09,6.29,5.44,0,2.52-1.14,4-3.48,4.62,3.07.51,4.59,2.18,4.59,5.12,0,3.32-2.25,5.6-6.89,5.6H84.31V107.76Zm-5.22,2.72v6.2H92c2.69,0,3.79-1.24,3.79-3.24s-1.2-3-3.79-3Zm0,8.73v6.47H93c2.72,0,4-1,4-3.07s-1.17-3.41-4-3.41Z"/><path class="cls-2" d="M104.42,106.66a1.77,1.77,0,0,1,1.89,1.64,1,1,0,0,1,0,.25,1.9,1.9,0,1,1-3.79,0,1.77,1.77,0,0,1,1.64-1.89ZM103,112.73h2.72v15.81H103Z"/><path class="cls-2" d="M116.13,125.88a8.9,8.9,0,0,0,1.71-.22v2.62a6.75,6.75,0,0,1-1.84.25c-3.38,0-5-2-5-4.93v-8.35h-2.56v-2.51H111v-3.37h2.65v3.35h4.2v2.52h-4.2v8.3A2.21,2.21,0,0,0,116.13,125.88Z"/><path class="cls-2" d="M129.05,128.85a5.18,5.18,0,0,1-5-3.1v2.78H121.3V106.12H124v9.45a5.56,5.56,0,0,1,5.34-3.16c4.2,0,6.32,3.57,6.32,8.22C135.69,125.09,133.47,128.85,129.05,128.85Zm-.42-13.91c-2.44,0-4.59,1.55-4.59,5.06v1.26c0,3.51,2,5.06,4.31,5.06,3.07,0,4.65-2,4.65-5.69S131.45,114.94,128.63,114.94Z"/><path class="cls-2" d="M138.53,112.72h2.72v9.57c0,2.84,1.14,4.11,3.73,4.11s4.27-1.68,4.27-4.87v-8.81H152v15.81h-2.72v-2.59a5.53,5.53,0,0,1-5,2.91c-3.64,0-5.73-2.51-5.73-6.86Z"/><path class="cls-2" d="M167.24,128.12a8.7,8.7,0,0,1-3.86.72c-5.62,0-8.26-3.41-8.26-8.26s2.62-8.19,8.26-8.19a8.32,8.32,0,0,1,3.77.78v2.51a7.93,7.93,0,0,0-3.59-.74c-4.11,0-5.78,2.59-5.78,5.66s1.7,5.66,5.85,5.66a10,10,0,0,0,3.59-.57Z"/><path class="cls-2" d="M170.34,128.53V106.12h2.72v14l6.8-7.4h3.55L176,120.49l7.75,8H180l-7-7.39v7.39Z"/><path class="cls-2" d="M192.73,128.85c-5.91,0-8.51-3.41-8.51-8.26s2.66-8.19,7.47-8.19,6.82,3.38,6.82,8.19v1.23H187c.38,2.69,2.12,4.43,5.85,4.43a13.86,13.86,0,0,0,4.81-.86v2.52A11.4,11.4,0,0,1,192.73,128.85Zm-5.79-9.34h8.83c-.16-2.94-1.49-4.62-4.21-4.62-2.88,0-4.33,1.85-4.62,4.6Z"/><path class="cls-2" d="M208,125.88a8.9,8.9,0,0,0,1.71-.22v2.62a6.73,6.73,0,0,1-1.83.25c-3.39,0-5-2-5-4.93v-8.35h-2.56v-2.51h2.56v-3.37h2.66v3.35h4.2v2.52h-4.2v8.3A2.21,2.21,0,0,0,208,125.88Z"/><polygon class="cls-3" points="59.25 121.75 63.94 121.75 65.07 115.14 58 115.14 59.25 121.75"/><path class="cls-4" d="M51.09,108.37a.71.71,0,0,0-.72.71.49.49,0,0,0,0,.12l3,18.52a1,1,0,0,0,1,.81H69a.72.72,0,0,0,.72-.6l3.05-18.73a.72.72,0,0,0-.6-.82H51.09Zm12.85,13.38H59.27L58,115.14h7.07Z"/><path class="cls-5" d="M71.82,115.14H65.07l-1.13,6.61H59.27l-5.52,6.55a1,1,0,0,0,.63.23H69a.71.71,0,0,0,.72-.6Z"/></g><path class="cls-6" d="M67.56,55.86H60.49a.32.32,0,0,0-.33.32v3.46a.32.32,0,0,0,.33.33h2.75v4.29a8.49,8.49,0,0,1-2.33.21c-2,0-4.84-.75-4.84-6.93s2.94-7,5.7-7a10.89,10.89,0,0,1,4.06.63.33.33,0,0,0,.4-.32L67,47.48a.28.28,0,0,0-.12-.26c-.25-.19-1.89-1.1-6-1.1-4.72,0-9.55,2-9.55,11.65s5.53,11.09,10.2,11.09a11.39,11.39,0,0,0,6.21-1.66c.09,0,.12-.18.12-.25V56.16A.36.36,0,0,0,67.56,55.86Z"/><path class="cls-6" d="M104,47.27a.32.32,0,0,0-.33-.33h-4a.32.32,0,0,0-.33.33V55H93.14V47.27a.32.32,0,0,0-.33-.33h-4a.32.32,0,0,0-.33.33V68.09a.32.32,0,0,0,.33.33h4a.32.32,0,0,0,.33-.33V59.2h6.21v8.89a.32.32,0,0,0,.33.33h4a.32.32,0,0,0,.32-.33V47.27Z"/><path class="cls-6" d="M75.05,50a2.57,2.57,0,1,0-2.57,2.59A2.58,2.58,0,0,0,75.05,50Z"/><path class="cls-6" d="M74.77,63.7V54.08a.32.32,0,0,0-.33-.32h-4a.37.37,0,0,0-.35.37V67.9c0,.4.25.52.58.52h3.57c.4,0,.49-.19.49-.54Z"/><path class="cls-6" d="M119.07,53.8h-3.94a.32.32,0,0,0-.33.33v10.2a4.51,4.51,0,0,1-2.43.72c-1.42,0-1.79-.65-1.79-2V54.13a.32.32,0,0,0-.33-.33h-4a.32.32,0,0,0-.33.33V63.7c0,4.13,2.31,5.16,5.48,5.16a9.11,9.11,0,0,0,4.7-1.45,7,7,0,0,0,.14.84.32.32,0,0,0,.28.19h2.54a.32.32,0,0,0,.33-.33v-14A.29.29,0,0,0,119.07,53.8Z"/><path class="cls-6" d="M129.88,53.34a7.39,7.39,0,0,0-3.76,1V47.29a.32.32,0,0,0-.32-.33h-4a.32.32,0,0,0-.32.33V68.11a.32.32,0,0,0,.32.33h2.78a.32.32,0,0,0,.28-.19,6.22,6.22,0,0,0,.17-1,7.14,7.14,0,0,0,4.71,1.54c3.62,0,5.7-1.85,5.7-8.27S132.12,53.34,129.88,53.34Zm-1.56,11.71A4.68,4.68,0,0,1,126,64.4V57.82a5.21,5.21,0,0,1,2-.66c1.42-.11,2.8.31,2.8,3.69C130.84,64.4,130.23,65.12,128.32,65.05Z"/><path class="cls-6" d="M86.21,53.76h-3V49.81c0-.14-.07-.23-.26-.23H78.9c-.16,0-.23.07-.23.21v4.08s-2,.49-2.17.54a.34.34,0,0,0-.24.33V57.3a.32.32,0,0,0,.33.33h2.08v6.16c0,4.58,3.2,5,5.37,5a8.93,8.93,0,0,0,2.35-.39.32.32,0,0,0,.19-.31V65.29a.33.33,0,0,0-.33-.33c-.16,0-.63.07-1.07.07-1.47,0-2-.68-2-1.56V57.61h3a.32.32,0,0,0,.32-.33v-3.2A.33.33,0,0,0,86.21,53.76Z"/><g id="g10"><g id="g3393"><path id="path22" class="cls-7" d="M72.34,170.59a12,12,0,1,1-12-12.23,12.11,12.11,0,0,1,12,12.23"/><path id="path24" class="cls-8" d="M48.91,173.63s-.86-12.76,10.9-13.13L59,159.14l-6.39,2.14-1.82,2.09-1.6,3L48.27,170l.27,2.36"/><path id="path26" class="cls-9" d="M52.19,162.25a12,12,0,0,0-3.4,8.4h0a12,12,0,0,0,3.4,8.39h0a11.42,11.42,0,0,0,8.19,3.47h0A11.38,11.38,0,0,0,68.57,179h0a11.92,11.92,0,0,0,3.4-8.39h0a11.93,11.93,0,0,0-3.4-8.4h0a11.46,11.46,0,0,0-8.19-3.47h0a11.42,11.42,0,0,0-8.19,3.47Zm-.53,17.31a12.72,12.72,0,0,1-3.61-8.91h0a12.75,12.75,0,0,1,3.61-8.92h0A12.17,12.17,0,0,1,60.38,158h0a12.17,12.17,0,0,1,8.72,3.69h0a12.73,12.73,0,0,1,3.61,8.92h0a12.72,12.72,0,0,1-3.61,8.91h0a12.17,12.17,0,0,1-8.72,3.69h0a12.21,12.21,0,0,1-8.72-3.69h0"/><path id="path28" class="cls-10" d="M65.43,170.66l-1.82.27-2.46.28-1.62,0-1.54,0-1.19-.37-1-1.13-.82-2.33-.18-.5-1.1-.37L53,165.46l-.45-1.5.51-1.33,1.19-.41,1,.46.45,1,.55-.09.18-.23-.18-1.06,0-1.32.27-1.82v-1l.83-1.33,1.47-1.05,2.55-1.09,2.83.41,2.46,1.77,1.14,1.82.72,1.33.18,3.28-.55,2.83-1,2.5-1,1.33"/><path id="path30" class="cls-11" d="M63.87,178.55l-6.52.27v1.09l.54,3.83-.27.32-4.55-1.55-.32-.54-.46-5.16-1-3.1L51,173l3.65-2.5,1.14-.45,1,1.23.86.78,1,.31.46.14.54,2.37.41.5,1.06-.37-.73,1.41,4,1.87-.48.28"/><path id="path32" class="cls-12" d="M53.07,162.65l1.19-.41,1,.45.45,1,.55-.1.14-.55-.28-1,.28-2.5-.23-1.37.82-1,1.77-1.41-.5-.69-2.5,1.24-1.06.82-.59,1.27-.91,1.23-.27,1.46.19,1.56"/><path id="path34" class="cls-13" d="M54.94,158.36s.68-1.69,3.42-2.51.13-.58.13-.58l-3,1.13-1.14,1.14-.5.91,1-.09"/><path id="path36" class="cls-13" d="M53.57,162.32s-1-3.18,2.7-3.65l-.14-.55-2.5.59-.73,2.37.18,1.54.49-.3"/><path id="path38" class="cls-14" d="M55,166.56l.6-.58a.38.38,0,0,1,.32.36c0,.31.18,3.18,2.14,4.74.18.14-1.46-.23-1.46-.23l-1.46-2.28"/><path id="path40" class="cls-14" d="M63.42,165.7s.11-1.38.47-1.27a.51.51,0,0,1,.37.47s-.9.58-.84.8"/><path id="path42" class="cls-15" d="M67.2,160.64s-.75.16-.82.82.82.14,1,.09"/><path id="path44" class="cls-15" d="M61.68,160.68s-1,.14-1,.78,1.14.59,1.46.31"/><path id="path46" class="cls-14" d="M55.49,163.65s-1.74-1.06-1.92,0-.59,1.73.28,2.77l-.59-.18-.55-1.41-.18-1.36,1.06-1.1,1.19.1.68.55,0,.67"/><path id="path48" class="cls-14" d="M56.31,160.78s.78-4,4.69-4.79c3.22-.64,4.92.14,5.56.86,0,0-2.87-3.42-5.6-2.36s-4.75,3-4.69,4.19c.06,2.1,0,2.1,0,2.1"/><path id="path50" class="cls-14" d="M66.87,157.32s-1.32,0-1.36,1.13a1,1,0,0,0,.09.37s1.06-1.19,1.68-.55"/><path id="path52" class="cls-14" d="M61.09,158.94s-.23-1.81-1.78-.76c-1,.68-.91,1.64-.72,1.82s.14.54.27.3.1-1.07.59-1.3,1.33-.48,1.64-.06"/><path id="path54" class="cls-16" d="M56.8,171.26l-4.28,1.92s1.78,7.06.86,9.25l-.64-.23,0-2.7-1.19-5.09L51,173l4.47-3,1.33,1.27"/><path id="path56" class="cls-16" d="M57.25,175.16l.6.74v2.73h-.72s-.1-1.91-.1-2.15.1-1,.1-1"/><path id="path58" class="cls-16" d="M57.26,179.05l-2,.1.59.41,1.46.23"/><path id="path60" class="cls-11" d="M64.28,178.59l1.68,0,.41,4.19-1.74.24-.35-4.39"/><path id="path62" class="cls-11" d="M64.74,178.59l2.56-.14s1-2.64,1-2.77.92-3.83.92-3.83l-2-2.15-.41-.37-1.1,1.1v4.24l-1,3.92"/><path id="path64" class="cls-16" d="M65.88,178.27l-1.6.32.23,1.27c.59.27,1.6-.45,1.6-.45"/><path id="path66" class="cls-16" d="M65.92,170.3l3.18,2.37.1-1.09-2.42-2.23-.86,1"/><path id="path68" class="cls-17" d="M58.85,187.57l-.94-3.83-.47-2.83-.09-2.09,4.26-.23h2.65L64,183.37l.41,3.69,0,.69-3.46.27-2.08-.45"/><path id="path70" class="cls-13" d="M63.69,178.55a40.27,40.27,0,0,0,.45,8.1,8.72,8.72,0,0,1-3.38,1.1l3.83-.14.45-.27-.54-7.48-.14-1.6"/><path id="path72" class="cls-17" d="M66.45,182.38l1.78-.51,3.37-.18.51-1.54-.92-2.7-1-.13-1.45.45-1.39.68-.74-.13-.57.23"/><path id="path74" class="cls-13" d="M66.42,181.46a7.08,7.08,0,0,1,1.37-.51l-.51-2.5.59-.23s.41,2.36.41,2.64c0,0,2.56.13,2.78.13a4.22,4.22,0,0,0,.41-2.14l.5,1.46,0,.82-.72,1.1-.82.17-1.37,0-.45-.59-1.6.24-.5.17"/><path id="path76" class="cls-1" d="M64.63,178.23l-1-2.55-1.05-1.51s.23-.64.55-.64h1.05l1,.37-.1,1.68-.45,2.65"/><path id="path78" class="cls-13" d="M64.82,177.36a21.06,21.06,0,0,1-1.27-2.83s.23-.55.55-.41,1,.5,1,.5v-.86l-1.55-.31-1,.14,1.78,4.19.37,0"/><path id="path80" class="cls-1" d="M59.26,171.34,58,171.21l-1.19-.37v.41l.58.64,1.82.82"/><path id="path82" class="cls-13" d="M57.22,171.48a5,5,0,0,0,1.88.45l0,.55-1.27-.28-.78-.54.13-.18"/><path id="path84" class="cls-7" d="M66.45,173.69a8.05,8.05,0,0,1-2.08-.28,4.94,4.94,0,0,1,0-.69,1.62,1.62,0,0,1,.71-.15,1.25,1.25,0,0,0-.79-.09,1,1,0,0,0-.14-.43c.44-.15,1.46-1.17,2-.83.27.16.39,1.08.41,1.52a1.5,1.5,0,0,1-.18.95"/><path id="path86" class="cls-18" d="M66.45,173.69a8.05,8.05,0,0,1-2.08-.28,4.94,4.94,0,0,1,0-.69,1.62,1.62,0,0,1,.71-.15,1.25,1.25,0,0,0-.79-.09,1,1,0,0,0-.14-.43c.44-.15,1.46-1.17,2-.83.27.16.39,1.08.41,1.52A1.5,1.5,0,0,1,66.45,173.69Z"/><path id="path88" class="cls-7" d="M62.75,172.42a.52.52,0,0,1,0,.18c-.24.16-.63.15-.9.29a2.27,2.27,0,0,1,1,.24c0,.15,0,.3,0,.44-.44.3-.85.75-1.37,1a3.56,3.56,0,0,1-1.37.42c-.15,0-.16-.21-.22-.39a5.28,5.28,0,0,1-.43-1.52c0-.71-.11-1.89.65-1.75a6.92,6.92,0,0,1,1.81.66,1.66,1.66,0,0,0,.89.39"/><path id="path90" class="cls-18" d="M62.75,172.42a.52.52,0,0,1,0,.18c-.24.16-.63.15-.9.29a2.27,2.27,0,0,1,1,.24c0,.15,0,.3,0,.44-.44.3-.85.75-1.37,1a3.56,3.56,0,0,1-1.37.42c-.15,0-.16-.21-.22-.39a5.28,5.28,0,0,1-.43-1.52c0-.71-.11-1.89.65-1.75a6.92,6.92,0,0,1,1.81.66A1.66,1.66,0,0,0,62.75,172.42Z"/><path id="path92" class="cls-7" d="M63.2,173.27a2.27,2.27,0,0,1-.11-.83c1-.69,1.2,1.17.11.83"/><path id="path94" class="cls-18" d="M63.2,173.27a2.27,2.27,0,0,1-.11-.83C64.1,171.75,64.29,173.61,63.2,173.27Z"/><path id="path96" class="cls-19" d="M64.67,173.59s-.31-.46-.09-.59.45,0,.59-.24,0-.36,0-.64.27-.31.5-.37.86-.13,1,.1L66.4,171l-.55-.18-1.74,1-.09.5v1"/><path id="path98" class="cls-19" d="M59.89,175.09c-.06-.71-.11-1.42-.18-2.13-.09-1.07.26-.88,1.18-.88a2.55,2.55,0,0,1,.91.27c.25.51-.41.4.29.78s1.64-.19,1.39-.91c-.13-.17-.69-.06-.9-.15l-1.06-.56c-.46-.24-1.51-.58-2-.25-1.23.84.09,2.91.52,3.77"/><path id="path100" class="cls-20" d="M61.09,158.94a1.89,1.89,0,0,0-2.24,1.36c-.34-.08-.21-.54-.12-.77a2.1,2.1,0,0,1,1.84-1.31c.33,0,.75.33.52.72"/><path id="path102" class="cls-20" d="M67.15,160.35h0a12.49,12.49,0,0,0,.88,1.71c-.23.55-1.79,1-1.78.06.34-.16.92,0,1.22-.22a3.41,3.41,0,0,1-.37-1.55"/><path id="path104" class="cls-20" d="M61.72,160.37a4.94,4.94,0,0,0,.74,1.36c.16.17.5.37.34.84a1,1,0,0,1-.48.39c-.59.18-2,0-1.5-.69.49,0,1.15.31,1.52-.05-.29-.43-.8-1.32-.62-1.85"/><path id="path106" class="cls-20" d="M66.92,165.33a5,5,0,0,1-3.35,1,1,1,0,0,1-.13-1.27c.17.27.06.76.5.85a5.14,5.14,0,0,0,2.39-.74c.37-.63,0-.85-.37-1.26-.68-.82-1.6-1.84-1.56-3.08.27-.2.3.31.34.4a11.52,11.52,0,0,0,1.9,2.61c.17.18.43.34.45.47.1.34-.2.75-.17,1"/><path id="path108" class="cls-20" d="M55.17,164.73c-.27-.17-.34-.86-.67-.88s-.38.92-.38,1.46a1.67,1.67,0,0,1-.14-1.65c-.27-.14-.39.15-.54.25.19-1.41,2.05-.66,1.73.82"/><path id="path110" class="cls-20" d="M67.49,165.92a2.56,2.56,0,0,1-2.21,1.68,2.65,2.65,0,0,1,0-.8,6.52,6.52,0,0,0,2.21-.88"/><path id="path112" class="cls-20" d="M61.65,166.42a7.85,7.85,0,0,0,3.26.43,3.94,3.94,0,0,1,0,.79c-1.34.07-2.95-.26-3.31-1.22"/><path id="path114" class="cls-20" d="M61.5,167.19c.54,1.35,2.38,1.19,3.94,1.16a.81.81,0,0,1-.4.45,3.9,3.9,0,0,1-2.57,0,3.63,3.63,0,0,1-.95-1.07c-.11-.15-.7-.53,0-.53"/><path id="path116" class="cls-21" d="M66.86,174.62a27.92,27.92,0,0,1-2,3.15,14.9,14.9,0,0,0,.49-3.64,1.15,1.15,0,0,1,1.49.49"/><path id="path118" class="cls-20" d="M70.25,178.49c-.71.14-1.2.82-1.89.78a2.28,2.28,0,0,1,1.89-.78"/><path id="path120" class="cls-20" d="M70.55,179.6a11.11,11.11,0,0,1-1.83.11c.27-.42,1.34-.27,1.83-.11"/><path id="path122" class="cls-20" d="M70.76,180.56a20.19,20.19,0,0,1-2.07-.06c.37-.38,1.64-.15,2.07.06"/><path id="path124" class="cls-13" d="M65.64,183.15a14.43,14.43,0,0,1,.37,2.52,2.46,2.46,0,0,1-1,.22c0-.75-.13-1.91-.11-2.63.24,0,.59-.15.78-.11"/><path id="path126" class="cls-10" d="M64.59,171.21c-.33.2-.6.47-.91.69a2,2,0,0,1-1.58-.45s.06,0,.06,0c.75.33,1.69-.14,2.43-.19"/><path id="path128" class="cls-21" d="M60.71,176.24c.2-.88,1-1.34,1.72-1.82a14.3,14.3,0,0,1,1.7,3.33,16.92,16.92,0,0,1-3.42-1.51"/><path id="path130" class="cls-20" d="M64.86,183.28c0,.72.07,1.87.11,2.62a2.81,2.81,0,0,0,1-.22,15.48,15.48,0,0,0-.37-2.51C65.45,183.11,65.1,183.29,64.86,183.28Zm-7.45-4.1A38,38,0,0,0,59,187.09a10.54,10.54,0,0,0,5.75.11c-.3-1.45-.16-3.21-.34-4.76-.14-1.16-.07-2.33-.24-3.51A19.36,19.36,0,0,0,57.41,179.18Zm7.24-.25c0,1.24,0,2.47.15,3.72.48-.07.8-.12,1.24-.22a26.48,26.48,0,0,0-.42-3.61A3,3,0,0,0,64.65,178.93Zm2.43-.2a2.81,2.81,0,0,0-.71,0c.09,1,.35,2.13.44,3.19.34,0,.52-.15.8-.2a6.35,6.35,0,0,0-.53-3Zm3.68,3.36a1.57,1.57,0,0,0,.95-1.94,9.19,9.19,0,0,0-.62-2.12c-.2-.29-.7-.66-1.11-.4-.66.43-1.83.55-2.31,1.07a18.22,18.22,0,0,1,.42,2.94c.84.05,1.85-.24,2.53.07a8.66,8.66,0,0,0-1.52.38,3.31,3.31,0,0,0,1.66,0Zm-6.62-4.34a15.53,15.53,0,0,0-1.69-3.33c-.73.49-1.54.94-1.74,1.82A16.77,16.77,0,0,0,64.14,177.75Zm1.23-3.63a14.82,14.82,0,0,1-.49,3.63,26.92,26.92,0,0,0,2-3.14A1.17,1.17,0,0,0,65.37,174.12ZM64,173.63c-.29,0-.52.32-.89.17l-.25.29a21.31,21.31,0,0,1,1.81,3.53,15.16,15.16,0,0,0,.37-3.53C64.55,174.1,64.29,173.65,64,173.63Zm-.91-1.19a3.16,3.16,0,0,0,.11.83C64.29,173.61,64.1,171.75,63.07,172.44Zm-1.21-.4a6.58,6.58,0,0,0-1.81-.66c-.76-.15-.68,1-.65,1.75a5.62,5.62,0,0,0,.43,1.52c.06.18.07.36.22.4a3.76,3.76,0,0,0,1.37-.43,15.29,15.29,0,0,0,1.37-1c0-.16,0-.31,0-.44a2.23,2.23,0,0,0-1-.25c.26-.14.66-.14.9-.29a.5.5,0,0,1,0-.17A1.93,1.93,0,0,1,61.86,172Zm-4.56-.83c-.39.39,1.11.94,1.59,1,0-.26.15-.5.11-.67A5.11,5.11,0,0,1,57.3,171.21Zm4.87.19s-.05,0-.05,0a2,2,0,0,0,1.57.45c.31-.23.59-.49.92-.69C63.85,171.26,62.91,171.73,62.17,171.4Zm4.46,1.35c0-.45-.14-1.35-.41-1.52-.58-.34-1.6.69-2,.84a1.88,1.88,0,0,1,.14.42,1.19,1.19,0,0,1,.79.1,1.38,1.38,0,0,0-.71.15c-.07.18,0,.42,0,.68a8.77,8.77,0,0,0,2.08.29A1.58,1.58,0,0,0,66.63,172.75Zm-10-1.15c-.12-.08-1-1.17-1.08-1.13a17.81,17.81,0,0,0-4.2,2.61,23,23,0,0,1,1.78,8.83c1.38.64,2.6,1.59,4.48,1.68-.22-1.53-.41-2.91-.53-4.36-.48-.2-1.15,0-1.59-.07,0-.53.67-.23.73-.58s-.37-.29-.23-.72c.34.13.53.4.88.51.35-.74,0-2,0-2.65,0-.11.05-.64.31-.55s0,1.4,0,2a3.31,3.31,0,0,0,.15,1.4,53,53,0,0,1,5.62-.47,12.18,12.18,0,0,1-1.5-.68c-.3-.18-1.27-.53-1.35-.82-.14-.47.36-.71.45-1.11-.92.51-1.1-.48-1.32-1.17a8.72,8.72,0,0,1-.35-1.47,15.37,15.37,0,0,1-2.31-1.23Zm9.19-1c1.25-.61,1.49,2.3,1,3.23.09.27.35.38.45.64-.71,1.26-1.49,2.45-2.21,3.69.53-.32,1.3,0,1.93-.31.23-.1.39-.61.57-1a21.2,21.2,0,0,0,1.2-3.73,4.34,4.34,0,0,0,.17-1c-.06-.39-.6-.69-.88-.94-.5-.46-.83-.86-1.36-1.3-.22.32-.69.54-.86.79ZM53.75,159.39c-.6.66-.48,1.91-.4,2.79a1.62,1.62,0,0,1,2.52,1.22c.52,0,.19-.64.1-1.05-.31-1.34.51-2.79,0-4a3.28,3.28,0,0,0-2.26,1Zm4.32-3.84a6.07,6.07,0,0,0-3.66,2.6,10,10,0,0,1,1.16-.31,5,5,0,0,0,.56,0c.37-.09.68-.91,1-1.23s.6-.42.82-.71c.15-.07.35-.07.37-.28C58.21,155.58,58.14,155.53,58.07,155.55Zm7.1.36c-1.41-.79-3.82-1.4-5.32-.64-1.22.6-2.86,1.61-3.42,2.87.52,1.23-.15,2.35-.19,3.59,0,.66.31,1.25.34,2-.18.3-.72.33-1.11.31-.12-.64-.35-1.35-1-1.42a1.53,1.53,0,0,0-1.65,1.48c-.06.94.72,2.51,1.82,2.4.42,0,.53-.46,1-.46.25.5-.38.65-.45,1a3.65,3.65,0,0,0,.1.63,8.47,8.47,0,0,0,1.08,2.51c.56.8,1.65.92,2.83,1,.2-.45,1-.41,1.49-.3A5,5,0,0,1,59,169.52a3.34,3.34,0,0,1-1.11-2c1,1.39,1.85,2.62,3.68,3.24a4.94,4.94,0,0,0,4.08-1,4.7,4.7,0,0,0,1-1.26,10.71,10.71,0,0,0,1.61-6.45,7,7,0,0,0-.37-2.58c-.34-.69-1.49-1.29-2.16-.67-.12-.66.57-1.07,1.36-.84a7.8,7.8,0,0,0-2-2.1Zm2.62,21.82c1.11-.55,3.17-1.48,3.87,0a10.76,10.76,0,0,1,.68,2c.19.8-.2,2.47-1,2.74a4.88,4.88,0,0,1-2.44,0,1.8,1.8,0,0,1-.3-.38,3.25,3.25,0,0,0-1.69.28c0,.47-.26.54-.56.63-.22.86.44,2,.27,2.75-.11.56-.79.64-1.3.75a5.53,5.53,0,0,0,.06.84,1.24,1.24,0,0,1-1.12.72,14.44,14.44,0,0,1-5.6-.27c-.43-1.06-.76-2.35-1.13-3.56-1.5.17-2.73-.65-3.88-1.17-.4-.18-1-.29-1.1-.6a5.32,5.32,0,0,1-.12-1.45,20.8,20.8,0,0,0-.55-4.24c-.16-.66-.46-1.23-.67-1.86a12.52,12.52,0,0,1-.6-1.89c-.12-.86.69-.9,1.21-1.28.8-.58,1.43-.89,2.29-1.42a5,5,0,0,0,1.12-.73c.18-.35-.3-.86-.42-1.13a3.49,3.49,0,0,1-.34-1.26,2.4,2.4,0,0,1-1.62-1,4,4,0,0,1-.45-3.44c0-.1.22-.26.25-.4a5,5,0,0,0-.11-.92c-.05-1.47.25-2.75,1.24-3.2.41-1.61,1.85-2.14,3.22-2.94a8.42,8.42,0,0,1,1.65-.69c2.08-.77,5.26-.62,7,.68A9.19,9.19,0,0,1,68,157.89c1.11,2.23,1,6,.26,8.68a10.71,10.71,0,0,1-.46,1.34c-.15.3-.6.92-.55,1.19s1,1,1.25,1.23c.38.37,1.09.85,1.16,1.31a4.48,4.48,0,0,1-.36,1.64c-.46,1.58-.91,3-1.46,4.45"/><path id="path132" class="cls-14" d="M60.42,166.76c.06-.08.4-.2.85,0,0,0-.55.1-.51,1l-.23,0s-.22-.82-.11-1"/><path id="path134" class="cls-22" d="M64.41,174.61a.25.25,0,1,1-.24-.25.24.24,0,0,1,.24.25"/><path id="path136" class="cls-22" d="M64.67,175.77a.25.25,0,1,1-.24-.24c.12,0,.24.11.24.24"/></g><g class="cls-23"><path d="M90.94,165.57l-.66.1c-.18,0-.38.08-.6.14a.67.67,0,0,0-.51.37,1.62,1.62,0,0,0-.11.61v7.52a4.11,4.11,0,0,1-.42,1.9,4,4,0,0,1-1.15,1.45,5.43,5.43,0,0,1-1.65.87,6.28,6.28,0,0,1-2,.29A4.61,4.61,0,0,1,81,178a2.83,2.83,0,0,1-1.1-2.38,2.16,2.16,0,0,1,.5-1.48,1.73,1.73,0,0,1,1.4-.58,1.77,1.77,0,0,1,1.32.49,1.63,1.63,0,0,1,.49,1.22,1.69,1.69,0,0,1-.42,1.13,6.84,6.84,0,0,1-1,1v.14a.75.75,0,0,0,.38.33,1.37,1.37,0,0,0,.59.13A2.18,2.18,0,0,0,85,177.1a4,4,0,0,0,.65-2.5v-7.71a1.55,1.55,0,0,0-.1-.58,1.06,1.06,0,0,0-.51-.41,3.29,3.29,0,0,0-.7-.2l-.68-.13v-.75h7.29v.75Z"/><path d="M102.34,176.17a6.08,6.08,0,0,1-.81,1,4.64,4.64,0,0,1-1.08.83,5.23,5.23,0,0,1-1.3.55,5.74,5.74,0,0,1-1.52.19,6.82,6.82,0,0,1-2.46-.41,5.1,5.1,0,0,1-1.71-1.08,4.31,4.31,0,0,1-1-1.61,6,6,0,0,1-.33-2,5.15,5.15,0,0,1,.35-1.88,5.29,5.29,0,0,1,1-1.6,4.92,4.92,0,0,1,1.65-1.1,5.54,5.54,0,0,1,2.23-.43,6.34,6.34,0,0,1,2.22.33,4.06,4.06,0,0,1,1.43.9,3.17,3.17,0,0,1,.79,1.3,4.72,4.72,0,0,1,.25,1.56v.62H95.6a5,5,0,0,0,.76,3,3.16,3.16,0,0,0,4,.53,4.88,4.88,0,0,0,1.23-1.25Zm-3.68-3.65a9.52,9.52,0,0,0-.06-1.18,3.73,3.73,0,0,0-.2-1,1.5,1.5,0,0,0-.45-.68,1.07,1.07,0,0,0-.71-.24,1.33,1.33,0,0,0-1.18.75,5.12,5.12,0,0,0-.48,2.38Z"/><path d="M115.94,178.47h-5.78v-.7l.43-.06a1.59,1.59,0,0,0,.4-.09.65.65,0,0,0,.29-.3,1.76,1.76,0,0,0,.08-.6v-4.5a2.5,2.5,0,0,0-.36-1.48,1.23,1.23,0,0,0-1.06-.49,2.53,2.53,0,0,0-.73.11,2.9,2.9,0,0,0-.65.34,1.78,1.78,0,0,0-.45.4l-.29.35v5.16a1.53,1.53,0,0,0,.09.56.7.7,0,0,0,.32.34,1.77,1.77,0,0,0,.38.15,2.39,2.39,0,0,0,.45.09v.7h-5.85v-.7a3.87,3.87,0,0,0,.49-.05,2.27,2.27,0,0,0,.43-.1.67.67,0,0,0,.42-.32,1.25,1.25,0,0,0,.11-.58v-5.59a1.26,1.26,0,0,0-.15-.59,1.22,1.22,0,0,0-.41-.46,1.39,1.39,0,0,0-.44-.19,2.49,2.49,0,0,0-.58-.11v-.7l4.57-.25.16.15v1.4h0c.17-.17.39-.36.65-.58a6.7,6.7,0,0,1,.71-.54,3.7,3.7,0,0,1,.93-.4,4.51,4.51,0,0,1,1.23-.16,3,3,0,0,1,2.35.89,3.43,3.43,0,0,1,.78,2.36v4.7a1.35,1.35,0,0,0,.11.56.82.82,0,0,0,.4.35,3.3,3.3,0,0,0,.38.13,3.43,3.43,0,0,0,.52.1v.7Z"/><path d="M129.17,178.47h-4.52c-.56-1-1.07-1.81-1.53-2.49s-.91-1.31-1.32-1.9l-.56.48v2.1a1.28,1.28,0,0,0,.1.56.63.63,0,0,0,.38.33,2.43,2.43,0,0,0,.41.14,3.85,3.85,0,0,0,.47.08v.7h-6v-.7c.17,0,.33,0,.48-.06a2.31,2.31,0,0,0,.43-.09.72.72,0,0,0,.42-.33,1.35,1.35,0,0,0,.11-.57V166a1.6,1.6,0,0,0-.14-.66,1.13,1.13,0,0,0-.41-.52,1.81,1.81,0,0,0-.55-.19,4.27,4.27,0,0,0-.67-.09v-.7l4.79-.25.15.15v9.93c.48-.43,1-.92,1.6-1.48s1.07-1,1.42-1.38a1.47,1.47,0,0,0,.36-.49,1.11,1.11,0,0,0,0-.21c0-.11-.09-.2-.3-.28a3.72,3.72,0,0,0-.91-.21v-.68h4.88v.67a8.89,8.89,0,0,0-1.46.5,7.57,7.57,0,0,0-1.1.63c-.26.18-.52.36-.76.55a10.63,10.63,0,0,0-.85.71l1.73,2.53c.54.78,1.1,1.6,1.67,2.46a1.45,1.45,0,0,0,.74.6,3.54,3.54,0,0,0,.89.19v.69Z"/><path d="M135.35,178.47h-6.07v-.7c.17,0,.33,0,.49-.06a1.32,1.32,0,0,0,.41-.09.82.82,0,0,0,.44-.33,1.17,1.17,0,0,0,.13-.57v-5.6a1.12,1.12,0,0,0-.16-.58,1.36,1.36,0,0,0-.38-.41,1.61,1.61,0,0,0-.52-.22,4.68,4.68,0,0,0-.64-.14v-.7l4.72-.24.15.15v7.61a1.11,1.11,0,0,0,.15.58.89.89,0,0,0,.41.35,2.29,2.29,0,0,0,.42.15,3.71,3.71,0,0,0,.48.1v.7Zm-1.41-13.11a1.62,1.62,0,0,1-.56,1.24,2,2,0,0,1-2.66,0,1.66,1.66,0,0,1,0-2.49,2,2,0,0,1,2.68,0A1.61,1.61,0,0,1,133.94,165.36Z"/><path d="M148.93,178.47h-5.79v-.7l.44-.06a1.59,1.59,0,0,0,.4-.09.65.65,0,0,0,.29-.3,1.76,1.76,0,0,0,.08-.6v-4.5a2.58,2.58,0,0,0-.36-1.48,1.23,1.23,0,0,0-1.06-.49,2.48,2.48,0,0,0-.73.11,2.7,2.7,0,0,0-.65.34,1.68,1.68,0,0,0-.46.4l-.28.35v5.16a1.34,1.34,0,0,0,.09.56.7.7,0,0,0,.32.34,1.77,1.77,0,0,0,.38.15,2.39,2.39,0,0,0,.45.09v.7H136.2v-.7a4.07,4.07,0,0,0,.49-.05,2.27,2.27,0,0,0,.43-.1.67.67,0,0,0,.42-.32,1.25,1.25,0,0,0,.11-.58v-5.59a1.39,1.39,0,0,0-.15-.59,1.22,1.22,0,0,0-.41-.46,1.39,1.39,0,0,0-.44-.19,2.58,2.58,0,0,0-.59-.11v-.7l4.58-.25.15.15v1.4h0c.18-.17.4-.36.66-.58a6.7,6.7,0,0,1,.71-.54,3.55,3.55,0,0,1,.93-.4,4.41,4.41,0,0,1,1.23-.16,3,3,0,0,1,2.35.89,3.43,3.43,0,0,1,.78,2.36v4.7a1.21,1.21,0,0,0,.11.56.82.82,0,0,0,.4.35,2.74,2.74,0,0,0,.38.13,3.43,3.43,0,0,0,.52.1v.7Z"/><path d="M154.27,178.79a6.27,6.27,0,0,1-1.82-.27,5.92,5.92,0,0,1-1.38-.59l-.28.66H150l-.12-3.58h.7a4.79,4.79,0,0,0,.48,1,6,6,0,0,0,.76,1,4,4,0,0,0,1,.72,2.57,2.57,0,0,0,1.25.3,2,2,0,0,0,1.29-.34,1.24,1.24,0,0,0,.43-1,1,1,0,0,0-.19-.63,1.75,1.75,0,0,0-.54-.44,6.36,6.36,0,0,0-.82-.33l-1.1-.32a10.91,10.91,0,0,1-1.12-.39,4.31,4.31,0,0,1-1-.61,3.08,3.08,0,0,1-.69-.9,2.75,2.75,0,0,1-.26-1.26,2.6,2.6,0,0,1,1.13-2.19,4.94,4.94,0,0,1,3-.83,6.38,6.38,0,0,1,1.62.18,8.28,8.28,0,0,1,1.23.38l.2-.56h.73l.15,3.28h-.67a3.94,3.94,0,0,0-1.15-1.72,2.66,2.66,0,0,0-1.77-.73,2.07,2.07,0,0,0-1.16.3,1,1,0,0,0-.42.86,1.1,1.1,0,0,0,.61,1.06,8.51,8.51,0,0,0,1.74.61,5.86,5.86,0,0,1,2.52,1.2,2.6,2.6,0,0,1,.79,2,2.83,2.83,0,0,1-1.23,2.44A5.29,5.29,0,0,1,154.27,178.79Z"/></g></g></svg>