<svg id="Layer_1" data-name="Layer 1" xmlns="http://www.w3.org/2000/svg" viewBox="0 0 235 235"><defs><style>.cls-1{fill:#fff;}.cls-2{fill:#2a3141;}.cls-3{fill:#f5b54d;}.cls-4{fill:#cc61a8;}.cls-5{fill:#bacc54;}.cls-6{fill:#21abb0;}</style></defs><title>il-index-step-2</title><circle class="cls-1" cx="117.5" cy="117.5" r="117.5"/><g id="Layer_2" data-name="Layer 2"><g id="Layer_1-2" data-name="Layer 1-2"><path class="cls-2" d="M176.32,102h6.19a.85.85,0,0,1,.86.86v23.46a.86.86,0,0,1-.86.86h-6.19a.86.86,0,0,1-.86-.86V102.86A.86.86,0,0,1,176.32,102Z"/><path class="cls-2" d="M197.43,102.86v7a.25.25,0,0,1-.25.24.2.2,0,0,1-.14-.06,6.81,6.81,0,0,0-4.2-1.4c-4.47,0-7.46,3.84-7.46,9.44,0,5.21,2.69,9.44,7.46,9.44a6.7,6.7,0,0,0,4.2-1.39.24.24,0,0,1,.33,0,.24.24,0,0,1,.06.15h0a.85.85,0,0,0,.86.85h6.19a.86.86,0,0,0,.86-.85V102.86a.86.86,0,0,0-.86-.86h-6.2A.85.85,0,0,0,197.43,102.86ZM195.58,121c-1.19,0-1.86-1.29-1.86-2.88s.75-2.88,1.86-2.88,1.85,1.17,1.85,2.88-.68,2.88-1.85,2.88Z"/><path class="cls-2" d="M163.2,108.65c-6.37,0-10.21,4.23-10.21,9.44s3.84,9.44,10.21,9.44,10.21-4.23,10.21-9.43S169.57,108.65,163.2,108.65Zm0,12.32c-1.18,0-1.85-1.29-1.85-2.88s.74-2.88,1.85-2.88,1.85,1.17,1.85,2.88S164.38,121,163.2,121Z"/><path class="cls-2" d="M99.05,120.14a.44.44,0,0,0,.43-.36,9.51,9.51,0,0,0,.13-1.68c0-5.22-3.84-9.43-10.21-9.43s-10.21,4.23-10.21,9.44,3.84,9.44,10.21,9.44c4.87,0,8.26-2.47,9.59-6a.44.44,0,0,0-.28-.56l-.12,0H91.31a.42.42,0,0,0-.31.13,2.12,2.12,0,0,1-1.6.72,2.3,2.3,0,0,1-2.07-1.39.22.22,0,0,1,.11-.29l.08,0Zm-9.65-5.79a2.28,2.28,0,0,1,2.06,1.38.21.21,0,0,1-.11.29s0,0-.08,0H87.54a.24.24,0,0,1-.22-.23.16.16,0,0,1,0-.08A2.27,2.27,0,0,1,89.4,114.35Z"/><path class="cls-2" d="M144.28,108.65a6.78,6.78,0,0,0-4.2,1.41.24.24,0,0,1-.33,0,.19.19,0,0,1-.05-.14v-7a.86.86,0,0,0-.86-.86h-6.19a.85.85,0,0,0-.86.86h0v23.47a.85.85,0,0,0,.86.85h6.19a.86.86,0,0,0,.86-.85h0a.23.23,0,0,1,.23-.24.25.25,0,0,1,.15,0,6.71,6.71,0,0,0,4.2,1.38c4.79,0,7.47-4.22,7.47-9.42C151.75,112.49,148.76,108.65,144.28,108.65ZM141.56,121c-1.18,0-1.85-1.29-1.85-2.88s.74-2.88,1.85-2.88,1.85,1.17,1.85,2.88-.66,2.88-1.85,2.88Z"/><path class="cls-2" d="M122.8,108.65A6.89,6.89,0,0,0,118,110.6a5.56,5.56,0,0,0-7.84-.61,5.43,5.43,0,0,0-.81.85v-1a.86.86,0,0,0-.85-.86h-6.2a.86.86,0,0,0-.86.85h0v16.44a.87.87,0,0,0,.86.86h7.07V116.46a1.12,1.12,0,0,1,1.12-1.12h0a1.12,1.12,0,0,1,1.12,1.12v9.86a.85.85,0,0,0,.85.85h7.06V116.46a1.12,1.12,0,0,1,1.12-1.12h0a1.12,1.12,0,0,1,1.12,1.12h0v9.86a.85.85,0,0,0,.86.85h6.19a.85.85,0,0,0,.86-.85h0v-11A6.48,6.48,0,0,0,122.8,108.65Z"/><path class="cls-3" d="M34.74,103.2H62.87a.86.86,0,0,1,.87.86v6.63a.86.86,0,0,1-.87.85H34.74a.86.86,0,0,1-.86-.85v-6.63A.86.86,0,0,1,34.74,103.2Z"/><path class="cls-4" d="M30.52,113.93H43.44a.86.86,0,0,1,.86.85v6.64a.86.86,0,0,1-.86.85H30.52a.86.86,0,0,1-.86-.85v-6.64A.86.86,0,0,1,30.52,113.93Z"/><path class="cls-5" d="M48.63,113.93h6.64a.86.86,0,0,1,.86.85v6.64a.86.86,0,0,1-.86.85H48.63a.86.86,0,0,1-.87-.85v-6.64A.86.86,0,0,1,48.63,113.93Z"/><path class="cls-6" d="M62.87,133H34.74a.86.86,0,0,1-.86-.86v-6.63a.86.86,0,0,1,.86-.85H62.87a.86.86,0,0,1,.87.85v6.63A.86.86,0,0,1,62.87,133Z"/></g></g></svg>