<svg xmlns="http://www.w3.org/2000/svg" xmlns:xlink="http://www.w3.org/1999/xlink" viewBox="0 0 300 300"><defs><style>.cls-1{fill:url(#New_Gradient_Swatch_copy_3);}.cls-2{fill:url(#New_Gradient_Swatch);}.cls-3{fill:url(#New_Gradient_Swatch-2);}.cls-4{fill:#f5f6f8;}.cls-5{fill:#e2e5eb;}.cls-6{fill:#c7cbd3;}.cls-12,.cls-7{fill:#2a3141;}.cls-10,.cls-8{fill:#21abb0;}.cls-11,.cls-9{fill:none;}.cls-10,.cls-11,.cls-12,.cls-9{stroke:#fff;stroke-width:1.5px;}.cls-10,.cls-9{stroke-miterlimit:10;}.cls-11,.cls-12{stroke-linecap:round;stroke-linejoin:round;}</style><linearGradient id="New_Gradient_Swatch_copy_3" x1="132.59" y1="176.11" x2="289" y2="176.11" gradientUnits="userSpaceOnUse"><stop offset="0" stop-color="#f5f6f8"/><stop offset="1" stop-color="#f5f6f8"/></linearGradient><linearGradient id="New_Gradient_Swatch" x1="19.24" y1="186.03" x2="154.7" y2="186.03" xlink:href="#New_Gradient_Swatch_copy_3"/><linearGradient id="New_Gradient_Swatch-2" x1="80.29" y1="115.54" x2="154.38" y2="115.54" xlink:href="#New_Gradient_Swatch_copy_3"/></defs><title>il-product-features-anti-pattern</title><g id="Layer_5" data-name="Layer 5"><path class="cls-1" d="M189.49,250.05c5.59-.72,13.75-6,17.79-9.89,7.08-6.91,8.8-15.27,11.66-24.74,2.56-8.46,3.22-17.52,6.93-25.54,4.24-9.19,12.15-16.22,20.7-21.64s17.88-9.48,26.68-14.48c6.77-3.85,13.77-9,15.4-16.64,1-4.89-.36-10-2.64-14.47a38.71,38.71,0,0,0-18.6-17.57c-14.4-6.37-31.15-3.34-46.17,1.38A224.56,224.56,0,0,0,148,145.64c-5.85,4.7-11.7,10-14.13,17.14-2.77,8.07-.66,16.9,1.53,25.15,1.59,6,3.23,12,5,17.93a77.56,77.56,0,0,0,6.15,15.48c4.67,8.28,7.94,17.5,18.48,24.09S181.38,251.08,189.49,250.05Z"/><path class="cls-2" d="M124.15,182.17c-9.27-2.59-19.38-4-26.79-10.1-3.48-2.9-6.11-6.66-8.7-10.38L73.84,140.4c-3.18-4.57-6.41-9.18-10.56-12.9S53.9,121,48.34,120.83a22.4,22.4,0,0,0-9.4,1.93c-9.77,4.12-16.88,13.57-19,24-2.26,11.3,1,22.93,4.88,33.77,5.46,15.24,12.33,30.18,22.48,42.79S71.21,246.08,87,249.81a46.88,46.88,0,0,0,18,.94c7-1.09,13.62-4.09,19.93-7.38,6.67-3.48,14.94-8.51,21.44-14.41,8.17-7.42,12.1-20,3.43-32.37C144.39,188.86,133.42,184.77,124.15,182.17Z"/><path class="cls-3" d="M81.28,65.4l69.15-51.86a2.47,2.47,0,0,1,3.95,2V163.7a2.46,2.46,0,0,1-1,2L84.24,217.54a2.47,2.47,0,0,1-3.95-2V67.38A2.49,2.49,0,0,1,81.28,65.4Z"/><path class="cls-4" d="M82.43,144.78a24.6,24.6,0,0,0-.2-5.44,14.5,14.5,0,0,1-.06-4.73,59.31,59.31,0,0,0,0-8.37,14.39,14.39,0,0,1,0-2.41c0-.43.06-1.7,0-2.82,0-1.34,0-3,.09-4.82a44.69,44.69,0,0,0,.1-7.16,62.68,62.68,0,0,1-.1-7.06,12.54,12.54,0,0,0-.08-2.89,9.06,9.06,0,0,1,0-3,7.68,7.68,0,0,0,0-2.66,4.56,4.56,0,0,1,0-1.47,10.17,10.17,0,0,0,0-1.54c0-.3-.08-2.08-.09-4s0-4,0-4.68a20.62,20.62,0,0,1,.13-2.41,16.66,16.66,0,0,0,.11-3c-.06-2.3-.06-2.45,0-4.7A32.33,32.33,0,0,0,82.1,68l0-.41a1.05,1.05,0,0,0,0-.28,2,2,0,0,1-.06-.23,3.29,3.29,0,0,1,0-.44,1.66,1.66,0,0,0-.34-.9c-.15-.21-.24-.32-.42-.33a1.52,1.52,0,0,0-.92.51,3,3,0,0,0-.72,1.14c0,.23,0,.4,0,.55V71c0,2.12,0,5-.06,6.4,0,1.59,0,3,.07,3.67a19.24,19.24,0,0,1,0,3.42c-.07,1.26-.12,2.68-.12,3.17s0,3.85,0,7.48c0,4.9,0,7-.08,8a12.9,12.9,0,0,0,0,2.78,42.54,42.54,0,0,1,0,6.44,17.13,17.13,0,0,0-.07,5c.24,3.74.39,6.51.39,7.13,0,.28-.08,1.25-.18,2.17a36.74,36.74,0,0,0-.13,4.64c0,1.76,0,3.73-.07,4.8a23.2,23.2,0,0,0,0,3.34c.07,1,.12,5.11.14,11.34,0,9.58,0,9.83-.15,10.83a22.89,22.89,0,0,0-.14,4.79,25.77,25.77,0,0,0,.2,4.44c.18.82.2,2,.1,8.78-.05,2.75,0,5.46,0,6.56s0,2.37,0,3.16a20.77,20.77,0,0,0,0,2.73,20.91,20.91,0,0,1,0,3.17c-.06,1-.11,2.14-.1,2.62s0,3.69.06,7.1c0,5.16,0,6.43-.1,7.52A16.84,16.84,0,0,0,79.2,215l0,.56a4,4,0,0,0,.14,1A3.51,3.51,0,0,0,82.7,219a3.38,3.38,0,0,0,1.27-.25,4,4,0,0,0,.93-.57,9.07,9.07,0,0,1,2-1.42,10.18,10.18,0,0,0,2.6-1.91c.84-.82,11.3-8.65,12.88-9.64a35.83,35.83,0,0,0,3.73-2.83c3.46-2.82,7.08-5.53,9.34-7a66.22,66.22,0,0,0,7.37-5.53,31.35,31.35,0,0,1,3-2.49l12.09-9c5.58-4.17,11-8.2,12.12-9s2.78-2,4-3a3.49,3.49,0,0,0,1.25-2.65v-.87l.05-4.05c0-2.51.08-6.47.06-8.8s0-5.42.08-6.85.16-3.74.22-5.13.07-2.94,0-3.42-.12-1.71-.19-2.72a21.36,21.36,0,0,1,0-3c0-.45,0-14.74.07-30.38s0-32.63,0-38.51c0-.83.05-4.08.08-7.21s0-6.32,0-7.1-.07-6.48-.06-12.68V18.08c0-.76,0-1.37,0-1.89v-.74a3.62,3.62,0,0,0-.11-.89,4,4,0,0,0-1.52-2.3,3.65,3.65,0,0,0-2.07-.73,3.85,3.85,0,0,0-1.45.22,5.55,5.55,0,0,0-1.32.76c-1.32.93-3.16,2.27-5.92,4.32-2.19,1.62-5,3.65-6.27,4.53-1.58,1.1-3.63,2.62-6.6,4.92l-11.42,8.65c-3.9,2.93-8.13,6.14-9.4,7.15a26.3,26.3,0,0,1-3.6,2.59,32.42,32.42,0,0,0-3.81,2.69c-7.78,6-16,12-17.23,12.67a12.49,12.49,0,0,0-3,2.22,2,2,0,0,1-.43.48,3.76,3.76,0,0,0-.64.9c-.34.63-.34.75,0,1.24s.46.53,1.18.31a10.83,10.83,0,0,0,3.06-1.54c.29-.24,1.1-.79,1.8-1.24a19.66,19.66,0,0,0,2.7-2c1.55-1.31,4.54-3.51,8.6-6.32a24.52,24.52,0,0,0,3-2.2,43.26,43.26,0,0,1,5.57-4.36c1.18-.8,2.54-1.7,3-2s2.64-1.88,4.82-3.51c3.45-2.59,4-3,4.37-3.47s1-1,7.87-6.07c6-4.48,7.65-5.67,8.41-6.1a40.92,40.92,0,0,0,5.2-3.75,61.94,61.94,0,0,1,6.73-5c1-.63,1.87-1.25,2.8-1.91l1.39-1a.9.9,0,0,1,.67-.16.94.94,0,0,1,.61.33,1.06,1.06,0,0,1,.18.35,1.52,1.52,0,0,1,0,.23c0,.1,0,.36,0,.54,0,1.6-.06,3.29-.08,4.71-.09,4.17-.08,5.86,0,9.12.15,5.06.16,8,0,10.84-.07,1.55-.1,8.64-.11,22.11,0,17.07,0,20.06-.14,21.54a46.15,46.15,0,0,0,.07,6.79c.1,1.41.19,16.74.14,21-.06,4.5,0,8.47.08,8.78a12.49,12.49,0,0,1,0,3.26c-.1.93-.24,15.41-.3,32.31,0,1.36,0,2.75,0,4.09,0,.67,0,1.33,0,2v1.18l0,.1a.52.52,0,0,1-.1.18.46.46,0,0,0-.07.07l-.15.11-1.18.86-1.63,1.17c-4.33,3.06-8.23,6-10.05,7.64a44.39,44.39,0,0,1-6.27,4.7,75.89,75.89,0,0,0-7.36,5.41,33,33,0,0,1-3.85,2.84c-1.86,1.25-3.14,2.18-4.27,3.08l-10,7.81-1.07.69c-1.32.81-5.73,4.15-7.28,5.51a32.52,32.52,0,0,1-4.07,3,22.71,22.71,0,0,0-4,3c-1.3,1.22-1.08,1.06-5.47,4-.88.59-1.75,1.23-2.49,1.82l-.32.25a1,1,0,0,1-.23.11.42.42,0,0,1-.44-.12.31.31,0,0,1,0-.39.22.22,0,0,0,0-.08s0,0,0,0l0-.17c0-.23,0-.48,0-.74a6.41,6.41,0,0,0-.06-1.26,21.61,21.61,0,0,1,.05-2.23,12.85,12.85,0,0,0-.05-3.09,20.38,20.38,0,0,1-.07-5.15,67.83,67.83,0,0,0,.08-8.61,27.93,27.93,0,0,1,0-3.65,5.69,5.69,0,0,0,0-2.07c-.37-1.67-.37-1.73-.12-2.67a5.83,5.83,0,0,0,.1-2.85,12.44,12.44,0,0,1,0-3.51,24.64,24.64,0,0,0,0-5.74,5.8,5.8,0,0,1,0-2.81,11,11,0,0,0,0-3.67,35.36,35.36,0,0,1,0-6.35c.11-1.25.13-2.65.11-7.21,0-3.83-.07-5.85-.14-6.24a2.33,2.33,0,0,1,0-1.2C82.28,146,82.38,145.3,82.43,144.78Z"/><path class="cls-5" d="M106,83.93l69.16-51.87a2.47,2.47,0,0,1,4,2V182.22a2.49,2.49,0,0,1-1,2l-69.15,51.86a2.47,2.47,0,0,1-4-2V85.9A2.46,2.46,0,0,1,106,83.93Z"/><path class="cls-5" d="M107.13,163.3a24.63,24.63,0,0,0-.2-5.44,14,14,0,0,1-.06-4.73,59.18,59.18,0,0,0,0-8.36,13.37,13.37,0,0,1,0-2.41c0-.44.06-1.71,0-2.83,0-1.34,0-3,.09-4.81a44.82,44.82,0,0,0,.1-7.17,62.68,62.68,0,0,1-.1-7.06,13.24,13.24,0,0,0-.08-2.89,9.06,9.06,0,0,1,0-3,7.42,7.42,0,0,0,0-2.66,4.33,4.33,0,0,1,0-1.47,11.68,11.68,0,0,0,0-1.54c0-.3-.08-2.08-.1-4s0-4,0-4.69a20.39,20.39,0,0,1,.14-2.4,17.72,17.72,0,0,0,.11-3c-.06-2.31-.06-2.46,0-4.71a32.33,32.33,0,0,0-.17-3.55l0-.41a1.05,1.05,0,0,0,0-.28.9.9,0,0,1-.06-.22c0-.15,0-.3-.06-.44a1.69,1.69,0,0,0-.33-.9c-.16-.22-.24-.33-.43-.34a1.48,1.48,0,0,0-.91.52,2.85,2.85,0,0,0-.72,1.13,3.82,3.82,0,0,0,0,.56v3.37c0,2.13,0,5-.06,6.4,0,1.59,0,3,.07,3.67a19.36,19.36,0,0,1,0,3.43c-.07,1.25-.13,2.68-.12,3.16s0,3.86,0,7.48c0,4.9,0,7-.07,8a12.29,12.29,0,0,0,0,2.78,42.52,42.52,0,0,1,0,6.44c-.25,1-.26,2.15-.07,5,.24,3.73.39,6.5.39,7.12,0,.28-.08,1.26-.18,2.17a35,35,0,0,0-.13,4.65c0,1.75,0,3.73-.07,4.8a23.21,23.21,0,0,0,0,3.34c.07,1,.12,5.11.14,11.33,0,9.58,0,9.84-.15,10.84a22.77,22.77,0,0,0-.14,4.78,25.94,25.94,0,0,0,.2,4.45c.18.81.2,2,.09,8.77,0,2.76,0,5.46,0,6.56a27.56,27.56,0,0,1,0,3.16,22.73,22.73,0,0,0,0,2.73,19.89,19.89,0,0,1,0,3.18c-.06.95-.1,2.13-.09,2.62s0,3.68.06,7.1c0,5.15,0,6.43-.1,7.52a15.34,15.34,0,0,0-.08,2.4l0,.56a4.61,4.61,0,0,0,.15,1,3.49,3.49,0,0,0,3.33,2.52,3.38,3.38,0,0,0,1.27-.25,4,4,0,0,0,.93-.57,9.07,9.07,0,0,1,2-1.42,10.18,10.18,0,0,0,2.6-1.91c.83-.82,11.3-8.65,12.87-9.63a35.1,35.1,0,0,0,3.74-2.84c3.45-2.82,7.08-5.53,9.34-7a66.22,66.22,0,0,0,7.37-5.53,30.16,30.16,0,0,1,3.05-2.49l12.08-9c5.59-4.17,11.05-8.21,12.13-9s2.78-2,4-3a3.49,3.49,0,0,0,1.07-1.57,3.76,3.76,0,0,0,.18-1.08c0-.27,0-.56,0-.86l.05-4.06c0-2.5.08-6.47.07-8.8s0-5.42.08-6.85.16-3.73.21-5.13.08-2.93.05-3.42-.12-1.71-.19-2.72a20,20,0,0,1-.05-3c0-.45,0-14.74.06-30.38s0-32.63,0-38.5c0-.84,0-4.09.08-7.22s.05-6.31,0-7.1-.07-6.47-.06-12.68V34a4,4,0,0,0-1.64-3.19,3.72,3.72,0,0,0-2.06-.73,3.85,3.85,0,0,0-1.45.23,5.06,5.06,0,0,0-1.32.75c-1.33.93-3.16,2.27-5.92,4.32-2.19,1.62-5,3.66-6.27,4.53C160.07,41,158,42.51,155,44.8l-11.41,8.65c-3.9,2.93-8.13,6.15-9.4,7.15a25.75,25.75,0,0,1-3.6,2.59,33.72,33.72,0,0,0-3.81,2.69c-7.78,6-16,12-17.23,12.67a12.28,12.28,0,0,0-3,2.22,2.26,2.26,0,0,1-.43.49,3.46,3.46,0,0,0-.64.89c-.34.63-.34.75,0,1.24s.46.53,1.19.31a10.83,10.83,0,0,0,3.06-1.54c.29-.24,1.1-.79,1.8-1.24a19.66,19.66,0,0,0,2.7-2c1.55-1.3,4.54-3.5,8.6-6.31a26.51,26.51,0,0,0,2.94-2.2A42.54,42.54,0,0,1,131.44,66c1.18-.8,2.54-1.7,3-2s2.65-1.88,4.83-3.51c3.45-2.58,4-3,4.37-3.47s1-1,7.87-6.06c6-4.49,7.65-5.67,8.41-6.11a39.87,39.87,0,0,0,5.19-3.75,63.5,63.5,0,0,1,6.74-5c1-.64,1.87-1.26,2.8-1.92l1.39-1a1,1,0,0,1,1.28.17.92.92,0,0,1,.17.36.73.73,0,0,1,0,.22v.55c0,1.59-.06,3.29-.08,4.7-.09,4.18-.09,5.87,0,9.12.15,5.06.16,8,0,10.84-.07,1.55-.1,8.64-.11,22.11,0,17.07,0,20.07-.14,21.54a44.79,44.79,0,0,0,.07,6.79c.1,1.41.19,16.74.13,21-.06,4.5,0,8.47.09,8.78a13,13,0,0,1,0,3.26c-.1.94-.24,15.41-.3,32.31,0,1.36,0,2.75,0,4.09,0,.67,0,1.33,0,2v.95a.77.77,0,0,1,0,.23.43.43,0,0,1,0,.11,1,1,0,0,1-.1.17.46.46,0,0,1-.07.07l-.16.11-1.17.86L174,184.79c-4.33,3.05-8.23,6-10,7.64a45.7,45.7,0,0,1-6.27,4.69,74.34,74.34,0,0,0-7.36,5.42,33.89,33.89,0,0,1-3.86,2.83c-1.85,1.26-3.14,2.19-4.26,3.08l-10,7.81c-.11.09-.59.4-1.07.69-1.31.81-5.72,4.16-7.27,5.51a32.32,32.32,0,0,1-4.07,3,22.82,22.82,0,0,0-4,3c-1.3,1.22-1.08,1.06-5.47,4-.88.59-1.75,1.23-2.49,1.82l-.33.26a1.13,1.13,0,0,1-.22.11.44.44,0,0,1-.45-.13.32.32,0,0,1,0-.39l0-.07s0,0,0,0l0-.17c0-.23,0-.48,0-.73a6.31,6.31,0,0,0-.06-1.26c0-.16,0-1.17,0-2.24a12.88,12.88,0,0,0,0-3.08,20.46,20.46,0,0,1-.07-5.16,67.83,67.83,0,0,0,.08-8.61,27.74,27.74,0,0,1,0-3.64,5.74,5.74,0,0,0,0-2.08c-.37-1.67-.37-1.73-.12-2.67a5.83,5.83,0,0,0,.1-2.85,11.73,11.73,0,0,1,0-3.51,24.64,24.64,0,0,0,0-5.74,5.91,5.91,0,0,1,0-2.81,10.5,10.5,0,0,0,0-3.67,36.41,36.41,0,0,1,0-6.35c.11-1.24.13-2.65.1-7.21,0-3.83-.06-5.85-.14-6.24a2.3,2.3,0,0,1,0-1.19C107,164.53,107.08,163.82,107.13,163.3Z"/><path class="cls-6" d="M130.67,102.45l69.15-51.86a2.47,2.47,0,0,1,4,2V200.75a2.48,2.48,0,0,1-1,2l-69.15,51.87a2.48,2.48,0,0,1-4-2V104.43A2.49,2.49,0,0,1,130.67,102.45Z"/><path class="cls-6" d="M131.82,181.82a24.06,24.06,0,0,0-.19-5.44,14.15,14.15,0,0,1-.07-4.72,56.45,56.45,0,0,0,.05-8.37,14.14,14.14,0,0,1,0-2.41c0-.44,0-1.71,0-2.82,0-1.35,0-3,.1-4.82a44.82,44.82,0,0,0,.1-7.17,58.09,58.09,0,0,1-.1-7,13.31,13.31,0,0,0-.08-2.9,8.81,8.81,0,0,1,0-3,7.6,7.6,0,0,0,0-2.65,4.36,4.36,0,0,1,0-1.47,10.08,10.08,0,0,0,0-1.55c0-.29-.07-2.08-.09-4s0-4,0-4.69a18.55,18.55,0,0,1,.14-2.4,17.62,17.62,0,0,0,.11-3c-.06-2.31-.06-2.46,0-4.71a29.87,29.87,0,0,0-.18-3.54l0-.42a2.16,2.16,0,0,0,0-.28.9.9,0,0,1-.06-.22c0-.15,0-.3-.06-.44a1.72,1.72,0,0,0-.33-.9c-.16-.21-.24-.33-.43-.33a1.48,1.48,0,0,0-.92.51,3.13,3.13,0,0,0-.72,1.13c0,.24,0,.41,0,.56v3.38c0,2.12,0,5,0,6.39,0,1.6,0,3,.07,3.68a20.28,20.28,0,0,1,0,3.42c-.07,1.25-.13,2.68-.12,3.17s0,3.85,0,7.47c0,4.9,0,7-.07,8a12.91,12.91,0,0,0,0,2.78,42.66,42.66,0,0,1,0,6.45,17.25,17.25,0,0,0-.06,5c.24,3.73.39,6.5.38,7.13,0,.27-.08,1.25-.17,2.16a35,35,0,0,0-.13,4.65c0,1.76,0,3.73-.07,4.8a23.21,23.21,0,0,0,0,3.34c.07,1,.12,5.11.14,11.33,0,9.59,0,9.84-.15,10.84a23.16,23.16,0,0,0-.15,4.78,28.63,28.63,0,0,0,.2,4.45c.19.81.2,2,.1,8.77,0,2.76,0,5.46,0,6.57s0,2.37,0,3.16a20.85,20.85,0,0,0,0,2.73,22.4,22.4,0,0,1,0,3.17c-.06,1-.1,2.13-.09,2.62s0,3.68.05,7.1c0,5.15,0,6.43-.09,7.52a15.43,15.43,0,0,0-.08,2.41l0,.55a4.51,4.51,0,0,0,.15,1,3.42,3.42,0,0,0,1.14,1.74,3.46,3.46,0,0,0,2.19.78,3.38,3.38,0,0,0,1.27-.25,3.85,3.85,0,0,0,.93-.57,8.54,8.54,0,0,1,2-1.41,10.58,10.58,0,0,0,2.59-1.91c.84-.82,11.31-8.66,12.88-9.64a36.2,36.2,0,0,0,3.74-2.84c3.45-2.81,7.08-5.53,9.34-7a66.15,66.15,0,0,0,7.37-5.54,32.71,32.71,0,0,1,3-2.48l12.09-9c5.59-4.17,11-8.21,12.13-9s2.78-2,4-3a3.56,3.56,0,0,0,1.06-1.58,3.12,3.12,0,0,0,.18-1.07v-.87l.05-4c.05-2.51.08-6.47.07-8.81s0-5.41.08-6.84.15-3.74.21-5.13.08-2.94,0-3.43-.11-1.71-.19-2.71a21.15,21.15,0,0,1,0-3c0-.46,0-14.74.06-30.38s0-32.64,0-38.51c0-.84,0-4.08.08-7.22s.06-6.31,0-7.09S205,76.22,205,70V52.5a4.09,4.09,0,0,0-.11-.89,4,4,0,0,0-1.53-2.3,3.65,3.65,0,0,0-2.07-.73,3.88,3.88,0,0,0-1.45.22,6.17,6.17,0,0,0-1.32.75c-1.32.94-3.15,2.28-5.92,4.32-2.18,1.62-5,3.66-6.26,4.54-1.58,1.09-3.63,2.62-6.61,4.91L168.33,72c-3.91,2.93-8.13,6.15-9.4,7.15a25.75,25.75,0,0,1-3.6,2.59,36,36,0,0,0-3.82,2.69c-7.78,6-16,12-17.22,12.68a12.61,12.61,0,0,0-3,2.21,1.82,1.82,0,0,1-.42.49,3.65,3.65,0,0,0-.64.89c-.35.63-.35.76,0,1.25s.46.52,1.18.31a10.78,10.78,0,0,0,3.07-1.55c.29-.23,1.1-.79,1.8-1.23a19.66,19.66,0,0,0,2.7-2c1.55-1.31,4.54-3.51,8.6-6.32a26.21,26.21,0,0,0,2.94-2.2,43.23,43.23,0,0,1,5.57-4.37c1.19-.8,2.55-1.69,3-2S161.8,80.68,164,79c3.45-2.58,4-3,4.37-3.46s1-1,7.87-6.07c6-4.49,7.65-5.67,8.41-6.11a39.87,39.87,0,0,0,5.19-3.75,63.5,63.5,0,0,1,6.74-4.95c.95-.63,1.87-1.26,2.79-1.92l1.4-1a.93.93,0,0,1,.66-.17A1,1,0,0,1,202,52a1,1,0,0,1,.17.36.78.78,0,0,1,0,.22c0,.11,0,.37,0,.55,0,1.6-.05,3.29-.07,4.7-.09,4.18-.09,5.87,0,9.13.15,5.06.16,8,0,10.84-.07,1.55-.11,8.63-.11,22.1,0,17.07,0,20.07-.15,21.54a46.54,46.54,0,0,0,.08,6.8c.09,1.4.19,16.73.13,21-.06,4.51,0,8.47.09,8.78a13.09,13.09,0,0,1,0,3.26c-.1.94-.23,15.41-.29,32.32,0,1.36,0,2.74,0,4.09,0,.67,0,1.33,0,2v.94a2.17,2.17,0,0,1,0,.24.38.38,0,0,1,0,.1.42.42,0,0,1-.1.17l-.06.07-.16.12-1.17.85-1.63,1.18c-4.33,3.06-8.23,6-10.05,7.64a45.77,45.77,0,0,1-6.27,4.7,71.6,71.6,0,0,0-7.36,5.41,34.26,34.26,0,0,1-3.86,2.84c-1.85,1.25-3.14,2.18-4.26,3.07l-10,7.82c-.11.08-.59.39-1.07.68-1.32.82-5.73,4.16-7.27,5.51a31.87,31.87,0,0,1-4.08,3,23,23,0,0,0-4,3c-1.3,1.22-1.09,1.06-5.48,4-.87.59-1.74,1.23-2.49,1.82l-.32.26a1.13,1.13,0,0,1-.22.11.42.42,0,0,1-.45-.13.32.32,0,0,1,0-.39s0-.05,0-.07l0-.05,0-.16c0-.23,0-.49,0-.74a6.51,6.51,0,0,0,0-1.26,18,18,0,0,1,0-2.23,12.32,12.32,0,0,0-.05-3.09,21.45,21.45,0,0,1-.07-5.16,67.18,67.18,0,0,0,.09-8.61,27.74,27.74,0,0,1,0-3.64,5.68,5.68,0,0,0,0-2.07c-.37-1.68-.37-1.73-.12-2.67a6.13,6.13,0,0,0,.1-2.86,12,12,0,0,1,0-3.5,24.73,24.73,0,0,0,0-5.74,5.91,5.91,0,0,1,0-2.81,10.51,10.51,0,0,0,0-3.67,36.43,36.43,0,0,1,0-6.36c.11-1.24.14-2.64.11-7.2,0-3.84-.07-5.85-.14-6.25a2.41,2.41,0,0,1,0-1.19A12.62,12.62,0,0,0,131.82,181.82Z"/><path class="cls-7" d="M228.47,178.22,80.29,67.38V219.43a2.49,2.49,0,0,0,1,2L152.9,275a2.49,2.49,0,0,0,3,0l71.62-53.56a2.46,2.46,0,0,0,1-2Z"/><path class="cls-7" d="M188.59,251.83c1.59-1.1,3.62-2.67,5-3.88a37.84,37.84,0,0,1,4.39-3.32c1.86-1.26,5.57-4,7.83-5.82,1-.81,1.7-1.34,2.23-1.7s1.61-1.17,2.65-2c1.24-1,2.76-2.07,4.52-3.32,4.3-3.07,5.06-3.63,6.72-5,.9-.73,1.86-1.47,2.93-2.29l1.7-1.27.93-.69.49-.35a3.44,3.44,0,0,0,.62-.56,3.39,3.39,0,0,0,.79-1.54,2.64,2.64,0,0,0,.08-.66v-.43c0-.51,0-.87-.05-1.26a25.2,25.2,0,0,1,0-3.58,20.34,20.34,0,0,0,0-3.12,11.35,11.35,0,0,1,0-1.74c0-.65,0-1.47,0-1.81s0-2.45,0-4.66,0-4.7,0-5.52,0-2.09,0-2.84c.06-1,.07-1.89,0-3.6,0-2.71,0-2.88,0-5.53,0-1.42,0-2.78-.09-4.15-.13-2.65-.26-3.32-.62-3.15s-.25.17-.41,1.4l-.17,1.29v4.48c0,2.47,0,5.81,0,7.43,0,1.85,0,3.43,0,4.25,0,1.07,0,1.8,0,4,0,1.46-.05,3.12-.06,3.69s0,4.46,0,8.66c0,2.83,0,4.84,0,6.29-.12,1.25-1,1.56-1.53,2-1.14.79-1.57,1.11-2.59,1.94-1.62,1.32-5.35,4.1-6,4.5a47.8,47.8,0,0,0-4.71,3.49c-3.42,2.7-6,4.69-6.54,5.13-.26.19-1.19.84-2.08,1.44-1.31.89-2.11,1.48-4.37,3.19-1.63,1.23-3.48,2.6-4.5,3.32-1.35,1-2,1.47-3.12,2.33-.88.7-4.73,3.62-10.53,8-8.94,6.7-9.17,6.87-10.16,7.5s-1.29.85-4.51,3.28c-2.82,2.13-3.61,2.74-4.09,3.18a25.07,25.07,0,0,1-2,1.58l-2.35,1.75-1.7,1.26-1,.75-.55.4a2.17,2.17,0,0,1-.52.31,2.07,2.07,0,0,1-1.86-.17l-1.71-1.28-2.5-1.85c-1.09-.78-2.23-1.63-3-2.2s-1.64-1.26-2.55-1.9-1.76-1.27-3-2.22c-.88-.69-2-1.53-2.42-1.86l-6.64-4.93c-4.82-3.59-6-4.49-7-5.29-.77-.63-1.55-1.23-2.22-1.71l-2.59-1.89-3.27-2.38a23.9,23.9,0,0,1-2.28-1.75,28.38,28.38,0,0,0-3-2.26c-1.14-.75-13.33-9.88-15-11.23-1-.78-1.74-1.36-4.39-3.26-2.1-1.52-4.21-3.07-6.1-4.48l-2.64-2-1.15-.89a3,3,0,0,1-.8-.76,2,2,0,0,1-.31-1l0-1.45,0-3c0-2,0-3.75-.08-4.87-.06-1.3-.09-2.53-.08-4.58,0-1.54,0-9.45,0-17.58s0-16,0-17.57,0-4.06,0-5.76c0-1.95,0-4.75,0-8.27,0-2.92,0-7.54,0-10.26s0-6.31,0-8,.08-4.36.11-6,0-3.42,0-4-.06-2-.1-3.16c0-1.53,0-2.53,0-3.55,0-.71,0-30.74,0-54.13l-1,.48,20.91,15.63,6.7,5.06c2.94,2.23,5.86,4.42,6.6,5L126,102.31l13.88,10.38c2.81,2.09,3.59,2.69,4.64,3.57,1.46,1.21,3.49,2.77,9.88,7.57l7.15,5.42c1.76,1.36,4.14,3.15,7.66,5.74l13.37,9.95,11,8.19c2.44,1.78,2.93,2.16,4.09,3.11s1.87,1.49,4.29,3.29c9.17,6.79,18.65,13.92,19.84,14.92a40.5,40.5,0,0,0,3.45,2.58,5.15,5.15,0,0,1,.65.41,11.16,11.16,0,0,0,1.13.65c.74.39.85.42,1.13.28s.26-.19-.29-.74a27.85,27.85,0,0,0-2.88-2.5c-.35-.26-1.25-.95-2-1.55-1.1-.88-1.68-1.31-3.14-2.36-1.94-1.38-5.39-4-9.92-7.48-2-1.54-2.83-2.17-3.43-2.57-1.83-1.24-4.22-3-6.68-4.92l-3.27-2.58c-.51-.4-3-2.29-5.54-4.19-4-3-4.7-3.52-5.27-3.86s-1.38-.94-9.34-6.91c-7-5.26-8.87-6.68-9.64-7.32-1.42-1.18-4.22-3.31-5.94-4.51-2-1.44-4.28-3.12-7.78-5.88-2.09-1.64-4.06-3.15-6.44-4.94l-8.19-6.19c-3.87-3-5.46-4.14-8.54-6.38-4.78-3.49-7.49-5.52-10.14-7.58-1.43-1.11-8-6.08-20.63-15.51L84.58,69.52c-2.73-2.06-3.68-2.78-3.75-2.87L79.4,65l0,2.38v2.27c-.07,2.1-.06,4.42,0,7.92,0,1.64.09,19.5.06,24.51,0,5.25,0,9.88,0,10.24a35.58,35.58,0,0,1,0,3.79c0,1.1-.11,18-.15,37.66,0,6.34-.05,13.18-.06,15.21-.08,6.18-.06,11.89,0,14.72.11,3.13.11,6,0,9.12-.11,3-.13,7.84,0,10.65,0,1.58,0,2.4,0,5.58,0,2.6-.07,4.45,0,6.13,0,.48,0,1.57,0,3v1.09a4.22,4.22,0,0,0,0,.73,3.31,3.31,0,0,0,.23.8,3.57,3.57,0,0,0,1,1.36l1,.76,5.73,4.22,1.16.92c1.39,1.13,6.56,5,8.52,6.35,1.55,1.08,2,1.4,4.74,3.55,3,2.34,3.07,2.39,4.66,3.47s1.46,1,6.32,4.76c1.93,1.52,4,3,5.06,3.7a23.52,23.52,0,0,1,2.74,2.06,22.39,22.39,0,0,0,2.39,1.83c.16.1,1.09.81,2.07,1.58a35.72,35.72,0,0,0,2.89,2.14,56.24,56.24,0,0,1,4.84,3.57c1,.89,4.36,3.4,8,6,1.56,1.13,2.44,1.79,3.39,2.56a15,15,0,0,0,1.94,1.43,10.71,10.71,0,0,1,2.53,1.82,15.93,15.93,0,0,0,2.63,2l.78.52.37.26a3.55,3.55,0,0,0,.53.32,3.48,3.48,0,0,0,3,.06,3.81,3.81,0,0,0,.52-.29l.39-.27.78-.55,1.57-1.16c1-.76,1.88-1.45,2.26-1.81a15.68,15.68,0,0,1,2.62-2,29.06,29.06,0,0,0,3.43-2.55c1.36-1.13,3.93-3.05,5.94-4.43,1.19-.82,2.51-1.79,6.75-5,3.57-2.69,5.44-4.11,5.79-4.42a6.73,6.73,0,0,1,1.12-.82C187.4,252.63,188.09,252.18,188.59,251.83Z"/><path class="cls-8" d="M155.37,121l69.15-51.86a2.47,2.47,0,0,1,3.95,2V219.27a2.44,2.44,0,0,1-1,2l-69.16,51.87a2.47,2.47,0,0,1-4-2V123A2.49,2.49,0,0,1,155.37,121Z"/><path class="cls-8" d="M155.45,200.35a49,49,0,0,0-.1-5.44,28.32,28.32,0,0,1,0-4.73c.11-1.93.12-5.89,0-8.37,0-1.1,0-1.86,0-2.41s0-1.7,0-2.82c0-1.34,0-3,0-4.82.12-4.53.12-5.34.05-7.16-.08-2-.1-4.17-.05-7.06a25,25,0,0,0,0-2.89,18.18,18.18,0,0,1,0-3,14.68,14.68,0,0,0,0-2.65,9.21,9.21,0,0,1,0-1.47c0-.55,0-1.25,0-1.54s0-2.09-.05-4,0-4,0-4.69,0-1.77.07-2.4c.06-.86.07-1.58,0-3,0-2.31,0-2.45,0-4.7,0-1.2,0-2.36-.08-3.55,0-.27,0-.52,0-.74a1.94,1.94,0,0,1,0-.43,3,3,0,0,1,.18-.61c.13-.31.18-.49.06-.66s-.13-.16-.27-.13a1.8,1.8,0,0,0-.74.6,2.68,2.68,0,0,0-.51,1.06c0,1.36,0,2.6,0,3.9,0,2.12,0,5,0,6.4,0,1.59,0,2.95,0,3.67.05.93.05,1.56,0,3.42,0,1.26-.05,2.68-.06,3.17s0,3.85,0,7.48c0,4.9,0,7,0,8a26,26,0,0,0,0,2.79c.08,1.78.08,5.77,0,6.44a33.63,33.63,0,0,0,0,5c.12,3.74.19,6.5.19,7.13,0,.28,0,1.25-.09,2.17-.07,1.36-.08,2.21-.06,4.64,0,1.76,0,3.73,0,4.8,0,1.43,0,2.15,0,3.34,0,1,.06,5.11.07,11.33,0,9.59,0,9.84-.07,10.84a43.8,43.8,0,0,0-.07,4.78c0,3,0,3.9.1,4.45.09.82.1,2,0,8.78,0,2.75,0,5.46,0,6.56s0,2.37,0,3.16,0,1.77,0,2.73,0,1.86,0,3.17c0,1-.05,2.14,0,2.62s0,3.69,0,7.1c0,5.16,0,6.43-.05,7.52,0,.86-.06,1.7,0,2.41v.56a3.13,3.13,0,0,0,.12.82,3,3,0,0,0,1,1.49,3,3,0,0,0,1.87.68,2.92,2.92,0,0,0,1.92-.7,18.15,18.15,0,0,1,2-1.44A21.46,21.46,0,0,0,163.3,270c.88-.76,11.34-8.6,12.87-9.65.88-.6,1.54-1.1,3.74-2.82,3.51-2.75,7.14-5.46,9.34-7,2.51-1.75,5.9-4.3,7.37-5.53.85-.72,1.69-1.37,3.1-2.43l12.08-9,12.09-9c1.13-.82,2.79-2.06,4-3a2.92,2.92,0,0,0,.93-1.35,3.06,3.06,0,0,0,.16-.92v-.87c0-1.19,0-2.54,0-4.05,0-2.51,0-6.47,0-8.81s0-5.41,0-6.84.07-3.74.1-5.13,0-2.94,0-3.42-.06-1.71-.09-2.72c0-1.31-.06-2.17,0-3s0-57.14,0-68.89c0-.83,0-4.08,0-7.21s0-6.32,0-7.1,0-6.48,0-12.68,0-12.91,0-14.9V71a3.39,3.39,0,0,0-.1-.74,3.18,3.18,0,0,0-1.29-1.87,3,3,0,0,0-1.7-.56,3.18,3.18,0,0,0-1.17.19,4.89,4.89,0,0,0-1.12.67l-5.89,4.36-6.22,4.58C210,78.79,208,80.32,205,82.59l-11.44,8.62-9.42,7.12c-2,1.58-2.48,1.89-3.58,2.62s-1.71,1.19-3.77,2.75c-7.81,5.92-16,12-17.17,12.75a25.83,25.83,0,0,0-3,2.22,3.19,3.19,0,0,1-.46.44,5.41,5.41,0,0,0-.74.76c-.44.51-.46.59-.28.84s.25.24.89-.08a20.58,20.58,0,0,0,2.89-1.78c.29-.23,1.09-.8,1.77-1.27,1-.7,1.51-1.07,2.7-2,1.58-1.26,4.56-3.47,8.57-6.36,1.76-1.27,2.47-1.8,2.94-2.2,1.41-1.2,3.42-2.75,5.62-4.3,1.16-.83,2.49-1.76,2.95-2.08s2.62-1.91,4.8-3.55c3.45-2.58,4-3,4.41-3.4s1.08-.91,7.91-6c6-4.49,7.64-5.69,8.36-6.17,1.35-.88,3.78-2.67,5.16-3.79,1.65-1.34,3.58-2.77,6.72-5l2.75-2,1.39-1a1.67,1.67,0,0,1,1.21-.31,1.71,1.71,0,0,1,1.09.59,1.54,1.54,0,0,1,.34.66,1.59,1.59,0,0,1,.06.39v.57c0,1.6,0,3.29,0,4.7,0,4.18,0,5.87,0,9.13.08,5.06.08,8,0,10.84,0,1.55-.05,8.64-.05,22.11,0,17.07,0,20.06-.08,21.54-.07,1.8-.06,3.79,0,6.79,0,1.41.1,16.74.07,21,0,4.51,0,8.48,0,8.79a25.84,25.84,0,0,1,0,3.26c-.05.93-.12,15.41-.15,32.31,0,1.36,0,2.75,0,4.09v2.91a2.74,2.74,0,0,1,0,.35,1.31,1.31,0,0,1-.06.27,1.53,1.53,0,0,1-.65.84l-1.17.87L224,222.62c-4.28,3.11-8.19,6.07-10.07,7.61-2.09,1.7-4,3.16-6.27,4.69s-5.46,3.94-7.33,5.45c-1.06.85-1.63,1.27-3.85,2.85-1.82,1.3-3.1,2.24-4.23,3.12l-10.09,7.72-1,.72c-1.28.87-5.7,4.2-7.29,5.49-1.26,1-1.62,1.29-4.07,3.05a44.22,44.22,0,0,0-4,3,61.89,61.89,0,0,1-5.46,4c-.86.62-1.73,1.26-2.48,1.84l-.14.11-.09.06a.59.59,0,0,1-.17.1,1.63,1.63,0,0,1-.34.14,1.85,1.85,0,0,1-.6.05,1.39,1.39,0,0,1-.88-.45,1.15,1.15,0,0,1-.32-.82l0-.43c0-.23,0-.49,0-.74a11.36,11.36,0,0,0,0-1.26c0-.16,0-1.16,0-2.23a26.4,26.4,0,0,0,0-3.09,40.55,40.55,0,0,1,0-5.15c.09-1.18.11-4.75,0-8.61,0-1.66,0-2.6,0-3.65a10.71,10.71,0,0,0,0-2.07,8.08,8.08,0,0,1-.06-2.67,11.06,11.06,0,0,0,.05-2.85,24.15,24.15,0,0,1,0-3.51,47.87,47.87,0,0,0,0-5.74,12,12,0,0,1,0-2.81,21.81,21.81,0,0,0,0-3.67c-.1-1.51-.09-4.27,0-6.35.06-1.25.07-2.65,0-7.21,0-3.83,0-5.85-.07-6.24a4.84,4.84,0,0,1,0-1.2C155.38,201.58,155.43,200.87,155.45,200.35Z"/><path class="cls-9" d="M200.69,138.68v37.65c0,1.48.95,1.84,2.12.8L216.54,165"/><path class="cls-9" d="M216.54,134.72l-21.75,19.17a7,7,0,0,0-2.12,4.54v20.3a7,7,0,0,1-2.12,4.54l-25.47,22.45"/><path class="cls-9" d="M208.58,182.06V151.75l-29.71,26.19a7,7,0,0,0-2.12,4.54V220.2"/><path class="cls-9" d="M165.08,170.06l17.51-15.43c1.17-1,2.12-.67,2.12.8v47.68"/><ellipse class="cls-10" cx="216.54" cy="134.72" rx="2.92" ry="2.04" transform="translate(0.16 269.69) rotate(-63.84)"/><ellipse class="cls-10" cx="208.58" cy="151.75" rx="2.92" ry="2.04" transform="translate(-19.58 272.08) rotate(-63.84)"/><ellipse class="cls-10" cx="192.67" cy="165.78" rx="2.92" ry="2.04" transform="translate(-41.07 265.64) rotate(-63.84)"/><ellipse class="cls-10" cx="184.88" cy="188.26" rx="2.92" ry="2.04" transform="translate(-65.61 271.21) rotate(-63.84)"/><ellipse class="cls-10" cx="200.69" cy="138.68" rx="2.92" ry="2.04" transform="translate(-12.26 257.68) rotate(-63.84)"/><ellipse class="cls-10" cx="165.08" cy="170.06" rx="2.92" ry="2.04" transform="translate(-60.34 243.27) rotate(-63.84)"/><ellipse class="cls-10" cx="165.08" cy="205.72" rx="2.92" ry="2.04" transform="translate(-92.34 263.2) rotate(-63.84)"/><ellipse class="cls-10" cx="216.54" cy="165.03" rx="2.92" ry="2.04" transform="translate(-27.04 286.64) rotate(-63.84)"/><ellipse class="cls-10" cx="208.58" cy="182.06" rx="2.92" ry="2.04" transform="translate(-46.78 289.03) rotate(-63.84)"/><ellipse class="cls-10" cx="184.64" cy="203.16" rx="2.92" ry="2.04" transform="translate(-79.11 279.34) rotate(-63.84)"/><ellipse class="cls-10" cx="176.75" cy="220.2" rx="2.92" ry="2.04" transform="translate(-98.82 281.78) rotate(-63.84)"/><polyline class="cls-11" points="88 145.7 97.91 154.78 98.82 152.52 100.37 162.18 103.78 153.98 105.55 166.24 106.91 163.03 117.62 172.83 118.76 167.7 120.52 187.15 124.41 164.3 126.81 198.06 130.24 179.25 131.13 185.2 142.16 195.31"/><ellipse class="cls-12" cx="87.98" cy="145.65" rx="1.89" ry="3.34" transform="translate(-71.37 85.97) rotate(-38.33)"/><ellipse class="cls-12" cx="143.06" cy="195.91" rx="2.05" ry="3.34" transform="translate(-90.67 130.96) rotate(-38.33)"/></g></svg>