<svg xmlns="http://www.w3.org/2000/svg" xmlns:xlink="http://www.w3.org/1999/xlink" viewBox="0 0 300 300"><defs><style>.cls-1{fill:url(#linear-gradient);}.cls-2{opacity:0.1;}.cls-3{fill:#e1e6ea;}.cls-12,.cls-4{fill:#2a3141;}.cls-5{fill:#7a8ba0;}.cls-6{fill:#8c9eaf;}.cls-7{fill:#fff;}.cls-8{opacity:0.3;}.cls-9{opacity:0.6;}.cls-10{fill:url(#linear-gradient-2);}.cls-11{fill:#21abb0;}.cls-12{stroke:#fff;stroke-linecap:round;stroke-linejoin:round;stroke-width:4px;}.cls-13{fill:url(#linear-gradient-3);}</style><linearGradient id="linear-gradient" x1="809.52" y1="312.95" x2="764.62" y2="235.18" gradientTransform="matrix(0.4, 0.92, -0.92, 0.4, 80.81, -666.37)" gradientUnits="userSpaceOnUse"><stop offset="0" stop-color="#fff"/><stop offset="1" stop-color="#f5f6f8"/></linearGradient><linearGradient id="linear-gradient-2" x1="119.79" y1="119.11" x2="281.09" y2="119.11" gradientUnits="userSpaceOnUse"><stop offset="0" stop-color="#e3e8ec"/><stop offset="1" stop-color="#eff2f4"/></linearGradient><linearGradient id="linear-gradient-3" x1="233.28" y1="147.05" x2="253.9" y2="147.05" xlink:href="#linear-gradient-2"/></defs><title>il-product-overview-ruleless-static</title><g id="Layer_2" data-name="Layer 2"><path class="cls-1" d="M194.15,153.17c-9.27-2.59-19.38-4-26.79-10.1-3.48-2.9-6.11-6.66-8.7-10.38L143.84,111.4c-3.18-4.57-6.41-9.18-10.56-12.9S123.9,92,118.34,91.83a22.4,22.4,0,0,0-9.4,1.93c-9.77,4.12-16.88,13.57-19,24-2.26,11.3,1,22.93,4.88,33.77,5.46,15.24,12.33,30.18,22.48,42.79s23.87,22.8,39.63,26.53a46.88,46.88,0,0,0,18,.94c7-1.09,13.62-4.09,19.93-7.38,6.67-3.48,14.94-8.51,21.44-14.41,8.17-7.42,12.1-20,3.43-32.37C214.39,159.86,203.42,155.77,194.15,153.17Z"/></g><g id="Layer_5" data-name="Layer 5"><g class="cls-2"><path class="cls-3" d="M87.54,80.1H196.91a0,0,0,0,1,0,0v70.36a2,2,0,0,1-2,2H89.54a2,2,0,0,1-2-2V80.1A0,0,0,0,1,87.54,80.1Z"/><path class="cls-4" d="M89.54,68.17H194.91a2,2,0,0,1,2,2V80.1a0,0,0,0,1,0,0H87.54a0,0,0,0,1,0,0V70.17A2,2,0,0,1,89.54,68.17Z"/><circle class="cls-5" cx="92.89" cy="74.34" r="2.47"/><circle class="cls-5" cx="100.29" cy="74.34" r="2.47"/><circle class="cls-5" cx="107.69" cy="74.34" r="2.47"/><rect class="cls-6" x="92.89" y="85.85" width="87.17" height="4.93"/><rect class="cls-6" x="92.89" y="94.08" width="40.29" height="4.93"/><rect class="cls-6" x="92.89" y="102.3" width="50.98" height="4.93"/><rect class="cls-6" x="146.34" y="102.3" width="7.4" height="4.93"/><rect class="cls-6" x="154.56" y="118.75" width="4.11" height="4.93"/><rect class="cls-6" x="92.89" y="110.52" width="17.27" height="4.93"/><rect class="cls-6" x="135.65" y="135.19" width="25.49" height="4.93"/><rect class="cls-6" x="129.89" y="110.52" width="17.27" height="4.93"/><rect class="cls-6" x="112.62" y="110.52" width="14.8" height="4.93"/><rect class="cls-6" x="92.89" y="118.75" width="27.14" height="4.93"/><rect class="cls-6" x="122.49" y="118.75" width="29.6" height="4.93"/><rect class="cls-6" x="92.89" y="126.97" width="69.9" height="4.93"/><rect class="cls-6" x="92.89" y="135.19" width="40.29" height="4.93"/><rect class="cls-6" x="135.65" y="94.08" width="13.16" height="4.93"/></g><path class="cls-7" d="M91.31,77.49H210.12a0,0,0,0,1,0,0V154.1a2,2,0,0,1-2,2H93.31a2,2,0,0,1-2-2V77.49A0,0,0,0,1,91.31,77.49Z"/><path class="cls-7" d="M93.31,64.54H208.12a2,2,0,0,1,2,2v11a0,0,0,0,1,0,0H91.31a0,0,0,0,1,0,0v-11a2,2,0,0,1,2-2Z"/><g class="cls-8"><path class="cls-3" d="M91.31,77.49H210.12a0,0,0,0,1,0,0V154.1a2,2,0,0,1-2,2H93.31a2,2,0,0,1-2-2V77.49A0,0,0,0,1,91.31,77.49Z"/><path class="cls-4" d="M93.31,64.54H208.12a2,2,0,0,1,2,2v11a0,0,0,0,1,0,0H91.31a0,0,0,0,1,0,0v-11a2,2,0,0,1,2-2Z"/><circle class="cls-7" cx="97.12" cy="71.24" r="2.68"/><circle class="cls-7" cx="105.16" cy="71.24" r="2.68"/><circle class="cls-7" cx="113.2" cy="71.24" r="2.68"/><rect class="cls-7" x="97.12" y="83.74" width="94.69" height="5.36"/><rect class="cls-7" x="97.12" y="92.68" width="43.77" height="5.36"/><rect class="cls-7" x="97.12" y="101.61" width="55.39" height="5.36"/><rect class="cls-7" x="155.18" y="101.61" width="8.04" height="5.36"/><rect class="cls-7" x="164.11" y="119.47" width="4.47" height="5.36"/><rect class="cls-7" x="97.12" y="110.54" width="18.76" height="5.36"/><rect class="cls-7" x="143.57" y="137.34" width="27.69" height="5.36"/><rect class="cls-7" x="137.31" y="110.54" width="18.76" height="5.36"/><rect class="cls-7" x="118.56" y="110.54" width="16.08" height="5.36"/><rect class="cls-7" x="97.12" y="119.47" width="29.48" height="5.36"/><rect class="cls-7" x="129.28" y="119.47" width="32.16" height="5.36"/><rect class="cls-7" x="97.12" y="128.41" width="75.93" height="5.36"/><rect class="cls-7" x="97.12" y="137.34" width="43.77" height="5.36"/><rect class="cls-7" x="143.57" y="92.68" width="14.29" height="5.36"/></g><path class="cls-7" d="M101.63,73.14H236.18a0,0,0,0,1,0,0v87a2,2,0,0,1-2,2H103.63a2,2,0,0,1-2-2v-87A0,0,0,0,1,101.63,73.14Z"/><path class="cls-7" d="M103.63,58.47H234.18a2,2,0,0,1,2,2V73.14a0,0,0,0,1,0,0H101.63a0,0,0,0,1,0,0V60.47A2,2,0,0,1,103.63,58.47Z"/><g class="cls-9"><path class="cls-3" d="M101.63,73.14H236.18a0,0,0,0,1,0,0v87a2,2,0,0,1-2,2H103.63a2,2,0,0,1-2-2v-87A0,0,0,0,1,101.63,73.14Z"/><path class="cls-4" d="M103.63,58.47H234.18a2,2,0,0,1,2,2V73.14a0,0,0,0,1,0,0H101.63a0,0,0,0,1,0,0V60.47A2,2,0,0,1,103.63,58.47Z"/><circle class="cls-7" cx="108.21" cy="66.06" r="3.03"/><circle class="cls-7" cx="117.31" cy="66.06" r="3.03"/><circle class="cls-7" cx="126.42" cy="66.06" r="3.03"/><rect class="cls-7" x="108.21" y="80.22" width="107.23" height="6.07"/><rect class="cls-7" x="108.21" y="90.34" width="49.57" height="6.07"/><rect class="cls-7" x="108.21" y="100.45" width="62.72" height="6.07"/><rect class="cls-7" x="173.96" y="100.45" width="9.1" height="6.07"/><rect class="cls-7" x="184.08" y="120.69" width="5.06" height="6.07"/><rect class="cls-7" x="108.21" y="110.57" width="21.24" height="6.07"/><rect class="cls-7" x="160.81" y="140.92" width="31.36" height="6.07"/><rect class="cls-7" x="153.73" y="110.57" width="21.24" height="6.07"/><rect class="cls-7" x="132.49" y="110.57" width="18.21" height="6.07"/><rect class="cls-7" x="108.21" y="120.69" width="33.38" height="6.07"/><rect class="cls-7" x="144.63" y="120.69" width="36.42" height="6.07"/><rect class="cls-7" x="108.21" y="130.8" width="85.99" height="6.07"/><rect class="cls-7" x="108.21" y="140.92" width="49.57" height="6.07"/><rect class="cls-7" x="160.81" y="90.34" width="16.19" height="6.07"/></g><path class="cls-10" d="M119.79,65.75h161.3a0,0,0,0,1,0,0V170.47a2,2,0,0,1-2,2H121.79a2,2,0,0,1-2-2V65.75A0,0,0,0,1,119.79,65.75Z"/><path class="cls-4" d="M121.79,48.16h157.3a2,2,0,0,1,2,2V65.75a0,0,0,0,1,0,0H119.79a0,0,0,0,1,0,0V50.16A2,2,0,0,1,121.79,48.16Z"/><circle class="cls-7" cx="127.67" cy="57.26" r="3.64"/><circle class="cls-7" cx="138.59" cy="57.26" r="3.64"/><circle class="cls-7" cx="149.5" cy="57.26" r="3.64"/><rect class="cls-7" x="127.67" y="74.24" width="128.55" height="7.28"/><rect class="cls-7" x="127.67" y="86.37" width="59.43" height="7.28"/><rect class="cls-7" x="127.67" y="98.49" width="75.19" height="7.28"/><rect class="cls-7" x="206.5" y="98.49" width="10.91" height="7.28"/><rect class="cls-7" x="218.63" y="122.75" width="6.06" height="7.28"/><rect class="cls-7" x="127.67" y="110.62" width="25.47" height="7.28"/><rect class="cls-7" x="190.74" y="147" width="37.6" height="7.28"/><rect class="cls-7" x="182.25" y="110.62" width="25.47" height="7.28"/><rect class="cls-7" x="156.78" y="110.62" width="21.83" height="7.28"/><rect class="cls-7" x="127.67" y="122.75" width="40.02" height="7.28"/><rect class="cls-7" x="171.33" y="122.75" width="43.66" height="7.28"/><rect class="cls-7" x="127.67" y="134.88" width="103.09" height="7.28"/><rect class="cls-7" x="127.67" y="147" width="59.43" height="7.28"/><rect class="cls-7" x="190.74" y="86.37" width="19.4" height="7.28"/><path class="cls-11" d="M191,168.27a24.3,24.3,0,0,0,1-6.61,14.53,14.53,0,0,1,1.07-5.71,58.54,58.54,0,0,0,2.13-10.06,14.32,14.32,0,0,1,.53-2.91,32.24,32.24,0,0,0,.74-3.39c.27-1.63.72-3.57,1.31-5.77l.36-1.28.06-.2,0-.07v0h0l-6.16.07h0s0,.05,0,.05h0v0h0l6.24-.06-6.24.06a41.82,41.82,0,0,0,1.59,7,61.43,61.43,0,0,1,2.05,8.43c.06.34.12.64.1.59l3,2.38a11.57,11.57,0,0,0,3-.14,9,9,0,0,1,3.73,0,7.63,7.63,0,0,0,3.26,0,4.5,4.5,0,0,1,1.8,0,11.3,11.3,0,0,0,1.9,0c.37-.05,2.56-.11,4.87-.13l5.76,0a20,20,0,0,1,2.95.22,17.35,17.35,0,0,0,3.73.17c2.84-.08,3-.08,5.78,0a33.35,33.35,0,0,0,4.36-.25c2.83-.36,3.6-.79,3.62-2,0-.8,0-.85-1.26-1.38l-1.28-.54-4.74,0-7.86-.11a40.75,40.75,0,0,0-4.51.09,20.25,20.25,0,0,1-4.2,0c-1.54-.11-3.3-.2-3.89-.2l-9.19,0c-4.75,0-7.32,0-7.77-.06l1.37,1.1c-.3-1.44-.35-1.77-.39-2a13.16,13.16,0,0,0-.75-3.33,42.37,42.37,0,0,1-1.74-7.73,9.45,9.45,0,0,0-.38-3v-.06a1.75,1.75,0,0,0-3.43.09c-.13.67-.28,1.74-.45,3.16-.56,4.56-1,7.94-1.18,8.69-.07.33-.42,1.49-.79,2.56a35.74,35.74,0,0,0-1.33,5.55c-.39,2.12-.92,4.49-1.27,5.76a21.76,21.76,0,0,0-.82,4c-.14,1.18-1.08,6.19-2.58,13.68-2.29,11.55-2.36,11.85-2.87,13s-.6,1.54-1.39,5.72c-.69,3.66-.85,4.7-.8,5.41a3,3,0,0,1-.05.77l2.73.14c-.25-.78-.46-2.89-1-10-.27-3.38-.6-6.68-.81-8a31.7,31.7,0,0,1-.38-3.87,22.39,22.39,0,0,0-.36-3.33,21.39,21.39,0,0,1-.37-3.88c0-1.18-.11-2.62-.18-3.22s-.49-4.5-.94-8.67c-.68-6.29-.81-7.86-.77-9.21a16.17,16.17,0,0,0-.17-2.95c-.12-.73-.33-2.24-.46-3.34s-.39-3-.57-4.24a9.18,9.18,0,0,1-.19-3,10.44,10.44,0,0,0-.34-3.94c-.37-1.4-1.93-17.38-1.93-19.67a34.51,34.51,0,0,0-.61-5.72c-.29-2-.55-3.94-.69-5.14v0a1.3,1.3,0,0,0-2.58-.07c-.72,3.95-1.35,6.91-1.92,8.95a66.24,66.24,0,0,0-2.13,11.12,30.66,30.66,0,0,1-.68,4.79c-.31,1.59-1.91,9.77-3.55,18.18s-3.27,16.58-3.64,18.16-.86,4.19-1.12,6c-.31,2-.87,4.94-1.66,8.56-.39,1.8-.89,4.23-1.31,6.33l3.07.09-.55-4.32c-.38-2.84-.81-6.6-.95-8.35s-.35-4.59-.48-6.3-.35-3.59-.48-4.17l-.7-3.28a20.73,20.73,0,0,1-.55-3.69c0-.17-.22-1.88-.72-5.88s-1.3-10.26-2.47-19.54a1.78,1.78,0,0,0-3.5-.2h0c-.2.83-2.12,8.76-4.65,19.19l1.76-1.39-39.27,0-4.14,0a1.8,1.8,0,0,0-1.67,1.1l0,0-1.83,4.35c-1.51,3.6-3,7.18-3.24,8.09,0,.09-.08.22-.54,1.38l3.64.3c-.22-.78-1.62-7-3.07-13.77L90,129.17c-.19-.85-.34-1.56-.31-1.43l-3.5-.28a29.65,29.65,0,0,1-2,4.31c-1,1.77-2.09,4.25-5.24,12.1-1.24,3.1-2.89,7-3.65,8.77-1,2.16-2.13,5.08-3.74,9.4l-.09.24,5.3.35c-.93-3.54-2.84-11.08-4.25-16.81-.89-3.64-1.86-7.46-2.21-8.78l0-.07a2.62,2.62,0,0,0-5-.24c-1.17,3.1-1.65,4.41-1.89,5.11a26.35,26.35,0,0,1-1.79,4.48l2.46-1.69-.63-.07a34.37,34.37,0,0,0-5.73-.22c-12,.11-24.58-.07-26.27-.38a12.68,12.68,0,0,0-4.55,0,2.09,2.09,0,0,1-.78.2,3.94,3.94,0,0,0-1.29.49c-.81.45-.9.6-.9,1.51s.06,1.05.93,1.44a11.07,11.07,0,0,0,4.15.92,26.61,26.61,0,0,1,2.68.15,20.25,20.25,0,0,0,4.14,0c2.48-.17,7-.11,13.1.19a27,27,0,0,0,4.52,0,43.81,43.81,0,0,1,8.7-.2c.76,0,1.56.11,1.92.16a1.28,1.28,0,0,0,1.36-.75l.12-.27c.54-1.2.89-1.93,1.06-2.28.32-.61,1.55-3.67,2.75-6.79l.15-.4h0l-3.6-.22h0v0h0l3.6.22-3.6-.22c1.19,4.83,1.42,5.61,1.76,6.17s.63,1.62,3.1,11.81c1.33,5.45,2,8.48,1.77,7.57l3,.19a48.4,48.4,0,0,1,2-4.6,40.44,40.44,0,0,0,3-7.25,63.32,63.32,0,0,1,3.86-9.53c1.21-2.54,2.25-4.95,3.4-7.86.52-1.3,1.32-3.29,2.27-5.64l-4.47-.36c.27,1.41.62,3.17.91,4.66,1,5,1.4,7.07,2.39,10.95,1.55,6,2.32,9.5,2.88,13,0,.32.14.83.93,4.51a2.41,2.41,0,0,0,4.44.72l.19-.34c.17-.27,1.58-3.74,5.61-13.81l-2.35,1.59c-1,0,3,0,7.64,0,21,0,24.65.08,26.46.26a46.36,46.36,0,0,0,8.34-.1l1,0h.18a2.43,2.43,0,0,0,2.39-2c.3-1.69,2.88-12.86,4.42-19.24l-4.77-.26c.31,2.48.5,4.05.63,5.09a107.36,107.36,0,0,0,1.51,10.68,13.19,13.19,0,0,1,.53,4c0,1.06,1.7,15.71,4.17,35.8l5.37.17c0,.14.35-1.72.72-3.59,1.29-6.56,2.73-13.63,3.21-15.72a137.74,137.74,0,0,0,2.8-15.25,45.76,45.76,0,0,1,1.83-9.45,73.48,73.48,0,0,0,2.23-11,34.66,34.66,0,0,1,1.18-5.76c.68-2.66,1.09-4.57,1.36-6.31l2.52-15-5.55-.25,0,.39c0,.17,0,.87,0,1.56A95.84,95.84,0,0,0,170,115a32.36,32.36,0,0,1,.59,6.21c.18,4,.18,4.1.65,6.08.51,2.14.48,1.81.72,8.32a29.63,29.63,0,0,0,.87,6.55,8.66,8.66,0,0,1,.33,3.61,8.92,8.92,0,0,0,.19,3.16,19.64,19.64,0,0,1,.21,2.74,12.8,12.8,0,0,0,.44,3.76,20.86,20.86,0,0,1,.73,6.29,68.58,68.58,0,0,0,.92,10.55,29.11,29.11,0,0,1,.39,4.45,5.54,5.54,0,0,0,.29,2.53c.75,2,.76,2.06.5,3.25a6,6,0,0,0,.2,3.5,12.27,12.27,0,0,1,.41,4.29,24.67,24.67,0,0,0,.77,7,5.77,5.77,0,0,1,.43,2.78,2.55,2.55,0,0,0,4.88,1.18l.39-.91c.08-.18.17-.39.27-.6a10.87,10.87,0,0,0,.95-4.41,36.29,36.29,0,0,1,1.57-7.65,81.36,81.36,0,0,0,1.93-8.64c.91-4.62,1.33-7.06,1.32-7.56a2.48,2.48,0,0,1,.34-1.43A13.43,13.43,0,0,0,191,168.27Z"/><circle class="cls-12" cx="23.88" cy="147.05" r="7.88"/><circle class="cls-4" cx="243.59" cy="147.05" r="7.88"/><path class="cls-13" d="M243.59,157.36a10.31,10.31,0,1,1,10.31-10.31A10.32,10.32,0,0,1,243.59,157.36Zm0-15.76a5.46,5.46,0,1,0,5.46,5.45A5.46,5.46,0,0,0,243.59,141.6Z"/></g></svg>