<svg xmlns="http://www.w3.org/2000/svg" viewBox="0 0 300 300"><defs><style>.cls-1{fill:#c7cbd3;}.cls-2{fill:#2a3141;}.cls-3{fill:#21abb0;}.cls-4{fill:#fff;}</style></defs><title>il-product-features-multi-dimension</title><g id="Layer_5" data-name="Layer 5"><path class="cls-1" d="M117.81,140.05a1.31,1.31,0,0,0,1.63-.4c.52-.57.78-.59,1.42-.12a2.76,2.76,0,0,0,2.51.09c.33-.16.56-.18.72-.07a1.46,1.46,0,0,0,.85.06,2.86,2.86,0,0,1,1.44.19c1.37.47,1.61.5,2.16.2a2.84,2.84,0,0,1,2.11-.21c.51.11.67.08.87-.15s.66-.36.91,0,.61.34.8,0,.22-.2.44-.08a.51.51,0,0,0,.46,0,3.87,3.87,0,0,1,1.19-.19l1.41-.08a1.11,1.11,0,0,1,.72.28.93.93,0,0,0,.91.21,4.82,4.82,0,0,1,1.41-.08,1.59,1.59,0,0,0,1.06-.35c.69-.49.88-1.06.89-2.69a3.25,3.25,0,0,0-.31-1.83l-.31-.72-1.16,0c-.64,0-1.5-.06-1.92-.11a1.84,1.84,0,0,0-1.1.14c-.28.18-.47.17-1,0a3.47,3.47,0,0,0-.95-.24l-2.24.09a5.73,5.73,0,0,1-2.41-.15.66.66,0,0,0-.83,0c-.54.33-1.74.33-1.94,0-.29-.49-.64-.52-1.51-.14a10.44,10.44,0,0,1-2.14.77,2.51,2.51,0,0,1-.65-.34,1.69,1.69,0,0,0-1.39-.26,3.68,3.68,0,0,1-1.44-.14,1,1,0,0,0-1,0,16.37,16.37,0,0,1-3.4.28c-1.41,0-2.27.1-2.69.07s-.55-.1-.72-.27c-.33-.31-.46-.32-1.57-.13s-1.23.34-1.36.62-.56.47-2.69.78a7.29,7.29,0,0,0-2,.64,1.71,1.71,0,0,1-.94.36,1.1,1.1,0,0,0-.8.34,1.14,1.14,0,0,1-.93.4,2.46,2.46,0,0,0-.84.18c-.14.06-1,.61-1.95,1.16-1.36.93-1.72,1.12-2.13,1.14a.92.92,0,0,0-.72.32,5.87,5.87,0,0,1-.61.66,9.13,9.13,0,0,0-.73.86c-.3.39-.42.46-.71.38s-.73.18-.79.66a11.37,11.37,0,0,1-1.59,1.93,12.93,12.93,0,0,1-1.9,1.88c-.34.16-.49.4-.83,1.26a6.9,6.9,0,0,1-1.93,3.11,3.12,3.12,0,0,0-1.35,2.41,1.66,1.66,0,0,1-.31,1.18c-.21.34-1.24,2.1-2.31,3.89s-2.14,3.53-2.41,3.84a4.06,4.06,0,0,0-.71,1.22,3.21,3.21,0,0,1-.38.77,7.49,7.49,0,0,1-.74.87c-.46.53-1.24,1.32-1.62,1.85a6.51,6.51,0,0,1-1.43,1.26l-1.31.66a1.94,1.94,0,0,0-.77.53c-.06.14-.21.49-.34.77s-.35.53-.61.58c-.07,0-.89.61-2.23,1.38a29.62,29.62,0,0,1-5.25,2.32,26.79,26.79,0,0,1-6.16,1.23c-1,.07-1.78.09-2.59.1l-1.89,0c-.25,0-1.23-.06-2.17-.16a8.71,8.71,0,0,0-2.13,0,30.6,30.6,0,0,1-3.8.12H42.59c-.9,0-1.16,0-1.51-.33s-1.16-.52-3.22-.61a14.85,14.85,0,0,1-2.32-.27,7.88,7.88,0,0,0-2.47-.06c-.9.08-2.83.15-4.3.15a33,33,0,0,0-3.54.15c-.78.14-.94.12-1.33-.17s-.63-.33-1.4-.28c-2.94.2-6,0-6.42-.39s-1-.38-1.11,0c-.05.14-.14.26-.19.26a1.73,1.73,0,0,0-.31.67,4.92,4.92,0,0,0-.22,2,3.76,3.76,0,0,0,.23,1.91c.29.72.75,1.27,1,1.21a1.25,1.25,0,0,1,.65.18,1,1,0,0,0,1,0,5.94,5.94,0,0,1,3.2.21c.65.16.92.17,1.1,0a2.15,2.15,0,0,1,2.12-.3,8.8,8.8,0,0,1,1.09.44,6.43,6.43,0,0,0,1.78.18c1.3,0,1.51,0,1.68-.31s.42-.3,3-.26c2.25,0,2.86.11,3.12.32a2,2,0,0,0,1.92.24,2.93,2.93,0,0,1,2.51.16,5.58,5.58,0,0,0,2.09.37,23.56,23.56,0,0,1,2.64.22,6.76,6.76,0,0,0,2.74,0,6.28,6.28,0,0,1,3.25-.06A48.52,48.52,0,0,0,56,181h1.75l1.54,0c.91,0,1.58-.12,2.1-.14a5.3,5.3,0,0,1,1.67,0,2.53,2.53,0,0,0,2.22-.62c.21-.13,1.54-.59,3-1.13s2.89-1.26,3.56-1.52a13.84,13.84,0,0,0,1.78-.91c.44-.29.7-.55.69-.67,0-.3.42-.6.9-.59a24.5,24.5,0,0,0,8.28-6.93c1.14-1.43,2.27-3.09,2.65-3.54a6.41,6.41,0,0,0,1.73-3.37,2.2,2.2,0,0,1,1.17-2,3.43,3.43,0,0,0,1.5-2.3c0-.45.16-.62.79-1.2a3.14,3.14,0,0,0,1-1.28c.08-.24.41-1.06.74-1.85l.24-.58.2-.44c.12-.27.21-.46.24-.52a1.36,1.36,0,0,1,.33-.18,3.72,3.72,0,0,0,1.31-2c.08-.47.16-.58.87-1s.8-.42.83-1,0-.56,1.37-1.12a1.2,1.2,0,0,0,.89-1.12c0-.41.27-.62.63-.44s.66,0,.64-.26c0-.08.23-.21.52-.27.49-.08.56-.13.63-.5.13-.65.61-1,1.09-.81s1.27-.21,2.08-.85a.93.93,0,0,1,.9-.3c.38.08.43.06.49-.24.15-.85.17-.87.57-.48s.56.43.77,0,.39-.47.88-.26a1,1,0,0,0,1.43-.43c.13-.5.37-.53.72-.14s.6.36.95-.1a1.36,1.36,0,0,1,1.65-.15c.35.2.68.24,1.89.15s1.75-.13,1.87-.28.21-.17.36.06A1.55,1.55,0,0,0,117.81,140.05Z"/><path class="cls-1" d="M116,143.72a3.41,3.41,0,0,0,1.76-.15,2,2,0,0,1,1.52,0,8.09,8.09,0,0,0,2.7,0,1.84,1.84,0,0,1,.77,0,5,5,0,0,0,.91,0,8.73,8.73,0,0,1,1.56.07,6,6,0,0,0,2.31.07,8.61,8.61,0,0,1,2.27-.07,1.87,1.87,0,0,0,.94-.06,1.28,1.28,0,0,1,1,0,1,1,0,0,0,.85,0,.65.65,0,0,1,.48,0,1.36,1.36,0,0,0,.49,0,10.45,10.45,0,0,1,1.28-.07l1.51,0a2.88,2.88,0,0,1,.78.1,2.52,2.52,0,0,0,1,.09,10.94,10.94,0,0,1,1.51,0,4.47,4.47,0,0,0,1.15-.14c.74-.18.94-.4.95-1,0-.39,0-.42-.34-.68l-.33-.27H139.8l-2.06-.05a5.53,5.53,0,0,0-1.18.05,2.7,2.7,0,0,1-1.11,0c-.4-.05-.86-.09-1-.09l-2.41,0a17,17,0,0,1-2.58-.05,1.83,1.83,0,0,0-.9,0,6,6,0,0,1-2.08,0c-.32-.18-.69-.19-1.62,0-1.21.18-2.1.3-2.3.29a5.25,5.25,0,0,1-.7-.13,5.14,5.14,0,0,0-1.5-.1,10.16,10.16,0,0,1-1.54,0,3.25,3.25,0,0,0-1.08,0c-.31,0-1.65.09-3.66.11-3.09,0-3.17,0-3.49-.12s-.43-.13-1.54-.1a3.63,3.63,0,0,0-1.44.15c-.26.13-.65.15-2.82.07a19.91,19.91,0,0,0-2.12,0,5.38,5.38,0,0,1-1,0,3.07,3.07,0,0,0-.9,0,4.8,4.8,0,0,1-1,.09,4.63,4.63,0,0,0-.87,0c-.16,0-1.2.19-2.3.42a16.26,16.26,0,0,1-2.43.53,2.29,2.29,0,0,0-.78.19c-.18.09-.56.24-.84.35a8,8,0,0,0-1,.48c-.45.23-.58.28-.78.26a1.33,1.33,0,0,0-1,.43c-.14.15-1.21.65-2.23,1.28s-2.05,1.32-2.35,1.42a4.2,4.2,0,0,0-1.21,1l-1.56,1.48c-.5.44-.93.85-1.28,1.13a7.57,7.57,0,0,0-2,2.3,5.93,5.93,0,0,1-.66,1.12,28.59,28.59,0,0,0-2.55,4.26c-1,2-1.92,4-2.14,4.38a12,12,0,0,0-.66,1.45,19,19,0,0,1-1,2.07c-.37.71-.94,1.86-1.25,2.55s-.75,1.57-1,2L69,172.11a7.51,7.51,0,0,0-.5,1l-.24.85a3,3,0,0,1-.38.91c0,.06-.56,1.13-1.33,2.76s-1.78,3.84-2.88,6.06a27.93,27.93,0,0,1-4,5.94,28.72,28.72,0,0,1-3.5,3.37,16,16,0,0,1-1.84,1.3c-.82.55-1.69,1-1.88,1.17a9.94,9.94,0,0,1-1.16.67l-1.09.55-1.29.54a13.12,13.12,0,0,1-1.37.49c-.45.15-.89.31-1.29.42l-1.78.45a5,5,0,0,1-1.57.16,8.18,8.18,0,0,0-1.06,0c-.51,0-1.2.11-2.26.1-.82,0-1.95,0-2.45-.06a24.11,24.11,0,0,0-2.65,0c-1,0-3,0-4.62,0s-3.29,0-3.81.06a3.69,3.69,0,0,1-1.43-.07,4.88,4.88,0,0,0-1.5-.1,52,52,0,0,1-6.9-.15,1.78,1.78,0,0,0-1.2,0,.33.33,0,0,1-.2.09.9.9,0,0,0-.34.25c-.21.23-.23.3-.23.76s0,.52.24.72a1.87,1.87,0,0,0,1.09.45,3.68,3.68,0,0,1,.71.07,2.79,2.79,0,0,0,1.08,0,18.2,18.2,0,0,1,3.44.08A4,4,0,0,0,22,201a5.93,5.93,0,0,1,2.28-.12c.46.06,1,.13,1.16.17s1,.06,1.93.06c1.39,0,1.62,0,1.79-.11s.46-.11,3.21-.1a21.2,21.2,0,0,1,3.35.12,5.67,5.67,0,0,0,2.06.09,10.76,10.76,0,0,1,2.77,0,14.4,14.4,0,0,0,2.33-.1c.66-.14,2-.27,2.91-.5a12.91,12.91,0,0,0,2.93-.89c1.55-.71,2.43-1.1,3.33-1.46a12.68,12.68,0,0,0,2-1,28.81,28.81,0,0,0,4.25-3l1.44-1.31,1.06-1.11c.65-.65,1-1.21,1.39-1.59.68-.78.87-1.11,1.07-1.28a5.45,5.45,0,0,0,1.21-1.94c0-.12.25-.47.52-1l.91-1.86c.6-1.34,1.26-2.77,1.58-3.39A15.85,15.85,0,0,0,68.59,178a1.79,1.79,0,0,1,.43-1c.2-.24,2.27-4.43,4.62-9.35.75-1.58,1.6-3.27,1.87-3.77a19.36,19.36,0,0,0,1.66-3.71,5.27,5.27,0,0,1,1.1-2.19c.23-.32.55-.73.82-1.16a13.24,13.24,0,0,0,.67-1.2,4.1,4.1,0,0,1,.88-1.18,9.78,9.78,0,0,0,1.06-1.2c.13-.22.72-.89,1.29-1.55s1.21-1.23,1.31-1.34a3.46,3.46,0,0,1,.33-.21,18.45,18.45,0,0,0,2.2-1.72,3.39,3.39,0,0,1,1.31-.84,2.93,2.93,0,0,0,1.3-.8c.42-.36.35-.35,1.89-.86a4,4,0,0,0,1.49-.73,1.06,1.06,0,0,1,.86-.28,1.12,1.12,0,0,0,.77-.19,1.56,1.56,0,0,1,.66-.16,1.61,1.61,0,0,0,.91-.27,2.23,2.23,0,0,1,1.53-.38,3.57,3.57,0,0,0,1-.06c.46,0,1-.12,1.61-.23a2.67,2.67,0,0,1,1.11,0c.39.07.46.06.63,0,.51-.3.53-.31.83-.12a.86.86,0,0,0,.92.08,1.83,1.83,0,0,1,1.14,0,3.41,3.41,0,0,0,1.85,0,.86.86,0,0,1,.9,0,1.55,1.55,0,0,0,1.19,0,5,5,0,0,1,2,0,11.79,11.79,0,0,0,2.33.08,11.28,11.28,0,0,0,2-.11.37.37,0,0,1,.39,0A2.45,2.45,0,0,0,116,143.72Z"/><path class="cls-1" d="M122.11,151.57a1.69,1.69,0,0,0,1.09-.84c.24-.46.44-.57,1-.6a4.29,4.29,0,0,0,2-.8,1,1,0,0,1,.56-.25,2.57,2.57,0,0,0,.68-.2,3.35,3.35,0,0,1,1.18-.28c1.16-.07,1.35-.09,1.76-.34a3.41,3.41,0,0,1,1.72-.41c.43,0,.56,0,.71-.17a.61.61,0,0,1,.76-.1.52.52,0,0,0,.67,0c.08-.09.18-.11.36-.06a.72.72,0,0,0,.39,0,4.69,4.69,0,0,1,1-.12l1.26,0a1.46,1.46,0,0,1,.65.14,1.35,1.35,0,0,0,.82.11,6.77,6.77,0,0,1,1.27,0,2.29,2.29,0,0,0,.95-.18c.62-.24.79-.53.8-1.34a1,1,0,0,0-.28-.92l-.28-.36-1,0c-.57,0-1.35,0-1.73-.05a2.77,2.77,0,0,0-1,.07,1.5,1.5,0,0,1-.92,0,5.77,5.77,0,0,0-.87-.12c-.13,0-1.07,0-2.07.15a14.58,14.58,0,0,1-2.23.19,1,1,0,0,0-.76.14,3.69,3.69,0,0,1-1.75.38c-.33-.16-.66-.11-1.38.31-.93.53-1.59.94-1.75,1a2.66,2.66,0,0,1-.62.05,2.58,2.58,0,0,0-1.24.39,7.79,7.79,0,0,1-1.24.51,1.65,1.65,0,0,0-.83.43c-.21.17-1.2.81-2.6,1.7-2.19,1.37-2.25,1.41-2.57,1.39s-.4,0-1.18.55-.86.6-.92.79-.36.46-2,1.31a11.34,11.34,0,0,0-1.51.93,2.13,2.13,0,0,1-.71.43,1.82,1.82,0,0,0-.62.37,1.38,1.38,0,0,1-.73.38,3.58,3.58,0,0,0-.66.22c-.11.06-.85.45-1.67.8a4.56,4.56,0,0,1-1.87.58,1.19,1.19,0,0,0-.62.11,5,5,0,0,1-.67.28c-.22.07-.6.22-.85.31s-.48.16-.64.07a.79.79,0,0,0-.83.13,7.45,7.45,0,0,1-2,.4,8.54,8.54,0,0,1-2.17,0,2.47,2.47,0,0,0-1.23,0,9.1,9.1,0,0,1-3.15,0,4.92,4.92,0,0,0-2.48,0,2.35,2.35,0,0,1-1.06.16l-4.07,0c-1.88,0-3.71-.05-4.07-.09a5.93,5.93,0,0,0-1.33,0,11,11,0,0,1-1.91,0c-.68-.05-1.75-.08-2.38-.07a12.49,12.49,0,0,1-1.84-.08l-1.38-.21a3.12,3.12,0,0,0-.93,0l-.73.19a1.57,1.57,0,0,1-.82,0l-2.56,0-5.63,0c-4.21,0-8.8,0-10.38,0-.23,0-1.1,0-1.95-.09a14.88,14.88,0,0,0-1.91,0c-.21,0-1.75.07-3.42.06h-4a2.87,2.87,0,0,1-1.36-.16,7.84,7.84,0,0,0-2.9-.31c-.73,0-1.67-.08-2.08-.14a12.65,12.65,0,0,0-2.22,0c-.81,0-2.55.08-3.86.08s-2.75,0-3.18.08a2.1,2.1,0,0,1-1.2-.09,2.61,2.61,0,0,0-1.26-.14,26.81,26.81,0,0,1-5.76-.2c-.34-.18-.89-.18-1,0a.29.29,0,0,1-.17.14c-.05,0-.18.15-.29.33a1.55,1.55,0,0,0-.19,1c0,.63,0,.69.2.95s.68.64.91.61a1.91,1.91,0,0,1,.59.09,1.41,1.41,0,0,0,.91,0,9.88,9.88,0,0,1,2.88.11,2.06,2.06,0,0,0,1,0,3.21,3.21,0,0,1,1.91-.16l1,.22a9.7,9.7,0,0,0,1.61.09c1.16,0,1.35,0,1.5-.15s.38-.15,2.68-.13a10.61,10.61,0,0,1,2.8.16,3.08,3.08,0,0,0,1.73.12,4.49,4.49,0,0,1,2.25.08,8.75,8.75,0,0,0,1.88.19c.55,0,1.61,0,2.37.1a10.53,10.53,0,0,0,2.46,0,10.26,10.26,0,0,1,2.93,0c.41.07,2.33.11,6,.11,4.6,0,5.41,0,5.8.15a3.43,3.43,0,0,0,1.83-.08c.38-.09,4.52-.19,5.68-.13a7.67,7.67,0,0,0,2.36-.09c.11-.13.56-.14.88,0s4.16.23,8.71.29c1.47,0,3,.08,3.52.13a10,10,0,0,0,3.41-.08,3.38,3.38,0,0,1,2.11,0,5.4,5.4,0,0,0,2.46.08,2.5,2.5,0,0,1,1.29.05,5.29,5.29,0,0,0,1.42.09c.45-.05,3.15-.24,3.42-.24a2,2,0,0,1,.35.09,4.46,4.46,0,0,0,1.18.09,5.67,5.67,0,0,0,1.36-.17,3.12,3.12,0,0,1,1.46-.08c1,0,1,0,1.42-.2s.39-.23,1.94-.27a2.29,2.29,0,0,0,1.47-.49.78.78,0,0,1,.82-.2.78.78,0,0,0,.73-.14,1.77,1.77,0,0,1,.62-.16c.51-.06.6-.11.83-.34a1.89,1.89,0,0,1,1.34-.61,4.85,4.85,0,0,0,2.27-1,2.56,2.56,0,0,1,.94-.47c.37-.09.42-.13.5-.33.23-.56.22-.56.58-.48s.51,0,.71-.31.35-.41.81-.49a1.9,1.9,0,0,0,1.3-.85c.08-.32.28-.44.64-.39s.59-.1.86-.49a2.73,2.73,0,0,1,1.47-.89,5.66,5.66,0,0,0,1.71-.91,6,6,0,0,0,1.37-1c.06-.14.11-.17.29-.14A1.53,1.53,0,0,0,122.11,151.57Z"/><path class="cls-1" d="M117.66,129.29a2.38,2.38,0,0,0,1.65-.2,1.35,1.35,0,0,1,1.42-.06,5.36,5.36,0,0,0,2.53,0,1.29,1.29,0,0,1,.72,0,3.13,3.13,0,0,0,.86,0,5.4,5.4,0,0,1,1.45.09,4.14,4.14,0,0,0,2.16.1,5.57,5.57,0,0,1,2.13-.1c.51.05.67,0,.88-.08a.85.85,0,0,1,.91,0,.73.73,0,0,0,.8,0c.11-.09.23-.1.45,0a1.05,1.05,0,0,0,.46,0,7.38,7.38,0,0,1,1.2-.1l1.42,0a1.78,1.78,0,0,1,.72.14,1.68,1.68,0,0,0,.92.11,8.46,8.46,0,0,1,1.42,0,2.87,2.87,0,0,0,1.07-.18c.69-.24.88-.53.89-1.34,0-.53,0-.57-.31-.92l-.32-.36-1.16,0c-.64,0-1.51,0-1.93,0a3.42,3.42,0,0,0-1.11.07,1.91,1.91,0,0,1-1,0,5.85,5.85,0,0,0-.95-.12l-2.26,0a11.9,11.9,0,0,1-2.42-.07,1.21,1.21,0,0,0-.84,0,3.82,3.82,0,0,1-1.94,0c-.3-.25-.65-.26-1.52-.07a17.45,17.45,0,0,1-2.15.38,3.7,3.7,0,0,1-.66-.17,3.27,3.27,0,0,0-1.4-.13,7,7,0,0,1-1.45-.07,2.15,2.15,0,0,0-1,0,29.88,29.88,0,0,1-3.42.14c-2.89,0-3,0-3.27-.15s-.4-.18-1.44-.14-1.18.07-1.35.2-.61.19-2.64.09a15,15,0,0,0-1.93,0,2.84,2.84,0,0,1-.92-.08,2.1,2.1,0,0,0-.8-.07,1.82,1.82,0,0,1-.92-.14,5.88,5.88,0,0,0-.73-.22c-.14,0-1.07-.15-2-.4a5.56,5.56,0,0,1-2.07-.73,1.4,1.4,0,0,0-.63-.32c-.17,0-.52-.12-.78-.2s-.68-.24-1-.33-.54-.19-.62-.37a1,1,0,0,0-.82-.45,8.69,8.69,0,0,1-2-1.05A10.39,10.39,0,0,1,90,120.36a3.42,3.42,0,0,0-1.08-.83,7.81,7.81,0,0,1-2.45-2.35,6.61,6.61,0,0,0-1.76-2.07,2.84,2.84,0,0,1-.87-.82L81,110.73c-1.32-1.65-2.57-3.27-2.79-3.6a7.91,7.91,0,0,0-1-1.16,11.94,11.94,0,0,1-1.34-1.67c-.44-.62-1.17-1.57-1.62-2.1a16.87,16.87,0,0,1-1.23-1.66c-.23-.37-.59-1-.81-1.34a4.68,4.68,0,0,0-.62-.83L71,97.85a1.9,1.9,0,0,1-.62-.68c0-.06-.72-.94-1.77-2.25L64.62,90a29.61,29.61,0,0,0-5.11-5,28.26,28.26,0,0,0-4.12-2.65c-.24-.1-1.11-.65-2-1.07a11.05,11.05,0,0,0-2.07-.85c-.24-.06-2-.62-3.85-1a30.09,30.09,0,0,0-4.64-.64,4.11,4.11,0,0,1-1.58-.21A10,10,0,0,0,38,78.17c-.82,0-1.87-.07-2.33-.13a15.87,15.87,0,0,0-2.49,0c-.9,0-2.85.07-4.32.07s-3.08,0-3.56.08A2.4,2.4,0,0,1,24,78.07a3.29,3.29,0,0,0-1.41-.13,34.61,34.61,0,0,1-6.46-.2c-.38-.18-1-.19-1.12,0a.29.29,0,0,1-.19.13s-.19.15-.31.33-.22.4-.22,1,0,.7.23,1a1.47,1.47,0,0,0,1,.6,2.49,2.49,0,0,1,.66.1,1.91,1.91,0,0,0,1,0,12.21,12.21,0,0,1,3.22.1,2.26,2.26,0,0,0,1.11,0,4,4,0,0,1,2.14-.15c.43.07.92.17,1.09.22a12.21,12.21,0,0,0,1.8.09c1.3,0,1.52,0,1.68-.15s.43-.16,3-.13a13.29,13.29,0,0,1,3.14.16,3.8,3.8,0,0,0,1.93.11,5.8,5.8,0,0,1,2.53.08,10.86,10.86,0,0,0,2.1.19,18.83,18.83,0,0,1,2.51.22l1.38.22c.38.06.74.06,1.2.11a8.2,8.2,0,0,1,3,.7c.19.12.79.28,1.75.69a29.19,29.19,0,0,1,4,1.92A23.49,23.49,0,0,1,58.56,88a4.33,4.33,0,0,1,1,1,4.53,4.53,0,0,0,1.41,1.3,16.73,16.73,0,0,1,1.87,2c.88,1,1.82,2.2,2.21,2.72a10.11,10.11,0,0,0,1.73,2c.18,0,.51.39.63.75s2.75,3.77,5.91,7.77c1,1.29,2.08,2.71,2.37,3.15a12.6,12.6,0,0,0,2.47,2.91,4.24,4.24,0,0,1,1.48,1.84,6.65,6.65,0,0,0,1.67,2.2,3,3,0,0,1,.87,1.15,5.92,5.92,0,0,0,.95,1.31c.35.42,2.73,2.62,3,2.8a2.09,2.09,0,0,1,.24.34,7.68,7.68,0,0,0,2.31,1.82A4,4,0,0,1,90,124c.79.71.84.7,1.38.82s.49.1,1.89,1.1a2.88,2.88,0,0,0,1.63.59,1,1,0,0,1,.87.38,1,1,0,0,0,.75.36,3.14,3.14,0,0,1,.66.28,1.4,1.4,0,0,0,1,.26,2.31,2.31,0,0,1,1.62.36,5.75,5.75,0,0,0,2.7.6,3.45,3.45,0,0,1,1.16.19c.39.14.46.15.66,0,.57-.32.58-.32.87-.05a.69.69,0,0,0,.91.14,1.31,1.31,0,0,1,1.11,0,2.31,2.31,0,0,0,1.74,0,.61.61,0,0,1,.84,0,1,1,0,0,0,1.11,0,3.47,3.47,0,0,1,1.92,0,7.06,7.06,0,0,0,2.18.11,7.29,7.29,0,0,0,1.88-.14c.14-.09.21-.08.36,0A1.87,1.87,0,0,0,117.66,129.29Z"/><path class="cls-1" d="M118.41,134a1.4,1.4,0,0,0,1.73-.37c.5-.57.75-.59,1.38-.12a2.62,2.62,0,0,0,2.43.1c.32-.17.54-.19.7-.08a1.35,1.35,0,0,0,.82.06,2.71,2.71,0,0,1,1.4.19c1.31.48,1.55.5,2.08.2a2.69,2.69,0,0,1,2.05-.2c.49.1.64.08.84-.16s.64-.36.88,0,.6.33.77,0,.22-.2.43-.08a.49.49,0,0,0,.45,0,3.77,3.77,0,0,1,1.15-.18l1.36-.09a1,1,0,0,1,.7.28.88.88,0,0,0,.88.21,4.55,4.55,0,0,1,1.37-.08,1.56,1.56,0,0,0,1-.34c.67-.5.85-1.07.86-2.7a3.34,3.34,0,0,0-.3-1.83l-.3-.72-1.13,0c-.61,0-1.45-.07-1.85-.12a1.75,1.75,0,0,0-1.07.14c-.27.18-.46.18-1,0a3.78,3.78,0,0,0-.92-.25l-2.17.09a5.2,5.2,0,0,1-2.33-.15.62.62,0,0,0-.81,0c-.52.32-1.68.32-1.87,0-.29-.48-.63-.51-1.46-.14a9.78,9.78,0,0,1-2.07.78,2.33,2.33,0,0,1-.63-.35,1.66,1.66,0,0,0-1.35-.26,3.49,3.49,0,0,1-1.4-.14,1,1,0,0,0-1,0,3.53,3.53,0,0,1-1,.16,14.48,14.48,0,0,1-2.08,0c-2.61-.23-2.67-.37-2.86-.74s-.27-.43-1.18-.58-1-.15-1.26.06-.67.25-2.31-.61a7.44,7.44,0,0,0-1.64-.72,1.21,1.21,0,0,1-.78-.38.8.8,0,0,0-.67-.33.82.82,0,0,1-.74-.45,1.91,1.91,0,0,0-.5-.54c-.13,0-.87-.49-1.66-1-1.15-.81-1.39-1.07-1.46-1.44a.64.64,0,0,0-.38-.55,2.48,2.48,0,0,1-.65-.38,7.08,7.08,0,0,0-.81-.53c-.36-.22-.42-.33-.34-.59s-.09-.66-.54-.69a11.8,11.8,0,0,1-3-3.56c-.07-.35-.24-.53-.94-1a5.38,5.38,0,0,1-2.2-2.58,2.93,2.93,0,0,0-1.76-2,1.59,1.59,0,0,1-1-.66l-2.81-3.37c-1.31-1.56-2.49-3.09-2.73-3.46a4,4,0,0,0-1.07-1.11,8.86,8.86,0,0,1-1.58-1.52,12.88,12.88,0,0,0-2-1.83A12.76,12.76,0,0,1,78.38,96c-.31-.34-.83-.89-1.16-1.19a2.45,2.45,0,0,0-.91-.61l-1,0a1.17,1.17,0,0,1-.9-.32,22.23,22.23,0,0,0-2.74-1.17,30.85,30.85,0,0,0-6.38-1.49,33,33,0,0,0-3.71-.24H58.4c-2,0-3.68,0-4.53,0-.24,0-1.19-.07-2.1-.16a7.83,7.83,0,0,0-2.06,0,26.8,26.8,0,0,1-3.68.12H41.7c-.87,0-1.12,0-1.47-.33s-1.11-.53-3.11-.62a12.92,12.92,0,0,1-2.25-.27,7.37,7.37,0,0,0-2.39-.06c-.88.08-2.75.15-4.17.15a28.2,28.2,0,0,0-3.43.16c-.75.14-.9.11-1.29-.18s-.6-.32-1.35-.27c-2.85.19-5.82,0-6.22-.4s-.95-.37-1.07,0c0,.15-.14.27-.19.27a1.63,1.63,0,0,0-.3.66,5.22,5.22,0,0,0-.21,2,4,4,0,0,0,.22,1.92c.28.71.73,1.26,1,1.2a1.22,1.22,0,0,1,.63.19.93.93,0,0,0,1,0,5.65,5.65,0,0,1,3.1.2c.63.17.9.17,1.07,0a2,2,0,0,1,2.06-.3,8.62,8.62,0,0,1,1.05.43,5.73,5.73,0,0,0,1.73.18c1.25,0,1.46,0,1.62-.3s.41-.31,2.89-.26c2.18,0,2.76.1,3,.31a1.87,1.87,0,0,0,1.86.24,2.76,2.76,0,0,1,2.43.16,5.26,5.26,0,0,0,2,.38,21.73,21.73,0,0,1,2.56.21,6.32,6.32,0,0,0,2.65,0,6,6,0,0,1,3.15-.06,46.52,46.52,0,0,0,6.43.22c5,0,5.83.05,6.26.29a1.44,1.44,0,0,0,.83.18,2.5,2.5,0,0,0,1-.3,2.69,2.69,0,0,1,.85-.08,11.13,11.13,0,0,1,1.58.06,13.18,13.18,0,0,1,2.93.56c1.09.41,2.07.68,2.22.51s.61-.08.81.26a18.35,18.35,0,0,0,2.25,1.39A31.85,31.85,0,0,1,78,102.94a12.76,12.76,0,0,1,2.18,2.47,9.54,9.54,0,0,0,1.21,1.66,3.51,3.51,0,0,0,1.26.92,2.09,2.09,0,0,1,1.48,1.73,3.22,3.22,0,0,0,1.61,2.12c.4.18.52.34.84,1.11a2.86,2.86,0,0,0,.85,1.29c.39.3,2.58,2.26,2.77,2.48a1.35,1.35,0,0,1,.1.4,4.1,4.1,0,0,0,1.8,1.95c.49.19.58.3.94,1.14s.41.92,1,1.05c.32.07.46.09.61.28s.25.53.66,1.37A1.65,1.65,0,0,0,96.68,124a.59.59,0,0,1,.66.71c0,.34.25.73.53.68.08,0,.3.23.49.55.31.51.42.57.85.57a1.33,1.33,0,0,1,1.44.9c.09.54,1,1.27,2.28,1.69a1.62,1.62,0,0,1,1,.65c.27.39.34.42.64.27.82-.41.83-.41.89.17s.22.77.76.59.7-.06,1.06.46,1.39.9,1.8.58.68-.27.88.26.53.65,1.14.4a2.21,2.21,0,0,1,2,.49c.36.29.81.46,2.32.6a4.29,4.29,0,0,0,2.07-.08c.17-.17.24-.14.39.09A1.7,1.7,0,0,0,118.41,134Z"/><path class="cls-1" d="M119,140.56a2.66,2.66,0,0,0,1.55-.15,1.65,1.65,0,0,1,1.35,0,6.28,6.28,0,0,0,2.38,0,1.63,1.63,0,0,1,.68,0,2.86,2.86,0,0,0,.81,0,7.59,7.59,0,0,1,1.37.07,5,5,0,0,0,2,.08,6.72,6.72,0,0,1,2-.08,1.43,1.43,0,0,0,.82-.06,1,1,0,0,1,.86,0,.88.88,0,0,0,.76,0,.5.5,0,0,1,.42,0,1.13,1.13,0,0,0,.44,0,8,8,0,0,1,1.13-.07l1.33,0a1.9,1.9,0,0,1,.68.1,1.89,1.89,0,0,0,.87.08,12.1,12.1,0,0,1,1.34,0,3.5,3.5,0,0,0,1-.13c.65-.19.83-.4.84-1,0-.4,0-.43-.3-.69l-.29-.27H140l-1.82,0a4.38,4.38,0,0,0-1.05.05,2.21,2.21,0,0,1-1,0,7.69,7.69,0,0,0-.9-.1l-2.13,0a12.71,12.71,0,0,1-2.28-.06,1.45,1.45,0,0,0-.8,0,4.62,4.62,0,0,1-1.83,0c-.28-.18-.61-.19-1.43-.05-1.07.18-1.85.29-2,.29a4,4,0,0,1-.62-.13,3.76,3.76,0,0,0-1.32-.1,8.08,8.08,0,0,1-1.37,0,2.17,2.17,0,0,0-1,0c-.27,0-1.45.09-3.22.1-2.73,0-2.8,0-3.09-.11s-.38-.14-1.36-.11-1.11.05-1.27.15-.58.15-2.49.07a15.48,15.48,0,0,0-1.87,0,3.36,3.36,0,0,1-.9,0,2.56,2.56,0,0,0-.78,0,2.27,2.27,0,0,1-.9,0,3.91,3.91,0,0,0-.75-.07l-2,0a8.68,8.68,0,0,1-2.14-.07,1.63,1.63,0,0,0-.68-.06l-.79.06-1,.07c-.42,0-.55,0-.69-.05a1.14,1.14,0,0,0-.9-.06,8.78,8.78,0,0,1-2.16-.07,12.38,12.38,0,0,1-2.26-.43,4.3,4.3,0,0,0-1.27-.27,8.8,8.8,0,0,1-1.77-.38,5.16,5.16,0,0,1-1.32-.57,9.14,9.14,0,0,0-2.36-1,2.68,2.68,0,0,1-1-.38A28,28,0,0,1,80,132.84c-.8-.56-1.5-1.21-2.08-1.7s-.94-.93-1.07-1.07a12.41,12.41,0,0,0-1-1,8.65,8.65,0,0,1-1.27-1.5c-.43-.55-1-1.48-1.41-2s-.77-1.28-1-1.64l-.66-1.37a3.87,3.87,0,0,0-.53-.85l-.58-.57a3.16,3.16,0,0,1-.57-.69s-.19-.25-.5-.63a17.59,17.59,0,0,0-1.3-1.49,28.21,28.21,0,0,0-4.63-4,30.77,30.77,0,0,0-5.91-3.18l-1.36-.51L55,110.28c-.74-.24-1.37-.36-1.78-.46l-.79-.2-1.28-.26a12.35,12.35,0,0,0-2.07-.27c-.21,0-1.94-.08-3.69-.07H41.14a4,4,0,0,1-1.44-.12,11.69,11.69,0,0,0-3.05-.23c-.77,0-1.76-.06-2.2-.1a19,19,0,0,0-2.35,0c-.85,0-2.68,0-4.07,0s-2.9,0-3.36.06a2.91,2.91,0,0,1-1.27-.07,3.77,3.77,0,0,0-1.32-.1,40.54,40.54,0,0,1-6.09-.15c-.36-.13-.94-.14-1.06,0a.33.33,0,0,1-.18.1c-.05,0-.18.11-.3.24s-.2.3-.2.76,0,.52.21.72a1.55,1.55,0,0,0,1,.45,2.89,2.89,0,0,1,.63.07,2.21,2.21,0,0,0,1,0,14.84,14.84,0,0,1,3,.08,3.14,3.14,0,0,0,1.05,0,4.64,4.64,0,0,1,2-.12c.41.06.87.13,1,.17s.92.06,1.7.07c1.23,0,1.43,0,1.59-.12s.4-.11,2.83-.1a16.41,16.41,0,0,1,3,.12,4.48,4.48,0,0,0,1.83.09,6.94,6.94,0,0,1,2.38.06,12.56,12.56,0,0,0,2,.14c.58,0,1.7,0,2.51.08a14.74,14.74,0,0,0,2.59,0,11.82,11.82,0,0,1,3,0c.21,0,.8,0,1.79.18.5,0,1.09.13,1.78.26s1.48.29,2.37.51a24.64,24.64,0,0,1,2.68.86,15.94,15.94,0,0,1,1.57.66,5.48,5.48,0,0,1,1.17.64,5,5,0,0,0,1.65.84,15.92,15.92,0,0,1,2.19,1.33,15.75,15.75,0,0,1,1.45,1.11,8.56,8.56,0,0,1,1,.88,19.24,19.24,0,0,0,1.74,1.65c.15,0,.49.33.61.65,0,.14.74.93,1.6,2.27.48.65.88,1.46,1.45,2.36l.9,1.49c.34.5.7,1,1.06,1.52s1,1.3,1.47,1.84l1,1.16A18,18,0,0,0,76.58,133a9.25,9.25,0,0,0,1.29.89,5.94,5.94,0,0,1,1.88,1.38,7,7,0,0,0,2.31,1.46,4.49,4.49,0,0,1,1.25.7,8.2,8.2,0,0,0,1.41.72c.23.09,1.07.35,1.88.62s1.62.42,1.76.47a2.32,2.32,0,0,1,.35.18,8.67,8.67,0,0,0,2.67.54,4.56,4.56,0,0,1,1.5.25,2.69,2.69,0,0,0,1.48.12c.54-.09.45-.12,2,.14a3.08,3.08,0,0,0,1.55-.1,1,1,0,0,1,.84,0,1,1,0,0,0,.73.06,1.84,1.84,0,0,1,.64,0,1.37,1.37,0,0,0,.88,0,2.3,2.3,0,0,1,1.46,0,7.11,7.11,0,0,0,2.45.06,3.4,3.4,0,0,1,1,0c.36.08.42.08.59,0,.48-.28.49-.28.76-.09a.7.7,0,0,0,.81.08,1.32,1.32,0,0,1,1,0,2.77,2.77,0,0,0,1.64,0,.67.67,0,0,1,.8,0,1.2,1.2,0,0,0,1,0,4.09,4.09,0,0,1,1.81,0,8.44,8.44,0,0,0,2,.08,9.31,9.31,0,0,0,1.78-.1c.13-.07.19-.06.34,0A1.84,1.84,0,0,0,119,140.56Z"/><circle class="cls-2" cx="14.25" cy="79.87" r="5.25"/><path class="cls-2" d="M16.38,76.29c0,.11.17.12.31.07s.2,0,.23.13a.4.4,0,0,0,.33.33c.08,0,.11,0,.11.08a.21.21,0,0,0,.09.13.32.32,0,0,1,.14.23c.05.28.07.31.18.35a.36.36,0,0,1,.24.31c0,.1,0,.12.1.13s.14.07.08.15,0,.13,0,.14.06,0,.05.07a.07.07,0,0,0,0,.08.41.41,0,0,1,.11.2l.08.25s0,.1,0,.14a.15.15,0,0,0,0,.18.46.46,0,0,1,.06.25.21.21,0,0,0,.09.19c.13.13.28.17.68.17a.86.86,0,0,0,.46-.07l.18-.08v-.29c0-.15,0-.36,0-.46a.46.46,0,0,0-.08-.27c-.06,0-.07-.1-.05-.24a.92.92,0,0,0,0-.24s-.11-.27-.21-.52a1.65,1.65,0,0,1-.22-.55.17.17,0,0,0-.1-.18c-.14-.07-.29-.32-.26-.4s0-.21-.2-.32a2.76,2.76,0,0,1-.49-.27s0-.09-.05-.17a.45.45,0,0,0-.21-.28,1,1,0,0,1-.26-.25.28.28,0,0,0-.2-.15c-.08,0-.34-.17-.76-.36-.65-.29-.68-.25-.71-.38s-.07-.12-.33-.17-.29,0-.35,0-.16.07-.65,0a1.66,1.66,0,0,0-.48,0,.37.37,0,0,1-.23,0,.24.24,0,0,0-.2,0,.33.33,0,0,1-.24,0,.47.47,0,0,0-.19,0,4.56,4.56,0,0,0-.51.13c-.37.1-.46.14-.55.11a.18.18,0,0,0-.18,0l-.18.11-.21.16c-.09.07-.12.08-.18,0s-.18,0-.22.11a7.57,7.57,0,0,1-1,.7c-.09,0-.14.06-.24.25a1.91,1.91,0,0,1-.56.66.69.69,0,0,0-.37.58.49.49,0,0,1-.06.3,4.67,4.67,0,0,0-.41,1,9.43,9.43,0,0,0-.22,1.09.92.92,0,0,0,0,.37,1.64,1.64,0,0,1,0,.52,3.6,3.6,0,0,0,.06.66,2.12,2.12,0,0,1,.09.5c0,.11,0,.29,0,.4a.47.47,0,0,0,.08.26l.17.15c.09.07.12.12.12.19a4.65,4.65,0,0,0,.36.63,6.34,6.34,0,0,0,1.05,1.17,6.19,6.19,0,0,0,1.47.9,6,6,0,0,0,1.14.34l.53.12a1.84,1.84,0,0,0,.54,0c.06,0,.5,0,1-.1a4.91,4.91,0,0,0,1.09-.27.57.57,0,0,1,.39-.07c.15,0,.34,0,.82-.25.19-.1.42-.24.54-.29a1.44,1.44,0,0,0,.51-.42,7.59,7.59,0,0,0,.72-.88,3.46,3.46,0,0,0,.46-.81c.06-.2.08-.24.19-.3s.15-.12.21-.32c.23-.76.37-1.56.47-1.67s.1-.27,0-.3-.07,0-.07-.06a.42.42,0,0,0-.16-.08,1.06,1.06,0,0,0-.5-.06,1,1,0,0,0-.48,0c-.19.06-.33.15-.32.21s0,.08-.05.13a.18.18,0,0,0,0,.2.81.81,0,0,1-.18.63c-.07.12-.08.17-.06.22a.37.37,0,0,1-.08.43.68.68,0,0,1-.2.15,3,3,0,0,0-.21.3c-.13.22-.14.26-.11.33s0,.12-.33.51-.44.39-.5.39a.37.37,0,0,0-.34.19c-.05.15-.19.22-.44.24a1.12,1.12,0,0,0-.41.1,2.42,2.42,0,0,1-.49.14,1.1,1.1,0,0,0-.51.13.81.81,0,0,1-.62.09,9.16,9.16,0,0,1-1.25-.17c-.93-.26-1.05-.43-1.1-.5s-.15-.16-.35-.17a2.78,2.78,0,0,1-.93-.76c-.13-.22-.28-.39-.33-.38s-.13-.06-.11-.15A7.42,7.42,0,0,1,10,80.4a2.37,2.37,0,0,1,0-.73,1,1,0,0,0,0-.7.33.33,0,0,1,.12-.42.56.56,0,0,0,.23-.46c0-.08,0-.12.13-.22a.43.43,0,0,0,.19-.23A3.38,3.38,0,0,1,11,77l.08,0a.64.64,0,0,0,.35-.37c0-.11.05-.12.23-.17s.18,0,.21-.17,0-.13.34-.17a.22.22,0,0,0,.24-.19c0-.1.08-.13.15-.06s.15,0,.15,0,.06,0,.13,0,.12,0,.15-.08.18-.18.27-.1a.47.47,0,0,0,.48,0,.22.22,0,0,1,.21,0c.07,0,.08,0,.11,0s.1-.19.15-.07.08.15.16.06.11-.07.19,0,.25.12.32,0,.12-.1.16,0,.08.13.19.06a.25.25,0,0,1,.34.1c0,.08.11.11.35.2a.75.75,0,0,0,.34.09s.05,0,.05.05A.33.33,0,0,0,16.38,76.29Z"/><circle class="cls-2" cx="14.25" cy="93.31" r="5.25"/><path class="cls-2" d="M16.38,89.73c0,.11.17.13.31.08s.2,0,.23.13a.4.4,0,0,0,.33.32c.08,0,.11,0,.11.09a.19.19,0,0,0,.09.12.34.34,0,0,1,.14.24c.05.27.07.3.18.35a.36.36,0,0,1,.24.3c0,.1,0,.12.1.13s.14.07.08.15,0,.14,0,.14.06,0,.05.07,0,.07,0,.08a.47.47,0,0,1,.11.2l.08.25a.15.15,0,0,1,0,.15.13.13,0,0,0,0,.17.46.46,0,0,1,.06.25.23.23,0,0,0,.09.2c.13.12.28.16.68.16a.86.86,0,0,0,.46-.07l.18-.08v-.28c0-.16,0-.37,0-.47a.4.4,0,0,0-.08-.26c-.06-.06-.07-.1-.05-.25a.94.94,0,0,0,0-.24s-.11-.27-.21-.51a1.74,1.74,0,0,1-.22-.56c0-.1,0-.13-.1-.17s-.29-.32-.26-.41,0-.2-.2-.32a3.1,3.1,0,0,1-.49-.26.71.71,0,0,1-.05-.17A.45.45,0,0,0,18,89a1.58,1.58,0,0,1-.26-.25.25.25,0,0,0-.2-.15c-.08,0-.34-.17-.76-.37-.65-.29-.68-.25-.71-.37s-.07-.13-.33-.17-.29,0-.35,0-.16.07-.65,0a1.66,1.66,0,0,0-.48,0,.38.38,0,0,1-.23,0,.23.23,0,0,0-.2,0,.28.28,0,0,1-.24,0,.47.47,0,0,0-.19,0s-.27,0-.51.13-.46.14-.55.12a.21.21,0,0,0-.18,0L12,88a1.37,1.37,0,0,0-.21.15c-.09.08-.12.08-.18,0s-.18,0-.22.1a6,6,0,0,1-1,.7c-.09,0-.14.06-.24.25a1.91,1.91,0,0,1-.56.66.7.7,0,0,0-.37.58.48.48,0,0,1-.06.3,4.67,4.67,0,0,0-.41,1A9.87,9.87,0,0,0,8.53,93a.92.92,0,0,0,0,.37,1.7,1.7,0,0,1,0,.53,3.49,3.49,0,0,0,.06.65,2.2,2.2,0,0,1,.09.51c0,.11,0,.29,0,.4s0,.23.08.25l.17.15c.09.07.12.12.12.2a5,5,0,0,0,.36.62A6,6,0,0,0,10.5,97.8a6.24,6.24,0,0,0,1.47.91,6.57,6.57,0,0,0,1.14.33l.53.12a2,2,0,0,0,.54,0c.06,0,.5,0,1-.1a4.77,4.77,0,0,0,1.09-.28c.22-.08.28-.09.39-.06s.34,0,.82-.26c.19-.09.42-.24.54-.29a1.51,1.51,0,0,0,.51-.41,9.81,9.81,0,0,0,.72-.88,3.47,3.47,0,0,0,.46-.82c.06-.2.08-.23.19-.3s.15-.12.21-.32c.23-.75.37-1.56.47-1.67s.1-.26,0-.3-.07,0-.07-.05-.07-.06-.16-.09a1.21,1.21,0,0,0-.5-.06,1.21,1.21,0,0,0-.48,0c-.19.07-.33.16-.32.21s0,.08-.05.13a.19.19,0,0,0,0,.21.82.82,0,0,1-.18.63c-.07.12-.08.17-.06.21a.39.39,0,0,1-.08.44l-.2.15a2.51,2.51,0,0,0-.21.29c-.13.22-.14.27-.11.33s0,.13-.33.52-.44.38-.5.39a.35.35,0,0,0-.34.19c-.05.15-.19.21-.44.23a1.13,1.13,0,0,0-.41.11,1.93,1.93,0,0,1-.49.13,1.09,1.09,0,0,0-.51.14.76.76,0,0,1-.62.08,8.23,8.23,0,0,1-1.25-.16c-.93-.27-1.05-.43-1.1-.51s-.15-.16-.35-.17a2.73,2.73,0,0,1-.93-.75c-.13-.23-.28-.39-.33-.38s-.13-.07-.11-.16A7.42,7.42,0,0,1,10,93.84a2.43,2.43,0,0,1,0-.73,1,1,0,0,0,0-.7.34.34,0,0,1,.12-.42.55.55,0,0,0,.23-.45c0-.09,0-.13.13-.23s.17-.14.19-.22a2.85,2.85,0,0,1,.32-.63l.08,0a.71.71,0,0,0,.35-.37c0-.11.05-.13.23-.17s.18-.06.21-.18,0-.13.34-.16a.23.23,0,0,0,.24-.2c0-.1.08-.12.15,0s.15,0,.15,0,.06,0,.13,0,.12,0,.15-.07.18-.19.27-.11a.49.49,0,0,0,.48,0,.2.2,0,0,1,.21,0c.07,0,.08,0,.11,0s.1-.19.15-.06.08.15.16.06.11-.08.19,0,.25.13.32,0,.12-.1.16,0,.08.14.19.06a.25.25,0,0,1,.34.11c0,.08.11.1.35.19s.3.11.34.09.05,0,.05,0A.32.32,0,0,0,16.38,89.73Z"/><circle class="cls-2" cx="14.25" cy="109.93" r="5.25"/><path class="cls-2" d="M16.38,106.35c0,.11.17.12.31.07s.2,0,.23.14a.4.4,0,0,0,.33.32c.08,0,.11.05.11.09a.19.19,0,0,0,.09.12.34.34,0,0,1,.14.24c.05.27.07.3.18.34A.38.38,0,0,1,18,108c0,.1,0,.12.1.13s.14.07.08.15,0,.13,0,.14.06,0,.05.07a.07.07,0,0,0,0,.08.47.47,0,0,1,.11.2l.08.25s0,.1,0,.14a.15.15,0,0,0,0,.18.46.46,0,0,1,.06.25.23.23,0,0,0,.09.2c.13.12.28.16.68.16a.86.86,0,0,0,.46-.07l.18-.08v-.28c0-.16,0-.37,0-.47a.4.4,0,0,0-.08-.26c-.06-.06-.07-.1-.05-.25a.92.92,0,0,0,0-.24s-.11-.27-.21-.52a1.65,1.65,0,0,1-.22-.55.17.17,0,0,0-.1-.18c-.14-.07-.29-.32-.26-.4s0-.21-.2-.32a4.44,4.44,0,0,1-.49-.26.69.69,0,0,1-.05-.18.43.43,0,0,0-.21-.27,1.27,1.27,0,0,1-.26-.26.24.24,0,0,0-.2-.14c-.08,0-.34-.17-.76-.37-.65-.29-.68-.25-.71-.38s-.07-.12-.33-.16-.29,0-.35,0-.16.07-.65,0a1.66,1.66,0,0,0-.48,0,.31.31,0,0,1-.23,0,.28.28,0,0,0-.2,0,.28.28,0,0,1-.24,0,.47.47,0,0,0-.19,0,4.56,4.56,0,0,0-.51.13c-.37.11-.46.14-.55.11a.18.18,0,0,0-.18,0l-.18.11-.21.16c-.09.07-.12.08-.18,0s-.18,0-.22.11a6,6,0,0,1-1,.7c-.09,0-.14.06-.24.25a1.91,1.91,0,0,1-.56.66.7.7,0,0,0-.37.58.49.49,0,0,1-.06.3,4.67,4.67,0,0,0-.41,1,9.43,9.43,0,0,0-.22,1.09.92.92,0,0,0,0,.37,1.65,1.65,0,0,1,0,.52,3.52,3.52,0,0,0,.06.66,2.12,2.12,0,0,1,.09.5c0,.12,0,.3,0,.41a.43.43,0,0,0,.08.25l.17.15c.09.07.12.12.12.19a4.65,4.65,0,0,0,.36.63,6,6,0,0,0,1.05,1.17,6.24,6.24,0,0,0,1.47.91,6.57,6.57,0,0,0,1.14.33l.53.12a2.51,2.51,0,0,0,.54,0c.06,0,.5,0,1-.11a4.39,4.39,0,0,0,1.09-.27.57.57,0,0,1,.39-.07c.15,0,.34,0,.82-.25.19-.1.42-.24.54-.29a1.44,1.44,0,0,0,.51-.42,7.59,7.59,0,0,0,.72-.88,3.46,3.46,0,0,0,.46-.81c.06-.2.08-.24.19-.3s.15-.12.21-.32c.23-.76.37-1.56.47-1.67s.1-.27,0-.3-.07,0-.07-.06a.42.42,0,0,0-.16-.08,1.21,1.21,0,0,0-.5-.06,1.21,1.21,0,0,0-.48,0c-.19.06-.33.15-.32.21s0,.08-.05.13a.19.19,0,0,0,0,.21.82.82,0,0,1-.18.63c-.07.11-.08.16-.06.21a.37.37,0,0,1-.08.43,1.05,1.05,0,0,1-.2.16,2.51,2.51,0,0,0-.21.29c-.13.22-.14.27-.11.33s0,.12-.33.52-.44.38-.5.38a.36.36,0,0,0-.34.2c-.05.14-.19.21-.44.23a1.12,1.12,0,0,0-.41.1,1.91,1.91,0,0,1-.49.14,1.09,1.09,0,0,0-.51.14.8.8,0,0,1-.62.08,10.09,10.09,0,0,1-1.25-.16c-.93-.27-1.05-.43-1.1-.51s-.15-.16-.35-.17a2.73,2.73,0,0,1-.93-.75c-.13-.23-.28-.4-.33-.39s-.13-.06-.11-.15a7.42,7.42,0,0,1-.46-1.78,2.43,2.43,0,0,1,0-.73,1,1,0,0,0,0-.7.33.33,0,0,1,.12-.42.55.55,0,0,0,.23-.45c0-.09,0-.13.13-.23a.46.46,0,0,0,.19-.22,3.18,3.18,0,0,1,.32-.64l.08,0a.64.64,0,0,0,.35-.37c0-.11.05-.12.23-.16s.18-.06.21-.18,0-.13.34-.17a.22.22,0,0,0,.24-.19c0-.1.08-.13.15-.06s.15,0,.15,0,.06,0,.13,0,.12,0,.15-.07.18-.19.27-.11a.47.47,0,0,0,.48,0,.22.22,0,0,1,.21,0c.07,0,.08,0,.11,0s.1-.19.15-.06.08.14.16.06.11-.08.19,0,.25.13.32,0,.12-.1.16,0,.08.13.19.06a.26.26,0,0,1,.34.1c0,.09.11.11.35.2s.3.11.34.09.05,0,.05,0A.33.33,0,0,0,16.38,106.35Z"/><circle class="cls-2" cx="14.25" cy="159.94" r="5.25"/><path class="cls-2" d="M16.38,156.36c0,.11.17.13.31.08s.2,0,.23.13a.4.4,0,0,0,.33.32c.08,0,.11.05.11.09a.24.24,0,0,0,.09.13.3.3,0,0,1,.14.23c.05.27.07.3.18.35a.36.36,0,0,1,.24.3c0,.1,0,.12.1.13s.14.07.08.15,0,.14,0,.14.06,0,.05.07,0,.07,0,.08a.47.47,0,0,1,.11.2l.08.25a.15.15,0,0,1,0,.15.13.13,0,0,0,0,.17.48.48,0,0,1,.06.26.22.22,0,0,0,.09.19c.13.12.28.16.68.16a.86.86,0,0,0,.46-.07l.18-.08v-.28c0-.16,0-.37,0-.47a.4.4,0,0,0-.08-.26c-.06-.06-.07-.1-.05-.25a.94.94,0,0,0,0-.24s-.11-.27-.21-.51a1.66,1.66,0,0,1-.22-.56c0-.1,0-.13-.1-.17s-.29-.32-.26-.41,0-.2-.2-.32a3.1,3.1,0,0,1-.49-.26.71.71,0,0,1-.05-.17.45.45,0,0,0-.21-.28,1.58,1.58,0,0,1-.26-.25.25.25,0,0,0-.2-.15c-.08,0-.34-.17-.76-.37-.65-.28-.68-.25-.71-.37s-.07-.13-.33-.17-.29,0-.35,0-.16.07-.65,0a1.3,1.3,0,0,0-.48,0,.46.46,0,0,1-.23,0,.21.21,0,0,0-.2,0,.33.33,0,0,1-.24,0,.47.47,0,0,0-.19,0s-.27.05-.51.13-.46.15-.55.12a.21.21,0,0,0-.18,0l-.18.12a1.37,1.37,0,0,0-.21.15c-.09.08-.12.08-.18.05s-.18,0-.22.1a6,6,0,0,1-1,.7c-.09,0-.14.06-.24.25a1.91,1.91,0,0,1-.56.66.7.7,0,0,0-.37.58.48.48,0,0,1-.06.3,4.67,4.67,0,0,0-.41,1,9.87,9.87,0,0,0-.22,1.09.92.92,0,0,0,0,.37,1.7,1.7,0,0,1,0,.53,3.49,3.49,0,0,0,.06.65,2.2,2.2,0,0,1,.09.51c0,.11,0,.29,0,.4s0,.23.08.25l.17.15c.09.07.12.12.12.2a5,5,0,0,0,.36.62,6,6,0,0,0,1.05,1.17,6.24,6.24,0,0,0,1.47.91,6.57,6.57,0,0,0,1.14.33l.53.12a2,2,0,0,0,.54,0c.06,0,.5,0,1-.1a4.77,4.77,0,0,0,1.09-.28c.22-.08.28-.09.39-.06s.34,0,.82-.26c.19-.09.42-.24.54-.29a1.51,1.51,0,0,0,.51-.41,9.81,9.81,0,0,0,.72-.88,3.47,3.47,0,0,0,.46-.82c.06-.2.08-.23.19-.3s.15-.12.21-.32c.23-.75.37-1.56.47-1.67s.1-.26,0-.3l-.07,0s-.07-.06-.16-.09a1.21,1.21,0,0,0-.5-.06,1.21,1.21,0,0,0-.48.05c-.19.07-.33.16-.32.21s0,.08-.05.13a.19.19,0,0,0,0,.21.82.82,0,0,1-.18.63c-.07.12-.08.17-.06.21a.39.39,0,0,1-.08.44l-.2.15a2.51,2.51,0,0,0-.21.29c-.13.22-.14.27-.11.33s0,.13-.33.52-.44.38-.5.39a.35.35,0,0,0-.34.19c-.05.15-.19.21-.44.24a1,1,0,0,0-.41.1,1.93,1.93,0,0,1-.49.13,1.09,1.09,0,0,0-.51.14.76.76,0,0,1-.62.08,8.23,8.23,0,0,1-1.25-.16c-.93-.27-1.05-.43-1.1-.51s-.15-.16-.35-.17a2.73,2.73,0,0,1-.93-.75c-.13-.23-.28-.39-.33-.38s-.13-.07-.11-.16a7.11,7.11,0,0,1-.46-1.78,2.43,2.43,0,0,1,0-.73,1,1,0,0,0,0-.7.34.34,0,0,1,.12-.42.53.53,0,0,0,.23-.45c0-.09,0-.13.13-.23s.17-.14.19-.22a2.85,2.85,0,0,1,.32-.63l.08,0a.71.71,0,0,0,.35-.37c0-.11.05-.13.23-.17s.18-.06.21-.18,0-.13.34-.16a.23.23,0,0,0,.24-.2c0-.09.08-.12.15-.05s.15.05.15,0,.06,0,.13,0,.12,0,.15-.07.18-.19.27-.11a.49.49,0,0,0,.48,0,.18.18,0,0,1,.21,0c.07,0,.08,0,.11,0s.1-.19.15-.06.08.15.16.06.11-.08.19,0,.25.13.32,0,.12-.1.16,0,.08.14.19.06a.25.25,0,0,1,.34.11c0,.08.11.1.35.19s.3.11.34.09.05,0,.05.05A.32.32,0,0,0,16.38,156.36Z"/><circle class="cls-2" cx="14.25" cy="177.6" r="5.25"/><path class="cls-2" d="M16.38,174c0,.11.17.12.31.07s.2,0,.23.14a.4.4,0,0,0,.33.32c.08,0,.11,0,.11.09a.19.19,0,0,0,.09.12.32.32,0,0,1,.14.24c.05.27.07.3.18.34a.38.38,0,0,1,.24.31c0,.1,0,.12.1.13s.14.07.08.15,0,.13,0,.14.06,0,.05.07a.07.07,0,0,0,0,.08.41.41,0,0,1,.11.2l.08.25s0,.1,0,.14a.15.15,0,0,0,0,.18.46.46,0,0,1,.06.25.21.21,0,0,0,.09.19c.13.13.28.17.68.17a.86.86,0,0,0,.46-.07l.18-.08v-.28c0-.16,0-.37,0-.47a.4.4,0,0,0-.08-.26c-.06-.06-.07-.1-.05-.25a.92.92,0,0,0,0-.24s-.11-.27-.21-.52a1.65,1.65,0,0,1-.22-.55.17.17,0,0,0-.1-.18c-.14-.07-.29-.32-.26-.4s0-.21-.2-.32a4.44,4.44,0,0,1-.49-.26.69.69,0,0,1-.05-.18.47.47,0,0,0-.21-.28,1,1,0,0,1-.26-.25.28.28,0,0,0-.2-.15c-.08,0-.34-.17-.76-.36-.65-.29-.68-.25-.71-.38S16,172,15.73,172s-.29,0-.35,0-.16.07-.65,0a1.66,1.66,0,0,0-.48,0,.37.37,0,0,1-.23,0,.28.28,0,0,0-.2,0,.33.33,0,0,1-.24,0,.47.47,0,0,0-.19,0,4.56,4.56,0,0,0-.51.13c-.37.1-.46.14-.55.11a.18.18,0,0,0-.18,0l-.18.11-.21.16c-.09.07-.12.08-.18,0s-.18,0-.22.11a7.57,7.57,0,0,1-1,.7c-.09,0-.14.06-.24.25a1.91,1.91,0,0,1-.56.66.7.7,0,0,0-.37.58.49.49,0,0,1-.06.3,4.67,4.67,0,0,0-.41,1,9.43,9.43,0,0,0-.22,1.09.92.92,0,0,0,0,.37,1.65,1.65,0,0,1,0,.52,3.52,3.52,0,0,0,.06.66,2.12,2.12,0,0,1,.09.5c0,.11,0,.29,0,.41a.43.43,0,0,0,.08.25l.17.15c.09.07.12.12.12.19a4.65,4.65,0,0,0,.36.63,6.34,6.34,0,0,0,1.05,1.17A6.19,6.19,0,0,0,12,183a6,6,0,0,0,1.14.34l.53.12a2.51,2.51,0,0,0,.54,0c.06,0,.5,0,1-.11a4.91,4.91,0,0,0,1.09-.27.57.57,0,0,1,.39-.07c.15,0,.34,0,.82-.25.19-.1.42-.24.54-.29a1.44,1.44,0,0,0,.51-.42,7.59,7.59,0,0,0,.72-.88,3.46,3.46,0,0,0,.46-.81c.06-.2.08-.24.19-.3s.15-.12.21-.32c.23-.76.37-1.56.47-1.67s.1-.27,0-.3-.07,0-.07-.06a.42.42,0,0,0-.16-.08,1.06,1.06,0,0,0-.5-.06,1,1,0,0,0-.48.05c-.19.06-.33.15-.32.21s0,.08-.05.13a.19.19,0,0,0,0,.21.83.83,0,0,1-.18.63c-.07.11-.08.16-.06.21a.37.37,0,0,1-.08.43,1.05,1.05,0,0,1-.2.16s-.11.16-.21.29-.14.27-.11.33,0,.12-.33.51-.44.39-.5.39a.37.37,0,0,0-.34.19c-.05.15-.19.22-.44.24a1.12,1.12,0,0,0-.41.1,1.91,1.91,0,0,1-.49.14,1.23,1.23,0,0,0-.51.13.81.81,0,0,1-.62.09,10.09,10.09,0,0,1-1.25-.16c-.93-.27-1.05-.44-1.1-.51s-.15-.16-.35-.17a2.78,2.78,0,0,1-.93-.76c-.13-.22-.28-.39-.33-.38s-.13-.06-.11-.15a7.42,7.42,0,0,1-.46-1.78,2.37,2.37,0,0,1,0-.73,1,1,0,0,0,0-.7.33.33,0,0,1,.12-.42.56.56,0,0,0,.23-.46c0-.08,0-.12.13-.22a.43.43,0,0,0,.19-.23,3.38,3.38,0,0,1,.32-.63l.08,0a.64.64,0,0,0,.35-.37c0-.11.05-.12.23-.17s.18-.05.21-.17,0-.13.34-.17a.22.22,0,0,0,.24-.19c0-.1.08-.13.15-.06s.15,0,.15,0,.06,0,.13,0,.12,0,.15-.07.18-.19.27-.11a.47.47,0,0,0,.48,0,.22.22,0,0,1,.21,0c.07.05.08.05.11,0s.1-.19.15-.07.08.15.16.06.11-.07.19,0,.25.12.32,0,.12-.1.16,0,.08.13.19.06a.26.26,0,0,1,.34.1c0,.08.11.11.35.2a.75.75,0,0,0,.34.09s.05,0,.05,0A.33.33,0,0,0,16.38,174Z"/><circle class="cls-2" cx="14.25" cy="200.13" r="5.25"/><path class="cls-2" d="M16.38,196.55c0,.11.17.12.31.07s.2,0,.23.14a.4.4,0,0,0,.33.32c.08,0,.11,0,.11.09a.19.19,0,0,0,.09.12.34.34,0,0,1,.14.24c.05.27.07.3.18.34a.38.38,0,0,1,.24.31c0,.1,0,.12.1.13s.14.07.08.15,0,.13,0,.14.06,0,.05.07a.07.07,0,0,0,0,.08.47.47,0,0,1,.11.2l.08.25s0,.1,0,.14a.15.15,0,0,0,0,.18.46.46,0,0,1,.06.25.23.23,0,0,0,.09.2c.13.12.28.16.68.16a.86.86,0,0,0,.46-.07l.18-.08v-.28c0-.16,0-.37,0-.47a.4.4,0,0,0-.08-.26c-.06-.06-.07-.1-.05-.25a.92.92,0,0,0,0-.24s-.11-.27-.21-.52a1.65,1.65,0,0,1-.22-.55.17.17,0,0,0-.1-.18c-.14-.07-.29-.32-.26-.4s0-.21-.2-.32a4.44,4.44,0,0,1-.49-.26.69.69,0,0,1-.05-.18.47.47,0,0,0-.21-.28,1,1,0,0,1-.26-.25.28.28,0,0,0-.2-.15c-.08,0-.34-.17-.76-.36-.65-.29-.68-.25-.71-.38s-.07-.12-.33-.16-.29,0-.35,0-.16.07-.65,0a1.66,1.66,0,0,0-.48,0,.31.31,0,0,1-.23,0,.28.28,0,0,0-.2,0,.33.33,0,0,1-.24,0,.47.47,0,0,0-.19,0,4.56,4.56,0,0,0-.51.13c-.37.11-.46.14-.55.11a.18.18,0,0,0-.18,0l-.18.11-.21.16c-.09.07-.12.08-.18,0s-.18,0-.22.11a6,6,0,0,1-1,.7c-.09,0-.14.06-.24.25a1.91,1.91,0,0,1-.56.66.7.7,0,0,0-.37.58.49.49,0,0,1-.06.3,4.67,4.67,0,0,0-.41,1,9.43,9.43,0,0,0-.22,1.09.92.92,0,0,0,0,.37,1.65,1.65,0,0,1,0,.52,3.52,3.52,0,0,0,.06.66,2.12,2.12,0,0,1,.09.5c0,.12,0,.3,0,.41a.43.43,0,0,0,.08.25l.17.15c.09.07.12.12.12.19a4.65,4.65,0,0,0,.36.63,6.34,6.34,0,0,0,1.05,1.17,6.24,6.24,0,0,0,1.47.91,6.57,6.57,0,0,0,1.14.33l.53.12a2.51,2.51,0,0,0,.54,0c.06,0,.5,0,1-.11a4.39,4.39,0,0,0,1.09-.27.57.57,0,0,1,.39-.07c.15,0,.34,0,.82-.25.19-.1.42-.24.54-.29a1.44,1.44,0,0,0,.51-.42,7.59,7.59,0,0,0,.72-.88,3.46,3.46,0,0,0,.46-.81c.06-.2.08-.24.19-.3s.15-.12.21-.32c.23-.76.37-1.56.47-1.67s.1-.27,0-.3-.07,0-.07-.06a.42.42,0,0,0-.16-.08,1.21,1.21,0,0,0-.5-.06,1.21,1.21,0,0,0-.48.05c-.19.06-.33.15-.32.21s0,.08-.05.13a.19.19,0,0,0,0,.21.83.83,0,0,1-.18.63c-.07.11-.08.16-.06.21a.37.37,0,0,1-.08.43,1.05,1.05,0,0,1-.2.16s-.11.16-.21.29-.14.27-.11.33,0,.12-.33.52-.44.38-.5.38a.36.36,0,0,0-.34.2c-.05.14-.19.21-.44.23a1.12,1.12,0,0,0-.41.1,1.91,1.91,0,0,1-.49.14,1.23,1.23,0,0,0-.51.13.77.77,0,0,1-.62.09,10.09,10.09,0,0,1-1.25-.16c-.93-.27-1.05-.44-1.1-.51s-.15-.16-.35-.17a2.78,2.78,0,0,1-.93-.76c-.13-.22-.28-.39-.33-.38s-.13-.06-.11-.15a7.42,7.42,0,0,1-.46-1.78,2.43,2.43,0,0,1,0-.73,1,1,0,0,0,0-.7.33.33,0,0,1,.12-.42.55.55,0,0,0,.23-.46c0-.08,0-.12.13-.22a.46.46,0,0,0,.19-.22,3.18,3.18,0,0,1,.32-.64l.08,0a.64.64,0,0,0,.35-.37c0-.11.05-.12.23-.17s.18-.05.21-.17,0-.13.34-.17a.22.22,0,0,0,.24-.19c0-.1.08-.13.15-.06s.15,0,.15,0,.06,0,.13,0,.12,0,.15-.07.18-.19.27-.11a.47.47,0,0,0,.48,0,.22.22,0,0,1,.21,0c.07.05.08.05.11,0s.1-.19.15-.06.08.14.16.06.11-.08.19,0,.25.13.32,0,.12-.1.16,0,.08.13.19.06a.26.26,0,0,1,.34.1c0,.09.11.11.35.2s.3.11.34.09.05,0,.05,0A.33.33,0,0,0,16.38,196.55Z"/><rect class="cls-2" x="220.59" y="133.05" width="66.99" height="5.44"/><path class="cls-2" d="M269.21,134.12a4.41,4.41,0,0,0,1.62-.1,2.56,2.56,0,0,1,1.41,0,10.9,10.9,0,0,0,2.5,0,2.58,2.58,0,0,1,.72,0,5.23,5.23,0,0,0,.85,0,12.33,12.33,0,0,1,1.44,0,7.8,7.8,0,0,0,2.14,0,11.64,11.64,0,0,1,2.11,0,2.24,2.24,0,0,0,.86,0,1.65,1.65,0,0,1,.91,0,1.42,1.42,0,0,0,.79,0,.83.83,0,0,1,.44,0,1.45,1.45,0,0,0,.46,0,11.9,11.9,0,0,1,1.19,0l.93,0-.9-.89v.41a2.46,2.46,0,0,1-.06.62,2.3,2.3,0,0,0,0,.77c.06.59.07.63.1,1.21a8.09,8.09,0,0,0,.16,1,2.18,2.18,0,0,0,.55,1.27c.18.19.19.2.33,0l.14-.2.05-1.2c0-.67.05-1.58.07-2a8.12,8.12,0,0,0,0-1.17,3.3,3.3,0,0,1,0-.69v-.22l-.39-.16-.36,0c-.38,0-.81-.06-1-.06l-2.24,0a18.68,18.68,0,0,1-2.39,0,2.1,2.1,0,0,0-.83,0,7.66,7.66,0,0,1-1.93,0,3.12,3.12,0,0,0-1.5,0c-1.12.12-1.95.2-2.13.2a5.52,5.52,0,0,1-.65-.09,6.55,6.55,0,0,0-1.39-.07,12.46,12.46,0,0,1-1.43,0,4.17,4.17,0,0,0-1,0c-.29,0-1.53.06-3.39.07-2.86,0-2.94,0-3.24-.08a4.2,4.2,0,0,0-1.42-.07,5.11,5.11,0,0,0-1.33.1,10,10,0,0,1-2.63,0c-.82,0-1.63,0-2,0a7.31,7.31,0,0,1-.94,0,3.74,3.74,0,0,0-.82,0,3.76,3.76,0,0,1-1,0c-.28,0-.63-.05-.78-.05l-2.12,0a13.27,13.27,0,0,1-2.25-.05,3,3,0,0,0-.72,0l-.82.05-1,0a1.62,1.62,0,0,1-.73,0,1.8,1.8,0,0,0-1,0c-.35.08-4.26.07-4.81,0a6.54,6.54,0,0,0-1.4,0,21,21,0,0,1-3.49,0,11.87,11.87,0,0,0-2.75,0,6.27,6.27,0,0,1-1.18.08l-4.5,0c-2.09,0-4.11,0-4.51-.05s-1,0-1.45,0l-.51,0,0,.46v0c0,.5,0,1.22,0,2.12,0,.75,0,1.94,0,2.63V139h.53c.58,0,1.1,0,1.39,0l1.54.1c.42,0,.89,0,1,0l.82-.1a3.55,3.55,0,0,1,.91,0l9.14,0,11.59,0,2.18,0c1,0,1.91,0,2.14,0s1.94,0,3.81,0h4.48a8.43,8.43,0,0,1,1.55.06,22,22,0,0,0,3.31.12c.82,0,1.89,0,2.36.05s1.38,0,2.5,0l4.29-.06c1.48,0,3.06,0,3.54-.05a6.18,6.18,0,0,1,1.36,0,9.7,9.7,0,0,0,1.45,0c2.92-.06,6,0,6.51,0a3,3,0,0,0,1.12,0,.22.22,0,0,1,.14-.05.29.29,0,0,0,.2-.12c.09-.11.08-.14-.14-.36a1,1,0,0,0-.56-.34,5.1,5.1,0,0,0-1.22-.21c-.11,0-.41,0-.68,0a4.87,4.87,0,0,0-1,0c-.56,0-1.68,0-3.21,0a5.31,5.31,0,0,0-1.09,0,10.06,10.06,0,0,1-2.06.05l-1.14-.09c-.18,0-1,0-1.8,0a6.43,6.43,0,0,0-1.61,0,15.58,15.58,0,0,1-2.92,0c-2.24,0-2.85,0-3.13-.07a8.38,8.38,0,0,0-1.93-.06,12.9,12.9,0,0,1-2.51,0c-.71-.06-1.35-.08-2.11-.09-.6,0-1.78,0-2.63-.06-1.26,0-1.75,0-2.7,0a27.91,27.91,0,0,1-3.2,0c-.48,0-2.58-.06-6.56-.08-5.06,0-5.94,0-6.39-.08a8,8,0,0,0-2,0c-.41,0-4.94.08-6.22.06a16.27,16.27,0,0,0-2.59,0,2.35,2.35,0,0,1-1,0c-.2,0-2.54-.08-7-.12l.88.89c0,.06,0-1.25,0-2.62,0-1.17,0-2.42.05-2.82l-1,1,1.07,0a25.72,25.72,0,0,0,3.77,0,7.65,7.65,0,0,1,2.34,0,13.16,13.16,0,0,0,2.73,0,6.26,6.26,0,0,1,1.43,0,11.37,11.37,0,0,0,1.58,0l3.79-.12.38.05a17.89,17.89,0,0,0,2.73,0,5.29,5.29,0,0,1,1.52,0,4,4,0,0,0,1.48,0,5.49,5.49,0,0,1,2,0,5.54,5.54,0,0,0,1.61-.07,1.54,1.54,0,0,1,.88,0,1.7,1.7,0,0,0,.77,0,3.25,3.25,0,0,1,.67,0,2.23,2.23,0,0,0,.92,0,3.68,3.68,0,0,1,1.54,0,12.19,12.19,0,0,0,2.58,0,5.24,5.24,0,0,1,1.08,0,1.08,1.08,0,0,0,.62,0c.5-.19.52-.19.8-.06a1.12,1.12,0,0,0,.85,0,2.31,2.31,0,0,1,1.05,0,4.58,4.58,0,0,0,1.72,0,1,1,0,0,1,.84,0,2,2,0,0,0,1.09,0,6.37,6.37,0,0,1,1.9,0,16.49,16.49,0,0,0,2.16.05,14.07,14.07,0,0,0,1.86-.07.45.45,0,0,1,.36,0Z"/><path class="cls-2" d="M276.86,148.9a2.26,2.26,0,0,1-1.63-.68,2.31,2.31,0,0,1,0-3.28l9.17-9.17-9.17-9.18a2.32,2.32,0,0,1,3.27-3.28l10.82,10.82a2.31,2.31,0,0,1,0,3.28L278.5,148.22A2.27,2.27,0,0,1,276.86,148.9Z"/><path class="cls-2" d="M285.15,140.06a1.21,1.21,0,0,0-.52.67c-.09.29-.18.38-.5.54a2.89,2.89,0,0,0-.93.89.7.7,0,0,1-.25.28,1.5,1.5,0,0,0-.31.29,3.57,3.57,0,0,1-.56.5c-.58.41-.67.49-.82.74a3,3,0,0,1-.73.81c-.21.16-.26.23-.29.34a.49.49,0,0,1-.33.34.38.38,0,0,0-.29.28c0,.07-.05.12-.15.18a.44.44,0,0,0-.17.16,4.64,4.64,0,0,1-.4.46l-.5.53a1,1,0,0,1-.31.21.79.79,0,0,0-.34.27.71.71,0,0,1-.33.24,1.1,1.1,0,0,0-.28.18.76.76,0,0,0-.28.7c0,.27,0,.29.18.45a1.56,1.56,0,0,0,.2.16,2.71,2.71,0,0,0,.68-.17,3.06,3.06,0,0,0,.95-.63,1.64,1.64,0,0,0,.38-.42c.07-.14.14-.21.38-.37a4,4,0,0,0,.39-.3l.8-.83a5.1,5.1,0,0,1,.9-.85.69.69,0,0,0,.3-.31c.14-.25.57-.69.7-.7s.33-.15.57-.53.58-.84.64-.91l.3-.18a1.58,1.58,0,0,0,.56-.46,3.22,3.22,0,0,1,.54-.49,1.09,1.09,0,0,0,.37-.37,14.59,14.59,0,0,1,1.18-1.28c1-1.06,1.07-1.09,1.24-1.13s.21-.08.57-.47.4-.45.42-.56.05-.15.18-.29a6.13,6.13,0,0,0,.75-.83,2.17,2.17,0,0,0,.38-1.13,5.31,5.31,0,0,1,0-.58,1,1,0,0,0-.11-.49,2.77,2.77,0,0,1-.21-.54,1.66,1.66,0,0,0-.23-.43,3.45,3.45,0,0,0-.3-.31l-.52-.5c-.57-.55-.71-.69-.78-.85a.89.89,0,0,0-.24-.29c-.08-.05-.22-.18-.33-.27l-.41-.34c-.19-.15-.23-.2-.24-.3a.52.52,0,0,0-.34-.36,12.67,12.67,0,0,1-1.75-1.76,1.73,1.73,0,0,0-.52-.5,5.61,5.61,0,0,1-1.27-1.28,3.28,3.28,0,0,0-1-1,1.51,1.51,0,0,1-.48-.37l-1.64-1.66-1-1.07a4.15,4.15,0,0,0-.72-.63,2,2,0,0,0-.85-.33,4.2,4.2,0,0,0-1.31,0,2.59,2.59,0,0,0-1.4.84,3.46,3.46,0,0,0-.65,1.11,3,3,0,0,0-.2,1,1.87,1.87,0,0,0,.1.67,3.57,3.57,0,0,0,.29.46,2.69,2.69,0,0,1,.35.48c.14.22,6.21,6.29,7.52,7.58l.76.81a8,8,0,0,0,.77.78l.28.26v-.89c0,.07-.56.59-1.1,1.13l-1.63,1.62a1.68,1.68,0,0,1-.61.49,5.42,5.42,0,0,0-1.28,1.07c-.3.29-.7.64-.89.79a8.94,8.94,0,0,0-.9.89L276,142.9c-.53.53-1.1,1.12-1.26,1.31s-.24.29-.33.38a3.19,3.19,0,0,1-.26.26,1.66,1.66,0,0,0-.47.9,3.44,3.44,0,0,0,.59,2.85,4.59,4.59,0,0,0,1.25,1.09,1,1,0,0,0,.8.24.3.3,0,0,1,.14-.05s.15-.06.24-.14.15-.2.15-.5,0-.35-.1-.49-.3-.35-.4-.36a.69.69,0,0,1-.24-.14.8.8,0,0,0-.35-.21,1.23,1.23,0,0,1-.63-1.08,1.26,1.26,0,0,0,0-.43.8.8,0,0,1,.15-.83,1.07,1.07,0,0,1,.34-.28,8.18,8.18,0,0,0,.65-.6c.48-.47.55-.56.56-.67s.1-.2,1-1.13A6,6,0,0,1,279,142a2.12,2.12,0,0,0,.74-.66,2.89,2.89,0,0,1,.94-.88,6.49,6.49,0,0,0,.82-.7c.22-.22.67-.63,1-.92a6.6,6.6,0,0,0,1-1,6.93,6.93,0,0,1,1.17-1.19l.28-.26.44-.43-.44-.71c-.06-.1-.8-.87-2.11-2.17a22.76,22.76,0,0,1-2.29-2.4,2.26,2.26,0,0,0-.77-.72c-.19-.12-1.89-1.76-2.34-2.24a4.78,4.78,0,0,0-1-.93c-.09,0-.28-.18-.36-.35a3.9,3.9,0,0,0-.31-.36,1.63,1.63,0,0,1-.33-.62,1.47,1.47,0,0,1,.83-1.74,1.29,1.29,0,0,1,1.15.08,13.83,13.83,0,0,0,1.22,1.06,2.2,2.2,0,0,1,.86.85,3.39,3.39,0,0,0,1,1,1.56,1.56,0,0,1,.51.54,3.44,3.44,0,0,0,.54.61l1.47,1.3a1.24,1.24,0,0,1,.1.17,4.73,4.73,0,0,0,1,1c.22.13.27.18.55.56s.31.41.56.53.23.09.71.76a1.51,1.51,0,0,0,.64.54.45.45,0,0,1,.32.33c0,.11.15.29.25.3a1.36,1.36,0,0,1,.23.26c.15.23.19.26.35.32a1.09,1.09,0,0,1,.59.54,1.3,1.3,0,0,0,.29.41c.09.11.2.23.3.37a.35.35,0,0,1,.08.31c0,.12,0,.13,0,.18s.19.18.05.25-.16.11-.1.25,0,.2-.14.28a.84.84,0,0,0-.23.18.71.71,0,0,0-.19.33c0,.18-.11.27-.31.31s-.3.14-.41.39a1.78,1.78,0,0,1-.7.69,4,4,0,0,0-.82.74,4.31,4.31,0,0,0-.63.73c0,.09-.05.11-.14.12A.84.84,0,0,0,285.15,140.06Z"/><rect class="cls-3" x="113.7" y="82.32" width="106.88" height="106.88" rx="4"/><path class="cls-3" d="M219.52,122.34a33.59,33.59,0,0,0,.1,4.72,22.12,22.12,0,0,1,0,4.1c-.11,1.68-.12,5.12,0,7.26,0,1,0,1.62,0,2.09s0,1.49,0,2.45c0,1.17,0,2.58,0,4.18-.12,3.94-.13,4.64-.05,6.22s.1,3.62.05,6.13a19,19,0,0,0,0,2.51,12.82,12.82,0,0,1,0,2.63,11,11,0,0,0,0,2.3,7,7,0,0,1,0,1.28c0,.48,0,1.08,0,1.34s0,1.8.05,3.44,0,3.46,0,4.07,0,1.54-.07,2.08a25.33,25.33,0,0,0,0,2.64c0,1,0,1.53,0,2.06v1.37a3.13,3.13,0,0,1,0,.49,3.37,3.37,0,0,1-1.12,2,5,5,0,0,1-1.4.81c-.31.14-.44.27-.44.48s0,.34.93.35a4.65,4.65,0,0,0,1-.15,4.38,4.38,0,0,0,2.32-2.73,5,5,0,0,0,.19-1.58v-1.54c0-1,0-1.93,0-2.54,0-1.38,0-2.56,0-3.18a26.3,26.3,0,0,1,0-3c0-1.09.06-2.33.06-2.75s0-3.35,0-6.49c0-4.25,0-6,0-7a19.37,19.37,0,0,0,0-2.41c-.08-1.55-.08-5,0-5.59a25.4,25.4,0,0,0,0-4.37c-.12-3.24-.2-5.64-.19-6.18,0-.25,0-1.09.08-1.89.07-1.18.09-1.91.07-4,0-1.52,0-3.23,0-4.16a28,28,0,0,0,0-2.9c0-.84,0-4.44-.07-9.83,0-8.32,0-8.54.08-9.41a35.52,35.52,0,0,0,.07-4.15c0-2.63,0-3.38-.1-3.86-.09-.7-.1-1.76-.05-7.61,0-2.39,0-4.74,0-5.7a4.89,4.89,0,0,0-1-2.81,4,4,0,0,0-2.14-1.45,5.61,5.61,0,0,0-1.42-.17l-1.45,0c-.83,0-1.85,0-2.27,0l-6.16,0c-4.47,0-5.58,0-6.53-.05-.74,0-1.47-.06-2.09,0l-2.38,0-3,.05a13.12,13.12,0,0,1-2.14,0,16,16,0,0,0-2.79,0c-1,.08-12.36.07-14,0-.92,0-1.65,0-4.07,0-3.87.09-7.8.08-10.13,0-2.65-.1-6.33-.1-8,0-1,.06-1.88.08-3.41.07l-13.08,0-13.09,0c-1.21,0-3,0-4.3,0a4.58,4.58,0,0,0-2.72,1,4.53,4.53,0,0,0-1.68,3.41c0,2.18,0,5.63,0,7.65s0,4.7,0,5.94-.08,3.25-.11,4.46,0,2.54,0,3,.06,1.48.1,2.35c0,1.14,0,1.89,0,2.64s0,49.58,0,59.78c0,.72,0,3.54,0,6.26s0,5.48,0,6.16c0,.19,0,.54,0,1.32a4.72,4.72,0,0,0,1.21,2.56,4.66,4.66,0,0,0,3.47,1.47h16.82c2.61,0,3.35,0,4.37.08,1.43.1,3.34.14,9.32.16l6.7.06c1.67,0,3.89,0,7.15,0l12.43,0,10.25,0a37.75,37.75,0,0,1,3.84.05c1.07.07,1.81.08,4.05.07,8.5-.05,17.37,0,18.56.09a17.93,17.93,0,0,0,3.22,0,2.59,2.59,0,0,1,.55-.07,5.12,5.12,0,0,0,.91-.16c.56-.15.63-.2.63-.51s-.05-.35-.66-.48a16.19,16.19,0,0,0-2.93-.3c-.33,0-1.18,0-1.9,0-1.06-.05-1.6-.05-2.92,0-1.76.06-5,0-9.26-.05-1.89,0-2.66,0-3.19,0-1.61.11-3.81.14-6.14.07l-3.13-.11c-.49,0-2.82,0-5.18,0a47,47,0,0,0-4.84.08c-.5.07-1.22.07-8.62.06-6.52,0-8.26,0-9-.08-1.39-.1-4-.12-5.56-.06-1.84.08-3.92.07-7.25,0-2-.06-3.84-.09-6.05-.09l-7.64-.06c-3.62,0-5.09,0-7.92,0l-5.41.06h-1.08a4.31,4.31,0,0,1-.85-.08,3.24,3.24,0,0,1-1.36-.68,3.51,3.51,0,0,1-.9-1.23,3.22,3.22,0,0,1-.25-1.29c0-.63,0-1.34,0-2.13,0-3.17,0-7.63,0-13.47,0-14.81,0-17.41.07-18.69.08-1.56.06-3.29,0-5.9,0-1.22-.1-14.52-.07-18.25,0-3.91,0-7.35,0-7.62a18.12,18.12,0,0,1,0-2.83c0-.81.12-13.37.15-28V86.47a3.18,3.18,0,0,1,.26-1.36,3.1,3.1,0,0,1,1.82-1.67,3.23,3.23,0,0,1,1.12-.16h1.26l1.74,0c4.6.07,8.85.06,11,0a66.87,66.87,0,0,1,6.79,0c2.2.1,5.84.12,7.93,0,1.17,0,1.79,0,4.15,0,1.94.06,3.32.07,4.57,0l11-.12,1.1,0c1.34.07,6.14.06,7.92,0,1.4-.06,1.79-.06,4.41,0a31.47,31.47,0,0,0,4.32,0,49.32,49.32,0,0,1,5.89,0,46.29,46.29,0,0,0,4.67-.07,12.8,12.8,0,0,1,2.56,0,14,14,0,0,0,2.23,0c.14,0,1,0,1.94,0a18.32,18.32,0,0,0,2.68,0,32,32,0,0,1,4.47,0c1,.09,4.12.11,7.48,0a4.67,4.67,0,0,1,1.5.1,2.73,2.73,0,0,1,.93.48,6.62,6.62,0,0,1,.9,1,2.22,2.22,0,0,1,.48,1,2,2,0,0,1,0,.79,8.63,8.63,0,0,0-.06,2.47,17.1,17.1,0,0,1,0,3,36,36,0,0,0,0,5,9,9,0,0,1,0,2.44,16.39,16.39,0,0,0,0,3.18c.09,1.31.09,3.7,0,5.52-.06,1.07-.07,2.29-.06,6.25,0,3.32,0,5.07.07,5.42a3.24,3.24,0,0,1,0,1C219.59,121.27,219.54,121.89,219.52,122.34Z"/><path class="cls-4" d="M192.75,143.59a9.63,9.63,0,0,0,.45-2.94,5.54,5.54,0,0,1,.47-2.54,23.3,23.3,0,0,0,.94-4.46,5.82,5.82,0,0,1,.24-1.3,12.71,12.71,0,0,0,.33-1.5,24.81,24.81,0,0,1,.59-2.56l.16-.57,0-.09v0h0l-3.08,0h0a0,0,0,0,1,0,0h0l3.12,0-3.12,0a16.24,16.24,0,0,0,.71,3.1,24.14,24.14,0,0,1,.91,3.74,2.46,2.46,0,0,1,.05.26L196,135.9a4.74,4.74,0,0,0,1.31-.07,3.57,3.57,0,0,1,1.66,0,3,3,0,0,0,1.45,0,1.93,1.93,0,0,1,.8,0,4.1,4.1,0,0,0,.84,0c.16,0,1.14-.06,2.16-.06l2.56,0a7.8,7.8,0,0,1,1.31.11,7.12,7.12,0,0,0,1.66.09c1.26,0,1.34,0,2.57,0a12.43,12.43,0,0,0,1.93-.12c1.26-.18,1.6-.4,1.61-1,0-.39,0-.42-.56-.68l-.56-.28-2.11,0-3.49-.05a16,16,0,0,0-2,.05,8.24,8.24,0,0,1-1.86,0c-.69-.06-1.46-.1-1.73-.1l-4.08,0c-2.11,0-3.25,0-3.45,0l.69.55a7.19,7.19,0,0,1-.17-.91,5.51,5.51,0,0,0-.34-1.48,16.73,16.73,0,0,1-.77-3.43,4,4,0,0,0-.15-1.33v0a.88.88,0,0,0-1.72,0c0,.29-.11.77-.19,1.4-.22,2-.42,3.53-.49,3.87,0,.15-.19.66-.36,1.13a13.84,13.84,0,0,0-.6,2.47c-.18.94-.41,2-.58,2.55a9.45,9.45,0,0,0-.36,1.79c-.06.52-.47,2.75-1.13,6.08-1,5.13-1.05,5.26-1.29,5.77a9,9,0,0,0-.63,2.53,11.42,11.42,0,0,0-.34,2.41,1.44,1.44,0,0,1,0,.35l1.36.06a31.91,31.91,0,0,1-.46-4.42c-.11-1.5-.26-3-.36-3.56a12.24,12.24,0,0,1-.17-1.72,8.79,8.79,0,0,0-.16-1.48,8.91,8.91,0,0,1-.16-1.72c0-.53,0-1.17-.07-1.43s-.22-2-.43-3.85a30.89,30.89,0,0,1-.33-4.09,6.93,6.93,0,0,0-.07-1.32c-.06-.32-.15-1-.21-1.48s-.19-1.33-.26-1.88a3.49,3.49,0,0,1-.08-1.34,4.08,4.08,0,0,0-.15-1.75c-.18-.62-.87-7.72-.85-8.74a13.72,13.72,0,0,0-.28-2.54c-.13-.87-.25-1.75-.32-2.28v0a.65.65,0,0,0-1.29,0,40.39,40.39,0,0,1-.87,4,27,27,0,0,0-.94,4.94,12.27,12.27,0,0,1-.29,2.13L179.62,133c-.73,3.74-1.46,7.37-1.62,8.07s-.39,1.86-.5,2.65-.38,2.19-.74,3.8c-.16.8-.39,1.88-.59,2.81l1.54.05c-.1-.76-.18-1.41-.24-1.92-.18-1.26-.36-2.93-.42-3.71s-.14-2-.2-2.8a17.41,17.41,0,0,0-.2-1.85l-.33-1.46a8.64,8.64,0,0,1-.25-1.64c0-.15-.38-3-1.41-11.29a.89.89,0,0,0-1.75-.09c-.09.37-.95,3.89-2.07,8.52l.88-.7H152.44a.88.88,0,0,0-.83.54v0c-.1.23-.47,1.09-.82,1.93-.68,1.59-1.31,3.18-1.44,3.59l-.24.61,1.82.15c-.1-.34-.72-3.12-1.37-6.11l-1.73-7.94-.13-.64a.93.93,0,0,0-1.09-.71.92.92,0,0,0-.66.56h0a12.12,12.12,0,0,1-.89,1.91,44.37,44.37,0,0,0-2.35,5.36c-.55,1.38-1.29,3.13-1.63,3.89-.43,1-.95,2.26-1.66,4.18l0,.1L142,141l-1.9-7.47c-.4-1.61-.83-3.31-1-3.89v0a1.32,1.32,0,0,0-1.59-1,1.34,1.34,0,0,0-.91.82c-.51,1.38-.72,2-.83,2.27a11.12,11.12,0,0,1-.8,2l1.23-.84-.28,0a14.57,14.57,0,0,0-2.55-.11c-5.34.06-10.91,0-11.66-.18a5.08,5.08,0,0,0-2,0,.74.74,0,0,1-.34.1,1.5,1.5,0,0,0-.57.25c-.36.22-.4.3-.4.75s0,.53.41.72a4.38,4.38,0,0,0,1.84.46,10.73,10.73,0,0,1,1.19.08,8.05,8.05,0,0,0,1.84,0,53.42,53.42,0,0,1,5.82.1,9.64,9.64,0,0,0,2,0,17,17,0,0,1,3.86-.1c.34,0,.7,0,.85.08a.64.64,0,0,0,.68-.36l.06-.15c.25-.53.4-.85.49-1s.69-1.62,1.22-3l.07-.18h0l-1.8-.11h0l1.8.11-1.8-.11a11.22,11.22,0,0,0,.8,2.73c.17.28.29.72,1.39,5.25.58,2.42.9,3.77.77,3.36l1.49.1a15.36,15.36,0,0,1,.88-2,16.64,16.64,0,0,0,1.35-3.22,24.93,24.93,0,0,1,1.73-4.23c.54-1.12,1-2.19,1.52-3.49l1-2.5-2.23-.18c.12.63.27,1.41.39,2.07.42,2.24.62,3.14,1.07,4.86a55.2,55.2,0,0,1,1.28,5.78c0,.14.06.37.41,2a1.21,1.21,0,0,0,1.43.93,1.19,1.19,0,0,0,.77-.55l.12-.19c.07-.12.7-1.66,2.49-6.13l-1.17.8h3.39c9.31,0,10.95,0,11.75.13a18.13,18.13,0,0,0,3.71-.06h.54a1.21,1.21,0,0,0,1.17-1c.13-.75,1.27-5.71,1.95-8.55l-2.38-.13c.14,1.1.22,1.8.28,2.26a44.17,44.17,0,0,0,.67,4.75,5.1,5.1,0,0,1,.24,1.76c0,.47.74,7,1.83,15.9a1.36,1.36,0,0,0,2.68.11v0c0-.07.16-.76.32-1.6.58-2.91,1.23-6.05,1.44-7a54.42,54.42,0,0,0,1.24-6.78,17.73,17.73,0,0,1,.81-4.2,28.39,28.39,0,0,0,1-4.88,13.48,13.48,0,0,1,.53-2.56,27.48,27.48,0,0,0,.61-2.8c.14-.87,1-6,1.1-6.67l-2.77-.13v.17c0,.08,0,.39,0,.69a37.51,37.51,0,0,0,.53,5,12.69,12.69,0,0,1,.26,2.76,9.12,9.12,0,0,0,.29,2.7c.24,1,.23.8.32,3.69a11.45,11.45,0,0,0,.39,2.91,3.46,3.46,0,0,1,.15,1.6,3.47,3.47,0,0,0,.08,1.41,8.39,8.39,0,0,1,.08,1.21,5.25,5.25,0,0,0,.2,1.68,8.28,8.28,0,0,1,.34,2.79,26.19,26.19,0,0,0,.4,4.68,11.47,11.47,0,0,1,.16,2,2.24,2.24,0,0,0,.14,1.13c.36.88.37.91.23,1.44a2.33,2.33,0,0,0,.08,1.55,5,5,0,0,1,.18,1.91,10,10,0,0,0,.34,3.11,2.3,2.3,0,0,1,.21,1.23,1.25,1.25,0,0,0,2.37.67l.26-.53.13-.27a4.26,4.26,0,0,0,.42-2,14.74,14.74,0,0,1,.7-3.39,32.14,32.14,0,0,0,.87-3.84,32.29,32.29,0,0,0,.57-3.36,1,1,0,0,1,.16-.63A6.51,6.51,0,0,0,192.75,143.59Z"/></g></svg>