<?xml version="1.0" encoding="utf-8"?>
<!-- Generator: Adobe Illustrator 23.0.2, SVG Export Plug-In . SVG Version: 6.00 Build 0)  -->
<svg version="1.1" id="Layer_1" xmlns="http://www.w3.org/2000/svg" xmlns:xlink="http://www.w3.org/1999/xlink" x="0px" y="0px"
	 viewBox="0 0 48 48" style="enable-background:new 0 0 48 48;" xml:space="preserve">
<style type="text/css">
	.st0{fill:#FFFFFF;}
</style>
<path class="st0" d="M38.1,38.8c0,0-4.7-1.9-8.5-3.3h-16c-1.9,0-3.4-1.6-3.4-3.6V10.4c0-2,1.5-3.6,3.4-3.6h21.1
	c1.9,0,3.4,1.6,3.4,3.6v18.4h0V38.8z M33.9,26.8c-0.3-0.4-0.9-0.5-1.3-0.1c0,0-3,2.7-8.6,2.7c-5.5,0-8.5-2.6-8.6-2.7
	c-0.4-0.3-1-0.3-1.3,0.1C14.1,27,14,27.2,14,27.5c0,0.3,0.1,0.5,0.3,0.7c0.1,0.1,3.5,3.1,9.8,3.1c6.2,0,9.6-3,9.8-3.1
	c0.2-0.2,0.3-0.4,0.3-0.7C34.2,27.2,34.1,27,33.9,26.8z"/>
</svg>
