<?xml version="1.0" encoding="utf-8"?>
<!-- Generator: Adobe Illustrator 23.0.2, SVG Export Plug-In . SVG Version: 6.00 Build 0)  -->
<svg version="1.1" id="Layer_1" xmlns="http://www.w3.org/2000/svg" xmlns:xlink="http://www.w3.org/1999/xlink" x="0px" y="0px"
	 viewBox="0 0 306 54" style="enable-background:new 0 0 306 54;" xml:space="preserve">
<style type="text/css">
	.st0{fill:#2A3141;}
	.st1{fill:#F5B54D;}
	.st2{fill:#CC61A8;}
	.st3{fill:#BACC54;}
	.st4{fill:#21ABB0;}
</style>
<g id="Layer_2_2_">
	<g id="Layer_1-2_1_">
		<path class="st0" d="M255.46,0h10.79c0.83,0,1.5,0.67,1.5,1.49v40.88c0,0.82-0.67,1.49-1.5,1.49h-10.79c-0.83,0-1.5-0.67-1.5-1.49
			V1.49C253.97,0.67,254.64,0,255.46,0z"/>
		<path class="st0" d="M292.23,1.49v12.22c0,0.23-0.19,0.41-0.42,0.41c-0.09,0-0.18-0.03-0.25-0.09c-2.09-1.61-4.66-2.47-7.31-2.44
			c-7.8,0-13.01,6.68-13.01,16.44c0,9.08,4.7,16.44,13.01,16.44c2.64,0.05,5.22-0.81,7.31-2.42c0.18-0.14,0.44-0.11,0.58,0.07
			c0.06,0.08,0.09,0.17,0.09,0.26l0,0c0,0.82,0.67,1.49,1.5,1.49h10.79c0.82,0,1.49-0.67,1.49-1.49V1.49c0-0.82-0.67-1.49-1.5-1.49
			h-10.79C292.89,0,292.23,0.67,292.23,1.49z M289.01,33.05c-2.06,0-3.23-2.25-3.23-5.02c0-2.98,1.3-5.02,3.23-5.02
			s3.22,2.04,3.22,5.02C292.23,30.81,291.06,33.05,289.01,33.05L289.01,33.05z"/>
		<path class="st0" d="M232.61,11.59c-11.09,0-17.79,7.36-17.79,16.44s6.69,16.44,17.79,16.44s17.79-7.36,17.79-16.42
			S243.71,11.59,232.61,11.59z M232.61,33.05c-2.06,0-3.22-2.25-3.22-5.02c0-2.98,1.29-5.02,3.22-5.02s3.22,2.04,3.22,5.02
			C235.83,30.81,234.67,33.05,232.61,33.05z"/>
		<path class="st0" d="M120.87,31.6c0.37-0.01,0.67-0.27,0.74-0.63c0.16-0.97,0.25-1.95,0.24-2.93c0-9.08-6.69-16.42-17.79-16.42
			s-17.79,7.36-17.79,16.44s6.69,16.44,17.79,16.44c8.48,0,14.39-4.3,16.7-10.38c0.14-0.4-0.08-0.83-0.48-0.97
			c-0.07-0.02-0.15-0.04-0.22-0.04h-12.67c-0.2,0-0.4,0.08-0.54,0.23c-0.71,0.8-1.73,1.26-2.8,1.25c-1.62,0-2.84-0.94-3.6-2.42
			c-0.09-0.19,0-0.42,0.19-0.5c0.05-0.02,0.09-0.03,0.14-0.03L120.87,31.6z M104.06,21.51c1.56,0,2.81,0.9,3.59,2.41
			c0.09,0.19,0.01,0.42-0.19,0.51c-0.05,0.02-0.1,0.03-0.15,0.04h-6.5c-0.21-0.01-0.38-0.18-0.37-0.39c0-0.05,0.01-0.1,0.04-0.15
			C101.25,22.41,102.51,21.51,104.06,21.51z"/>
		<path class="st0" d="M199.66,11.59c-2.65-0.03-5.23,0.83-7.32,2.45c-0.18,0.14-0.44,0.11-0.58-0.07
			c-0.06-0.07-0.09-0.16-0.09-0.25V1.5c0-0.82-0.66-1.5-1.49-1.5c0,0-0.01,0-0.01,0h-10.78c-0.83,0-1.5,0.67-1.5,1.49v0v40.89
			c0,0.82,0.67,1.49,1.5,1.49l0,0h10.79c0.82,0,1.49-0.67,1.49-1.49l0,0c0-0.23,0.18-0.41,0.41-0.42c0.1,0,0.19,0.03,0.26,0.09
			c2.09,1.61,4.68,2.46,7.32,2.41c8.33,0,13.01-7.36,13.01-16.42C212.67,18.27,207.46,11.59,199.66,11.59z M194.92,33.05
			c-2.06,0-3.22-2.25-3.22-5.02c0-2.98,1.29-5.02,3.22-5.02c1.93,0,3.22,2.04,3.22,5.02C198.13,30.81,196.99,33.05,194.92,33.05
			L194.92,33.05z"/>
		<path class="st0" d="M162.23,11.59c-3.14-0.01-6.16,1.2-8.41,3.39c-3.47-4.06-9.58-4.54-13.65-1.07
			c-0.52,0.44-0.99,0.94-1.41,1.49v-1.68c0-0.82-0.66-1.5-1.49-1.5c0,0,0,0,0,0h-10.79c-0.83,0-1.5,0.67-1.5,1.49v0v28.64
			c0,0.82,0.67,1.49,1.5,1.49l0,0h12.31V25.18c0-1.08,0.87-1.95,1.95-1.95l0,0c1.08,0,1.95,0.87,1.95,1.95v17.18
			c0,0.82,0.67,1.49,1.49,1.49h12.29V25.18c0-1.08,0.87-1.95,1.95-1.95c0,0,0,0,0,0l0,0c1.08,0,1.95,0.87,1.95,1.95c0,0,0,0,0,0
			v17.18c0,0.82,0.67,1.49,1.5,1.49l0,0h10.79c0.83,0,1.5-0.67,1.5-1.49v0V23.23C174.16,16.37,169.24,11.59,162.23,11.59z"/>
		<path class="st1" d="M8.85,2.09h49c0.83,0,1.5,0.67,1.5,1.49v11.55c0,0.82-0.67,1.49-1.5,1.49h-49c-0.83,0-1.5-0.67-1.5-1.49V3.59
			C7.35,2.76,8.02,2.09,8.85,2.09z"/>
		<path class="st2" d="M1.5,20.78h22.49c0.83,0,1.5,0.67,1.5,1.49v11.55c0,0.82-0.67,1.49-1.5,1.49H1.5c-0.83,0-1.5-0.67-1.5-1.49
			V22.27C0,21.45,0.67,20.78,1.5,20.78z"/>
		<path class="st3" d="M33.03,20.78h11.57c0.83,0,1.5,0.67,1.5,1.49v11.55c0,0.82-0.67,1.49-1.5,1.49H33.03
			c-0.83,0-1.5-0.67-1.5-1.49V22.27C31.53,21.45,32.2,20.78,33.03,20.78z"/>
		<path class="st4" d="M57.85,54h-49c-0.83,0-1.5-0.67-1.5-1.49V40.96c0-0.82,0.67-1.49,1.5-1.49h49c0.83,0,1.5,0.67,1.5,1.49v11.55
			C59.35,53.33,58.68,54,57.85,54z"/>
	</g>
</g>
</svg>
