<?xml version="1.0" encoding="utf-8"?>
<!-- Generator: Adobe Illustrator 23.0.2, SVG Export Plug-In . SVG Version: 6.00 Build 0)  -->
<svg version="1.1" id="Layer_1" xmlns="http://www.w3.org/2000/svg" xmlns:xlink="http://www.w3.org/1999/xlink" x="0px" y="0px"
	 viewBox="0 0 306 54" style="enable-background:new 0 0 306 54;" xml:space="preserve">
<style type="text/css">
	.st0{fill:#FFFFFF;}
	.st1{fill:#F5B54D;}
	.st2{fill:#CC61A8;}
	.st3{fill:#BACC54;}
	.st4{fill:#21ABB0;}
</style>
<g id="Layer_2_2_">
	<g id="Layer_1-2_1_">
		<path class="st0" d="M255.5,0h10.8c0.8,0,1.5,0.7,1.5,1.5v40.9c0,0.8-0.7,1.5-1.5,1.5h-10.8c-0.8,0-1.5-0.7-1.5-1.5V1.5
			C254,0.7,254.6,0,255.5,0z"/>
		<path class="st0" d="M292.2,1.5v12.2c0,0.2-0.2,0.4-0.4,0.4c-0.1,0-0.2,0-0.2-0.1c-2.1-1.6-4.7-2.5-7.3-2.4c-7.8,0-13,6.7-13,16.4
			c0,9.1,4.7,16.4,13,16.4c2.6,0,5.2-0.8,7.3-2.4c0.2-0.1,0.4-0.1,0.6,0.1c0.1,0.1,0.1,0.2,0.1,0.3l0,0c0,0.8,0.7,1.5,1.5,1.5h10.8
			c0.8,0,1.5-0.7,1.5-1.5V1.5c0-0.8-0.7-1.5-1.5-1.5h-10.8C292.9,0,292.2,0.7,292.2,1.5z M289,33c-2.1,0-3.2-2.2-3.2-5
			c0-3,1.3-5,3.2-5s3.2,2,3.2,5C292.2,30.8,291.1,33,289,33L289,33z"/>
		<path class="st0" d="M232.6,11.6c-11.1,0-17.8,7.4-17.8,16.4s6.7,16.4,17.8,16.4s17.8-7.4,17.8-16.4S243.7,11.6,232.6,11.6z
			 M232.6,33c-2.1,0-3.2-2.2-3.2-5c0-3,1.3-5,3.2-5s3.2,2,3.2,5C235.8,30.8,234.7,33,232.6,33z"/>
		<path class="st0" d="M120.9,31.6c0.4,0,0.7-0.3,0.7-0.6c0.2-1,0.2-2,0.2-2.9c0-9.1-6.7-16.4-17.8-16.4S86.3,19,86.3,28.1
			s6.7,16.4,17.8,16.4c8.5,0,14.4-4.3,16.7-10.4c0.1-0.4-0.1-0.8-0.5-1c-0.1,0-0.2,0-0.2,0h-12.7c-0.2,0-0.4,0.1-0.5,0.2
			c-0.7,0.8-1.7,1.3-2.8,1.2c-1.6,0-2.8-0.9-3.6-2.4c-0.1-0.2,0-0.4,0.2-0.5c0.1,0,0.1,0,0.1,0L120.9,31.6z M104.1,21.5
			c1.6,0,2.8,0.9,3.6,2.4c0.1,0.2,0,0.4-0.2,0.5c-0.1,0-0.1,0-0.2,0h-6.5c-0.2,0-0.4-0.2-0.4-0.4c0,0,0-0.1,0-0.1
			C101.2,22.4,102.5,21.5,104.1,21.5z"/>
		<path class="st0" d="M199.7,11.6c-2.6,0-5.2,0.8-7.3,2.4c-0.2,0.1-0.4,0.1-0.6-0.1c-0.1-0.1-0.1-0.2-0.1-0.2V1.5
			c0-0.8-0.7-1.5-1.5-1.5h0h-10.8c-0.8,0-1.5,0.7-1.5,1.5l0,0v40.9c0,0.8,0.7,1.5,1.5,1.5l0,0h10.8c0.8,0,1.5-0.7,1.5-1.5l0,0
			c0-0.2,0.2-0.4,0.4-0.4c0.1,0,0.2,0,0.3,0.1c2.1,1.6,4.7,2.5,7.3,2.4c8.3,0,13-7.4,13-16.4C212.7,18.3,207.5,11.6,199.7,11.6z
			 M194.9,33c-2.1,0-3.2-2.2-3.2-5c0-3,1.3-5,3.2-5c1.9,0,3.2,2,3.2,5C198.1,30.8,197,33,194.9,33L194.9,33z"/>
		<path class="st0" d="M162.2,11.6c-3.1,0-6.2,1.2-8.4,3.4c-3.5-4.1-9.6-4.5-13.6-1.1c-0.5,0.4-1,0.9-1.4,1.5v-1.7
			c0-0.8-0.7-1.5-1.5-1.5l0,0h-10.8c-0.8,0-1.5,0.7-1.5,1.5l0,0v28.6c0,0.8,0.7,1.5,1.5,1.5l0,0h12.3V25.2c0-1.1,0.9-2,1.9-2l0,0
			c1.1,0,1.9,0.9,1.9,2v17.2c0,0.8,0.7,1.5,1.5,1.5h12.3V25.2c0-1.1,0.9-2,1.9-2l0,0l0,0c1.1,0,1.9,0.9,1.9,2l0,0v17.2
			c0,0.8,0.7,1.5,1.5,1.5l0,0h10.8c0.8,0,1.5-0.7,1.5-1.5l0,0V23.2C174.2,16.4,169.2,11.6,162.2,11.6z"/>
		<path class="st1" d="M8.9,2.1h49c0.8,0,1.5,0.7,1.5,1.5v11.6c0,0.8-0.7,1.5-1.5,1.5h-49c-0.8,0-1.5-0.7-1.5-1.5V3.6
			C7.3,2.8,8,2.1,8.9,2.1z"/>
		<path class="st2" d="M1.5,20.8H24c0.8,0,1.5,0.7,1.5,1.5v11.5c0,0.8-0.7,1.5-1.5,1.5H1.5c-0.8,0-1.5-0.7-1.5-1.5V22.3
			C0,21.5,0.7,20.8,1.5,20.8z"/>
		<path class="st3" d="M33,20.8h11.6c0.8,0,1.5,0.7,1.5,1.5v11.5c0,0.8-0.7,1.5-1.5,1.5H33c-0.8,0-1.5-0.7-1.5-1.5V22.3
			C31.5,21.5,32.2,20.8,33,20.8z"/>
		<path class="st4" d="M57.8,54h-49c-0.8,0-1.5-0.7-1.5-1.5V41c0-0.8,0.7-1.5,1.5-1.5h49c0.8,0,1.5,0.7,1.5,1.5v11.5
			C59.3,53.3,58.7,54,57.8,54z"/>
	</g>
</g>
</svg>
