<?xml version="1.0" encoding="utf-8"?>
<!-- Generator: Adobe Illustrator 23.0.2, SVG Export Plug-In . SVG Version: 6.00 Build 0)  -->
<svg version="1.1" id="Layer_1" xmlns="http://www.w3.org/2000/svg" xmlns:xlink="http://www.w3.org/1999/xlink" x="0px" y="0px"
	 viewBox="0 0 1500 480" style="enable-background:new 0 0 1500 480;" xml:space="preserve">
<style type="text/css">
	.st0{fill:url(#SVGID_1_);}
	.st1{fill:none;stroke:#E2E5EB;stroke-miterlimit:10;}
	.st2{fill:#2A3141;}
	.st3{fill:#BACC54;}
	.st4{fill:url(#SVGID_2_);}
	.st5{fill:#1C212B;}
	.st6{fill:none;stroke:#E2E5EB;stroke-width:2;stroke-miterlimit:10;}
	.st7{fill:#FFFFFF;stroke:#F5B54D;stroke-width:3;stroke-miterlimit:10;}
	.st8{fill:#FFFFFF;}
	.st9{fill:#5C677F;}
</style>
<g>
	<g>
		<linearGradient id="SVGID_1_" gradientUnits="userSpaceOnUse" x1="1176.1598" y1="251.4472" x2="93.3507" y2="251.4472">
			<stop  offset="0.4405" style="stop-color:#FFFFFF"/>
			<stop  offset="1" style="stop-color:#E2E5EB"/>
		</linearGradient>
		<polygon class="st0" points="93.4,408 604.8,343.1 972.8,267 1176.2,94.9 1176.2,408 		"/>
	</g>
	<line class="st1" x1="605.4" y1="342.5" x2="605.4" y2="407.4"/>
	<line class="st1" x1="973.4" y1="266.4" x2="973.4" y2="408.6"/>
	<g>
		<g>
			<g>
				<path class="st2" d="M1031.9,219.1c3.1-2.5,7.1-5.9,9.8-8.5c3-2.8,4.6-4.2,8.6-7.3c3.6-2.9,10.9-9,15.3-12.9
					c2-1.8,3.3-2.9,4.4-3.7c0.8-0.7,3.1-2.6,5.2-4.3c2.4-2.1,5.4-4.6,8.8-7.4c8.4-6.9,9.9-8.1,13.1-11c3.5-3.1,7.5-6.5,12.8-10.9
					c3.1-2.6,4.1-3.4,5.2-4.5c1.8-1.7,3.9-3.5,5.5-4.7c1.6-1.2,3.8-3.1,4.8-4.1c0.6-0.6,1.3-1.2,2.7-2.3c1-0.8,2.3-1.9,2.8-2.4
					c0.5-0.5,3.8-3.3,7.2-6.2c3.4-2.9,7.3-6.2,8.5-7.3c1.3-1.1,3.3-2.7,4.4-3.6c1.6-1.3,3-2.4,5.6-4.6c4.2-3.6,4.4-3.8,8.6-7.3
					c2.2-1.8,4.3-3.7,6.4-5.6c4.1-3.7,5.1-4.8,4.7-5.3c-0.2-0.3-0.3-0.3-2.3,1.1l-2.1,1.4l-7,5.9c-3.9,3.3-9.1,7.7-11.7,9.8
					c-2.9,2.4-5.4,4.6-6.7,5.7c-1.7,1.5-2.8,2.5-6.2,5.3c-2.3,1.9-4.9,4.1-5.8,4.8c-0.9,0.8-7,6-13.6,11.6
					c-8.9,7.6-12.7,10.7-14.6,12.3c-2.2,1.8-3.1,2.5-5.1,4.3c-3.2,2.9-10.5,9-11.7,9.9c-1.9,1.4-4,3.2-9.2,7.7
					c-6.7,5.9-11.7,10.3-12.8,11.2c-0.5,0.4-2.3,1.9-4,3.2c-2.5,2-4.1,3.3-8.5,7.1c-3.2,2.7-6.8,5.8-8.8,7.4c-2.6,2.1-4,3.3-6.1,5.2
					c-1.7,1.5-9.3,8-20.6,17.6c-17.5,14.8-17.9,15.2-19.8,16.6c-1.8,1.4-2.5,1.9-8.8,7.3c-5.5,4.7-7.1,6-8,7
					c-1.1,1-2.6,2.4-10.4,8.9l0.3-0.1c-0.5,0.1-3.5,0.7-7.1,1.4c-6.5,1.3-12.8,2.6-15.4,3.2c-2.7,0.6-5.5,1.2-7.4,1.5
					c-2,0.4-4.1,0.8-6.4,1.3c-2.5,0.6-4.3,1-7.4,1.5c-2.2,0.4-5,1-6.1,1.2c-1.1,0.2-8.6,1.8-16.6,3.5c-12.1,2.5-15,3.1-17.6,3.6
					c-2,0.3-4,0.7-5.6,1.1c-1.4,0.3-4.3,0.9-6.4,1.4c-2.1,0.5-5.8,1.2-8.1,1.8c-3.5,0.8-4.5,1-5.8,1.1c-1.8,0.2-4.8,0.9-7.5,1.5
					c-2.7,0.7-33.3,7-37.6,7.8c-2.5,0.4-4.4,0.9-11,2.3c-10.4,2.3-21,4.5-27.3,5.6c-7.2,1.3-17.1,3.4-21.6,4.5
					c-2.6,0.6-5.1,1.2-9.2,2c-3.1,0.6-19,3.9-35.3,7.3c-16.3,3.3-32.2,6.6-35.3,7.2c-3.3,0.6-8.1,1.7-11.6,2.4
					c-3.9,0.9-9.5,2-16.6,3.4c-5.9,1.2-15.1,3.1-20.6,4.2c-5.5,1.1-12.7,2.6-16,3.2l-8.6,1.7l0.1,0l-3.4,0.4c-3.3,0.4-7,0.8-8.1,1
					c-1.2,0.2-4,0.6-6.4,1c-3.1,0.5-5.1,0.7-7.2,1c-2.2,0.3-135.4,17.1-163.2,20.7c-2,0.2-9.7,1.2-17.1,2.1
					c-7.5,0.9-15,1.9-16.8,2.1c-1.8,0.2-15.3,2-30,3.9c-14.7,1.9-30.6,3.9-35.3,4.5c-7.1,0.9-9.1,1.1-12,1.4c-3.9,0.3-9.1,1-25.5,3
					c-6.4,0.8-14.7,1.8-18.3,2.2c-4.6,0.5-10.6,1.3-19.5,2.5c-7.1,0.9-22.4,2.9-33.9,4.4c-11.6,1.5-24.1,3.1-28,3.6
					c-6.1,0.8-7.4,1-10.5,1.3c-2.9,0.3-4.9,0.5-11.1,1.3c-23.2,3-47.4,6-50.7,6.3c-3,0.2-7.8,0.8-8.8,1.1c-0.4,0.1-1.1,0.2-1.5,0.3
					c-0.4,0.1-1.5,0.3-2.4,0.6c-1.5,0.4-1.7,0.5-1.6,1c0.1,0.5,0.2,0.5,1.9,0.5c2.4,0,6-0.3,8.1-0.6c0.9-0.1,3.2-0.4,5.2-0.6
					c2.9-0.3,4.4-0.5,8-1c4.8-0.7,13.6-1.8,25.3-3.1c5.2-0.6,7.3-0.9,8.7-1.1c4.4-0.7,10.4-1.5,16.8-2.2c3.4-0.4,7.3-0.8,8.6-0.9
					c1.3-0.1,7.7-0.9,14.1-1.7c10.2-1.3,11.9-1.5,13.2-1.8c1.3-0.3,3.3-0.5,23.5-3.1c17.8-2.2,22.6-2.8,24.6-3
					c3.8-0.3,11-1.2,15.2-1.8c5-0.8,10.7-1.5,19.8-2.5c5.4-0.6,10.5-1.2,16.5-2c4.8-0.6,14.2-1.7,20.9-2.6
					c9.9-1.2,13.9-1.7,21.6-2.8c12-1.6,18.8-2.5,25.7-3.3c3.7-0.4,20.5-2.5,52.4-6.6c40.4-5.1,47.5-6,51.1-6.4c4.3-0.4,9-1,16.1-2.1
					c3.3-0.5,39.6-5.2,49.8-6.4c10.7-1.3,20.1-2.5,20.8-2.7c0.9-0.2,4.9-0.7,7.7-1c1.1-0.1,9.3-1.1,36.2-4.5l0.1,0
					c-0.1,0,1.1-0.2,3.2-0.6c2.1-0.4,5.1-1,8.8-1.8c7.4-1.5,17.4-3.6,27.9-5.7c12.7-2.6,26.5-5.4,30.5-6.2
					c12.4-2.5,23.9-4.8,29.5-6.2c6.3-1.5,11.9-2.6,18.3-3.8c5.9-1.1,15.8-3.1,21.4-4.4c3.1-0.7,4.8-1.1,11.2-2.3
					c5.2-1,9-1.7,12.3-2.5c3.9-0.8,27.3-5.8,29.7-6.3c0.3-0.1,1.7-0.3,3-0.5c3.6-0.6,16.6-3.3,21.3-4.4c3.8-0.9,4.8-1.1,11.9-2.4
					c7.6-1.5,7.8-1.5,11.6-2.4c4.1-1,3.5-0.9,15.9-3.2c4.9-0.9,10.1-2.1,12.5-2.7c2.1-0.6,5.2-1.2,6.9-1.4c1.4-0.2,4.9-0.9,6-1.2
					c0.4-0.1,2.7-0.6,5.2-1c4-0.8,4.9-0.9,7.2-1.5c4-1,9.1-2.1,12-2.5c2.8-0.4,11.1-2.1,20.2-4.1c3.9-0.8,6.1-1.3,8.5-1.7
					c2.9-0.5,3.5-0.6,4.8-1c3.9-1.1,4-1.1,6.2-1.4c2.4-0.3,3.7-0.5,6.7-1.3c2.7-0.7,4.4-1,8.2-1.7c2-0.3,4.5-0.8,6.8-1.3l0.4-0.1
					l0.3-0.3c2.2-1.9,4.2-3.6,5.1-4.5c1.5-1.5,3.1-2.8,5.1-4.3c1.9-1.4,3.9-3.1,6.7-5.6c2.7-2.4,7.7-6.7,11.6-9.8
					c2.3-1.9,4.9-4,13.2-11.1c7-5.9,10.6-9.1,11.3-9.7c0.8-0.8,1.2-1.1,2.2-1.8C1029.6,220.9,1031,219.9,1031.9,219.1z"/>
			</g>
		</g>
	</g>
	<g>
		
			<image style="overflow:visible;opacity:8.000000e-02;" width="292" height="107" xlink:href="A5CA69B4C0E36FF8.png"  transform="matrix(1 0 0 1 643 76)">
		</image>
		<g>
			<path class="st3" d="M918.3,168.5h-259c-2.2,0-4-1.8-4-4V90.2c0-2.2,1.8-4,4-4h259c2.2,0,4,1.8,4,4v74.3
				C922.3,166.7,920.5,168.5,918.3,168.5z"/>
		</g>
	</g>
	<g>
		
			<image style="overflow:visible;opacity:8.000000e-02;" width="207" height="107" xlink:href="A5CA69B4C0E36FFE.png"  transform="matrix(1 0 0 1 971 76)">
		</image>
		<g>
			<path class="st3" d="M1161.6,168.5H987.4c-2.2,0-4-1.8-4-4V90.2c0-2.2,1.8-4,4-4h174.2c2.2,0,4,1.8,4,4v74.3
				C1165.6,166.7,1163.8,168.5,1161.6,168.5z"/>
		</g>
	</g>
	<g>
		
			<image style="overflow:visible;opacity:8.000000e-02;" width="292" height="107" xlink:href="A5CA69B4C0E36FFA.png"  transform="matrix(1 0 0 1 196 76)">
		</image>
		<g>
			<path class="st3" d="M471.7,168.5h-259c-2.2,0-4-1.8-4-4V90.2c0-2.2,1.8-4,4-4h259c2.2,0,4,1.8,4,4v74.3
				C475.7,166.7,473.9,168.5,471.7,168.5z"/>
		</g>
	</g>
	<rect x="93.4" y="405.5" class="st2" width="1021.7" height="5"/>
	<linearGradient id="SVGID_2_" gradientUnits="userSpaceOnUse" x1="1115.0336" y1="408.0054" x2="1377.0034" y2="408.0054">
		<stop  offset="0" style="stop-color:#2A3141"/>
		<stop  offset="1" style="stop-color:#FFFFFF"/>
	</linearGradient>
	<rect x="1115" y="405.5" class="st4" width="262" height="5"/>
	<g>
		<path class="st5" d="M101.2,437.2v2h-7.2v-1.2l4.2-5c0.4-0.5,0.7-1.1,0.7-1.4c0-0.7-0.6-1.2-1.4-1.2c-0.9,0-1.5,0.6-1.6,1.5
			l-1.9-0.3c0.3-1.9,1.5-3.2,3.6-3.2c2.1,0,3.5,1.3,3.5,3.2c0,1-0.5,1.9-1.2,2.7l-2.5,2.9H101.2z"/>
		<path class="st5" d="M102.9,433.9c0-3.1,0.9-5.5,4-5.5c3.1,0,3.9,2.4,3.9,5.5c0,3-0.8,5.4-3.9,5.4
			C103.8,439.4,102.9,437,102.9,433.9z M108.7,433.9c0-2-0.4-3.5-1.8-3.5c-1.4,0-1.8,1.5-1.8,3.5c0,1.9,0.4,3.5,1.8,3.5
			C108.3,437.4,108.7,435.9,108.7,433.9z"/>
		<path class="st5" d="M112.5,433.9c0-3.1,0.9-5.5,4-5.5c3.1,0,3.9,2.4,3.9,5.5c0,3-0.8,5.4-3.9,5.4
			C113.4,439.4,112.5,437,112.5,433.9z M118.2,433.9c0-2-0.4-3.5-1.8-3.5c-1.4,0-1.8,1.5-1.8,3.5c0,1.9,0.4,3.5,1.8,3.5
			C117.8,437.4,118.2,435.9,118.2,433.9z"/>
		<path class="st5" d="M130.1,433.6c0,3.1-1.5,5.8-4.5,5.8c-1.4,0-2.8-0.7-3.4-2.1l1.7-0.9c0.3,0.7,1,1.1,1.7,1.1
			c1.3,0,2.3-1.2,2.4-2.8c-0.5,0.5-1.3,0.9-2.3,0.9c-2.2,0-3.6-1.6-3.6-3.4c0-2,1.6-3.6,3.9-3.6
			C128.4,428.5,130.1,430.5,130.1,433.6z M127.7,432.1c0-0.9-0.7-1.6-1.8-1.6c-1.1,0-1.8,0.7-1.8,1.6c0,0.9,0.7,1.6,1.7,1.6
			C126.9,433.7,127.7,433,127.7,432.1z"/>
	</g>
	<g>
		<path class="st5" d="M557.9,437.9v2h-7.2v-1.2l4.2-5c0.4-0.5,0.7-1.1,0.7-1.4c0-0.7-0.6-1.2-1.4-1.2c-0.9,0-1.5,0.6-1.6,1.5
			l-1.9-0.3c0.3-1.9,1.5-3.2,3.6-3.2c2.1,0,3.5,1.3,3.5,3.2c0,1-0.5,1.9-1.2,2.7l-2.5,2.9H557.9z"/>
		<path class="st5" d="M559.6,434.6c0-3.1,0.9-5.5,4-5.5c3.1,0,3.9,2.4,3.9,5.5c0,3-0.8,5.4-3.9,5.4
			C560.4,440,559.6,437.6,559.6,434.6z M565.3,434.6c0-2-0.4-3.5-1.8-3.5c-1.4,0-1.8,1.5-1.8,3.5c0,1.9,0.4,3.5,1.8,3.5
			C564.9,438,565.3,436.5,565.3,434.6z"/>
		<path class="st5" d="M573.3,429.1v10.8h-2.1V432l-2.4,0.9v-2l4.4-1.8H573.3z"/>
		<path class="st5" d="M583.3,436.2c0,2.4-1.9,3.8-4.1,3.8c-1.6,0-3.2-0.9-3.9-2.2l1.7-1.1c0.4,0.7,1.3,1.3,2.1,1.3
			c1.2,0,2.1-0.7,2.1-1.8c0-1-0.8-1.8-1.9-1.8c-0.8,0-1.7,0.4-2.3,1l-1.3-0.8l0.9-5.4h6v2h-4.3l-0.4,2c0.5-0.4,1.2-0.6,1.9-0.6
			C581.8,432.7,583.3,434.2,583.3,436.2z"/>
	</g>
	<g>
		<path class="st5" d="M699.2,437.9v2H692v-1.2l4.2-5c0.4-0.5,0.7-1.1,0.7-1.4c0-0.7-0.6-1.2-1.4-1.2c-0.9,0-1.5,0.6-1.6,1.5
			l-1.9-0.3c0.3-1.9,1.5-3.2,3.6-3.2c2.1,0,3.5,1.3,3.5,3.2c0,1-0.5,1.9-1.2,2.7l-2.5,2.9H699.2z"/>
		<path class="st5" d="M700.8,434.6c0-3.1,0.9-5.5,4-5.5c3.1,0,3.9,2.4,3.9,5.5c0,3-0.8,5.4-3.9,5.4
			C701.7,440,700.8,437.6,700.8,434.6z M706.6,434.6c0-2-0.4-3.5-1.8-3.5c-1.4,0-1.8,1.5-1.8,3.5c0,1.9,0.4,3.5,1.8,3.5
			C706.2,438,706.6,436.5,706.6,434.6z"/>
		<path class="st5" d="M714.6,429.1v10.8h-2.1V432l-2.4,0.9v-2l4.4-1.8H714.6z"/>
		<path class="st5" d="M724.8,436.4c0,2-1.5,3.6-3.9,3.6c-2.5,0-4.1-1.9-4.1-5.1c0-3.1,1.5-5.8,4.5-5.8c1.4,0,2.8,0.7,3.4,2.1
			l-1.7,1c-0.3-0.7-1-1.1-1.7-1.1c-1.3,0-2.3,1.2-2.4,2.9c0.5-0.5,1.3-0.9,2.3-0.9C723.3,433,724.8,434.6,724.8,436.4z M722.6,436.4
			c0-0.9-0.7-1.6-1.7-1.6c-1.1,0-1.8,0.6-1.8,1.6c0,0.9,0.7,1.6,1.8,1.6C721.9,438,722.6,437.4,722.6,436.4z"/>
	</g>
	<g>
		<path class="st5" d="M840.7,437.9v2h-7.2v-1.2l4.2-5c0.4-0.5,0.7-1.1,0.7-1.4c0-0.7-0.6-1.2-1.4-1.2c-0.9,0-1.5,0.6-1.6,1.5
			l-1.9-0.3c0.3-1.9,1.5-3.2,3.6-3.2c2.1,0,3.5,1.3,3.5,3.2c0,1-0.5,1.9-1.2,2.7l-2.5,2.9H840.7z"/>
		<path class="st5" d="M842.4,434.6c0-3.1,0.9-5.5,4-5.5c3.1,0,3.9,2.4,3.9,5.5c0,3-0.8,5.4-3.9,5.4
			C843.3,440,842.4,437.6,842.4,434.6z M848.1,434.6c0-2-0.4-3.5-1.8-3.5c-1.4,0-1.8,1.5-1.8,3.5c0,1.9,0.4,3.5,1.8,3.5
			C847.7,438,848.1,436.5,848.1,434.6z"/>
		<path class="st5" d="M856.1,429.1v10.8H854V432l-2.4,0.9v-2l4.4-1.8H856.1z"/>
		<path class="st5" d="M865.8,429.2v0.2l-4.8,10.4h-2.5l4-8.6h-4.4v-2H865.8z"/>
	</g>
	<g>
		<path class="st5" d="M1122.7,437.9v2h-7.2v-1.2l4.2-5c0.4-0.5,0.7-1.1,0.7-1.4c0-0.7-0.6-1.2-1.4-1.2c-0.9,0-1.5,0.6-1.6,1.5
			l-1.9-0.3c0.3-1.9,1.5-3.2,3.6-3.2c2.1,0,3.5,1.3,3.5,3.2c0,1-0.5,1.9-1.2,2.7l-2.5,2.9H1122.7z"/>
		<path class="st5" d="M1124.4,434.6c0-3.1,0.9-5.5,4-5.5c3.1,0,3.9,2.4,3.9,5.5c0,3-0.8,5.4-3.9,5.4
			C1125.3,440,1124.4,437.6,1124.4,434.6z M1130.1,434.6c0-2-0.4-3.5-1.8-3.5c-1.4,0-1.8,1.5-1.8,3.5c0,1.9,0.4,3.5,1.8,3.5
			C1129.7,438,1130.1,436.5,1130.1,434.6z"/>
		<path class="st5" d="M1138.1,429.1v10.8h-2.1V432l-2.4,0.9v-2l4.4-1.8H1138.1z"/>
		<path class="st5" d="M1148.3,434.2c0,3.1-1.5,5.8-4.5,5.8c-1.4,0-2.8-0.7-3.4-2.1l1.7-0.9c0.3,0.7,1,1.1,1.7,1.1
			c1.3,0,2.3-1.2,2.4-2.8c-0.5,0.5-1.3,0.9-2.3,0.9c-2.2,0-3.6-1.6-3.6-3.4c0-2,1.6-3.6,3.9-3.6
			C1146.7,429.1,1148.3,431.2,1148.3,434.2z M1146,432.7c0-0.9-0.7-1.6-1.8-1.6c-1.1,0-1.8,0.7-1.8,1.6c0,0.9,0.7,1.6,1.7,1.6
			C1145.2,434.3,1146,433.6,1146,432.7z"/>
	</g>
	<g>
		<path class="st5" d="M981.1,437.9v2H974v-1.2l4.2-5c0.4-0.5,0.7-1.1,0.7-1.4c0-0.7-0.6-1.2-1.4-1.2c-0.9,0-1.5,0.6-1.6,1.5
			l-1.9-0.3c0.3-1.9,1.5-3.2,3.6-3.2c2.1,0,3.5,1.3,3.5,3.2c0,1-0.5,1.9-1.2,2.7l-2.5,2.9H981.1z"/>
		<path class="st5" d="M982.8,434.6c0-3.1,0.9-5.5,4-5.5c3.1,0,3.9,2.4,3.9,5.5c0,3-0.8,5.4-3.9,5.4
			C983.7,440,982.8,437.6,982.8,434.6z M988.5,434.6c0-2-0.4-3.5-1.8-3.5c-1.4,0-1.8,1.5-1.8,3.5c0,1.9,0.4,3.5,1.8,3.5
			C988.1,438,988.5,436.5,988.5,434.6z"/>
		<path class="st5" d="M996.5,429.1v10.8h-2.1V432l-2.4,0.9v-2l4.4-1.8H996.5z"/>
		<path class="st5" d="M1006.8,436.7c0,2-1.8,3.3-4.1,3.3c-2.3,0-4.1-1.3-4.1-3.3c0-1.3,0.8-2.4,2-2.8c-0.6-0.3-1.2-1.1-1.2-2.1
			c0-1.6,1.4-2.7,3.3-2.7c1.9,0,3.3,1.1,3.3,2.7c0,1-0.5,1.8-1.2,2.1C1006,434.2,1006.8,435.3,1006.8,436.7z M1004.6,436.5
			c0-1-0.8-1.7-1.9-1.7c-1.1,0-1.9,0.7-1.9,1.6c0,0.9,0.8,1.6,1.9,1.6C1003.9,438.1,1004.6,437.4,1004.6,436.5z M1001.5,432.1
			c0,0.6,0.5,1.1,1.3,1.1c0.7,0,1.3-0.5,1.3-1.1s-0.5-1.1-1.3-1.1C1002,430.9,1001.5,431.4,1001.5,432.1z"/>
	</g>
	<line class="st6" x1="602.3" y1="55" x2="93.4" y2="55"/>
	<line class="st6" x1="969.1" y1="55" x2="607.9" y2="55"/>
	<line class="st6" x1="1176.2" y1="55" x2="975.3" y2="55"/>
	<circle class="st7" cx="93.4" cy="408" r="7.5"/>
	<circle class="st2" cx="342.2" cy="55" r="15"/>
	<circle class="st7" cx="550" cy="408.6" r="7.5"/>
	<circle class="st7" cx="691.3" cy="408.6" r="7.5"/>
	<circle class="st7" cx="832.8" cy="408.6" r="7.5"/>
	<circle class="st7" cx="1114.8" cy="408.6" r="7.5"/>
	<circle class="st7" cx="973.2" cy="408.6" r="7.5"/>
	<g>
		<path class="st8" d="M344.5,47.5v13.3h-2.6v-9.7l-3,1.2v-2.5l5.4-2.3H344.5z"/>
	</g>
	<circle class="st2" cx="788.8" cy="55" r="15"/>
	<g>
		<path class="st8" d="M793.2,58.3v2.5h-8.8v-1.4l5.1-6.1c0.5-0.7,0.9-1.3,0.9-1.8c0-0.9-0.7-1.5-1.7-1.5c-1.2,0-1.8,0.8-2,1.9
			l-2.4-0.4c0.3-2.3,1.8-3.9,4.5-3.9s4.3,1.6,4.3,4c0,1.3-0.6,2.4-1.4,3.3l-3.1,3.5H793.2z"/>
	</g>
	<circle class="st2" cx="1074.5" cy="55" r="15"/>
	<g>
		<path class="st8" d="M1078.9,57c0,2.4-2,4-4.8,4c-1.9,0-3.4-0.8-4.3-2.3l1.8-1.4c0.6,0.8,1.4,1.3,2.3,1.3c1.4,0,2.3-0.7,2.3-1.8
			c0-1.1-0.9-1.9-2.3-1.9h-1.3v-2h0.7c1.4,0,2.2-0.8,2.2-1.7c0-0.8-0.7-1.3-1.7-1.3c-0.8,0-1.7,0.4-2.2,1.1l-1.4-1.6
			c0.9-1.1,2.3-1.8,4-1.8c2.3,0,4.1,1.4,4.1,3.6c0,1.1-0.7,2.1-1.7,2.6C1078,54.3,1078.9,55.5,1078.9,57z"/>
	</g>
	<g>
		<path class="st8" d="M231.4,102.5h1.2v7.9h3.7v1.1h-4.9V102.5z"/>
		<path class="st8" d="M243.4,108.9h-5c0.2,1.1,1,1.6,2,1.6c0.7,0,1.4-0.3,1.8-0.9l1,0.4c-0.5,1.1-1.6,1.6-2.8,1.6
			c-1.7,0-3.1-1.3-3.1-3.2s1.4-3.2,3.1-3.2s3,1.2,3,3.2C243.4,108.6,243.4,108.7,243.4,108.9z M242.2,107.9c-0.1-1-0.9-1.6-1.9-1.6
			c-1,0-1.8,0.5-2,1.6H242.2z"/>
		<path class="st8" d="M251,105.4v6.1h-1.1v-1c-0.4,0.7-1.3,1.1-2.2,1.1c-1.7,0-3.1-1.3-3.1-3.2c0-1.9,1.4-3.2,3.1-3.2
			c0.9,0,1.8,0.4,2.2,1.1v-1H251z M249.9,108.4c0-1.3-1.1-2.1-2.1-2.1c-1.1,0-2,0.9-2,2.1c0,1.2,0.9,2.1,2,2.1
			C248.9,110.5,249.9,109.7,249.9,108.4z"/>
		<path class="st8" d="M259,102v9.5h-1.1v-1c-0.4,0.7-1.3,1.1-2.2,1.1c-1.7,0-3.1-1.3-3.1-3.2c0-1.9,1.4-3.2,3.1-3.2
			c0.9,0,1.8,0.4,2.2,1.1V102H259z M257.9,108.4c0-1.3-1.1-2.1-2.1-2.1c-1.1,0-2,0.9-2,2.1c0,1.2,0.9,2.1,2,2.1
			C256.9,110.5,257.9,109.7,257.9,108.4z"/>
		<path class="st8" d="M260.8,103.1c0-0.4,0.4-0.8,0.8-0.8c0.4,0,0.8,0.3,0.8,0.8c0,0.4-0.4,0.8-0.8,0.8
			C261.2,103.9,260.8,103.5,260.8,103.1z M261,105.4h1.1v6.1H261V105.4z"/>
		<path class="st8" d="M269.8,107.9v3.5h-1.1V108c0-1-0.6-1.6-1.5-1.6s-1.9,0.5-1.9,1.8v3.3h-1.1v-6.1h1.1v0.9
			c0.4-0.7,1.4-1.1,2-1.1C268.9,105.2,269.8,106.2,269.8,107.9z"/>
		<path class="st8" d="M277.7,105.4v5.2c0,2.9-1.3,4-3.3,4c-1.1,0-2.1-0.6-2.8-1.6l1-0.5c0.4,0.7,1.1,1.1,1.8,1.1
			c1.3,0,2.2-0.8,2.2-2.8v-0.1c-0.4,0.7-1.3,1.1-2.2,1.1c-1.7,0-3.1-1.3-3.1-3.2c0-1.9,1.4-3.2,3.1-3.2c0.9,0,1.8,0.4,2.2,1.1v-1
			H277.7z M276.6,108.4c0-1.3-1.1-2.1-2.1-2.1c-1.1,0-2,0.9-2,2.1c0,1.2,0.9,2.1,2,2.1C275.6,110.5,276.6,109.7,276.6,108.4z"/>
		<path class="st8" d="M285.9,106.3h-1.3v5.1h-1.1v-5.1h-1.1v-1h1.1V103h1.1v2.3h1.3V106.3z"/>
		<path class="st8" d="M292.9,107.9v3.5h-1.1V108c0-1-0.6-1.6-1.5-1.6c-0.9,0-1.9,0.5-1.9,1.8v3.3h-1.1V102h1.1v4.3
			c0.4-0.7,1.4-1.1,2-1.1C291.9,105.2,292.9,106.2,292.9,107.9z"/>
		<path class="st8" d="M300.6,108.9h-5c0.2,1.1,1,1.6,2,1.6c0.7,0,1.4-0.3,1.8-0.9l1,0.4c-0.5,1.1-1.6,1.6-2.8,1.6
			c-1.7,0-3.1-1.3-3.1-3.2s1.4-3.2,3.1-3.2c1.7,0,3,1.2,3,3.2C300.6,108.6,300.6,108.7,300.6,108.9z M299.4,107.9
			c-0.1-1-0.9-1.6-1.9-1.6c-1,0-1.8,0.5-2,1.6H299.4z"/>
		<path class="st8" d="M305.1,107c0-2.6,2-4.6,4.6-4.6c1.2,0,2.3,0.5,3,1.2l-0.8,0.8c-0.6-0.5-1.4-0.9-2.2-0.9
			c-1.9,0-3.4,1.6-3.4,3.5s1.5,3.5,3.4,3.5c1.6,0,2.8-0.9,2.9-2.3c0-0.1,0-0.1,0-0.2H310v-1h3.9c0,3.2-1.7,4.6-4.3,4.6
			C307.1,111.6,305.1,109.5,305.1,107z"/>
		<path class="st8" d="M315.5,102h1.1v9.5h-1.1V102z"/>
		<path class="st8" d="M318.3,108.4c0-1.9,1.5-3.2,3.2-3.2c1.7,0,3.2,1.2,3.2,3.2s-1.5,3.2-3.2,3.2
			C319.7,111.6,318.3,110.3,318.3,108.4z M323.5,108.4c0-1.3-0.9-2.1-2.1-2.1c-1.1,0-2,0.8-2,2.1c0,1.3,0.9,2.1,2,2.1
			C322.6,110.5,323.5,109.7,323.5,108.4z"/>
		<path class="st8" d="M332.7,108.4c0,1.9-1.4,3.2-3.1,3.2c-0.9,0-1.8-0.4-2.2-1.1v1h-1.1V102h1.1v4.3c0.4-0.7,1.3-1.1,2.2-1.1
			C331.3,105.2,332.7,106.5,332.7,108.4z M331.5,108.4c0-1.2-0.9-2.1-2-2.1c-1,0-2.1,0.8-2.1,2.1c0,1.3,1,2.1,2.1,2.1
			C330.7,110.5,331.5,109.6,331.5,108.4z"/>
		<path class="st8" d="M340.3,105.4v6.1h-1.1v-1c-0.4,0.7-1.3,1.1-2.2,1.1c-1.7,0-3.1-1.3-3.1-3.2c0-1.9,1.4-3.2,3.1-3.2
			c0.9,0,1.8,0.4,2.2,1.1v-1H340.3z M339.2,108.4c0-1.3-1.1-2.1-2.1-2.1c-1.1,0-2,0.9-2,2.1c0,1.2,0.9,2.1,2,2.1
			C338.2,110.5,339.2,109.7,339.2,108.4z"/>
		<path class="st8" d="M342.3,102h1.1v9.5h-1.1V102z"/>
		<path class="st8" d="M354.4,108.7c0,1.7-1.3,2.9-3,2.9c-1.5,0-2.6-0.8-3.1-1.9l1-0.5c0.3,0.8,1.1,1.4,2.1,1.4
			c1.1,0,1.9-0.7,1.9-1.8c0-1.1-0.9-1.8-1.9-1.8c-0.7,0-1.4,0.3-2.1,0.8l-0.7-0.6l0.7-4.3h4.5v1.1h-3.6l-0.5,2.6
			c0.5-0.4,1.2-0.6,1.9-0.6C353.3,106,354.4,107.1,354.4,108.7z"/>
		<path class="st8" d="M355.2,113.4c0.7-1,1.2-1.9,1-3.5h1.2c0.1,1.5-0.4,2.9-1.4,3.8L355.2,113.4z"/>
		<path class="st8" d="M359.1,107.2c0-2.4,0.6-4.4,3.1-4.4s3.1,2,3.1,4.4c0,2.4-0.6,4.4-3.1,4.4S359.1,109.6,359.1,107.2z
			 M364.2,107.2c0-1.8-0.4-3.3-2-3.3s-2,1.5-2,3.3c0,1.8,0.4,3.3,2,3.3S364.2,109,364.2,107.2z"/>
		<path class="st8" d="M367.1,107.2c0-2.4,0.6-4.4,3.1-4.4c2.5,0,3.1,2,3.1,4.4c0,2.4-0.6,4.4-3.1,4.4
			C367.8,111.6,367.1,109.6,367.1,107.2z M372.2,107.2c0-1.8-0.4-3.3-2-3.3c-1.6,0-2,1.5-2,3.3c0,1.8,0.4,3.3,2,3.3
			C371.8,110.5,372.2,109,372.2,107.2z"/>
		<path class="st8" d="M375.1,107.2c0-2.4,0.6-4.4,3.1-4.4s3.1,2,3.1,4.4c0,2.4-0.6,4.4-3.1,4.4S375.1,109.6,375.1,107.2z
			 M380.2,107.2c0-1.8-0.4-3.3-2-3.3s-2,1.5-2,3.3c0,1.8,0.4,3.3,2,3.3S380.2,109,380.2,107.2z"/>
		<path class="st8" d="M386.2,103.1c0-0.4,0.4-0.8,0.8-0.8c0.4,0,0.8,0.3,0.8,0.8c0,0.4-0.4,0.8-0.8,0.8
			C386.5,103.9,386.2,103.5,386.2,103.1z M386.4,105.4h1.1v6.1h-1.1V105.4z"/>
		<path class="st8" d="M395.2,107.9v3.5H394V108c0-1-0.6-1.6-1.5-1.6c-0.9,0-1.9,0.5-1.9,1.8v3.3h-1.1v-6.1h1.1v0.9
			c0.4-0.7,1.4-1.1,2-1.1C394.2,105.2,395.2,106.2,395.2,107.9z"/>
		<path class="st8" d="M400,108.9h1.2c0,0.8,0.8,1.6,2,1.6c1.2,0,1.8-0.7,1.8-1.5c0-0.9-0.8-1.3-1.6-1.5l-1.2-0.3
			c-1.9-0.5-2.2-1.6-2.2-2.3c0-1.6,1.4-2.6,3-2.6c1.6,0,2.9,1,2.9,2.6h-1.2c0-0.9-0.7-1.5-1.7-1.5c-0.9,0-1.7,0.6-1.7,1.4
			c0,0.3,0.1,1,1.3,1.3l1.2,0.3c1.5,0.4,2.4,1.2,2.4,2.5c0,1.4-1.1,2.7-3,2.7C401.3,111.6,400.1,110.3,400,108.9z"/>
		<path class="st8" d="M407.6,108.4c0-1.9,1.5-3.2,3.2-3.2c1.7,0,3.2,1.2,3.2,3.2s-1.5,3.2-3.2,3.2
			C409,111.6,407.6,110.3,407.6,108.4z M412.8,108.4c0-1.3-0.9-2.1-2.1-2.1c-1.1,0-2,0.8-2,2.1c0,1.3,0.9,2.1,2,2.1
			C411.9,110.5,412.8,109.7,412.8,108.4z"/>
		<path class="st8" d="M417.1,104.6v0.8h1.4v1h-1.4v5.1H416v-5.1h-1.2v-1h1.2v-0.6c0-1.6,0.7-2.7,2.3-2.7h0.7v1.1h-0.5
			C417.4,103.1,417.1,103.8,417.1,104.6z"/>
		<path class="st8" d="M423.1,106.3h-1.3v5.1h-1.1v-5.1h-1.1v-1h1.1V103h1.1v2.3h1.3V106.3z"/>
		<path class="st8" d="M433.8,105.4l-2.3,6.1h-1l-1.7-4.5l-1.6,4.5h-0.9l-2.3-6.1h1.2l1.6,4.3l1.6-4.3h1.1l1.6,4.3l1.6-4.3H433.8z"
			/>
		<path class="st8" d="M440.8,105.4v6.1h-1.1v-1c-0.4,0.7-1.3,1.1-2.2,1.1c-1.7,0-3.1-1.3-3.1-3.2c0-1.9,1.4-3.2,3.1-3.2
			c0.9,0,1.8,0.4,2.2,1.1v-1H440.8z M439.7,108.4c0-1.3-1.1-2.1-2.1-2.1c-1.1,0-2,0.9-2,2.1c0,1.2,0.9,2.1,2,2.1
			C438.7,110.5,439.7,109.7,439.7,108.4z"/>
		<path class="st8" d="M446.8,105.5l-0.2,1.1c-0.3-0.2-0.7-0.2-0.9-0.2c-1.2,0-1.7,1.3-1.7,2.9v2.2h-1.2v-6.1h1.2v1.4
			c0.3-1.1,0.9-1.5,1.7-1.5C446.2,105.2,446.6,105.4,446.8,105.5z"/>
		<path class="st8" d="M453.7,108.9h-5c0.2,1.1,1,1.6,2,1.6c0.7,0,1.4-0.3,1.8-0.9l1,0.4c-0.5,1.1-1.6,1.6-2.8,1.6
			c-1.7,0-3.1-1.3-3.1-3.2s1.4-3.2,3.1-3.2c1.7,0,3,1.2,3,3.2C453.7,108.6,453.7,108.7,453.7,108.9z M452.6,107.9
			c-0.1-1-0.9-1.6-1.9-1.6c-1,0-1.8,0.5-2,1.6H452.6z"/>
		<path class="st8" d="M250.1,125.9c0,1.9-1.4,3.2-3.1,3.2c-0.9,0-1.8-0.4-2.2-1.1v3.9h-1.1v-9.1h1.1v1c0.4-0.7,1.3-1.1,2.2-1.1
			C248.7,122.7,250.1,124,250.1,125.9z M248.9,125.9c0-1.2-0.9-2.1-2-2.1c-1.1,0-2.1,0.8-2.1,2.1c0,1.3,1.1,2.1,2.1,2.1
			C248.1,128,248.9,127.1,248.9,125.9z"/>
		<path class="st8" d="M255.7,122.9l-0.2,1.1c-0.3-0.2-0.7-0.2-0.9-0.2c-1.2,0-1.7,1.3-1.7,2.9v2.2h-1.2v-6.1h1.2v1.4
			c0.3-1.1,0.9-1.5,1.7-1.5C255,122.7,255.5,122.8,255.7,122.9z"/>
		<path class="st8" d="M256.4,125.9c0-1.9,1.5-3.2,3.2-3.2c1.7,0,3.2,1.2,3.2,3.2s-1.5,3.2-3.2,3.2
			C257.8,129.1,256.4,127.8,256.4,125.9z M261.7,125.9c0-1.3-0.9-2.1-2.1-2.1c-1.1,0-2,0.8-2,2.1c0,1.3,0.9,2.1,2,2.1
			C260.7,128,261.7,127.1,261.7,125.9z"/>
		<path class="st8" d="M262.6,130.8h0.7c1,0,1.2-0.8,1.1-1.6v-6.5h1.1v6.5c0,1.5-0.5,2.6-2.2,2.6h-0.8V130.8z M264.2,120.6
			c0-0.4,0.4-0.8,0.8-0.8c0.4,0,0.8,0.3,0.8,0.8c0,0.4-0.4,0.8-0.8,0.8C264.6,121.3,264.2,121,264.2,120.6z"/>
		<path class="st8" d="M273.3,126.4h-5c0.2,1.1,1,1.6,2,1.6c0.7,0,1.4-0.3,1.8-0.9l1,0.4c-0.5,1.1-1.6,1.6-2.8,1.6
			c-1.7,0-3.1-1.3-3.1-3.2s1.4-3.2,3.1-3.2c1.7,0,3,1.2,3,3.2C273.3,126,273.3,126.2,273.3,126.4z M272.2,125.4
			c-0.1-1-0.9-1.6-1.9-1.6c-1,0-1.8,0.5-2,1.6H272.2z"/>
		<path class="st8" d="M274.6,125.9c0-1.9,1.5-3.2,3.3-3.2c1,0,1.8,0.4,2.3,1l-0.7,0.7c-0.4-0.4-0.9-0.6-1.6-0.6
			c-1.2,0-2.2,0.9-2.2,2.1c0,1.3,1,2.1,2.2,2.1c0.6,0,1.2-0.2,1.6-0.6l0.7,0.7c-0.5,0.6-1.4,1-2.3,1
			C276.1,129.1,274.6,127.8,274.6,125.9z"/>
		<path class="st8" d="M284.8,123.8h-1.3v5.1h-1.1v-5.1h-1.1v-1h1.1v-2.3h1.1v2.3h1.3V123.8z"/>
		<path class="st8" d="M292.3,123.8H291v5.1h-1.1v-5.1h-1.1v-1h1.1v-2.3h1.1v2.3h1.3V123.8z"/>
		<path class="st8" d="M299.2,122.8v6.1h-1.1v-1c-0.4,0.8-1.3,1.1-2,1.1c-1.5,0-2.5-1-2.5-2.7v-3.5h1.1v3.5c0,1,0.6,1.7,1.5,1.7
			c0.9,0,1.9-0.5,1.9-1.8v-3.3H299.2z"/>
		<path class="st8" d="M305.1,122.9L305,124c-0.3-0.2-0.7-0.2-0.9-0.2c-1.2,0-1.7,1.3-1.7,2.9v2.2h-1.2v-6.1h1.2v1.4
			c0.3-1.1,0.9-1.5,1.7-1.5C304.5,122.7,305,122.8,305.1,122.9z"/>
		<path class="st8" d="M312,125.4v3.5h-1.1v-3.5c0-1-0.6-1.6-1.5-1.6c-0.9,0-1.9,0.5-1.9,1.8v3.3h-1.1v-6.1h1.1v0.9
			c0.4-0.7,1.4-1.1,2-1.1C311.1,122.7,312,123.7,312,125.4z"/>
		<path class="st8" d="M319.9,122.8v6.1h-1.1v-1c-0.4,0.7-1.3,1.1-2.2,1.1c-1.7,0-3.1-1.3-3.1-3.2c0-1.9,1.4-3.2,3.1-3.2
			c0.9,0,1.8,0.4,2.2,1.1v-1H319.9z M318.8,125.9c0-1.3-1.1-2.1-2.1-2.1c-1.1,0-2,0.9-2,2.1c0,1.2,0.9,2.1,2,2.1
			C317.8,128,318.8,127.2,318.8,125.9z"/>
		<path class="st8" d="M325.9,122.9l-0.2,1.1c-0.3-0.2-0.7-0.2-0.9-0.2c-1.2,0-1.7,1.3-1.7,2.9v2.2h-1.2v-6.1h1.2v1.4
			c0.3-1.1,0.9-1.5,1.7-1.5C325.2,122.7,325.7,122.8,325.9,122.9z"/>
		<path class="st8" d="M326.6,125.9c0-1.9,1.5-3.2,3.2-3.2c1.7,0,3.2,1.2,3.2,3.2s-1.5,3.2-3.2,3.2
			C328,129.1,326.6,127.8,326.6,125.9z M331.9,125.9c0-1.3-0.9-2.1-2.1-2.1c-1.1,0-2,0.8-2,2.1c0,1.3,0.9,2.1,2,2.1
			C330.9,128,331.9,127.1,331.9,125.9z"/>
		<path class="st8" d="M340.2,122.8v6.1H339v-1c-0.4,0.8-1.3,1.1-2,1.1c-1.5,0-2.5-1-2.5-2.7v-3.5h1.1v3.5c0,1,0.6,1.7,1.5,1.7
			c0.9,0,1.9-0.5,1.9-1.8v-3.3H340.2z"/>
		<path class="st8" d="M347.8,125.4v3.5h-1.1v-3.5c0-1-0.6-1.6-1.5-1.6c-0.9,0-1.9,0.5-1.9,1.8v3.3h-1.1v-6.1h1.1v0.9
			c0.4-0.7,1.4-1.1,2-1.1C346.9,122.7,347.8,123.7,347.8,125.4z"/>
		<path class="st8" d="M355.7,119.5v9.5h-1.1v-1c-0.4,0.7-1.3,1.1-2.2,1.1c-1.7,0-3.1-1.3-3.1-3.2c0-1.9,1.4-3.2,3.1-3.2
			c0.9,0,1.8,0.4,2.2,1.1v-4.3H355.7z M354.6,125.9c0-1.3-1.1-2.1-2.1-2.1c-1.1,0-2,0.9-2,2.1c0,1.2,0.9,2.1,2,2.1
			C353.6,128,354.6,127.2,354.6,125.9z"/>
		<path class="st8" d="M367,122.8v6.1h-1.1v-1c-0.4,0.7-1.3,1.1-2.2,1.1c-1.7,0-3.1-1.3-3.1-3.2c0-1.9,1.4-3.2,3.1-3.2
			c0.9,0,1.8,0.4,2.2,1.1v-1H367z M365.8,125.9c0-1.3-1.1-2.1-2.1-2.1c-1.1,0-2,0.9-2,2.1c0,1.2,0.9,2.1,2,2.1
			C364.9,128,365.8,127.2,365.8,125.9z"/>
		<path class="st8" d="M374.6,125.4v3.5h-1.1v-3.5c0-1-0.6-1.6-1.5-1.6c-0.9,0-1.9,0.5-1.9,1.8v3.3H369v-6.1h1.1v0.9
			c0.4-0.7,1.4-1.1,2-1.1C373.7,122.7,374.6,123.7,374.6,125.4z"/>
		<path class="st8" d="M382.5,119.5v9.5h-1.1v-1c-0.4,0.7-1.3,1.1-2.2,1.1c-1.7,0-3.1-1.3-3.1-3.2c0-1.9,1.4-3.2,3.1-3.2
			c0.9,0,1.8,0.4,2.2,1.1v-4.3H382.5z M381.4,125.9c0-1.3-1.1-2.1-2.1-2.1c-1.1,0-2,0.9-2,2.1c0,1.2,0.9,2.1,2,2.1
			C380.4,128,381.4,127.2,381.4,125.9z"/>
		<path class="st8" d="M387.5,126.4h1.2c0,0.8,0.8,1.6,2,1.6c1.2,0,1.8-0.7,1.8-1.5c0-0.9-0.8-1.3-1.6-1.5l-1.2-0.3
			c-1.9-0.5-2.2-1.6-2.2-2.3c0-1.6,1.4-2.6,3-2.6c1.6,0,2.9,1,2.9,2.6h-1.2c0-0.9-0.7-1.5-1.7-1.5c-0.9,0-1.7,0.6-1.7,1.4
			c0,0.3,0.1,1,1.3,1.3l1.2,0.3c1.5,0.4,2.4,1.2,2.4,2.5c0,1.4-1.1,2.7-3,2.7C388.8,129.1,387.5,127.8,387.5,126.4z"/>
		<path class="st8" d="M395,125.9c0-1.9,1.5-3.2,3.2-3.2c1.7,0,3.2,1.2,3.2,3.2s-1.5,3.2-3.2,3.2C396.5,129.1,395,127.8,395,125.9z
			 M400.3,125.9c0-1.3-0.9-2.1-2.1-2.1c-1.1,0-2,0.8-2,2.1c0,1.3,0.9,2.1,2,2.1C399.4,128,400.3,127.1,400.3,125.9z"/>
		<path class="st8" d="M404.6,122v0.8h1.4v1h-1.4v5.1h-1.1v-5.1h-1.2v-1h1.2v-0.6c0-1.6,0.7-2.7,2.3-2.7h0.7v1.1H406
			C404.9,120.6,404.6,121.2,404.6,122z"/>
		<path class="st8" d="M410.6,123.8h-1.3v5.1h-1.1v-5.1H407v-1h1.1v-2.3h1.1v2.3h1.3V123.8z"/>
		<path class="st8" d="M421.3,122.8l-2.3,6.1h-1l-1.7-4.5l-1.6,4.5h-0.9l-2.3-6.1h1.2l1.6,4.3l1.6-4.3h1.1l1.6,4.3l1.6-4.3H421.3z"
			/>
		<path class="st8" d="M428.3,122.8v6.1h-1.1v-1c-0.4,0.7-1.3,1.1-2.2,1.1c-1.7,0-3.1-1.3-3.1-3.2c0-1.9,1.4-3.2,3.1-3.2
			c0.9,0,1.8,0.4,2.2,1.1v-1H428.3z M427.2,125.9c0-1.3-1.1-2.1-2.1-2.1c-1.1,0-2,0.9-2,2.1c0,1.2,0.9,2.1,2,2.1
			C426.2,128,427.2,127.2,427.2,125.9z"/>
		<path class="st8" d="M434.3,122.9l-0.2,1.1c-0.3-0.2-0.7-0.2-0.9-0.2c-1.2,0-1.7,1.3-1.7,2.9v2.2h-1.2v-6.1h1.2v1.4
			c0.3-1.1,0.9-1.5,1.7-1.5C433.6,122.7,434.1,122.8,434.3,122.9z"/>
		<path class="st8" d="M441.1,126.4h-5c0.2,1.1,1,1.6,2,1.6c0.7,0,1.4-0.3,1.8-0.9l1,0.4c-0.5,1.1-1.6,1.6-2.8,1.6
			c-1.7,0-3.1-1.3-3.1-3.2s1.4-3.2,3.1-3.2c1.7,0,3,1.2,3,3.2C441.2,126,441.2,126.2,441.1,126.4z M440,125.4
			c-0.1-1-0.9-1.6-1.9-1.6c-1,0-1.8,0.5-2,1.6H440z"/>
		<path class="st8" d="M289.5,140.3v9.1h-1.1v-3.9c-0.4,0.7-1.3,1.1-2.2,1.1c-1.7,0-3.1-1.2-3.1-3.2c0-1.9,1.4-3.2,3.1-3.2
			c0.9,0,1.8,0.4,2.2,1.1v-1H289.5z M288.4,143.4c0-1.3-1-2.1-2.1-2.1c-1.1,0-2,0.9-2,2.1c0,1.2,0.9,2.1,2,2.1
			C287.3,145.5,288.4,144.7,288.4,143.4z"/>
		<path class="st8" d="M297.1,140.3v6.1h-1.1v-1c-0.4,0.8-1.3,1.1-2,1.1c-1.5,0-2.5-1-2.5-2.7v-3.5h1.1v3.5c0,1,0.6,1.7,1.5,1.7
			c0.9,0,1.9-0.5,1.9-1.8v-3.3H297.1z"/>
		<path class="st8" d="M305.1,140.3v6.1h-1.1v-1c-0.4,0.7-1.3,1.1-2.2,1.1c-1.7,0-3.1-1.3-3.1-3.2c0-1.9,1.4-3.2,3.1-3.2
			c0.9,0,1.8,0.4,2.2,1.1v-1H305.1z M303.9,143.3c0-1.3-1.1-2.1-2.1-2.1c-1.1,0-2,0.9-2,2.1c0,1.2,0.9,2.1,2,2.1
			C303,145.5,303.9,144.6,303.9,143.3z"/>
		<path class="st8" d="M307.1,137h1.1v9.5h-1.1V137z"/>
		<path class="st8" d="M310,138c0-0.4,0.4-0.8,0.8-0.8c0.4,0,0.8,0.3,0.8,0.8c0,0.4-0.4,0.8-0.8,0.8C310.4,138.8,310,138.5,310,138z
			 M310.2,140.3h1.1v6.1h-1.1V140.3z"/>
		<path class="st8" d="M316.3,141.3h-1.3v5.1h-1.1v-5.1h-1.1v-1h1.1V138h1.1v2.3h1.3V141.3z"/>
		<path class="st8" d="M323.3,140.3l-3.8,9.1h-1.2l1.3-3.1l-2.4-5.9h1.2l1.8,4.5l1.9-4.5H323.3z"/>
		<path class="st8" d="M333.8,140.3v6.1h-1.1v-1c-0.4,0.7-1.3,1.1-2.2,1.1c-1.7,0-3.1-1.3-3.1-3.2c0-1.9,1.4-3.2,3.1-3.2
			c0.9,0,1.8,0.4,2.2,1.1v-1H333.8z M332.7,143.3c0-1.3-1.1-2.1-2.1-2.1c-1.1,0-2,0.9-2,2.1c0,1.2,0.9,2.1,2,2.1
			C331.7,145.5,332.7,144.6,332.7,143.3z"/>
		<path class="st8" d="M335.4,144.6h1.1c0,0.5,0.5,1,1.2,1c0.8,0,1.2-0.4,1.2-0.9c0-0.5-0.4-0.7-0.8-0.8l-0.8-0.2
			c-1-0.3-1.6-0.8-1.6-1.8c0-1,0.9-1.8,2.1-1.8c1,0,2.1,0.6,2.1,1.8h-1.1c0-0.5-0.5-0.8-1-0.8c-0.6,0-1,0.4-1,0.8
			c0,0.4,0.4,0.6,0.8,0.7l0.9,0.2c1.3,0.3,1.6,1.1,1.6,1.8c0,1.1-1.1,1.8-2.4,1.8C336.5,146.5,335.4,145.8,335.4,144.6z"/>
		<path class="st8" d="M341.2,144.6h1.1c0,0.5,0.5,1,1.2,1c0.8,0,1.2-0.4,1.2-0.9c0-0.5-0.4-0.7-0.8-0.8l-0.8-0.2
			c-1-0.3-1.6-0.8-1.6-1.8c0-1,0.9-1.8,2.1-1.8c1,0,2.1,0.6,2.1,1.8h-1.1c0-0.5-0.5-0.8-1-0.8c-0.6,0-1,0.4-1,0.8
			c0,0.4,0.4,0.6,0.8,0.7l0.9,0.2c1.3,0.3,1.6,1.1,1.6,1.8c0,1.1-1.1,1.8-2.4,1.8C342.4,146.5,341.3,145.8,341.2,144.6z"/>
		<path class="st8" d="M353.2,143.8h-5c0.2,1.1,1,1.6,2,1.6c0.7,0,1.4-0.3,1.8-0.9l1,0.4c-0.5,1.1-1.6,1.6-2.8,1.6
			c-1.7,0-3.1-1.3-3.1-3.2s1.4-3.2,3.1-3.2c1.7,0,3,1.2,3,3.2C353.2,143.5,353.2,143.7,353.2,143.8z M352.1,142.9
			c-0.1-1-0.9-1.6-1.9-1.6c-1,0-1.8,0.5-2,1.6H352.1z"/>
		<path class="st8" d="M354.4,144.6h1.1c0,0.5,0.5,1,1.2,1c0.8,0,1.2-0.4,1.2-0.9c0-0.5-0.4-0.7-0.8-0.8l-0.8-0.2
			c-1-0.3-1.6-0.8-1.6-1.8c0-1,0.9-1.8,2.1-1.8c1,0,2.1,0.6,2.1,1.8h-1.1c0-0.5-0.5-0.8-1-0.8c-0.6,0-1,0.4-1,0.8
			c0,0.4,0.4,0.6,0.8,0.7l0.9,0.2c1.3,0.3,1.6,1.1,1.6,1.8c0,1.1-1.1,1.8-2.4,1.8C355.5,146.5,354.4,145.8,354.4,144.6z"/>
		<path class="st8" d="M360.2,144.6h1.1c0,0.5,0.5,1,1.2,1c0.8,0,1.2-0.4,1.2-0.9c0-0.5-0.4-0.7-0.8-0.8l-0.8-0.2
			c-1-0.3-1.6-0.8-1.6-1.8c0-1,0.9-1.8,2.1-1.8c1,0,2.1,0.6,2.1,1.8h-1.1c0-0.5-0.5-0.8-1-0.8c-0.6,0-1,0.4-1,0.8
			c0,0.4,0.4,0.6,0.8,0.7l0.9,0.2c1.3,0.3,1.6,1.1,1.6,1.8c0,1.1-1.1,1.8-2.4,1.8C361.4,146.5,360.2,145.8,360.2,144.6z"/>
		<path class="st8" d="M376.1,142.9v3.5h-1.1v-3.5c0-1-0.6-1.7-1.5-1.7c-1.1,0-1.7,0.9-1.6,2.1l0-0.1v3.1h-1.1v-3.5
			c0-1-0.6-1.7-1.4-1.7c-0.9,0-1.7,0.5-1.7,1.8v3.3h-1.1v-6.1h1.1v0.9c0.3-0.7,1.1-1.1,2-1.1c0.9,0,1.7,0.5,2,1.3
			c0.6-1.1,1.5-1.3,2.1-1.3C375.2,140.2,376.1,141.2,376.1,142.9z"/>
		<path class="st8" d="M383.8,143.8h-5c0.2,1.1,1,1.6,2,1.6c0.7,0,1.4-0.3,1.8-0.9l1,0.4c-0.5,1.1-1.6,1.6-2.8,1.6
			c-1.7,0-3.1-1.3-3.1-3.2s1.4-3.2,3.1-3.2c1.7,0,3,1.2,3,3.2C383.8,143.5,383.8,143.7,383.8,143.8z M382.7,142.9
			c-0.1-1-0.9-1.6-1.9-1.6c-1,0-1.8,0.5-2,1.6H382.7z"/>
		<path class="st8" d="M391.1,142.9v3.5h-1.1v-3.5c0-1-0.6-1.6-1.5-1.6c-0.9,0-1.9,0.5-1.9,1.8v3.3h-1.1v-6.1h1.1v0.9
			c0.4-0.7,1.4-1.1,2-1.1C390.1,140.2,391.1,141.2,391.1,142.9z"/>
		<path class="st8" d="M395.8,141.3h-1.3v5.1h-1.1v-5.1h-1.1v-1h1.1V138h1.1v2.3h1.3V141.3z"/>
		<path class="st8" d="M396.7,144.6h1.1c0,0.5,0.5,1,1.2,1c0.8,0,1.2-0.4,1.2-0.9c0-0.5-0.4-0.7-0.8-0.8l-0.8-0.2
			c-1-0.3-1.6-0.8-1.6-1.8c0-1,0.9-1.8,2.1-1.8c1,0,2.1,0.6,2.1,1.8H400c0-0.5-0.5-0.8-1-0.8c-0.6,0-1,0.4-1,0.8
			c0,0.4,0.4,0.6,0.8,0.7l0.9,0.2c1.3,0.3,1.6,1.1,1.6,1.8c0,1.1-1.1,1.8-2.4,1.8C397.9,146.5,396.8,145.8,396.7,144.6z"/>
	</g>
	<g>
		<path class="st8" d="M688.5,111.7h1.2v9h-1.2V111.7z"/>
		<path class="st8" d="M697.6,117.2v3.5h-1.1v-3.5c0-1-0.6-1.6-1.5-1.6s-1.9,0.5-1.9,1.8v3.3H692v-6.1h1.1v0.9
			c0.4-0.7,1.4-1.1,2-1.1C696.7,114.5,697.6,115.5,697.6,117.2z"/>
		<path class="st8" d="M702.3,115.6H701v5.1h-1.1v-5.1h-1.1v-1h1.1v-2.3h1.1v2.3h1.3V115.6z"/>
		<path class="st8" d="M709.3,118.2h-5c0.2,1.1,1,1.6,2,1.6c0.7,0,1.4-0.3,1.8-0.9l1,0.4c-0.5,1.1-1.6,1.6-2.8,1.6
			c-1.7,0-3.1-1.3-3.1-3.2s1.4-3.2,3.1-3.2c1.7,0,3,1.2,3,3.2C709.3,117.8,709.3,118,709.3,118.2z M708.2,117.2
			c-0.1-1-0.9-1.6-1.9-1.6c-1,0-1.8,0.5-2,1.6H708.2z"/>
		<path class="st8" d="M710.9,111.3h1.1v9.5h-1.1V111.3z"/>
		<path class="st8" d="M714.1,111.3h1.1v9.5h-1.1V111.3z"/>
		<path class="st8" d="M717,112.4c0-0.4,0.4-0.8,0.8-0.8c0.4,0,0.8,0.3,0.8,0.8c0,0.4-0.4,0.8-0.8,0.8
			C717.3,113.1,717,112.8,717,112.4z M717.2,114.6h1.1v6.1h-1.1V114.6z"/>
		<path class="st8" d="M726.3,114.6v5.2c0,2.9-1.3,4-3.3,4c-1.1,0-2.1-0.6-2.8-1.6l1-0.5c0.4,0.7,1.1,1.1,1.8,1.1
			c1.3,0,2.2-0.8,2.2-2.8v-0.1c-0.4,0.7-1.3,1.1-2.2,1.1c-1.7,0-3.1-1.3-3.1-3.2c0-1.9,1.4-3.2,3.1-3.2c0.9,0,1.8,0.4,2.2,1.1v-1
			H726.3z M725.2,117.7c0-1.3-1.1-2.1-2.1-2.1c-1.1,0-2,0.9-2,2.1c0,1.2,0.9,2.1,2,2.1C724.2,119.8,725.2,119,725.2,117.7z"/>
		<path class="st8" d="M734.1,118.2h-5c0.2,1.1,1,1.6,2,1.6c0.7,0,1.4-0.3,1.8-0.9l1,0.4c-0.5,1.1-1.6,1.6-2.8,1.6
			c-1.7,0-3.1-1.3-3.1-3.2s1.4-3.2,3.1-3.2s3,1.2,3,3.2C734.1,117.8,734.1,118,734.1,118.2z M733,117.2c-0.1-1-0.9-1.6-1.9-1.6
			c-1,0-1.8,0.5-2,1.6H733z"/>
		<path class="st8" d="M741.4,117.2v3.5h-1.1v-3.5c0-1-0.6-1.6-1.5-1.6s-1.9,0.5-1.9,1.8v3.3h-1.1v-6.1h1.1v0.9
			c0.4-0.7,1.4-1.1,2-1.1C740.4,114.5,741.4,115.5,741.4,117.2z"/>
		<path class="st8" d="M746.1,115.6h-1.3v5.1h-1.1v-5.1h-1.1v-1h1.1v-2.3h1.1v2.3h1.3V115.6z"/>
		<path class="st8" d="M750.4,118.2h1.2c0,0.8,0.8,1.6,2,1.6c1.2,0,1.8-0.7,1.8-1.5c0-0.9-0.8-1.3-1.6-1.5l-1.2-0.3
			c-1.9-0.5-2.2-1.6-2.2-2.3c0-1.6,1.4-2.6,3-2.6c1.6,0,2.9,1,2.9,2.6h-1.2c0-0.9-0.7-1.5-1.7-1.5c-0.9,0-1.7,0.6-1.7,1.4
			c0,0.3,0.1,1,1.3,1.3l1.2,0.3c1.5,0.4,2.4,1.2,2.4,2.5c0,1.4-1.1,2.7-3,2.7C751.6,120.9,750.4,119.6,750.4,118.2z"/>
		<path class="st8" d="M761.1,115.6h-1.3v5.1h-1.1v-5.1h-1.1v-1h1.1v-2.3h1.1v2.3h1.3V115.6z"/>
		<path class="st8" d="M768.3,114.6v6.1h-1.1v-1c-0.4,0.7-1.3,1.1-2.2,1.1c-1.7,0-3.1-1.3-3.1-3.2c0-1.9,1.4-3.2,3.1-3.2
			c0.9,0,1.8,0.4,2.2,1.1v-1H768.3z M767.1,117.7c0-1.3-1.1-2.1-2.1-2.1c-1.1,0-2,0.9-2,2.1c0,1.2,0.9,2.1,2,2.1
			C766.1,119.8,767.1,119,767.1,117.7z"/>
		<path class="st8" d="M773.2,115.6h-1.3v5.1h-1.1v-5.1h-1.1v-1h1.1v-2.3h1.1v2.3h1.3V115.6z"/>
		<path class="st8" d="M774.2,112.4c0-0.4,0.4-0.8,0.8-0.8c0.4,0,0.8,0.3,0.8,0.8c0,0.4-0.4,0.8-0.8,0.8
			C774.6,113.1,774.2,112.8,774.2,112.4z M774.5,114.6h1.1v6.1h-1.1V114.6z"/>
		<path class="st8" d="M777.2,117.7c0-1.9,1.5-3.2,3.3-3.2c1,0,1.8,0.4,2.3,1l-0.7,0.7c-0.4-0.4-0.9-0.6-1.6-0.6
			c-1.2,0-2.2,0.9-2.2,2.1c0,1.3,1,2.1,2.2,2.1c0.6,0,1.2-0.2,1.6-0.6l0.7,0.7c-0.5,0.6-1.4,1-2.3,1
			C778.7,120.9,777.2,119.6,777.2,117.7z"/>
		<path class="st8" d="M792.6,118.4h-3.9l-0.9,2.3h-1.2l3.4-9h1.3l3.4,9h-1.2L792.6,118.4z M792.2,117.4l-1.5-4.1l-1.5,4.1H792.2z"
			/>
		<path class="st8" d="M801.5,117.2v3.5h-1.1v-3.5c0-1-0.6-1.6-1.5-1.6s-1.9,0.5-1.9,1.8v3.3h-1.1v-6.1h1.1v0.9
			c0.4-0.7,1.4-1.1,2-1.1C800.6,114.5,801.5,115.5,801.5,117.2z"/>
		<path class="st8" d="M809.4,114.6v6.1h-1.1v-1c-0.4,0.7-1.3,1.1-2.2,1.1c-1.7,0-3.1-1.3-3.1-3.2c0-1.9,1.4-3.2,3.1-3.2
			c0.9,0,1.8,0.4,2.2,1.1v-1H809.4z M808.3,117.7c0-1.3-1.1-2.1-2.1-2.1c-1.1,0-2,0.9-2,2.1c0,1.2,0.9,2.1,2,2.1
			C807.3,119.8,808.3,119,808.3,117.7z"/>
		<path class="st8" d="M811.4,111.3h1.1v9.5h-1.1V111.3z"/>
		<path class="st8" d="M820,114.6l-3.8,9.1H815l1.3-3.1l-2.4-5.9h1.2l1.8,4.5l1.9-4.5H820z"/>
		<path class="st8" d="M820.7,118.9h1.1c0,0.5,0.5,1,1.2,1c0.8,0,1.2-0.4,1.2-0.9c0-0.5-0.4-0.7-0.8-0.8l-0.8-0.2
			c-1-0.3-1.6-0.8-1.6-1.8c0-1,0.9-1.8,2.1-1.8c1,0,2.1,0.6,2.1,1.8H824c0-0.5-0.5-0.8-1-0.8c-0.6,0-1,0.4-1,0.8
			c0,0.4,0.4,0.6,0.8,0.7l0.9,0.2c1.3,0.3,1.6,1.1,1.6,1.8c0,1.1-1.1,1.8-2.4,1.8C821.9,120.9,820.7,120.2,820.7,118.9z"/>
		<path class="st8" d="M826.7,112.4c0-0.4,0.4-0.8,0.8-0.8c0.4,0,0.8,0.3,0.8,0.8c0,0.4-0.4,0.8-0.8,0.8
			C827.1,113.1,826.7,112.8,826.7,112.4z M826.9,114.6h1.1v6.1h-1.1V114.6z"/>
		<path class="st8" d="M829.6,118.9h1.1c0,0.5,0.5,1,1.2,1c0.8,0,1.2-0.4,1.2-0.9c0-0.5-0.4-0.7-0.8-0.8l-0.8-0.2
			c-1-0.3-1.6-0.8-1.6-1.8c0-1,0.9-1.8,2.1-1.8c1,0,2.1,0.6,2.1,1.8H833c0-0.5-0.5-0.8-1-0.8c-0.6,0-1,0.4-1,0.8
			c0,0.4,0.4,0.6,0.8,0.7l0.9,0.2c1.3,0.3,1.6,1.1,1.6,1.8c0,1.1-1.1,1.8-2.4,1.8C830.8,120.9,829.7,120.2,829.6,118.9z"/>
		<path class="st8" d="M845.7,114.5c0,1.4-0.8,2.8-2.7,2.8h-2.4v3.4h-1.2v-9h3.6C844.9,111.7,845.7,113.1,845.7,114.5z M844.5,114.5
			c0-0.8-0.4-1.7-1.5-1.7h-2.4v3.4h2.3C844,116.2,844.5,115.4,844.5,114.5z"/>
		<path class="st8" d="M847.1,111.3h1.1v9.5h-1.1V111.3z"/>
		<path class="st8" d="M856.3,114.6v6.1h-1.1v-1c-0.4,0.7-1.3,1.1-2.2,1.1c-1.7,0-3.1-1.3-3.1-3.2c0-1.9,1.4-3.2,3.1-3.2
			c0.9,0,1.8,0.4,2.2,1.1v-1H856.3z M855.1,117.7c0-1.3-1.1-2.1-2.1-2.1c-1.1,0-2,0.9-2,2.1c0,1.2,0.9,2.1,2,2.1
			C854.1,119.8,855.1,119,855.1,117.7z"/>
		<path class="st8" d="M861.2,115.6h-1.3v5.1h-1.1v-5.1h-1.1v-1h1.1v-2.3h1.1v2.3h1.3V115.6z"/>
		<path class="st8" d="M864.4,113.8v0.8h1.4v1h-1.4v5.1h-1.1v-5.1h-1.2v-1h1.2V114c0-1.6,0.7-2.7,2.3-2.7h0.7v1.1h-0.5
			C864.7,112.4,864.4,113,864.4,113.8z"/>
		<path class="st8" d="M866.6,117.7c0-1.9,1.5-3.2,3.2-3.2s3.2,1.2,3.2,3.2s-1.5,3.2-3.2,3.2S866.6,119.6,866.6,117.7z M871.9,117.7
			c0-1.3-0.9-2.1-2.1-2.1c-1.1,0-2,0.8-2,2.1c0,1.3,0.9,2.1,2,2.1C871,119.8,871.9,118.9,871.9,117.7z"/>
		<path class="st8" d="M878.6,114.7l-0.2,1.1c-0.3-0.2-0.7-0.2-0.9-0.2c-1.2,0-1.7,1.3-1.7,2.9v2.2h-1.2v-6.1h1.2v1.4
			c0.3-1.1,0.9-1.5,1.7-1.5C878,114.5,878.4,114.6,878.6,114.7z"/>
		<path class="st8" d="M889.5,117.2v3.5h-1.1v-3.5c0-1-0.6-1.7-1.5-1.7c-1.1,0-1.7,0.9-1.6,2.1l0-0.1v3.1h-1.1v-3.5
			c0-1-0.6-1.7-1.4-1.7c-0.9,0-1.7,0.5-1.7,1.8v3.3h-1.1v-6.1h1.1v0.9c0.3-0.7,1.1-1.1,2-1.1c0.9,0,1.7,0.5,2,1.3
			c0.6-1.1,1.5-1.3,2.1-1.3C888.6,114.5,889.5,115.5,889.5,117.2z"/>
		<path class="st8" d="M677.3,133.7c0-2.6,2-4.6,4.6-4.6c1.2,0,2.3,0.5,3,1.2l-0.8,0.8c-0.6-0.5-1.4-0.9-2.2-0.9
			c-1.9,0-3.4,1.6-3.4,3.5s1.5,3.5,3.4,3.5c1.6,0,2.7-0.9,2.9-2.3c0-0.1,0-0.1,0-0.2h-2.6v-1h3.9c0,3.2-1.7,4.6-4.3,4.6
			S677.3,136.3,677.3,133.7z"/>
		<path class="st8" d="M693.7,132.1v6.1h-1.1v-1c-0.4,0.7-1.3,1.1-2.2,1.1c-1.7,0-3.1-1.3-3.1-3.2c0-1.9,1.4-3.2,3.1-3.2
			c0.9,0,1.8,0.4,2.2,1.1v-1H693.7z M692.6,135.1c0-1.3-1.1-2.1-2.1-2.1c-1.1,0-2,0.9-2,2.1c0,1.2,0.9,2.1,2,2.1
			C691.6,137.3,692.6,136.4,692.6,135.1z"/>
		<path class="st8" d="M705.4,134.7v3.5h-1.1v-3.5c0-1-0.6-1.7-1.5-1.7c-1.1,0-1.7,0.9-1.6,2.1l0-0.1v3.1H700v-3.5
			c0-1-0.6-1.7-1.4-1.7c-0.9,0-1.7,0.5-1.7,1.8v3.3h-1.1v-6.1h1.1v0.9c0.3-0.7,1.1-1.1,2-1.1c0.9,0,1.7,0.5,2,1.3
			c0.6-1.1,1.5-1.3,2.1-1.3C704.5,132,705.4,133,705.4,134.7z"/>
		<path class="st8" d="M716.9,134.7v3.5h-1.1v-3.5c0-1-0.6-1.7-1.5-1.7c-1.1,0-1.7,0.9-1.6,2.1l0-0.1v3.1h-1.1v-3.5
			c0-1-0.6-1.7-1.4-1.7c-0.9,0-1.7,0.5-1.7,1.8v3.3h-1.1v-6.1h1.1v0.9c0.3-0.7,1.1-1.1,2-1.1c0.9,0,1.7,0.5,2,1.3
			c0.6-1.1,1.5-1.3,2.1-1.3C716.1,132,716.9,133,716.9,134.7z"/>
		<path class="st8" d="M724.9,132.1v6.1h-1.1v-1c-0.4,0.7-1.3,1.1-2.2,1.1c-1.7,0-3.1-1.3-3.1-3.2c0-1.9,1.4-3.2,3.1-3.2
			c0.9,0,1.8,0.4,2.2,1.1v-1H724.9z M723.7,135.1c0-1.3-1.1-2.1-2.1-2.1c-1.1,0-2,0.9-2,2.1c0,1.2,0.9,2.1,2,2.1
			C722.8,137.3,723.7,136.4,723.7,135.1z"/>
		<path class="st8" d="M730.2,128.8h1.1v9.5h-1.1V128.8z"/>
		<path class="st8" d="M739.3,132.1v6.1h-1.1v-1c-0.4,0.7-1.3,1.1-2.2,1.1c-1.7,0-3.1-1.3-3.1-3.2c0-1.9,1.4-3.2,3.1-3.2
			c0.9,0,1.8,0.4,2.2,1.1v-1H739.3z M738.2,135.1c0-1.3-1.1-2.1-2.1-2.1c-1.1,0-2,0.9-2,2.1c0,1.2,0.9,2.1,2,2.1
			C737.2,137.3,738.2,136.4,738.2,135.1z"/>
		<path class="st8" d="M746.9,132.1v6.1h-1.1v-1c-0.4,0.8-1.3,1.1-2,1.1c-1.5,0-2.5-1-2.5-2.7v-3.5h1.1v3.5c0,1,0.6,1.7,1.5,1.7
			c0.9,0,1.9-0.5,1.9-1.8v-3.3H746.9z"/>
		<path class="st8" d="M754.5,134.7v3.5h-1.1v-3.5c0-1-0.6-1.6-1.5-1.6c-0.9,0-1.9,0.5-1.9,1.8v3.3h-1.1v-6.1h1.1v0.9
			c0.4-0.7,1.4-1.1,2-1.1C753.6,132,754.5,133,754.5,134.7z"/>
		<path class="st8" d="M756.1,135.1c0-1.9,1.5-3.2,3.3-3.2c1,0,1.8,0.4,2.3,1l-0.7,0.7c-0.4-0.4-0.9-0.6-1.6-0.6
			c-1.2,0-2.2,0.9-2.2,2.1c0,1.3,1,2.1,2.2,2.1c0.6,0,1.2-0.2,1.6-0.6l0.7,0.7c-0.5,0.6-1.4,1-2.3,1
			C757.6,138.3,756.1,137.1,756.1,135.1z"/>
		<path class="st8" d="M768.7,134.7v3.5h-1.1v-3.5c0-1-0.6-1.6-1.5-1.6s-1.9,0.5-1.9,1.8v3.3h-1.1v-9.5h1.1v4.3
			c0.4-0.7,1.4-1.1,2-1.1C767.8,132,768.7,133,768.7,134.7z"/>
		<path class="st8" d="M776.4,135.6h-5c0.2,1.1,1,1.6,2,1.6c0.7,0,1.4-0.3,1.8-0.9l1,0.4c-0.5,1.1-1.6,1.6-2.8,1.6
			c-1.7,0-3.1-1.3-3.1-3.2s1.4-3.2,3.1-3.2c1.7,0,3,1.2,3,3.2C776.4,135.3,776.4,135.5,776.4,135.6z M775.3,134.7
			c-0.1-1-0.9-1.6-1.9-1.6c-1,0-1.8,0.5-2,1.6H775.3z"/>
		<path class="st8" d="M784,128.8v9.5h-1.1v-1c-0.4,0.7-1.3,1.1-2.2,1.1c-1.7,0-3.1-1.3-3.1-3.2c0-1.9,1.4-3.2,3.1-3.2
			c0.9,0,1.8,0.4,2.2,1.1v-4.3H784z M782.9,135.1c0-1.3-1.1-2.1-2.1-2.1c-1.1,0-2,0.9-2,2.1c0,1.2,0.9,2.1,2,2.1
			C781.9,137.3,782.9,136.4,782.9,135.1z"/>
		<path class="st8" d="M789.1,129.8c0-0.4,0.4-0.8,0.8-0.8c0.4,0,0.8,0.3,0.8,0.8c0,0.4-0.4,0.8-0.8,0.8
			C789.5,130.6,789.1,130.3,789.1,129.8z M789.4,132.1h1.1v6.1h-1.1V132.1z"/>
		<path class="st8" d="M798.1,134.7v3.5H797v-3.5c0-1-0.6-1.6-1.5-1.6c-0.9,0-1.9,0.5-1.9,1.8v3.3h-1.1v-6.1h1.1v0.9
			c0.4-0.7,1.4-1.1,2-1.1C797.2,132,798.1,133,798.1,134.7z"/>
		<path class="st8" d="M809,137.1v1.1h-5.4v-9h5.3v1.1h-4.1v2.9h3.6v1.1h-3.6v2.8H809z"/>
		<path class="st8" d="M820.1,138.2l-0.8-6.9l-2.9,5.9h-1l-2.9-5.9l-0.8,6.9h-1.2l1.1-9h1.1l3.2,6.7l3.2-6.7h1.1l1.1,9H820.1z"/>
		<path class="st8" d="M828.8,137.1v1.1h-5.4v-9h5.3v1.1h-4.1v2.9h3.6v1.1h-3.6v2.8H828.8z"/>
		<path class="st8" d="M835.8,135.9H832l-0.9,2.3h-1.2l3.4-9h1.3l3.4,9h-1.2L835.8,135.9z M835.4,134.8l-1.5-4.1l-1.5,4.1H835.4z"/>
		<path class="st8" d="M848.3,132.1v6.1h-1.1v-1c-0.4,0.7-1.3,1.1-2.2,1.1c-1.7,0-3.1-1.3-3.1-3.2c0-1.9,1.4-3.2,3.1-3.2
			c0.9,0,1.8,0.4,2.2,1.1v-1H848.3z M847.1,135.1c0-1.3-1.1-2.1-2.1-2.1c-1.1,0-2,0.9-2,2.1c0,1.2,0.9,2.1,2,2.1
			C846.1,137.3,847.1,136.4,847.1,135.1z"/>
		<path class="st8" d="M855.9,134.7v3.5h-1.1v-3.5c0-1-0.6-1.6-1.5-1.6s-1.9,0.5-1.9,1.8v3.3h-1.1v-6.1h1.1v0.9
			c0.4-0.7,1.4-1.1,2-1.1C855,132,855.9,133,855.9,134.7z"/>
		<path class="st8" d="M863.8,128.8v9.5h-1.1v-1c-0.4,0.7-1.3,1.1-2.2,1.1c-1.7,0-3.1-1.3-3.1-3.2c0-1.9,1.4-3.2,3.1-3.2
			c0.9,0,1.8,0.4,2.2,1.1v-4.3H863.8z M862.7,135.1c0-1.3-1.1-2.1-2.1-2.1c-1.1,0-2,0.9-2,2.1c0,1.2,0.9,2.1,2,2.1
			C861.7,137.3,862.7,136.4,862.7,135.1z"/>
		<path class="st8" d="M874.2,135.9h-3.9l-0.9,2.3h-1.2l3.4-9h1.3l3.4,9H875L874.2,135.9z M873.8,134.8l-1.5-4.1l-1.5,4.1H873.8z"/>
		<path class="st8" d="M883.9,132c0,1.4-0.8,2.8-2.7,2.8h-2.4v3.4h-1.2v-9h3.6C883.1,129.2,883.9,130.6,883.9,132z M882.7,132
			c0-0.8-0.4-1.7-1.5-1.7h-2.4v3.4h2.3C882.3,133.7,882.7,132.9,882.7,132z"/>
		<path class="st8" d="M890,135.9h-3.9l-0.9,2.3H884l3.4-9h1.3l3.4,9h-1.2L890,135.9z M889.6,134.8l-1.5-4.1l-1.5,4.1H889.6z"/>
		<path class="st8" d="M892.6,133.7c0-2.6,2-4.6,4.6-4.6c1.4,0,2.6,0.6,3.4,1.5l-0.9,0.7c-0.6-0.7-1.5-1.2-2.5-1.2
			c-1.9,0-3.4,1.6-3.4,3.5c0,1.9,1.5,3.5,3.4,3.5c1,0,1.9-0.5,2.5-1.2l0.9,0.7c-0.8,0.9-2,1.5-3.4,1.5
			C894.6,138.3,892.6,136.3,892.6,133.7z"/>
	</g>
	<g>
		<path class="st8" d="M1020,118.4h-3.9l-0.9,2.3h-1.2l3.4-9h1.3l3.4,9h-1.2L1020,118.4z M1019.6,117.4l-1.5-4.1l-1.5,4.1H1019.6z"
			/>
		<path class="st8" d="M1023.5,111.7h1.2v9h-1.2V111.7z"/>
		<path class="st8" d="M1027,117.1h4.5v1.1h-4.5V117.1z"/>
		<path class="st8" d="M1039.9,117.7c0,1.9-1.4,3.2-3.1,3.2c-0.9,0-1.8-0.4-2.2-1.1v3.9h-1.1v-9.1h1.1v1c0.4-0.7,1.3-1.1,2.2-1.1
			C1038.5,114.5,1039.9,115.8,1039.9,117.7z M1038.7,117.7c0-1.2-0.9-2.1-2-2.1c-1.1,0-2.1,0.8-2.1,2.1c0,1.3,1.1,2.1,2.1,2.1
			C1037.8,119.8,1038.7,118.9,1038.7,117.7z"/>
		<path class="st8" d="M1041.1,117.7c0-1.9,1.5-3.2,3.2-3.2s3.2,1.2,3.2,3.2s-1.5,3.2-3.2,3.2S1041.1,119.6,1041.1,117.7z
			 M1046.4,117.7c0-1.3-0.9-2.1-2.1-2.1c-1.1,0-2,0.8-2,2.1c0,1.3,0.9,2.1,2,2.1C1045.4,119.8,1046.4,118.9,1046.4,117.7z"/>
		<path class="st8" d="M1058,114.6l-2.3,6.1h-1l-1.7-4.5l-1.6,4.5h-0.9l-2.3-6.1h1.2l1.6,4.3l1.6-4.3h1.1l1.6,4.3l1.6-4.3H1058z"/>
		<path class="st8" d="M1064.8,118.2h-5c0.2,1.1,1,1.6,2,1.6c0.7,0,1.4-0.3,1.8-0.9l1,0.4c-0.5,1.1-1.6,1.6-2.8,1.6
			c-1.7,0-3.1-1.3-3.1-3.2s1.4-3.2,3.1-3.2c1.7,0,3,1.2,3,3.2C1064.9,117.8,1064.8,118,1064.8,118.2z M1063.7,117.2
			c-0.1-1-0.9-1.6-1.9-1.6c-1,0-1.8,0.5-2,1.6H1063.7z"/>
		<path class="st8" d="M1070.4,114.7l-0.2,1.1c-0.3-0.2-0.7-0.2-0.9-0.2c-1.2,0-1.7,1.3-1.7,2.9v2.2h-1.2v-6.1h1.2v1.4
			c0.3-1.1,0.9-1.5,1.7-1.5C1069.8,114.5,1070.2,114.6,1070.4,114.7z"/>
		<path class="st8" d="M1077.3,118.2h-5c0.2,1.1,1,1.6,2,1.6c0.7,0,1.4-0.3,1.8-0.9l1,0.4c-0.5,1.1-1.6,1.6-2.8,1.6
			c-1.7,0-3.1-1.3-3.1-3.2s1.4-3.2,3.1-3.2s3,1.2,3,3.2C1077.3,117.8,1077.3,118,1077.3,118.2z M1076.2,117.2
			c-0.1-1-0.9-1.6-1.9-1.6c-1,0-1.8,0.5-2,1.6H1076.2z"/>
		<path class="st8" d="M1084.9,111.3v9.5h-1.1v-1c-0.4,0.7-1.3,1.1-2.2,1.1c-1.7,0-3.1-1.3-3.1-3.2c0-1.9,1.4-3.2,3.1-3.2
			c0.9,0,1.8,0.4,2.2,1.1v-4.3H1084.9z M1083.8,117.7c0-1.3-1.1-2.1-2.1-2.1c-1.1,0-2,0.9-2,2.1c0,1.2,0.9,2.1,2,2.1
			C1082.8,119.8,1083.8,119,1083.8,117.7z"/>
		<path class="st8" d="M1096,119.6v1.1h-5.4v-9h5.3v1.1h-4.1v2.9h3.6v1.1h-3.6v2.8H1096z"/>
		<path class="st8" d="M1107.2,117.2v3.5h-1.1v-3.5c0-1-0.6-1.7-1.5-1.7c-1.1,0-1.7,0.9-1.6,2.1l0-0.1v3.1h-1.1v-3.5
			c0-1-0.6-1.7-1.4-1.7c-0.9,0-1.7,0.5-1.7,1.8v3.3h-1.1v-6.1h1.1v0.9c0.3-0.7,1.1-1.1,2-1.1c0.9,0,1.7,0.5,2,1.3
			c0.5-1.1,1.5-1.3,2.1-1.3C1106.4,114.5,1107.2,115.5,1107.2,117.2z"/>
		<path class="st8" d="M1115.6,117.7c0,1.9-1.4,3.2-3.1,3.2c-0.9,0-1.8-0.4-2.2-1.1v1h-1.1v-9.5h1.1v4.3c0.4-0.7,1.3-1.1,2.2-1.1
			C1114.2,114.5,1115.6,115.7,1115.6,117.7z M1114.4,117.7c0-1.2-0.9-2.1-2-2.1c-1,0-2.1,0.8-2.1,2.1c0,1.3,1,2.1,2.1,2.1
			C1113.5,119.8,1114.4,118.9,1114.4,117.7z"/>
		<path class="st8" d="M1116.8,117.7c0-1.9,1.5-3.2,3.2-3.2s3.2,1.2,3.2,3.2s-1.5,3.2-3.2,3.2S1116.8,119.6,1116.8,117.7z
			 M1122.1,117.7c0-1.3-0.9-2.1-2.1-2.1c-1.1,0-2,0.8-2,2.1c0,1.3,0.9,2.1,2,2.1C1121.1,119.8,1122.1,118.9,1122.1,117.7z"/>
		<path class="st8" d="M1124.8,111.3h1.1v9.5h-1.1V111.3z"/>
		<path class="st8" d="M1134,111.3v9.5h-1.1v-1c-0.4,0.7-1.3,1.1-2.2,1.1c-1.7,0-3.1-1.3-3.1-3.2c0-1.9,1.4-3.2,3.1-3.2
			c0.9,0,1.8,0.4,2.2,1.1v-4.3H1134z M1132.9,117.7c0-1.3-1.1-2.1-2.1-2.1c-1.1,0-2,0.9-2,2.1c0,1.2,0.9,2.1,2,2.1
			C1131.9,119.8,1132.9,119,1132.9,117.7z"/>
		<path class="st8" d="M1001.5,135.6h-5c0.2,1.1,1,1.6,2,1.6c0.7,0,1.4-0.3,1.8-0.9l1,0.4c-0.5,1.1-1.6,1.6-2.8,1.6
			c-1.7,0-3.1-1.3-3.1-3.2s1.4-3.2,3.1-3.2s3,1.2,3,3.2C1001.5,135.3,1001.5,135.5,1001.5,135.6z M1000.4,134.7
			c-0.1-1-0.9-1.6-1.9-1.6c-1,0-1.8,0.5-2,1.6H1000.4z"/>
		<path class="st8" d="M1008.8,134.7v3.5h-1.1v-3.5c0-1-0.6-1.6-1.5-1.6s-1.9,0.5-1.9,1.8v3.3h-1.1v-6.1h1.1v0.9
			c0.4-0.7,1.4-1.1,2-1.1C1007.8,132,1008.8,133,1008.8,134.7z"/>
		<path class="st8" d="M1013.5,133.1h-1.3v5.1h-1.1v-5.1h-1.1v-1h1.1v-2.3h1.1v2.3h1.3V133.1z"/>
		<path class="st8" d="M1020.5,135.6h-5c0.2,1.1,1,1.6,2,1.6c0.7,0,1.4-0.3,1.8-0.9l1,0.4c-0.5,1.1-1.6,1.6-2.8,1.6
			c-1.7,0-3.1-1.3-3.1-3.2s1.4-3.2,3.1-3.2c1.7,0,3,1.2,3,3.2C1020.5,135.3,1020.5,135.5,1020.5,135.6z M1019.4,134.7
			c-0.1-1-0.9-1.6-1.9-1.6c-1,0-1.8,0.5-2,1.6H1019.4z"/>
		<path class="st8" d="M1026,132.2l-0.2,1.1c-0.3-0.2-0.7-0.2-0.9-0.2c-1.2,0-1.7,1.3-1.7,2.9v2.2h-1.2v-6.1h1.2v1.4
			c0.3-1.1,0.9-1.5,1.7-1.5C1025.4,132,1025.9,132.1,1026,132.2z"/>
		<path class="st8" d="M1027,129.8c0-0.4,0.4-0.8,0.8-0.8c0.4,0,0.8,0.3,0.8,0.8c0,0.4-0.4,0.8-0.8,0.8
			C1027.4,130.6,1027,130.3,1027,129.8z M1027.3,132.1h1.1v6.1h-1.1V132.1z"/>
		<path class="st8" d="M1036,134.7v3.5h-1.1v-3.5c0-1-0.6-1.6-1.5-1.6s-1.9,0.5-1.9,1.8v3.3h-1.1v-6.1h1.1v0.9
			c0.4-0.7,1.4-1.1,2-1.1C1035.1,132,1036.1,133,1036,134.7z"/>
		<path class="st8" d="M1044,132.1v5.2c0,2.9-1.3,4-3.3,4c-1.1,0-2.1-0.6-2.8-1.6l1-0.5c0.4,0.7,1.1,1.1,1.8,1.1
			c1.3,0,2.2-0.8,2.2-2.8v-0.1c-0.4,0.7-1.3,1.1-2.2,1.1c-1.7,0-3.1-1.3-3.1-3.2c0-1.9,1.4-3.2,3.1-3.2c0.9,0,1.8,0.4,2.2,1.1v-1
			H1044z M1042.8,135.1c0-1.3-1.1-2.1-2.1-2.1c-1.1,0-2,0.9-2,2.1c0,1.2,0.9,2.1,2,2.1C1041.8,137.3,1042.8,136.4,1042.8,135.1z"/>
		<path class="st8" d="M1052.2,133.1h-1.3v5.1h-1.1v-5.1h-1.1v-1h1.1v-2.3h1.1v2.3h1.3V133.1z"/>
		<path class="st8" d="M1059.1,134.7v3.5h-1.1v-3.5c0-1-0.6-1.6-1.5-1.6s-1.9,0.5-1.9,1.8v3.3h-1.1v-9.5h1.1v4.3
			c0.4-0.7,1.4-1.1,2-1.1C1058.2,132,1059.1,133,1059.1,134.7z"/>
		<path class="st8" d="M1066.8,135.6h-5c0.2,1.1,1,1.6,2,1.6c0.7,0,1.4-0.3,1.8-0.9l1,0.4c-0.5,1.1-1.6,1.6-2.8,1.6
			c-1.7,0-3.1-1.3-3.1-3.2s1.4-3.2,3.1-3.2s3,1.2,3,3.2C1066.8,135.3,1066.8,135.5,1066.8,135.6z M1065.7,134.7
			c-0.1-1-0.9-1.6-1.9-1.6c-1,0-1.8,0.5-2,1.6H1065.7z"/>
		<path class="st8" d="M1077.7,132.1v5.2c0,2.9-1.3,4-3.3,4c-1.1,0-2.1-0.6-2.8-1.6l1-0.5c0.4,0.7,1.1,1.1,1.8,1.1
			c1.3,0,2.2-0.8,2.2-2.8v-0.1c-0.4,0.7-1.3,1.1-2.2,1.1c-1.7,0-3.1-1.3-3.1-3.2c0-1.9,1.4-3.2,3.1-3.2c0.9,0,1.8,0.4,2.2,1.1v-1
			H1077.7z M1076.5,135.1c0-1.3-1.1-2.1-2.1-2.1c-1.1,0-2,0.9-2,2.1c0,1.2,0.9,2.1,2,2.1C1075.5,137.3,1076.5,136.4,1076.5,135.1z"
			/>
		<path class="st8" d="M1079.7,128.8h1.1v9.5h-1.1V128.8z"/>
		<path class="st8" d="M1082.4,135.1c0-1.9,1.5-3.2,3.2-3.2c1.7,0,3.2,1.2,3.2,3.2s-1.5,3.2-3.2,3.2
			C1083.9,138.3,1082.4,137.1,1082.4,135.1z M1087.7,135.1c0-1.3-0.9-2.1-2.1-2.1c-1.1,0-2,0.8-2,2.1c0,1.3,0.9,2.1,2,2.1
			C1086.7,137.3,1087.7,136.4,1087.7,135.1z"/>
		<path class="st8" d="M1096.8,135.1c0,1.9-1.4,3.2-3.1,3.2c-0.9,0-1.8-0.4-2.2-1.1v1h-1.1v-9.5h1.1v4.3c0.4-0.7,1.3-1.1,2.2-1.1
			C1095.5,132,1096.8,133.2,1096.8,135.1z M1095.7,135.1c0-1.2-0.9-2.1-2-2.1c-1,0-2.1,0.8-2.1,2.1c0,1.3,1,2.1,2.1,2.1
			C1094.8,137.3,1095.7,136.4,1095.7,135.1z"/>
		<path class="st8" d="M1104.5,132.1v6.1h-1.1v-1c-0.4,0.7-1.3,1.1-2.2,1.1c-1.7,0-3.1-1.3-3.1-3.2c0-1.9,1.4-3.2,3.1-3.2
			c0.9,0,1.8,0.4,2.2,1.1v-1H1104.5z M1103.3,135.1c0-1.3-1.1-2.1-2.1-2.1c-1.1,0-2,0.9-2,2.1c0,1.2,0.9,2.1,2,2.1
			C1102.3,137.3,1103.3,136.4,1103.3,135.1z"/>
		<path class="st8" d="M1106.5,128.8h1.1v9.5h-1.1V128.8z"/>
		<path class="st8" d="M1122.5,134.7v3.5h-1.1v-3.5c0-1-0.6-1.7-1.5-1.7c-1.1,0-1.7,0.9-1.6,2.1l0-0.1v3.1h-1.1v-3.5
			c0-1-0.6-1.7-1.4-1.7c-0.9,0-1.7,0.5-1.7,1.8v3.3h-1.1v-6.1h1.1v0.9c0.3-0.7,1.1-1.1,2-1.1c0.9,0,1.7,0.5,2,1.3
			c0.5-1.1,1.5-1.3,2.1-1.3C1121.7,132,1122.5,133,1122.5,134.7z"/>
		<path class="st8" d="M1130.5,132.1v6.1h-1.1v-1c-0.4,0.7-1.3,1.1-2.2,1.1c-1.7,0-3.1-1.3-3.1-3.2c0-1.9,1.4-3.2,3.1-3.2
			c0.9,0,1.8,0.4,2.2,1.1v-1H1130.5z M1129.3,135.1c0-1.3-1.1-2.1-2.1-2.1c-1.1,0-2,0.9-2,2.1c0,1.2,0.9,2.1,2,2.1
			C1128.3,137.3,1129.3,136.4,1129.3,135.1z"/>
		<path class="st8" d="M1136.4,132.2l-0.2,1.1c-0.3-0.2-0.7-0.2-0.9-0.2c-1.2,0-1.7,1.3-1.7,2.9v2.2h-1.2v-6.1h1.2v1.4
			c0.3-1.1,0.9-1.5,1.7-1.5C1135.8,132,1136.2,132.1,1136.4,132.2z"/>
		<path class="st8" d="M1141.6,138.2l-2.8-3v3h-1.1v-9.5h1.1v5.5l2.1-2.2h1.6l-2.6,2.6l3.3,3.5H1141.6z"/>
		<path class="st8" d="M1149.5,135.6h-5c0.2,1.1,1,1.6,2,1.6c0.7,0,1.4-0.3,1.8-0.9l1,0.4c-0.5,1.1-1.6,1.6-2.8,1.6
			c-1.7,0-3.1-1.3-3.1-3.2s1.4-3.2,3.1-3.2s3,1.2,3,3.2C1149.5,135.3,1149.5,135.5,1149.5,135.6z M1148.4,134.7
			c-0.1-1-0.9-1.6-1.9-1.6c-1,0-1.8,0.5-2,1.6H1148.4z"/>
		<path class="st8" d="M1154,133.1h-1.3v5.1h-1.1v-5.1h-1.1v-1h1.1v-2.3h1.1v2.3h1.3V133.1z"/>
	</g>
	<polyline class="st6" points="103.9,44.4 93.4,55 103.9,65.6 	"/>
	<polyline class="st6" points="591.7,65.6 602.3,55 591.7,44.4 	"/>
	<polyline class="st6" points="958.5,65.6 969.1,55 958.5,44.4 	"/>
	<polyline class="st6" points="1165.6,65.6 1176.2,55 1165.6,44.4 	"/>
	<polyline class="st6" points="618.5,44.4 607.9,55 618.5,65.6 	"/>
	<polyline class="st6" points="985.9,44.4 975.3,55 985.9,65.6 	"/>
	<g>
		<circle class="st2" cx="1204.9" cy="205.2" r="13.1"/>
		<g>
			<path class="st8" d="M1206.7,199v10.8h-2.1v-7.9l-2.4,0.9v-2l4.4-1.8H1206.7z"/>
		</g>
		<g>
			<path class="st9" d="M1235.6,206c0,1.6-1.3,2.7-3.2,2.7c-1.9,0-3.2-1.1-3.2-2.7c0-1.1,0.6-2,1.6-2.4c-0.5-0.3-0.9-0.9-0.9-1.6
				c0-1.2,1-2.1,2.4-2.1c1.5,0,2.4,0.9,2.4,2.1c0,0.7-0.4,1.3-0.9,1.6C1235,204,1235.6,204.9,1235.6,206z M1234.4,205.9
				c0-1-0.9-1.7-2-1.7c-1.1,0-2,0.7-2,1.7c0,1,0.9,1.7,2,1.7C1233.6,207.6,1234.4,206.9,1234.4,205.9z M1231.1,202.1
				c0,0.6,0.6,1.1,1.3,1.1c0.7,0,1.2-0.5,1.2-1.1s-0.5-1.2-1.2-1.2C1231.7,201,1231.1,201.5,1231.1,202.1z"/>
			<path class="st9" d="M1247.7,199.5l-3.5,4.9v4.2h-1.2v-4.2l-3.4-4.9h1.4l2.6,3.7l2.6-3.7H1247.7z"/>
			<path class="st9" d="M1253.5,206h-5c0.2,1.1,1,1.6,2,1.6c0.7,0,1.4-0.3,1.8-0.9l1,0.4c-0.5,1.1-1.6,1.6-2.8,1.6
				c-1.7,0-3.1-1.3-3.1-3.2s1.4-3.2,3.1-3.2c1.7,0,3,1.2,3,3.2C1253.5,205.7,1253.5,205.8,1253.5,206z M1252.4,205
				c-0.1-1-0.9-1.6-1.9-1.6c-1,0-1.8,0.5-2,1.6H1252.4z"/>
			<path class="st9" d="M1261.1,202.4v6.1h-1.1v-1c-0.4,0.7-1.3,1.1-2.2,1.1c-1.7,0-3.1-1.3-3.1-3.2c0-1.9,1.4-3.2,3.1-3.2
				c0.9,0,1.8,0.4,2.2,1.1v-1H1261.1z M1260,205.5c0-1.3-1.1-2.1-2.1-2.1c-1.1,0-2,0.9-2,2.1c0,1.2,0.9,2.1,2,2.1
				C1259,207.6,1260,206.8,1260,205.5z"/>
			<path class="st9" d="M1267.1,202.5l-0.2,1.1c-0.3-0.2-0.7-0.2-0.9-0.2c-1.2,0-1.7,1.3-1.7,2.9v2.2h-1.2v-6.1h1.2v1.4
				c0.3-1.1,0.9-1.5,1.7-1.5C1266.4,202.3,1266.9,202.4,1267.1,202.5z"/>
			<path class="st9" d="M1267.8,206.7h1.1c0,0.5,0.5,1,1.2,1c0.8,0,1.2-0.4,1.2-0.9c0-0.5-0.4-0.7-0.8-0.8l-0.8-0.2
				c-1-0.3-1.6-0.8-1.6-1.8c0-1,0.9-1.8,2.1-1.8c1,0,2.1,0.6,2.1,1.8h-1.1c0-0.5-0.5-0.8-1-0.8c-0.6,0-1,0.4-1,0.8
				c0,0.4,0.4,0.6,0.8,0.7l0.9,0.2c1.3,0.3,1.6,1.1,1.6,1.8c0,1.1-1.1,1.8-2.4,1.8C1269,208.7,1267.9,208,1267.8,206.7z"/>
			<path class="st9" d="M1276.9,205.5c0-1.9,1.5-3.2,3.2-3.2s3.2,1.2,3.2,3.2s-1.5,3.2-3.2,3.2S1276.9,207.4,1276.9,205.5z
				 M1282.2,205.5c0-1.3-0.9-2.1-2.1-2.1c-1.1,0-2,0.8-2,2.1c0,1.3,0.9,2.1,2,2.1C1281.3,207.6,1282.2,206.8,1282.2,205.5z"/>
			<path class="st9" d="M1286.5,201.6v0.8h1.4v1h-1.4v5.1h-1.1v-5.1h-1.2v-1h1.2v-0.6c0-1.6,0.7-2.7,2.3-2.7h0.7v1.1h-0.5
				C1286.8,200.2,1286.5,200.8,1286.5,201.6z"/>
			<path class="st9" d="M1295.1,205.2h-1.2v3.4h-1.2v-9h3.4c2,0,2.7,1.4,2.7,2.8c0,1.3-0.7,2.6-2.4,2.8l2.4,3.4h-1.4L1295.1,205.2z
				 M1293.9,204.1h1.9c1.3,0,1.8-0.7,1.8-1.7c0-1-0.6-1.7-1.5-1.7h-2.2V204.1z"/>
			<path class="st9" d="M1307.5,207.6v1.1h-0.2c-0.9,0-1.6-0.4-1.8-1c-0.5,0.7-1.3,1-2.2,1c-1.7,0-2.9-1.3-2.9-2.9
				c0-1,0.6-1.8,1.4-2.3c-0.5-0.4-0.9-1-0.9-1.8c0-1.2,1-2.3,2.4-2.3c1,0,1.7,0.5,2.2,1.2l-0.9,0.6c-0.3-0.5-0.7-0.7-1.2-0.7
				c-0.8,0-1.3,0.5-1.3,1.2c0,0.7,0.4,1.4,1.5,1.4h1.6v-1.1h1.2v1.1h1.1v0.9h-1.1v1.7c0,0.9,0.2,1.8,1.1,1.8H1307.5z M1305,205.9
				v-1.8h-1.5c-1.5,0-2.1,0.8-2.1,1.7c0,1,0.7,1.8,1.8,1.8C1304.2,207.6,1304.9,206.8,1305,205.9z"/>
			<path class="st9" d="M1309.2,199.5h3.5c2.6,0,4.1,2,4.1,4.5c0,2.6-1.5,4.5-4.1,4.5h-3.5V199.5z M1312.7,207.5
				c1.9,0,2.9-1.5,2.9-3.4c0-1.9-1-3.4-2.9-3.4h-2.3v6.8H1312.7z"/>
			<path class="st9" d="M1321.4,205.5c0-1.9,1.5-3.2,3.2-3.2s3.2,1.2,3.2,3.2s-1.5,3.2-3.2,3.2S1321.4,207.4,1321.4,205.5z
				 M1326.6,205.5c0-1.3-0.9-2.1-2.1-2.1c-1.1,0-2,0.8-2,2.1c0,1.3,0.9,2.1,2,2.1C1325.7,207.6,1326.6,206.8,1326.6,205.5z"/>
			<path class="st9" d="M1335,205v3.5h-1.1v-3.5c0-1-0.6-1.6-1.5-1.6c-0.9,0-1.9,0.5-1.9,1.8v3.3h-1.1v-6.1h1.1v0.9
				c0.4-0.7,1.4-1.1,2-1.1C1334.1,202.3,1335,203.3,1335,205z"/>
			<path class="st9" d="M1234.6,223.7h-3.9l-0.9,2.3h-1.2l3.4-9h1.3l3.4,9h-1.2L1234.6,223.7z M1234.2,222.7l-1.5-4.1l-1.5,4.1
				H1234.2z"/>
			<path class="st9" d="M1238.1,225.4c0-0.5,0.4-0.8,0.8-0.8c0.5,0,0.9,0.3,0.9,0.8c0,0.5-0.4,0.8-0.9,0.8
				C1238.5,226.2,1238.1,225.8,1238.1,225.4z"/>
			<path class="st9" d="M1242,217h1.2v9h-1.2V217z"/>
			<path class="st9" d="M1245.4,225.4c0-0.5,0.4-0.8,0.8-0.8c0.5,0,0.9,0.3,0.9,0.8c0,0.5-0.4,0.8-0.9,0.8
				C1245.8,226.2,1245.4,225.8,1245.4,225.4z"/>
			<path class="st9" d="M1256,217h1.1l-4.5,9h-1.1L1256,217z"/>
			<path class="st9" d="M1271.1,226l-0.8-6.9l-2.9,5.9h-1l-2.9-5.9l-0.8,6.9h-1.2l1.1-9h1.1l3.2,6.7l3.2-6.7h1.1l1.1,9H1271.1z"/>
			<path class="st9" d="M1274.2,225.4c0-0.5,0.4-0.8,0.8-0.8c0.5,0,0.9,0.3,0.9,0.8c0,0.5-0.4,0.8-0.9,0.8
				C1274.6,226.2,1274.2,225.8,1274.2,225.4z"/>
			<path class="st9" d="M1278.1,217h1.2v7.9h3.7v1.1h-4.9V217z"/>
			<path class="st9" d="M1284.5,225.4c0-0.5,0.4-0.8,0.8-0.8c0.5,0,0.9,0.3,0.9,0.8c0,0.5-0.4,0.8-0.9,0.8
				C1284.9,226.2,1284.5,225.8,1284.5,225.4z"/>
			<path class="st9" d="M1296.3,223.7h-3.9l-0.9,2.3h-1.2l3.4-9h1.3l3.4,9h-1.2L1296.3,223.7z M1295.9,222.7l-1.5-4.1l-1.5,4.1
				H1295.9z"/>
			<path class="st9" d="M1306,223c0,1.9-1.4,3.2-3.1,3.2c-0.9,0-1.8-0.4-2.2-1.1v3.9h-1.1v-9.1h1.1v1c0.4-0.7,1.3-1.1,2.2-1.1
				C1304.6,219.8,1306,221,1306,223z M1304.9,223c0-1.2-0.9-2.1-2-2.1c-1.1,0-2.1,0.8-2.1,2.1c0,1.3,1.1,2.1,2.1,2.1
				C1304,225.1,1304.9,224.2,1304.9,223z"/>
			<path class="st9" d="M1314,223c0,1.9-1.4,3.2-3.1,3.2c-0.9,0-1.8-0.4-2.2-1.1v3.9h-1.1v-9.1h1.1v1c0.4-0.7,1.3-1.1,2.2-1.1
				C1312.6,219.8,1314,221,1314,223z M1312.9,223c0-1.2-0.9-2.1-2-2.1c-1.1,0-2.1,0.8-2.1,2.1c0,1.3,1.1,2.1,2.1,2.1
				C1312,225.1,1312.9,224.2,1312.9,223z"/>
			<path class="st9" d="M1315.7,216.6h1.1v9.5h-1.1V216.6z"/>
			<path class="st9" d="M1318.6,217.7c0-0.4,0.4-0.8,0.8-0.8c0.4,0,0.8,0.3,0.8,0.8c0,0.4-0.4,0.8-0.8,0.8
				C1318.9,218.4,1318.6,218.1,1318.6,217.7z M1318.8,219.9h1.1v6.1h-1.1V219.9z"/>
			<path class="st9" d="M1321.5,223c0-1.9,1.5-3.2,3.3-3.2c1,0,1.8,0.4,2.3,1l-0.7,0.7c-0.4-0.4-0.9-0.6-1.6-0.6
				c-1.2,0-2.2,0.9-2.2,2.1c0,1.3,1,2.1,2.2,2.1c0.6,0,1.2-0.2,1.6-0.6l0.7,0.7c-0.5,0.6-1.4,1-2.3,1
				C1323,226.1,1321.5,224.9,1321.5,223z"/>
			<path class="st9" d="M1334.4,219.9v6.1h-1.1v-1c-0.4,0.7-1.3,1.1-2.2,1.1c-1.7,0-3.1-1.3-3.1-3.2c0-1.9,1.4-3.2,3.1-3.2
				c0.9,0,1.8,0.4,2.2,1.1v-1H1334.4z M1333.3,222.9c0-1.3-1.1-2.1-2.1-2.1c-1.1,0-2,0.9-2,2.1c0,1.2,0.9,2.1,2,2.1
				C1332.3,225.1,1333.3,224.3,1333.3,222.9z"/>
			<path class="st9" d="M1339.3,220.9h-1.3v5.1h-1.1v-5.1h-1.1v-1h1.1v-2.3h1.1v2.3h1.3V220.9z"/>
			<path class="st9" d="M1340.4,217.7c0-0.4,0.4-0.8,0.8-0.8c0.4,0,0.8,0.3,0.8,0.8c0,0.4-0.4,0.8-0.8,0.8
				C1340.7,218.4,1340.4,218.1,1340.4,217.7z M1340.6,219.9h1.1v6.1h-1.1V219.9z"/>
			<path class="st9" d="M1343.3,222.9c0-1.9,1.5-3.2,3.2-3.2c1.7,0,3.2,1.2,3.2,3.2s-1.5,3.2-3.2,3.2
				C1344.8,226.2,1343.3,224.9,1343.3,222.9z M1348.6,222.9c0-1.3-0.9-2.1-2.1-2.1c-1.1,0-2,0.8-2,2.1c0,1.3,0.9,2.1,2,2.1
				C1347.7,225.1,1348.6,224.2,1348.6,222.9z"/>
			<path class="st9" d="M1357,222.5v3.5h-1.1v-3.5c0-1-0.6-1.6-1.5-1.6c-0.9,0-1.9,0.5-1.9,1.8v3.3h-1.1v-6.1h1.1v0.9
				c0.4-0.7,1.4-1.1,2-1.1C1356.1,219.8,1357,220.8,1357,222.5z"/>
			<path class="st9" d="M1358.5,224.2h1.1c0,0.5,0.5,1,1.2,1c0.8,0,1.2-0.4,1.2-0.9c0-0.5-0.4-0.7-0.8-0.8l-0.8-0.2
				c-1-0.3-1.6-0.8-1.6-1.8c0-1,0.9-1.8,2.1-1.8c1,0,2.1,0.6,2.1,1.8h-1.1c0-0.5-0.5-0.8-1-0.8c-0.6,0-1,0.4-1,0.8
				c0,0.4,0.4,0.6,0.8,0.7l0.9,0.2c1.3,0.3,1.6,1.1,1.6,1.8c0,1.1-1.1,1.8-2.4,1.8C1359.7,226.2,1358.5,225.5,1358.5,224.2z"/>
			<path class="st9" d="M1229.1,240.4c0-1.9,1.5-3.2,3.2-3.2c1.7,0,3.2,1.2,3.2,3.2s-1.5,3.2-3.2,3.2
				C1230.6,243.6,1229.1,242.4,1229.1,240.4z M1234.4,240.4c0-1.3-0.9-2.1-2.1-2.1c-1.1,0-2,0.8-2,2.1c0,1.3,0.9,2.1,2,2.1
				C1233.5,242.5,1234.4,241.7,1234.4,240.4z"/>
			<path class="st9" d="M1242.8,240v3.5h-1.1V240c0-1-0.6-1.6-1.5-1.6s-1.9,0.5-1.9,1.8v3.3h-1.1v-6.1h1.1v0.9
				c0.4-0.7,1.4-1.1,2-1.1C1241.9,237.2,1242.8,238.2,1242.8,240z"/>
			<path class="st9" d="M1247.7,239c0-2.6,2-4.6,4.6-4.6c1.4,0,2.6,0.6,3.4,1.5l-0.9,0.7c-0.6-0.7-1.5-1.2-2.5-1.2
				c-1.9,0-3.4,1.6-3.4,3.5c0,1.9,1.5,3.5,3.4,3.5c1,0,1.9-0.5,2.5-1.2l0.9,0.7c-0.8,0.9-2,1.5-3.4,1.5
				C1249.7,243.6,1247.7,241.6,1247.7,239z"/>
			<path class="st9" d="M1256.7,240.4c0-1.9,1.5-3.2,3.2-3.2c1.7,0,3.2,1.2,3.2,3.2s-1.5,3.2-3.2,3.2
				C1258.1,243.6,1256.7,242.4,1256.7,240.4z M1261.9,240.4c0-1.3-0.9-2.1-2.1-2.1c-1.1,0-2,0.8-2,2.1c0,1.3,0.9,2.1,2,2.1
				C1261,242.5,1261.9,241.7,1261.9,240.4z"/>
			<path class="st9" d="M1270.7,234v9.5h-1.1v-1c-0.4,0.7-1.3,1.1-2.2,1.1c-1.7,0-3.1-1.3-3.1-3.2c0-1.9,1.4-3.2,3.1-3.2
				c0.9,0,1.8,0.4,2.2,1.1V234H1270.7z M1269.6,240.4c0-1.3-1.1-2.1-2.1-2.1c-1.1,0-2,0.9-2,2.1c0,1.2,0.9,2.1,2,2.1
				C1268.6,242.5,1269.6,241.7,1269.6,240.4z"/>
			<path class="st9" d="M1278.5,240.9h-5c0.2,1.1,1,1.6,2,1.6c0.7,0,1.4-0.3,1.8-0.9l1,0.4c-0.5,1.1-1.6,1.6-2.8,1.6
				c-1.7,0-3.1-1.3-3.1-3.2s1.4-3.2,3.1-3.2s3,1.2,3,3.2C1278.5,240.6,1278.5,240.8,1278.5,240.9z M1277.4,239.9
				c-0.1-1-0.9-1.6-1.9-1.6c-1,0-1.8,0.5-2,1.6H1277.4z"/>
		</g>
	</g>
	<g>
		<circle class="st2" cx="1204.9" cy="272.6" r="13.1"/>
		<g>
			<path class="st8" d="M1208.4,275.2v2h-7.2V276l4.2-5c0.4-0.5,0.7-1.1,0.7-1.4c0-0.7-0.6-1.2-1.4-1.2c-0.9,0-1.5,0.6-1.6,1.5
				l-1.9-0.3c0.3-1.9,1.5-3.2,3.6-3.2s3.5,1.3,3.5,3.2c0,1-0.5,1.9-1.2,2.7l-2.5,2.9H1208.4z"/>
		</g>
		<g>
			<path class="st9" d="M1229.2,273.4h1.2c0,0.8,0.8,1.6,2,1.6c1.2,0,1.8-0.7,1.8-1.5c0-0.9-0.8-1.3-1.6-1.5l-1.2-0.3
				c-1.9-0.5-2.2-1.6-2.2-2.3c0-1.6,1.4-2.6,3-2.6c1.6,0,2.9,1,2.9,2.6h-1.2c0-0.9-0.7-1.5-1.7-1.5c-0.9,0-1.7,0.6-1.7,1.4
				c0,0.3,0.1,1,1.3,1.3l1.2,0.3c1.5,0.4,2.4,1.2,2.4,2.5c0,1.4-1.1,2.7-3,2.7C1230.5,276.1,1229.2,274.8,1229.2,273.4z"/>
			<path class="st9" d="M1239.9,270.8h-1.3v5.1h-1.1v-5.1h-1.1v-1h1.1v-2.3h1.1v2.3h1.3V270.8z"/>
			<path class="st9" d="M1246.9,273.4h-5c0.2,1.1,1,1.6,2,1.6c0.7,0,1.4-0.3,1.8-0.9l1,0.4c-0.5,1.1-1.6,1.6-2.8,1.6
				c-1.7,0-3.1-1.3-3.1-3.2c0-1.9,1.4-3.2,3.1-3.2c1.7,0,3,1.2,3,3.2C1246.9,273,1246.9,273.2,1246.9,273.4z M1245.8,272.4
				c-0.1-1-0.9-1.6-1.9-1.6c-1,0-1.8,0.5-2,1.6H1245.8z"/>
			<path class="st9" d="M1254.5,269.8v6.1h-1.1v-1c-0.4,0.7-1.3,1.1-2.2,1.1c-1.7,0-3.1-1.3-3.1-3.2c0-1.9,1.4-3.2,3.1-3.2
				c0.9,0,1.8,0.4,2.2,1.1v-1H1254.5z M1253.4,272.9c0-1.3-1.1-2.1-2.1-2.1c-1.1,0-2,0.9-2,2.1c0,1.2,0.9,2.1,2,2.1
				C1252.4,275,1253.4,274.2,1253.4,272.9z"/>
			<path class="st9" d="M1256.5,266.5h1.1v9.5h-1.1V266.5z"/>
			<path class="st9" d="M1262.6,270.8h-1.3v5.1h-1.1v-5.1h-1.1v-1h1.1v-2.3h1.1v2.3h1.3V270.8z"/>
			<path class="st9" d="M1269.5,272.4v3.5h-1.1v-3.5c0-1-0.6-1.6-1.5-1.6c-0.9,0-1.9,0.5-1.9,1.8v3.3h-1.1v-9.5h1.1v4.3
				c0.4-0.7,1.4-1.1,2-1.1C1268.6,269.7,1269.5,270.7,1269.5,272.4z"/>
			<path class="st9" d="M1284.1,275.9l-0.8-6.9l-2.9,5.9h-1l-2.9-5.9l-0.8,6.9h-1.2l1.1-9h1.1l3.2,6.7l3.2-6.7h1.1l1.1,9H1284.1z"/>
			<path class="st9" d="M1293.1,269.8v6.1h-1.1v-1c-0.4,0.7-1.3,1.1-2.2,1.1c-1.7,0-3.1-1.3-3.1-3.2c0-1.9,1.4-3.2,3.1-3.2
				c0.9,0,1.8,0.4,2.2,1.1v-1H1293.1z M1292,272.9c0-1.3-1.1-2.1-2.1-2.1c-1.1,0-2,0.9-2,2.1c0,1.2,0.9,2.1,2,2.1
				C1291,275,1292,274.2,1292,272.9z"/>
			<path class="st9" d="M1299,269.9l-0.2,1.1c-0.3-0.2-0.7-0.2-0.9-0.2c-1.2,0-1.7,1.3-1.7,2.9v2.2h-1.2v-6.1h1.2v1.4
				c0.3-1.1,0.9-1.5,1.7-1.5C1298.4,269.7,1298.9,269.8,1299,269.9z"/>
			<path class="st9" d="M1304.2,275.9l-2.8-3v3h-1.1v-9.5h1.1v5.5l2.1-2.2h1.6l-2.6,2.6l3.3,3.5H1304.2z"/>
			<path class="st9" d="M1312.1,273.4h-5c0.2,1.1,1,1.6,2,1.6c0.7,0,1.4-0.3,1.8-0.9l1,0.4c-0.5,1.1-1.6,1.6-2.8,1.6
				c-1.7,0-3.1-1.3-3.1-3.2c0-1.9,1.4-3.2,3.1-3.2c1.7,0,3,1.2,3,3.2C1312.2,273,1312.1,273.2,1312.1,273.4z M1311,272.4
				c-0.1-1-0.9-1.6-1.9-1.6c-1,0-1.8,0.5-2,1.6H1311z"/>
			<path class="st9" d="M1316.6,270.8h-1.3v5.1h-1.1v-5.1h-1.1v-1h1.1v-2.3h1.1v2.3h1.3V270.8z"/>
			<path class="st9" d="M1326.9,274.8v1.1h-5.4v-9h5.3v1.1h-4.1v2.9h3.6v1.1h-3.6v2.8H1326.9z"/>
			<path class="st9" d="M1334.2,272.4v3.5h-1.1v-3.5c0-1-0.6-1.6-1.5-1.6s-1.9,0.5-1.9,1.8v3.3h-1.1v-6.1h1.1v0.9
				c0.4-0.7,1.4-1.1,2-1.1C1333.2,269.7,1334.2,270.7,1334.2,272.4z"/>
			<path class="st9" d="M1338.9,270.8h-1.3v5.1h-1.1v-5.1h-1.1v-1h1.1v-2.3h1.1v2.3h1.3V270.8z"/>
			<path class="st9" d="M1344.1,269.9l-0.2,1.1c-0.3-0.2-0.7-0.2-0.9-0.2c-1.2,0-1.7,1.3-1.7,2.9v2.2h-1.2v-6.1h1.2v1.4
				c0.3-1.1,0.9-1.5,1.7-1.5C1343.5,269.7,1343.9,269.8,1344.1,269.9z"/>
			<path class="st9" d="M1351.1,269.8l-3.8,9.1h-1.2l1.3-3.1l-2.4-5.9h1.2l1.8,4.5l1.9-4.5H1351.1z"/>
			<path class="st9" d="M1364.6,269.8l-2.3,6.1h-1l-1.7-4.5l-1.6,4.5h-0.9l-2.3-6.1h1.2l1.6,4.3l1.6-4.3h1.1l1.6,4.3l1.6-4.3H1364.6
				z"/>
			<path class="st9" d="M1365.7,267.6c0-0.4,0.4-0.8,0.8-0.8c0.4,0,0.8,0.3,0.8,0.8c0,0.4-0.4,0.8-0.8,0.8
				C1366,268.3,1365.7,268,1365.7,267.6z M1365.9,269.8h1.1v6.1h-1.1V269.8z"/>
			<path class="st9" d="M1371.9,270.8h-1.3v5.1h-1.1v-5.1h-1.1v-1h1.1v-2.3h1.1v2.3h1.3V270.8z"/>
			<path class="st9" d="M1378.9,272.4v3.5h-1.1v-3.5c0-1-0.6-1.6-1.5-1.6s-1.9,0.5-1.9,1.8v3.3h-1.1v-9.5h1.1v4.3
				c0.4-0.7,1.4-1.1,2-1.1C1377.9,269.7,1378.9,270.7,1378.9,272.4z"/>
			<path class="st9" d="M1229.2,288.9c0-2.6,2-4.6,4.6-4.6c1.2,0,2.3,0.5,3,1.2l-0.8,0.8c-0.6-0.5-1.4-0.9-2.2-0.9
				c-1.9,0-3.4,1.6-3.4,3.5c0,1.9,1.5,3.5,3.4,3.5c1.6,0,2.7-0.9,2.9-2.3c0-0.1,0-0.1,0-0.2h-2.6v-1h3.9c0,3.2-1.7,4.6-4.3,4.6
				C1231.2,293.5,1229.2,291.5,1229.2,288.9z"/>
			<path class="st9" d="M1245.6,287.3v6.1h-1.1v-1c-0.4,0.7-1.3,1.1-2.2,1.1c-1.7,0-3.1-1.3-3.1-3.2c0-1.9,1.4-3.2,3.1-3.2
				c0.9,0,1.8,0.4,2.2,1.1v-1H1245.6z M1244.5,290.3c0-1.3-1.1-2.1-2.1-2.1c-1.1,0-2,0.9-2,2.1c0,1.2,0.9,2.1,2,2.1
				C1243.5,292.5,1244.5,291.6,1244.5,290.3z"/>
			<path class="st9" d="M1257.3,289.9v3.5h-1.1v-3.5c0-1-0.6-1.7-1.5-1.7c-1.1,0-1.7,0.9-1.6,2.1l0-0.1v3.1h-1.1v-3.5
				c0-1-0.6-1.7-1.4-1.7c-0.9,0-1.7,0.5-1.7,1.8v3.3h-1.1v-6.1h1.1v0.9c0.3-0.7,1.1-1.1,2-1.1c0.9,0,1.7,0.5,2,1.3
				c0.6-1.1,1.5-1.3,2.1-1.3C1256.4,287.2,1257.3,288.2,1257.3,289.9z"/>
			<path class="st9" d="M1268.8,289.9v3.5h-1.1v-3.5c0-1-0.6-1.7-1.5-1.7c-1.1,0-1.7,0.9-1.6,2.1l0-0.1v3.1h-1.1v-3.5
				c0-1-0.6-1.7-1.4-1.7c-0.9,0-1.7,0.5-1.7,1.8v3.3h-1.1v-6.1h1.1v0.9c0.3-0.7,1.1-1.1,2-1.1c0.9,0,1.7,0.5,2,1.3
				c0.6-1.1,1.5-1.3,2.1-1.3C1268,287.2,1268.8,288.2,1268.8,289.9z"/>
			<path class="st9" d="M1276.8,287.3v6.1h-1.1v-1c-0.4,0.7-1.3,1.1-2.2,1.1c-1.7,0-3.1-1.3-3.1-3.2c0-1.9,1.4-3.2,3.1-3.2
				c0.9,0,1.8,0.4,2.2,1.1v-1H1276.8z M1275.6,290.3c0-1.3-1.1-2.1-2.1-2.1c-1.1,0-2,0.9-2,2.1c0,1.2,0.9,2.1,2,2.1
				C1274.7,292.5,1275.6,291.6,1275.6,290.3z"/>
			<path class="st9" d="M1288.1,287.3v6.1h-1.1v-1c-0.4,0.7-1.3,1.1-2.2,1.1c-1.7,0-3.1-1.3-3.1-3.2c0-1.9,1.4-3.2,3.1-3.2
				c0.9,0,1.8,0.4,2.2,1.1v-1H1288.1z M1286.9,290.3c0-1.3-1.1-2.1-2.1-2.1c-1.1,0-2,0.9-2,2.1c0,1.2,0.9,2.1,2,2.1
				C1285.9,292.5,1286.9,291.6,1286.9,290.3z"/>
			<path class="st9" d="M1295.7,289.9v3.5h-1.1v-3.5c0-1-0.6-1.6-1.5-1.6c-0.9,0-1.9,0.5-1.9,1.8v3.3h-1.1v-6.1h1.1v0.9
				c0.4-0.7,1.4-1.1,2-1.1C1294.8,287.2,1295.7,288.2,1295.7,289.9z"/>
			<path class="st9" d="M1303.6,284v9.5h-1.1v-1c-0.4,0.7-1.3,1.1-2.2,1.1c-1.7,0-3.1-1.3-3.1-3.2c0-1.9,1.4-3.2,3.1-3.2
				c0.9,0,1.8,0.4,2.2,1.1V284H1303.6z M1302.5,290.3c0-1.3-1.1-2.1-2.1-2.1c-1.1,0-2,0.9-2,2.1c0,1.2,0.9,2.1,2,2.1
				C1301.5,292.5,1302.5,291.6,1302.5,290.3z"/>
			<path class="st9" d="M1314.5,293.4h-1.1v-5.1h-2.8v5.1h-1.1v-5.1h-1.2v-1h1.2v-0.6c0-1.6,0.7-2.7,2.3-2.7h0.5v1.1h-0.3
				c-1.1,0-1.4,0.7-1.4,1.5v0.8h3.9V293.4z M1314.7,285c0,0.4-0.4,0.8-0.8,0.8c-0.4,0-0.8-0.3-0.8-0.8s0.4-0.8,0.8-0.8
				C1314.4,284.3,1314.7,284.6,1314.7,285z"/>
			<path class="st9" d="M1322.1,289.9v3.5h-1.1v-3.5c0-1-0.6-1.6-1.5-1.6c-0.9,0-1.9,0.5-1.9,1.8v3.3h-1.1v-6.1h1.1v0.9
				c0.4-0.7,1.4-1.1,2-1.1C1321.2,287.2,1322.1,288.2,1322.1,289.9z"/>
			<path class="st9" d="M1330,287.3v6.1h-1.1v-1c-0.4,0.7-1.3,1.1-2.2,1.1c-1.7,0-3.1-1.3-3.1-3.2c0-1.9,1.4-3.2,3.1-3.2
				c0.9,0,1.8,0.4,2.2,1.1v-1H1330z M1328.9,290.3c0-1.3-1.1-2.1-2.1-2.1c-1.1,0-2,0.9-2,2.1c0,1.2,0.9,2.1,2,2.1
				C1327.9,292.5,1328.9,291.6,1328.9,290.3z"/>
			<path class="st9" d="M1332,284h1.1v9.5h-1.1V284z"/>
			<path class="st9" d="M1341.4,288.3h-1.3v5.1h-1.1v-5.1h-1.1v-1h1.1V285h1.1v2.3h1.3V288.3z"/>
			<path class="st9" d="M1342.2,290.3c0-1.9,1.5-3.2,3.2-3.2s3.2,1.2,3.2,3.2c0,1.9-1.5,3.2-3.2,3.2S1342.2,292.3,1342.2,290.3z
				 M1347.5,290.3c0-1.3-0.9-2.1-2.1-2.1c-1.1,0-2,0.8-2,2.1c0,1.3,0.9,2.1,2,2.1C1346.5,292.5,1347.5,291.6,1347.5,290.3z"/>
			<path class="st9" d="M1355.8,287.3v6.1h-1.1v-1c-0.4,0.8-1.3,1.1-2,1.1c-1.5,0-2.5-1-2.5-2.7v-3.5h1.1v3.5c0,1,0.6,1.6,1.5,1.6
				s1.9-0.5,1.9-1.8v-3.3H1355.8z"/>
			<path class="st9" d="M1357.4,290.3c0-1.9,1.5-3.2,3.3-3.2c1,0,1.8,0.4,2.3,1l-0.7,0.7c-0.4-0.4-0.9-0.6-1.6-0.6
				c-1.2,0-2.2,0.9-2.2,2.1c0,1.3,1,2.1,2.2,2.1c0.6,0,1.2-0.2,1.6-0.6l0.7,0.7c-0.5,0.6-1.4,1-2.3,1
				C1358.9,293.5,1357.4,292.3,1357.4,290.3z"/>
			<path class="st9" d="M1370.1,289.9v3.5h-1.1v-3.5c0-1-0.6-1.6-1.5-1.6c-0.9,0-1.9,0.5-1.9,1.8v3.3h-1.1V284h1.1v4.3
				c0.4-0.7,1.4-1.1,2-1.1C1369.1,287.2,1370.1,288.2,1370.1,289.9z"/>
			<path class="st9" d="M1377.7,290.8h-5c0.2,1.1,1,1.6,2,1.6c0.7,0,1.4-0.3,1.8-0.9l1,0.4c-0.5,1.1-1.6,1.6-2.8,1.6
				c-1.7,0-3.1-1.3-3.1-3.2c0-1.9,1.4-3.2,3.1-3.2s3,1.2,3,3.2C1377.8,290.5,1377.8,290.7,1377.7,290.8z M1376.6,289.9
				c-0.1-1-0.9-1.6-1.9-1.6c-1,0-1.8,0.5-2,1.6H1376.6z"/>
			<path class="st9" d="M1378.9,291.6h1.1c0,0.5,0.5,1,1.2,1c0.8,0,1.2-0.4,1.2-0.9c0-0.5-0.4-0.7-0.8-0.8l-0.8-0.2
				c-1-0.3-1.6-0.8-1.6-1.8c0-1,0.9-1.8,2.1-1.8c1,0,2.1,0.6,2.1,1.8h-1.1c0-0.5-0.5-0.8-1-0.8c-0.6,0-1,0.4-1,0.8
				c0,0.4,0.4,0.6,0.8,0.7l0.9,0.2c1.3,0.3,1.6,1.1,1.6,1.8c0,1.1-1.1,1.8-2.4,1.8C1380.1,293.5,1379,292.8,1378.9,291.6z"/>
			<path class="st9" d="M1232.5,305.7h-1.3v5.1h-1.1v-5.1h-1.1v-1h1.1v-2.3h1.1v2.3h1.3V305.7z"/>
			<path class="st9" d="M1233.3,307.8c0-1.9,1.5-3.2,3.2-3.2c1.7,0,3.2,1.2,3.2,3.2c0,1.9-1.5,3.2-3.2,3.2
				C1234.7,311,1233.3,309.7,1233.3,307.8z M1238.6,307.8c0-1.3-0.9-2.1-2.1-2.1c-1.1,0-2,0.8-2,2.1c0,1.3,0.9,2.1,2,2.1
				C1237.6,309.9,1238.6,309.1,1238.6,307.8z"/>
			<path class="st9" d="M1244.2,307.8c0-1.9,1.5-3.2,3.2-3.2c1.7,0,3.2,1.2,3.2,3.2c0,1.9-1.5,3.2-3.2,3.2
				C1245.6,311,1244.2,309.7,1244.2,307.8z M1249.4,307.8c0-1.3-0.9-2.1-2.1-2.1c-1.1,0-2,0.8-2,2.1c0,1.3,0.9,2.1,2,2.1
				C1248.5,309.9,1249.4,309.1,1249.4,307.8z"/>
			<path class="st9" d="M1257.7,304.8v6.1h-1.1v-1c-0.4,0.8-1.3,1.1-2,1.1c-1.5,0-2.5-1-2.5-2.7v-3.5h1.1v3.5c0,1,0.6,1.6,1.5,1.6
				s1.9-0.5,1.9-1.8v-3.3H1257.7z"/>
			<path class="st9" d="M1263.7,304.9l-0.2,1.1c-0.3-0.2-0.7-0.2-0.9-0.2c-1.2,0-1.7,1.3-1.7,2.9v2.2h-1.2v-6.1h1.2v1.4
				c0.3-1.1,0.9-1.5,1.7-1.5C1263.1,304.6,1263.5,304.7,1263.7,304.9z"/>
			<path class="st9" d="M1272.1,304.9l-0.2,1.1c-0.3-0.2-0.7-0.2-0.9-0.2c-1.2,0-1.7,1.3-1.7,2.9v2.2h-1.2v-6.1h1.2v1.4
				c0.3-1.1,0.9-1.5,1.7-1.5C1271.4,304.6,1271.9,304.7,1272.1,304.9z"/>
			<path class="st9" d="M1279,308.3h-5c0.2,1.1,1,1.6,2,1.6c0.7,0,1.4-0.3,1.8-0.9l1,0.4c-0.5,1.1-1.6,1.6-2.8,1.6
				c-1.7,0-3.1-1.3-3.1-3.2c0-1.9,1.4-3.2,3.1-3.2c1.7,0,3,1.2,3,3.2C1279,308,1279,308.1,1279,308.3z M1277.8,307.3
				c-0.1-1-0.9-1.6-1.9-1.6c-1,0-1.8,0.5-2,1.6H1277.8z"/>
			<path class="st9" d="M1280.2,307.8c0-1.9,1.5-3.2,3.3-3.2c1,0,1.8,0.4,2.3,1l-0.7,0.7c-0.4-0.4-0.9-0.6-1.6-0.6
				c-1.2,0-2.2,0.9-2.2,2.1c0,1.3,1,2.1,2.2,2.1c0.6,0,1.2-0.2,1.6-0.6l0.7,0.7c-0.5,0.6-1.4,1-2.3,1
				C1281.7,311,1280.2,309.7,1280.2,307.8z"/>
			<path class="st9" d="M1286.7,307.8c0-1.9,1.5-3.2,3.2-3.2c1.7,0,3.2,1.2,3.2,3.2c0,1.9-1.5,3.2-3.2,3.2
				C1288.2,311,1286.7,309.7,1286.7,307.8z M1292,307.8c0-1.3-0.9-2.1-2.1-2.1c-1.1,0-2,0.8-2,2.1c0,1.3,0.9,2.1,2,2.1
				C1291.1,309.9,1292,309.1,1292,307.8z"/>
			<path class="st9" d="M1304.4,307.3v3.5h-1.1v-3.5c0-1-0.6-1.7-1.5-1.7c-1.1,0-1.7,0.9-1.6,2.1l0-0.1v3.1h-1.1v-3.5
				c0-1-0.6-1.7-1.4-1.7c-0.9,0-1.7,0.5-1.7,1.8v3.3h-1.1v-6.1h1.1v0.9c0.3-0.7,1.1-1.1,2-1.1c0.9,0,1.7,0.5,2,1.3
				c0.6-1.1,1.5-1.3,2.1-1.3C1303.6,304.6,1304.4,305.6,1304.4,307.3z"/>
			<path class="st9" d="M1316,307.3v3.5h-1.1v-3.5c0-1-0.6-1.7-1.5-1.7c-1.1,0-1.7,0.9-1.6,2.1l0-0.1v3.1h-1.1v-3.5
				c0-1-0.6-1.7-1.4-1.7c-0.9,0-1.7,0.5-1.7,1.8v3.3h-1.1v-6.1h1.1v0.9c0.3-0.7,1.1-1.1,2-1.1c0.9,0,1.7,0.5,2,1.3
				c0.6-1.1,1.5-1.3,2.1-1.3C1315.2,304.6,1316,305.6,1316,307.3z"/>
			<path class="st9" d="M1323.7,308.3h-5c0.2,1.1,1,1.6,2,1.6c0.7,0,1.4-0.3,1.8-0.9l1,0.4c-0.5,1.1-1.6,1.6-2.8,1.6
				c-1.7,0-3.1-1.3-3.1-3.2c0-1.9,1.4-3.2,3.1-3.2s3,1.2,3,3.2C1323.7,308,1323.7,308.1,1323.7,308.3z M1322.6,307.3
				c-0.1-1-0.9-1.6-1.9-1.6c-1,0-1.8,0.5-2,1.6H1322.6z"/>
			<path class="st9" d="M1331,307.3v3.5h-1.1v-3.5c0-1-0.6-1.6-1.5-1.6s-1.9,0.5-1.9,1.8v3.3h-1.1v-6.1h1.1v0.9
				c0.4-0.7,1.4-1.1,2-1.1C1330,304.6,1331,305.6,1331,307.3z"/>
			<path class="st9" d="M1338.9,301.4v9.5h-1.1v-1c-0.4,0.7-1.3,1.1-2.2,1.1c-1.7,0-3.1-1.3-3.1-3.2c0-1.9,1.4-3.2,3.1-3.2
				c0.9,0,1.8,0.4,2.2,1.1v-4.3H1338.9z M1337.7,307.8c0-1.3-1.1-2.1-2.1-2.1c-1.1,0-2,0.9-2,2.1c0,1.2,0.9,2.1,2,2.1
				C1336.8,309.9,1337.7,309.1,1337.7,307.8z"/>
			<path class="st9" d="M1346.9,304.8v6.1h-1.1v-1c-0.4,0.7-1.3,1.1-2.2,1.1c-1.7,0-3.1-1.3-3.1-3.2c0-1.9,1.4-3.2,3.1-3.2
				c0.9,0,1.8,0.4,2.2,1.1v-1H1346.9z M1345.8,307.8c0-1.3-1.1-2.1-2.1-2.1c-1.1,0-2,0.9-2,2.1c0,1.2,0.9,2.1,2,2.1
				C1344.8,309.9,1345.8,309.1,1345.8,307.8z"/>
			<path class="st9" d="M1351.8,305.7h-1.3v5.1h-1.1v-5.1h-1.1v-1h1.1v-2.3h1.1v2.3h1.3V305.7z"/>
			<path class="st9" d="M1352.9,302.5c0-0.4,0.4-0.8,0.8-0.8c0.4,0,0.8,0.3,0.8,0.8s-0.4,0.8-0.8,0.8
				C1353.2,303.3,1352.9,302.9,1352.9,302.5z M1353.1,304.8h1.1v6.1h-1.1V304.8z"/>
			<path class="st9" d="M1355.8,307.8c0-1.9,1.5-3.2,3.2-3.2c1.7,0,3.2,1.2,3.2,3.2c0,1.9-1.5,3.2-3.2,3.2
				C1357.3,311,1355.8,309.7,1355.8,307.8z M1361.1,307.8c0-1.3-0.9-2.1-2.1-2.1c-1.1,0-2,0.8-2,2.1c0,1.3,0.9,2.1,2,2.1
				C1360.2,309.9,1361.1,309.1,1361.1,307.8z"/>
			<path class="st9" d="M1369.5,307.3v3.5h-1.1v-3.5c0-1-0.6-1.6-1.5-1.6c-0.9,0-1.9,0.5-1.9,1.8v3.3h-1.1v-6.1h1.1v0.9
				c0.4-0.7,1.4-1.1,2-1.1C1368.6,304.6,1369.5,305.6,1369.5,307.3z"/>
			<path class="st9" d="M1380.5,308.3h-5c0.2,1.1,1,1.6,2,1.6c0.7,0,1.4-0.3,1.8-0.9l1,0.4c-0.5,1.1-1.6,1.6-2.8,1.6
				c-1.7,0-3.1-1.3-3.1-3.2c0-1.9,1.4-3.2,3.1-3.2c1.7,0,3,1.2,3,3.2C1380.5,308,1380.5,308.1,1380.5,308.3z M1379.3,307.3
				c-0.1-1-0.9-1.6-1.9-1.6c-1,0-1.8,0.5-2,1.6H1379.3z"/>
			<path class="st9" d="M1387.7,307.3v3.5h-1.1v-3.5c0-1-0.6-1.6-1.5-1.6s-1.9,0.5-1.9,1.8v3.3h-1.1v-6.1h1.1v0.9
				c0.4-0.7,1.4-1.1,2-1.1C1386.8,304.6,1387.7,305.6,1387.7,307.3z"/>
			<path class="st9" d="M1395.6,304.8v5.2c0,2.9-1.3,4-3.3,4c-1.1,0-2.1-0.6-2.7-1.6l1-0.5c0.4,0.7,1.1,1.1,1.8,1.1
				c1.3,0,2.2-0.8,2.2-2.8v-0.1c-0.4,0.7-1.3,1.1-2.2,1.1c-1.7,0-3.1-1.3-3.1-3.2c0-1.9,1.4-3.2,3.1-3.2c0.9,0,1.8,0.4,2.2,1.1v-1
				H1395.6z M1394.5,307.8c0-1.3-1.1-2.1-2.1-2.1c-1.1,0-2,0.9-2,2.1c0,1.2,0.9,2.1,2,2.1C1393.5,309.9,1394.5,309.1,1394.5,307.8z"
				/>
			<path class="st9" d="M1397.4,302.5c0-0.4,0.4-0.8,0.8-0.8c0.4,0,0.8,0.3,0.8,0.8s-0.4,0.8-0.8,0.8
				C1397.8,303.3,1397.4,302.9,1397.4,302.5z M1397.7,304.8h1.1v6.1h-1.1V304.8z"/>
			<path class="st9" d="M1406.4,307.3v3.5h-1.1v-3.5c0-1-0.6-1.6-1.5-1.6s-1.9,0.5-1.9,1.8v3.3h-1.1v-6.1h1.1v0.9
				c0.4-0.7,1.4-1.1,2-1.1C1405.5,304.6,1406.4,305.6,1406.4,307.3z"/>
			<path class="st9" d="M1414.1,308.3h-5c0.2,1.1,1,1.6,2,1.6c0.7,0,1.4-0.3,1.8-0.9l1,0.4c-0.5,1.1-1.6,1.6-2.8,1.6
				c-1.7,0-3.1-1.3-3.1-3.2c0-1.9,1.4-3.2,3.1-3.2c1.7,0,3,1.2,3,3.2C1414.1,308,1414.1,308.1,1414.1,308.3z M1413,307.3
				c-0.1-1-0.9-1.6-1.9-1.6c-1,0-1.8,0.5-2,1.6H1413z"/>
		</g>
	</g>
	<g>
		<circle class="st2" cx="1204.9" cy="340" r="13.1"/>
		<g>
			<path class="st8" d="M1208.4,341.5c0,1.9-1.6,3.2-3.9,3.2c-1.5,0-2.7-0.6-3.5-1.9l1.5-1.2c0.5,0.7,1.1,1.1,1.9,1.1
				c1.1,0,1.8-0.6,1.8-1.4c0-0.9-0.7-1.5-1.8-1.5h-1v-1.6h0.6c1.2,0,1.8-0.6,1.8-1.4c0-0.6-0.6-1.1-1.4-1.1c-0.7,0-1.4,0.3-1.8,0.9
				l-1.2-1.3c0.7-0.9,1.8-1.5,3.2-1.5c1.9,0,3.3,1.1,3.3,2.9c0,0.9-0.5,1.7-1.4,2.1C1207.7,339.3,1208.4,340.2,1208.4,341.5z"/>
		</g>
		<g>
			<path class="st9" d="M1229.8,334.3h1.2v7.9h3.7v1.1h-4.9V334.3z"/>
			<path class="st9" d="M1242,337.2v6.1h-1.1v-1c-0.4,0.7-1.3,1.1-2.2,1.1c-1.7,0-3.1-1.3-3.1-3.2c0-1.9,1.4-3.2,3.1-3.2
				c0.9,0,1.8,0.4,2.2,1.1v-1H1242z M1240.8,340.2c0-1.3-1.1-2.1-2.1-2.1c-1.1,0-2,0.9-2,2.1c0,1.2,0.9,2.1,2,2.1
				C1239.8,342.4,1240.8,341.6,1240.8,340.2z"/>
			<path class="st9" d="M1249.5,337.2v6.1h-1.1v-1c-0.4,0.8-1.3,1.1-2,1.1c-1.5,0-2.5-1-2.5-2.7v-3.5h1.1v3.5c0,1,0.6,1.6,1.5,1.6
				c0.9,0,1.9-0.5,1.9-1.8v-3.3H1249.5z"/>
			<path class="st9" d="M1257.2,339.8v3.5h-1.1v-3.5c0-1-0.6-1.6-1.5-1.6c-0.9,0-1.9,0.5-1.9,1.8v3.3h-1.1v-6.1h1.1v0.9
				c0.4-0.7,1.4-1.1,2-1.1C1256.2,337.1,1257.2,338.1,1257.2,339.8z"/>
			<path class="st9" d="M1258.7,340.3c0-1.9,1.5-3.2,3.3-3.2c1,0,1.8,0.4,2.3,1l-0.7,0.7c-0.4-0.4-0.9-0.6-1.6-0.6
				c-1.2,0-2.2,0.9-2.2,2.1c0,1.3,1,2.1,2.2,2.1c0.6,0,1.2-0.2,1.6-0.6l0.7,0.7c-0.5,0.6-1.4,1-2.3,1
				C1260.2,343.4,1258.7,342.2,1258.7,340.3z"/>
			<path class="st9" d="M1271.3,339.8v3.5h-1.1v-3.5c0-1-0.6-1.6-1.5-1.6c-0.9,0-1.9,0.5-1.9,1.8v3.3h-1.1v-9.5h1.1v4.3
				c0.4-0.7,1.4-1.1,2-1.1C1270.4,337.1,1271.4,338.1,1271.3,339.8z"/>
			<path class="st9" d="M1276.1,340.2c0-1.9,1.5-3.2,3.2-3.2c1.7,0,3.2,1.2,3.2,3.2c0,1.9-1.5,3.2-3.2,3.2
				C1277.6,343.5,1276.1,342.2,1276.1,340.2z M1281.4,340.2c0-1.3-0.9-2.1-2.1-2.1c-1.1,0-2,0.8-2,2.1c0,1.3,0.9,2.1,2,2.1
				C1280.5,342.4,1281.4,341.5,1281.4,340.2z"/>
			<path class="st9" d="M1288.1,337.3l-0.2,1.1c-0.3-0.2-0.7-0.2-0.9-0.2c-1.2,0-1.7,1.3-1.7,2.9v2.2h-1.2v-6.1h1.2v1.4
				c0.3-1.1,0.9-1.5,1.7-1.5C1287.5,337.1,1287.9,337.2,1288.1,337.3z"/>
			<path class="st9" d="M1292.1,340.2c0-1.9,1.5-3.2,3.2-3.2s3.2,1.2,3.2,3.2c0,1.9-1.5,3.2-3.2,3.2S1292.1,342.2,1292.1,340.2z
				 M1297.4,340.2c0-1.3-0.9-2.1-2.1-2.1c-1.1,0-2,0.8-2,2.1c0,1.3,0.9,2.1,2,2.1C1296.5,342.4,1297.4,341.5,1297.4,340.2z"/>
			<path class="st9" d="M1305.7,337.2v6.1h-1.1v-1c-0.4,0.8-1.3,1.1-2,1.1c-1.5,0-2.5-1-2.5-2.7v-3.5h1.1v3.5c0,1,0.6,1.6,1.5,1.6
				s1.9-0.5,1.9-1.8v-3.3H1305.7z"/>
			<path class="st9" d="M1311.7,337.3l-0.2,1.1c-0.3-0.2-0.7-0.2-0.9-0.2c-1.2,0-1.7,1.3-1.7,2.9v2.2h-1.2v-6.1h1.2v1.4
				c0.3-1.1,0.9-1.5,1.7-1.5C1311,337.1,1311.5,337.2,1311.7,337.3z"/>
			<path class="st9" d="M1315.7,340.3c0-1.9,1.5-3.2,3.3-3.2c1,0,1.8,0.4,2.3,1l-0.7,0.7c-0.4-0.4-0.9-0.6-1.6-0.6
				c-1.2,0-2.2,0.9-2.2,2.1c0,1.3,1,2.1,2.2,2.1c0.6,0,1.2-0.2,1.6-0.6l0.7,0.7c-0.5,0.6-1.4,1-2.3,1
				C1317.2,343.4,1315.7,342.2,1315.7,340.3z"/>
			<path class="st9" d="M1322.2,340.2c0-1.9,1.5-3.2,3.2-3.2c1.7,0,3.2,1.2,3.2,3.2c0,1.9-1.5,3.2-3.2,3.2
				C1323.7,343.5,1322.2,342.2,1322.2,340.2z M1327.5,340.2c0-1.3-0.9-2.1-2.1-2.1c-1.1,0-2,0.8-2,2.1c0,1.3,0.9,2.1,2,2.1
				C1326.5,342.4,1327.5,341.5,1327.5,340.2z"/>
			<path class="st9" d="M1339.9,339.8v3.5h-1.1v-3.5c0-1-0.6-1.7-1.5-1.7c-1.1,0-1.7,0.9-1.6,2.1l0-0.1v3.1h-1.1v-3.5
				c0-1-0.6-1.7-1.4-1.7c-0.9,0-1.7,0.5-1.7,1.8v3.3h-1.1v-6.1h1.1v0.9c0.3-0.7,1.1-1.1,2-1.1c0.9,0,1.7,0.5,2,1.3
				c0.6-1.1,1.5-1.3,2.1-1.3C1339,337.1,1339.9,338.1,1339.9,339.8z"/>
			<path class="st9" d="M1351.5,339.8v3.5h-1.1v-3.5c0-1-0.6-1.7-1.5-1.7c-1.1,0-1.7,0.9-1.6,2.1l0-0.1v3.1h-1.1v-3.5
				c0-1-0.6-1.7-1.4-1.7c-0.9,0-1.7,0.5-1.7,1.8v3.3h-1.1v-6.1h1.1v0.9c0.3-0.7,1.1-1.1,2-1.1c0.9,0,1.7,0.5,2,1.3
				c0.6-1.1,1.5-1.3,2.1-1.3C1350.6,337.1,1351.5,338.1,1351.5,339.8z"/>
			<path class="st9" d="M1359.2,340.8h-5c0.2,1.1,1,1.6,2,1.6c0.7,0,1.4-0.3,1.8-0.9l1,0.4c-0.5,1.1-1.6,1.6-2.8,1.6
				c-1.7,0-3.1-1.3-3.1-3.2c0-1.9,1.4-3.2,3.1-3.2s3,1.2,3,3.2C1359.2,340.4,1359.2,340.6,1359.2,340.8z M1358.1,339.8
				c-0.1-1-0.9-1.6-1.9-1.6c-1,0-1.8,0.5-2,1.6H1358.1z"/>
			<path class="st9" d="M1364.8,337.3l-0.2,1.1c-0.3-0.2-0.7-0.2-0.9-0.2c-1.2,0-1.7,1.3-1.7,2.9v2.2h-1.2v-6.1h1.2v1.4
				c0.3-1.1,0.9-1.5,1.7-1.5C1364.1,337.1,1364.6,337.2,1364.8,337.3z"/>
			<path class="st9" d="M1365.5,340.3c0-1.9,1.5-3.2,3.3-3.2c1,0,1.8,0.4,2.3,1l-0.7,0.7c-0.4-0.4-0.9-0.6-1.6-0.6
				c-1.2,0-2.2,0.9-2.2,2.1c0,1.3,1,2.1,2.2,2.1c0.6,0,1.2-0.2,1.6-0.6l0.7,0.7c-0.5,0.6-1.4,1-2.3,1
				C1367,343.4,1365.5,342.2,1365.5,340.3z"/>
			<path class="st9" d="M1372.3,335c0-0.4,0.4-0.8,0.8-0.8c0.4,0,0.8,0.3,0.8,0.8c0,0.4-0.4,0.8-0.8,0.8
				C1372.6,335.7,1372.3,335.4,1372.3,335z M1372.5,337.2h1.1v6.1h-1.1V337.2z"/>
			<path class="st9" d="M1381.6,337.2v6.1h-1.1v-1c-0.4,0.7-1.3,1.1-2.2,1.1c-1.7,0-3.1-1.3-3.1-3.2c0-1.9,1.4-3.2,3.1-3.2
				c0.9,0,1.8,0.4,2.2,1.1v-1H1381.6z M1380.5,340.2c0-1.3-1.1-2.1-2.1-2.1c-1.1,0-2,0.9-2,2.1c0,1.2,0.9,2.1,2,2.1
				C1379.5,342.4,1380.5,341.6,1380.5,340.2z"/>
			<path class="st9" d="M1383.6,333.9h1.1v9.5h-1.1V333.9z"/>
			<path class="st9" d="M1234.6,358.5h-3.9l-0.9,2.3h-1.2l3.4-9h1.3l3.4,9h-1.2L1234.6,358.5z M1234.2,357.4l-1.5-4.1l-1.5,4.1
				H1234.2z"/>
			<path class="st9" d="M1238.1,351.8h1.2v9h-1.2V351.8z"/>
			<path class="st9" d="M1250.8,354.7v6.1h-1.1v-1c-0.4,0.7-1.3,1.1-2.2,1.1c-1.7,0-3.1-1.3-3.1-3.2c0-1.9,1.4-3.2,3.1-3.2
				c0.9,0,1.8,0.4,2.2,1.1v-1H1250.8z M1249.6,357.7c0-1.3-1.1-2.1-2.1-2.1c-1.1,0-2,0.9-2,2.1c0,1.2,0.9,2.1,2,2.1
				C1248.7,359.8,1249.6,359,1249.6,357.7z"/>
			<path class="st9" d="M1258.4,357.3v3.5h-1.1v-3.5c0-1-0.6-1.6-1.5-1.6s-1.9,0.5-1.9,1.8v3.3h-1.1v-6.1h1.1v0.9
				c0.4-0.7,1.4-1.1,2-1.1C1257.5,354.5,1258.4,355.5,1258.4,357.3z"/>
			<path class="st9" d="M1266.3,351.3v9.5h-1.1v-1c-0.4,0.7-1.3,1.1-2.2,1.1c-1.7,0-3.1-1.3-3.1-3.2c0-1.9,1.4-3.2,3.1-3.2
				c0.9,0,1.8,0.4,2.2,1.1v-4.3H1266.3z M1265.2,357.7c0-1.3-1.1-2.1-2.1-2.1c-1.1,0-2,0.9-2,2.1c0,1.2,0.9,2.1,2,2.1
				C1264.2,359.8,1265.2,359,1265.2,357.7z"/>
			<path class="st9" d="M1274.3,357.4h-1.2v3.4h-1.2v-9h3.4c2,0,2.7,1.4,2.7,2.8c0,1.3-0.7,2.6-2.4,2.8l2.4,3.4h-1.4L1274.3,357.4z
				 M1273.1,356.3h1.9c1.3,0,1.8-0.7,1.8-1.7c0-1-0.6-1.7-1.5-1.7h-2.2V356.3z"/>
			<path class="st9" d="M1285.4,358.2h-5c0.2,1.1,1,1.6,2,1.6c0.7,0,1.4-0.3,1.8-0.9l1,0.4c-0.5,1.1-1.6,1.6-2.8,1.6
				c-1.7,0-3.1-1.3-3.1-3.2c0-1.9,1.4-3.2,3.1-3.2c1.7,0,3,1.2,3,3.2C1285.4,357.9,1285.4,358.1,1285.4,358.2z M1284.3,357.2
				c-0.1-1-0.9-1.6-1.9-1.6c-1,0-1.8,0.5-2,1.6H1284.3z"/>
			<path class="st9" d="M1293.4,357.7c0,1.9-1.4,3.2-3.1,3.2c-0.9,0-1.8-0.4-2.2-1.1v1h-1.1v-9.5h1.1v4.3c0.4-0.7,1.3-1.1,2.2-1.1
				C1292,354.5,1293.4,355.8,1293.4,357.7z M1292.3,357.7c0-1.2-0.9-2.1-2-2.1c-1,0-2.1,0.8-2.1,2.1c0,1.3,1,2.1,2.1,2.1
				C1291.4,359.8,1292.3,358.9,1292.3,357.7z"/>
			<path class="st9" d="M1299,354.8l-0.2,1.1c-0.3-0.2-0.7-0.2-0.9-0.2c-1.2,0-1.7,1.3-1.7,2.9v2.2h-1.2v-6.1h1.2v1.4
				c0.3-1.1,0.9-1.5,1.7-1.5C1298.3,354.5,1298.8,354.7,1299,354.8z"/>
			<path class="st9" d="M1306.1,354.7v6.1h-1.1v-1c-0.4,0.7-1.3,1.1-2.2,1.1c-1.7,0-3.1-1.3-3.1-3.2c0-1.9,1.4-3.2,3.1-3.2
				c0.9,0,1.8,0.4,2.2,1.1v-1H1306.1z M1304.9,357.7c0-1.3-1.1-2.1-2.1-2.1c-1.1,0-2,0.9-2,2.1c0,1.2,0.9,2.1,2,2.1
				C1304,359.8,1304.9,359,1304.9,357.7z"/>
			<path class="st9" d="M1313.7,357.3v3.5h-1.1v-3.5c0-1-0.6-1.6-1.5-1.6c-0.9,0-1.9,0.5-1.9,1.8v3.3h-1.1v-6.1h1.1v0.9
				c0.4-0.7,1.4-1.1,2-1.1C1312.8,354.5,1313.7,355.5,1313.7,357.3z"/>
			<path class="st9" d="M1321.6,351.3v9.5h-1.1v-1c-0.4,0.7-1.3,1.1-2.2,1.1c-1.7,0-3.1-1.3-3.1-3.2c0-1.9,1.4-3.2,3.1-3.2
				c0.9,0,1.8,0.4,2.2,1.1v-4.3H1321.6z M1320.5,357.7c0-1.3-1.1-2.1-2.1-2.1c-1.1,0-2,0.9-2,2.1c0,1.2,0.9,2.1,2,2.1
				C1319.5,359.8,1320.5,359,1320.5,357.7z"/>
			<path class="st9" d="M1323.4,352.4c0-0.4,0.4-0.8,0.8-0.8c0.4,0,0.8,0.3,0.8,0.8c0,0.4-0.4,0.8-0.8,0.8
				C1323.8,353.2,1323.4,352.9,1323.4,352.4z M1323.7,354.7h1.1v6.1h-1.1V354.7z"/>
			<path class="st9" d="M1332.4,357.3v3.5h-1.1v-3.5c0-1-0.6-1.6-1.5-1.6c-0.9,0-1.9,0.5-1.9,1.8v3.3h-1.1v-6.1h1.1v0.9
				c0.4-0.7,1.4-1.1,2-1.1C1331.5,354.5,1332.4,355.5,1332.4,357.3z"/>
			<path class="st9" d="M1340.3,354.7v5.2c0,2.9-1.3,4-3.3,4c-1.1,0-2.1-0.6-2.8-1.6l1-0.5c0.4,0.7,1.1,1.1,1.8,1.1
				c1.3,0,2.2-0.8,2.2-2.8v-0.1c-0.4,0.7-1.3,1.1-2.2,1.1c-1.7,0-3.1-1.3-3.1-3.2c0-1.9,1.4-3.2,3.1-3.2c0.9,0,1.8,0.4,2.2,1.1v-1
				H1340.3z M1339.2,357.7c0-1.3-1.1-2.1-2.1-2.1c-1.1,0-2,0.9-2,2.1c0,1.2,0.9,2.1,2,2.1C1338.2,359.8,1339.2,359,1339.2,357.7z"/>
			<path class="st9" d="M1348.6,355.7h-1.3v5.1h-1.1v-5.1h-1.1v-1h1.1v-2.3h1.1v2.3h1.3V355.7z"/>
			<path class="st9" d="M1349.4,357.7c0-1.9,1.5-3.2,3.2-3.2c1.7,0,3.2,1.2,3.2,3.2c0,1.9-1.5,3.2-3.2,3.2
				C1350.8,360.9,1349.4,359.7,1349.4,357.7z M1354.6,357.7c0-1.3-0.9-2.1-2.1-2.1c-1.1,0-2,0.8-2,2.1c0,1.3,0.9,2.1,2,2.1
				C1353.7,359.8,1354.6,359,1354.6,357.7z"/>
			<path class="st9" d="M1366.4,359.7v1.1h-5.4v-9h5.3v1.1h-4.1v2.9h3.6v1.1h-3.6v2.8H1366.4z"/>
			<path class="st9" d="M1377.7,357.3v3.5h-1.1v-3.5c0-1-0.6-1.7-1.5-1.7c-1.1,0-1.7,0.9-1.6,2.1l0-0.1v3.1h-1.1v-3.5
				c0-1-0.6-1.7-1.4-1.7c-0.9,0-1.7,0.5-1.7,1.8v3.3h-1.1v-6.1h1.1v0.9c0.3-0.7,1.1-1.1,2-1.1c0.9,0,1.7,0.5,2,1.3
				c0.6-1.1,1.5-1.3,2.1-1.3C1376.8,354.5,1377.7,355.5,1377.7,357.3z"/>
			<path class="st9" d="M1386,357.7c0,1.9-1.4,3.2-3.1,3.2c-0.9,0-1.8-0.4-2.2-1.1v1h-1.1v-9.5h1.1v4.3c0.4-0.7,1.3-1.1,2.2-1.1
				C1384.6,354.5,1386,355.8,1386,357.7z M1384.8,357.7c0-1.2-0.9-2.1-2-2.1c-1,0-2.1,0.8-2.1,2.1c0,1.3,1,2.1,2.1,2.1
				C1384,359.8,1384.8,358.9,1384.8,357.7z"/>
			<path class="st9" d="M1387.2,357.7c0-1.9,1.5-3.2,3.2-3.2c1.7,0,3.2,1.2,3.2,3.2c0,1.9-1.5,3.2-3.2,3.2
				C1388.7,360.9,1387.2,359.7,1387.2,357.7z M1392.5,357.7c0-1.3-0.9-2.1-2.1-2.1c-1.1,0-2,0.8-2,2.1c0,1.3,0.9,2.1,2,2.1
				C1391.6,359.8,1392.5,359,1392.5,357.7z"/>
			<path class="st9" d="M1395.3,351.3h1.1v9.5h-1.1V351.3z"/>
			<path class="st9" d="M1404.4,351.3v9.5h-1.1v-1c-0.4,0.7-1.3,1.1-2.2,1.1c-1.7,0-3.1-1.3-3.1-3.2c0-1.9,1.4-3.2,3.1-3.2
				c0.9,0,1.8,0.4,2.2,1.1v-4.3H1404.4z M1403.3,357.7c0-1.3-1.1-2.1-2.1-2.1c-1.1,0-2,0.9-2,2.1c0,1.2,0.9,2.1,2,2.1
				C1402.3,359.8,1403.3,359,1403.3,357.7z"/>
		</g>
	</g>
</g>
</svg>
