<?xml version="1.0" encoding="utf-8"?>
<!-- Generator: Adobe Illustrator 23.0.2, SVG Export Plug-In . SVG Version: 6.00 Build 0)  -->
<svg version="1.1" id="Layer_1" xmlns="http://www.w3.org/2000/svg" xmlns:xlink="http://www.w3.org/1999/xlink" x="0px" y="0px"
	 viewBox="0 0 1117.6 480" style="enable-background:new 0 0 1117.6 480;" xml:space="preserve">
<style type="text/css">
	.st0{fill:url(#SVGID_1_);}
	.st1{fill:none;stroke:#E2E5EB;stroke-miterlimit:10;}
	.st2{fill:#2A3141;}
	.st3{fill:url(#SVGID_2_);}
	.st4{fill:#1C212B;}
	.st5{fill:none;stroke:#E2E5EB;stroke-width:2;stroke-miterlimit:10;}
	.st6{fill:#FFFFFF;stroke:#21ABB0;stroke-width:3;stroke-miterlimit:10;}
	.st7{fill:#FFFFFF;}
	.st8{fill:#5C677F;}
	.st9{fill:#21ABB0;}
</style>
<g>
	<g>
		<linearGradient id="SVGID_1_" gradientUnits="userSpaceOnUse" x1="927.081" y1="237.7011" x2="27.5015" y2="237.7011">
			<stop  offset="0.4405" style="stop-color:#FFFFFF"/>
			<stop  offset="1" style="stop-color:#E2E5EB"/>
		</linearGradient>
		<polygon class="st0" points="27.5,427 385.2,389.1 734.2,293.3 927.1,48.4 927.1,427 		"/>
	</g>
	<line class="st1" x1="385.8" y1="388.5" x2="385.8" y2="426.4"/>
	<line class="st1" x1="734.8" y1="292.7" x2="734.8" y2="427.6"/>
	<g>
		<g>
			<g>
				<path class="st2" d="M823.2,182.9c2.3-2.7,5.1-6.4,7.1-9.2c2.1-3,3.2-4.5,6.2-7.9c2.7-3.1,7.9-9.8,11.1-14
					c1.4-1.9,2.4-3.2,3.2-4.1c0.6-0.7,2.3-2.8,3.7-4.7c1.8-2.3,3.9-5,6.4-8c6.1-7.5,7.2-8.8,9.5-12c2.5-3.4,5.4-7.1,9.2-11.9
					c2.2-2.8,2.9-3.7,3.8-4.9c1.2-1.8,2.8-3.7,4-5.1c1.2-1.3,2.8-3.4,3.5-4.4c0.4-0.6,0.9-1.3,1.9-2.5c0.8-0.9,1.7-2.1,2-2.6
					c0.4-0.5,2.7-3.5,5.2-6.7c2.5-3.2,5.2-6.7,6.2-7.9c0.9-1.2,2.4-2.9,3.2-4c1.2-1.4,2.2-2.6,4.1-5c3-3.9,3.2-4.1,6.2-7.9
					c1.6-2,3.1-4,4.6-6c2.9-4,3.5-5.2,3.1-5.5c-0.3-0.3-0.4-0.2-1.9,1.3l-1.6,1.6l-5.1,6.5c-2.8,3.5-6.6,8.4-8.5,10.7
					c-2.1,2.7-3.9,5-4.8,6.2c-1.2,1.6-2,2.6-4.5,5.7c-1.7,2.1-3.6,4.4-4.3,5.2c-0.6,0.8-5.1,6.5-9.8,12.5
					c-6.4,8.2-9.2,11.7-10.6,13.4c-1.6,2-2.2,2.7-3.7,4.7c-2.3,3.1-7.5,9.8-8.5,10.8c-1.4,1.5-3,3.5-6.7,8.4
					c-4.8,6.4-8.3,11.1-9.2,12.1c-0.4,0.5-1.7,2.1-3,3.6c-1.9,2.2-3,3.6-6.2,7.7c-2.3,3-4.9,6.2-6.4,8c-1.9,2.3-2.9,3.6-4.4,5.6
					c-1.2,1.6-6.7,8.6-14.9,19c-12.6,16.1-13,16.5-14.4,18.1c-1.3,1.5-1.9,2.1-6.4,7.9c-4,5.1-5.1,6.5-5.7,7.5
					c-1,1.4-2.6,3.5-11.5,14.7c-3.7,4.6-7.2,9.1-8.7,11c-1.5,2-3.1,4-4.2,5.3c-1.2,1.4-2.4,2.9-3.6,4.6c-1.4,1.9-2.4,3.2-4.2,5.3
					c-1.3,1.6-2.9,3.5-3.5,4.3c-0.6,0.8-4.8,6.2-9.3,11.9c-5.7,7.2-7.8,9.9-8.3,10.5l0.4-0.2c-1.8,0.5-2.2,0.6-2.5,0.7
					c-1.8,0.4-3.5,0.9-5,1.3c-1.2,0.4-3.8,1.1-5.6,1.6c-1.9,0.5-5.1,1.4-7.1,2c-3.1,0.9-4,1.1-5.1,1.3c-1.6,0.3-4.3,1-6.6,1.8
					c-2.4,0.8-29.2,8.1-33.1,9.1c-2.2,0.5-3.9,1-9.6,2.7c-9.1,2.6-18.4,5.2-24,6.6c-6.3,1.6-15,4-18.9,5.2c-2.3,0.7-4.4,1.3-8,2.3
					c-2.7,0.7-16.7,4.6-31,8.5c-14.3,3.9-28.3,7.7-31,8.4c-2.9,0.8-7.2,1.9-10.2,2.8c-3.4,1-8.4,2.3-14.6,4
					c-5.2,1.4-13.3,3.6-18.1,4.9c-4.8,1.3-11.1,3-14.1,3.8c-2.9,0.8-7.7,2-10.6,2.7c-2.9,0.7-6,1.6-7,1.9c-1,0.3-3.5,1.1-5.5,1.7
					c-2.7,0.8-4.4,1.3-6.2,1.8c-1,0.3-33.9,9.3-75.1,20.6l0.1,0c-24.4,2.6-56.9,6-68.6,7.3c-1.8,0.2-8.7,0.9-15.3,1.6
					c-6.7,0.7-13.4,1.4-15,1.6c-1.6,0.2-13.7,1.5-26.9,2.9c-13.2,1.4-27.4,2.9-31.6,3.3c-6.4,0.7-8.2,0.9-10.7,1
					c-3.5,0.2-8.2,0.7-22.8,2.2c-5.8,0.6-13.1,1.3-16.4,1.6c-4.1,0.4-9.5,0.9-17.5,1.8c-6.4,0.7-20,2.2-30.4,3.3
					c-10.3,1.1-21.6,2.3-25,2.7c-5.5,0.6-6.6,0.7-9.4,0.9c-2.6,0.2-4.4,0.3-9.9,0.9c-20.8,2.3-42.4,4.5-45.3,4.7
					c-2.7,0.1-7,0.6-7.9,0.8c-0.4,0.1-1,0.2-1.3,0.2c-0.4,0-1.4,0.3-2.2,0.5c-1.4,0.4-1.5,0.5-1.5,0.9c0.1,0.5,0.2,0.5,1.7,0.5
					c2.1,0,5.4-0.1,7.2-0.3c0.8-0.1,2.9-0.3,4.6-0.4c2.6-0.2,3.9-0.3,7.1-0.8c4.3-0.5,12.1-1.3,22.6-2.3c4.6-0.4,6.5-0.6,7.8-0.8
					c3.9-0.6,9.3-1.2,15-1.7c3-0.3,6.5-0.5,7.7-0.6c1.2-0.1,6.9-0.7,12.6-1.3c9.1-1,10.7-1.1,11.8-1.4c1.2-0.2,3-0.4,21.1-2.3
					c15.9-1.7,20.2-2.1,22-2.2c3.4-0.2,9.8-0.8,13.6-1.3c4.5-0.6,9.6-1.1,17.7-1.8c4.9-0.4,9.4-0.9,14.8-1.4
					c4.3-0.4,12.7-1.3,18.7-1.9c8.9-0.9,12.4-1.3,19.3-2.1c10.7-1.2,16.9-1.9,23-2.5c3.3-0.3,18.3-1.9,46.9-4.9
					c36.2-3.8,42.5-4.5,45.7-4.7c3.8-0.3,8-0.8,14.4-1.6c0.2,0,0.4,0,2.6-0.3l0.1,0l0.1,0c3.9-1.1,32.4-9,40.7-11.3
					c9.3-2.5,17.4-4.8,18-5c0.8-0.3,4.2-1.3,6.7-1.8c1.9-0.5,31.7-8.5,66.5-18c11.2-3,23.3-6.3,26.9-7.3c10.9-2.9,21-5.7,25.9-7.2
					c5.5-1.7,10.5-3.1,16.1-4.4c5.2-1.3,13.9-3.6,18.8-5.1c2.8-0.8,4.2-1.2,9.8-2.7c4.6-1.2,7.9-2.1,10.8-2.9c3.4-1,24-6.8,26.1-7.3
					c0.3-0.1,1.5-0.4,2.6-0.6c3.2-0.8,14.6-3.9,18.7-5.2c3.3-1,4.2-1.3,10.4-2.9c6.7-1.7,6.9-1.8,10.2-2.8c3.6-1.1,3.1-1,14-3.8
					c4.3-1.1,8.9-2.4,11-3.1c1.8-0.6,4.6-1.4,6.1-1.7c1.2-0.2,4.3-1,5.3-1.4c0.3-0.1,2.1-0.6,4.3-1.1l0.4-0.1l0.3-0.4
					c0,0,0.1-0.1,0.2-0.3c2.3-2.8,2.8-3.4,4-5.2c2.2-3,5-6.7,6.8-8.7c1.7-1.9,6.4-7.8,11.4-14.4c2.2-2.8,3.4-4.4,4.8-6.1
					c1.7-2,2-2.4,2.7-3.5c2-3,2.1-3.1,3.4-4.5c1.5-1.6,2.2-2.5,3.8-4.7c1.4-2,2.4-3.3,4.6-5.9c2.7-3.1,6.5-8.1,7.5-9.6
					c1-1.6,2.2-3,3.7-4.7c1.5-1.6,2.9-3.4,4.9-6.1c1.9-2.6,5.5-7.2,8.4-10.6c1.7-2,3.6-4.4,9.6-12c5-6.4,7.7-9.8,8.2-10.5
					c0.6-0.8,0.9-1.2,1.6-2C821.5,184.8,822.5,183.7,823.2,182.9z"/>
			</g>
		</g>
	</g>
	<rect x="27.5" y="424.6" class="st2" width="841.6" height="4.7"/>
	<linearGradient id="SVGID_2_" gradientUnits="userSpaceOnUse" x1="869.1061" y1="426.9928" x2="1117.5699" y2="426.9928">
		<stop  offset="0" style="stop-color:#2A3141"/>
		<stop  offset="1" style="stop-color:#FFFFFF"/>
	</linearGradient>
	<rect x="869.1" y="424.6" class="st3" width="248.5" height="4.7"/>
	<g>
		<path class="st4" d="M17.2,454.7v1.9h-6.8v-1.1l3.9-4.7c0.4-0.5,0.7-1,0.7-1.4c0-0.7-0.6-1.2-1.3-1.2c-0.9,0-1.4,0.6-1.5,1.5
			l-1.8-0.3c0.2-1.8,1.4-3,3.4-3c2,0,3.3,1.2,3.3,3c0,1-0.5,1.8-1.1,2.6l-2.4,2.7H17.2z"/>
		<path class="st4" d="M18.8,451.6c0-2.9,0.8-5.2,3.8-5.2c2.9,0,3.7,2.3,3.7,5.2c0,2.9-0.8,5.2-3.7,5.2
			C19.6,456.7,18.8,454.5,18.8,451.6z M24.2,451.6c0-1.9-0.4-3.3-1.7-3.3c-1.3,0-1.7,1.5-1.7,3.3c0,1.8,0.4,3.3,1.7,3.3
			C23.9,454.9,24.2,453.4,24.2,451.6z"/>
		<path class="st4" d="M27.9,451.6c0-2.9,0.8-5.2,3.8-5.2c2.9,0,3.7,2.3,3.7,5.2c0,2.9-0.8,5.2-3.7,5.2
			C28.7,456.7,27.9,454.5,27.9,451.6z M33.3,451.6c0-1.9-0.4-3.3-1.7-3.3c-1.3,0-1.7,1.5-1.7,3.3c0,1.8,0.4,3.3,1.7,3.3
			C32.9,454.9,33.3,453.4,33.3,451.6z"/>
		<path class="st4" d="M44.5,451.2c0,3-1.4,5.5-4.3,5.5c-1.3,0-2.6-0.6-3.2-2l1.6-0.9c0.3,0.7,0.9,1,1.6,1c1.3,0,2.2-1.1,2.2-2.7
			c-0.5,0.5-1.2,0.8-2.2,0.8c-2,0-3.4-1.5-3.4-3.2c0-1.9,1.5-3.4,3.7-3.4C43,446.4,44.5,448.4,44.5,451.2z M42.3,449.8
			c0-0.9-0.7-1.5-1.7-1.6c-1,0-1.7,0.6-1.7,1.5c0,0.9,0.7,1.5,1.6,1.5C41.6,451.3,42.3,450.7,42.3,449.8z"/>
	</g>
	<g>
		<path class="st4" d="M377.6,455.3v1.9h-6.8v-1.1l3.9-4.7c0.4-0.5,0.7-1,0.7-1.4c0-0.7-0.6-1.2-1.3-1.2c-0.9,0-1.4,0.6-1.5,1.5
			l-1.8-0.3c0.2-1.8,1.4-3,3.4-3c2,0,3.3,1.2,3.3,3c0,1-0.5,1.8-1.1,2.6l-2.4,2.7H377.6z"/>
		<path class="st4" d="M379.2,452.2c0-2.9,0.8-5.2,3.8-5.2c2.9,0,3.7,2.3,3.7,5.2c0,2.9-0.8,5.2-3.7,5.2
			C380,457.3,379.2,455,379.2,452.2z M384.6,452.2c0-1.9-0.4-3.3-1.7-3.3c-1.3,0-1.7,1.5-1.7,3.3c0,1.8,0.4,3.3,1.7,3.3
			C384.2,455.5,384.6,454,384.6,452.2z"/>
		<path class="st4" d="M392.2,447v10.2h-2v-7.5l-2.3,0.9v-1.9l4.2-1.7H392.2z"/>
		<path class="st4" d="M401.4,447.1v0.2l-4.5,9.9h-2.3l3.8-8.2h-4.2v-1.9H401.4z"/>
	</g>
	<g>
		<path class="st4" d="M726,455.3v1.9h-6.8v-1.1l3.9-4.7c0.4-0.5,0.7-1,0.7-1.4c0-0.7-0.6-1.2-1.3-1.2c-0.9,0-1.4,0.6-1.5,1.5
			l-1.8-0.3c0.2-1.8,1.4-3,3.4-3c2,0,3.3,1.2,3.3,3c0,1-0.5,1.8-1.1,2.6l-2.4,2.7H726z"/>
		<path class="st4" d="M727.6,452.2c0-2.9,0.8-5.2,3.8-5.2c2.9,0,3.7,2.3,3.7,5.2c0,2.9-0.8,5.2-3.7,5.2
			C728.5,457.3,727.6,455,727.6,452.2z M733.1,452.2c0-1.9-0.4-3.3-1.7-3.3c-1.3,0-1.7,1.5-1.7,3.3c0,1.8,0.4,3.3,1.7,3.3
			C732.7,455.5,733.1,454,733.1,452.2z"/>
		<path class="st4" d="M740.7,447v10.2h-2v-7.5l-2.3,0.9v-1.9l4.2-1.7H740.7z"/>
		<path class="st4" d="M750.3,451.8c0,3-1.4,5.5-4.3,5.5c-1.3,0-2.6-0.6-3.2-2l1.6-0.9c0.3,0.7,0.9,1,1.6,1c1.3,0,2.2-1.1,2.2-2.7
			c-0.5,0.5-1.2,0.8-2.2,0.8c-2,0-3.4-1.5-3.4-3.2c0-1.9,1.5-3.4,3.7-3.4C748.8,447,750.3,449,750.3,451.8z M748.1,450.4
			c0-0.9-0.7-1.5-1.7-1.6c-1,0-1.7,0.6-1.7,1.5c0,0.9,0.7,1.5,1.6,1.5C747.4,451.9,748.1,451.3,748.1,450.4z"/>
	</g>
	<line class="st5" x1="378.6" y1="33" x2="27.5" y2="33"/>
	<line class="st5" x1="730.7" y1="33" x2="388.2" y2="33"/>
	<line class="st5" x1="1079.6" y1="33" x2="736.7" y2="33"/>
	<circle class="st6" cx="27.5" cy="427" r="7.1"/>
	<circle class="st2" cx="203" cy="33" r="14.2"/>
	<circle class="st6" cx="385.8" cy="427.6" r="7.1"/>
	<circle class="st6" cx="734.8" cy="427.6" r="7.1"/>
	<g>
		<path class="st7" d="M205.2,26v12.6h-2.5v-9.2l-2.9,1.1v-2.3L205,26H205.2z"/>
	</g>
	<circle class="st2" cx="559.4" cy="33" r="14.2"/>
	<g>
		<path class="st7" d="M563.5,36.2v2.3h-8.4v-1.3l4.8-5.8c0.5-0.6,0.9-1.3,0.9-1.7c0-0.8-0.7-1.4-1.6-1.4c-1.1,0-1.7,0.7-1.9,1.8
			l-2.3-0.4c0.3-2.2,1.7-3.7,4.2-3.7s4.1,1.5,4.1,3.7c0,1.2-0.6,2.3-1.4,3.1l-2.9,3.4H563.5z"/>
	</g>
	<circle class="st2" cx="908.2" cy="33" r="14.2"/>
	<g>
		<path class="st7" d="M912.3,34.9c0,2.2-1.9,3.8-4.6,3.8c-1.8,0-3.2-0.8-4.1-2.2l1.7-1.3c0.6,0.8,1.3,1.2,2.2,1.2
			c1.3,0,2.2-0.7,2.2-1.7c0-1-0.9-1.8-2.1-1.8h-1.2v-1.9h0.7c1.3,0,2.1-0.7,2.1-1.6c0-0.8-0.7-1.2-1.6-1.2c-0.8,0-1.6,0.4-2.1,1
			l-1.4-1.6c0.9-1,2.2-1.7,3.8-1.7c2.2,0,3.9,1.3,3.8,3.4c0,1-0.6,2-1.6,2.5C911.4,32.3,912.3,33.5,912.3,34.9z"/>
	</g>
	<polyline class="st5" points="37.5,23 27.5,33 37.5,43 	"/>
	<polyline class="st5" points="368.5,43 378.6,33 368.5,23 	"/>
	<polyline class="st5" points="720.6,43 730.7,33 720.6,23 	"/>
	<polyline class="st5" points="1069.4,43 1079.4,33 1069.4,23 	"/>
	<polyline class="st5" points="398.2,23 388.2,33 398.2,43 	"/>
	<polyline class="st5" points="746.6,23 736.6,33 746.6,43 	"/>
	<g>
		<g>
			<circle class="st2" cx="882" cy="218.7" r="12.4"/>
			<g>
				<path class="st7" d="M883.8,212.9v10.2h-2v-7.5l-2.3,0.9v-1.9l4.2-1.7H883.8z"/>
			</g>
			<g>
				<path class="st8" d="M911.2,219.5c0,1.5-1.3,2.5-3,2.5c-1.8,0-3.1-1-3.1-2.5c0-1.1,0.6-1.9,1.6-2.3c-0.5-0.3-0.8-0.8-0.8-1.5
					c0-1.1,0.9-2,2.3-2c1.4,0,2.3,0.9,2.3,2c0,0.7-0.3,1.2-0.8,1.5C910.6,217.6,911.2,218.4,911.2,219.5z M910.1,219.4
					c0-1-0.9-1.7-1.9-1.7c-1,0-1.9,0.7-1.9,1.6c0,0.9,0.8,1.6,1.9,1.6C909.3,221,910.1,220.3,910.1,219.4z M907,215.8
					c0,0.6,0.5,1.1,1.2,1.1s1.2-0.4,1.2-1.1c0-0.6-0.5-1.1-1.2-1.1S907,215.2,907,215.8z"/>
				<path class="st8" d="M922.7,213.4l-3.3,4.6v3.9h-1.1V218l-3.3-4.6h1.3l2.5,3.5l2.5-3.5H922.7z"/>
				<path class="st8" d="M928.1,219.5h-4.7c0.2,1,0.9,1.5,1.9,1.5c0.7,0,1.4-0.3,1.7-0.9l0.9,0.4c-0.5,1-1.6,1.5-2.7,1.5
					c-1.7,0-3-1.2-3-3s1.3-3,3-3c1.7,0,2.9,1.2,2.9,3C928.1,219.2,928.1,219.3,928.1,219.5z M927,218.5c-0.1-1-0.8-1.5-1.8-1.5
					c-1,0-1.7,0.5-1.9,1.5H927z"/>
				<path class="st8" d="M935.2,216.1v5.8h-1.1V221c-0.4,0.7-1.2,1-2.1,1c-1.6,0-2.9-1.2-2.9-3c0-1.8,1.3-3,2.9-3
					c0.9,0,1.7,0.3,2.1,1v-0.9H935.2z M934.1,219c0-1.3-1-2-2-2c-1.1,0-1.9,0.8-1.9,2c0,1.2,0.8,2,1.9,2
					C933.2,221,934.1,220.2,934.1,219z"/>
				<path class="st8" d="M940.8,216.2l-0.2,1c-0.3-0.1-0.6-0.2-0.8-0.2c-1.2,0-1.6,1.2-1.6,2.8v2.1H937v-5.8h1.1v1.3
					c0.3-1,0.9-1.4,1.6-1.4C940.2,216,940.6,216.1,940.8,216.2z"/>
				<path class="st8" d="M941.4,220.2h1c0,0.5,0.4,0.9,1.2,0.9c0.7,0,1.2-0.3,1.2-0.8c0-0.4-0.3-0.7-0.8-0.8l-0.8-0.2
					c-1-0.3-1.5-0.7-1.5-1.7c0-1,0.8-1.7,2-1.7c1,0,2,0.5,2,1.7h-1c0-0.4-0.5-0.7-0.9-0.7c-0.6,0-0.9,0.3-0.9,0.8
					c0,0.4,0.4,0.6,0.7,0.7l0.9,0.2c1.2,0.3,1.5,1,1.5,1.7c0,1.1-1,1.7-2.2,1.7C942.5,222,941.5,221.4,941.4,220.2z"/>
				<path class="st8" d="M950.1,219c0-1.8,1.4-3,3-3s3,1.2,3,3s-1.4,3-3,3S950.1,220.8,950.1,219z M955,219c0-1.2-0.9-2-2-2
					c-1.1,0-1.9,0.8-1.9,2c0,1.2,0.9,2,1.9,2C954.1,221,955,220.2,955,219z"/>
				<path class="st8" d="M959,215.4v0.8h1.4v0.9H959v4.9H958V217h-1.1v-0.9h1.1v-0.6c0-1.5,0.6-2.6,2.2-2.6h0.6v1h-0.4
					C959.3,214,959,214.6,959,215.4z"/>
				<path class="st8" d="M967.2,218.7h-1.1v3.2H965v-8.6h3.2c1.9,0,2.6,1.3,2.6,2.7c0,1.2-0.6,2.5-2.2,2.6l2.3,3.2h-1.4L967.2,218.7
					z M966.1,217.6h1.8c1.3,0,1.8-0.7,1.8-1.6c0-1-0.6-1.6-1.4-1.6h-2.1V217.6z"/>
				<path class="st8" d="M978.9,221v1h-0.2c-0.8,0-1.6-0.4-1.7-1c-0.4,0.6-1.3,1-2.1,1c-1.7,0-2.8-1.2-2.8-2.7c0-1,0.6-1.7,1.4-2.2
					c-0.5-0.3-0.9-1-0.9-1.7c0-1.1,0.9-2.1,2.3-2.1c0.9,0,1.7,0.4,2.1,1.2l-0.9,0.5c-0.3-0.4-0.7-0.7-1.2-0.7
					c-0.7,0-1.2,0.5-1.2,1.2c0,0.6,0.4,1.3,1.4,1.3h1.5v-1h1.1v1h1.1v0.9h-1.1v1.6c0,0.9,0.2,1.7,1.1,1.7H978.9z M976.5,219.4v-1.7
					H975c-1.4,0-2,0.7-2,1.6c0,1,0.7,1.7,1.7,1.7C975.8,221,976.4,220.3,976.5,219.4z"/>
				<path class="st8" d="M980.4,213.4h3.3c2.4,0,3.9,1.9,3.9,4.3c0,2.4-1.4,4.3-3.9,4.3h-3.3V213.4z M983.7,220.9
					c1.8,0,2.7-1.4,2.7-3.2s-0.9-3.3-2.7-3.3h-2.2v6.5H983.7z"/>
				<path class="st8" d="M991.9,219c0-1.8,1.4-3,3-3s3,1.2,3,3s-1.4,3-3,3S991.9,220.8,991.9,219z M996.9,219c0-1.2-0.9-2-2-2
					c-1.1,0-1.9,0.8-1.9,2c0,1.2,0.9,2,1.9,2C996,221,996.9,220.2,996.9,219z"/>
				<path class="st8" d="M1004.8,218.6v3.4h-1.1v-3.3c0-1-0.6-1.6-1.4-1.6s-1.8,0.5-1.8,1.7v3.1h-1.1v-5.8h1.1v0.9
					c0.3-0.7,1.3-1,1.9-1C1003.9,216,1004.8,216.9,1004.8,218.6z"/>
				<path class="st8" d="M910.2,236.3h-3.7l-0.8,2.2h-1.2l3.3-8.6h1.2l3.3,8.6h-1.2L910.2,236.3z M909.9,235.3l-1.5-3.9l-1.5,3.9
					H909.9z"/>
				<path class="st8" d="M913.5,237.9c0-0.4,0.4-0.8,0.8-0.8c0.4,0,0.8,0.3,0.8,0.8c0,0.4-0.4,0.7-0.8,0.7
					C913.9,238.6,913.5,238.3,913.5,237.9z"/>
				<path class="st8" d="M917.1,229.9h1.1v8.6h-1.1V229.9z"/>
				<path class="st8" d="M920.3,237.9c0-0.4,0.4-0.8,0.8-0.8c0.4,0,0.8,0.3,0.8,0.8c0,0.4-0.4,0.7-0.8,0.7
					C920.6,238.6,920.3,238.3,920.3,237.9z"/>
				<path class="st8" d="M930.3,229.9h1.1l-4.2,8.6h-1.1L930.3,229.9z"/>
				<path class="st8" d="M944.6,238.5l-0.8-6.5l-2.7,5.6h-1l-2.7-5.6l-0.8,6.5h-1.1l1-8.6h1l3.1,6.3l3-6.3h1l1.1,8.6H944.6z"/>
				<path class="st8" d="M947.5,237.9c0-0.4,0.4-0.8,0.8-0.8c0.4,0,0.8,0.3,0.8,0.8c0,0.4-0.4,0.7-0.8,0.7
					C947.8,238.6,947.5,238.3,947.5,237.9z"/>
				<path class="st8" d="M951.1,229.9h1.1v7.5h3.5v1h-4.6V229.9z"/>
				<path class="st8" d="M957.1,237.9c0-0.4,0.4-0.8,0.8-0.8c0.4,0,0.8,0.3,0.8,0.8c0,0.4-0.4,0.7-0.8,0.7
					C957.5,238.6,957.1,238.3,957.1,237.9z"/>
				<path class="st8" d="M968.3,236.3h-3.7l-0.8,2.2h-1.2l3.3-8.6h1.2l3.3,8.6h-1.2L968.3,236.3z M967.9,235.3l-1.5-3.9l-1.5,3.9
					H967.9z"/>
				<path class="st8" d="M977.4,235.6c0,1.8-1.3,3-2.9,3c-0.9,0-1.7-0.3-2.1-1v3.7h-1.1v-8.6h1.1v0.9c0.4-0.7,1.2-1,2.1-1
					C976.1,232.5,977.4,233.8,977.4,235.6z M976.3,235.6c0-1.2-0.8-2-1.9-2c-1,0-2,0.8-2,2c0,1.3,1,2,2,2
					C975.5,237.6,976.3,236.8,976.3,235.6z"/>
				<path class="st8" d="M985,235.6c0,1.8-1.3,3-2.9,3c-0.9,0-1.7-0.3-2.1-1v3.7h-1.1v-8.6h1.1v0.9c0.4-0.7,1.2-1,2.1-1
					C983.6,232.5,985,233.8,985,235.6z M983.9,235.6c0-1.2-0.8-2-1.9-2c-1,0-2,0.8-2,2c0,1.3,1,2,2,2
					C983,237.6,983.9,236.8,983.9,235.6z"/>
				<path class="st8" d="M986.4,229.5h1.1v9h-1.1V229.5z"/>
				<path class="st8" d="M989.1,230.5c0-0.4,0.3-0.7,0.8-0.7c0.4,0,0.8,0.3,0.8,0.7c0,0.4-0.3,0.7-0.8,0.7
					C989.4,231.3,989.1,230.9,989.1,230.5z M989.3,232.7h1.1v5.8h-1.1V232.7z"/>
				<path class="st8" d="M991.8,235.6c0-1.8,1.5-3,3.1-3c0.9,0,1.7,0.4,2.2,0.9l-0.7,0.7c-0.4-0.4-0.9-0.6-1.5-0.6
					c-1.1,0-2.1,0.8-2.1,2s0.9,2,2.1,2c0.6,0,1.1-0.2,1.5-0.6l0.7,0.7c-0.5,0.6-1.3,0.9-2.2,0.9
					C993.2,238.6,991.8,237.4,991.8,235.6z"/>
				<path class="st8" d="M1003.9,232.7v5.8h-1.1v-0.9c-0.4,0.7-1.2,1-2.1,1c-1.6,0-2.9-1.2-2.9-3c0-1.8,1.3-3,2.9-3
					c0.9,0,1.7,0.3,2.1,1v-0.9H1003.9z M1002.9,235.6c0-1.3-1-2-2-2c-1.1,0-1.9,0.8-1.9,2c0,1.2,0.8,2,1.9,2
					C1001.9,237.6,1002.9,236.8,1002.9,235.6z"/>
				<path class="st8" d="M1008.5,233.6h-1.3v4.9h-1.1v-4.9h-1v-0.9h1v-2.2h1.1v2.2h1.3V233.6z"/>
				<path class="st8" d="M1009.4,230.5c0-0.4,0.3-0.7,0.8-0.7c0.4,0,0.8,0.3,0.8,0.7c0,0.4-0.3,0.7-0.8,0.7
					C1009.8,231.3,1009.4,230.9,1009.4,230.5z M1009.7,232.7h1.1v5.8h-1.1V232.7z"/>
				<path class="st8" d="M1012.2,235.6c0-1.8,1.4-3,3-3s3,1.2,3,3s-1.4,3-3,3S1012.2,237.4,1012.2,235.6z M1017.2,235.6
					c0-1.2-0.9-2-2-2c-1.1,0-1.9,0.8-1.9,2c0,1.2,0.9,2,1.9,2C1016.3,237.6,1017.2,236.8,1017.2,235.6z"/>
				<path class="st8" d="M1025.1,235.1v3.4h-1.1v-3.3c0-1-0.6-1.6-1.4-1.6s-1.8,0.5-1.8,1.7v3.1h-1.1v-5.8h1.1v0.9
					c0.3-0.7,1.3-1,1.9-1C1024.2,232.5,1025.1,233.5,1025.1,235.1z"/>
				<path class="st8" d="M1026.4,236.7h1c0,0.5,0.4,0.9,1.2,0.9c0.7,0,1.2-0.3,1.2-0.8c0-0.4-0.3-0.7-0.8-0.8l-0.8-0.2
					c-1-0.3-1.5-0.7-1.5-1.7c0-1,0.8-1.7,2-1.7c1,0,2,0.5,2,1.7h-1c0-0.4-0.5-0.7-0.9-0.7c-0.6,0-0.9,0.3-0.9,0.8
					c0,0.4,0.4,0.6,0.7,0.7l0.9,0.2c1.2,0.3,1.5,1,1.5,1.7c0,1.1-1,1.7-2.2,1.7C1027.5,238.6,1026.4,237.9,1026.4,236.7z"/>
				<path class="st8" d="M905.1,252.1c0-1.8,1.4-3,3-3s3,1.2,3,3s-1.4,3-3,3S905.1,254,905.1,252.1z M910.1,252.1c0-1.2-0.9-2-2-2
					c-1.1,0-1.9,0.8-1.9,2c0,1.2,0.9,2,1.9,2C909.2,254.1,910.1,253.3,910.1,252.1z"/>
				<path class="st8" d="M917.9,251.7v3.4h-1.1v-3.3c0-1-0.6-1.6-1.4-1.6s-1.8,0.5-1.8,1.7v3.1h-1.1v-5.8h1.1v0.9
					c0.3-0.7,1.3-1,1.9-1C917.1,249.1,918,250.1,917.9,251.7z"/>
				<path class="st8" d="M922.5,250.8c0-2.4,1.9-4.4,4.3-4.4c1.3,0,2.5,0.6,3.2,1.5l-0.8,0.7c-0.6-0.7-1.4-1.1-2.4-1.1
					c-1.8,0-3.2,1.5-3.2,3.3c0,1.8,1.4,3.3,3.2,3.3c1,0,1.8-0.4,2.4-1.1l0.8,0.7c-0.8,0.9-1.9,1.5-3.2,1.5
					C924.5,255.2,922.5,253.2,922.5,250.8z"/>
				<path class="st8" d="M931,252.1c0-1.8,1.4-3,3-3s3,1.2,3,3s-1.4,3-3,3S931,254,931,252.1z M936,252.1c0-1.2-0.9-2-2-2
					c-1.1,0-1.9,0.8-1.9,2c0,1.2,0.9,2,1.9,2C935.1,254.1,936,253.3,936,252.1z"/>
				<path class="st8" d="M944.2,246.1v9h-1.1v-0.9c-0.4,0.7-1.2,1-2.1,1c-1.6,0-2.9-1.2-2.9-3c0-1.8,1.3-3,2.9-3
					c0.9,0,1.7,0.3,2.1,1v-4.1H944.2z M943.2,252.1c0-1.3-1-2-2-2c-1.1,0-1.9,0.8-1.9,2c0,1.2,0.8,2,1.9,2
					C942.2,254.1,943.2,253.4,943.2,252.1z"/>
				<path class="st8" d="M951.5,252.6h-4.7c0.2,1,0.9,1.5,1.9,1.5c0.7,0,1.4-0.3,1.7-0.9l0.9,0.4c-0.5,1-1.6,1.5-2.7,1.5
					c-1.7,0-3-1.2-3-3s1.3-3,3-3c1.7,0,2.9,1.2,2.9,3C951.6,252.3,951.6,252.4,951.5,252.6z M950.5,251.7c-0.1-1-0.8-1.5-1.8-1.5
					c-1,0-1.7,0.5-1.9,1.5H950.5z"/>
			</g>
		</g>
		<g>
			<circle class="st2" cx="882" cy="282.6" r="12.4"/>
			<g>
				<path class="st7" d="M885.4,285.1v1.9h-6.8v-1.1l3.9-4.7c0.4-0.5,0.7-1,0.7-1.4c0-0.7-0.6-1.2-1.3-1.2c-0.9,0-1.4,0.6-1.5,1.5
					l-1.8-0.3c0.2-1.8,1.4-3,3.4-3c2,0,3.3,1.2,3.3,3c0,1-0.5,1.8-1.1,2.6l-2.4,2.7H885.4z"/>
			</g>
			<g>
				<path class="st8" d="M905.1,283.4h1.1c0,0.8,0.8,1.5,1.9,1.5c1.1,0,1.7-0.7,1.7-1.5c0-0.8-0.8-1.2-1.5-1.4l-1.1-0.3
					c-1.8-0.4-2.1-1.5-2.1-2.2c0-1.5,1.3-2.4,2.8-2.4c1.5,0,2.7,1,2.7,2.5h-1.1c0-0.9-0.7-1.4-1.6-1.4c-0.9,0-1.7,0.5-1.7,1.4
					c0,0.3,0.1,0.9,1.2,1.2l1.1,0.3c1.5,0.4,2.3,1.2,2.3,2.4c0,1.3-1.1,2.5-2.9,2.5C906.4,285.9,905.2,284.7,905.1,283.4z"/>
				<path class="st8" d="M915.2,280.9h-1.3v4.9h-1.1v-4.9h-1V280h1v-2.2h1.1v2.2h1.3V280.9z"/>
				<path class="st8" d="M921.7,283.4H917c0.2,1,0.9,1.5,1.9,1.5c0.7,0,1.4-0.3,1.7-0.9l0.9,0.4c-0.5,1-1.6,1.5-2.7,1.5
					c-1.7,0-3-1.2-3-3s1.3-3,3-3c1.7,0,2.9,1.2,2.9,3C921.8,283.1,921.7,283.2,921.7,283.4z M920.7,282.5c-0.1-1-0.8-1.5-1.8-1.5
					c-1,0-1.7,0.5-1.9,1.5H920.7z"/>
				<path class="st8" d="M928.9,280v5.8h-1.1v-0.9c-0.4,0.7-1.2,1-2.1,1c-1.6,0-2.9-1.2-2.9-3c0-1.8,1.3-3,2.9-3
					c0.9,0,1.7,0.3,2.1,1V280H928.9z M927.8,282.9c0-1.3-1-2-2-2c-1.1,0-1.9,0.8-1.9,2c0,1.2,0.8,2,1.9,2
					C926.9,284.9,927.8,284.1,927.8,282.9z"/>
				<path class="st8" d="M930.7,276.9h1.1v9h-1.1V276.9z"/>
				<path class="st8" d="M936.4,280.9h-1.3v4.9H934v-4.9h-1V280h1v-2.2h1.1v2.2h1.3V280.9z"/>
				<path class="st8" d="M942.9,282.5v3.4h-1.1v-3.3c0-1-0.6-1.6-1.4-1.6s-1.8,0.5-1.8,1.7v3.1h-1.1v-9h1.1v4c0.3-0.7,1.3-1,1.9-1
					C942,279.9,942.9,280.8,942.9,282.5z"/>
				<path class="st8" d="M956.7,285.8l-0.8-6.5l-2.7,5.6h-1l-2.7-5.6l-0.8,6.5h-1.1l1-8.6h1l3.1,6.3l3-6.3h1l1.1,8.6H956.7z"/>
				<path class="st8" d="M965.2,280v5.8h-1.1v-0.9c-0.4,0.7-1.2,1-2.1,1c-1.6,0-2.9-1.2-2.9-3c0-1.8,1.3-3,2.9-3
					c0.9,0,1.7,0.3,2.1,1V280H965.2z M964.1,282.9c0-1.3-1-2-2-2c-1.1,0-1.9,0.8-1.9,2c0,1.2,0.8,2,1.9,2
					C963.1,284.9,964.1,284.1,964.1,282.9z"/>
				<path class="st8" d="M970.7,280.1l-0.2,1c-0.3-0.2-0.6-0.2-0.8-0.2c-1.2,0-1.6,1.2-1.6,2.8v2.1H967V280h1.1v1.3
					c0.3-1,0.9-1.4,1.6-1.4C970.1,279.9,970.5,280,970.7,280.1z"/>
				<path class="st8" d="M975.5,285.8l-2.7-2.8v2.8h-1.1v-9h1.1v5.2l2-2.1h1.5l-2.5,2.5l3.1,3.3H975.5z"/>
				<path class="st8" d="M983,283.4h-4.7c0.2,1,0.9,1.5,1.9,1.5c0.7,0,1.4-0.3,1.7-0.9l0.9,0.4c-0.5,1-1.6,1.5-2.7,1.5
					c-1.7,0-3-1.2-3-3s1.3-3,3-3c1.7,0,2.9,1.2,2.9,3C983,283.1,983,283.2,983,283.4z M981.9,282.5c-0.1-1-0.8-1.5-1.8-1.5
					c-1,0-1.7,0.5-1.9,1.5H981.9z"/>
				<path class="st8" d="M987.1,280.9h-1.3v4.9h-1.1v-4.9h-1V280h1v-2.2h1.1v2.2h1.3V280.9z"/>
				<path class="st8" d="M996.9,284.8v1h-5.2v-8.6h5v1h-3.9v2.8h3.4v1.1h-3.4v2.6H996.9z"/>
				<path class="st8" d="M1003.7,282.5v3.4h-1.1v-3.3c0-1-0.6-1.6-1.4-1.6s-1.8,0.5-1.8,1.7v3.1h-1.1V280h1.1v0.9
					c0.3-0.7,1.3-1,1.9-1C1002.8,279.9,1003.7,280.8,1003.7,282.5z"/>
				<path class="st8" d="M1008.1,280.9h-1.3v4.9h-1.1v-4.9h-1V280h1v-2.2h1.1v2.2h1.3V280.9z"/>
				<path class="st8" d="M1013,280.1l-0.2,1c-0.3-0.2-0.6-0.2-0.8-0.2c-1.2,0-1.6,1.2-1.6,2.8v2.1h-1.1V280h1.1v1.3
					c0.3-1,0.9-1.4,1.6-1.4C1012.4,279.9,1012.8,280,1013,280.1z"/>
				<path class="st8" d="M1019.5,280l-3.6,8.6h-1.1l1.2-3l-2.3-5.6h1.2l1.8,4.3l1.8-4.3H1019.5z"/>
				<path class="st8" d="M1032.3,280l-2.2,5.8h-0.9l-1.6-4.3l-1.5,4.3h-0.9l-2.2-5.8h1.2l1.5,4.1l1.5-4.1h1.1l1.5,4.1l1.5-4.1
					H1032.3z"/>
				<path class="st8" d="M1033.2,277.9c0-0.4,0.3-0.7,0.8-0.7c0.4,0,0.8,0.3,0.8,0.7c0,0.4-0.3,0.7-0.8,0.7
					C1033.6,278.6,1033.2,278.3,1033.2,277.9z M1033.5,280h1.1v5.8h-1.1V280z"/>
				<path class="st8" d="M1039.1,280.9h-1.3v4.9h-1.1v-4.9h-1V280h1v-2.2h1.1v2.2h1.3V280.9z"/>
				<path class="st8" d="M1045.6,282.5v3.4h-1.1v-3.3c0-1-0.6-1.6-1.4-1.6s-1.8,0.5-1.8,1.7v3.1h-1.1v-9h1.1v4c0.3-0.7,1.3-1,1.9-1
					C1044.7,279.9,1045.6,280.8,1045.6,282.5z"/>
				<path class="st8" d="M905.1,298.1c0-2.4,1.9-4.4,4.3-4.4c1.1,0,2.1,0.4,2.9,1.1l-0.8,0.7c-0.5-0.5-1.3-0.8-2.1-0.8
					c-1.8,0-3.2,1.5-3.2,3.4s1.4,3.3,3.2,3.3c1.5,0,2.6-0.8,2.8-2.2c0-0.1,0-0.1,0-0.2h-2.5v-1h3.7c0,3-1.6,4.4-4,4.4
					S905.1,300.5,905.1,298.1z"/>
				<path class="st8" d="M920.6,296.6v5.8h-1.1v-0.9c-0.4,0.7-1.2,1-2.1,1c-1.6,0-2.9-1.2-2.9-3c0-1.8,1.3-3,2.9-3
					c0.9,0,1.7,0.3,2.1,1v-0.9H920.6z M919.5,299.5c0-1.3-1-2-2-2c-1.1,0-1.9,0.8-1.9,2c0,1.2,0.8,2,1.9,2
					C918.6,301.5,919.5,300.7,919.5,299.5z"/>
				<path class="st8" d="M931.6,299v3.4h-1.1v-3.3c0-1-0.5-1.6-1.4-1.6c-1,0-1.7,0.9-1.6,2l0,0v3h-1.1v-3.3c0-1-0.5-1.6-1.3-1.6
					c-0.8,0-1.6,0.5-1.6,1.7v3.1h-1.1v-5.8h1.1v0.9c0.3-0.6,1-1,1.9-1c0.8,0,1.6,0.4,1.9,1.2c0.5-1,1.4-1.2,2-1.2
					C930.8,296.5,931.6,297.4,931.6,299z"/>
				<path class="st8" d="M942.5,299v3.4h-1.1v-3.3c0-1-0.5-1.6-1.4-1.6c-1,0-1.7,0.9-1.6,2l0,0v3h-1.1v-3.3c0-1-0.5-1.6-1.3-1.6
					c-0.8,0-1.6,0.5-1.6,1.7v3.1h-1.1v-5.8h1.1v0.9c0.3-0.6,1-1,1.9-1c0.8,0,1.6,0.4,1.9,1.2c0.5-1,1.4-1.2,2-1.2
					C941.7,296.5,942.5,297.4,942.5,299z"/>
				<path class="st8" d="M949.9,296.6v5.8h-1.1v-0.9c-0.4,0.7-1.2,1-2.1,1c-1.6,0-2.9-1.2-2.9-3c0-1.8,1.3-3,2.9-3
					c0.9,0,1.7,0.3,2.1,1v-0.9H949.9z M948.8,299.5c0-1.3-1-2-2-2c-1.1,0-1.9,0.8-1.9,2c0,1.2,0.8,2,1.9,2
					C947.9,301.5,948.8,300.7,948.8,299.5z"/>
				<path class="st8" d="M960.6,296.6v5.8h-1.1v-0.9c-0.4,0.7-1.2,1-2.1,1c-1.6,0-2.9-1.2-2.9-3c0-1.8,1.3-3,2.9-3
					c0.9,0,1.7,0.3,2.1,1v-0.9H960.6z M959.5,299.5c0-1.3-1-2-2-2c-1.1,0-1.9,0.8-1.9,2c0,1.2,0.8,2,1.9,2
					C958.6,301.5,959.5,300.7,959.5,299.5z"/>
				<path class="st8" d="M967.8,299v3.4h-1.1v-3.3c0-1-0.6-1.6-1.4-1.6s-1.8,0.5-1.8,1.7v3.1h-1.1v-5.8h1.1v0.9c0.3-0.7,1.3-1,1.9-1
					C966.9,296.5,967.8,297.4,967.8,299z"/>
				<path class="st8" d="M975.2,293.4v9h-1.1v-0.9c-0.4,0.7-1.2,1-2.1,1c-1.6,0-2.9-1.2-2.9-3c0-1.8,1.3-3,2.9-3
					c0.9,0,1.7,0.3,2.1,1v-4.1H975.2z M974.1,299.5c0-1.3-1-2-2-2c-1.1,0-1.9,0.8-1.9,2c0,1.2,0.8,2,1.9,2
					C973.2,301.5,974.1,300.7,974.1,299.5z"/>
				<path class="st8" d="M985.5,302.4h-1.1v-4.9h-2.6v4.9h-1.1v-4.9h-1.1v-0.9h1.1V296c0-1.5,0.6-2.6,2.2-2.6h0.5v1h-0.3
					c-1,0-1.3,0.6-1.3,1.4v0.8h3.7V302.4z M985.7,294.4c0,0.4-0.3,0.7-0.8,0.7c-0.4,0-0.8-0.3-0.8-0.7c0-0.4,0.3-0.7,0.8-0.7
					C985.4,293.7,985.7,294,985.7,294.4z"/>
				<path class="st8" d="M992.7,299v3.4h-1.1v-3.3c0-1-0.6-1.6-1.4-1.6s-1.8,0.5-1.8,1.7v3.1h-1.1v-5.8h1.1v0.9c0.3-0.7,1.3-1,1.9-1
					C991.8,296.5,992.7,297.4,992.7,299z"/>
				<path class="st8" d="M1000.1,296.6v5.8H999v-0.9c-0.4,0.7-1.2,1-2.1,1c-1.6,0-2.9-1.2-2.9-3c0-1.8,1.3-3,2.9-3
					c0.9,0,1.7,0.3,2.1,1v-0.9H1000.1z M999,299.5c0-1.3-1-2-2-2c-1.1,0-1.9,0.8-1.9,2c0,1.2,0.8,2,1.9,2
					C998.1,301.5,999,300.7,999,299.5z"/>
				<path class="st8" d="M1001.9,293.4h1.1v9h-1.1V293.4z"/>
				<path class="st8" d="M1010.8,297.5h-1.3v4.9h-1.1v-4.9h-1v-0.9h1v-2.2h1.1v2.2h1.3V297.5z"/>
				<path class="st8" d="M1011.5,299.5c0-1.8,1.4-3,3-3s3,1.2,3,3s-1.4,3-3,3S1011.5,301.3,1011.5,299.5z M1016.5,299.5
					c0-1.2-0.9-2-2-2c-1.1,0-1.9,0.8-1.9,2c0,1.2,0.9,2,1.9,2C1015.6,301.5,1016.5,300.7,1016.5,299.5z"/>
				<path class="st8" d="M1024.3,296.6v5.8h-1.1v-0.9c-0.3,0.7-1.3,1-1.9,1c-1.5,0-2.3-0.9-2.3-2.6v-3.4h1.1v3.3
					c0,1,0.6,1.6,1.4,1.6c0.8,0,1.8-0.5,1.8-1.7v-3.1H1024.3z"/>
				<path class="st8" d="M1025.7,299.5c0-1.8,1.5-3,3.1-3c0.9,0,1.7,0.4,2.2,0.9l-0.7,0.7c-0.4-0.4-0.9-0.6-1.5-0.6
					c-1.1,0-2.1,0.8-2.1,2c0,1.2,0.9,2,2.1,2c0.6,0,1.1-0.2,1.5-0.6l0.7,0.7c-0.5,0.6-1.3,0.9-2.2,0.9
					C1027.2,302.5,1025.7,301.3,1025.7,299.5z"/>
				<path class="st8" d="M1037.7,299v3.4h-1.1v-3.3c0-1-0.6-1.6-1.4-1.6s-1.8,0.5-1.8,1.7v3.1h-1.1v-9h1.1v4c0.3-0.7,1.3-1,1.9-1
					C1036.8,296.5,1037.7,297.4,1037.7,299z"/>
				<path class="st8" d="M1044.9,299.9h-4.7c0.2,1,0.9,1.5,1.9,1.5c0.7,0,1.4-0.3,1.7-0.9l0.9,0.4c-0.5,1-1.6,1.5-2.7,1.5
					c-1.7,0-3-1.2-3-3s1.3-3,3-3c1.7,0,2.9,1.2,2.9,3C1044.9,299.6,1044.9,299.8,1044.9,299.9z M1043.8,299c-0.1-1-0.8-1.5-1.8-1.5
					c-1,0-1.7,0.5-1.9,1.5H1043.8z"/>
				<path class="st8" d="M1045.9,300.7h1c0,0.5,0.4,0.9,1.2,0.9c0.7,0,1.2-0.3,1.2-0.8c0-0.4-0.3-0.7-0.8-0.8l-0.8-0.2
					c-1-0.3-1.5-0.7-1.5-1.7c0-1,0.8-1.7,2-1.7c1,0,2,0.5,2,1.7h-1c0-0.4-0.5-0.7-0.9-0.7c-0.6,0-0.9,0.3-0.9,0.8
					c0,0.4,0.4,0.6,0.7,0.7l0.9,0.2c1.2,0.3,1.5,1,1.5,1.7c0,1.1-1,1.7-2.2,1.7C1047,302.5,1045.9,301.8,1045.9,300.7z"/>
				<path class="st8" d="M908.2,314.1H907v4.9h-1.1v-4.9h-1v-0.9h1v-2.2h1.1v2.2h1.3V314.1z"/>
				<path class="st8" d="M908.9,316c0-1.8,1.4-3,3-3s3,1.2,3,3s-1.4,3-3,3S908.9,317.9,908.9,316z M913.9,316c0-1.2-0.9-2-2-2
					c-1.1,0-1.9,0.8-1.9,2c0,1.2,0.9,2,1.9,2C913,318.1,913.9,317.2,913.9,316z"/>
				<path class="st8" d="M919.2,316c0-1.8,1.4-3,3-3s3,1.2,3,3s-1.4,3-3,3S919.2,317.9,919.2,316z M924.2,316c0-1.2-0.9-2-2-2
					c-1.1,0-1.9,0.8-1.9,2c0,1.2,0.9,2,1.9,2C923.3,318.1,924.2,317.2,924.2,316z"/>
				<path class="st8" d="M932,313.1v5.8H931V318c-0.3,0.7-1.3,1-1.9,1c-1.5,0-2.3-0.9-2.3-2.6v-3.4h1.1v3.3c0,1,0.6,1.6,1.4,1.6
					c0.8,0,1.8-0.5,1.8-1.7v-3.1H932z"/>
				<path class="st8" d="M937.6,313.2l-0.2,1c-0.3-0.2-0.6-0.2-0.8-0.2c-1.2,0-1.6,1.2-1.6,2.8v2.1h-1.1v-5.8h1.1v1.3
					c0.3-1,0.9-1.4,1.6-1.4C937,313,937.4,313.1,937.6,313.2z"/>
				<path class="st8" d="M945.5,313.2l-0.2,1c-0.3-0.2-0.6-0.2-0.8-0.2c-1.2,0-1.6,1.2-1.6,2.8v2.1h-1.1v-5.8h1.1v1.3
					c0.3-1,0.9-1.4,1.6-1.4C944.9,313,945.4,313.1,945.5,313.2z"/>
				<path class="st8" d="M952,316.5h-4.7c0.2,1,0.9,1.5,1.9,1.5c0.7,0,1.4-0.3,1.7-0.9l0.9,0.4c-0.5,1-1.6,1.5-2.7,1.5
					c-1.7,0-3-1.2-3-3s1.3-3,3-3c1.7,0,2.9,1.2,2.9,3C952,316.2,952,316.4,952,316.5z M950.9,315.6c-0.1-1-0.8-1.5-1.8-1.5
					c-1,0-1.7,0.5-1.9,1.5H950.9z"/>
				<path class="st8" d="M953.1,316c0-1.8,1.5-3,3.1-3c0.9,0,1.7,0.4,2.2,0.9l-0.7,0.7c-0.4-0.4-0.9-0.6-1.5-0.6
					c-1.1,0-2.1,0.8-2.1,2c0,1.2,0.9,2,2.1,2c0.6,0,1.1-0.2,1.5-0.6l0.7,0.7c-0.5,0.6-1.3,0.9-2.2,0.9
					C954.6,319.1,953.1,317.9,953.1,316z"/>
				<path class="st8" d="M959.2,316c0-1.8,1.4-3,3-3s3,1.2,3,3s-1.4,3-3,3S959.2,317.9,959.2,316z M964.2,316c0-1.2-0.9-2-2-2
					c-1.1,0-1.9,0.8-1.9,2c0,1.2,0.9,2,1.9,2C963.3,318.1,964.2,317.2,964.2,316z"/>
				<path class="st8" d="M975.9,315.6v3.4h-1.1v-3.3c0-1-0.5-1.6-1.4-1.6c-1,0-1.7,0.9-1.6,2l0,0v3h-1.1v-3.3c0-1-0.5-1.6-1.3-1.6
					c-0.8,0-1.6,0.5-1.6,1.7v3.1h-1.1v-5.8h1.1v0.9c0.3-0.6,1-1,1.9-1c0.8,0,1.6,0.4,1.9,1.2c0.5-1,1.4-1.2,2-1.2
					C975.1,313,975.9,314,975.9,315.6z"/>
				<path class="st8" d="M986.8,315.6v3.4h-1.1v-3.3c0-1-0.5-1.6-1.4-1.6c-1,0-1.7,0.9-1.6,2l0,0v3h-1.1v-3.3c0-1-0.5-1.6-1.3-1.6
					c-0.8,0-1.6,0.5-1.6,1.7v3.1h-1.1v-5.8h1.1v0.9c0.3-0.6,1-1,1.9-1c0.8,0,1.6,0.4,1.9,1.2c0.5-1,1.4-1.2,2-1.2
					C986,313,986.8,314,986.8,315.6z"/>
				<path class="st8" d="M994,316.5h-4.7c0.2,1,0.9,1.5,1.9,1.5c0.7,0,1.4-0.3,1.7-0.9l0.9,0.4c-0.5,1-1.6,1.5-2.7,1.5
					c-1.7,0-3-1.2-3-3s1.3-3,3-3c1.7,0,2.9,1.2,2.9,3C994,316.2,994,316.4,994,316.5z M993,315.6c-0.1-1-0.8-1.5-1.8-1.5
					c-1,0-1.7,0.5-1.9,1.5H993z"/>
				<path class="st8" d="M1000.8,315.6v3.4h-1.1v-3.3c0-1-0.6-1.6-1.4-1.6s-1.8,0.5-1.8,1.7v3.1h-1.1v-5.8h1.1v0.9
					c0.3-0.7,1.3-1,1.9-1C999.9,313,1000.8,314,1000.8,315.6z"/>
				<path class="st8" d="M1008.3,310v9h-1.1V318c-0.4,0.7-1.2,1-2.1,1c-1.6,0-2.9-1.2-2.9-3c0-1.8,1.3-3,2.9-3c0.9,0,1.7,0.3,2.1,1
					V310H1008.3z M1007.2,316c0-1.3-1-2-2-2c-1.1,0-1.9,0.8-1.9,2c0,1.2,0.8,2,1.9,2C1006.2,318.1,1007.2,317.3,1007.2,316z"/>
				<path class="st8" d="M1015.8,313.1v5.8h-1.1V318c-0.4,0.7-1.2,1-2.1,1c-1.6,0-2.9-1.2-2.9-3c0-1.8,1.3-3,2.9-3
					c0.9,0,1.7,0.3,2.1,1v-0.9H1015.8z M1014.7,316c0-1.3-1-2-2-2c-1.1,0-1.9,0.8-1.9,2c0,1.2,0.8,2,1.9,2
					C1013.8,318.1,1014.7,317.3,1014.7,316z"/>
				<path class="st8" d="M1020.3,314.1h-1.3v4.9h-1.1v-4.9h-1v-0.9h1v-2.2h1.1v2.2h1.3V314.1z"/>
				<path class="st8" d="M1021.3,311c0-0.4,0.3-0.7,0.8-0.7c0.4,0,0.8,0.3,0.8,0.7c0,0.4-0.3,0.7-0.8,0.7
					C1021.6,311.7,1021.3,311.4,1021.3,311z M1021.5,313.1h1.1v5.8h-1.1V313.1z"/>
				<path class="st8" d="M1024,316c0-1.8,1.4-3,3-3s3,1.2,3,3s-1.4,3-3,3S1024,317.9,1024,316z M1029,316c0-1.2-0.9-2-2-2
					c-1.1,0-1.9,0.8-1.9,2c0,1.2,0.9,2,1.9,2C1028.1,318.1,1029,317.2,1029,316z"/>
				<path class="st8" d="M1036.9,315.6v3.4h-1.1v-3.3c0-1-0.6-1.6-1.4-1.6s-1.8,0.5-1.8,1.7v3.1h-1.1v-5.8h1.1v0.9
					c0.3-0.7,1.3-1,1.9-1C1036,313,1036.9,314,1036.9,315.6z"/>
				<path class="st8" d="M1047.3,316.5h-4.7c0.2,1,0.9,1.5,1.9,1.5c0.7,0,1.4-0.3,1.7-0.9l0.9,0.4c-0.5,1-1.6,1.5-2.7,1.5
					c-1.7,0-3-1.2-3-3s1.3-3,3-3c1.7,0,2.9,1.2,2.9,3C1047.3,316.2,1047.3,316.4,1047.3,316.5z M1046.2,315.6
					c-0.1-1-0.8-1.5-1.8-1.5c-1,0-1.7,0.5-1.9,1.5H1046.2z"/>
				<path class="st8" d="M1054.1,315.6v3.4h-1.1v-3.3c0-1-0.6-1.6-1.4-1.6s-1.8,0.5-1.8,1.7v3.1h-1.1v-5.8h1.1v0.9
					c0.3-0.7,1.3-1,1.9-1C1053.2,313,1054.1,314,1054.1,315.6z"/>
				<path class="st8" d="M1061.5,313.1v4.9c0,2.7-1.2,3.8-3.2,3.8c-1.1,0-2-0.5-2.6-1.6l0.9-0.5c0.4,0.7,1,1,1.7,1
					c1.3,0,2.1-0.7,2.1-2.7V318c-0.4,0.7-1.2,1-2.1,1c-1.6,0-2.9-1.2-2.9-3c0-1.8,1.3-3,2.9-3c0.9,0,1.7,0.4,2.1,1v-0.9H1061.5z
					 M1060.4,316c0-1.3-1-2-2-2c-1.1,0-1.9,0.8-1.9,2c0,1.2,0.8,2,1.9,2C1059.5,318.1,1060.4,317.3,1060.4,316z"/>
				<path class="st8" d="M1063.1,311c0-0.4,0.3-0.7,0.8-0.7c0.4,0,0.8,0.3,0.8,0.7c0,0.4-0.3,0.7-0.8,0.7
					C1063.5,311.7,1063.1,311.4,1063.1,311z M1063.3,313.1h1.1v5.8h-1.1V313.1z"/>
				<path class="st8" d="M1071.6,315.6v3.4h-1.1v-3.3c0-1-0.6-1.6-1.4-1.6s-1.8,0.5-1.8,1.7v3.1h-1.1v-5.8h1.1v0.9
					c0.3-0.7,1.3-1,1.9-1C1070.7,313,1071.6,314,1071.6,315.6z"/>
				<path class="st8" d="M1078.8,316.5h-4.7c0.2,1,0.9,1.5,1.9,1.5c0.7,0,1.4-0.3,1.7-0.9l0.9,0.4c-0.5,1-1.6,1.5-2.7,1.5
					c-1.7,0-3-1.2-3-3s1.3-3,3-3c1.7,0,2.9,1.2,2.9,3C1078.8,316.2,1078.8,316.4,1078.8,316.5z M1077.7,315.6
					c-0.1-1-0.8-1.5-1.8-1.5c-1,0-1.7,0.5-1.9,1.5H1077.7z"/>
			</g>
		</g>
		<g>
			<circle class="st2" cx="882" cy="346.6" r="12.4"/>
			<g>
				<path class="st7" d="M885.4,348c0,1.8-1.5,3.1-3.7,3.1c-1.4,0-2.6-0.6-3.3-1.8l1.4-1.1c0.5,0.6,1.1,1,1.8,1
					c1.1,0,1.8-0.6,1.8-1.4c0-0.8-0.7-1.4-1.7-1.4h-1v-1.6h0.6c1.1,0,1.7-0.6,1.7-1.3c0-0.6-0.6-1-1.3-1c-0.6,0-1.3,0.3-1.7,0.8
					l-1.1-1.3c0.7-0.8,1.8-1.4,3-1.4c1.8,0,3.2,1.1,3.1,2.8c0,0.8-0.5,1.6-1.3,2C884.7,345.9,885.4,346.8,885.4,348z"/>
			</g>
			<g>
				<path class="st8" d="M905.7,341.2h1.1v7.5h3.5v1h-4.6V341.2z"/>
				<path class="st8" d="M917.1,343.9v5.8h-1.1v-0.9c-0.4,0.7-1.2,1-2.1,1c-1.6,0-2.9-1.2-2.9-3c0-1.8,1.3-3,2.9-3
					c0.9,0,1.7,0.3,2.1,1v-0.9H917.1z M916.1,346.8c0-1.3-1-2-2-2c-1.1,0-1.9,0.8-1.9,2c0,1.2,0.8,2,1.9,2
					C915.1,348.8,916.1,348.1,916.1,346.8z"/>
				<path class="st8" d="M924.2,343.9v5.8h-1.1v-0.9c-0.3,0.7-1.3,1-1.9,1c-1.5,0-2.3-0.9-2.3-2.6v-3.4h1.1v3.3c0,1,0.6,1.6,1.4,1.6
					c0.8,0,1.8-0.5,1.8-1.7v-3.1H924.2z"/>
				<path class="st8" d="M931.4,346.4v3.4h-1.1v-3.3c0-1-0.6-1.6-1.4-1.6s-1.8,0.5-1.8,1.7v3.1h-1.1v-5.8h1.1v0.9
					c0.3-0.7,1.3-1,1.9-1C930.5,343.8,931.4,344.7,931.4,346.4z"/>
				<path class="st8" d="M932.8,346.8c0-1.8,1.5-3,3.1-3c0.9,0,1.7,0.4,2.2,0.9l-0.7,0.7c-0.4-0.4-0.9-0.6-1.5-0.6
					c-1.1,0-2.1,0.8-2.1,2c0,1.2,0.9,2,2.1,2c0.6,0,1.1-0.2,1.5-0.6l0.7,0.7c-0.5,0.6-1.3,0.9-2.2,0.9
					C934.2,349.8,932.8,348.7,932.8,346.8z"/>
				<path class="st8" d="M944.7,346.4v3.4h-1.1v-3.3c0-1-0.6-1.6-1.4-1.6s-1.8,0.5-1.8,1.7v3.1h-1.1v-9h1.1v4c0.3-0.7,1.3-1,1.9-1
					C943.8,343.8,944.7,344.7,944.7,346.4z"/>
				<path class="st8" d="M949.2,346.8c0-1.8,1.4-3,3-3s3,1.2,3,3s-1.4,3-3,3S949.2,348.6,949.2,346.8z M954.2,346.8c0-1.2-0.9-2-2-2
					c-1.1,0-1.9,0.8-1.9,2c0,1.2,0.9,2,1.9,2C953.3,348.8,954.2,348,954.2,346.8z"/>
				<path class="st8" d="M960.5,344l-0.2,1c-0.3-0.1-0.6-0.2-0.8-0.2c-1.2,0-1.6,1.2-1.6,2.8v2.1h-1.1v-5.8h1.1v1.3
					c0.3-1,0.9-1.4,1.6-1.4C959.9,343.8,960.3,343.9,960.5,344z"/>
				<path class="st8" d="M964.3,346.8c0-1.8,1.4-3,3-3s3,1.2,3,3s-1.4,3-3,3S964.3,348.6,964.3,346.8z M969.3,346.8c0-1.2-0.9-2-2-2
					c-1.1,0-1.9,0.8-1.9,2c0,1.2,0.9,2,1.9,2C968.4,348.8,969.3,348,969.3,346.8z"/>
				<path class="st8" d="M977.1,343.9v5.8H976v-0.9c-0.3,0.7-1.3,1-1.9,1c-1.5,0-2.3-0.9-2.3-2.6v-3.4h1.1v3.3c0,1,0.6,1.6,1.4,1.6
					c0.8,0,1.8-0.5,1.8-1.7v-3.1H977.1z"/>
				<path class="st8" d="M982.7,344l-0.2,1c-0.3-0.1-0.6-0.2-0.8-0.2c-1.2,0-1.6,1.2-1.6,2.8v2.1H979v-5.8h1.1v1.3
					c0.3-1,0.9-1.4,1.6-1.4C982.1,343.8,982.5,343.9,982.7,344z"/>
				<path class="st8" d="M986.5,346.8c0-1.8,1.5-3,3.1-3c0.9,0,1.7,0.4,2.2,0.9l-0.7,0.7c-0.4-0.4-0.9-0.6-1.5-0.6
					c-1.1,0-2.1,0.8-2.1,2c0,1.2,0.9,2,2.1,2c0.6,0,1.1-0.2,1.5-0.6l0.7,0.7c-0.5,0.6-1.3,0.9-2.2,0.9
					C988,349.8,986.5,348.7,986.5,346.8z"/>
				<path class="st8" d="M992.6,346.8c0-1.8,1.4-3,3-3s3,1.2,3,3s-1.4,3-3,3S992.6,348.6,992.6,346.8z M997.6,346.8c0-1.2-0.9-2-2-2
					c-1.1,0-1.9,0.8-1.9,2c0,1.2,0.9,2,1.9,2C996.7,348.8,997.6,348,997.6,346.8z"/>
				<path class="st8" d="M1009.3,346.4v3.4h-1.1v-3.3c0-1-0.5-1.6-1.4-1.6c-1,0-1.7,0.9-1.6,2l0-0.1v3h-1.1v-3.3
					c0-1-0.5-1.6-1.3-1.6c-0.8,0-1.6,0.5-1.6,1.7v3.1h-1.1v-5.8h1.1v0.9c0.3-0.6,1-1,1.9-1c0.8,0,1.6,0.4,1.9,1.2
					c0.5-1,1.4-1.2,2-1.2C1008.5,343.8,1009.3,344.7,1009.3,346.4z"/>
				<path class="st8" d="M1020.2,346.4v3.4h-1.1v-3.3c0-1-0.5-1.6-1.4-1.6c-1,0-1.7,0.9-1.6,2l0-0.1v3h-1.1v-3.3
					c0-1-0.5-1.6-1.3-1.6c-0.8,0-1.6,0.5-1.6,1.7v3.1h-1.1v-5.8h1.1v0.9c0.3-0.6,1-1,1.9-1c0.8,0,1.6,0.4,1.9,1.2
					c0.5-1,1.4-1.2,2-1.2C1019.4,343.8,1020.2,344.7,1020.2,346.4z"/>
				<path class="st8" d="M1027.4,347.3h-4.7c0.2,1,0.9,1.5,1.9,1.5c0.7,0,1.4-0.3,1.7-0.9l0.9,0.4c-0.5,1-1.6,1.5-2.7,1.5
					c-1.7,0-3-1.2-3-3s1.3-3,3-3c1.7,0,2.9,1.2,2.9,3C1027.4,347,1027.4,347.1,1027.4,347.3z M1026.4,346.4c-0.1-1-0.8-1.5-1.8-1.5
					c-1,0-1.7,0.5-1.9,1.5H1026.4z"/>
				<path class="st8" d="M1032.6,344l-0.2,1c-0.3-0.1-0.6-0.2-0.8-0.2c-1.2,0-1.6,1.2-1.6,2.8v2.1h-1.1v-5.8h1.1v1.3
					c0.3-1,0.9-1.4,1.6-1.4C1032,343.8,1032.4,343.9,1032.6,344z"/>
				<path class="st8" d="M1033.2,346.8c0-1.8,1.5-3,3.1-3c0.9,0,1.7,0.4,2.2,0.9l-0.7,0.7c-0.4-0.4-0.9-0.6-1.5-0.6
					c-1.1,0-2.1,0.8-2.1,2c0,1.2,0.9,2,2.1,2c0.6,0,1.1-0.2,1.5-0.6l0.7,0.7c-0.5,0.6-1.3,0.9-2.2,0.9
					C1034.7,349.8,1033.2,348.7,1033.2,346.8z"/>
				<path class="st8" d="M1039.6,341.8c0-0.4,0.3-0.7,0.8-0.7c0.4,0,0.8,0.3,0.8,0.7s-0.3,0.7-0.8,0.7
					C1039.9,342.5,1039.6,342.2,1039.6,341.8z M1039.8,343.9h1.1v5.8h-1.1V343.9z"/>
				<path class="st8" d="M1048.4,343.9v5.8h-1.1v-0.9c-0.4,0.7-1.2,1-2.1,1c-1.6,0-2.9-1.2-2.9-3c0-1.8,1.3-3,2.9-3
					c0.9,0,1.7,0.3,2.1,1v-0.9H1048.4z M1047.3,346.8c0-1.3-1-2-2-2c-1.1,0-1.9,0.8-1.9,2c0,1.2,0.8,2,1.9,2
					C1046.3,348.8,1047.3,348.1,1047.3,346.8z"/>
				<path class="st8" d="M1050.2,340.8h1.1v9h-1.1V340.8z"/>
				<path class="st8" d="M910.2,364.1h-3.7l-0.8,2.2h-1.2l3.3-8.6h1.2l3.3,8.6h-1.2L910.2,364.1z M909.9,363.1l-1.5-3.9l-1.5,3.9
					H909.9z"/>
				<path class="st8" d="M913.5,357.7h1.1v8.6h-1.1V357.7z"/>
				<path class="st8" d="M925.5,360.5v5.8h-1.1v-0.9c-0.4,0.7-1.2,1-2.1,1c-1.6,0-2.9-1.2-2.9-3c0-1.8,1.3-3,2.9-3
					c0.9,0,1.7,0.3,2.1,1v-0.9H925.5z M924.4,363.4c0-1.3-1-2-2-2c-1.1,0-1.9,0.8-1.9,2c0,1.2,0.8,2,1.9,2
					C923.5,365.4,924.4,364.6,924.4,363.4z"/>
				<path class="st8" d="M932.7,362.9v3.4h-1.1V363c0-1-0.6-1.6-1.4-1.6s-1.8,0.5-1.8,1.7v3.1h-1.1v-5.8h1.1v0.9
					c0.3-0.7,1.3-1,1.9-1C931.8,360.4,932.7,361.3,932.7,362.9z"/>
				<path class="st8" d="M940.1,357.3v9H939v-0.9c-0.4,0.7-1.2,1-2.1,1c-1.6,0-2.9-1.2-2.9-3c0-1.8,1.3-3,2.9-3c0.9,0,1.7,0.3,2.1,1
					v-4.1H940.1z M939,363.4c0-1.3-1-2-2-2c-1.1,0-1.9,0.8-1.9,2c0,1.2,0.8,2,1.9,2C938.1,365.4,939,364.6,939,363.4z"/>
				<path class="st8" d="M947.6,363.1h-1.1v3.2h-1.1v-8.6h3.2c1.9,0,2.6,1.3,2.6,2.7c0,1.2-0.6,2.5-2.2,2.6l2.3,3.2h-1.4
					L947.6,363.1z M946.5,362h1.8c1.3,0,1.8-0.7,1.8-1.6c0-1-0.6-1.6-1.4-1.6h-2.1V362z"/>
				<path class="st8" d="M958.1,363.9h-4.7c0.2,1,0.9,1.5,1.9,1.5c0.7,0,1.4-0.3,1.7-0.9l0.9,0.4c-0.5,1-1.6,1.5-2.7,1.5
					c-1.7,0-3-1.2-3-3s1.3-3,3-3c1.7,0,2.9,1.2,2.9,3C958.1,363.5,958.1,363.7,958.1,363.9z M957,362.9c-0.1-1-0.8-1.5-1.8-1.5
					c-1,0-1.7,0.5-1.9,1.5H957z"/>
				<path class="st8" d="M965.6,363.4c0,1.8-1.3,3-2.9,3c-0.8,0-1.7-0.4-2.1-1v0.9h-1.1v-9h1.1v4.1c0.4-0.7,1.2-1,2.1-1
					C964.3,360.4,965.6,361.5,965.6,363.4z M964.5,363.4c0-1.2-0.8-2-1.9-2c-0.9,0-2,0.7-2,2c0,1.2,0.9,2,2,2
					C963.7,365.4,964.5,364.5,964.5,363.4z"/>
				<path class="st8" d="M970.8,360.6l-0.2,1c-0.3-0.1-0.6-0.2-0.8-0.2c-1.2,0-1.6,1.2-1.6,2.8v2.1h-1.1v-5.8h1.1v1.3
					c0.3-1,0.9-1.4,1.6-1.4C970.2,360.4,970.6,360.5,970.8,360.6z"/>
				<path class="st8" d="M977.5,360.5v5.8h-1.1v-0.9c-0.4,0.7-1.2,1-2.1,1c-1.6,0-2.9-1.2-2.9-3c0-1.8,1.3-3,2.9-3
					c0.9,0,1.7,0.3,2.1,1v-0.9H977.5z M976.4,363.4c0-1.3-1-2-2-2c-1.1,0-1.9,0.8-1.9,2c0,1.2,0.8,2,1.9,2
					C975.5,365.4,976.4,364.6,976.4,363.4z"/>
				<path class="st8" d="M984.6,362.9v3.4h-1.1V363c0-1-0.6-1.6-1.4-1.6s-1.8,0.5-1.8,1.7v3.1h-1.1v-5.8h1.1v0.9
					c0.3-0.7,1.3-1,1.9-1C983.7,360.4,984.6,361.3,984.6,362.9z"/>
				<path class="st8" d="M992.1,357.3v9H991v-0.9c-0.4,0.7-1.2,1-2.1,1c-1.6,0-2.9-1.2-2.9-3c0-1.8,1.3-3,2.9-3c0.9,0,1.7,0.3,2.1,1
					v-4.1H992.1z M991,363.4c0-1.3-1-2-2-2c-1.1,0-1.9,0.8-1.9,2c0,1.2,0.8,2,1.9,2C990,365.4,991,364.6,991,363.4z"/>
				<path class="st8" d="M993.7,358.4c0-0.4,0.3-0.7,0.8-0.7c0.4,0,0.8,0.3,0.8,0.7s-0.3,0.7-0.8,0.7
					C994,359.1,993.7,358.8,993.7,358.4z M993.9,360.5h1.1v5.8h-1.1V360.5z"/>
				<path class="st8" d="M1002.1,362.9v3.4h-1.1V363c0-1-0.6-1.6-1.4-1.6s-1.8,0.5-1.8,1.7v3.1h-1.1v-5.8h1.1v0.9
					c0.3-0.7,1.3-1,1.9-1C1001.2,360.4,1002.1,361.3,1002.1,362.9z"/>
				<path class="st8" d="M1009.5,360.5v4.9c0,2.7-1.2,3.8-3.2,3.8c-1.1,0-2-0.5-2.6-1.6l0.9-0.5c0.4,0.7,1,1,1.7,1
					c1.3,0,2.1-0.7,2.1-2.7v-0.1c-0.4,0.7-1.2,1-2.1,1c-1.6,0-2.9-1.2-2.9-3c0-1.8,1.3-3,2.9-3c0.9,0,1.7,0.4,2.1,1v-0.9H1009.5z
					 M1008.5,363.4c0-1.3-1-2-2-2c-1.1,0-1.9,0.8-1.9,2c0,1.2,0.8,2,1.9,2C1007.5,365.4,1008.5,364.6,1008.5,363.4z"/>
				<path class="st8" d="M1017.4,361.4h-1.3v4.9h-1.1v-4.9h-1v-0.9h1v-2.2h1.1v2.2h1.3V361.4z"/>
				<path class="st8" d="M1018,363.4c0-1.8,1.4-3,3-3s3,1.2,3,3s-1.4,3-3,3S1018,365.2,1018,363.4z M1023,363.4c0-1.2-0.9-2-2-2
					c-1.1,0-1.9,0.8-1.9,2c0,1.2,0.9,2,1.9,2C1022.1,365.4,1023,364.6,1023,363.4z"/>
				<path class="st8" d="M1034.2,365.2v1h-5.2v-8.6h5v1h-3.9v2.8h3.4v1.1h-3.4v2.6H1034.2z"/>
				<path class="st8" d="M1044.8,362.9v3.4h-1.1V363c0-1-0.5-1.6-1.4-1.6c-1,0-1.7,0.9-1.6,2l0-0.1v3h-1.1V363c0-1-0.5-1.6-1.3-1.6
					c-0.8,0-1.6,0.5-1.6,1.7v3.1h-1.1v-5.8h1.1v0.9c0.3-0.6,1-1,1.9-1c0.8,0,1.6,0.4,1.9,1.2c0.5-1,1.4-1.2,2-1.2
					C1044,360.4,1044.8,361.3,1044.8,362.9z"/>
				<path class="st8" d="M1052.6,363.4c0,1.8-1.3,3-2.9,3c-0.8,0-1.7-0.4-2.1-1v0.9h-1.1v-9h1.1v4.1c0.4-0.7,1.2-1,2.1-1
					C1051.3,360.4,1052.6,361.5,1052.6,363.4z M1051.5,363.4c0-1.2-0.8-2-1.9-2c-0.9,0-2,0.7-2,2c0,1.2,0.9,2,2,2
					C1050.7,365.4,1051.5,364.5,1051.5,363.4z"/>
				<path class="st8" d="M1053.7,363.4c0-1.8,1.4-3,3-3s3,1.2,3,3s-1.4,3-3,3S1053.7,365.2,1053.7,363.4z M1058.7,363.4
					c0-1.2-0.9-2-2-2c-1.1,0-1.9,0.8-1.9,2c0,1.2,0.9,2,1.9,2C1057.8,365.4,1058.7,364.6,1058.7,363.4z"/>
				<path class="st8" d="M1061.2,357.3h1.1v9h-1.1V357.3z"/>
				<path class="st8" d="M1069.8,357.3v9h-1.1v-0.9c-0.4,0.7-1.2,1-2.1,1c-1.6,0-2.9-1.2-2.9-3c0-1.8,1.3-3,2.9-3
					c0.9,0,1.7,0.3,2.1,1v-4.1H1069.8z M1068.8,363.4c0-1.3-1-2-2-2c-1.1,0-1.9,0.8-1.9,2c0,1.2,0.8,2,1.9,2
					C1067.8,365.4,1068.8,364.6,1068.8,363.4z"/>
			</g>
		</g>
	</g>
	<g>
		
			<image style="overflow:visible;opacity:8.000000e-02;" width="278" height="103" xlink:href="A5CA69B4C0E36FF0.png"  transform="matrix(1 0 0 1 420.6457 52)">
		</image>
		<g>
			<path class="st9" d="M682,140.7H436.8c-2.2,0-4-1.8-4-4V66.6c0-2.2,1.8-4,4-4H682c2.2,0,4,1.8,4,4v70.1
				C686,138.9,684.2,140.7,682,140.7z"/>
		</g>
	</g>
	<g>
		
			<image style="overflow:visible;opacity:8.000000e-02;" width="263" height="103" xlink:href="A5CA69B4C0E36FF1.png"  transform="matrix(1 0 0 1 776.6456 52)">
		</image>
		<g>
			<path class="st9" d="M1023.4,140.7H792.9c-2.2,0-4-1.8-4-4V66.6c0-2.2,1.8-4,4-4h230.5c2.2,0,4,1.8,4,4v70.1
				C1027.4,138.9,1025.6,140.7,1023.4,140.7z"/>
		</g>
	</g>
	<g>
		
			<image style="overflow:visible;opacity:8.000000e-02;" width="278" height="103" xlink:href="A5CA69B4C0E36FF6.png"  transform="matrix(1 0 0 1 63.6456 52)">
		</image>
		<g>
			<path class="st9" d="M325.6,140.7H80.4c-2.2,0-4-1.8-4-4V66.6c0-2.2,1.8-4,4-4h245.2c2.2,0,4,1.8,4,4v70.1
				C329.6,138.9,327.8,140.7,325.6,140.7z"/>
		</g>
	</g>
	<g>
		<path class="st7" d="M99,78h1.1v7.5h3.5v1H99V78z"/>
		<path class="st7" d="M110.2,84.2h-4.7c0.2,1,0.9,1.5,1.9,1.5c0.7,0,1.4-0.3,1.7-0.9l0.9,0.4c-0.5,1-1.6,1.5-2.7,1.5
			c-1.7,0-3-1.2-3-3s1.3-3,3-3s2.9,1.2,2.9,3C110.2,83.8,110.2,84,110.2,84.2z M109.1,83.2c-0.1-1-0.8-1.5-1.8-1.5
			c-1,0-1.7,0.5-1.9,1.5H109.1z"/>
		<path class="st7" d="M117.4,80.8v5.8h-1.1v-0.9c-0.4,0.7-1.2,1-2.1,1c-1.6,0-2.9-1.2-2.9-3c0-1.8,1.3-3,2.9-3c0.9,0,1.7,0.3,2.1,1
			v-0.9H117.4z M116.3,83.7c0-1.3-1-2-2-2c-1.1,0-1.9,0.8-1.9,2c0,1.2,0.8,2,1.9,2C115.3,85.7,116.3,84.9,116.3,83.7z"/>
		<path class="st7" d="M124.9,77.6v9h-1.1v-0.9c-0.4,0.7-1.2,1-2.1,1c-1.6,0-2.9-1.2-2.9-3c0-1.8,1.3-3,2.9-3c0.9,0,1.7,0.3,2.1,1
			v-4.1H124.9z M123.8,83.7c0-1.3-1-2-2-2c-1.1,0-1.9,0.8-1.9,2c0,1.2,0.8,2,1.9,2C122.9,85.7,123.8,84.9,123.8,83.7z"/>
		<path class="st7" d="M126.5,78.7c0-0.4,0.3-0.7,0.8-0.7c0.4,0,0.8,0.3,0.8,0.7c0,0.4-0.3,0.7-0.8,0.7
			C126.8,79.4,126.5,79.1,126.5,78.7z M126.7,80.8h1.1v5.8h-1.1V80.8z"/>
		<path class="st7" d="M134.9,83.2v3.4h-1.1v-3.3c0-1-0.6-1.6-1.4-1.6c-0.8,0-1.8,0.5-1.8,1.7v3.1h-1.1v-5.8h1.1v0.9
			c0.3-0.7,1.3-1,1.9-1C134,80.7,135,81.6,134.9,83.2z"/>
		<path class="st7" d="M142.4,80.8v4.9c0,2.7-1.2,3.8-3.2,3.8c-1.1,0-2-0.5-2.6-1.6l0.9-0.5c0.4,0.7,1,1,1.7,1
			c1.3,0,2.1-0.7,2.1-2.7v-0.1c-0.4,0.7-1.2,1-2.1,1c-1.6,0-2.9-1.2-2.9-3c0-1.8,1.3-3,2.9-3c0.9,0,1.7,0.4,2.1,1v-0.9H142.4z
			 M141.3,83.7c0-1.3-1-2-2-2c-1.1,0-1.9,0.8-1.9,2c0,1.2,0.8,2,1.9,2C140.3,85.7,141.3,84.9,141.3,83.7z"/>
		<path class="st7" d="M150.2,81.7h-1.3v4.9h-1.1v-4.9h-1v-0.9h1v-2.2h1.1v2.2h1.3V81.7z"/>
		<path class="st7" d="M156.7,83.2v3.4h-1.1v-3.3c0-1-0.6-1.6-1.4-1.6c-0.8,0-1.8,0.5-1.8,1.7v3.1h-1.1v-9h1.1v4
			c0.3-0.7,1.3-1,1.9-1C155.8,80.7,156.7,81.6,156.7,83.2z"/>
		<path class="st7" d="M163.9,84.2h-4.7c0.2,1,0.9,1.5,1.9,1.5c0.7,0,1.4-0.3,1.7-0.9l0.9,0.4c-0.5,1-1.6,1.5-2.7,1.5
			c-1.7,0-3-1.2-3-3s1.3-3,3-3s2.9,1.2,2.9,3C163.9,83.8,163.9,84,163.9,84.2z M162.8,83.2c-0.1-1-0.8-1.5-1.8-1.5
			c-1,0-1.7,0.5-1.9,1.5H162.8z"/>
		<path class="st7" d="M168.2,82.3c0-2.4,1.9-4.4,4.3-4.4c1.1,0,2.1,0.4,2.9,1.1l-0.8,0.7c-0.5-0.5-1.3-0.8-2.1-0.8
			c-1.8,0-3.2,1.5-3.2,3.4s1.4,3.3,3.2,3.3c1.5,0,2.6-0.8,2.8-2.2c0-0.1,0-0.1,0-0.2h-2.5v-1h3.7c0,3-1.6,4.4-4,4.4
			C170.1,86.7,168.2,84.8,168.2,82.3z"/>
		<path class="st7" d="M178,77.6h1.1v9H178V77.6z"/>
		<path class="st7" d="M180.5,83.7c0-1.8,1.4-3,3-3s3,1.2,3,3s-1.4,3-3,3S180.5,85.5,180.5,83.7z M185.5,83.7c0-1.2-0.9-2-2-2
			c-1.1,0-1.9,0.8-1.9,2c0,1.2,0.9,2,1.9,2C184.6,85.7,185.5,84.9,185.5,83.7z"/>
		<path class="st7" d="M194.1,83.7c0,1.8-1.3,3-2.9,3c-0.8,0-1.7-0.4-2.1-1v0.9h-1.1v-9h1.1v4.1c0.4-0.7,1.2-1,2.1-1
			C192.8,80.7,194.1,81.9,194.1,83.7z M193,83.7c0-1.2-0.8-2-1.9-2c-0.9,0-2,0.7-2,2c0,1.2,0.9,2,2,2C192.2,85.7,193,84.8,193,83.7z
			"/>
		<path class="st7" d="M201.3,80.8v5.8h-1.1v-0.9c-0.4,0.7-1.2,1-2.1,1c-1.6,0-2.9-1.2-2.9-3c0-1.8,1.3-3,2.9-3c0.9,0,1.7,0.3,2.1,1
			v-0.9H201.3z M200.2,83.7c0-1.3-1-2-2-2c-1.1,0-1.9,0.8-1.9,2c0,1.2,0.8,2,1.9,2C199.3,85.7,200.2,84.9,200.2,83.7z"/>
		<path class="st7" d="M203.1,77.6h1.1v9h-1.1V77.6z"/>
		<path class="st7" d="M214.6,84c0,1.7-1.2,2.7-2.9,2.7c-1.4,0-2.4-0.8-2.9-1.8l0.9-0.5c0.3,0.7,1,1.3,2,1.3c1.1,0,1.8-0.7,1.8-1.7
			c0-1-0.8-1.7-1.8-1.7c-0.7,0-1.4,0.3-2,0.7l-0.7-0.6l0.7-4h4.3v1h-3.4l-0.5,2.4c0.5-0.3,1.1-0.6,1.8-0.6
			C213.5,81.4,214.6,82.4,214.6,84z"/>
		<path class="st7" d="M215.2,88.4c0.7-1,1.1-1.8,0.9-3.3h1.1c0.1,1.4-0.3,2.8-1.3,3.6L215.2,88.4z"/>
		<path class="st7" d="M218.9,82.6c0-2.3,0.6-4.2,2.9-4.2c2.3,0,2.9,1.9,2.9,4.2c0,2.3-0.6,4.2-2.9,4.2
			C219.5,86.7,218.9,84.8,218.9,82.6z M223.7,82.6c0-1.7-0.4-3.2-1.9-3.2c-1.5,0-1.9,1.4-1.9,3.2c0,1.7,0.4,3.1,1.9,3.1
			C223.3,85.7,223.7,84.3,223.7,82.6z"/>
		<path class="st7" d="M226.4,82.6c0-2.3,0.6-4.2,2.9-4.2c2.3,0,2.9,1.9,2.9,4.2c0,2.3-0.6,4.2-2.9,4.2
			C227,86.7,226.4,84.8,226.4,82.6z M231.2,82.6c0-1.7-0.4-3.2-1.9-3.2c-1.5,0-1.9,1.4-1.9,3.2c0,1.7,0.4,3.1,1.9,3.1
			C230.8,85.7,231.2,84.3,231.2,82.6z"/>
		<path class="st7" d="M233.8,82.6c0-2.3,0.6-4.2,2.9-4.2c2.3,0,2.9,1.9,2.9,4.2c0,2.3-0.6,4.2-2.9,4.2
			C234.5,86.7,233.8,84.8,233.8,82.6z M238.7,82.6c0-1.7-0.4-3.2-1.9-3.2c-1.5,0-1.9,1.4-1.9,3.2c0,1.7,0.4,3.1,1.9,3.1
			C238.3,85.7,238.7,84.3,238.7,82.6z"/>
		<path class="st7" d="M244.3,78.7c0-0.4,0.3-0.7,0.8-0.7c0.4,0,0.8,0.3,0.8,0.7c0,0.4-0.3,0.7-0.8,0.7
			C244.7,79.4,244.3,79.1,244.3,78.7z M244.6,80.8h1.1v5.8h-1.1V80.8z"/>
		<path class="st7" d="M252.8,83.2v3.4h-1.1v-3.3c0-1-0.6-1.6-1.4-1.6c-0.8,0-1.8,0.5-1.8,1.7v3.1h-1.1v-5.8h1.1v0.9
			c0.3-0.7,1.3-1,1.9-1C251.9,80.7,252.8,81.6,252.8,83.2z"/>
		<path class="st7" d="M257.4,84.2h1.1c0,0.8,0.8,1.5,1.9,1.5c1.1,0,1.7-0.7,1.7-1.5c0-0.8-0.8-1.2-1.5-1.4l-1.1-0.3
			c-1.8-0.4-2.1-1.5-2.1-2.2c0-1.5,1.3-2.4,2.8-2.4c1.5,0,2.7,1,2.7,2.5h-1.1c0-0.9-0.7-1.4-1.6-1.4c-0.9,0-1.7,0.5-1.7,1.4
			c0,0.3,0.1,0.9,1.2,1.2l1.1,0.3c1.5,0.4,2.3,1.2,2.3,2.4c0,1.3-1.1,2.5-2.9,2.5C258.6,86.7,257.4,85.5,257.4,84.2z"/>
		<path class="st7" d="M264.5,83.7c0-1.8,1.4-3,3-3s3,1.2,3,3s-1.4,3-3,3S264.5,85.5,264.5,83.7z M269.5,83.7c0-1.2-0.9-2-2-2
			c-1.1,0-1.9,0.8-1.9,2c0,1.2,0.9,2,1.9,2C268.6,85.7,269.5,84.9,269.5,83.7z"/>
		<path class="st7" d="M273.5,80v0.8h1.4v0.9h-1.4v4.9h-1.1v-4.9h-1.1v-0.9h1.1v-0.6c0-1.5,0.6-2.6,2.2-2.6h0.6v1h-0.4
			C273.7,78.7,273.5,79.3,273.5,80z"/>
		<path class="st7" d="M279,81.7h-1.3v4.9h-1.1v-4.9h-1v-0.9h1v-2.2h1.1v2.2h1.3V81.7z"/>
		<path class="st7" d="M289.1,80.8l-2.2,5.8H286l-1.6-4.3l-1.5,4.3H282l-2.2-5.8h1.2l1.5,4.1l1.5-4.1h1.1l1.5,4.1l1.5-4.1H289.1z"/>
		<path class="st7" d="M295.7,80.8v5.8h-1.1v-0.9c-0.4,0.7-1.2,1-2.1,1c-1.6,0-2.9-1.2-2.9-3c0-1.8,1.3-3,2.9-3c0.9,0,1.7,0.3,2.1,1
			v-0.9H295.7z M294.6,83.7c0-1.3-1-2-2-2c-1.1,0-1.9,0.8-1.9,2c0,1.2,0.8,2,1.9,2C293.7,85.7,294.6,84.9,294.6,83.7z"/>
		<path class="st7" d="M301.3,80.9l-0.2,1c-0.3-0.1-0.6-0.2-0.8-0.2c-1.2,0-1.6,1.2-1.6,2.8v2.1h-1.1v-5.8h1.1v1.3
			c0.3-1,0.9-1.4,1.6-1.4C300.7,80.7,301.1,80.8,301.3,80.9z"/>
		<path class="st7" d="M307.7,84.2H303c0.2,1,0.9,1.5,1.9,1.5c0.7,0,1.4-0.3,1.7-0.9l0.9,0.4c-0.5,1-1.6,1.5-2.7,1.5
			c-1.7,0-3-1.2-3-3s1.3-3,3-3s2.9,1.2,2.9,3C307.8,83.8,307.7,84,307.7,84.2z M306.7,83.2c-0.1-1-0.8-1.5-1.8-1.5
			c-1,0-1.7,0.5-1.9,1.5H306.7z"/>
		<path class="st7" d="M116.6,100.3c0,1.8-1.3,3-2.9,3c-0.9,0-1.7-0.3-2.1-1v3.7h-1.1v-8.6h1.1v0.9c0.4-0.7,1.2-1,2.1-1
			C115.3,97.2,116.6,98.4,116.6,100.3z M115.5,100.3c0-1.2-0.8-2-1.9-2c-1,0-2,0.8-2,2c0,1.3,1,2,2,2
			C114.7,102.3,115.5,101.5,115.5,100.3z"/>
		<path class="st7" d="M121.8,97.5l-0.2,1c-0.3-0.1-0.6-0.2-0.8-0.2c-1.2,0-1.6,1.2-1.6,2.8v2.1h-1.1v-5.8h1.1v1.3
			c0.3-1,0.9-1.4,1.6-1.4C121.2,97.2,121.7,97.4,121.8,97.5z"/>
		<path class="st7" d="M122.4,100.2c0-1.8,1.4-3,3-3s3,1.2,3,3s-1.4,3-3,3S122.4,102.1,122.4,100.2z M127.4,100.2c0-1.2-0.9-2-2-2
			c-1.1,0-1.9,0.8-1.9,2c0,1.2,0.9,2,1.9,2C126.5,102.3,127.4,101.5,127.4,100.2z"/>
		<path class="st7" d="M128.2,105h0.7c1,0,1.1-0.8,1.1-1.5v-6.1h1.1v6.1c0,1.4-0.5,2.5-2.1,2.5h-0.7V105z M129.8,95.2
			c0-0.4,0.3-0.7,0.8-0.7c0.4,0,0.8,0.3,0.8,0.7c0,0.4-0.3,0.7-0.8,0.7C130.1,95.9,129.8,95.6,129.8,95.2z"/>
		<path class="st7" d="M138.3,100.7h-4.7c0.2,1,0.9,1.5,1.9,1.5c0.7,0,1.4-0.3,1.7-0.9l0.9,0.4c-0.5,1-1.6,1.5-2.7,1.5
			c-1.7,0-3-1.2-3-3s1.3-3,3-3s2.9,1.2,2.9,3C138.3,100.4,138.3,100.6,138.3,100.7z M137.3,99.8c-0.1-1-0.8-1.5-1.8-1.5
			c-1,0-1.7,0.5-1.9,1.5H137.3z"/>
		<path class="st7" d="M139.4,100.3c0-1.8,1.5-3,3.1-3c0.9,0,1.7,0.4,2.2,0.9l-0.7,0.7c-0.4-0.4-0.9-0.6-1.5-0.6
			c-1.1,0-2.1,0.8-2.1,2s0.9,2,2.1,2c0.6,0,1.1-0.2,1.5-0.6l0.7,0.7c-0.5,0.6-1.3,0.9-2.2,0.9C140.9,103.3,139.4,102.1,139.4,100.3z
			"/>
		<path class="st7" d="M149.1,98.3h-1.3v4.9h-1.1v-4.9h-1v-0.9h1v-2.2h1.1v2.2h1.3V98.3z"/>
		<path class="st7" d="M156.2,98.3h-1.3v4.9h-1.1v-4.9h-1v-0.9h1v-2.2h1.1v2.2h1.3V98.3z"/>
		<path class="st7" d="M162.6,97.4v5.8h-1.1v-0.9c-0.3,0.7-1.3,1-1.9,1c-1.5,0-2.3-0.9-2.3-2.6v-3.4h1.1v3.3c0,1,0.6,1.6,1.4,1.6
			c0.8,0,1.8-0.5,1.8-1.7v-3.1H162.6z"/>
		<path class="st7" d="M168.2,97.5l-0.2,1c-0.3-0.1-0.6-0.2-0.8-0.2c-1.2,0-1.6,1.2-1.6,2.8v2.1h-1.1v-5.8h1.1v1.3
			c0.3-1,0.9-1.4,1.6-1.4C167.6,97.2,168,97.4,168.2,97.5z"/>
		<path class="st7" d="M174.6,99.8v3.4h-1.1v-3.3c0-1-0.6-1.6-1.4-1.6c-0.8,0-1.8,0.5-1.8,1.7v3.1h-1.1v-5.8h1.1v0.9
			c0.3-0.7,1.3-1,1.9-1C173.7,97.2,174.6,98.2,174.6,99.8z"/>
		<path class="st7" d="M182,97.4v5.8H181v-0.9c-0.4,0.7-1.2,1-2.1,1c-1.6,0-2.9-1.2-2.9-3c0-1.8,1.3-3,2.9-3c0.9,0,1.7,0.3,2.1,1
			v-0.9H182z M181,100.2c0-1.3-1-2-2-2c-1.1,0-1.9,0.8-1.9,2c0,1.2,0.8,2,1.9,2C180,102.3,181,101.5,181,100.2z"/>
		<path class="st7" d="M187.6,97.5l-0.2,1c-0.3-0.1-0.6-0.2-0.8-0.2c-1.2,0-1.6,1.2-1.6,2.8v2.1h-1.1v-5.8h1.1v1.3
			c0.3-1,0.9-1.4,1.6-1.4C187,97.2,187.4,97.4,187.6,97.5z"/>
		<path class="st7" d="M188.2,100.2c0-1.8,1.4-3,3-3s3,1.2,3,3s-1.4,3-3,3S188.2,102.1,188.2,100.2z M193.2,100.2c0-1.2-0.9-2-2-2
			c-1.1,0-1.9,0.8-1.9,2c0,1.2,0.9,2,1.9,2C192.3,102.3,193.2,101.5,193.2,100.2z"/>
		<path class="st7" d="M201,97.4v5.8h-1.1v-0.9c-0.3,0.7-1.3,1-1.9,1c-1.5,0-2.3-0.9-2.3-2.6v-3.4h1.1v3.3c0,1,0.6,1.6,1.4,1.6
			c0.8,0,1.8-0.5,1.8-1.7v-3.1H201z"/>
		<path class="st7" d="M208.2,99.8v3.4h-1.1v-3.3c0-1-0.6-1.6-1.4-1.6c-0.8,0-1.8,0.5-1.8,1.7v3.1h-1.1v-5.8h1.1v0.9
			c0.3-0.7,1.3-1,1.9-1C207.3,97.2,208.2,98.2,208.2,99.8z"/>
		<path class="st7" d="M215.6,94.2v9h-1.1v-0.9c-0.4,0.7-1.2,1-2.1,1c-1.6,0-2.9-1.2-2.9-3c0-1.8,1.3-3,2.9-3c0.9,0,1.7,0.3,2.1,1
			v-4.1H215.6z M214.5,100.2c0-1.3-1-2-2-2c-1.1,0-1.9,0.8-1.9,2c0,1.2,0.8,2,1.9,2C213.6,102.3,214.5,101.5,214.5,100.2z"/>
		<path class="st7" d="M226.3,97.4v5.8h-1.1v-0.9c-0.4,0.7-1.2,1-2.1,1c-1.6,0-2.9-1.2-2.9-3c0-1.8,1.3-3,2.9-3c0.9,0,1.7,0.3,2.1,1
			v-0.9H226.3z M225.2,100.2c0-1.3-1-2-2-2c-1.1,0-1.9,0.8-1.9,2c0,1.2,0.8,2,1.9,2C224.3,102.3,225.2,101.5,225.2,100.2z"/>
		<path class="st7" d="M233.4,99.8v3.4h-1.1v-3.3c0-1-0.6-1.6-1.4-1.6c-0.8,0-1.8,0.5-1.8,1.7v3.1h-1.1v-5.8h1.1v0.9
			c0.3-0.7,1.3-1,1.9-1C232.5,97.2,233.4,98.2,233.4,99.8z"/>
		<path class="st7" d="M240.9,94.2v9h-1.1v-0.9c-0.4,0.7-1.2,1-2.1,1c-1.6,0-2.9-1.2-2.9-3c0-1.8,1.3-3,2.9-3c0.9,0,1.7,0.3,2.1,1
			v-4.1H240.9z M239.8,100.2c0-1.3-1-2-2-2c-1.1,0-1.9,0.8-1.9,2c0,1.2,0.8,2,1.9,2C238.8,102.3,239.8,101.5,239.8,100.2z"/>
		<path class="st7" d="M245.6,100.7h1.1c0,0.8,0.8,1.5,1.9,1.5c1.1,0,1.7-0.7,1.7-1.5c0-0.8-0.8-1.2-1.5-1.4l-1.1-0.3
			c-1.8-0.4-2.1-1.5-2.1-2.2c0-1.5,1.3-2.4,2.8-2.4c1.5,0,2.7,1,2.7,2.5H250c0-0.9-0.7-1.4-1.6-1.4c-0.9,0-1.7,0.5-1.7,1.4
			c0,0.3,0.1,0.9,1.2,1.2l1.1,0.3c1.5,0.4,2.3,1.2,2.3,2.4c0,1.3-1.1,2.5-2.9,2.5C246.8,103.3,245.6,102,245.6,100.7z"/>
		<path class="st7" d="M252.6,100.2c0-1.8,1.4-3,3-3s3,1.2,3,3s-1.4,3-3,3S252.6,102.1,252.6,100.2z M257.6,100.2c0-1.2-0.9-2-2-2
			c-1.1,0-1.9,0.8-1.9,2c0,1.2,0.9,2,1.9,2C256.7,102.3,257.6,101.5,257.6,100.2z"/>
		<path class="st7" d="M261.6,96.6v0.8h1.4v0.9h-1.4v4.9h-1.1v-4.9h-1.1v-0.9h1.1v-0.6c0-1.5,0.6-2.6,2.2-2.6h0.6v1h-0.4
			C261.9,95.2,261.6,95.8,261.6,96.6z"/>
		<path class="st7" d="M267.2,98.3h-1.3v4.9h-1.1v-4.9h-1v-0.9h1v-2.2h1.1v2.2h1.3V98.3z"/>
		<path class="st7" d="M277.3,97.4l-2.2,5.8h-0.9l-1.6-4.3l-1.5,4.3h-0.9l-2.2-5.8h1.2l1.5,4.1l1.5-4.1h1.1l1.5,4.1l1.5-4.1H277.3z"
			/>
		<path class="st7" d="M283.9,97.4v5.8h-1.1v-0.9c-0.4,0.7-1.2,1-2.1,1c-1.6,0-2.9-1.2-2.9-3c0-1.8,1.3-3,2.9-3c0.9,0,1.7,0.3,2.1,1
			v-0.9H283.9z M282.8,100.2c0-1.3-1-2-2-2c-1.1,0-1.9,0.8-1.9,2c0,1.2,0.8,2,1.9,2C281.9,102.3,282.8,101.5,282.8,100.2z"/>
		<path class="st7" d="M289.4,97.5l-0.2,1c-0.3-0.1-0.6-0.2-0.8-0.2c-1.2,0-1.6,1.2-1.6,2.8v2.1h-1.1v-5.8h1.1v1.3
			c0.3-1,0.9-1.4,1.6-1.4C288.8,97.2,289.2,97.4,289.4,97.5z"/>
		<path class="st7" d="M295.9,100.7h-4.7c0.2,1,0.9,1.5,1.9,1.5c0.7,0,1.4-0.3,1.7-0.9l0.9,0.4c-0.5,1-1.6,1.5-2.7,1.5
			c-1.7,0-3-1.2-3-3s1.3-3,3-3s2.9,1.2,2.9,3C295.9,100.4,295.9,100.6,295.9,100.7z M294.8,99.8c-0.1-1-0.8-1.5-1.8-1.5
			c-1,0-1.7,0.5-1.9,1.5H294.8z"/>
		<path class="st7" d="M153.7,113.9v8.6h-1.1v-3.7c-0.4,0.7-1.2,1-2.1,1c-1.6,0-2.9-1.2-2.9-3c0-1.8,1.3-3,2.9-3
			c0.8,0,1.7,0.4,2.1,1v-0.9H153.7z M152.6,116.8c0-1.2-0.9-2-2-2c-1.1,0-1.9,0.9-1.9,2c0,1.2,0.8,2,1.9,2
			C151.6,118.8,152.6,118.1,152.6,116.8z"/>
		<path class="st7" d="M160.8,113.9v5.8h-1.1v-0.9c-0.3,0.7-1.3,1-1.9,1c-1.5,0-2.3-0.9-2.3-2.6v-3.4h1.1v3.3c0,1,0.6,1.6,1.4,1.6
			c0.8,0,1.8-0.5,1.8-1.7v-3.1H160.8z"/>
		<path class="st7" d="M168.3,113.9v5.8h-1.1v-0.9c-0.4,0.7-1.2,1-2.1,1c-1.6,0-2.9-1.2-2.9-3c0-1.8,1.3-3,2.9-3
			c0.9,0,1.7,0.3,2.1,1v-0.9H168.3z M167.2,116.8c0-1.3-1-2-2-2c-1.1,0-1.9,0.8-1.9,2c0,1.2,0.8,2,1.9,2
			C166.3,118.8,167.2,118.1,167.2,116.8z"/>
		<path class="st7" d="M170.1,110.8h1.1v9h-1.1V110.8z"/>
		<path class="st7" d="M172.8,111.8c0-0.4,0.3-0.7,0.8-0.7c0.4,0,0.8,0.3,0.8,0.7c0,0.4-0.3,0.7-0.8,0.7
			C173.1,112.5,172.8,112.2,172.8,111.8z M173,113.9h1.1v5.8H173V113.9z"/>
		<path class="st7" d="M178.6,114.9h-1.3v4.9h-1.1v-4.9h-1v-0.9h1v-2.2h1.1v2.2h1.3V114.9z"/>
		<path class="st7" d="M185.3,113.9l-3.6,8.6h-1.1l1.2-3l-2.3-5.6h1.2l1.8,4.3l1.8-4.3H185.3z"/>
		<path class="st7" d="M195.2,113.9v5.8h-1.1v-0.9c-0.4,0.7-1.2,1-2.1,1c-1.6,0-2.9-1.2-2.9-3c0-1.8,1.3-3,2.9-3
			c0.9,0,1.7,0.3,2.1,1v-0.9H195.2z M194.1,116.8c0-1.3-1-2-2-2c-1.1,0-1.9,0.8-1.9,2c0,1.2,0.8,2,1.9,2
			C193.2,118.8,194.1,118.1,194.1,116.8z"/>
		<path class="st7" d="M196.6,118h1c0,0.5,0.4,0.9,1.2,0.9c0.7,0,1.2-0.3,1.2-0.8c0-0.4-0.3-0.7-0.8-0.8l-0.8-0.2
			c-1-0.3-1.5-0.7-1.5-1.7c0-1,0.8-1.7,2-1.7c1,0,2,0.5,2,1.7h-1c0-0.4-0.5-0.7-0.9-0.7c-0.6,0-0.9,0.3-0.9,0.8
			c0,0.4,0.4,0.6,0.7,0.7l0.9,0.2c1.2,0.3,1.5,1,1.5,1.7c0,1.1-1,1.7-2.2,1.7C197.7,119.9,196.7,119.2,196.6,118z"/>
		<path class="st7" d="M202.1,118h1c0,0.5,0.4,0.9,1.2,0.9c0.7,0,1.2-0.3,1.2-0.8c0-0.4-0.3-0.7-0.8-0.8l-0.8-0.2
			c-1-0.3-1.5-0.7-1.5-1.7c0-1,0.8-1.7,2-1.7c1,0,2,0.5,2,1.7h-1c0-0.4-0.5-0.7-0.9-0.7c-0.6,0-0.9,0.3-0.9,0.8
			c0,0.4,0.4,0.6,0.7,0.7l0.9,0.2c1.2,0.3,1.5,1,1.5,1.7c0,1.1-1,1.7-2.2,1.7C203.2,119.9,202.1,119.2,202.1,118z"/>
		<path class="st7" d="M213.4,117.3h-4.7c0.2,1,0.9,1.5,1.9,1.5c0.7,0,1.4-0.3,1.7-0.9l0.9,0.4c-0.5,1-1.6,1.5-2.7,1.5
			c-1.7,0-3-1.2-3-3s1.3-3,3-3s2.9,1.2,2.9,3C213.4,117,213.4,117.1,213.4,117.3z M212.3,116.4c-0.1-1-0.8-1.5-1.8-1.5
			c-1,0-1.7,0.5-1.9,1.5H212.3z"/>
		<path class="st7" d="M214.4,118h1c0,0.5,0.4,0.9,1.2,0.9c0.7,0,1.2-0.3,1.2-0.8c0-0.4-0.3-0.7-0.8-0.8l-0.8-0.2
			c-1-0.3-1.5-0.7-1.5-1.7c0-1,0.8-1.7,2-1.7c1,0,2,0.5,2,1.7h-1c0-0.4-0.5-0.7-0.9-0.7c-0.6,0-0.9,0.3-0.9,0.8
			c0,0.4,0.4,0.6,0.7,0.7l0.9,0.2c1.2,0.3,1.5,1,1.5,1.7c0,1.1-1,1.7-2.2,1.7C215.5,119.9,214.4,119.2,214.4,118z"/>
		<path class="st7" d="M219.8,118h1c0,0.5,0.4,0.9,1.2,0.9c0.7,0,1.2-0.3,1.2-0.8c0-0.4-0.3-0.7-0.8-0.8l-0.8-0.2
			c-1-0.3-1.5-0.7-1.5-1.7c0-1,0.8-1.7,2-1.7c1,0,2,0.5,2,1.7h-1c0-0.4-0.5-0.7-0.9-0.7c-0.6,0-0.9,0.3-0.9,0.8
			c0,0.4,0.4,0.6,0.7,0.7l0.9,0.2c1.2,0.3,1.5,1,1.5,1.7c0,1.1-1,1.7-2.2,1.7C220.9,119.9,219.9,119.2,219.8,118z"/>
		<path class="st7" d="M234.8,116.4v3.4h-1.1v-3.3c0-1-0.5-1.6-1.4-1.6c-1,0-1.7,0.9-1.6,2l0,0v3h-1.1v-3.3c0-1-0.5-1.6-1.3-1.6
			c-0.8,0-1.6,0.5-1.6,1.7v3.1h-1.1v-5.8h1.1v0.9c0.3-0.6,1-1,1.9-1c0.8,0,1.6,0.4,1.9,1.2c0.5-1,1.4-1.2,2-1.2
			C234,113.8,234.8,114.7,234.8,116.4z"/>
		<path class="st7" d="M242,117.3h-4.7c0.2,1,0.9,1.5,1.9,1.5c0.7,0,1.4-0.3,1.7-0.9l0.9,0.4c-0.5,1-1.6,1.5-2.7,1.5
			c-1.7,0-3-1.2-3-3s1.3-3,3-3s2.9,1.2,2.9,3C242.1,117,242.1,117.1,242,117.3z M241,116.4c-0.1-1-0.8-1.5-1.8-1.5
			c-1,0-1.7,0.5-1.9,1.5H241z"/>
		<path class="st7" d="M248.9,116.4v3.4h-1.1v-3.3c0-1-0.6-1.6-1.4-1.6c-0.8,0-1.8,0.5-1.8,1.7v3.1h-1.1v-5.8h1.1v0.9
			c0.3-0.7,1.3-1,1.9-1C248,113.8,248.9,114.7,248.9,116.4z"/>
		<path class="st7" d="M253.3,114.9H252v4.9h-1.1v-4.9h-1v-0.9h1v-2.2h1.1v2.2h1.3V114.9z"/>
		<path class="st7" d="M254.1,118h1c0,0.5,0.4,0.9,1.2,0.9c0.7,0,1.2-0.3,1.2-0.8c0-0.4-0.3-0.7-0.8-0.8l-0.8-0.2
			c-1-0.3-1.5-0.7-1.5-1.7c0-1,0.8-1.7,2-1.7c1,0,2,0.5,2,1.7h-1c0-0.4-0.5-0.7-0.9-0.7c-0.6,0-0.9,0.3-0.9,0.8
			c0,0.4,0.4,0.6,0.7,0.7l0.9,0.2c1.2,0.3,1.5,1,1.5,1.7c0,1.1-1,1.7-2.2,1.7C255.2,119.9,254.1,119.2,254.1,118z"/>
	</g>
	<g>
		<path class="st7" d="M465.5,86.8h1.1v8.6h-1.1V86.8z"/>
		<path class="st7" d="M474,92v3.4h-1.1v-3.3c0-1-0.6-1.6-1.4-1.6c-0.8,0-1.8,0.5-1.8,1.7v3.1h-1.1v-5.8h1.1v0.9
			c0.3-0.7,1.3-1,1.9-1C473.1,89.5,474,90.4,474,92z"/>
		<path class="st7" d="M478.4,90.5h-1.3v4.9h-1.1v-4.9h-1v-0.9h1v-2.2h1.1v2.2h1.3V90.5z"/>
		<path class="st7" d="M484.9,93h-4.7c0.2,1,0.9,1.5,1.9,1.5c0.7,0,1.4-0.3,1.7-0.9l0.9,0.4c-0.5,1-1.6,1.5-2.7,1.5
			c-1.7,0-3-1.2-3-3s1.3-3,3-3s2.9,1.2,2.9,3C485,92.6,485,92.8,484.9,93z M483.9,92c-0.1-1-0.8-1.5-1.8-1.5c-1,0-1.7,0.5-1.9,1.5
			H483.9z"/>
		<path class="st7" d="M486.4,86.4h1.1v9h-1.1V86.4z"/>
		<path class="st7" d="M489.3,86.4h1.1v9h-1.1V86.4z"/>
		<path class="st7" d="M492,87.4c0-0.4,0.3-0.7,0.8-0.7c0.4,0,0.8,0.3,0.8,0.7c0,0.4-0.3,0.7-0.8,0.7C492.3,88.2,492,87.9,492,87.4z
			 M492.2,89.6h1.1v5.8h-1.1V89.6z"/>
		<path class="st7" d="M500.7,89.6v4.9c0,2.7-1.2,3.8-3.2,3.8c-1.1,0-2-0.5-2.6-1.6l0.9-0.5c0.4,0.7,1,1,1.7,1
			c1.3,0,2.1-0.7,2.1-2.7v-0.1c-0.4,0.7-1.2,1-2.1,1c-1.6,0-2.9-1.2-2.9-3c0-1.8,1.3-3,2.9-3c0.9,0,1.7,0.4,2.1,1v-0.9H500.7z
			 M499.7,92.5c0-1.3-1-2-2-2c-1.1,0-1.9,0.8-1.9,2c0,1.2,0.8,2,1.9,2C498.7,94.5,499.7,93.7,499.7,92.5z"/>
		<path class="st7" d="M508,93h-4.7c0.2,1,0.9,1.5,1.9,1.5c0.7,0,1.4-0.3,1.7-0.9l0.9,0.4c-0.5,1-1.6,1.5-2.7,1.5c-1.7,0-3-1.2-3-3
			s1.3-3,3-3s2.9,1.2,2.9,3C508.1,92.6,508.1,92.8,508,93z M507,92c-0.1-1-0.8-1.5-1.8-1.5c-1,0-1.7,0.5-1.9,1.5H507z"/>
		<path class="st7" d="M514.9,92v3.4h-1.1v-3.3c0-1-0.6-1.6-1.4-1.6c-0.8,0-1.8,0.5-1.8,1.7v3.1h-1.1v-5.8h1.1v0.9
			c0.3-0.7,1.3-1,1.9-1C514,89.5,514.9,90.4,514.9,92z"/>
		<path class="st7" d="M519.3,90.5H518v4.9h-1.1v-4.9h-1v-0.9h1v-2.2h1.1v2.2h1.3V90.5z"/>
		<path class="st7" d="M523.3,92.9h1.1c0,0.8,0.8,1.5,1.9,1.5c1.1,0,1.7-0.7,1.7-1.5c0-0.8-0.8-1.2-1.5-1.4l-1.1-0.3
			c-1.8-0.4-2.1-1.5-2.1-2.2c0-1.5,1.3-2.4,2.8-2.4c1.5,0,2.7,1,2.7,2.5h-1.1c0-0.9-0.7-1.4-1.6-1.4c-0.9,0-1.7,0.5-1.7,1.4
			c0,0.3,0.1,0.9,1.2,1.2l1.1,0.3c1.5,0.4,2.3,1.2,2.3,2.4c0,1.3-1.1,2.5-2.9,2.5C524.5,95.5,523.3,94.3,523.3,92.9z"/>
		<path class="st7" d="M533.4,90.5h-1.3v4.9H531v-4.9h-1v-0.9h1v-2.2h1.1v2.2h1.3V90.5z"/>
		<path class="st7" d="M540.1,89.6v5.8H539v-0.9c-0.4,0.7-1.2,1-2.1,1c-1.6,0-2.9-1.2-2.9-3c0-1.8,1.3-3,2.9-3c0.9,0,1.7,0.3,2.1,1
			v-0.9H540.1z M539,92.5c0-1.3-1-2-2-2c-1.1,0-1.9,0.8-1.9,2c0,1.2,0.8,2,1.9,2C538.1,94.5,539,93.7,539,92.5z"/>
		<path class="st7" d="M544.7,90.5h-1.3v4.9h-1.1v-4.9h-1v-0.9h1v-2.2h1.1v2.2h1.3V90.5z"/>
		<path class="st7" d="M545.6,87.4c0-0.4,0.3-0.7,0.8-0.7c0.4,0,0.8,0.3,0.8,0.7c0,0.4-0.3,0.7-0.8,0.7
			C546,88.2,545.6,87.9,545.6,87.4z M545.8,89.6h1.1v5.8h-1.1V89.6z"/>
		<path class="st7" d="M548.3,92.5c0-1.8,1.5-3,3.1-3c0.9,0,1.7,0.4,2.2,0.9l-0.7,0.7c-0.4-0.4-0.9-0.6-1.5-0.6
			c-1.1,0-2.1,0.8-2.1,2s0.9,2,2.1,2c0.6,0,1.1-0.2,1.5-0.6l0.7,0.7c-0.5,0.6-1.3,0.9-2.2,0.9C549.7,95.5,548.3,94.3,548.3,92.5z"/>
		<path class="st7" d="M562.9,93.2h-3.7l-0.8,2.2h-1.2l3.3-8.6h1.2l3.3,8.6h-1.2L562.9,93.2z M562.5,92.2l-1.5-3.9l-1.5,3.9H562.5z"
			/>
		<path class="st7" d="M571.3,92v3.4h-1.1v-3.3c0-1-0.6-1.6-1.4-1.6s-1.8,0.5-1.8,1.7v3.1H566v-5.8h1.1v0.9c0.3-0.7,1.3-1,1.9-1
			C570.4,89.5,571.3,90.4,571.3,92z"/>
		<path class="st7" d="M578.8,89.6v5.8h-1.1v-0.9c-0.4,0.7-1.2,1-2.1,1c-1.6,0-2.9-1.2-2.9-3c0-1.8,1.3-3,2.9-3c0.9,0,1.7,0.3,2.1,1
			v-0.9H578.8z M577.7,92.5c0-1.3-1-2-2-2c-1.1,0-1.9,0.8-1.9,2c0,1.2,0.8,2,1.9,2C576.7,94.5,577.7,93.7,577.7,92.5z"/>
		<path class="st7" d="M580.6,86.4h1.1v9h-1.1V86.4z"/>
		<path class="st7" d="M588.6,89.6l-3.6,8.6h-1.1l1.2-3l-2.3-5.6h1.2l1.8,4.3l1.8-4.3H588.6z"/>
		<path class="st7" d="M589.2,93.7h1c0,0.5,0.4,0.9,1.2,0.9c0.7,0,1.2-0.3,1.2-0.8c0-0.4-0.3-0.7-0.8-0.8l-0.8-0.2
			c-1-0.3-1.5-0.7-1.5-1.7c0-1,0.8-1.7,2-1.7c1,0,2,0.5,2,1.7h-1c0-0.4-0.5-0.7-0.9-0.7c-0.6,0-0.9,0.3-0.9,0.8
			c0,0.4,0.4,0.6,0.7,0.7l0.9,0.2c1.2,0.3,1.5,1,1.5,1.7c0,1.1-1,1.7-2.2,1.7C590.3,95.5,589.2,94.9,589.2,93.7z"/>
		<path class="st7" d="M594.8,87.4c0-0.4,0.3-0.7,0.8-0.7c0.4,0,0.8,0.3,0.8,0.7c0,0.4-0.3,0.7-0.8,0.7
			C595.2,88.2,594.8,87.9,594.8,87.4z M595,89.6h1.1v5.8H595V89.6z"/>
		<path class="st7" d="M597.5,93.7h1c0,0.5,0.4,0.9,1.2,0.9c0.7,0,1.2-0.3,1.2-0.8c0-0.4-0.3-0.7-0.8-0.8l-0.8-0.2
			c-1-0.3-1.5-0.7-1.5-1.7c0-1,0.8-1.7,2-1.7c1,0,2,0.5,2,1.7h-1c0-0.4-0.5-0.7-0.9-0.7c-0.6,0-0.9,0.3-0.9,0.8
			c0,0.4,0.4,0.6,0.7,0.7l0.9,0.2c1.2,0.3,1.5,1,1.5,1.7c0,1.1-1,1.7-2.2,1.7C598.6,95.5,597.6,94.9,597.5,93.7z"/>
		<path class="st7" d="M612.7,89.5c0,1.4-0.7,2.7-2.5,2.7h-2.3v3.2h-1.1v-8.6h3.4C612,86.8,612.7,88.2,612.7,89.5z M611.6,89.5
			c0-0.8-0.4-1.6-1.4-1.6h-2.3v3.2h2.2C611.2,91.1,611.6,90.3,611.6,89.5z"/>
		<path class="st7" d="M614,86.4h1.1v9H614V86.4z"/>
		<path class="st7" d="M622.6,89.6v5.8h-1.1v-0.9c-0.4,0.7-1.2,1-2.1,1c-1.6,0-2.9-1.2-2.9-3c0-1.8,1.3-3,2.9-3c0.9,0,1.7,0.3,2.1,1
			v-0.9H622.6z M621.5,92.5c0-1.3-1-2-2-2c-1.1,0-1.9,0.8-1.9,2c0,1.2,0.8,2,1.9,2C620.6,94.5,621.5,93.7,621.5,92.5z"/>
		<path class="st7" d="M627.2,90.5h-1.3v4.9h-1.1v-4.9h-1v-0.9h1v-2.2h1.1v2.2h1.3V90.5z"/>
		<path class="st7" d="M630.2,88.8v0.8h1.4v0.9h-1.4v4.9h-1.1v-4.9H628v-0.9h1.1V89c0-1.5,0.6-2.6,2.2-2.6h0.6v1h-0.4
			C630.4,87.4,630.2,88.1,630.2,88.8z"/>
		<path class="st7" d="M632.2,92.5c0-1.8,1.4-3,3-3s3,1.2,3,3s-1.4,3-3,3S632.2,94.3,632.2,92.5z M637.2,92.5c0-1.2-0.9-2-2-2
			c-1.1,0-1.9,0.8-1.9,2c0,1.2,0.9,2,1.9,2C636.3,94.5,637.2,93.7,637.2,92.5z"/>
		<path class="st7" d="M643.5,89.7l-0.2,1c-0.3-0.1-0.6-0.2-0.8-0.2c-1.2,0-1.6,1.2-1.6,2.8v2.1h-1.1v-5.8h1.1v1.3
			c0.3-1,0.9-1.4,1.6-1.4C642.9,89.5,643.3,89.6,643.5,89.7z"/>
		<path class="st7" d="M653.7,92v3.4h-1.1v-3.3c0-1-0.5-1.6-1.4-1.6c-1,0-1.7,0.9-1.6,2l0,0v3h-1.1v-3.3c0-1-0.5-1.6-1.3-1.6
			c-0.8,0-1.6,0.5-1.6,1.7v3.1h-1.1v-5.8h1.1v0.9c0.3-0.6,1-1,1.9-1c0.8,0,1.6,0.4,1.9,1.2c0.5-1,1.4-1.2,2-1.2
			C652.9,89.5,653.7,90.4,653.7,92z"/>
		<path class="st7" d="M454.5,107.7c0-2.4,1.9-4.4,4.3-4.4c1.1,0,2.1,0.4,2.9,1.1l-0.8,0.7c-0.5-0.5-1.3-0.8-2.1-0.8
			c-1.8,0-3.2,1.5-3.2,3.4s1.4,3.3,3.2,3.3c1.5,0,2.6-0.8,2.8-2.2c0-0.1,0-0.1,0-0.2h-2.5v-1h3.7c0,3-1.6,4.4-4,4.4
			C456.4,112.1,454.5,110.1,454.5,107.7z"/>
		<path class="st7" d="M470,106.1v5.8h-1.1V111c-0.4,0.7-1.2,1-2.1,1c-1.6,0-2.9-1.2-2.9-3c0-1.8,1.3-3,2.9-3c0.9,0,1.7,0.3,2.1,1
			v-0.9H470z M468.9,109c0-1.3-1-2-2-2c-1.1,0-1.9,0.8-1.9,2c0,1.2,0.8,2,1.9,2C468,111.1,468.9,110.3,468.9,109z"/>
		<path class="st7" d="M480.9,108.6v3.4h-1.1v-3.3c0-1-0.5-1.6-1.4-1.6c-1,0-1.7,0.9-1.6,2l0,0v3h-1.1v-3.3c0-1-0.5-1.6-1.3-1.6
			c-0.8,0-1.6,0.5-1.6,1.7v3.1h-1.1v-5.8h1.1v0.9c0.3-0.6,1-1,1.9-1c0.8,0,1.6,0.4,1.9,1.2c0.5-1,1.4-1.2,2-1.2
			C480.1,106,480.9,107,480.9,108.6z"/>
		<path class="st7" d="M491.8,108.6v3.4h-1.1v-3.3c0-1-0.5-1.6-1.4-1.6c-1,0-1.7,0.9-1.6,2l0,0v3h-1.1v-3.3c0-1-0.5-1.6-1.3-1.6
			c-0.8,0-1.6,0.5-1.6,1.7v3.1h-1.1v-5.8h1.1v0.9c0.3-0.6,1-1,1.9-1c0.8,0,1.6,0.4,1.9,1.2c0.5-1,1.4-1.2,2-1.2
			C491,106,491.8,107,491.8,108.6z"/>
		<path class="st7" d="M499.3,106.1v5.8h-1.1V111c-0.4,0.7-1.2,1-2.1,1c-1.6,0-2.9-1.2-2.9-3c0-1.8,1.3-3,2.9-3c0.9,0,1.7,0.3,2.1,1
			v-0.9H499.3z M498.2,109c0-1.3-1-2-2-2c-1.1,0-1.9,0.8-1.9,2c0,1.2,0.8,2,1.9,2C497.3,111.1,498.2,110.3,498.2,109z"/>
		<path class="st7" d="M504.3,103h1.1v9h-1.1V103z"/>
		<path class="st7" d="M512.9,106.1v5.8h-1.1V111c-0.4,0.7-1.2,1-2.1,1c-1.6,0-2.9-1.2-2.9-3c0-1.8,1.3-3,2.9-3c0.9,0,1.7,0.3,2.1,1
			v-0.9H512.9z M511.8,109c0-1.3-1-2-2-2c-1.1,0-1.9,0.8-1.9,2c0,1.2,0.8,2,1.9,2C510.9,111.1,511.8,110.3,511.8,109z"/>
		<path class="st7" d="M520,106.1v5.8h-1.1V111c-0.3,0.7-1.3,1-1.9,1c-1.5,0-2.3-0.9-2.3-2.6v-3.4h1.1v3.3c0,1,0.6,1.6,1.4,1.6
			c0.8,0,1.8-0.5,1.8-1.7v-3.1H520z"/>
		<path class="st7" d="M527.2,108.6v3.4h-1.1v-3.3c0-1-0.6-1.6-1.4-1.6c-0.8,0-1.8,0.5-1.8,1.7v3.1h-1.1v-5.8h1.1v0.9
			c0.3-0.7,1.3-1,1.9-1C526.3,106,527.2,107,527.2,108.6z"/>
		<path class="st7" d="M528.5,109c0-1.8,1.5-3,3.1-3c0.9,0,1.7,0.4,2.2,0.9l-0.7,0.7c-0.4-0.4-0.9-0.6-1.5-0.6c-1.1,0-2.1,0.8-2.1,2
			s0.9,2,2.1,2c0.6,0,1.1-0.2,1.5-0.6l0.7,0.7c-0.5,0.6-1.3,0.9-2.2,0.9C530,112.1,528.5,110.9,528.5,109z"/>
		<path class="st7" d="M540.5,108.6v3.4h-1.1v-3.3c0-1-0.6-1.6-1.4-1.6c-0.8,0-1.8,0.5-1.8,1.7v3.1h-1.1v-9h1.1v4
			c0.3-0.7,1.3-1,1.9-1C539.6,106,540.5,107,540.5,108.6z"/>
		<path class="st7" d="M547.7,109.5h-4.7c0.2,1,0.9,1.5,1.9,1.5c0.7,0,1.4-0.3,1.7-0.9l0.9,0.4c-0.5,1-1.6,1.5-2.7,1.5
			c-1.7,0-3-1.2-3-3s1.3-3,3-3s2.9,1.2,2.9,3C547.7,109.2,547.7,109.4,547.7,109.5z M546.6,108.6c-0.1-1-0.8-1.5-1.8-1.5
			c-1,0-1.7,0.5-1.9,1.5H546.6z"/>
		<path class="st7" d="M554.8,103v9h-1.1V111c-0.4,0.7-1.2,1-2.1,1c-1.6,0-2.9-1.2-2.9-3c0-1.8,1.3-3,2.9-3c0.9,0,1.7,0.3,2.1,1V103
			H554.8z M553.7,109c0-1.3-1-2-2-2c-1.1,0-1.9,0.8-1.9,2c0,1.2,0.8,2,1.9,2C552.8,111.1,553.7,110.3,553.7,109z"/>
		<path class="st7" d="M559.6,104c0-0.4,0.3-0.7,0.8-0.7c0.4,0,0.8,0.3,0.8,0.7c0,0.4-0.3,0.7-0.8,0.7
			C560,104.7,559.6,104.4,559.6,104z M559.9,106.1h1.1v5.8h-1.1V106.1z"/>
		<path class="st7" d="M568.1,108.6v3.4H567v-3.3c0-1-0.6-1.6-1.4-1.6s-1.8,0.5-1.8,1.7v3.1h-1.1v-5.8h1.1v0.9c0.3-0.7,1.3-1,1.9-1
			C567.2,106,568.1,107,568.1,108.6z"/>
		<path class="st7" d="M578.4,110.9v1h-5.2v-8.6h5v1h-3.9v2.8h3.4v1.1h-3.4v2.6H578.4z"/>
		<path class="st7" d="M588.8,111.9l-0.8-6.5l-2.7,5.6h-1l-2.7-5.6l-0.8,6.5h-1.1l1-8.6h1l3.1,6.3l3-6.3h1l1.1,8.6H588.8z"/>
		<path class="st7" d="M597,110.9v1h-5.2v-8.6h5v1H593v2.8h3.4v1.1H593v2.6H597z"/>
		<path class="st7" d="M603.6,109.8h-3.7l-0.8,2.2h-1.2l3.3-8.6h1.2l3.3,8.6h-1.2L603.6,109.8z M603.2,108.8l-1.5-3.9l-1.5,3.9
			H603.2z"/>
		<path class="st7" d="M615.4,106.1v5.8h-1.1V111c-0.4,0.7-1.2,1-2.1,1c-1.6,0-2.9-1.2-2.9-3c0-1.8,1.3-3,2.9-3c0.9,0,1.7,0.3,2.1,1
			v-0.9H615.4z M614.3,109c0-1.3-1-2-2-2c-1.1,0-1.9,0.8-1.9,2c0,1.2,0.8,2,1.9,2C613.4,111.1,614.3,110.3,614.3,109z"/>
		<path class="st7" d="M622.6,108.6v3.4h-1.1v-3.3c0-1-0.6-1.6-1.4-1.6s-1.8,0.5-1.8,1.7v3.1h-1.1v-5.8h1.1v0.9c0.3-0.7,1.3-1,1.9-1
			C621.7,106,622.6,107,622.6,108.6z"/>
		<path class="st7" d="M630,103v9h-1.1V111c-0.4,0.7-1.2,1-2.1,1c-1.6,0-2.9-1.2-2.9-3c0-1.8,1.3-3,2.9-3c0.9,0,1.7,0.3,2.1,1V103
			H630z M628.9,109c0-1.3-1-2-2-2c-1.1,0-1.9,0.8-1.9,2c0,1.2,0.8,2,1.9,2C628,111.1,628.9,110.3,628.9,109z"/>
		<path class="st7" d="M639.8,109.8h-3.7l-0.8,2.2h-1.2l3.3-8.6h1.2l3.3,8.6h-1.2L639.8,109.8z M639.4,108.8l-1.5-3.9l-1.5,3.9
			H639.4z"/>
		<path class="st7" d="M649,106.1c0,1.4-0.7,2.7-2.5,2.7h-2.3v3.2H643v-8.6h3.4C648.2,103.4,649,104.7,649,106.1z M647.8,106.1
			c0-0.8-0.4-1.6-1.4-1.6h-2.3v3.2h2.2C647.4,107.7,647.8,106.9,647.8,106.1z"/>
		<path class="st7" d="M654.6,109.8h-3.7l-0.8,2.2h-1.2l3.3-8.6h1.2l3.3,8.6h-1.2L654.6,109.8z M654.2,108.8l-1.5-3.9l-1.5,3.9
			H654.2z"/>
		<path class="st7" d="M657,107.7c0-2.4,1.9-4.4,4.3-4.4c1.3,0,2.5,0.6,3.2,1.5l-0.8,0.7c-0.6-0.7-1.4-1.1-2.4-1.1
			c-1.8,0-3.2,1.5-3.2,3.3c0,1.8,1.4,3.3,3.2,3.3c1,0,1.8-0.4,2.4-1.1l0.8,0.7c-0.8,0.9-1.9,1.5-3.2,1.5
			C658.9,112.1,657,110.1,657,107.7z"/>
	</g>
	<g>
		<path class="st7" d="M839.1,92.3h-4.3L834,95h-2.5l4.3-11.4h2.5l4.2,11.4h-2.4L839.1,92.3z M838.4,90.3L837,86l-1.4,4.3H838.4z"/>
		<path class="st7" d="M843.8,83.6h2.3V95h-2.3V83.6z"/>
		<path class="st7" d="M848.6,90.1h5.8V92h-5.8V90.1z"/>
		<path class="st7" d="M865,91.2c0,2.5-1.8,4-3.8,4c-0.9,0-1.9-0.3-2.5-1.1v4.8h-2.2V87.3h2.2v0.9c0.5-0.8,1.6-1.1,2.5-1.1
			C863.2,87.1,865,88.7,865,91.2z M862.8,91.2c0-1.1-0.9-2-2-2c-1.1,0-2,0.8-2,2c0,1.2,1,2,2,2C861.9,93.1,862.8,92.3,862.8,91.2z"
			/>
		<path class="st7" d="M866.2,91.2c0-2.5,2-4,4.2-4s4.2,1.6,4.2,4c0,2.4-2,4-4.2,4S866.2,93.6,866.2,91.2z M872.3,91.2
			c0-1.2-0.9-2-2-2s-2,0.8-2,2c0,1.2,0.9,2,2,2S872.3,92.3,872.3,91.2z"/>
		<path class="st7" d="M887.4,87.3l-2.7,7.7h-1.9l-1.6-5l-1.5,5h-1.9l-2.8-7.7h2.4l1.5,4.7l1.5-4.7h1.8l1.5,4.7l1.5-4.7H887.4z"/>
		<path class="st7" d="M896,91.9h-5.8c0.2,0.9,1,1.4,2,1.4c0.8,0,1.6-0.3,2-0.9l1.3,1.3c-0.7,1-2.1,1.5-3.4,1.5
			c-2.4,0-4.1-1.6-4.1-4c0-2.5,1.9-4.1,4.1-4.1c2.2,0,4,1.6,4,3.9C896,91.3,896,91.5,896,91.9z M893.8,90.5
			c-0.1-0.9-0.8-1.5-1.8-1.5c-0.9,0-1.7,0.4-1.9,1.5H893.8z"/>
		<path class="st7" d="M903.3,87.4l-0.5,2.1c-0.5-0.2-0.8-0.3-1.1-0.3c-1.1,0-1.9,1-1.9,3.2V95h-2.2v-7.7h2.2V89
			c0.4-1.3,1.3-1.8,2.3-1.8C902.5,87.1,902.9,87.2,903.3,87.4z"/>
		<path class="st7" d="M911.9,91.9h-5.8c0.2,0.9,1,1.4,2,1.4c0.8,0,1.6-0.3,2-0.9l1.3,1.3c-0.7,1-2.1,1.5-3.4,1.5
			c-2.4,0-4.1-1.6-4.1-4c0-2.5,1.9-4.1,4.1-4.1c2.2,0,4,1.6,4,3.9C911.9,91.3,911.9,91.5,911.9,91.9z M909.8,90.5
			c-0.1-0.9-0.8-1.5-1.8-1.5c-0.9,0-1.7,0.4-1.9,1.5H909.8z"/>
		<path class="st7" d="M921.6,83.2V95h-2.2v-1c-0.5,0.8-1.6,1.1-2.5,1.1c-2,0-3.8-1.5-3.8-4c0-2.5,1.8-4,3.8-4
			c0.9,0,1.9,0.3,2.5,1.1v-5.1H921.6z M919.4,91.2c0-1.2-1-2-2-2c-1.1,0-2,0.8-2,2c0,1.1,0.9,2,2,2
			C918.4,93.2,919.4,92.3,919.4,91.2z"/>
		<path class="st7" d="M935.3,93v2H928V83.6h7.2v2h-4.9v2.7h4.3v2.1h-4.3V93H935.3z"/>
		<path class="st7" d="M949.6,90.8V95h-2.2V91c0-1.2-0.6-1.7-1.4-1.7c-0.9,0-1.5,0.5-1.5,1.7V95h-2.2v-4.1c0-1.2-0.6-1.7-1.4-1.7
			c-0.8,0-1.6,0.4-1.6,1.8v4h-2.2v-7.7h2.2v1.4c0.2-1.1,1.3-1.6,2.2-1.6c1.1,0,2,0.5,2.5,1.5c0.6-1.1,1.8-1.5,2.6-1.5
			C948.6,87.1,949.6,88.5,949.6,90.8z"/>
		<path class="st7" d="M960.1,91.2c0,2.5-1.8,4-3.8,4c-0.9,0-1.9-0.3-2.5-1.1v1h-2.2V83.2h2.2v5.1c0.5-0.8,1.6-1.1,2.5-1.1
			C958.3,87.1,960.1,88.7,960.1,91.2z M957.9,91.2c0-1.1-0.9-2-2-2c-1,0-2,0.8-2,2c0,1.2,0.9,2,2,2C957,93.2,957.9,92.3,957.9,91.2z
			"/>
		<path class="st7" d="M961.3,91.2c0-2.5,2-4,4.2-4s4.2,1.6,4.2,4c0,2.4-2,4-4.2,4S961.3,93.6,961.3,91.2z M967.5,91.2
			c0-1.2-0.9-2-2-2s-2,0.8-2,2c0,1.2,0.9,2,2,2S967.5,92.3,967.5,91.2z"/>
		<path class="st7" d="M971.3,83.2h2.2V95h-2.2V83.2z"/>
		<path class="st7" d="M983.6,83.2V95h-2.2v-1c-0.5,0.8-1.6,1.1-2.5,1.1c-2,0-3.8-1.5-3.8-4c0-2.5,1.8-4,3.8-4
			c0.9,0,1.9,0.3,2.5,1.1v-5.1H983.6z M981.4,91.2c0-1.2-1-2-2-2c-1.1,0-2,0.8-2,2c0,1.1,0.9,2,2,2
			C980.4,93.2,981.4,92.3,981.4,91.2z"/>
		<path class="st7" d="M814.6,112h-5.8c0.2,0.9,1,1.4,2,1.4c0.8,0,1.6-0.3,2-0.9l1.3,1.3c-0.7,1-2.1,1.5-3.4,1.5
			c-2.4,0-4.1-1.6-4.1-4c0-2.5,1.9-4.1,4.1-4.1c2.2,0,4,1.6,4,3.9C814.7,111.4,814.6,111.6,814.6,112z M812.5,110.6
			c-0.1-0.9-0.8-1.5-1.8-1.5c-0.9,0-1.7,0.4-1.9,1.5H812.5z"/>
		<path class="st7" d="M823.8,110.9v4.2h-2.2v-4c0-1.2-0.7-1.8-1.5-1.8c-0.8,0-1.7,0.4-1.7,1.8v4h-2.2v-7.7h2.2v1.3
			c0.3-1,1.6-1.5,2.3-1.5C822.8,107.2,823.9,108.6,823.8,110.9z"/>
		<path class="st7" d="M830.3,109.1h-1.6v6h-2.2v-6h-1.4v-1.7h1.4v-2.8h2.2v2.8h1.6V109.1z"/>
		<path class="st7" d="M839.2,112h-5.8c0.2,0.9,1,1.4,2,1.4c0.8,0,1.6-0.3,2-0.9l1.3,1.3c-0.7,1-2.1,1.5-3.4,1.5
			c-2.4,0-4.1-1.6-4.1-4c0-2.5,1.9-4.1,4.1-4.1c2.2,0,4,1.6,4,3.9C839.2,111.4,839.2,111.6,839.2,112z M837.1,110.6
			c-0.1-0.9-0.8-1.5-1.8-1.5c-0.9,0-1.7,0.4-1.9,1.5H837.1z"/>
		<path class="st7" d="M846.5,107.5l-0.5,2.1c-0.5-0.2-0.8-0.3-1.1-0.3c-1.1,0-1.9,1-1.9,3.2v2.7h-2.2v-7.7h2.2v1.6
			c0.4-1.3,1.3-1.8,2.3-1.8C845.7,107.2,846.2,107.3,846.5,107.5z"/>
		<path class="st7" d="M847.4,104.7c0-0.7,0.6-1.3,1.4-1.3c0.8,0,1.4,0.6,1.4,1.3c0,0.7-0.6,1.3-1.4,1.3
			C848,106,847.4,105.5,847.4,104.7z M847.7,107.4h2.2v7.7h-2.2V107.4z"/>
		<path class="st7" d="M859.5,110.9v4.2h-2.2v-4c0-1.2-0.7-1.8-1.5-1.8c-0.8,0-1.7,0.4-1.7,1.8v4H852v-7.7h2.2v1.3
			c0.3-1,1.6-1.5,2.3-1.5C858.5,107.2,859.5,108.6,859.5,110.9z"/>
		<path class="st7" d="M869.5,107.4v6.7c0,3.4-1.7,5-4.4,5c-1.7,0-3.1-0.9-3.8-2.4l1.8-0.8c0.3,0.7,1.1,1.2,2,1.2
			c1.4,0,2.3-0.8,2.3-2.8v-0.1c-0.6,0.7-1.6,1.1-2.5,1.1c-2,0-3.8-1.5-3.8-4c0-2.5,1.8-4,3.8-4c0.9,0,1.9,0.3,2.5,1.1v-0.9H869.5z
			 M867.3,111.3c0-1.2-1-2-2-2c-1.1,0-2,0.8-2,2c0,1.1,0.9,2,2,2C866.4,113.3,867.3,112.4,867.3,111.3z"/>
		<path class="st7" d="M880.2,109.1h-1.6v6h-2.2v-6H875v-1.7h1.4v-2.8h2.2v2.8h1.6V109.1z"/>
		<path class="st7" d="M889.1,110.9v4.2h-2.2v-4c0-1.2-0.7-1.8-1.5-1.8c-0.8,0-1.7,0.4-1.7,1.8v4h-2.2v-11.8h2.2v5.3
			c0.3-1,1.6-1.4,2.3-1.4C888,107.2,889.1,108.6,889.1,110.9z"/>
		<path class="st7" d="M898.7,112h-5.8c0.2,0.9,1,1.4,2,1.4c0.8,0,1.6-0.3,2-0.9l1.3,1.3c-0.7,1-2.1,1.5-3.4,1.5
			c-2.4,0-4.1-1.6-4.1-4c0-2.5,1.9-4.1,4.1-4.1c2.2,0,4,1.6,4,3.9C898.8,111.4,898.7,111.6,898.7,112z M896.6,110.6
			c-0.1-0.9-0.8-1.5-1.8-1.5c-0.9,0-1.7,0.4-1.9,1.5H896.6z"/>
		<path class="st7" d="M912.4,107.4v6.7c0,3.4-1.7,5-4.4,5c-1.7,0-3.1-0.9-3.8-2.4l1.8-0.8c0.3,0.7,1.1,1.2,2,1.2
			c1.4,0,2.3-0.8,2.3-2.8v-0.1c-0.6,0.7-1.6,1.1-2.5,1.1c-2,0-3.8-1.5-3.8-4c0-2.5,1.8-4,3.8-4c0.9,0,1.9,0.3,2.5,1.1v-0.9H912.4z
			 M910.1,111.3c0-1.2-1-2-2-2c-1.1,0-2,0.8-2,2c0,1.1,0.9,2,2,2C909.2,113.3,910.1,112.4,910.1,111.3z"/>
		<path class="st7" d="M914.5,103.3h2.2v11.8h-2.2V103.3z"/>
		<path class="st7" d="M918.3,111.3c0-2.5,2-4,4.2-4s4.2,1.6,4.2,4c0,2.4-2,4-4.2,4S918.3,113.7,918.3,111.3z M924.4,111.3
			c0-1.2-0.9-2-2-2s-2,0.8-2,2c0,1.2,0.9,2,2,2S924.4,112.5,924.4,111.3z"/>
		<path class="st7" d="M936.7,111.3c0,2.5-1.8,4-3.8,4c-0.9,0-1.9-0.3-2.5-1.1v1h-2.2v-11.8h2.2v5.1c0.5-0.8,1.6-1.1,2.5-1.1
			C934.9,107.2,936.7,108.8,936.7,111.3z M934.5,111.3c0-1.1-0.9-2-2-2c-1,0-2,0.8-2,2c0,1.2,0.9,2,2,2
			C933.6,113.3,934.5,112.4,934.5,111.3z"/>
		<path class="st7" d="M946.4,107.4v7.7h-2.2v-1c-0.5,0.8-1.6,1.1-2.5,1.1c-2,0-3.8-1.5-3.8-4c0-2.5,1.8-4,3.8-4
			c0.9,0,1.9,0.3,2.5,1.1v-0.9H946.4z M944.2,111.3c0-1.2-1-2-2-2c-1.1,0-2,0.8-2,2c0,1.1,0.9,2,2,2
			C943.2,113.3,944.2,112.4,944.2,111.3z"/>
		<path class="st7" d="M948.5,103.3h2.2v11.8h-2.2V103.3z"/>
		<path class="st7" d="M969.2,110.9v4.2H967v-4.1c0-1.2-0.6-1.7-1.4-1.7c-0.9,0-1.5,0.5-1.5,1.7v4.1h-2.2v-4.1
			c0-1.2-0.6-1.7-1.4-1.7c-0.8,0-1.6,0.4-1.6,1.8v4h-2.2v-7.7h2.2v1.4c0.2-1.1,1.3-1.6,2.2-1.6c1.1,0,2,0.5,2.5,1.5
			c0.6-1.1,1.8-1.5,2.6-1.5C968.2,107.2,969.2,108.6,969.2,110.9z"/>
		<path class="st7" d="M979.2,107.4v7.7h-2.2v-1c-0.5,0.8-1.6,1.1-2.5,1.1c-2,0-3.8-1.5-3.8-4c0-2.5,1.8-4,3.8-4
			c0.9,0,1.9,0.3,2.5,1.1v-0.9H979.2z M977,111.3c0-1.2-1-2-2-2c-1.1,0-2,0.8-2,2c0,1.1,0.9,2,2,2C976.1,113.3,977,112.4,977,111.3z
			"/>
		<path class="st7" d="M987,107.5l-0.5,2.1c-0.5-0.2-0.8-0.3-1.1-0.3c-1.1,0-1.9,1-1.9,3.2v2.7h-2.2v-7.7h2.2v1.6
			c0.4-1.3,1.3-1.8,2.3-1.8C986.2,107.2,986.7,107.3,987,107.5z"/>
		<path class="st7" d="M993.1,115.1l-2.7-3.3v3.3h-2.2v-11.8h2.2v6.5l2-2.4h2.8l-3,3.4l3.7,4.3H993.1z"/>
		<path class="st7" d="M1003.9,112h-5.8c0.2,0.9,1,1.4,2,1.4c0.8,0,1.6-0.3,2-0.9l1.3,1.3c-0.7,1-2.1,1.5-3.4,1.5
			c-2.4,0-4.1-1.6-4.1-4c0-2.5,1.9-4.1,4.1-4.1c2.2,0,4,1.6,4,3.9C1004,111.4,1003.9,111.6,1003.9,112z M1001.8,110.6
			c-0.1-0.9-0.8-1.5-1.8-1.5c-0.9,0-1.7,0.4-1.9,1.5H1001.8z"/>
		<path class="st7" d="M1010.1,109.1h-1.6v6h-2.2v-6h-1.4v-1.7h1.4v-2.8h2.2v2.8h1.6V109.1z"/>
	</g>
</g>
</svg>
