<?xml version="1.0" encoding="utf-8"?>
<!-- Generator: Adobe Illustrator 23.0.2, SVG Export Plug-In . SVG Version: 6.00 Build 0)  -->
<svg version="1.1" id="Layer_1" xmlns="http://www.w3.org/2000/svg" xmlns:xlink="http://www.w3.org/1999/xlink" x="0px" y="0px"
	 viewBox="0 0 1300 480" style="enable-background:new 0 0 1300 480;" xml:space="preserve">
<style type="text/css">
	.st0{fill:url(#SVGID_1_);}
	.st1{fill:none;stroke:#E2E5EB;stroke-miterlimit:10;}
	.st2{fill:#2A3141;}
	.st3{fill:url(#SVGID_2_);}
	.st4{fill:#1C212B;}
	.st5{fill:none;stroke:#E2E5EB;stroke-width:2;stroke-miterlimit:10;}
	.st6{fill:#FFFFFF;stroke:#21ABB0;stroke-width:3;stroke-miterlimit:10;}
	.st7{fill:#FFFFFF;}
	.st8{fill:#5C677F;}
	.st9{fill:#BACC54;}
</style>
<g>
	<g>
		<linearGradient id="SVGID_1_" gradientUnits="userSpaceOnUse" x1="1026.6859" y1="240.3996" x2="107.5208" y2="240.3996">
			<stop  offset="0.4405" style="stop-color:#FFFFFF"/>
			<stop  offset="1" style="stop-color:#E2E5EB"/>
		</linearGradient>
		<polygon class="st0" points="107.5,433.8 473,395.1 829.6,297.2 1026.7,47 1026.7,433.8 		"/>
	</g>
	<line class="st1" x1="473.6" y1="394.5" x2="473.6" y2="433.2"/>
	<line class="st1" x1="830.2" y1="296.6" x2="830.2" y2="434.4"/>
	<g>
		<g>
			<g>
				<path class="st2" d="M920.6,184.3c2.3-2.8,5.2-6.6,7.2-9.4c2.1-3.1,3.3-4.6,6.3-8.1c2.7-3.2,8.1-10,11.3-14.3
					c1.4-1.9,2.5-3.2,3.2-4.1c0.6-0.7,2.3-2.9,3.8-4.8c1.8-2.3,4-5.1,6.5-8.2c6.3-7.7,7.3-9,9.7-12.2c2.6-3.5,5.5-7.2,9.4-12.1
					c2.3-2.8,3-3.8,3.9-5c1.3-1.8,2.8-3.8,4.1-5.2c1.2-1.3,2.9-3.4,3.6-4.5c0.4-0.6,0.9-1.3,2-2.5c0.8-0.9,1.7-2.1,2.1-2.6
					c0.4-0.5,2.8-3.6,5.3-6.8c2.5-3.2,5.4-6.8,6.3-8c0.9-1.2,2.4-3,3.3-4c1.2-1.4,2.2-2.6,4.2-5.2c3.1-4,3.3-4.2,6.3-8.1
					c1.6-2,3.2-4.1,4.7-6.2c3-4.1,3.6-5.3,3.2-5.7c-0.3-0.3-0.4-0.2-1.9,1.3l-1.6,1.6l-5.2,6.6c-2.9,3.6-6.8,8.5-8.7,10.9
					c-2.2,2.7-4,5.1-4.9,6.3c-1.2,1.6-2,2.7-4.6,5.8c-1.7,2.1-3.7,4.5-4.3,5.4c-0.7,0.8-5.2,6.6-10,12.8
					c-6.6,8.4-9.4,11.9-10.8,13.7c-1.7,2-2.3,2.8-3.7,4.8c-2.3,3.1-7.7,10-8.7,11c-1.5,1.6-3,3.6-6.8,8.6
					c-4.9,6.5-8.5,11.3-9.4,12.4c-0.4,0.5-1.7,2.1-3,3.6c-1.9,2.3-3.1,3.7-6.3,7.9c-2.4,3-5,6.4-6.5,8.2c-2,2.4-2.9,3.6-4.5,5.7
					c-1.3,1.7-6.8,8.8-15.2,19.5c-12.9,16.4-13.2,16.8-14.7,18.5c-1.4,1.5-1.9,2.2-6.5,8.1c-4.1,5.2-5.2,6.7-5.9,7.7
					c-1,1.5-2.6,3.6-11.8,15.1c-3.7,4.7-7.4,9.3-8.8,11.2c-1.5,2-3.2,4.1-4.3,5.4c-1.2,1.4-2.4,3-3.7,4.7c-1.4,1.9-2.5,3.2-4.3,5.4
					c-1.3,1.6-2.9,3.6-3.6,4.4c-0.7,0.8-4.9,6.3-9.5,12.2c-5.8,7.4-7.9,10.1-8.5,10.7l0.4-0.2c-1.8,0.5-2.2,0.6-2.6,0.7
					c-1.8,0.4-3.6,0.9-5.1,1.3c-1.3,0.4-3.9,1.1-5.7,1.6c-1.9,0.5-5.2,1.5-7.3,2.1c-3.2,0.9-4.1,1.2-5.2,1.4c-1.6,0.3-4.3,1-6.8,1.8
					c-2.4,0.8-29.9,8.3-33.8,9.3c-2.2,0.5-4,1-9.8,2.7c-9.3,2.7-18.8,5.3-24.5,6.7c-6.5,1.6-15.4,4.1-19.4,5.3
					c-2.3,0.7-4.5,1.4-8.2,2.4c-2.8,0.8-17,4.7-31.7,8.7c-14.6,4-28.9,7.9-31.7,8.6c-2.9,0.8-7.3,2-10.4,2.9
					c-3.5,1-8.6,2.4-14.9,4.1c-5.3,1.4-13.6,3.7-18.5,5c-4.9,1.4-11.4,3.1-14.4,3.9c-3,0.8-7.9,2-10.8,2.8c-2.9,0.8-6.2,1.6-7.2,1.9
					c-1,0.3-3.6,1.1-5.7,1.7c-2.7,0.8-4.5,1.3-6.4,1.8c-1,0.3-34.7,9.5-76.7,21l0.1,0c-24.9,2.6-58.2,6.2-70.1,7.4
					c-1.8,0.2-8.8,0.9-15.6,1.6c-6.9,0.7-13.7,1.4-15.4,1.6c-1.7,0.2-14,1.5-27.5,3c-13.4,1.4-28,3-32.3,3.4
					c-6.5,0.7-8.4,0.9-10.9,1c-3.6,0.2-8.4,0.7-23.3,2.2c-5.9,0.6-13.4,1.3-16.8,1.7c-4.2,0.4-9.7,1-17.8,1.9
					c-6.5,0.7-20.4,2.2-31,3.3c-10.6,1.1-22.1,2.4-25.6,2.8c-5.6,0.6-6.7,0.8-9.6,1c-2.7,0.2-4.5,0.4-10.1,1
					c-21.2,2.3-43.3,4.6-46.3,4.8c-2.7,0.2-7.1,0.6-8,0.8c-0.4,0.1-1,0.2-1.4,0.2c-0.4,0-1.4,0.3-2.2,0.5c-1.4,0.4-1.5,0.5-1.5,0.9
					c0.1,0.5,0.2,0.5,1.7,0.5c2.1,0,5.5-0.1,7.4-0.3c0.8-0.1,2.9-0.3,4.7-0.4c2.7-0.2,4-0.4,7.3-0.8c4.4-0.6,12.4-1.4,23.1-2.4
					c4.7-0.4,6.7-0.6,8-0.8c4-0.6,9.5-1.2,15.3-1.7c3.1-0.3,6.6-0.6,7.8-0.7c1.2-0.1,7-0.7,12.9-1.3c9.3-1,10.9-1.2,12.1-1.4
					c1.2-0.2,3-0.4,21.5-2.4c16.3-1.7,20.6-2.1,22.5-2.3c3.5-0.2,10-0.9,13.9-1.4c4.6-0.6,9.8-1.1,18.1-1.9c5-0.4,9.6-0.9,15.1-1.5
					c4.4-0.4,13-1.3,19.1-1.9c9.1-0.9,12.7-1.3,19.8-2.1c10.9-1.3,17.2-1.9,23.5-2.5c3.4-0.3,18.7-1.9,47.9-5
					c37-3.9,43.5-4.6,46.7-4.8c3.9-0.3,8.2-0.8,14.7-1.6c0.2,0,0.4,0,2.6-0.3l0.1,0l0.1,0c4-1.2,33.1-9.2,41.6-11.5
					c9.5-2.6,17.8-4.9,18.4-5.1c0.8-0.3,4.3-1.3,6.8-1.9c2-0.5,32.4-8.7,67.9-18.4c11.4-3.1,23.8-6.4,27.4-7.4
					c11.2-2.9,21.4-5.8,26.5-7.3c5.6-1.7,10.7-3.1,16.4-4.5c5.4-1.3,14.2-3.7,19.2-5.2c2.8-0.8,4.3-1.3,10.1-2.7
					c4.7-1.2,8.1-2.1,11.1-3c3.5-1,24.5-6.9,26.6-7.5c0.3-0.1,1.5-0.4,2.7-0.7c3.3-0.8,14.9-4,19.2-5.3c3.4-1,4.3-1.3,10.7-2.9
					c6.9-1.8,7-1.8,10.5-2.9c3.7-1.2,3.1-1,14.3-3.9c4.4-1.1,9.1-2.5,11.3-3.2c1.9-0.6,4.7-1.4,6.2-1.7c1.3-0.2,4.4-1.1,5.4-1.4
					c0.3-0.1,2.1-0.6,4.4-1.2l0.4-0.1l0.3-0.4c0,0,0.1-0.1,0.2-0.3c2.4-2.9,2.8-3.5,4.1-5.3c2.2-3.1,5.1-6.8,6.9-8.9
					c1.7-1.9,6.5-8,11.7-14.7c2.2-2.9,3.5-4.5,4.9-6.2c1.7-2.1,2.1-2.5,2.8-3.6c2-3,2.1-3.1,3.5-4.6c1.5-1.6,2.3-2.6,3.9-4.8
					c1.4-2,2.5-3.3,4.7-6c2.7-3.2,6.7-8.2,7.7-9.8c1.1-1.6,2.2-3.1,3.8-4.8c1.5-1.6,2.9-3.4,5-6.3c1.9-2.7,5.6-7.4,8.6-10.9
					c1.7-2.1,3.6-4.5,9.8-12.3c5.2-6.6,7.8-10,8.3-10.7c0.6-0.9,0.9-1.2,1.6-2C918.8,186.4,919.8,185.2,920.6,184.3z"/>
			</g>
		</g>
	</g>
	<rect x="107.5" y="431.4" class="st2" width="859.9" height="4.8"/>
	<linearGradient id="SVGID_2_" gradientUnits="userSpaceOnUse" x1="967.4488" y1="433.8125" x2="1221.3221" y2="433.8125">
		<stop  offset="0" style="stop-color:#2A3141"/>
		<stop  offset="1" style="stop-color:#FFFFFF"/>
	</linearGradient>
	<rect x="967.4" y="431.4" class="st3" width="253.9" height="4.8"/>
	<g>
		<path class="st4" d="M97,462.1v1.9h-6.9V463l4-4.8c0.4-0.5,0.7-1.1,0.7-1.4c0-0.7-0.6-1.2-1.4-1.2c-0.9,0-1.4,0.6-1.6,1.5
			l-1.9-0.3c0.3-1.8,1.4-3.1,3.5-3.1c2.1,0,3.4,1.2,3.4,3.1c0,1-0.5,1.9-1.1,2.6l-2.4,2.8H97z"/>
		<path class="st4" d="M98.6,458.9c0-3,0.8-5.3,3.8-5.3c3,0,3.8,2.3,3.8,5.3c0,2.9-0.8,5.3-3.8,5.3
			C99.5,464.2,98.6,461.9,98.6,458.9z M104.2,458.9c0-1.9-0.4-3.4-1.7-3.4c-1.3,0-1.7,1.5-1.7,3.4c0,1.9,0.4,3.3,1.7,3.3
			C103.8,462.3,104.2,460.8,104.2,458.9z"/>
		<path class="st4" d="M107.9,458.9c0-3,0.8-5.3,3.8-5.3c3,0,3.8,2.3,3.8,5.3c0,2.9-0.8,5.3-3.8,5.3
			C108.7,464.2,107.9,461.9,107.9,458.9z M113.5,458.9c0-1.9-0.4-3.4-1.7-3.4c-1.3,0-1.7,1.5-1.7,3.4c0,1.9,0.4,3.3,1.7,3.3
			C113.1,462.3,113.5,460.8,113.5,458.9z"/>
		<path class="st4" d="M124.9,458.6c0,3-1.5,5.6-4.4,5.6c-1.4,0-2.7-0.6-3.3-2l1.7-0.9c0.3,0.7,1,1,1.6,1c1.3,0,2.2-1.1,2.3-2.8
			c-0.5,0.5-1.2,0.9-2.2,0.9c-2.1,0-3.5-1.5-3.5-3.3c0-2,1.5-3.5,3.8-3.5C123.3,453.6,124.9,455.6,124.9,458.6z M122.7,457.1
			c0-0.9-0.7-1.6-1.7-1.6c-1,0-1.7,0.6-1.7,1.6c0,0.9,0.7,1.5,1.7,1.6C121.9,458.7,122.6,458,122.7,457.1z"/>
	</g>
	<g>
		<path class="st4" d="M465.2,462.7v1.9h-6.9v-1.1l4-4.8c0.4-0.5,0.7-1.1,0.7-1.4c0-0.7-0.6-1.2-1.4-1.2c-0.9,0-1.4,0.6-1.6,1.5
			l-1.9-0.3c0.3-1.8,1.4-3.1,3.5-3.1c2.1,0,3.4,1.2,3.4,3.1c0,1-0.5,1.9-1.1,2.6l-2.4,2.8H465.2z"/>
		<path class="st4" d="M466.8,459.6c0-3,0.8-5.3,3.8-5.3c3,0,3.8,2.3,3.8,5.3c0,2.9-0.8,5.3-3.8,5.3
			C467.7,464.8,466.8,462.5,466.8,459.6z M472.4,459.6c0-1.9-0.4-3.4-1.7-3.4c-1.3,0-1.7,1.5-1.7,3.4c0,1.9,0.4,3.3,1.7,3.3
			C472,462.9,472.4,461.4,472.4,459.6z"/>
		<path class="st4" d="M480.2,454.2v10.4h-2.1V457l-2.4,0.9V456l4.3-1.8H480.2z"/>
		<path class="st4" d="M489.5,454.4v0.2l-4.6,10.1h-2.4l3.9-8.4h-4.3v-1.9H489.5z"/>
	</g>
	<g>
		<path class="st4" d="M821.3,462.7v1.9h-6.9v-1.1l4-4.8c0.4-0.5,0.7-1.1,0.7-1.4c0-0.7-0.6-1.2-1.4-1.2c-0.9,0-1.4,0.6-1.6,1.5
			l-1.9-0.3c0.3-1.8,1.4-3.1,3.5-3.1s3.4,1.2,3.4,3.1c0,1-0.5,1.9-1.1,2.6l-2.4,2.8H821.3z"/>
		<path class="st4" d="M822.9,459.6c0-3,0.8-5.3,3.8-5.3c3,0,3.8,2.3,3.8,5.3c0,2.9-0.8,5.3-3.8,5.3
			C823.7,464.8,822.9,462.5,822.9,459.6z M828.5,459.6c0-1.9-0.4-3.4-1.7-3.4c-1.3,0-1.7,1.5-1.7,3.4c0,1.9,0.4,3.3,1.7,3.3
			C828.1,462.9,828.5,461.4,828.5,459.6z"/>
		<path class="st4" d="M836.2,454.2v10.4h-2.1V457l-2.4,0.9V456l4.3-1.8H836.2z"/>
		<path class="st4" d="M846.1,459.2c0,3-1.5,5.6-4.4,5.6c-1.4,0-2.7-0.6-3.3-2l1.7-0.9c0.3,0.7,1,1,1.6,1c1.3,0,2.2-1.1,2.3-2.8
			c-0.5,0.5-1.2,0.9-2.2,0.9c-2.1,0-3.5-1.5-3.5-3.3c0-2,1.5-3.5,3.8-3.5C844.5,454.2,846.1,456.3,846.1,459.2z M843.8,457.7
			c0-0.9-0.7-1.6-1.7-1.6c-1,0-1.7,0.6-1.7,1.6c0,0.9,0.7,1.5,1.7,1.6C843.1,459.3,843.8,458.6,843.8,457.7z"/>
	</g>
	<line class="st5" x1="466.2" y1="31.2" x2="107.5" y2="31.2"/>
	<line class="st5" x1="826" y1="31.2" x2="476" y2="31.2"/>
	<line class="st5" x1="1182.5" y1="31.2" x2="832.2" y2="31.2"/>
	<circle class="st6" cx="107.5" cy="433.8" r="7.3"/>
	<circle class="st2" cx="286.9" cy="31.2" r="14.5"/>
	<circle class="st6" cx="473.6" cy="434.4" r="7.3"/>
	<circle class="st6" cx="830.2" cy="434.4" r="7.3"/>
	<g>
		<path class="st7" d="M289,24v12.8h-2.6v-9.4l-2.9,1.1v-2.4l5.3-2.2H289z"/>
	</g>
	<circle class="st2" cx="651" cy="31.2" r="14.5"/>
	<g>
		<path class="st7" d="M655.2,34.5v2.4h-8.5v-1.4l5-5.9c0.5-0.6,0.9-1.3,0.9-1.7c0-0.9-0.7-1.5-1.7-1.5c-1.1,0-1.8,0.7-1.9,1.8
			l-2.3-0.4c0.3-2.3,1.8-3.8,4.3-3.8s4.2,1.5,4.2,3.8c0,1.2-0.6,2.3-1.4,3.2l-3,3.4H655.2z"/>
	</g>
	<circle class="st2" cx="1007.3" cy="31.2" r="14.5"/>
	<g>
		<path class="st7" d="M1011.6,33.2c0,2.3-1.9,3.9-4.7,3.9c-1.8,0-3.3-0.8-4.2-2.2l1.8-1.4c0.6,0.8,1.3,1.3,2.3,1.3
			c1.3,0,2.2-0.7,2.2-1.7c0-1.1-0.9-1.8-2.2-1.8h-1.2v-2h0.7c1.4,0,2.2-0.7,2.1-1.6c0-0.8-0.7-1.3-1.6-1.3c-0.8,0-1.7,0.4-2.1,1
			l-1.4-1.6c0.9-1,2.2-1.8,3.8-1.8c2.2,0,4,1.4,3.9,3.5c0,1.1-0.6,2-1.7,2.5C1010.7,30.6,1011.6,31.7,1011.6,33.2z"/>
	</g>
	<polyline class="st5" points="117.8,21 107.5,31.2 117.8,41.5 	"/>
	<polyline class="st5" points="456,41.5 466.2,31.2 456,21 	"/>
	<polyline class="st5" points="815.7,41.5 826,31.2 815.7,21 	"/>
	<polyline class="st5" points="1172.1,41.5 1182.3,31.2 1172.1,21 	"/>
	<polyline class="st5" points="486.3,21 476,31.2 486.3,41.5 	"/>
	<polyline class="st5" points="842.3,21 832,31.2 842.3,41.5 	"/>
	<g>
		<g>
			<circle class="st2" cx="980.7" cy="221" r="12.7"/>
			<g>
				<path class="st7" d="M982.4,215v10.4h-2.1v-7.6l-2.4,0.9v-1.9l4.3-1.8H982.4z"/>
			</g>
			<g>
				<path class="st8" d="M1010.5,221.8c0,1.5-1.3,2.6-3.1,2.6c-1.8,0-3.1-1.1-3.1-2.6c0-1.1,0.6-2,1.6-2.3c-0.5-0.3-0.8-0.8-0.8-1.5
					c0-1.2,1-2.1,2.4-2.1c1.4,0,2.4,0.9,2.4,2.1c0,0.7-0.3,1.2-0.9,1.5C1009.8,219.8,1010.5,220.7,1010.5,221.8z M1009.3,221.7
					c0-1-0.9-1.7-1.9-1.7c-1.1,0-2,0.7-2,1.7c0,0.9,0.9,1.7,2,1.7C1008.5,223.3,1009.3,222.6,1009.3,221.7z M1006.1,218
					c0,0.6,0.5,1.1,1.2,1.1s1.2-0.5,1.2-1.1s-0.5-1.1-1.2-1.1S1006.1,217.4,1006.1,218z"/>
				<path class="st8" d="M1022.2,215.5l-3.4,4.7v4h-1.2v-4l-3.3-4.7h1.4l2.5,3.6l2.6-3.6H1022.2z"/>
				<path class="st8" d="M1027.7,221.8h-4.8c0.2,1.1,0.9,1.6,1.9,1.6c0.7,0,1.4-0.3,1.7-0.9l1,0.4c-0.5,1-1.6,1.6-2.7,1.6
					c-1.7,0-3-1.2-3-3.1s1.4-3.1,3-3.1s2.9,1.2,2.9,3.1C1027.7,221.4,1027.7,221.6,1027.7,221.8z M1026.6,220.8
					c-0.1-1-0.9-1.6-1.8-1.6c-1,0-1.7,0.5-1.9,1.6H1026.6z"/>
				<path class="st8" d="M1035,218.3v5.9h-1.1v-0.9c-0.4,0.7-1.3,1.1-2.1,1.1c-1.6,0-3-1.2-3-3.1c0-1.9,1.3-3.1,3-3.1
					c0.9,0,1.7,0.4,2.1,1.1v-0.9H1035z M1033.9,221.3c0-1.3-1-2-2-2c-1.1,0-1.9,0.8-1.9,2c0,1.2,0.9,2.1,1.9,2.1
					C1032.9,223.3,1033.9,222.5,1033.9,221.3z"/>
				<path class="st8" d="M1040.7,218.4l-0.2,1c-0.3-0.2-0.6-0.2-0.9-0.2c-1.2,0-1.7,1.3-1.7,2.8v2.2h-1.1v-5.9h1.1v1.3
					c0.3-1,0.9-1.5,1.7-1.5C1040.1,218.2,1040.5,218.3,1040.7,218.4z"/>
				<path class="st8" d="M1041.3,222.5h1c0,0.5,0.5,0.9,1.2,0.9c0.7,0,1.2-0.3,1.2-0.8c0-0.4-0.3-0.7-0.8-0.8l-0.8-0.2
					c-1-0.3-1.6-0.7-1.6-1.7c0-1,0.8-1.7,2-1.7c1,0,2,0.5,2,1.7h-1.1c0-0.5-0.5-0.8-1-0.8c-0.6,0-1,0.3-1,0.8c0,0.4,0.4,0.6,0.8,0.7
					l0.9,0.2c1.2,0.3,1.5,1,1.5,1.7c0,1.1-1.1,1.8-2.3,1.8C1042.5,224.4,1041.4,223.7,1041.3,222.5z"/>
				<path class="st8" d="M1050.2,221.3c0-1.9,1.4-3.1,3.1-3.1s3.1,1.2,3.1,3.1s-1.4,3.1-3.1,3.1S1050.2,223.2,1050.2,221.3z
					 M1055.3,221.3c0-1.2-0.9-2-2-2c-1.1,0-2,0.8-2,2c0,1.2,0.9,2.1,2,2.1C1054.3,223.3,1055.3,222.5,1055.3,221.3z"/>
				<path class="st8" d="M1059.3,217.6v0.8h1.4v1h-1.4v5h-1.1v-5h-1.1v-1h1.1v-0.6c0-1.5,0.6-2.6,2.2-2.6h0.6v1h-0.4
					C1059.6,216.1,1059.3,216.8,1059.3,217.6z"/>
				<path class="st8" d="M1067.7,221h-1.1v3.3h-1.2v-8.7h3.3c1.9,0,2.6,1.4,2.6,2.7c0,1.3-0.6,2.5-2.3,2.7l2.3,3.3h-1.4L1067.7,221z
					 M1066.5,219.9h1.8c1.3,0,1.8-0.7,1.8-1.7c0-1-0.6-1.7-1.5-1.7h-2.2V219.9z"/>
				<path class="st8" d="M1079.6,223.4v1h-0.2c-0.8,0-1.6-0.4-1.8-1c-0.4,0.6-1.3,1-2.2,1c-1.7,0-2.9-1.3-2.9-2.8
					c0-1,0.6-1.8,1.4-2.2c-0.5-0.4-0.9-1-0.9-1.8c0-1.2,1-2.2,2.3-2.2c0.9,0,1.7,0.5,2.1,1.2l-0.9,0.6c-0.3-0.4-0.7-0.7-1.2-0.7
					c-0.8,0-1.3,0.5-1.3,1.2c0,0.6,0.4,1.3,1.5,1.3h1.5V218h1.1v1.1h1.1v0.9h-1.1v1.7c0,0.9,0.2,1.8,1.1,1.8H1079.6z M1077.1,221.7
					v-1.8h-1.5c-1.4,0-2,0.8-2,1.7c0,1,0.7,1.7,1.8,1.7C1076.4,223.3,1077.1,222.6,1077.1,221.7z"/>
				<path class="st8" d="M1081.2,215.5h3.4c2.5,0,3.9,1.9,3.9,4.4c0,2.5-1.5,4.4-3.9,4.4h-3.4V215.5z M1084.6,223.2
					c1.8,0,2.8-1.4,2.8-3.3s-1-3.3-2.8-3.3h-2.2v6.6H1084.6z"/>
				<path class="st8" d="M1092.9,221.3c0-1.9,1.4-3.1,3.1-3.1s3.1,1.2,3.1,3.1s-1.4,3.1-3.1,3.1S1092.9,223.2,1092.9,221.3z
					 M1098,221.3c0-1.2-0.9-2-2-2c-1.1,0-2,0.8-2,2c0,1.2,0.9,2.1,2,2.1C1097.1,223.3,1098,222.5,1098,221.3z"/>
				<path class="st8" d="M1106.1,220.8v3.4h-1.1v-3.4c0-1-0.6-1.6-1.4-1.6s-1.8,0.5-1.8,1.8v3.2h-1.1v-5.9h1.1v0.9
					c0.4-0.7,1.3-1,2-1C1105.2,218.2,1106.1,219.2,1106.1,220.8z"/>
				<path class="st8" d="M1009.5,238.9h-3.8l-0.9,2.2h-1.2l3.3-8.7h1.2l3.3,8.7h-1.2L1009.5,238.9z M1009.1,237.9l-1.5-4l-1.5,4
					H1009.1z"/>
				<path class="st8" d="M1012.8,240.6c0-0.5,0.4-0.8,0.8-0.8c0.4,0,0.8,0.3,0.8,0.8c0,0.4-0.4,0.8-0.8,0.8
					C1013.2,241.3,1012.8,241,1012.8,240.6z"/>
				<path class="st8" d="M1016.5,232.4h1.2v8.7h-1.2V232.4z"/>
				<path class="st8" d="M1019.7,240.6c0-0.5,0.4-0.8,0.8-0.8c0.4,0,0.8,0.3,0.8,0.8c0,0.4-0.4,0.8-0.8,0.8
					C1020.1,241.3,1019.7,241,1019.7,240.6z"/>
				<path class="st8" d="M1029.9,232.4h1.1l-4.3,8.7h-1.1L1029.9,232.4z"/>
				<path class="st8" d="M1044.6,241.2l-0.8-6.7l-2.8,5.7h-1l-2.8-5.7l-0.8,6.7h-1.1l1.1-8.7h1l3.1,6.5l3.1-6.5h1l1.1,8.7H1044.6z"
					/>
				<path class="st8" d="M1047.5,240.6c0-0.5,0.4-0.8,0.8-0.8c0.4,0,0.8,0.3,0.8,0.8c0,0.4-0.4,0.8-0.8,0.8
					C1047.9,241.3,1047.5,241,1047.5,240.6z"/>
				<path class="st8" d="M1051.2,232.4h1.2v7.7h3.6v1.1h-4.7V232.4z"/>
				<path class="st8" d="M1057.4,240.6c0-0.5,0.4-0.8,0.8-0.8c0.4,0,0.8,0.3,0.8,0.8c0,0.4-0.4,0.8-0.8,0.8
					C1057.8,241.3,1057.4,241,1057.4,240.6z"/>
				<path class="st8" d="M1068.8,238.9h-3.8l-0.9,2.2h-1.2l3.3-8.7h1.2l3.3,8.7h-1.2L1068.8,238.9z M1068.4,237.9l-1.5-4l-1.5,4
					H1068.4z"/>
				<path class="st8" d="M1078.1,238.2c0,1.9-1.3,3.1-3,3.1c-0.9,0-1.7-0.4-2.1-1.1v3.8h-1.1v-8.8h1.1v0.9c0.4-0.7,1.3-1.1,2.1-1.1
					C1076.8,235.1,1078.1,236.4,1078.1,238.2z M1077,238.2c0-1.2-0.9-2.1-2-2.1c-1.1,0-2,0.8-2,2.1c0,1.3,1,2,2,2
					C1076.2,240.3,1077,239.4,1077,238.2z"/>
				<path class="st8" d="M1085.8,238.2c0,1.9-1.3,3.1-3,3.1c-0.9,0-1.7-0.4-2.1-1.1v3.8h-1.1v-8.8h1.1v0.9c0.4-0.7,1.3-1.1,2.1-1.1
					C1084.5,235.1,1085.8,236.4,1085.8,238.2z M1084.7,238.2c0-1.2-0.9-2.1-2-2.1c-1.1,0-2,0.8-2,2.1c0,1.3,1,2,2,2
					C1083.8,240.3,1084.7,239.4,1084.7,238.2z"/>
				<path class="st8" d="M1087.3,232h1.1v9.2h-1.1V232z"/>
				<path class="st8" d="M1090.1,233.1c0-0.4,0.4-0.7,0.8-0.7c0.4,0,0.8,0.3,0.8,0.7s-0.4,0.7-0.8,0.7
					C1090.4,233.8,1090.1,233.5,1090.1,233.1z M1090.3,235.3h1.1v5.9h-1.1V235.3z"/>
				<path class="st8" d="M1092.8,238.2c0-1.9,1.5-3.1,3.2-3.1c0.9,0,1.7,0.4,2.3,0.9l-0.7,0.7c-0.4-0.4-0.9-0.6-1.5-0.6
					c-1.2,0-2.1,0.8-2.1,2s0.9,2,2.1,2c0.6,0,1.2-0.2,1.5-0.6l0.7,0.7c-0.5,0.6-1.3,0.9-2.3,0.9
					C1094.3,241.3,1092.8,240.1,1092.8,238.2z"/>
				<path class="st8" d="M1105.2,235.3v5.9h-1.1v-0.9c-0.4,0.7-1.3,1.1-2.1,1.1c-1.6,0-3-1.2-3-3.1c0-1.9,1.3-3.1,3-3.1
					c0.9,0,1.7,0.4,2.1,1.1v-0.9H1105.2z M1104.1,238.2c0-1.3-1-2-2-2c-1.1,0-1.9,0.8-1.9,2c0,1.2,0.9,2.1,1.9,2.1
					C1103.2,240.3,1104.1,239.5,1104.1,238.2z"/>
				<path class="st8" d="M1109.9,236.2h-1.3v5h-1.1v-5h-1.1v-1h1.1V233h1.1v2.2h1.3V236.2z"/>
				<path class="st8" d="M1110.8,233.1c0-0.4,0.4-0.7,0.8-0.7c0.4,0,0.8,0.3,0.8,0.7s-0.4,0.7-0.8,0.7
					C1111.2,233.8,1110.8,233.5,1110.8,233.1z M1111.1,235.3h1.1v5.9h-1.1V235.3z"/>
				<path class="st8" d="M1113.6,238.2c0-1.9,1.4-3.1,3.1-3.1s3.1,1.2,3.1,3.1s-1.4,3.1-3.1,3.1S1113.6,240.1,1113.6,238.2z
					 M1118.7,238.2c0-1.2-0.9-2-2-2c-1.1,0-2,0.8-2,2c0,1.2,0.9,2.1,2,2.1C1117.8,240.3,1118.7,239.4,1118.7,238.2z"/>
				<path class="st8" d="M1126.8,237.8v3.4h-1.1v-3.4c0-1-0.6-1.6-1.4-1.6s-1.8,0.5-1.8,1.8v3.2h-1.1v-5.9h1.1v0.9
					c0.4-0.7,1.3-1,2-1C1125.9,235.1,1126.8,236.1,1126.8,237.8z"/>
				<path class="st8" d="M1128.1,239.4h1c0,0.5,0.5,0.9,1.2,0.9c0.7,0,1.2-0.3,1.2-0.8c0-0.4-0.3-0.7-0.8-0.8l-0.8-0.2
					c-1-0.3-1.6-0.7-1.6-1.7c0-1,0.8-1.7,2-1.7c1,0,2,0.5,2,1.7h-1.1c0-0.5-0.5-0.8-1-0.8c-0.6,0-1,0.3-1,0.8c0,0.4,0.4,0.6,0.8,0.7
					l0.9,0.2c1.2,0.3,1.5,1,1.5,1.7c0,1.1-1.1,1.8-2.3,1.8C1129.3,241.3,1128.2,240.6,1128.1,239.4z"/>
				<path class="st8" d="M1004.2,255.1c0-1.9,1.4-3.1,3.1-3.1s3.1,1.2,3.1,3.1s-1.4,3.1-3.1,3.1S1004.2,257,1004.2,255.1z
					 M1009.3,255.1c0-1.2-0.9-2-2-2c-1.1,0-2,0.8-2,2c0,1.2,0.9,2.1,2,2.1C1008.4,257.2,1009.3,256.4,1009.3,255.1z"/>
				<path class="st8" d="M1017.4,254.7v3.4h-1.1v-3.4c0-1-0.6-1.6-1.4-1.6s-1.8,0.5-1.8,1.8v3.2h-1.1v-5.9h1.1v0.9
					c0.4-0.7,1.3-1,2-1C1016.4,252.1,1017.4,253,1017.4,254.7z"/>
				<path class="st8" d="M1022,253.8c0-2.5,2-4.5,4.4-4.5c1.3,0,2.5,0.6,3.3,1.5l-0.8,0.7c-0.6-0.7-1.5-1.1-2.5-1.1
					c-1.8,0-3.3,1.5-3.3,3.4c0,1.9,1.4,3.4,3.3,3.4c1,0,1.9-0.4,2.5-1.1l0.8,0.7c-0.8,0.9-1.9,1.5-3.3,1.5
					C1024,258.2,1022,256.2,1022,253.8z"/>
				<path class="st8" d="M1030.7,255.1c0-1.9,1.4-3.1,3.1-3.1s3.1,1.2,3.1,3.1s-1.4,3.1-3.1,3.1S1030.7,257,1030.7,255.1z
					 M1035.8,255.1c0-1.2-0.9-2-2-2c-1.1,0-2,0.8-2,2c0,1.2,0.9,2.1,2,2.1C1034.9,257.2,1035.8,256.4,1035.8,255.1z"/>
				<path class="st8" d="M1044.2,248.9v9.2h-1.1v-0.9c-0.4,0.7-1.3,1.1-2.1,1.1c-1.6,0-3-1.2-3-3.1c0-1.9,1.3-3.1,3-3.1
					c0.9,0,1.7,0.4,2.1,1.1v-4.2H1044.2z M1043.1,255.1c0-1.3-1-2-2-2c-1.1,0-1.9,0.8-1.9,2c0,1.2,0.9,2.1,1.9,2.1
					C1042.2,257.2,1043.1,256.4,1043.1,255.1z"/>
				<path class="st8" d="M1051.7,255.6h-4.8c0.2,1.1,0.9,1.6,1.9,1.6c0.7,0,1.4-0.3,1.7-0.9l1,0.4c-0.5,1-1.6,1.6-2.7,1.6
					c-1.7,0-3-1.2-3-3.1s1.4-3.1,3-3.1s2.9,1.2,2.9,3.1C1051.7,255.3,1051.7,255.5,1051.7,255.6z M1050.6,254.7
					c-0.1-1-0.9-1.6-1.8-1.6c-1,0-1.7,0.5-1.9,1.6H1050.6z"/>
			</g>
		</g>
		<g>
			<circle class="st2" cx="980.7" cy="286.3" r="12.7"/>
			<g>
				<path class="st7" d="M984.1,288.8v1.9h-6.9v-1.1l4-4.8c0.4-0.5,0.7-1.1,0.7-1.4c0-0.7-0.6-1.2-1.4-1.2c-0.9,0-1.4,0.6-1.6,1.5
					l-1.9-0.3c0.3-1.8,1.4-3.1,3.5-3.1s3.4,1.2,3.4,3.1c0,1-0.5,1.9-1.1,2.6l-2.4,2.8H984.1z"/>
			</g>
			<g>
				<path class="st8" d="M1004.3,287.1h1.1c0,0.8,0.8,1.6,1.9,1.6c1.1,0,1.8-0.7,1.8-1.5c0-0.9-0.8-1.2-1.5-1.4l-1.1-0.3
					c-1.9-0.4-2.1-1.5-2.1-2.2c0-1.5,1.4-2.5,2.9-2.5c1.5,0,2.8,1,2.8,2.5h-1.1c0-0.9-0.7-1.5-1.7-1.5c-0.9,0-1.7,0.5-1.7,1.4
					c0,0.3,0.1,0.9,1.3,1.2l1.1,0.3c1.5,0.4,2.4,1.2,2.4,2.4c0,1.4-1.1,2.6-2.9,2.6C1005.5,289.7,1004.3,288.4,1004.3,287.1z"/>
				<path class="st8" d="M1014.5,284.6h-1.3v5h-1.1v-5h-1.1v-1h1.1v-2.2h1.1v2.2h1.3V284.6z"/>
				<path class="st8" d="M1021.2,287.1h-4.8c0.2,1.1,0.9,1.6,1.9,1.6c0.7,0,1.4-0.3,1.7-0.9l1,0.4c-0.5,1-1.6,1.6-2.7,1.6
					c-1.7,0-3-1.2-3-3.1s1.4-3.1,3-3.1s2.9,1.2,2.9,3.1C1021.2,286.7,1021.2,286.9,1021.2,287.1z M1020.1,286.1
					c-0.1-1-0.9-1.6-1.8-1.6c-1,0-1.7,0.5-1.9,1.6H1020.1z"/>
				<path class="st8" d="M1028.5,283.6v5.9h-1.1v-0.9c-0.4,0.7-1.3,1.1-2.1,1.1c-1.6,0-3-1.2-3-3.1c0-1.9,1.3-3.1,3-3.1
					c0.9,0,1.7,0.4,2.1,1.1v-0.9H1028.5z M1027.4,286.6c0-1.3-1-2-2-2c-1.1,0-1.9,0.8-1.9,2c0,1.2,0.9,2.1,1.9,2.1
					C1026.5,288.7,1027.4,287.9,1027.4,286.6z"/>
				<path class="st8" d="M1030.4,280.4h1.1v9.2h-1.1V280.4z"/>
				<path class="st8" d="M1036.2,284.6h-1.3v5h-1.1v-5h-1.1v-1h1.1v-2.2h1.1v2.2h1.3V284.6z"/>
				<path class="st8" d="M1042.8,286.1v3.4h-1.1v-3.4c0-1-0.6-1.6-1.4-1.6s-1.8,0.5-1.8,1.8v3.2h-1.1v-9.2h1.1v4.1
					c0.4-0.7,1.3-1,2-1C1041.9,283.5,1042.8,284.5,1042.8,286.1z"/>
				<path class="st8" d="M1057,289.6l-0.8-6.7l-2.8,5.7h-1l-2.8-5.7l-0.8,6.7h-1.1l1.1-8.7h1l3.1,6.5l3.1-6.5h1l1.1,8.7H1057z"/>
				<path class="st8" d="M1065.6,283.6v5.9h-1.1v-0.9c-0.4,0.7-1.3,1.1-2.1,1.1c-1.6,0-3-1.2-3-3.1c0-1.9,1.3-3.1,3-3.1
					c0.9,0,1.7,0.4,2.1,1.1v-0.9H1065.6z M1064.5,286.6c0-1.3-1-2-2-2c-1.1,0-1.9,0.8-1.9,2c0,1.2,0.9,2.1,1.9,2.1
					C1063.5,288.7,1064.5,287.9,1064.5,286.6z"/>
				<path class="st8" d="M1071.3,283.7l-0.2,1c-0.3-0.2-0.6-0.2-0.9-0.2c-1.2,0-1.7,1.3-1.7,2.8v2.2h-1.1v-5.9h1.1v1.3
					c0.3-1,0.9-1.5,1.7-1.5C1070.7,283.5,1071.1,283.6,1071.3,283.7z"/>
				<path class="st8" d="M1076.2,289.6l-2.7-2.9v2.9h-1.1v-9.2h1.1v5.3l2.1-2.1h1.5l-2.5,2.6l3.2,3.4H1076.2z"/>
				<path class="st8" d="M1083.8,287.1h-4.8c0.2,1.1,0.9,1.6,1.9,1.6c0.7,0,1.4-0.3,1.7-0.9l1,0.4c-0.5,1-1.6,1.6-2.7,1.6
					c-1.7,0-3-1.2-3-3.1s1.4-3.1,3-3.1s2.9,1.2,2.9,3.1C1083.8,286.7,1083.8,286.9,1083.8,287.1z M1082.7,286.1
					c-0.1-1-0.9-1.6-1.8-1.6c-1,0-1.7,0.5-1.9,1.6H1082.7z"/>
				<path class="st8" d="M1088,284.6h-1.3v5h-1.1v-5h-1.1v-1h1.1v-2.2h1.1v2.2h1.3V284.6z"/>
				<path class="st8" d="M1098,288.5v1.1h-5.3v-8.7h5.2v1.1h-4v2.8h3.5v1.1h-3.5v2.7H1098z"/>
				<path class="st8" d="M1105,286.1v3.4h-1.1v-3.4c0-1-0.6-1.6-1.4-1.6s-1.8,0.5-1.8,1.8v3.2h-1.1v-5.9h1.1v0.9c0.4-0.7,1.3-1,2-1
					C1104,283.5,1105,284.5,1105,286.1z"/>
				<path class="st8" d="M1109.5,284.6h-1.3v5h-1.1v-5h-1.1v-1h1.1v-2.2h1.1v2.2h1.3V284.6z"/>
				<path class="st8" d="M1114.4,283.7l-0.2,1c-0.3-0.2-0.6-0.2-0.9-0.2c-1.2,0-1.7,1.3-1.7,2.8v2.2h-1.1v-5.9h1.1v1.3
					c0.3-1,0.9-1.5,1.7-1.5C1113.8,283.5,1114.3,283.6,1114.4,283.7z"/>
				<path class="st8" d="M1121.2,283.6l-3.7,8.8h-1.2l1.2-3l-2.4-5.8h1.2l1.8,4.4l1.8-4.4H1121.2z"/>
				<path class="st8" d="M1134.2,283.6l-2.2,5.9h-0.9l-1.6-4.4l-1.6,4.4h-0.9l-2.3-5.9h1.2l1.5,4.2l1.5-4.2h1.1l1.5,4.2l1.5-4.2
					H1134.2z"/>
				<path class="st8" d="M1135.2,281.5c0-0.4,0.4-0.7,0.8-0.7c0.4,0,0.8,0.3,0.8,0.7s-0.4,0.7-0.8,0.7
					C1135.5,282.2,1135.2,281.9,1135.2,281.5z M1135.4,283.6h1.1v5.9h-1.1V283.6z"/>
				<path class="st8" d="M1141.1,284.6h-1.3v5h-1.1v-5h-1.1v-1h1.1v-2.2h1.1v2.2h1.3V284.6z"/>
				<path class="st8" d="M1147.8,286.1v3.4h-1.1v-3.4c0-1-0.6-1.6-1.4-1.6s-1.8,0.5-1.8,1.8v3.2h-1.1v-9.2h1.1v4.1
					c0.4-0.7,1.3-1,2-1C1146.9,283.5,1147.8,284.5,1147.8,286.1z"/>
				<path class="st8" d="M1004.2,302.1c0-2.5,1.9-4.5,4.4-4.5c1.2,0,2.2,0.4,2.9,1.1l-0.8,0.7c-0.6-0.5-1.3-0.8-2.1-0.8
					c-1.8,0-3.3,1.5-3.3,3.4s1.4,3.4,3.3,3.4c1.5,0,2.7-0.9,2.8-2.2c0-0.1,0-0.1,0-0.2h-2.5v-1h3.8c0,3.1-1.7,4.5-4.1,4.5
					S1004.2,304.6,1004.2,302.1z"/>
				<path class="st8" d="M1020.1,300.6v5.9h-1.1v-0.9c-0.4,0.7-1.3,1.1-2.1,1.1c-1.6,0-3-1.2-3-3.1c0-1.9,1.3-3.1,3-3.1
					c0.9,0,1.7,0.4,2.1,1.1v-0.9H1020.1z M1019,303.5c0-1.3-1-2-2-2c-1.1,0-1.9,0.8-1.9,2c0,1.2,0.9,2.1,1.9,2.1
					C1018,305.6,1019,304.8,1019,303.5z"/>
				<path class="st8" d="M1031.3,303.1v3.4h-1.1v-3.4c0-1-0.5-1.6-1.4-1.6c-1.1,0-1.7,0.9-1.6,2l0-0.1v3h-1.1v-3.4
					c0-1-0.5-1.6-1.3-1.6c-0.8,0-1.7,0.5-1.7,1.8v3.2h-1.1v-5.9h1.1v0.9c0.3-0.6,1.1-1,1.9-1c0.9,0,1.6,0.4,2,1.2
					c0.5-1.1,1.5-1.2,2.1-1.2C1030.5,300.4,1031.3,301.4,1031.3,303.1z"/>
				<path class="st8" d="M1042.4,303.1v3.4h-1.1v-3.4c0-1-0.5-1.6-1.4-1.6c-1.1,0-1.7,0.9-1.6,2l0-0.1v3h-1.1v-3.4
					c0-1-0.5-1.6-1.3-1.6c-0.8,0-1.7,0.5-1.7,1.8v3.2h-1.1v-5.9h1.1v0.9c0.3-0.6,1.1-1,1.9-1c0.9,0,1.6,0.4,2,1.2
					c0.5-1.1,1.5-1.2,2.1-1.2C1041.6,300.4,1042.4,301.4,1042.4,303.1z"/>
				<path class="st8" d="M1050,300.6v5.9h-1.1v-0.9c-0.4,0.7-1.3,1.1-2.1,1.1c-1.6,0-3-1.2-3-3.1c0-1.9,1.3-3.1,3-3.1
					c0.9,0,1.7,0.4,2.1,1.1v-0.9H1050z M1048.9,303.5c0-1.3-1-2-2-2c-1.1,0-1.9,0.8-1.9,2c0,1.2,0.9,2.1,1.9,2.1
					C1048,305.6,1048.9,304.8,1048.9,303.5z"/>
				<path class="st8" d="M1061,300.6v5.9h-1.1v-0.9c-0.4,0.7-1.3,1.1-2.1,1.1c-1.6,0-3-1.2-3-3.1c0-1.9,1.3-3.1,3-3.1
					c0.9,0,1.7,0.4,2.1,1.1v-0.9H1061z M1059.9,303.5c0-1.3-1-2-2-2c-1.1,0-1.9,0.8-1.9,2c0,1.2,0.9,2.1,1.9,2.1
					C1058.9,305.6,1059.9,304.8,1059.9,303.5z"/>
				<path class="st8" d="M1068.3,303.1v3.4h-1.1v-3.4c0-1-0.6-1.6-1.4-1.6s-1.8,0.5-1.8,1.8v3.2h-1.1v-5.9h1.1v0.9
					c0.4-0.7,1.3-1,2-1C1067.4,300.4,1068.3,301.4,1068.3,303.1z"/>
				<path class="st8" d="M1075.9,297.3v9.2h-1.1v-0.9c-0.4,0.7-1.3,1.1-2.1,1.1c-1.6,0-3-1.2-3-3.1c0-1.9,1.3-3.1,3-3.1
					c0.9,0,1.7,0.4,2.1,1.1v-4.2H1075.9z M1074.8,303.5c0-1.3-1-2-2-2c-1.1,0-1.9,0.8-1.9,2c0,1.2,0.9,2.1,1.9,2.1
					C1073.8,305.6,1074.8,304.8,1074.8,303.5z"/>
				<path class="st8" d="M1086.4,306.5h-1.1v-5h-2.7v5h-1.1v-5h-1.1v-1h1.1v-0.6c0-1.5,0.6-2.6,2.2-2.6h0.5v1h-0.3
					c-1.1,0-1.3,0.6-1.3,1.4v0.8h3.8V306.5z M1086.6,298.4c0,0.4-0.3,0.7-0.8,0.7c-0.4,0-0.8-0.3-0.8-0.7s0.4-0.7,0.8-0.7
					C1086.3,297.6,1086.6,298,1086.6,298.4z"/>
				<path class="st8" d="M1093.7,303.1v3.4h-1.1v-3.4c0-1-0.6-1.6-1.4-1.6s-1.8,0.5-1.8,1.8v3.2h-1.1v-5.9h1.1v0.9
					c0.4-0.7,1.3-1,2-1C1092.8,300.4,1093.7,301.4,1093.7,303.1z"/>
				<path class="st8" d="M1101.3,300.6v5.9h-1.1v-0.9c-0.4,0.7-1.3,1.1-2.1,1.1c-1.6,0-3-1.2-3-3.1c0-1.9,1.3-3.1,3-3.1
					c0.9,0,1.7,0.4,2.1,1.1v-0.9H1101.3z M1100.2,303.5c0-1.3-1-2-2-2c-1.1,0-1.9,0.8-1.9,2c0,1.2,0.9,2.1,1.9,2.1
					C1099.3,305.6,1100.2,304.8,1100.2,303.5z"/>
				<path class="st8" d="M1103.2,297.3h1.1v9.2h-1.1V297.3z"/>
				<path class="st8" d="M1112.2,301.5h-1.3v5h-1.1v-5h-1.1v-1h1.1v-2.2h1.1v2.2h1.3V301.5z"/>
				<path class="st8" d="M1112.9,303.5c0-1.9,1.4-3.1,3.1-3.1s3.1,1.2,3.1,3.1s-1.4,3.1-3.1,3.1S1112.9,305.4,1112.9,303.5z
					 M1118,303.5c0-1.2-0.9-2-2-2c-1.1,0-2,0.8-2,2c0,1.2,0.9,2.1,2,2.1C1117.1,305.6,1118,304.7,1118,303.5z"/>
				<path class="st8" d="M1126,300.6v5.9h-1.1v-0.9c-0.4,0.7-1.3,1.1-2,1.1c-1.5,0-2.4-1-2.4-2.6v-3.4h1.1v3.4c0,1,0.6,1.6,1.4,1.6
					s1.8-0.5,1.8-1.8v-3.2H1126z"/>
				<path class="st8" d="M1127.5,303.5c0-1.9,1.5-3.1,3.2-3.1c0.9,0,1.7,0.4,2.3,0.9l-0.7,0.7c-0.4-0.4-0.9-0.6-1.5-0.6
					c-1.2,0-2.1,0.8-2.1,2s0.9,2,2.1,2c0.6,0,1.2-0.2,1.5-0.6l0.7,0.7c-0.5,0.6-1.3,0.9-2.3,0.9
					C1129,306.6,1127.5,305.4,1127.5,303.5z"/>
				<path class="st8" d="M1139.7,303.1v3.4h-1.1v-3.4c0-1-0.6-1.6-1.4-1.6s-1.8,0.5-1.8,1.8v3.2h-1.1v-9.2h1.1v4.1
					c0.4-0.7,1.3-1,2-1C1138.8,300.4,1139.7,301.4,1139.7,303.1z"/>
				<path class="st8" d="M1147,304h-4.8c0.2,1.1,0.9,1.6,1.9,1.6c0.7,0,1.4-0.3,1.7-0.9l1,0.4c-0.5,1-1.6,1.6-2.7,1.6
					c-1.7,0-3-1.2-3-3.1s1.4-3.1,3-3.1s2.9,1.2,2.9,3.1C1147.1,303.7,1147,303.8,1147,304z M1146,303c-0.1-1-0.9-1.6-1.8-1.6
					c-1,0-1.7,0.5-1.9,1.6H1146z"/>
				<path class="st8" d="M1148.1,304.7h1c0,0.5,0.5,0.9,1.2,0.9c0.7,0,1.2-0.3,1.2-0.8c0-0.4-0.3-0.7-0.8-0.8l-0.8-0.2
					c-1-0.3-1.6-0.7-1.6-1.7c0-1,0.8-1.7,2-1.7c1,0,2,0.5,2,1.7h-1.1c0-0.5-0.5-0.8-1-0.8c-0.6,0-1,0.3-1,0.8c0,0.4,0.4,0.6,0.8,0.7
					l0.9,0.2c1.2,0.3,1.5,1,1.5,1.7c0,1.1-1.1,1.8-2.3,1.8C1149.2,306.6,1148.1,305.9,1148.1,304.7z"/>
				<path class="st8" d="M1007.4,318.4h-1.3v5h-1.1v-5h-1.1v-1h1.1v-2.2h1.1v2.2h1.3V318.4z"/>
				<path class="st8" d="M1008.1,320.4c0-1.9,1.4-3.1,3.1-3.1s3.1,1.2,3.1,3.1s-1.4,3.1-3.1,3.1S1008.1,322.3,1008.1,320.4z
					 M1013.2,320.4c0-1.2-0.9-2-2-2c-1.1,0-2,0.8-2,2c0,1.2,0.9,2.1,2,2.1C1012.3,322.5,1013.2,321.7,1013.2,320.4z"/>
				<path class="st8" d="M1018.7,320.4c0-1.9,1.4-3.1,3.1-3.1s3.1,1.2,3.1,3.1s-1.4,3.1-3.1,3.1S1018.7,322.3,1018.7,320.4z
					 M1023.8,320.4c0-1.2-0.9-2-2-2c-1.1,0-2,0.8-2,2c0,1.2,0.9,2.1,2,2.1C1022.9,322.5,1023.8,321.7,1023.8,320.4z"/>
				<path class="st8" d="M1031.7,317.5v5.9h-1.1v-0.9c-0.4,0.7-1.3,1.1-2,1.1c-1.5,0-2.4-1-2.4-2.6v-3.4h1.1v3.4
					c0,1,0.6,1.6,1.4,1.6s1.8-0.5,1.8-1.8v-3.2H1031.7z"/>
				<path class="st8" d="M1037.4,317.6l-0.2,1c-0.3-0.2-0.6-0.2-0.9-0.2c-1.2,0-1.7,1.3-1.7,2.8v2.2h-1.1v-5.9h1.1v1.3
					c0.3-1,0.9-1.5,1.7-1.5C1036.8,317.4,1037.2,317.5,1037.4,317.6z"/>
				<path class="st8" d="M1045.5,317.6l-0.2,1c-0.3-0.2-0.6-0.2-0.9-0.2c-1.2,0-1.7,1.3-1.7,2.8v2.2h-1.1v-5.9h1.1v1.3
					c0.3-1,0.9-1.5,1.7-1.5C1044.9,317.4,1045.4,317.5,1045.5,317.6z"/>
				<path class="st8" d="M1052.1,320.9h-4.8c0.2,1.1,0.9,1.6,1.9,1.6c0.7,0,1.4-0.3,1.7-0.9l1,0.4c-0.5,1-1.6,1.6-2.7,1.6
					c-1.7,0-3-1.2-3-3.1s1.4-3.1,3-3.1s2.9,1.2,2.9,3.1C1052.2,320.6,1052.1,320.8,1052.1,320.9z M1051.1,320
					c-0.1-1-0.9-1.6-1.8-1.6c-1,0-1.7,0.5-1.9,1.6H1051.1z"/>
				<path class="st8" d="M1053.3,320.4c0-1.9,1.5-3.1,3.2-3.1c0.9,0,1.7,0.4,2.3,0.9l-0.7,0.7c-0.4-0.4-0.9-0.6-1.5-0.6
					c-1.2,0-2.1,0.8-2.1,2s0.9,2,2.1,2c0.6,0,1.2-0.2,1.5-0.6l0.7,0.7c-0.5,0.6-1.3,0.9-2.3,0.9
					C1054.8,323.5,1053.3,322.3,1053.3,320.4z"/>
				<path class="st8" d="M1059.5,320.4c0-1.9,1.4-3.1,3.1-3.1s3.1,1.2,3.1,3.1s-1.4,3.1-3.1,3.1S1059.5,322.3,1059.5,320.4z
					 M1064.6,320.4c0-1.2-0.9-2-2-2c-1.1,0-2,0.8-2,2c0,1.2,0.9,2.1,2,2.1C1063.7,322.5,1064.6,321.7,1064.6,320.4z"/>
				<path class="st8" d="M1076.5,320v3.4h-1.1V320c0-1-0.5-1.6-1.4-1.6c-1.1,0-1.7,0.9-1.6,2l0-0.1v3h-1.1V320c0-1-0.5-1.6-1.3-1.6
					c-0.8,0-1.7,0.5-1.7,1.8v3.2h-1.1v-5.9h1.1v0.9c0.3-0.6,1.1-1,1.9-1c0.9,0,1.6,0.4,2,1.2c0.5-1.1,1.5-1.2,2.1-1.2
					C1075.7,317.4,1076.5,318.3,1076.5,320z"/>
				<path class="st8" d="M1087.7,320v3.4h-1.1V320c0-1-0.5-1.6-1.4-1.6c-1.1,0-1.7,0.9-1.6,2l0-0.1v3h-1.1V320c0-1-0.5-1.6-1.3-1.6
					c-0.8,0-1.7,0.5-1.7,1.8v3.2h-1.1v-5.9h1.1v0.9c0.3-0.6,1.1-1,1.9-1c0.9,0,1.6,0.4,2,1.2c0.5-1.1,1.5-1.2,2.1-1.2
					C1086.9,317.4,1087.7,318.3,1087.7,320z"/>
				<path class="st8" d="M1095.1,320.9h-4.8c0.2,1.1,0.9,1.6,1.9,1.6c0.7,0,1.4-0.3,1.7-0.9l1,0.4c-0.5,1-1.6,1.6-2.7,1.6
					c-1.7,0-3-1.2-3-3.1s1.4-3.1,3-3.1s2.9,1.2,2.9,3.1C1095.1,320.6,1095.1,320.8,1095.1,320.9z M1094,320c-0.1-1-0.9-1.6-1.8-1.6
					c-1,0-1.7,0.5-1.9,1.6H1094z"/>
				<path class="st8" d="M1102,320v3.4h-1.1V320c0-1-0.6-1.6-1.4-1.6s-1.8,0.5-1.8,1.8v3.2h-1.1v-5.9h1.1v0.9c0.4-0.7,1.3-1,2-1
					C1101.1,317.4,1102.1,318.3,1102,320z"/>
				<path class="st8" d="M1109.6,314.2v9.2h-1.1v-0.9c-0.4,0.7-1.3,1.1-2.1,1.1c-1.6,0-3-1.2-3-3.1c0-1.9,1.3-3.1,3-3.1
					c0.9,0,1.7,0.4,2.1,1.1v-4.2H1109.6z M1108.5,320.4c0-1.3-1-2-2-2c-1.1,0-1.9,0.8-1.9,2c0,1.2,0.9,2.1,1.9,2.1
					C1107.6,322.5,1108.5,321.7,1108.5,320.4z"/>
				<path class="st8" d="M1117.3,317.5v5.9h-1.1v-0.9c-0.4,0.7-1.3,1.1-2.1,1.1c-1.6,0-3-1.2-3-3.1c0-1.9,1.3-3.1,3-3.1
					c0.9,0,1.7,0.4,2.1,1.1v-0.9H1117.3z M1116.2,320.4c0-1.3-1-2-2-2c-1.1,0-1.9,0.8-1.9,2c0,1.2,0.9,2.1,1.9,2.1
					C1115.2,322.5,1116.2,321.7,1116.2,320.4z"/>
				<path class="st8" d="M1122,318.4h-1.3v5h-1.1v-5h-1.1v-1h1.1v-2.2h1.1v2.2h1.3V318.4z"/>
				<path class="st8" d="M1122.9,315.3c0-0.4,0.4-0.7,0.8-0.7c0.4,0,0.8,0.3,0.8,0.7s-0.4,0.7-0.8,0.7
					C1123.3,316,1122.9,315.7,1122.9,315.3z M1123.2,317.5h1.1v5.9h-1.1V317.5z"/>
				<path class="st8" d="M1125.7,320.4c0-1.9,1.4-3.1,3.1-3.1s3.1,1.2,3.1,3.1s-1.4,3.1-3.1,3.1S1125.7,322.3,1125.7,320.4z
					 M1130.8,320.4c0-1.2-0.9-2-2-2c-1.1,0-2,0.8-2,2c0,1.2,0.9,2.1,2,2.1C1129.9,322.5,1130.8,321.7,1130.8,320.4z"/>
				<path class="st8" d="M1138.9,320v3.4h-1.1V320c0-1-0.6-1.6-1.4-1.6s-1.8,0.5-1.8,1.8v3.2h-1.1v-5.9h1.1v0.9c0.4-0.7,1.3-1,2-1
					C1138,317.4,1138.9,318.3,1138.9,320z"/>
				<path class="st8" d="M1149.5,320.9h-4.8c0.2,1.1,0.9,1.6,1.9,1.6c0.7,0,1.4-0.3,1.7-0.9l1,0.4c-0.5,1-1.6,1.6-2.7,1.6
					c-1.7,0-3-1.2-3-3.1s1.4-3.1,3-3.1s2.9,1.2,2.9,3.1C1149.5,320.6,1149.5,320.8,1149.5,320.9z M1148.4,320
					c-0.1-1-0.9-1.6-1.8-1.6c-1,0-1.7,0.5-1.9,1.6H1148.4z"/>
				<path class="st8" d="M1156.5,320v3.4h-1.1V320c0-1-0.6-1.6-1.4-1.6s-1.8,0.5-1.8,1.8v3.2h-1.1v-5.9h1.1v0.9c0.4-0.7,1.3-1,2-1
					C1155.5,317.4,1156.5,318.3,1156.5,320z"/>
				<path class="st8" d="M1164,317.5v5c0,2.8-1.3,3.9-3.2,3.9c-1.1,0-2.1-0.5-2.7-1.6l0.9-0.5c0.4,0.7,1.1,1,1.7,1
					c1.3,0,2.1-0.7,2.1-2.7v-0.1c-0.4,0.7-1.3,1.1-2.1,1.1c-1.6,0-3-1.2-3-3.1c0-1.9,1.3-3.1,3-3.1c0.9,0,1.7,0.4,2.1,1.1v-0.9H1164
					z M1162.9,320.4c0-1.3-1-2-2-2c-1.1,0-1.9,0.8-1.9,2c0,1.2,0.9,2.1,1.9,2.1C1162,322.5,1162.9,321.7,1162.9,320.4z"/>
				<path class="st8" d="M1165.7,315.3c0-0.4,0.4-0.7,0.8-0.7c0.4,0,0.8,0.3,0.8,0.7s-0.4,0.7-0.8,0.7
					C1166,316,1165.7,315.7,1165.7,315.3z M1165.9,317.5h1.1v5.9h-1.1V317.5z"/>
				<path class="st8" d="M1174.3,320v3.4h-1.1V320c0-1-0.6-1.6-1.4-1.6s-1.8,0.5-1.8,1.8v3.2h-1.1v-5.9h1.1v0.9c0.4-0.7,1.3-1,2-1
					C1173.4,317.4,1174.3,318.3,1174.3,320z"/>
				<path class="st8" d="M1181.7,320.9h-4.8c0.2,1.1,0.9,1.6,1.9,1.6c0.7,0,1.4-0.3,1.7-0.9l1,0.4c-0.5,1-1.6,1.6-2.7,1.6
					c-1.7,0-3-1.2-3-3.1s1.4-3.1,3-3.1s2.9,1.2,2.9,3.1C1181.7,320.6,1181.7,320.8,1181.7,320.9z M1180.6,320
					c-0.1-1-0.9-1.6-1.8-1.6c-1,0-1.7,0.5-1.9,1.6H1180.6z"/>
			</g>
		</g>
		<g>
			<circle class="st2" cx="980.7" cy="351.6" r="12.7"/>
			<g>
				<path class="st7" d="M984.1,353.1c0,1.9-1.6,3.1-3.8,3.1c-1.5,0-2.6-0.6-3.4-1.8l1.4-1.1c0.5,0.7,1.1,1,1.8,1
					c1.1,0,1.8-0.6,1.8-1.4c0-0.9-0.7-1.5-1.8-1.5h-1v-1.6h0.6c1.1,0,1.8-0.6,1.7-1.3c0-0.6-0.6-1-1.3-1c-0.6,0-1.4,0.3-1.7,0.8
					l-1.1-1.3c0.7-0.8,1.8-1.4,3.1-1.4c1.8,0,3.2,1.1,3.2,2.8c0,0.9-0.5,1.6-1.4,2C983.4,350.9,984.1,351.9,984.1,353.1z"/>
			</g>
			<g>
				<path class="st8" d="M1004.8,346.1h1.2v7.7h3.6v1.1h-4.7V346.1z"/>
				<path class="st8" d="M1016.5,348.9v5.9h-1.1v-0.9c-0.4,0.7-1.3,1.1-2.1,1.1c-1.6,0-3-1.2-3-3.1c0-1.9,1.3-3.1,3-3.1
					c0.9,0,1.7,0.4,2.1,1.1v-0.9H1016.5z M1015.4,351.9c0-1.3-1-2-2-2c-1.1,0-1.9,0.8-1.9,2c0,1.2,0.9,2.1,1.9,2.1
					C1014.5,354,1015.4,353.2,1015.4,351.9z"/>
				<path class="st8" d="M1023.8,348.9v5.9h-1.1v-0.9c-0.4,0.7-1.3,1.1-2,1.1c-1.5,0-2.4-1-2.4-2.6v-3.4h1.1v3.4
					c0,1,0.6,1.6,1.4,1.6s1.8-0.5,1.8-1.8v-3.2H1023.8z"/>
				<path class="st8" d="M1031.1,351.4v3.4h-1.1v-3.4c0-1-0.6-1.6-1.4-1.6s-1.8,0.5-1.8,1.8v3.2h-1.1v-5.9h1.1v0.9
					c0.4-0.7,1.3-1,2-1C1030.2,348.8,1031.1,349.8,1031.1,351.4z"/>
				<path class="st8" d="M1032.5,351.9c0-1.9,1.5-3.1,3.2-3.1c0.9,0,1.7,0.4,2.3,0.9l-0.7,0.7c-0.4-0.4-0.9-0.6-1.5-0.6
					c-1.2,0-2.1,0.8-2.1,2s0.9,2,2.1,2c0.6,0,1.2-0.2,1.5-0.6l0.7,0.7c-0.5,0.6-1.3,0.9-2.3,0.9C1034,355,1032.5,353.8,1032.5,351.9
					z"/>
				<path class="st8" d="M1044.7,351.4v3.4h-1.1v-3.4c0-1-0.6-1.6-1.4-1.6s-1.8,0.5-1.8,1.8v3.2h-1.1v-9.2h1.1v4.1
					c0.4-0.7,1.3-1,2-1C1043.8,348.8,1044.7,349.8,1044.7,351.4z"/>
				<path class="st8" d="M1049.3,351.9c0-1.9,1.4-3.1,3.1-3.1s3.1,1.2,3.1,3.1s-1.4,3.1-3.1,3.1S1049.3,353.8,1049.3,351.9z
					 M1054.4,351.9c0-1.2-0.9-2-2-2c-1.1,0-2,0.8-2,2c0,1.2,0.9,2.1,2,2.1C1053.5,354,1054.4,353.1,1054.4,351.9z"/>
				<path class="st8" d="M1060.8,349l-0.2,1c-0.3-0.2-0.6-0.2-0.9-0.2c-1.2,0-1.7,1.3-1.7,2.8v2.2h-1.1v-5.9h1.1v1.3
					c0.3-1,0.9-1.5,1.7-1.5C1060.2,348.8,1060.7,348.9,1060.8,349z"/>
				<path class="st8" d="M1064.8,351.9c0-1.9,1.4-3.1,3.1-3.1s3.1,1.2,3.1,3.1s-1.4,3.1-3.1,3.1S1064.8,353.8,1064.8,351.9z
					 M1069.9,351.9c0-1.2-0.9-2-2-2c-1.1,0-2,0.8-2,2c0,1.2,0.9,2.1,2,2.1C1068.9,354,1069.9,353.1,1069.9,351.9z"/>
				<path class="st8" d="M1077.8,348.9v5.9h-1.1v-0.9c-0.4,0.7-1.3,1.1-2,1.1c-1.5,0-2.4-1-2.4-2.6v-3.4h1.1v3.4
					c0,1,0.6,1.6,1.4,1.6s1.8-0.5,1.8-1.8v-3.2H1077.8z"/>
				<path class="st8" d="M1083.5,349l-0.2,1c-0.3-0.2-0.6-0.2-0.9-0.2c-1.2,0-1.7,1.3-1.7,2.8v2.2h-1.1v-5.9h1.1v1.3
					c0.3-1,0.9-1.5,1.7-1.5C1082.9,348.8,1083.3,348.9,1083.5,349z"/>
				<path class="st8" d="M1087.4,351.9c0-1.9,1.5-3.1,3.2-3.1c0.9,0,1.7,0.4,2.3,0.9l-0.7,0.7c-0.4-0.4-0.9-0.6-1.5-0.6
					c-1.2,0-2.1,0.8-2.1,2s0.9,2,2.1,2c0.6,0,1.2-0.2,1.5-0.6l0.7,0.7c-0.5,0.6-1.3,0.9-2.3,0.9
					C1088.9,355,1087.4,353.8,1087.4,351.9z"/>
				<path class="st8" d="M1093.6,351.9c0-1.9,1.4-3.1,3.1-3.1s3.1,1.2,3.1,3.1s-1.4,3.1-3.1,3.1S1093.6,353.8,1093.6,351.9z
					 M1098.7,351.9c0-1.2-0.9-2-2-2c-1.1,0-2,0.8-2,2c0,1.2,0.9,2.1,2,2.1C1097.8,354,1098.7,353.1,1098.7,351.9z"/>
				<path class="st8" d="M1110.7,351.4v3.4h-1.1v-3.4c0-1-0.5-1.6-1.4-1.6c-1.1,0-1.7,0.9-1.6,2l0-0.1v3h-1.1v-3.4
					c0-1-0.5-1.6-1.3-1.6c-0.8,0-1.7,0.5-1.7,1.8v3.2h-1.1v-5.9h1.1v0.9c0.3-0.6,1.1-1,1.9-1c0.9,0,1.6,0.4,2,1.2
					c0.5-1.1,1.5-1.2,2.1-1.2C1109.9,348.8,1110.7,349.8,1110.7,351.4z"/>
				<path class="st8" d="M1121.8,351.4v3.4h-1.1v-3.4c0-1-0.5-1.6-1.4-1.6c-1.1,0-1.7,0.9-1.6,2l0-0.1v3h-1.1v-3.4
					c0-1-0.5-1.6-1.3-1.6c-0.8,0-1.7,0.5-1.7,1.8v3.2h-1.1v-5.9h1.1v0.9c0.3-0.6,1.1-1,1.9-1c0.9,0,1.6,0.4,2,1.2
					c0.5-1.1,1.5-1.2,2.1-1.2C1121,348.8,1121.8,349.8,1121.8,351.4z"/>
				<path class="st8" d="M1129.2,352.4h-4.8c0.2,1.1,0.9,1.6,1.9,1.6c0.7,0,1.4-0.3,1.7-0.9l1,0.4c-0.5,1-1.6,1.6-2.7,1.6
					c-1.7,0-3-1.2-3-3.1s1.4-3.1,3-3.1s2.9,1.2,2.9,3.1C1129.2,352,1129.2,352.2,1129.2,352.4z M1128.1,351.4
					c-0.1-1-0.9-1.6-1.8-1.6c-1,0-1.7,0.5-1.9,1.6H1128.1z"/>
				<path class="st8" d="M1134.5,349l-0.2,1c-0.3-0.2-0.6-0.2-0.9-0.2c-1.2,0-1.7,1.3-1.7,2.8v2.2h-1.1v-5.9h1.1v1.3
					c0.3-1,0.9-1.5,1.7-1.5C1133.9,348.8,1134.3,348.9,1134.5,349z"/>
				<path class="st8" d="M1135.1,351.9c0-1.9,1.5-3.1,3.2-3.1c0.9,0,1.7,0.4,2.3,0.9l-0.7,0.7c-0.4-0.4-0.9-0.6-1.5-0.6
					c-1.2,0-2.1,0.8-2.1,2s0.9,2,2.1,2c0.6,0,1.2-0.2,1.5-0.6l0.7,0.7c-0.5,0.6-1.3,0.9-2.3,0.9
					C1136.6,355,1135.1,353.8,1135.1,351.9z"/>
				<path class="st8" d="M1141.6,346.8c0-0.4,0.4-0.7,0.8-0.7c0.4,0,0.8,0.3,0.8,0.7s-0.4,0.7-0.8,0.7
					C1142,347.5,1141.6,347.2,1141.6,346.8z M1141.9,348.9h1.1v5.9h-1.1V348.9z"/>
				<path class="st8" d="M1150.6,348.9v5.9h-1.1v-0.9c-0.4,0.7-1.3,1.1-2.1,1.1c-1.6,0-3-1.2-3-3.1c0-1.9,1.3-3.1,3-3.1
					c0.9,0,1.7,0.4,2.1,1.1v-0.9H1150.6z M1149.5,351.9c0-1.3-1-2-2-2c-1.1,0-1.9,0.8-1.9,2c0,1.2,0.9,2.1,1.9,2.1
					C1148.5,354,1149.5,353.2,1149.5,351.9z"/>
				<path class="st8" d="M1152.5,345.7h1.1v9.2h-1.1V345.7z"/>
				<path class="st8" d="M1009.5,369.5h-3.8l-0.9,2.2h-1.2l3.3-8.7h1.2l3.3,8.7h-1.2L1009.5,369.5z M1009.1,368.5l-1.5-4l-1.5,4
					H1009.1z"/>
				<path class="st8" d="M1012.8,363h1.2v8.7h-1.2V363z"/>
				<path class="st8" d="M1025.1,365.9v5.9h-1.1v-0.9c-0.4,0.7-1.3,1.1-2.1,1.1c-1.6,0-3-1.2-3-3.1c0-1.9,1.3-3.1,3-3.1
					c0.9,0,1.7,0.4,2.1,1.1v-0.9H1025.1z M1024,368.8c0-1.3-1-2-2-2c-1.1,0-1.9,0.8-1.9,2c0,1.2,0.9,2.1,1.9,2.1
					C1023,370.9,1024,370.1,1024,368.8z"/>
				<path class="st8" d="M1032.4,368.4v3.4h-1.1v-3.4c0-1-0.6-1.6-1.4-1.6s-1.8,0.5-1.8,1.8v3.2h-1.1v-5.9h1.1v0.9
					c0.4-0.7,1.3-1,2-1C1031.5,365.7,1032.4,366.7,1032.4,368.4z"/>
				<path class="st8" d="M1040,362.6v9.2h-1.1v-0.9c-0.4,0.7-1.3,1.1-2.1,1.1c-1.6,0-3-1.2-3-3.1c0-1.9,1.3-3.1,3-3.1
					c0.9,0,1.7,0.4,2.1,1.1v-4.2H1040z M1038.9,368.8c0-1.3-1-2-2-2c-1.1,0-1.9,0.8-1.9,2c0,1.2,0.9,2.1,1.9,2.1
					C1037.9,370.9,1038.9,370.1,1038.9,368.8z"/>
				<path class="st8" d="M1047.7,368.5h-1.1v3.3h-1.2V363h3.3c1.9,0,2.6,1.4,2.6,2.7c0,1.3-0.6,2.5-2.3,2.7l2.3,3.3h-1.4
					L1047.7,368.5z M1046.5,367.4h1.8c1.3,0,1.8-0.7,1.8-1.7c0-1-0.6-1.7-1.5-1.7h-2.2V367.4z"/>
				<path class="st8" d="M1058.4,369.3h-4.8c0.2,1.1,0.9,1.6,1.9,1.6c0.7,0,1.4-0.3,1.7-0.9l1,0.4c-0.5,1-1.6,1.6-2.7,1.6
					c-1.7,0-3-1.2-3-3.1s1.4-3.1,3-3.1s2.9,1.2,2.9,3.1C1058.4,369,1058.4,369.1,1058.4,369.3z M1057.3,368.3
					c-0.1-1-0.9-1.6-1.8-1.6c-1,0-1.7,0.5-1.9,1.6H1057.3z"/>
				<path class="st8" d="M1066,368.8c0,1.9-1.3,3.1-3,3.1c-0.9,0-1.7-0.4-2.1-1.1v0.9h-1.1v-9.2h1.1v4.2c0.4-0.7,1.2-1.1,2.1-1.1
					C1064.7,365.7,1066,366.9,1066,368.8z M1064.9,368.8c0-1.2-0.9-2-2-2c-1,0-2,0.7-2,2c0,1.3,1,2.1,2,2.1
					C1064.1,370.9,1064.9,370,1064.9,368.8z"/>
				<path class="st8" d="M1071.4,366l-0.2,1c-0.3-0.2-0.6-0.2-0.9-0.2c-1.2,0-1.7,1.3-1.7,2.8v2.2h-1.1v-5.9h1.1v1.3
					c0.3-1,0.9-1.5,1.7-1.5C1070.7,365.7,1071.2,365.8,1071.4,366z"/>
				<path class="st8" d="M1078.2,365.9v5.9h-1.1v-0.9c-0.4,0.7-1.3,1.1-2.1,1.1c-1.6,0-3-1.2-3-3.1c0-1.9,1.3-3.1,3-3.1
					c0.9,0,1.7,0.4,2.1,1.1v-0.9H1078.2z M1077.1,368.8c0-1.3-1-2-2-2c-1.1,0-1.9,0.8-1.9,2c0,1.2,0.9,2.1,1.9,2.1
					C1076.1,370.9,1077.1,370.1,1077.1,368.8z"/>
				<path class="st8" d="M1085.5,368.4v3.4h-1.1v-3.4c0-1-0.6-1.6-1.4-1.6s-1.8,0.5-1.8,1.8v3.2h-1.1v-5.9h1.1v0.9
					c0.4-0.7,1.3-1,2-1C1084.6,365.7,1085.5,366.7,1085.5,368.4z"/>
				<path class="st8" d="M1093.1,362.6v9.2h-1.1v-0.9c-0.4,0.7-1.3,1.1-2.1,1.1c-1.6,0-3-1.2-3-3.1c0-1.9,1.3-3.1,3-3.1
					c0.9,0,1.7,0.4,2.1,1.1v-4.2H1093.1z M1092,368.8c0-1.3-1-2-2-2c-1.1,0-1.9,0.8-1.9,2c0,1.2,0.9,2.1,1.9,2.1
					C1091,370.9,1092,370.1,1092,368.8z"/>
				<path class="st8" d="M1094.7,363.7c0-0.4,0.4-0.7,0.8-0.7c0.4,0,0.8,0.3,0.8,0.7s-0.4,0.7-0.8,0.7
					C1095.1,364.4,1094.7,364.1,1094.7,363.7z M1094.9,365.9h1.1v5.9h-1.1V365.9z"/>
				<path class="st8" d="M1103.4,368.4v3.4h-1.1v-3.4c0-1-0.6-1.6-1.4-1.6s-1.8,0.5-1.8,1.8v3.2h-1.1v-5.9h1.1v0.9
					c0.4-0.7,1.3-1,2-1C1102.4,365.7,1103.4,366.7,1103.4,368.4z"/>
				<path class="st8" d="M1110.9,365.9v5c0,2.8-1.3,3.9-3.2,3.9c-1.1,0-2.1-0.5-2.7-1.6l0.9-0.5c0.4,0.7,1.1,1,1.7,1
					c1.3,0,2.1-0.7,2.1-2.7v-0.1c-0.4,0.7-1.3,1.1-2.1,1.1c-1.6,0-3-1.2-3-3.1c0-1.9,1.3-3.1,3-3.1c0.9,0,1.7,0.4,2.1,1.1v-0.9
					H1110.9z M1109.8,368.8c0-1.3-1-2-2-2c-1.1,0-1.9,0.8-1.9,2c0,1.2,0.9,2.1,1.9,2.1C1108.9,370.9,1109.8,370.1,1109.8,368.8z"/>
				<path class="st8" d="M1118.9,366.8h-1.3v5h-1.1v-5h-1.1v-1h1.1v-2.2h1.1v2.2h1.3V366.8z"/>
				<path class="st8" d="M1119.6,368.8c0-1.9,1.4-3.1,3.1-3.1s3.1,1.2,3.1,3.1s-1.4,3.1-3.1,3.1S1119.6,370.7,1119.6,368.8z
					 M1124.7,368.8c0-1.2-0.9-2-2-2c-1.1,0-2,0.8-2,2c0,1.2,0.9,2.1,2,2.1C1123.8,370.9,1124.7,370,1124.7,368.8z"/>
				<path class="st8" d="M1136.1,370.7v1.1h-5.3V363h5.2v1.1h-4v2.8h3.5v1.1h-3.5v2.7H1136.1z"/>
				<path class="st8" d="M1146.9,368.4v3.4h-1.1v-3.4c0-1-0.5-1.6-1.4-1.6c-1.1,0-1.7,0.9-1.6,2l0-0.1v3h-1.1v-3.4
					c0-1-0.5-1.6-1.3-1.6c-0.8,0-1.7,0.5-1.7,1.8v3.2h-1.1v-5.9h1.1v0.9c0.3-0.6,1.1-1,1.9-1c0.9,0,1.6,0.4,2,1.2
					c0.5-1.1,1.5-1.2,2.1-1.2C1146.1,365.7,1146.9,366.7,1146.9,368.4z"/>
				<path class="st8" d="M1154.9,368.8c0,1.9-1.3,3.1-3,3.1c-0.9,0-1.7-0.4-2.1-1.1v0.9h-1.1v-9.2h1.1v4.2c0.4-0.7,1.2-1.1,2.1-1.1
					C1153.6,365.7,1154.9,366.9,1154.9,368.8z M1153.8,368.8c0-1.2-0.9-2-2-2c-1,0-2,0.7-2,2c0,1.3,1,2.1,2,2.1
					C1153,370.9,1153.8,370,1153.8,368.8z"/>
				<path class="st8" d="M1156.1,368.8c0-1.9,1.4-3.1,3.1-3.1s3.1,1.2,3.1,3.1s-1.4,3.1-3.1,3.1S1156.1,370.7,1156.1,368.8z
					 M1161.2,368.8c0-1.2-0.9-2-2-2c-1.1,0-2,0.8-2,2c0,1.2,0.9,2.1,2,2.1C1160.2,370.9,1161.2,370,1161.2,368.8z"/>
				<path class="st8" d="M1163.8,362.6h1.1v9.2h-1.1V362.6z"/>
				<path class="st8" d="M1172.5,362.6v9.2h-1.1v-0.9c-0.4,0.7-1.3,1.1-2.1,1.1c-1.6,0-3-1.2-3-3.1c0-1.9,1.3-3.1,3-3.1
					c0.9,0,1.7,0.4,2.1,1.1v-4.2H1172.5z M1171.4,368.8c0-1.3-1-2-2-2c-1.1,0-1.9,0.8-1.9,2c0,1.2,0.9,2.1,1.9,2.1
					C1170.5,370.9,1171.4,370.1,1171.4,368.8z"/>
			</g>
		</g>
	</g>
	<g>
		
			<image style="overflow:visible;opacity:8.000000e-02;" width="284" height="105" xlink:href="A5CA69B4C0E36FFC.png"  transform="matrix(1 0 0 1 509 51)">
		</image>
		<g>
			<path class="st9" d="M776.4,141.3H525.7c-2.2,0-4-1.8-4-4V65.5c0-2.2,1.8-4,4-4h250.7c2.2,0,4,1.8,4,4v71.8
				C780.4,139.5,778.6,141.3,776.4,141.3z"/>
		</g>
	</g>
	<g>
		
			<image style="overflow:visible;opacity:8.000000e-02;" width="269" height="105" xlink:href="A5CA69B4C0E36FFD.png"  transform="matrix(1 0 0 1 873 51)">
		</image>
		<g>
			<path class="st9" d="M1125.2,141.3H889.5c-2.2,0-4-1.8-4-4V65.5c0-2.2,1.8-4,4-4h235.7c2.2,0,4,1.8,4,4v71.8
				C1129.2,139.5,1127.4,141.3,1125.2,141.3z"/>
		</g>
	</g>
	<g>
		
			<image style="overflow:visible;opacity:8.000000e-02;" width="284" height="105" xlink:href="A5CA69B4C0E36FF4.png"  transform="matrix(1 0 0 1 145 51)">
		</image>
		<g>
			<path class="st9" d="M412.2,141.3H161.5c-2.2,0-4-1.8-4-4V65.5c0-2.2,1.8-4,4-4h250.7c2.2,0,4,1.8,4,4v71.8
				C416.2,139.5,414.4,141.3,412.2,141.3z"/>
		</g>
	</g>
	<g>
		<path class="st7" d="M180.6,77.3h1.2v7.7h3.6V86h-4.7V77.3z"/>
		<path class="st7" d="M192,83.5h-4.8c0.2,1.1,0.9,1.6,1.9,1.6c0.7,0,1.4-0.3,1.7-0.9l1,0.4c-0.5,1-1.6,1.6-2.7,1.6
			c-1.7,0-3-1.2-3-3.1s1.4-3.1,3-3.1s2.9,1.2,2.9,3.1C192,83.2,192,83.4,192,83.5z M190.9,82.6c-0.1-1-0.9-1.6-1.8-1.6
			c-1,0-1.7,0.5-1.9,1.6H190.9z"/>
		<path class="st7" d="M199.3,80.1V86h-1.1v-0.9c-0.4,0.7-1.3,1.1-2.1,1.1c-1.6,0-3-1.2-3-3.1c0-1.9,1.3-3.1,3-3.1
			c0.9,0,1.7,0.4,2.1,1.1v-0.9H199.3z M198.2,83c0-1.3-1-2-2-2c-1.1,0-1.9,0.8-1.9,2c0,1.2,0.9,2.1,1.9,2.1
			C197.3,85.1,198.2,84.3,198.2,83z"/>
		<path class="st7" d="M207,76.8V86h-1.1v-0.9c-0.4,0.7-1.3,1.1-2.1,1.1c-1.6,0-3-1.2-3-3.1c0-1.9,1.3-3.1,3-3.1
			c0.9,0,1.7,0.4,2.1,1.1v-4.2H207z M205.9,83c0-1.3-1-2-2-2c-1.1,0-1.9,0.8-1.9,2c0,1.2,0.9,2.1,1.9,2.1
			C205,85.1,205.9,84.3,205.9,83z"/>
		<path class="st7" d="M208.7,77.9c0-0.4,0.4-0.7,0.8-0.7c0.4,0,0.8,0.3,0.8,0.7s-0.4,0.7-0.8,0.7C209,78.6,208.7,78.3,208.7,77.9z
			 M208.9,80.1h1.1V86h-1.1V80.1z"/>
		<path class="st7" d="M217.3,82.6V86h-1.1v-3.4c0-1-0.6-1.6-1.4-1.6s-1.8,0.5-1.8,1.8V86h-1.1v-5.9h1.1V81c0.4-0.7,1.3-1,2-1
			C216.4,80,217.3,80.9,217.3,82.6z"/>
		<path class="st7" d="M224.9,80.1v5c0,2.8-1.3,3.9-3.2,3.9c-1.1,0-2.1-0.5-2.7-1.6l0.9-0.5c0.4,0.7,1.1,1,1.7,1
			c1.3,0,2.1-0.7,2.1-2.7v-0.1c-0.4,0.7-1.3,1.1-2.1,1.1c-1.6,0-3-1.2-3-3.1c0-1.9,1.3-3.1,3-3.1c0.9,0,1.7,0.4,2.1,1.1v-0.9H224.9z
			 M223.8,83c0-1.3-1-2-2-2c-1.1,0-1.9,0.8-1.9,2c0,1.2,0.9,2.1,1.9,2.1C222.8,85.1,223.8,84.3,223.8,83z"/>
		<path class="st7" d="M232.9,81h-1.3v5h-1.1v-5h-1.1v-1h1.1v-2.2h1.1v2.2h1.3V81z"/>
		<path class="st7" d="M239.5,82.6V86h-1.1v-3.4c0-1-0.6-1.6-1.4-1.6s-1.8,0.5-1.8,1.8V86H234v-9.2h1.1V81c0.4-0.7,1.3-1,2-1
			C238.6,80,239.5,80.9,239.5,82.6z"/>
		<path class="st7" d="M246.9,83.5H242c0.2,1.1,0.9,1.6,1.9,1.6c0.7,0,1.4-0.3,1.7-0.9l1,0.4c-0.5,1-1.6,1.6-2.7,1.6
			c-1.7,0-3-1.2-3-3.1s1.4-3.1,3-3.1s2.9,1.2,2.9,3.1C246.9,83.2,246.9,83.4,246.9,83.5z M245.8,82.6c-0.1-1-0.9-1.6-1.8-1.6
			c-1,0-1.7,0.5-1.9,1.6H245.8z"/>
		<path class="st7" d="M251.2,81.7c0-2.5,1.9-4.5,4.4-4.5c1.2,0,2.2,0.4,2.9,1.1l-0.8,0.7c-0.6-0.5-1.3-0.8-2.1-0.8
			c-1.8,0-3.3,1.5-3.3,3.4s1.4,3.4,3.3,3.4c1.5,0,2.7-0.9,2.8-2.2c0-0.1,0-0.1,0-0.2H256v-1h3.8c0,3.1-1.7,4.5-4.1,4.5
			S251.2,84.1,251.2,81.7z"/>
		<path class="st7" d="M261.3,76.8h1.1V86h-1.1V76.8z"/>
		<path class="st7" d="M263.9,83c0-1.9,1.4-3.1,3.1-3.1s3.1,1.2,3.1,3.1s-1.4,3.1-3.1,3.1S263.9,84.9,263.9,83z M269,83
			c0-1.2-0.9-2-2-2c-1.1,0-2,0.8-2,2c0,1.2,0.9,2.1,2,2.1C268.1,85.1,269,84.3,269,83z"/>
		<path class="st7" d="M277.8,83c0,1.9-1.3,3.1-3,3.1c-0.9,0-1.7-0.4-2.1-1.1V86h-1.1v-9.2h1.1V81c0.4-0.7,1.2-1.1,2.1-1.1
			C276.4,80,277.8,81.2,277.8,83z M276.6,83c0-1.2-0.9-2-2-2c-1,0-2,0.7-2,2c0,1.3,1,2.1,2,2.1C275.8,85.1,276.6,84.2,276.6,83z"/>
		<path class="st7" d="M285.1,80.1V86H284v-0.9c-0.4,0.7-1.3,1.1-2.1,1.1c-1.6,0-3-1.2-3-3.1c0-1.9,1.3-3.1,3-3.1
			c0.9,0,1.7,0.4,2.1,1.1v-0.9H285.1z M284,83c0-1.3-1-2-2-2c-1.1,0-1.9,0.8-1.9,2c0,1.2,0.9,2.1,1.9,2.1C283,85.1,284,84.3,284,83z
			"/>
		<path class="st7" d="M286.9,76.8h1.1V86h-1.1V76.8z"/>
		<path class="st7" d="M298.7,83.3c0,1.7-1.2,2.8-2.9,2.8c-1.4,0-2.5-0.8-3-1.9l0.9-0.5c0.3,0.8,1,1.3,2,1.3c1.1,0,1.9-0.7,1.9-1.7
			s-0.8-1.7-1.8-1.7c-0.7,0-1.4,0.3-2,0.8l-0.7-0.6l0.7-4.1h4.4v1.1h-3.5l-0.5,2.5c0.5-0.3,1.2-0.6,1.8-0.6
			C297.5,80.7,298.7,81.7,298.7,83.3z"/>
		<path class="st7" d="M299.4,87.8c0.7-1,1.1-1.9,1-3.4h1.1c0.1,1.5-0.4,2.8-1.3,3.6L299.4,87.8z"/>
		<path class="st7" d="M303,81.9c0-2.4,0.6-4.3,3-4.3s3,1.9,3,4.3c0,2.3-0.6,4.3-3,4.3S303,84.2,303,81.9z M308,81.9
			c0-1.8-0.4-3.2-1.9-3.2s-1.9,1.5-1.9,3.2c0,1.7,0.4,3.2,1.9,3.2S308,83.6,308,81.9z"/>
		<path class="st7" d="M310.7,81.9c0-2.4,0.6-4.3,3-4.3s3,1.9,3,4.3c0,2.3-0.6,4.3-3,4.3S310.7,84.2,310.7,81.9z M315.6,81.9
			c0-1.8-0.4-3.2-1.9-3.2s-1.9,1.5-1.9,3.2c0,1.7,0.4,3.2,1.9,3.2S315.6,83.6,315.6,81.9z"/>
		<path class="st7" d="M318.4,81.9c0-2.4,0.6-4.3,3-4.3s3,1.9,3,4.3c0,2.3-0.6,4.3-3,4.3S318.4,84.2,318.4,81.9z M323.3,81.9
			c0-1.8-0.4-3.2-1.9-3.2s-1.9,1.5-1.9,3.2c0,1.7,0.4,3.2,1.9,3.2S323.3,83.6,323.3,81.9z"/>
		<path class="st7" d="M329.1,77.9c0-0.4,0.4-0.7,0.8-0.7c0.4,0,0.8,0.3,0.8,0.7s-0.4,0.7-0.8,0.7C329.4,78.6,329.1,78.3,329.1,77.9
			z M329.3,80.1h1.1V86h-1.1V80.1z"/>
		<path class="st7" d="M337.7,82.6V86h-1.1v-3.4c0-1-0.6-1.6-1.4-1.6s-1.8,0.5-1.8,1.8V86h-1.1v-5.9h1.1V81c0.4-0.7,1.3-1,2-1
			C336.8,80,337.7,80.9,337.7,82.6z"/>
		<path class="st7" d="M342.4,83.5h1.1c0,0.8,0.8,1.6,1.9,1.6c1.1,0,1.8-0.7,1.8-1.5c0-0.9-0.8-1.2-1.5-1.4l-1.1-0.3
			c-1.9-0.4-2.1-1.5-2.1-2.2c0-1.5,1.4-2.5,2.9-2.5c1.5,0,2.8,1,2.8,2.5H347c0-0.9-0.7-1.5-1.7-1.5c-0.9,0-1.7,0.5-1.7,1.4
			c0,0.3,0.1,0.9,1.3,1.2l1.1,0.3c1.5,0.4,2.4,1.2,2.4,2.4c0,1.4-1.1,2.6-2.9,2.6C343.7,86.1,342.5,84.9,342.4,83.5z"/>
		<path class="st7" d="M349.7,83c0-1.9,1.4-3.1,3.1-3.1s3.1,1.2,3.1,3.1s-1.4,3.1-3.1,3.1S349.7,84.9,349.7,83z M354.8,83
			c0-1.2-0.9-2-2-2c-1.1,0-2,0.8-2,2c0,1.2,0.9,2.1,2,2.1C353.9,85.1,354.8,84.3,354.8,83z"/>
		<path class="st7" d="M358.8,79.3v0.8h1.4v1h-1.4v5h-1.1v-5h-1.1v-1h1.1v-0.6c0-1.5,0.6-2.6,2.2-2.6h0.6v1h-0.4
			C359.1,77.9,358.8,78.5,358.8,79.3z"/>
		<path class="st7" d="M364.5,81h-1.3v5h-1.1v-5h-1.1v-1h1.1v-2.2h1.1v2.2h1.3V81z"/>
		<path class="st7" d="M374.8,80.1l-2.2,5.9h-0.9l-1.6-4.4l-1.6,4.4h-0.9l-2.3-5.9h1.2l1.5,4.2l1.5-4.2h1.1l1.5,4.2l1.5-4.2H374.8z"
			/>
		<path class="st7" d="M381.6,80.1V86h-1.1v-0.9c-0.4,0.7-1.3,1.1-2.1,1.1c-1.6,0-3-1.2-3-3.1c0-1.9,1.3-3.1,3-3.1
			c0.9,0,1.7,0.4,2.1,1.1v-0.9H381.6z M380.5,83c0-1.3-1-2-2-2c-1.1,0-1.9,0.8-1.9,2c0,1.2,0.9,2.1,1.9,2.1
			C379.5,85.1,380.5,84.3,380.5,83z"/>
		<path class="st7" d="M387.3,80.2l-0.2,1c-0.3-0.2-0.6-0.2-0.9-0.2c-1.2,0-1.7,1.3-1.7,2.8V86h-1.1v-5.9h1.1v1.3
			c0.3-1,0.9-1.5,1.7-1.5C386.6,80,387.1,80.1,387.3,80.2z"/>
		<path class="st7" d="M393.9,83.5H389c0.2,1.1,0.9,1.6,1.9,1.6c0.7,0,1.4-0.3,1.7-0.9l1,0.4c-0.5,1-1.6,1.6-2.7,1.6
			c-1.7,0-3-1.2-3-3.1s1.4-3.1,3-3.1s2.9,1.2,2.9,3.1C393.9,83.2,393.9,83.4,393.9,83.5z M392.8,82.6c-0.1-1-0.9-1.6-1.8-1.6
			c-1,0-1.7,0.5-1.9,1.6H392.8z"/>
		<path class="st7" d="M198.6,100c0,1.9-1.3,3.1-3,3.1c-0.9,0-1.7-0.4-2.1-1.1v3.8h-1.1V97h1.1v0.9c0.4-0.7,1.3-1.1,2.1-1.1
			C197.2,96.9,198.6,98.1,198.6,100z M197.5,100c0-1.2-0.9-2.1-2-2.1c-1.1,0-2,0.8-2,2.1c0,1.3,1,2,2,2
			C196.6,102,197.5,101.2,197.5,100z"/>
		<path class="st7" d="M203.9,97.1l-0.2,1c-0.3-0.2-0.6-0.2-0.9-0.2c-1.2,0-1.7,1.3-1.7,2.8v2.2h-1.1V97h1.1v1.3
			c0.3-1,0.9-1.5,1.7-1.5C203.3,96.9,203.7,97,203.9,97.1z"/>
		<path class="st7" d="M204.5,99.9c0-1.9,1.4-3.1,3.1-3.1s3.1,1.2,3.1,3.1s-1.4,3.1-3.1,3.1S204.5,101.8,204.5,99.9z M209.6,99.9
			c0-1.2-0.9-2-2-2c-1.1,0-2,0.8-2,2c0,1.2,0.9,2.1,2,2.1C208.7,102,209.6,101.2,209.6,99.9z"/>
		<path class="st7" d="M210.5,104.8h0.7c1,0,1.1-0.8,1.1-1.5V97h1.1v6.3c0,1.5-0.5,2.5-2.1,2.5h-0.8V104.8z M212,94.8
			c0-0.4,0.4-0.7,0.8-0.7c0.4,0,0.8,0.3,0.8,0.7s-0.4,0.7-0.8,0.7C212.4,95.6,212,95.2,212,94.8z"/>
		<path class="st7" d="M220.7,100.4h-4.8c0.2,1.1,0.9,1.6,1.9,1.6c0.7,0,1.4-0.3,1.7-0.9l1,0.4c-0.5,1-1.6,1.6-2.7,1.6
			c-1.7,0-3-1.2-3-3.1s1.4-3.1,3-3.1s2.9,1.2,2.9,3.1C220.8,100.1,220.8,100.3,220.7,100.4z M219.7,99.5c-0.1-1-0.9-1.6-1.8-1.6
			c-1,0-1.7,0.5-1.9,1.6H219.7z"/>
		<path class="st7" d="M221.9,100c0-1.9,1.5-3.1,3.2-3.1c0.9,0,1.7,0.4,2.3,0.9l-0.7,0.7c-0.4-0.4-0.9-0.6-1.5-0.6
			c-1.2,0-2.1,0.8-2.1,2s0.9,2,2.1,2c0.6,0,1.2-0.2,1.5-0.6l0.7,0.7c-0.5,0.6-1.3,0.9-2.3,0.9C223.4,103,221.9,101.8,221.9,100z"/>
		<path class="st7" d="M231.7,98h-1.3v5h-1.1v-5h-1.1v-1h1.1v-2.2h1.1V97h1.3V98z"/>
		<path class="st7" d="M239,98h-1.3v5h-1.1v-5h-1.1v-1h1.1v-2.2h1.1V97h1.3V98z"/>
		<path class="st7" d="M245.6,97v5.9h-1.1V102c-0.4,0.7-1.3,1.1-2,1.1c-1.5,0-2.4-1-2.4-2.6V97h1.1v3.4c0,1,0.6,1.6,1.4,1.6
			s1.8-0.5,1.8-1.8V97H245.6z"/>
		<path class="st7" d="M251.3,97.1l-0.2,1c-0.3-0.2-0.6-0.2-0.9-0.2c-1.2,0-1.7,1.3-1.7,2.8v2.2h-1.1V97h1.1v1.3
			c0.3-1,0.9-1.5,1.7-1.5C250.7,96.9,251.1,97,251.3,97.1z"/>
		<path class="st7" d="M257.8,99.5v3.4h-1.1v-3.4c0-1-0.6-1.6-1.4-1.6s-1.8,0.5-1.8,1.8v3.2h-1.1V97h1.1v0.9c0.4-0.7,1.3-1,2-1
			C256.9,96.9,257.9,97.8,257.8,99.5z"/>
		<path class="st7" d="M265.4,97v5.9h-1.1V102c-0.4,0.7-1.3,1.1-2.1,1.1c-1.6,0-3-1.2-3-3.1c0-1.9,1.3-3.1,3-3.1
			c0.9,0,1.7,0.4,2.1,1.1V97H265.4z M264.3,99.9c0-1.3-1-2-2-2c-1.1,0-1.9,0.8-1.9,2c0,1.2,0.9,2.1,1.9,2.1
			C263.4,102,264.3,101.2,264.3,99.9z"/>
		<path class="st7" d="M271.1,97.1l-0.2,1c-0.3-0.2-0.6-0.2-0.9-0.2c-1.2,0-1.7,1.3-1.7,2.8v2.2h-1.1V97h1.1v1.3
			c0.3-1,0.9-1.5,1.7-1.5C270.5,96.9,270.9,97,271.1,97.1z"/>
		<path class="st7" d="M271.7,99.9c0-1.9,1.4-3.1,3.1-3.1s3.1,1.2,3.1,3.1s-1.4,3.1-3.1,3.1S271.7,101.8,271.7,99.9z M276.8,99.9
			c0-1.2-0.9-2-2-2c-1.1,0-2,0.8-2,2c0,1.2,0.9,2.1,2,2.1C275.9,102,276.8,101.2,276.8,99.9z"/>
		<path class="st7" d="M284.8,97v5.9h-1.1V102c-0.4,0.7-1.3,1.1-2,1.1c-1.5,0-2.4-1-2.4-2.6V97h1.1v3.4c0,1,0.6,1.6,1.4,1.6
			s1.8-0.5,1.8-1.8V97H284.8z"/>
		<path class="st7" d="M292.1,99.5v3.4H291v-3.4c0-1-0.6-1.6-1.4-1.6s-1.8,0.5-1.8,1.8v3.2h-1.1V97h1.1v0.9c0.4-0.7,1.3-1,2-1
			C291.2,96.9,292.1,97.8,292.1,99.5z"/>
		<path class="st7" d="M299.7,93.8v9.2h-1.1V102c-0.4,0.7-1.3,1.1-2.1,1.1c-1.6,0-3-1.2-3-3.1c0-1.9,1.3-3.1,3-3.1
			c0.9,0,1.7,0.4,2.1,1.1v-4.2H299.7z M298.6,99.9c0-1.3-1-2-2-2c-1.1,0-1.9,0.8-1.9,2c0,1.2,0.9,2.1,1.9,2.1
			C297.6,102,298.6,101.2,298.6,99.9z"/>
		<path class="st7" d="M310.6,97v5.9h-1.1V102c-0.4,0.7-1.3,1.1-2.1,1.1c-1.6,0-3-1.2-3-3.1c0-1.9,1.3-3.1,3-3.1
			c0.9,0,1.7,0.4,2.1,1.1V97H310.6z M309.5,99.9c0-1.3-1-2-2-2c-1.1,0-1.9,0.8-1.9,2c0,1.2,0.9,2.1,1.9,2.1
			C308.6,102,309.5,101.2,309.5,99.9z"/>
		<path class="st7" d="M317.9,99.5v3.4h-1.1v-3.4c0-1-0.6-1.6-1.4-1.6s-1.8,0.5-1.8,1.8v3.2h-1.1V97h1.1v0.9c0.4-0.7,1.3-1,2-1
			C317,96.9,317.9,97.8,317.9,99.5z"/>
		<path class="st7" d="M325.5,93.8v9.2h-1.1V102c-0.4,0.7-1.3,1.1-2.1,1.1c-1.6,0-3-1.2-3-3.1c0-1.9,1.3-3.1,3-3.1
			c0.9,0,1.7,0.4,2.1,1.1v-4.2H325.5z M324.4,99.9c0-1.3-1-2-2-2c-1.1,0-1.9,0.8-1.9,2c0,1.2,0.9,2.1,1.9,2.1
			C323.5,102,324.4,101.2,324.4,99.9z"/>
		<path class="st7" d="M330.3,100.4h1.1c0,0.8,0.8,1.6,1.9,1.6c1.1,0,1.8-0.7,1.8-1.5c0-0.9-0.8-1.2-1.5-1.4l-1.1-0.3
			c-1.9-0.4-2.1-1.5-2.1-2.2c0-1.5,1.4-2.5,2.9-2.5c1.5,0,2.8,1,2.8,2.5h-1.1c0-0.9-0.7-1.5-1.7-1.5c-0.9,0-1.7,0.5-1.7,1.4
			c0,0.3,0.1,0.9,1.3,1.2L334,98c1.5,0.4,2.4,1.2,2.4,2.4c0,1.4-1.1,2.6-2.9,2.6C331.6,103.1,330.4,101.8,330.3,100.4z"/>
		<path class="st7" d="M337.6,99.9c0-1.9,1.4-3.1,3.1-3.1s3.1,1.2,3.1,3.1s-1.4,3.1-3.1,3.1S337.6,101.8,337.6,99.9z M342.7,99.9
			c0-1.2-0.9-2-2-2c-1.1,0-2,0.8-2,2c0,1.2,0.9,2.1,2,2.1C341.7,102,342.7,101.2,342.7,99.9z"/>
		<path class="st7" d="M346.7,96.2V97h1.4v1h-1.4v5h-1.1v-5h-1.1v-1h1.1v-0.6c0-1.5,0.6-2.6,2.2-2.6h0.6v1h-0.4
			C347,94.8,346.7,95.5,346.7,96.2z"/>
		<path class="st7" d="M352.4,98h-1.3v5H350v-5H349v-1h1.1v-2.2h1.1V97h1.3V98z"/>
		<path class="st7" d="M362.7,97l-2.2,5.9h-0.9l-1.6-4.4l-1.6,4.4h-0.9l-2.3-5.9h1.2l1.5,4.2l1.5-4.2h1.1l1.5,4.2l1.5-4.2H362.7z"/>
		<path class="st7" d="M369.5,97v5.9h-1.1V102c-0.4,0.7-1.3,1.1-2.1,1.1c-1.6,0-3-1.2-3-3.1c0-1.9,1.3-3.1,3-3.1
			c0.9,0,1.7,0.4,2.1,1.1V97H369.5z M368.4,99.9c0-1.3-1-2-2-2c-1.1,0-1.9,0.8-1.9,2c0,1.2,0.9,2.1,1.9,2.1
			C367.4,102,368.4,101.2,368.4,99.9z"/>
		<path class="st7" d="M375.1,97.1l-0.2,1c-0.3-0.2-0.6-0.2-0.9-0.2c-1.2,0-1.7,1.3-1.7,2.8v2.2h-1.1V97h1.1v1.3
			c0.3-1,0.9-1.5,1.7-1.5C374.5,96.9,375,97,375.1,97.1z"/>
		<path class="st7" d="M381.7,100.4h-4.8c0.2,1.1,0.9,1.6,1.9,1.6c0.7,0,1.4-0.3,1.7-0.9l1,0.4c-0.5,1-1.6,1.6-2.7,1.6
			c-1.7,0-3-1.2-3-3.1s1.4-3.1,3-3.1s2.9,1.2,2.9,3.1C381.8,100.1,381.8,100.3,381.7,100.4z M380.7,99.5c-0.1-1-0.9-1.6-1.8-1.6
			c-1,0-1.7,0.5-1.9,1.6H380.7z"/>
		<path class="st7" d="M236.4,113.9v8.8h-1.1v-3.8c-0.4,0.7-1.2,1.1-2.1,1.1c-1.6,0-3-1.2-3-3.1c0-1.9,1.3-3.1,3-3.1
			c0.9,0,1.7,0.4,2.1,1.1v-0.9H236.4z M235.3,116.9c0-1.3-1-2.1-2-2.1c-1.1,0-1.9,0.9-1.9,2.1c0,1.2,0.9,2,1.9,2
			C234.3,118.9,235.3,118.2,235.3,116.9z"/>
		<path class="st7" d="M243.7,113.9v5.9h-1.1v-0.9c-0.4,0.7-1.3,1.1-2,1.1c-1.5,0-2.4-1-2.4-2.6v-3.4h1.1v3.4c0,1,0.6,1.6,1.4,1.6
			s1.8-0.5,1.8-1.8v-3.2H243.7z"/>
		<path class="st7" d="M251.4,113.9v5.9h-1.1v-0.9c-0.4,0.7-1.3,1.1-2.1,1.1c-1.6,0-3-1.2-3-3.1c0-1.9,1.3-3.1,3-3.1
			c0.9,0,1.7,0.4,2.1,1.1v-0.9H251.4z M250.3,116.9c0-1.3-1-2-2-2c-1.1,0-1.9,0.8-1.9,2c0,1.2,0.9,2.1,1.9,2.1
			C249.3,118.9,250.3,118.1,250.3,116.9z"/>
		<path class="st7" d="M253.2,110.7h1.1v9.2h-1.1V110.7z"/>
		<path class="st7" d="M256,111.7c0-0.4,0.4-0.7,0.8-0.7c0.4,0,0.8,0.3,0.8,0.7s-0.4,0.7-0.8,0.7C256.3,112.5,256,112.2,256,111.7z
			 M256.2,113.9h1.1v5.9h-1.1V113.9z"/>
		<path class="st7" d="M262,114.9h-1.3v5h-1.1v-5h-1.1v-1h1.1v-2.2h1.1v2.2h1.3V114.9z"/>
		<path class="st7" d="M268.7,113.9l-3.7,8.8h-1.2l1.2-3l-2.4-5.8h1.2l1.8,4.4l1.8-4.4H268.7z"/>
		<path class="st7" d="M278.9,113.9v5.9h-1.1v-0.9c-0.4,0.7-1.3,1.1-2.1,1.1c-1.6,0-3-1.2-3-3.1c0-1.9,1.3-3.1,3-3.1
			c0.9,0,1.7,0.4,2.1,1.1v-0.9H278.9z M277.8,116.9c0-1.3-1-2-2-2c-1.1,0-1.9,0.8-1.9,2c0,1.2,0.9,2.1,1.9,2.1
			C276.8,118.9,277.8,118.1,277.8,116.9z"/>
		<path class="st7" d="M280.3,118.1h1c0,0.5,0.5,0.9,1.2,0.9c0.7,0,1.2-0.3,1.2-0.8c0-0.4-0.3-0.7-0.8-0.8l-0.8-0.2
			c-1-0.3-1.6-0.7-1.6-1.7c0-1,0.8-1.7,2-1.7c1,0,2,0.5,2,1.7h-1.1c0-0.5-0.5-0.8-1-0.8c-0.6,0-1,0.3-1,0.8c0,0.4,0.4,0.6,0.8,0.7
			l0.9,0.2c1.2,0.3,1.5,1,1.5,1.7c0,1.1-1.1,1.8-2.3,1.8C281.5,120,280.4,119.3,280.3,118.1z"/>
		<path class="st7" d="M285.9,118.1h1c0,0.5,0.5,0.9,1.2,0.9c0.7,0,1.2-0.3,1.2-0.8c0-0.4-0.3-0.7-0.8-0.8l-0.8-0.2
			c-1-0.3-1.6-0.7-1.6-1.7c0-1,0.8-1.7,2-1.7c1,0,2,0.5,2,1.7h-1.1c0-0.5-0.5-0.8-1-0.8c-0.6,0-1,0.3-1,0.8c0,0.4,0.4,0.6,0.8,0.7
			l0.9,0.2c1.2,0.3,1.5,1,1.5,1.7c0,1.1-1.1,1.8-2.3,1.8C287,120,285.9,119.3,285.9,118.1z"/>
		<path class="st7" d="M297.4,117.4h-4.8c0.2,1.1,0.9,1.6,1.9,1.6c0.7,0,1.4-0.3,1.7-0.9l1,0.4c-0.5,1-1.6,1.6-2.7,1.6
			c-1.7,0-3-1.2-3-3.1s1.4-3.1,3-3.1s2.9,1.2,2.9,3.1C297.4,117,297.4,117.2,297.4,117.4z M296.3,116.4c-0.1-1-0.9-1.6-1.8-1.6
			c-1,0-1.7,0.5-1.9,1.6H296.3z"/>
		<path class="st7" d="M298.5,118.1h1c0,0.5,0.5,0.9,1.2,0.9c0.7,0,1.2-0.3,1.2-0.8c0-0.4-0.3-0.7-0.8-0.8l-0.8-0.2
			c-1-0.3-1.6-0.7-1.6-1.7c0-1,0.8-1.7,2-1.7c1,0,2,0.5,2,1.7h-1.1c0-0.5-0.5-0.8-1-0.8c-0.6,0-1,0.3-1,0.8c0,0.4,0.4,0.6,0.8,0.7
			l0.9,0.2c1.2,0.3,1.5,1,1.5,1.7c0,1.1-1.1,1.8-2.3,1.8C299.6,120,298.5,119.3,298.5,118.1z"/>
		<path class="st7" d="M304,118.1h1c0,0.5,0.5,0.9,1.2,0.9c0.7,0,1.2-0.3,1.2-0.8c0-0.4-0.3-0.7-0.8-0.8l-0.8-0.2
			c-1-0.3-1.6-0.7-1.6-1.7c0-1,0.8-1.7,2-1.7c1,0,2,0.5,2,1.7h-1.1c0-0.5-0.5-0.8-1-0.8c-0.6,0-1,0.3-1,0.8c0,0.4,0.4,0.6,0.8,0.7
			l0.9,0.2c1.2,0.3,1.5,1,1.5,1.7c0,1.1-1.1,1.8-2.3,1.8C305.2,120,304.1,119.3,304,118.1z"/>
		<path class="st7" d="M319.4,116.4v3.4h-1.1v-3.4c0-1-0.5-1.6-1.4-1.6c-1.1,0-1.7,0.9-1.6,2l0-0.1v3h-1.1v-3.4c0-1-0.5-1.6-1.3-1.6
			c-0.8,0-1.7,0.5-1.7,1.8v3.2H310v-5.9h1.1v0.9c0.3-0.6,1.1-1,1.9-1c0.9,0,1.6,0.4,2,1.2c0.5-1.1,1.5-1.2,2.1-1.2
			C318.5,113.8,319.4,114.8,319.4,116.4z"/>
		<path class="st7" d="M326.7,117.4h-4.8c0.2,1.1,0.9,1.6,1.9,1.6c0.7,0,1.4-0.3,1.7-0.9l1,0.4c-0.5,1-1.6,1.6-2.7,1.6
			c-1.7,0-3-1.2-3-3.1s1.4-3.1,3-3.1s2.9,1.2,2.9,3.1C326.8,117,326.8,117.2,326.7,117.4z M325.7,116.4c-0.1-1-0.9-1.6-1.8-1.6
			c-1,0-1.7,0.5-1.9,1.6H325.7z"/>
		<path class="st7" d="M333.7,116.4v3.4h-1.1v-3.4c0-1-0.6-1.6-1.4-1.6s-1.8,0.5-1.8,1.8v3.2h-1.1v-5.9h1.1v0.9c0.4-0.7,1.3-1,2-1
			C332.8,113.8,333.7,114.8,333.7,116.4z"/>
		<path class="st7" d="M338.2,114.9h-1.3v5h-1.1v-5h-1.1v-1h1.1v-2.2h1.1v2.2h1.3V114.9z"/>
		<path class="st7" d="M339,118.1h1c0,0.5,0.5,0.9,1.2,0.9c0.7,0,1.2-0.3,1.2-0.8c0-0.4-0.3-0.7-0.8-0.8l-0.8-0.2
			c-1-0.3-1.6-0.7-1.6-1.7c0-1,0.8-1.7,2-1.7c1,0,2,0.5,2,1.7h-1.1c0-0.5-0.5-0.8-1-0.8c-0.6,0-1,0.3-1,0.8c0,0.4,0.4,0.6,0.8,0.7
			l0.9,0.2c1.2,0.3,1.5,1,1.5,1.7c0,1.1-1.1,1.8-2.3,1.8C340.2,120,339.1,119.3,339,118.1z"/>
	</g>
	<g>
		<path class="st7" d="M555,86.2h1.2V95H555V86.2z"/>
		<path class="st7" d="M563.7,91.6V95h-1.1v-3.4c0-1-0.6-1.6-1.4-1.6s-1.8,0.5-1.8,1.8V95h-1.1v-5.9h1.1V90c0.4-0.7,1.3-1,2-1
			C562.8,88.9,563.8,89.9,563.7,91.6z"/>
		<path class="st7" d="M568.2,90H567v5h-1.1v-5h-1.1v-1h1.1v-2.2h1.1v2.2h1.3V90z"/>
		<path class="st7" d="M574.9,92.5h-4.8c0.2,1.1,0.9,1.6,1.9,1.6c0.7,0,1.4-0.3,1.7-0.9l1,0.4c-0.5,1-1.6,1.6-2.7,1.6
			c-1.7,0-3-1.2-3-3.1s1.4-3.1,3-3.1s2.9,1.2,2.9,3.1C575,92.2,574.9,92.3,574.9,92.5z M573.8,91.5c-0.1-1-0.9-1.6-1.8-1.6
			c-1,0-1.7,0.5-1.9,1.6H573.8z"/>
		<path class="st7" d="M576.4,85.8h1.1V95h-1.1V85.8z"/>
		<path class="st7" d="M579.4,85.8h1.1V95h-1.1V85.8z"/>
		<path class="st7" d="M582.1,86.9c0-0.4,0.4-0.7,0.8-0.7c0.4,0,0.8,0.3,0.8,0.7s-0.4,0.7-0.8,0.7C582.4,87.6,582.1,87.3,582.1,86.9
			z M582.3,89.1h1.1V95h-1.1V89.1z"/>
		<path class="st7" d="M591.1,89.1v5c0,2.8-1.3,3.9-3.2,3.9c-1.1,0-2.1-0.5-2.7-1.6l0.9-0.5c0.4,0.7,1.1,1,1.7,1
			c1.3,0,2.1-0.7,2.1-2.7V94c-0.4,0.7-1.3,1.1-2.1,1.1c-1.6,0-3-1.2-3-3.1c0-1.9,1.3-3.1,3-3.1c0.9,0,1.7,0.4,2.1,1.1v-0.9H591.1z
			 M590,92c0-1.3-1-2-2-2c-1.1,0-1.9,0.8-1.9,2c0,1.2,0.9,2.1,1.9,2.1C589,94.1,590,93.3,590,92z"/>
		<path class="st7" d="M598.5,92.5h-4.8c0.2,1.1,0.9,1.6,1.9,1.6c0.7,0,1.4-0.3,1.7-0.9l1,0.4c-0.5,1-1.6,1.6-2.7,1.6
			c-1.7,0-3-1.2-3-3.1s1.4-3.1,3-3.1s2.9,1.2,2.9,3.1C598.6,92.2,598.5,92.3,598.5,92.5z M597.4,91.5c-0.1-1-0.9-1.6-1.8-1.6
			c-1,0-1.7,0.5-1.9,1.6H597.4z"/>
		<path class="st7" d="M605.5,91.6V95h-1.1v-3.4c0-1-0.6-1.6-1.4-1.6s-1.8,0.5-1.8,1.8V95H600v-5.9h1.1V90c0.4-0.7,1.3-1,2-1
			C604.6,88.9,605.5,89.9,605.5,91.6z"/>
		<path class="st7" d="M610,90h-1.3v5h-1.1v-5h-1.1v-1h1.1v-2.2h1.1v2.2h1.3V90z"/>
		<path class="st7" d="M614.1,92.5h1.1c0,0.8,0.8,1.6,1.9,1.6c1.1,0,1.8-0.7,1.8-1.5c0-0.9-0.8-1.2-1.5-1.4l-1.1-0.3
			c-1.9-0.4-2.1-1.5-2.1-2.2c0-1.5,1.4-2.5,2.9-2.5c1.5,0,2.8,1,2.8,2.5h-1.1c0-0.9-0.7-1.5-1.7-1.5c-0.9,0-1.7,0.5-1.7,1.4
			c0,0.3,0.1,0.9,1.3,1.2l1.1,0.3c1.5,0.4,2.4,1.2,2.4,2.4c0,1.4-1.1,2.6-2.9,2.6C615.4,95.1,614.1,93.8,614.1,92.5z"/>
		<path class="st7" d="M624.4,90h-1.3v5H622v-5h-1.1v-1h1.1v-2.2h1.1v2.2h1.3V90z"/>
		<path class="st7" d="M631.3,89.1V95h-1.1V94c-0.4,0.7-1.3,1.1-2.1,1.1c-1.6,0-3-1.2-3-3.1c0-1.9,1.3-3.1,3-3.1
			c0.9,0,1.7,0.4,2.1,1.1v-0.9H631.3z M630.2,92c0-1.3-1-2-2-2c-1.1,0-1.9,0.8-1.9,2c0,1.2,0.9,2.1,1.9,2.1
			C629.2,94.1,630.2,93.3,630.2,92z"/>
		<path class="st7" d="M636,90h-1.3v5h-1.1v-5h-1.1v-1h1.1v-2.2h1.1v2.2h1.3V90z"/>
		<path class="st7" d="M636.9,86.9c0-0.4,0.4-0.7,0.8-0.7c0.4,0,0.8,0.3,0.8,0.7s-0.4,0.7-0.8,0.7C637.3,87.6,636.9,87.3,636.9,86.9
			z M637.1,89.1h1.1V95h-1.1V89.1z"/>
		<path class="st7" d="M639.7,92c0-1.9,1.5-3.1,3.2-3.1c0.9,0,1.7,0.4,2.3,0.9l-0.7,0.7c-0.4-0.4-0.9-0.6-1.5-0.6
			c-1.2,0-2.1,0.8-2.1,2s0.9,2,2.1,2c0.6,0,1.2-0.2,1.5-0.6l0.7,0.7c-0.5,0.6-1.3,0.9-2.3,0.9C641.1,95.1,639.7,93.9,639.7,92z"/>
		<path class="st7" d="M654.6,92.7h-3.8L650,95h-1.2l3.3-8.7h1.2l3.3,8.7h-1.2L654.6,92.7z M654.2,91.7l-1.5-4l-1.5,4H654.2z"/>
		<path class="st7" d="M663.2,91.6V95h-1.1v-3.4c0-1-0.6-1.6-1.4-1.6s-1.8,0.5-1.8,1.8V95h-1.1v-5.9h1.1V90c0.4-0.7,1.3-1,2-1
			C662.3,88.9,663.2,89.9,663.2,91.6z"/>
		<path class="st7" d="M670.8,89.1V95h-1.1V94c-0.4,0.7-1.3,1.1-2.1,1.1c-1.6,0-3-1.2-3-3.1c0-1.9,1.3-3.1,3-3.1
			c0.9,0,1.7,0.4,2.1,1.1v-0.9H670.8z M669.7,92c0-1.3-1-2-2-2c-1.1,0-1.9,0.8-1.9,2c0,1.2,0.9,2.1,1.9,2.1
			C668.7,94.1,669.7,93.3,669.7,92z"/>
		<path class="st7" d="M672.6,85.8h1.1V95h-1.1V85.8z"/>
		<path class="st7" d="M680.9,89.1l-3.7,8.8H676l1.2-3l-2.4-5.8h1.2l1.8,4.4l1.8-4.4H680.9z"/>
		<path class="st7" d="M681.4,93.2h1c0,0.5,0.5,0.9,1.2,0.9c0.7,0,1.2-0.3,1.2-0.8c0-0.4-0.3-0.7-0.8-0.8l-0.8-0.2
			c-1-0.3-1.6-0.7-1.6-1.7c0-1,0.8-1.7,2-1.7c1,0,2,0.5,2,1.7h-1.1c0-0.5-0.5-0.8-1-0.8c-0.6,0-1,0.3-1,0.8c0,0.4,0.4,0.6,0.8,0.7
			l0.9,0.2c1.2,0.3,1.5,1,1.5,1.7c0,1.1-1.1,1.8-2.3,1.8C682.6,95.1,681.5,94.4,681.4,93.2z"/>
		<path class="st7" d="M687.2,86.9c0-0.4,0.4-0.7,0.8-0.7c0.4,0,0.8,0.3,0.8,0.7s-0.4,0.7-0.8,0.7C687.5,87.6,687.2,87.3,687.2,86.9
			z M687.4,89.1h1.1V95h-1.1V89.1z"/>
		<path class="st7" d="M689.9,93.2h1c0,0.5,0.5,0.9,1.2,0.9c0.7,0,1.2-0.3,1.2-0.8c0-0.4-0.3-0.7-0.8-0.8l-0.8-0.2
			c-1-0.3-1.6-0.7-1.6-1.7c0-1,0.8-1.7,2-1.7c1,0,2,0.5,2,1.7h-1.1c0-0.5-0.5-0.8-1-0.8c-0.6,0-1,0.3-1,0.8c0,0.4,0.4,0.6,0.8,0.7
			l0.9,0.2c1.2,0.3,1.5,1,1.5,1.7c0,1.1-1.1,1.8-2.3,1.8C691.1,95.1,690,94.4,689.9,93.2z"/>
		<path class="st7" d="M705.5,89c0,1.4-0.7,2.7-2.6,2.7h-2.3V95h-1.2v-8.7h3.5C704.7,86.2,705.5,87.6,705.5,89z M704.3,89
			c0-0.8-0.4-1.7-1.5-1.7h-2.3v3.3h2.2C703.9,90.6,704.3,89.8,704.3,89z"/>
		<path class="st7" d="M706.8,85.8h1.1V95h-1.1V85.8z"/>
		<path class="st7" d="M715.6,89.1V95h-1.1V94c-0.4,0.7-1.3,1.1-2.1,1.1c-1.6,0-3-1.2-3-3.1c0-1.9,1.3-3.1,3-3.1
			c0.9,0,1.7,0.4,2.1,1.1v-0.9H715.6z M714.5,92c0-1.3-1-2-2-2c-1.1,0-1.9,0.8-1.9,2c0,1.2,0.9,2.1,1.9,2.1
			C713.5,94.1,714.5,93.3,714.5,92z"/>
		<path class="st7" d="M720.2,90H719v5h-1.1v-5h-1.1v-1h1.1v-2.2h1.1v2.2h1.3V90z"/>
		<path class="st7" d="M723.3,88.3v0.8h1.4v1h-1.4v5h-1.1v-5h-1.1v-1h1.1v-0.6c0-1.5,0.6-2.6,2.2-2.6h0.6v1h-0.4
			C723.6,86.9,723.3,87.5,723.3,88.3z"/>
		<path class="st7" d="M725.4,92c0-1.9,1.4-3.1,3.1-3.1s3.1,1.2,3.1,3.1s-1.4,3.1-3.1,3.1S725.4,93.9,725.4,92z M730.5,92
			c0-1.2-0.9-2-2-2c-1.1,0-2,0.8-2,2c0,1.2,0.9,2.1,2,2.1C729.6,94.1,730.5,93.2,730.5,92z"/>
		<path class="st7" d="M736.9,89.2l-0.2,1c-0.3-0.2-0.6-0.2-0.9-0.2c-1.2,0-1.7,1.3-1.7,2.8V95h-1.1v-5.9h1.1v1.3
			c0.3-1,0.9-1.5,1.7-1.5C736.3,88.9,736.7,89,736.9,89.2z"/>
		<path class="st7" d="M747.3,91.6V95h-1.1v-3.4c0-1-0.5-1.6-1.4-1.6c-1.1,0-1.7,0.9-1.6,2l0-0.1v3h-1.1v-3.4c0-1-0.5-1.6-1.3-1.6
			c-0.8,0-1.7,0.5-1.7,1.8V95H738v-5.9h1.1V90c0.3-0.6,1.1-1,1.9-1c0.9,0,1.6,0.4,2,1.2c0.5-1.1,1.5-1.2,2.1-1.2
			C746.5,88.9,747.3,89.9,747.3,91.6z"/>
		<path class="st7" d="M543.8,107.6c0-2.5,1.9-4.5,4.4-4.5c1.2,0,2.2,0.4,2.9,1.1l-0.8,0.7c-0.6-0.5-1.3-0.8-2.1-0.8
			c-1.8,0-3.3,1.5-3.3,3.4s1.4,3.4,3.3,3.4c1.5,0,2.7-0.9,2.8-2.2c0-0.1,0-0.1,0-0.2h-2.5v-1h3.8c0,3.1-1.7,4.5-4.1,4.5
			S543.8,110,543.8,107.6z"/>
		<path class="st7" d="M559.6,106v5.9h-1.1V111c-0.4,0.7-1.3,1.1-2.1,1.1c-1.6,0-3-1.2-3-3.1c0-1.9,1.3-3.1,3-3.1
			c0.9,0,1.7,0.4,2.1,1.1V106H559.6z M558.5,108.9c0-1.3-1-2-2-2c-1.1,0-1.9,0.8-1.9,2c0,1.2,0.9,2.1,1.9,2.1
			C557.6,111,558.5,110.2,558.5,108.9z"/>
		<path class="st7" d="M570.8,108.5v3.4h-1.1v-3.4c0-1-0.5-1.6-1.4-1.6c-1.1,0-1.7,0.9-1.6,2l0-0.1v3h-1.1v-3.4c0-1-0.5-1.6-1.3-1.6
			c-0.8,0-1.7,0.5-1.7,1.8v3.2h-1.1V106h1.1v0.9c0.3-0.6,1.1-1,1.9-1c0.9,0,1.6,0.4,2,1.2c0.5-1.1,1.5-1.2,2.1-1.2
			C570,105.9,570.8,106.8,570.8,108.5z"/>
		<path class="st7" d="M582,108.5v3.4h-1.1v-3.4c0-1-0.5-1.6-1.4-1.6c-1.1,0-1.7,0.9-1.6,2l0-0.1v3h-1.1v-3.4c0-1-0.5-1.6-1.3-1.6
			c-0.8,0-1.7,0.5-1.7,1.8v3.2h-1.1V106h1.1v0.9c0.3-0.6,1.1-1,1.9-1c0.9,0,1.6,0.4,2,1.2c0.5-1.1,1.5-1.2,2.1-1.2
			C581.1,105.9,582,106.8,582,108.5z"/>
		<path class="st7" d="M589.6,106v5.9h-1.1V111c-0.4,0.7-1.3,1.1-2.1,1.1c-1.6,0-3-1.2-3-3.1c0-1.9,1.3-3.1,3-3.1
			c0.9,0,1.7,0.4,2.1,1.1V106H589.6z M588.5,108.9c0-1.3-1-2-2-2c-1.1,0-1.9,0.8-1.9,2c0,1.2,0.9,2.1,1.9,2.1
			C587.5,111,588.5,110.2,588.5,108.9z"/>
		<path class="st7" d="M594.7,102.7h1.1v9.2h-1.1V102.7z"/>
		<path class="st7" d="M603.5,106v5.9h-1.1V111c-0.4,0.7-1.3,1.1-2.1,1.1c-1.6,0-3-1.2-3-3.1c0-1.9,1.3-3.1,3-3.1
			c0.9,0,1.7,0.4,2.1,1.1V106H603.5z M602.4,108.9c0-1.3-1-2-2-2c-1.1,0-1.9,0.8-1.9,2c0,1.2,0.9,2.1,1.9,2.1
			C601.4,111,602.4,110.2,602.4,108.9z"/>
		<path class="st7" d="M610.7,106v5.9h-1.1V111c-0.4,0.7-1.3,1.1-2,1.1c-1.5,0-2.4-1-2.4-2.6V106h1.1v3.4c0,1,0.6,1.6,1.4,1.6
			s1.8-0.5,1.8-1.8V106H610.7z"/>
		<path class="st7" d="M618.1,108.5v3.4H617v-3.4c0-1-0.6-1.6-1.4-1.6s-1.8,0.5-1.8,1.8v3.2h-1.1V106h1.1v0.9c0.4-0.7,1.3-1,2-1
			C617.1,105.9,618.1,106.8,618.1,108.5z"/>
		<path class="st7" d="M619.5,108.9c0-1.9,1.5-3.1,3.2-3.1c0.9,0,1.7,0.4,2.3,0.9l-0.7,0.7c-0.4-0.4-0.9-0.6-1.5-0.6
			c-1.2,0-2.1,0.8-2.1,2s0.9,2,2.1,2c0.6,0,1.2-0.2,1.5-0.6l0.7,0.7c-0.5,0.6-1.3,0.9-2.3,0.9C620.9,112,619.5,110.8,619.5,108.9z"
			/>
		<path class="st7" d="M631.6,108.5v3.4h-1.1v-3.4c0-1-0.6-1.6-1.4-1.6s-1.8,0.5-1.8,1.8v3.2h-1.1v-9.2h1.1v4.1c0.4-0.7,1.3-1,2-1
			C630.7,105.9,631.7,106.8,631.6,108.5z"/>
		<path class="st7" d="M639,109.4h-4.8c0.2,1.1,0.9,1.6,1.9,1.6c0.7,0,1.4-0.3,1.7-0.9l1,0.4c-0.5,1-1.6,1.6-2.7,1.6
			c-1.7,0-3-1.2-3-3.1s1.4-3.1,3-3.1s2.9,1.2,2.9,3.1C639,109.1,639,109.3,639,109.4z M637.9,108.5c-0.1-1-0.9-1.6-1.8-1.6
			c-1,0-1.7,0.5-1.9,1.6H637.9z"/>
		<path class="st7" d="M646.3,102.7v9.2h-1.1V111c-0.4,0.7-1.3,1.1-2.1,1.1c-1.6,0-3-1.2-3-3.1c0-1.9,1.3-3.1,3-3.1
			c0.9,0,1.7,0.4,2.1,1.1v-4.2H646.3z M645.2,108.9c0-1.3-1-2-2-2c-1.1,0-1.9,0.8-1.9,2c0,1.2,0.9,2.1,1.9,2.1
			C644.3,111,645.2,110.2,645.2,108.9z"/>
		<path class="st7" d="M651.2,103.8c0-0.4,0.4-0.7,0.8-0.7c0.4,0,0.8,0.3,0.8,0.7s-0.4,0.7-0.8,0.7
			C651.6,104.5,651.2,104.2,651.2,103.8z M651.5,106h1.1v5.9h-1.1V106z"/>
		<path class="st7" d="M659.9,108.5v3.4h-1.1v-3.4c0-1-0.6-1.6-1.4-1.6s-1.8,0.5-1.8,1.8v3.2h-1.1V106h1.1v0.9c0.4-0.7,1.3-1,2-1
			C659,105.9,659.9,106.8,659.9,108.5z"/>
		<path class="st7" d="M670.5,110.8v1.1h-5.3v-8.7h5.2v1.1h-4v2.8h3.5v1.1h-3.5v2.7H670.5z"/>
		<path class="st7" d="M681.1,111.9l-0.8-6.7l-2.8,5.7h-1l-2.8-5.7l-0.8,6.7h-1.1l1.1-8.7h1l3.1,6.5l3.1-6.5h1l1.1,8.7H681.1z"/>
		<path class="st7" d="M689.4,110.8v1.1h-5.3v-8.7h5.2v1.1h-4v2.8h3.5v1.1h-3.5v2.7H689.4z"/>
		<path class="st7" d="M696.2,109.7h-3.8l-0.9,2.2h-1.2l3.3-8.7h1.2l3.3,8.7H697L696.2,109.7z M695.8,108.6l-1.5-4l-1.5,4H695.8z"/>
		<path class="st7" d="M708.2,106v5.9h-1.1V111c-0.4,0.7-1.3,1.1-2.1,1.1c-1.6,0-3-1.2-3-3.1c0-1.9,1.3-3.1,3-3.1
			c0.9,0,1.7,0.4,2.1,1.1V106H708.2z M707.1,108.9c0-1.3-1-2-2-2c-1.1,0-1.9,0.8-1.9,2c0,1.2,0.9,2.1,1.9,2.1
			C706.2,111,707.1,110.2,707.1,108.9z"/>
		<path class="st7" d="M715.5,108.5v3.4h-1.1v-3.4c0-1-0.6-1.6-1.4-1.6s-1.8,0.5-1.8,1.8v3.2h-1.1V106h1.1v0.9c0.4-0.7,1.3-1,2-1
			C714.6,105.9,715.6,106.8,715.5,108.5z"/>
		<path class="st7" d="M723.1,102.7v9.2H722V111c-0.4,0.7-1.3,1.1-2.1,1.1c-1.6,0-3-1.2-3-3.1c0-1.9,1.3-3.1,3-3.1
			c0.9,0,1.7,0.4,2.1,1.1v-4.2H723.1z M722,108.9c0-1.3-1-2-2-2c-1.1,0-1.9,0.8-1.9,2c0,1.2,0.9,2.1,1.9,2.1
			C721.1,111,722,110.2,722,108.9z"/>
		<path class="st7" d="M733.2,109.7h-3.8l-0.9,2.2h-1.2l3.3-8.7h1.2l3.3,8.7H734L733.2,109.7z M732.8,108.6l-1.5-4l-1.5,4H732.8z"/>
		<path class="st7" d="M742.5,105.9c0,1.4-0.7,2.7-2.6,2.7h-2.3v3.3h-1.2v-8.7h3.5C741.8,103.2,742.5,104.5,742.5,105.9z
			 M741.4,105.9c0-0.8-0.4-1.7-1.5-1.7h-2.3v3.3h2.2C740.9,107.5,741.4,106.7,741.4,105.9z"/>
		<path class="st7" d="M748.3,109.7h-3.8l-0.9,2.2h-1.2l3.3-8.7h1.2l3.3,8.7h-1.2L748.3,109.7z M747.9,108.6l-1.5-4l-1.5,4H747.9z"
			/>
		<path class="st7" d="M750.7,107.6c0-2.5,2-4.5,4.4-4.5c1.3,0,2.5,0.6,3.3,1.5l-0.8,0.7c-0.6-0.7-1.5-1.1-2.5-1.1
			c-1.8,0-3.3,1.5-3.3,3.4c0,1.9,1.4,3.4,3.3,3.4c1,0,1.9-0.4,2.5-1.1l0.8,0.7c-0.8,0.9-1.9,1.5-3.3,1.5
			C752.7,112,750.7,110,750.7,107.6z"/>
	</g>
	<g>
		<path class="st7" d="M936.9,91.8h-4.4l-0.9,2.8h-2.5l4.3-11.7h2.5l4.3,11.7h-2.5L936.9,91.8z M936.1,89.8l-1.5-4.4l-1.5,4.4H936.1
			z"/>
		<path class="st7" d="M941.6,83h2.4v11.7h-2.4V83z"/>
		<path class="st7" d="M946.5,89.6h6v2h-6V89.6z"/>
		<path class="st7" d="M963.3,90.7c0,2.5-1.8,4.1-3.9,4.1c-0.9,0-2-0.3-2.5-1.1v4.9h-2.2V86.7h2.2v0.9c0.6-0.8,1.6-1.2,2.5-1.2
			C961.4,86.5,963.3,88.1,963.3,90.7z M961,90.7c0-1.2-0.9-2-2-2c-1.1,0-2,0.8-2,2c0,1.2,1,2,2,2C960.1,92.7,961,91.8,961,90.7z"/>
		<path class="st7" d="M964.5,90.7c0-2.5,2-4.1,4.2-4.1c2.2,0,4.2,1.6,4.2,4.1c0,2.5-2,4.1-4.2,4.1
			C966.5,94.8,964.5,93.2,964.5,90.7z M970.7,90.7c0-1.2-0.9-2.1-2-2.1c-1.1,0-2,0.8-2,2.1c0,1.2,0.9,2,2,2
			C969.9,92.7,970.7,91.9,970.7,90.7z"/>
		<path class="st7" d="M986.1,86.7l-2.8,7.9h-1.9l-1.6-5.1l-1.6,5.1h-1.9l-2.9-7.9h2.4l1.5,4.8l1.5-4.8h1.9l1.5,4.8l1.5-4.8H986.1z"
			/>
		<path class="st7" d="M994.9,91.4h-6c0.2,0.9,1,1.4,2,1.4c0.8,0,1.6-0.3,2.1-0.9l1.3,1.3c-0.7,1-2.1,1.5-3.5,1.5
			c-2.4,0-4.2-1.7-4.2-4.1c0-2.6,1.9-4.1,4.2-4.1c2.2,0,4.1,1.6,4.1,4C994.9,90.8,994.9,91,994.9,91.4z M992.7,90
			c-0.1-0.9-0.8-1.5-1.8-1.5c-0.9,0-1.7,0.4-1.9,1.5H992.7z"/>
		<path class="st7" d="M1002.4,86.8l-0.5,2.1c-0.5-0.3-0.9-0.3-1.1-0.3c-1.1,0-1.9,1-1.9,3.3v2.7h-2.2v-7.9h2.2v1.7
			c0.4-1.3,1.3-1.9,2.3-1.9C1001.5,86.5,1002,86.6,1002.4,86.8z"/>
		<path class="st7" d="M1011.2,91.4h-6c0.2,0.9,1,1.4,2,1.4c0.8,0,1.6-0.3,2.1-0.9l1.3,1.3c-0.7,1-2.1,1.5-3.5,1.5
			c-2.4,0-4.2-1.7-4.2-4.1c0-2.6,1.9-4.1,4.2-4.1c2.2,0,4.1,1.6,4.1,4C1011.2,90.8,1011.2,91,1011.2,91.4z M1009,90
			c-0.1-0.9-0.8-1.5-1.8-1.5c-0.9,0-1.7,0.4-1.9,1.5H1009z"/>
		<path class="st7" d="M1021.1,82.5v12.1h-2.2v-1c-0.6,0.8-1.7,1.1-2.5,1.1c-2,0-3.9-1.6-3.9-4.1c0-2.5,1.8-4.1,3.9-4.1
			c0.9,0,2,0.3,2.5,1.1v-5.2H1021.1z M1018.8,90.7c0-1.2-1-2-2-2c-1.1,0-2,0.9-2,2c0,1.2,0.9,2,2,2
			C1017.8,92.7,1018.8,91.9,1018.8,90.7z"/>
		<path class="st7" d="M1035.1,92.5v2.1h-7.5V83h7.3V85h-5v2.8h4.3v2.1h-4.3v2.6H1035.1z"/>
		<path class="st7" d="M1049.7,90.3v4.3h-2.2v-4.2c0-1.2-0.6-1.7-1.4-1.7c-0.9,0-1.5,0.5-1.6,1.7v4.2h-2.2v-4.2
			c0-1.2-0.6-1.7-1.4-1.7c-0.8,0-1.6,0.4-1.6,1.8v4.1h-2.2v-7.9h2.2v1.4c0.2-1.1,1.4-1.6,2.2-1.6c1.2,0,2.1,0.6,2.5,1.5
			c0.6-1.2,1.8-1.5,2.6-1.5C1048.7,86.5,1049.7,87.9,1049.7,90.3z"/>
		<path class="st7" d="M1060.4,90.7c0,2.5-1.8,4.1-3.9,4.1c-0.9,0-2-0.3-2.5-1.1v1h-2.2V82.5h2.2v5.2c0.6-0.8,1.6-1.1,2.5-1.1
			C1058.6,86.6,1060.4,88.1,1060.4,90.7z M1058.2,90.7c0-1.2-0.9-2-2-2c-1,0-2,0.8-2,2c0,1.2,1,2,2,2
			C1057.3,92.7,1058.2,91.8,1058.2,90.7z"/>
		<path class="st7" d="M1061.7,90.7c0-2.5,2-4.1,4.2-4.1c2.3,0,4.2,1.6,4.2,4.1c0,2.5-2,4.1-4.2,4.1
			C1063.7,94.8,1061.7,93.2,1061.7,90.7z M1067.9,90.7c0-1.2-0.9-2.1-2-2.1c-1.1,0-2,0.8-2,2.1c0,1.2,0.9,2,2,2
			C1067,92.7,1067.9,91.9,1067.9,90.7z"/>
		<path class="st7" d="M1071.9,82.5h2.2v12.1h-2.2V82.5z"/>
		<path class="st7" d="M1084.4,82.5v12.1h-2.2v-1c-0.6,0.8-1.7,1.1-2.5,1.1c-2,0-3.9-1.6-3.9-4.1c0-2.5,1.8-4.1,3.9-4.1
			c0.9,0,2,0.3,2.5,1.1v-5.2H1084.4z M1082.2,90.7c0-1.2-1-2-2-2c-1.1,0-2,0.9-2,2c0,1.2,0.9,2,2,2
			C1081.2,92.7,1082.2,91.9,1082.2,90.7z"/>
		<path class="st7" d="M911.8,111.9h-6c0.2,0.9,1,1.4,2,1.4c0.8,0,1.6-0.3,2.1-0.9l1.3,1.3c-0.7,1-2.1,1.5-3.5,1.5
			c-2.4,0-4.2-1.7-4.2-4.1c0-2.6,1.9-4.1,4.2-4.1c2.2,0,4.1,1.6,4.1,4C911.9,111.3,911.8,111.6,911.8,111.9z M909.6,110.5
			c-0.1-0.9-0.8-1.5-1.8-1.5c-0.9,0-1.7,0.4-1.9,1.5H909.6z"/>
		<path class="st7" d="M921.2,110.8v4.3H919v-4.1c0-1.3-0.7-1.8-1.5-1.8c-0.8,0-1.8,0.4-1.8,1.9v4h-2.2v-7.9h2.2v1.3
			c0.3-1.1,1.6-1.5,2.4-1.5C920.2,107.1,921.3,108.5,921.2,110.8z"/>
		<path class="st7" d="M927.8,109h-1.7v6.2h-2.2V109h-1.4v-1.7h1.4v-2.9h2.2v2.9h1.7V109z"/>
		<path class="st7" d="M936.9,111.9h-6c0.2,0.9,1,1.4,2,1.4c0.8,0,1.6-0.3,2.1-0.9l1.3,1.3c-0.7,1-2.1,1.5-3.5,1.5
			c-2.4,0-4.2-1.7-4.2-4.1c0-2.6,1.9-4.1,4.2-4.1c2.2,0,4.1,1.6,4.1,4C936.9,111.3,936.9,111.6,936.9,111.9z M934.7,110.5
			c-0.1-0.9-0.8-1.5-1.8-1.5c-0.9,0-1.7,0.4-1.9,1.5H934.7z"/>
		<path class="st7" d="M944.4,107.3l-0.5,2.1c-0.5-0.3-0.9-0.3-1.1-0.3c-1.1,0-1.9,1-1.9,3.3v2.7h-2.2v-7.9h2.2v1.7
			c0.4-1.3,1.3-1.9,2.3-1.9C943.5,107.1,944,107.2,944.4,107.3z"/>
		<path class="st7" d="M945.3,104.5c0-0.7,0.6-1.3,1.4-1.3c0.8,0,1.4,0.6,1.4,1.3s-0.6,1.3-1.4,1.3
			C945.9,105.9,945.3,105.3,945.3,104.5z M945.6,107.3h2.2v7.9h-2.2V107.3z"/>
		<path class="st7" d="M957.7,110.8v4.3h-2.2v-4.1c0-1.3-0.7-1.8-1.5-1.8c-0.8,0-1.8,0.4-1.8,1.9v4h-2.2v-7.9h2.2v1.3
			c0.3-1.1,1.6-1.5,2.4-1.5C956.6,107.1,957.7,108.5,957.7,110.8z"/>
		<path class="st7" d="M967.9,107.3v6.8c0,3.5-1.7,5.1-4.5,5.1c-1.7,0-3.2-0.9-3.8-2.4l1.8-0.8c0.3,0.7,1.2,1.2,2,1.2
			c1.4,0,2.3-0.8,2.3-2.8v-0.1c-0.6,0.8-1.7,1.1-2.5,1.1c-2,0-3.9-1.6-3.9-4.1c0-2.5,1.8-4.1,3.9-4.1c0.9,0,2,0.4,2.5,1.1v-0.9
			H967.9z M965.6,111.2c0-1.2-1-2-2-2c-1.1,0-2,0.9-2,2c0,1.2,0.9,2,2,2C964.6,113.3,965.6,112.4,965.6,111.2z"/>
		<path class="st7" d="M978.8,109h-1.7v6.2h-2.2V109h-1.4v-1.7h1.4v-2.9h2.2v2.9h1.7V109z"/>
		<path class="st7" d="M987.8,110.8v4.3h-2.2v-4.1c0-1.3-0.7-1.8-1.5-1.8c-0.8,0-1.8,0.4-1.8,1.9v4h-2.2v-12.1h2.2v5.4
			c0.3-1,1.6-1.4,2.4-1.4C986.8,107.1,987.9,108.5,987.8,110.8z"/>
		<path class="st7" d="M997.7,111.9h-6c0.2,0.9,1,1.4,2,1.4c0.8,0,1.6-0.3,2.1-0.9l1.3,1.3c-0.7,1-2.1,1.5-3.5,1.5
			c-2.4,0-4.2-1.7-4.2-4.1c0-2.6,1.9-4.1,4.2-4.1c2.2,0,4.1,1.6,4.1,4C997.7,111.3,997.7,111.6,997.7,111.9z M995.5,110.5
			c-0.1-0.9-0.8-1.5-1.8-1.5c-0.9,0-1.7,0.4-1.9,1.5H995.5z"/>
		<path class="st7" d="M1011.6,107.3v6.8c0,3.5-1.7,5.1-4.5,5.1c-1.7,0-3.2-0.9-3.8-2.4l1.8-0.8c0.3,0.7,1.2,1.2,2,1.2
			c1.4,0,2.3-0.8,2.3-2.8v-0.1c-0.6,0.8-1.7,1.1-2.5,1.1c-2,0-3.9-1.6-3.9-4.1c0-2.5,1.8-4.1,3.9-4.1c0.9,0,2,0.4,2.5,1.1v-0.9
			H1011.6z M1009.4,111.2c0-1.2-1-2-2-2c-1.1,0-2,0.9-2,2c0,1.2,0.9,2,2,2C1008.4,113.3,1009.4,112.4,1009.4,111.2z"/>
		<path class="st7" d="M1013.8,103.1h2.2v12.1h-2.2V103.1z"/>
		<path class="st7" d="M1017.7,111.2c0-2.5,2-4.1,4.2-4.1c2.3,0,4.2,1.6,4.2,4.1c0,2.5-2,4.1-4.2,4.1
			C1019.7,115.3,1017.7,113.7,1017.7,111.2z M1023.9,111.2c0-1.2-0.9-2.1-2-2.1c-1.1,0-2,0.8-2,2.1c0,1.2,0.9,2,2,2
			C1023,113.3,1023.9,112.4,1023.9,111.2z"/>
		<path class="st7" d="M1036.5,111.2c0,2.5-1.8,4.1-3.9,4.1c-0.9,0-2-0.3-2.5-1.1v1h-2.2v-12.1h2.2v5.2c0.6-0.8,1.6-1.1,2.5-1.1
			C1034.7,107.1,1036.5,108.7,1036.5,111.2z M1034.3,111.2c0-1.2-0.9-2-2-2c-1,0-2,0.8-2,2c0,1.2,1,2,2,2
			C1033.3,113.3,1034.3,112.4,1034.3,111.2z"/>
		<path class="st7" d="M1046.4,107.3v7.9h-2.2v-1c-0.6,0.8-1.7,1.1-2.5,1.1c-2,0-3.9-1.6-3.9-4.1c0-2.5,1.8-4.1,3.9-4.1
			c0.9,0,2,0.3,2.5,1.1v-0.9H1046.4z M1044.1,111.2c0-1.2-1-2-2-2c-1.1,0-2,0.9-2,2c0,1.2,0.9,2,2,2
			C1043.1,113.3,1044.1,112.4,1044.1,111.2z"/>
		<path class="st7" d="M1048.6,103.1h2.2v12.1h-2.2V103.1z"/>
		<path class="st7" d="M1069.7,110.8v4.3h-2.2V111c0-1.2-0.6-1.7-1.4-1.7c-0.9,0-1.5,0.5-1.6,1.7v4.2h-2.2V111
			c0-1.2-0.6-1.7-1.4-1.7c-0.8,0-1.6,0.4-1.6,1.8v4.1h-2.2v-7.9h2.2v1.4c0.2-1.1,1.4-1.6,2.2-1.6c1.2,0,2.1,0.6,2.5,1.5
			c0.6-1.2,1.8-1.5,2.6-1.5C1068.6,107.1,1069.7,108.5,1069.7,110.8z"/>
		<path class="st7" d="M1080,107.3v7.9h-2.2v-1c-0.6,0.8-1.7,1.1-2.5,1.1c-2,0-3.9-1.6-3.9-4.1c0-2.5,1.8-4.1,3.9-4.1
			c0.9,0,2,0.3,2.5,1.1v-0.9H1080z M1077.7,111.2c0-1.2-1-2-2-2c-1.1,0-2,0.9-2,2c0,1.2,0.9,2,2,2
			C1076.7,113.3,1077.7,112.4,1077.7,111.2z"/>
		<path class="st7" d="M1087.9,107.3l-0.5,2.1c-0.5-0.3-0.9-0.3-1.1-0.3c-1.1,0-1.9,1-1.9,3.3v2.7h-2.2v-7.9h2.2v1.7
			c0.4-1.3,1.3-1.9,2.3-1.9C1087.1,107.1,1087.5,107.2,1087.9,107.3z"/>
		<path class="st7" d="M1094.1,115.2l-2.8-3.4v3.4h-2.2v-12.1h2.2v6.6l2-2.4h2.8l-3.1,3.5l3.8,4.4H1094.1z"/>
		<path class="st7" d="M1105.2,111.9h-6c0.2,0.9,1,1.4,2,1.4c0.8,0,1.6-0.3,2.1-0.9l1.3,1.3c-0.7,1-2.1,1.5-3.5,1.5
			c-2.4,0-4.2-1.7-4.2-4.1c0-2.6,1.9-4.1,4.2-4.1c2.2,0,4.1,1.6,4.1,4C1105.2,111.3,1105.2,111.6,1105.2,111.9z M1103,110.5
			c-0.1-0.9-0.8-1.5-1.8-1.5c-0.9,0-1.7,0.4-1.9,1.5H1103z"/>
		<path class="st7" d="M1111.4,109h-1.7v6.2h-2.2V109h-1.4v-1.7h1.4v-2.9h2.2v2.9h1.7V109z"/>
	</g>
</g>
</svg>
