<?xml version="1.0" encoding="utf-8"?>
<!-- Generator: Adobe Illustrator 23.0.2, SVG Export Plug-In . SVG Version: 6.00 Build 0)  -->
<svg version="1.1" id="Layer_1" xmlns="http://www.w3.org/2000/svg" xmlns:xlink="http://www.w3.org/1999/xlink" x="0px" y="0px"
	 viewBox="0 0 48 48" style="enable-background:new 0 0 48 48;" xml:space="preserve">
<style type="text/css">
	.st0{fill:#FFFFFF;}
</style>
<title>arrow-light-right</title>
<path class="st0" d="M16.5,40c-0.3,0-0.5-0.1-0.7-0.3c-0.4-0.4-0.4-1,0-1.4c0,0,0,0,0,0L30.1,24L15.8,9.7c-0.4-0.4-0.4-1,0-1.4
	c0.4-0.4,1-0.4,1.4,0l15,15c0.4,0.4,0.4,1,0,1.4c0,0,0,0,0,0l-15,15C17,39.9,16.8,40,16.5,40z"/>
</svg>
