<?xml version="1.0" encoding="utf-8"?>
<!-- Generator: Adobe Illustrator 23.0.2, SVG Export Plug-In . SVG Version: 6.00 Build 0)  -->
<svg version="1.1" id="Layer_1" xmlns="http://www.w3.org/2000/svg" xmlns:xlink="http://www.w3.org/1999/xlink" x="0px" y="0px"
	 viewBox="0 0 600 400" style="enable-background:new 0 0 600 400;" xml:space="preserve">
<style type="text/css">
	.st0{fill:#0F1C3A;}
	.st1{fill:#D0D4E0;}
	.st2{fill:#7F8DAD;}
	.st3{fill:#EF7E53;}
	.st4{fill:#2A3141;}
	.st5{fill:#F5F6F8;}
	.st6{fill:#ECEDEF;}
	.st7{fill:#F5B54D;}
	.st8{fill:#F1DAD5;}
	.st9{fill:#546184;}
	.st10{fill:#171B23;}
	.st11{fill:#E2E5EB;}
	.st12{fill:#3ABABA;}
	.st13{fill:#30C4C4;}
	.st14{fill:#21ABB0;}
	.st15{fill:#CC61A8;}
	.st16{fill:#BACC54;}
</style>
<g>
	<path class="st0" d="M255.4,313.8c0,0-5.5,3-6.2,6.3c-0.7,3.3-1.2,4.7,0,7.5c1.2,2.8,2.8,4.6,4.6,4.7c1.8,0.1,16.6,0,16.6,0
		s2,0.1,3.2-3.7c1.2-3.8,2.6-6.8,1-9c-1.5-2.1-3.3-5.5-3.3-5.5"/>
</g>
<g>
	<path class="st0" d="M295.4,313.8c0,0,5.5,3,6.2,6.3c0.7,3.3,1.2,4.7,0,7.5c-1.2,2.8-2.8,4.6-4.6,4.7c-1.8,0.1-14.1,0-14.1,0
		s-2.2-0.5-3.5-4.3c-1.2-3.8-1.2-2.9-1.6-5.6c-0.4-2.8,3.5-6.7,3.5-6.7"/>
</g>
<g>
	<polygon class="st1" points="322,332.4 317.5,332.4 297,276.1 305.3,276.1 	"/>
</g>
<g>
	<polygon class="st1" points="228.4,332.4 232.9,332.4 253.4,276.1 245.1,276.1 	"/>
</g>
<g>
	<path class="st2" d="M306.3,251.8c0,0,7.9,5.2,8.1,13.1c0.2,7.8-5.8,18-18.4,18.4c-12.5,0.4-20.8,0.4-20.8,0.4s-8.3,0-20.8-0.4
		c-12.5-0.4-18.6-10.6-18.4-18.4c0.2-7.9,8.1-13.1,8.1-13.1"/>
</g>
<g>
	<path class="st3" d="M374.8,251.8H192.2c-0.6,0-1-0.4-1-1v-8.6c0-0.6,0.4-1,1-1h182.7c0.6,0,1,0.4,1,1v8.6
		C375.8,251.4,375.4,251.8,374.8,251.8z"/>
</g>
<g>
	<polygon class="st3" points="197.9,333.3 189.3,333.3 205.2,251.8 217.4,251.8 	"/>
</g>
<g>
	<polygon class="st3" points="369.1,333.3 377.7,333.3 361.8,251.8 349.6,251.8 	"/>
</g>
<g>
	<path class="st4" d="M462.3,333.3h-61.6c-1.1,0-2-0.9-2-2V193.5c0-1.1,0.9-2,2-2h61.6c1.1,0,2,0.9,2,2v137.8
		C464.3,332.4,463.4,333.3,462.3,333.3z"/>
</g>
<g>
	<path class="st5" d="M212.5,169.2c0,0,3.3,3.1,2,5.5c-1.2,2.3-4.3,4.5-4.2,7.7c0.1,3.1,1,5,3.4,6.8s4.7,1.2,4.7,1.2
		s-2.6-1.9-3.7-4.7c-1-2.6-0.4-4.4,0.8-5.8c1.3-1.5,3.9-4.7,2.9-7.1C217.4,170.4,215.4,169.2,212.5,169.2z"/>
	<path class="st5" d="M217.4,190.9c-0.9,0-2.4-0.2-3.9-1.4c-2.6-1.9-3.5-3.8-3.6-7.2c-0.1-2.3,1.4-4.1,2.7-5.6
		c0.6-0.8,1.2-1.5,1.6-2.3c0.9-1.7-1.1-4.1-2-5c-0.1-0.1-0.2-0.3-0.1-0.5c0.1-0.2,0.2-0.3,0.4-0.3c3-0.1,5.2,1.3,6.4,3.8
		c1.2,2.7-1.9,6.4-2.9,7.5c-1.3,1.5-1.5,3.2-0.7,5.4c1,2.6,3.5,4.5,3.5,4.5c0.1,0.1,0.2,0.3,0.2,0.4c0,0.2-0.1,0.3-0.3,0.3
		C218.5,190.8,218.1,190.9,217.4,190.9z M213.6,169.7c1,1.2,2.4,3.4,1.4,5.2c-0.4,0.8-1.1,1.6-1.7,2.4c-1.2,1.5-2.5,3.1-2.5,5.1
		c0.1,3.1,0.9,4.7,3.3,6.5c1.3,1,2.5,1.2,3.3,1.2c-0.9-0.8-2.3-2.3-3-4.2c-0.9-2.5-0.6-4.5,0.9-6.3c2.5-2.9,3.4-5.1,2.8-6.6
		C217.2,171.1,215.7,169.9,213.6,169.7z"/>
</g>
<g>
	<path class="st1" d="M221.1,163.6c0,0,3.1,2.5,3.5,6.4c0.4,4-2,4.7-2.6,9.4c-0.7,4.8,3,8.1,3,8.1s-1.2-7.8,0-9.8
		c1.2-2,3.2-3.2,3.1-7.7C228,165.7,221.1,163.6,221.1,163.6z"/>
	<path class="st1" d="M225,188.1c-0.1,0-0.2,0-0.3-0.1c-0.2-0.1-3.8-3.6-3.1-8.5c0.3-2.3,1-3.6,1.6-4.8c0.7-1.4,1.2-2.5,1-4.5
		c-0.4-3.7-3.3-6.1-3.4-6.1c-0.2-0.1-0.2-0.4-0.1-0.6c0.1-0.2,0.3-0.3,0.5-0.2c0.3,0.1,7.3,2.2,7.3,6.9c0.1,3.5-1.2,5.1-2.2,6.5
		c-0.4,0.5-0.7,0.9-1,1.4c-0.9,1.6-0.3,7.4,0.1,9.5c0,0.2-0.1,0.4-0.2,0.5C225.1,188,225,188.1,225,188.1z M222.8,164.7
		c0.9,1.2,2,3,2.3,5.3c0.3,2.3-0.4,3.6-1.1,5c-0.6,1.2-1.2,2.5-1.5,4.6c-0.4,2.9,0.9,5.3,1.9,6.7c-0.3-2.4-0.7-7,0.3-8.6
		c0.3-0.5,0.7-1,1-1.5c1-1.4,2.1-2.8,2.1-6C227.6,167.4,224.7,165.7,222.8,164.7z"/>
</g>
<g>
	<path class="st6" d="M231.6,175c0,0,2.1,3.1,1.4,4.8s-2.9,2.7-3.5,5c-0.7,2.3,1.3,6.5,3.6,7.3c2.4,0.8,2.4,0.8,2.4,0.8
		s-3.2-3.5-2.6-6.2s3.3-4.5,3-7.2S231.6,175,231.6,175z"/>
	<path class="st6" d="M235.6,193.5c0,0-0.1,0-0.1,0l-2.4-0.8c-2.7-0.9-4.6-5.4-3.9-7.9c0.4-1.4,1.3-2.3,2.1-3.2
		c0.6-0.6,1.2-1.2,1.4-1.9c0.5-1.2-0.8-3.6-1.4-4.4c-0.1-0.2-0.1-0.4,0-0.5c0.1-0.2,0.3-0.2,0.5-0.1c0.2,0.1,4.3,1.9,4.6,4.9
		c0.2,1.8-0.7,3.1-1.6,4.5c-0.6,0.9-1.2,1.9-1.5,2.9c-0.6,2.4,2.4,5.8,2.5,5.8c0.1,0.1,0.2,0.4,0,0.5
		C235.9,193.4,235.7,193.5,235.6,193.5z M232.8,176.2c0.6,1.1,1.1,2.7,0.7,3.9c-0.3,0.9-0.9,1.5-1.6,2.2c-0.8,0.8-1.6,1.6-1.9,2.8
		c-0.6,2.2,1.3,6.1,3.3,6.8l1,0.3c-0.9-1.3-2.2-3.5-1.7-5.4c0.3-1.2,0.9-2.2,1.6-3.2c0.8-1.3,1.6-2.4,1.4-3.9
		C235.4,178.1,233.9,176.9,232.8,176.2z"/>
</g>
<g>
	<path class="st7" d="M251.9,204.3c0,0-0.2,2.9-0.9,12.1c-0.7,9.2,12.8,11.1,12.8,11.1s-1.8,2.2-2.9,6.5c-1.2,4.3,2.9,7.2,2.9,7.2
		s-16.2,0-21.1,0c-4.9,0-5.5-10.1-6.7-16.9c-1.3-6.8,1.1-17.2,1.3-19.4c0.2-2.1,4.1-13.5,6.4-16.6c2.3-3.1,10.8-6.1,10.8-6.1l31.3,1
		l1,40.4l-9.7,6.9h-21.8c0,0,1.4-5.1-0.5-12.9C252.9,209.8,251.9,204.3,251.9,204.3z"/>
</g>
<g>
	<path class="st8" d="M270.9,227.9c0,0-4.7-2.3-7-0.5c-2.3,1.8-5.7,8.1-3.5,11.2c2.1,3.1,9.2,3.9,11.9,1.2S273.6,230.3,270.9,227.9z
		"/>
</g>
<g>
	<path class="st5" d="M458.1,230.5h-53.2v-30.9c0-0.6,0.4-1,1-1h51.2c0.6,0,1,0.4,1,1V230.5z"/>
</g>
<g>
	<path class="st1" d="M437.4,207.9h-12c-0.6,0-1-0.4-1-1V205c0-0.6,0.4-1,1-1h12c0.6,0,1,0.4,1,1v1.9
		C438.4,207.5,438,207.9,437.4,207.9z"/>
</g>
<g>
	<rect x="404.9" y="230.5" class="st1" width="53.2" height="31.9"/>
</g>
<g>
	<path class="st9" d="M437.4,239.8h-12c-0.6,0-1-0.4-1-1v-1.9c0-0.6,0.4-1,1-1h12c0.6,0,1,0.4,1,1v1.9
		C438.4,239.4,438,239.8,437.4,239.8z"/>
</g>
<g>
	<rect x="404.9" y="262.4" class="st5" width="53.2" height="31.9"/>
</g>
<g>
	<path class="st1" d="M437.4,271.7h-12c-0.6,0-1-0.4-1-1v-1.9c0-0.6,0.4-1,1-1h12c0.6,0,1,0.4,1,1v1.9
		C438.4,271.3,438,271.7,437.4,271.7z"/>
</g>
<g>
	<path class="st1" d="M457.1,326.2h-51.2c-0.6,0-1-0.4-1-1v-30.9h53.2v30.9C458.1,325.8,457.6,326.2,457.1,326.2z"/>
</g>
<g>
	<path class="st9" d="M437.4,303.6h-12c-0.6,0-1-0.4-1-1v-1.9c0-0.6,0.4-1,1-1h12c0.6,0,1,0.4,1,1v1.9
		C438.4,303.2,438,303.6,437.4,303.6z"/>
</g>
<g>
	<path class="st4" d="M302.7,264.1c-0.4-4.5-1.9-6.9-2.3-8.7c-0.4-1.8,0-3.6,0-3.6H249c0,0-1.4,1.3-1.7,4.1c-0.3,2.8-0.2,6.4,0.2,8
		c0.4,1.7,2.5,7,3.9,7.2h0c-0.7,6-1.2,15.5-0.9,23.2c0.4,10.1,2.7,18.7,4.9,19.4c2.1,0.8,2.7,0.7,7.4,0.9c4.7,0.2,8.6-0.6,8.6-0.6
		s1.8-4.1,2.9-10.9c0.9,3.8,2.5,8.8,3.2,10.9c1,3,3.6,5.1,4.5,3.2c1-2,12.8-3.1,13.6-3.5c0.8-0.4,2-4.7,2.1-9.2
		c0.2-4.5,1-12.7,1.6-21.3c0.3-4,0.4-8,0.4-11.3l0,0C300.3,271.5,303.1,268.6,302.7,264.1z"/>
</g>
<g>
	<circle class="st7" cx="140.7" cy="312.4" r="20.9"/>
</g>
<g>
	<path class="st6" d="M381.1,87.1h-0.4c0-0.2,0.1-0.4,0.1-0.6c0-1.5-1.2-2.6-2.6-2.6c-0.9,0-1.8,0.5-2.2,1.2
		c-0.4-1.9-2.1-3.3-4.2-3.3c-2.4,0-4.3,1.9-4.3,4.3c0,0,0,0.1,0,0.1c-0.2-0.1-0.5-0.1-0.8-0.1c-1.5,0-2.6,1.2-2.6,2.6
		c0,1.5,1.2,2.6,2.6,2.6h14.4c1.2,0,2.1-1,2.1-2.1C383.2,88.1,382.3,87.1,381.1,87.1z"/>
</g>
<g>
	<path class="st2" d="M425.3,76.3h-69.7l34.8-20.8L425.3,76.3z M362.1,74.6h56.8l-28.4-17L362.1,74.6z"/>
</g>
<g>
	<circle class="st4" cx="390.5" cy="57.5" r="4.4"/>
</g>
<g>
	<path class="st8" d="M252,169.2c0,0,1.2,10.4,2.5,12.9c1.3,2.5,4.1,7.3,6,9.1s6.1,2.8,7.5,2.9c1.3,0.1,13.6,2.4,17.4-1.1
		c3.8-3.6,6.6-6.7,8.2-13.2c1.6-6.5,2.1-19.1,1.9-21c-0.2-1.9-1.8-14.6-10-16.5c-8.2-1.9-26.9-1-31.8,8.6
		C249,160.6,252,169.2,252,169.2z"/>
</g>
<g>
	<path class="st10" d="M272.8,133.3c0,0-7.6-0.8-10.7,2.3c-3.1,3.1-8.6,6.1-9.7,10.1s-1.8,7.5-2.6,8.6c-0.9,1.2-1.8,10.6-0.6,13.7
		c1.2,3.1,0.9,6.5,2.8,9c1.9,2.5,2.5,2.8,2.5,2.8s-1-6.5,0-10s1.2-3.7,2.3-5.3c1.2-1.6,4.5-0.1,7.3-1s8.8-3,10.8-5.6
		c2-2.6,4.4-7.4,4.6-8.1s-1.8,5.2,0.8,7.4c2.6,2.2,7,4.2,9.5,4.2c2.5,0,5.6,4.4,5.6,4.4s0.6-10.7,0-12.9c-0.6-2.2-2.7-10-5-12.7
		c-2.3-2.8-8.6-5.1-10-5.7C279.3,134,275.6,133.4,272.8,133.3z"/>
</g>
<g>
	<path class="st5" d="M417.8,83.7c-0.2,0-0.4,0-0.6,0.1c0-0.1,0.1-0.3,0.1-0.5c0-0.8-0.7-1.5-1.5-1.5c-0.8,0-1.4,0.6-1.5,1.3
		c-0.2-0.1-0.5-0.2-0.7-0.2c-0.9,0-1.6,0.7-1.6,1.6s0.7,1.6,1.6,1.6h4.3c0.7,0,1.3-0.6,1.3-1.3S418.5,83.7,417.8,83.7z"/>
</g>
<g>
	<path class="st5" d="M352.4,110.2c0,0,12.4-1.4,21.3-1.3s12,1,19.2,1.3c7.2,0.3,27.1,0,30.5-1.3s5.2-2,5.2-2v15.8h-76.2V110.2"/>
</g>
<g>
	<path class="st11" d="M352.4,105.5c0,0,18.6-2.2,23.4-4.3c4.8-2,9.1-4.4,14.7-3.5c5.7,0.9,18.8,5.8,25,6s13.1,0.4,13.1,0.4v10.3
		h-76.2V105.5"/>
</g>
<g>
	<path class="st12" d="M409.8,165.6c0,0,0-4.6-2.3-10.6c-2.2-6-5.6-11.1-5.6-11.1s7.8,8.2,9.8,14.9c2,6.7,2,6.7,2,6.7H409.8z"/>
</g>
<g>
	<path class="st13" d="M407.2,138.4c0,0,3,8.3,4.2,14.6s1.6,12.7,1.6,12.7h5.2c0,0-1.1-6.7-2.4-10.3S409.1,140.9,407.2,138.4z"/>
</g>
<g>
	<path class="st14" d="M410.6,165.6c0,0,0.3-6,4-12.4c3.7-6.4,11-14.3,11-14.3s-4.8,8-6.4,13.1c-1.5,5-2.5,13.6-2.5,13.6H410.6z"/>
</g>
<g>
	<circle class="st1" cx="86.7" cy="312.4" r="2.7"/>
</g>
<g>
	<circle class="st1" cx="100.7" cy="312.4" r="2.7"/>
</g>
<g>
	<circle class="st1" cx="109.8" cy="312.4" r="2.7"/>
</g>
<g>
	<path class="st4" d="M347.1,75.7v49.6c0,2,1.6,3.5,3.5,3.5h79.8c2,0,3.5-1.6,3.5-3.5V75.7c0-2-1.6-3.5-3.5-3.5h-79.8
		C348.6,72.2,347.1,73.8,347.1,75.7z M426.8,122.7h-72.7c-1,0-1.8-0.8-1.8-1.8V80.2c0-1,0.8-1.8,1.8-1.8h72.7c1,0,1.8,0.8,1.8,1.8
		v40.8C428.6,121.9,427.8,122.7,426.8,122.7z"/>
</g>
<g>
	<path class="st7" d="M407.2,117.3l7.2,5.4h2.9l-4-7.2l-2.6-8.3l-3-22.3c-0.1-0.5-0.9-0.5-0.9,0c-0.9,7.7-3.2,22.3-3.2,22.3
		l-2.6,8.3l-4,7.2h2.9L407.2,117.3z"/>
</g>
<g>
	<path class="st1" d="M356.3,234h-90.5v-64c0-1.1,0.9-2,2-2h86.5c1.1,0,2,0.9,2,2V234z"/>
</g>
<g>
	<path class="st11" d="M356.3,234h-90.5v5.2c0,1.1,0.9,2,2,2h86.5c1.1,0,2-0.9,2-2V234z"/>
</g>
<g>
	<rect x="273.5" y="234" class="st4" width="75.1" height="7.2"/>
</g>
<g>
	<path class="st7" d="M303.4,194.1h13c0.2,0,0.4,0.2,0.4,0.4v3.1c0,0.2-0.2,0.4-0.4,0.4h-13c-0.2,0-0.4-0.2-0.4-0.4v-3.1
		C303,194.3,303.2,194.1,303.4,194.1z"/>
</g>
<g>
	<path class="st15" d="M301.4,199.1h6c0.2,0,0.4,0.2,0.4,0.4v3.1c0,0.2-0.2,0.4-0.4,0.4h-6c-0.2,0-0.4-0.2-0.4-0.4v-3.1
		C301,199.2,301.2,199.1,301.4,199.1z"/>
</g>
<g>
	<path class="st16" d="M309.8,199.1h3.1c0.2,0,0.4,0.2,0.4,0.4v3.1c0,0.2-0.2,0.4-0.4,0.4h-3.1c-0.2,0-0.4-0.2-0.4-0.4v-3.1
		C309.4,199.2,309.6,199.1,309.8,199.1z"/>
</g>
<g>
	<path class="st14" d="M316.4,207.9h-13c-0.2,0-0.4-0.2-0.4-0.4v-3.1c0-0.2,0.2-0.4,0.4-0.4h13c0.2,0,0.4,0.2,0.4,0.4v3.1
		C316.8,207.7,316.6,207.9,316.4,207.9z"/>
</g>
<g>
	<path class="st9" d="M425.9,174.4h-25.5c-0.6,0-1-0.4-1-1v-6.8c0-0.6,0.4-1,1-1h25.5c0.6,0,1,0.4,1,1v6.8
		C426.9,174,426.5,174.4,425.9,174.4z"/>
</g>
<g>
	<polygon class="st2" points="425.3,174.4 401,174.4 402.6,191.8 423.8,191.8 	"/>
</g>
<g>
	<path class="st4" d="M238.6,197.7h-28.8c-1.1,0-2,0.9-2,2v34.5c0,3.9,3.1,7,7,7h18.8c3.9,0,7-3.1,7-7v-34.5
		C240.6,198.6,239.7,197.7,238.6,197.7z"/>
</g>
<g>
	<path class="st4" d="M253.5,209c-1.1-2.3-4.2-2.6-6-2.1c-3.3,0.8-6.9,3.1-6.9,3.1v3.7c0,0,2.6-1.4,4.9-1.9c1.3-0.3,3.6-1.3,4.5,0.7
		c0.8,1.8,1.1,8.7-1.4,10.9s-8-0.5-8-0.5v3.6c0,0,7.8,2.7,11.3-0.8C255.4,222.2,254.8,211.8,253.5,209z"/>
</g>
<g>
	<path class="st4" d="M336.3,335.1h-205c-1,0-1.8-0.8-1.8-1.8s0.8-1.8,1.8-1.8h205c1,0,1.8,0.8,1.8,1.8S337.2,335.1,336.3,335.1z"/>
</g>
<g>
	<path class="st9" d="M119.6,335.1H91.8c-1,0-1.8-0.8-1.8-1.8s0.8-1.8,1.8-1.8h27.8c1,0,1.8,0.8,1.8,1.8S120.6,335.1,119.6,335.1z"
		/>
</g>
<g>
	<path class="st1" d="M76,335.1H58.2c-1,0-1.8-0.8-1.8-1.8s0.8-1.8,1.8-1.8H76c1,0,1.8,0.8,1.8,1.8S77,335.1,76,335.1z"/>
</g>
<g>
	<path class="st11" d="M34.6,335.1H23.8c-1,0-1.8-0.8-1.8-1.8s0.8-1.8,1.8-1.8h10.8c1,0,1.8,0.8,1.8,1.8S35.6,335.1,34.6,335.1z"/>
</g>
<g>
	<path class="st9" d="M516.2,335.1h-27.8c-1,0-1.8-0.8-1.8-1.8s0.8-1.8,1.8-1.8h27.8c1,0,1.8,0.8,1.8,1.8S517.2,335.1,516.2,335.1z"
		/>
</g>
<g>
	<path class="st4" d="M469.5,335.1h-116c-1,0-1.8-0.8-1.8-1.8s0.8-1.8,1.8-1.8h116c1,0,1.8,0.8,1.8,1.8S470.5,335.1,469.5,335.1z"/>
</g>
<g>
	<path class="st1" d="M549.9,335.1H532c-1,0-1.8-0.8-1.8-1.8s0.8-1.8,1.8-1.8h17.9c1,0,1.8,0.8,1.8,1.8S550.8,335.1,549.9,335.1z"/>
</g>
<g>
	<path class="st11" d="M584.2,335.1h-10.8c-1,0-1.8-0.8-1.8-1.8s0.8-1.8,1.8-1.8h10.8c1,0,1.8,0.8,1.8,1.8S585.2,335.1,584.2,335.1z
		"/>
</g>
</svg>
