<?xml version="1.0" encoding="utf-8"?>
<!-- Generator: Adobe Illustrator 23.0.2, SVG Export Plug-In . SVG Version: 6.00 Build 0)  -->
<svg version="1.1" id="Layer_1" xmlns="http://www.w3.org/2000/svg" xmlns:xlink="http://www.w3.org/1999/xlink" x="0px" y="0px"
	 viewBox="0 0 600 400" style="enable-background:new 0 0 600 400;" xml:space="preserve">
<style type="text/css">
	.st0{fill:#F5F6F8;}
	.st1{fill:#ECEDEF;}
	.st2{fill:#E2E5EB;}
	.st3{fill:#2A3141;}
	.st4{fill:#D0D4E0;}
	.st5{fill:#9AA0AD;}
	.st6{fill:#797E84;}
	.st7{fill:#546184;}
	.st8{fill:#8791AA;}
	.st9{fill:#F5B54D;}
	.st10{fill:#21ABB0;}
	.st11{fill:#EF7E53;}
	.st12{fill:#FFFFFF;}
	.st13{fill:#FFBD03;}
</style>
<g>
	<path class="st0" d="M158.9,330.9c0,0-1,23.7,20.6,36c12.3,7,38.1,11.9,58.5,4.4c20.3-7.5,18.6-20.7,44.6-15.7s27.2,9.5,43.7,2.1
		s25.1-26.7,25.1-26.7"/>
</g>
<g>
	<path class="st1" d="M538.8,57.3h-1.1c0.1-0.5,0.2-1,0.2-1.6c0-4-3.3-7.3-7.3-7.3c-2.6,0-4.8,1.3-6.1,3.4
		c-1.2-5.3-5.9-9.2-11.5-9.2c-6.5,0-11.8,5.3-11.8,11.8c0,0.1,0,0.2,0,0.3c-0.7-0.2-1.4-0.3-2.1-0.3c-4,0-7.3,3.3-7.3,7.3
		s3.3,7.3,7.3,7.3h39.7c3.2,0,5.8-2.6,5.8-5.8C544.6,59.9,542,57.3,538.8,57.3z"/>
</g>
<g>
	<path class="st0" d="M335.7,75.8h-0.5c0.1-0.2,0.1-0.5,0.1-0.7c0-1.8-1.4-3.2-3.2-3.2c-1.1,0-2.1,0.6-2.7,1.5
		c-0.5-2.3-2.6-4.1-5.1-4.1c-2.9,0-5.2,2.3-5.2,5.2c0,0,0,0.1,0,0.1c-0.3-0.1-0.6-0.1-0.9-0.1c-1.8,0-3.2,1.4-3.2,3.2
		s1.4,3.2,3.2,3.2h17.6c1.4,0,2.6-1.2,2.6-2.6C338.3,76.9,337.2,75.8,335.7,75.8z"/>
</g>
<g>
	<path class="st2" d="M141.6,42.4c-1.7,0-3.3,0.3-4.8,0.8c-1.5-7.9-8.4-14-16.8-14c-9.5,0-17.1,7.7-17.1,17.1c0,0.7,0,1.3,0.1,1.9
		c-0.8-0.2-1.6-0.3-2.5-0.3c-6.7,0-12,5.4-12,12s5.4,12,12,12h41.1c8.2,0,14.9-6.7,14.9-14.9S149.8,42.4,141.6,42.4z"/>
</g>
<g>
	<path class="st0" d="M448.4,157.9H307.6v96.6h138.8c1.1,0,2-0.9,2-2V157.9z"/>
</g>
<g>
	<path class="st2" d="M446.4,146.8H307.6v11.2h140.8v-9.2C448.4,147.6,447.5,146.8,446.4,146.8z"/>
</g>
<g>
	<path class="st3" d="M307.6,146.8h-11c-1.1,0-2,0.9-2,2v103.8c0,1.1,0.9,2,2,2h11V146.8z"/>
</g>
<g>
	<rect x="315.5" y="166" class="st4" width="54.3" height="7"/>
</g>
<g>
	<rect x="315.5" y="179.1" class="st4" width="19.5" height="3.4"/>
</g>
<g>
	<rect x="315.5" y="188.5" class="st4" width="47.2" height="3.4"/>
</g>
<g>
	<rect x="369.8" y="166" class="st5" width="10.7" height="7"/>
</g>
<g>
	<rect x="335" y="179.1" class="st5" width="10.2" height="3.4"/>
</g>
<g>
	<rect x="362.7" y="188.5" class="st5" width="6.7" height="3.4"/>
</g>
<g>
	<rect x="380.5" y="166" class="st6" width="34.8" height="7"/>
</g>
<g>
	<rect x="345.2" y="179.1" class="st6" width="13.2" height="3.4"/>
</g>
<g>
	<rect x="369.4" y="188.5" class="st6" width="20.7" height="3.4"/>
</g>
<g>
	<rect x="315.5" y="198" class="st4" width="24.5" height="3.4"/>
</g>
<g>
	<rect x="340" y="198" class="st5" width="42.4" height="3.4"/>
</g>
<g>
	<rect x="382.4" y="198" class="st6" width="4.5" height="3.4"/>
</g>
<g>
	<rect x="315.5" y="207.4" class="st4" width="4.9" height="3.4"/>
</g>
<g>
	<rect x="315.5" y="216.9" class="st4" width="47.2" height="3.4"/>
</g>
<g>
	<rect x="320.4" y="207.4" class="st5" width="10.2" height="3.4"/>
</g>
<g>
	<rect x="362.7" y="216.9" class="st5" width="5.1" height="3.4"/>
</g>
<g>
	<rect x="330.6" y="207.4" class="st6" width="27.8" height="3.4"/>
</g>
<g>
	<rect x="367.8" y="216.9" class="st6" width="38.5" height="3.4"/>
</g>
<g>
	<rect x="315.5" y="226.3" class="st4" width="27.8" height="3.4"/>
</g>
<g>
	<rect x="343.2" y="226.3" class="st5" width="42.4" height="3.4"/>
</g>
<g>
	<rect x="385.6" y="226.3" class="st6" width="11" height="3.4"/>
</g>
<g>
	<circle class="st7" cx="301.1" cy="154.7" r="3.5"/>
</g>
<g>
	<circle class="st7" cx="301.1" cy="166" r="3.5"/>
</g>
<g>
	<circle class="st7" cx="301.1" cy="177.4" r="3.5"/>
</g>
<g>
	<circle class="st7" cx="301.1" cy="246.2" r="3.5"/>
</g>
<g>
	<path class="st3" d="M217.7,319h-35.5c-9.3,0-16.8-7.5-16.8-16.8c0-7.5-6.1-13.6-13.6-13.6h-19.9v-3.2h19.9
		c9.3,0,16.8,7.5,16.8,16.8c0,7.5,6.1,13.6,13.6,13.6h35.5V319z"/>
</g>
<g>
	<path class="st8" d="M229.9,330.9h-76.3c-0.9,0-1.6-0.7-1.6-1.6s0.7-1.6,1.6-1.6h76.3c0.9,0,1.6,0.7,1.6,1.6
		S230.8,330.9,229.9,330.9z"/>
</g>
<g>
	<path class="st4" d="M142.9,330.9h-25.4c-0.9,0-1.6-0.7-1.6-1.6s0.7-1.6,1.6-1.6h25.4c0.9,0,1.6,0.7,1.6,1.6
		S143.8,330.9,142.9,330.9z"/>
</g>
<g>
	<path class="st4" d="M103.1,330.9H86.7c-0.9,0-1.6-0.7-1.6-1.6s0.7-1.6,1.6-1.6h16.3c0.9,0,1.6,0.7,1.6,1.6
		S103.9,330.9,103.1,330.9z"/>
</g>
<g>
	<path class="st2" d="M65.1,330.9h-9.8c-0.9,0-1.6-0.7-1.6-1.6s0.7-1.6,1.6-1.6h9.8c0.9,0,1.6,0.7,1.6,1.6S66,330.9,65.1,330.9z"/>
</g>
<g>
	<rect x="371.5" y="311" class="st3" width="42.1" height="3.2"/>
</g>
<g>
	<path class="st3" d="M413.6,359.2h-5.8c-9.3,0-16.8-7.5-16.8-16.8v-28.1h-6.8V311h10v31.4c0,7.5,6.1,13.6,13.6,13.6h5.8V359.2z"/>
</g>
<g>
	<path class="st3" d="M524.5,359.2h-5.4V356h5.4c7.5,0,13.6-6.1,13.6-13.6V244c0-8-6.5-14.6-14.6-14.6h-52.6v-3.2h52.6
		c9.8,0,17.8,8,17.8,17.8v98.4C541.3,351.7,533.7,359.2,524.5,359.2z"/>
</g>
<g>
	<polygon class="st3" points="541.3,314.3 519.1,314.3 519.1,311 538.1,311 538.1,296.7 541.3,296.7 	"/>
</g>
<g>
	<path class="st1" d="M408.7,191.8H267.9v96.6h138.8c1.1,0,2-0.9,2-2V191.8z"/>
</g>
<g>
	<path class="st4" d="M406.7,180.6H267.9v11.2h140.8v-9.2C408.7,181.5,407.8,180.6,406.7,180.6z"/>
</g>
<g>
	<path class="st3" d="M267.9,180.6h-11c-1.1,0-2,0.9-2,2v103.8c0,1.1,0.9,2,2,2h11V180.6z"/>
</g>
<g>
	<rect x="275.8" y="199.9" class="st9" width="54.3" height="7"/>
</g>
<g>
	<rect x="275.8" y="212.9" class="st9" width="19.5" height="3.4"/>
</g>
<g>
	<rect x="275.8" y="222.4" class="st9" width="47.2" height="3.4"/>
</g>
<g>
	<rect x="330.1" y="199.9" class="st10" width="10.7" height="7"/>
</g>
<g>
	<rect x="295.3" y="212.9" class="st10" width="10.2" height="3.4"/>
</g>
<g>
	<rect x="323" y="222.4" class="st10" width="6.7" height="3.4"/>
</g>
<g>
	<rect x="340.8" y="199.9" class="st11" width="34.8" height="7"/>
</g>
<g>
	<rect x="305.5" y="212.9" class="st11" width="13.2" height="3.4"/>
</g>
<g>
	<rect x="329.7" y="222.4" class="st11" width="20.7" height="3.4"/>
</g>
<g>
	<rect x="275.8" y="231.8" class="st9" width="24.5" height="3.4"/>
</g>
<g>
	<rect x="300.3" y="231.8" class="st10" width="42.4" height="3.4"/>
</g>
<g>
	<rect x="342.7" y="231.8" class="st11" width="4.5" height="3.4"/>
</g>
<g>
	<rect x="275.8" y="241.3" class="st9" width="4.9" height="3.4"/>
</g>
<g>
	<rect x="275.8" y="250.7" class="st9" width="47.2" height="3.4"/>
</g>
<g>
	<rect x="280.7" y="241.3" class="st10" width="10.2" height="3.4"/>
</g>
<g>
	<rect x="323" y="250.7" class="st10" width="5.1" height="3.4"/>
</g>
<g>
	<rect x="290.9" y="241.3" class="st11" width="27.8" height="3.4"/>
</g>
<g>
	<rect x="328.1" y="250.7" class="st11" width="38.5" height="3.4"/>
</g>
<g>
	<rect x="275.8" y="260.2" class="st9" width="27.8" height="3.4"/>
</g>
<g>
	<rect x="303.6" y="260.2" class="st10" width="42.4" height="3.4"/>
</g>
<g>
	<rect x="345.9" y="260.2" class="st11" width="11" height="3.4"/>
</g>
<g>
	<circle class="st7" cx="261.4" cy="188.6" r="3.5"/>
</g>
<g>
	<circle class="st7" cx="261.4" cy="199.9" r="3.5"/>
</g>
<g>
	<circle class="st7" cx="261.4" cy="211.3" r="3.5"/>
</g>
<g>
	<circle class="st7" cx="261.4" cy="280.1" r="3.5"/>
</g>
<g>
	<path class="st11" d="M466.9,254.4h-45.3c-2.2,0-4-1.8-4-4v-45.3c0-2.2,1.8-4,4-4h45.3c2.2,0,4,1.8,4,4v45.3
		C470.9,252.6,469.1,254.4,466.9,254.4z"/>
</g>
<g>
	<path class="st3" d="M127.8,303.4H103c-2.2,0-4-1.8-4-4v-24.8c0-2.2,1.8-4,4-4h24.8c2.2,0,4,1.8,4,4v24.8
		C131.8,301.6,130.1,303.4,127.8,303.4z"/>
</g>
<g>
	<path class="st2" d="M371.5,234.3H230.7v96.6h138.8c1.1,0,2-0.9,2-2V234.3z"/>
</g>
<g>
	<path class="st4" d="M369.5,223.1H230.7v11.2h140.8v-9.2C371.5,224,370.6,223.1,369.5,223.1z"/>
</g>
<g>
	<path class="st3" d="M230.7,223.1h-11c-1.1,0-2,0.9-2,2v103.8c0,1.1,0.9,2,2,2h11V223.1z"/>
</g>
<g>
	<circle class="st11" cx="301.1" cy="261.7" r="15.3"/>
</g>
<g>
	<rect x="249.3" y="293.3" class="st10" width="27.5" height="7"/>
</g>
<g>
	<rect x="249.3" y="306.3" class="st4" width="19.5" height="3.4"/>
</g>
<g>
	<rect x="249.3" y="315.7" class="st4" width="14.8" height="3.4"/>
</g>
<g>
	<rect x="287.4" y="293.3" class="st9" width="27.5" height="7"/>
</g>
<g>
	<rect x="287.4" y="306.3" class="st4" width="10.2" height="3.4"/>
</g>
<g>
	<rect x="287.4" y="315.7" class="st4" width="14.8" height="3.4"/>
</g>
<g>
	<rect x="325.2" y="293.3" class="st3" width="27.5" height="7"/>
</g>
<g>
	<rect x="325.2" y="306.3" class="st4" width="13.2" height="3.4"/>
</g>
<g>
	<rect x="325.2" y="315.7" class="st4" width="20.7" height="3.4"/>
</g>
<g>
	<circle class="st7" cx="224.2" cy="231.1" r="3.5"/>
</g>
<g>
	<circle class="st7" cx="224.2" cy="242.4" r="3.5"/>
</g>
<g>
	<circle class="st7" cx="224.2" cy="253.7" r="3.5"/>
</g>
<g>
	<circle class="st7" cx="224.2" cy="322.6" r="3.5"/>
</g>
<g>
	<circle class="st10" cx="392.5" cy="126.8" r="25.1"/>
</g>
<g>
	<path class="st12" d="M388.4,139.7c-0.9,0-1.7-0.3-2.3-0.9l-7.9-7.9c-1.3-1.3-1.3-3.3,0-4.6c1.3-1.3,3.3-1.3,4.6,0l5.6,5.6
		l14.1-14.1c1.3-1.3,3.3-1.3,4.6,0c1.3,1.3,1.3,3.3,0,4.6l-16.4,16.4C390.1,139.4,389.3,139.7,388.4,139.7z"/>
</g>
<g>
	
		<rect x="158.1" y="90" transform="matrix(0.8259 -0.5639 0.5639 0.8259 -50.9265 114.3881)" class="st4" width="3.2" height="99.3"/>
</g>
<g>
	<rect x="206.5" y="138" transform="matrix(0.564 -0.8258 0.8258 0.564 -3.6466 272.386)" class="st4" width="99.3" height="3.2"/>
</g>
<g>
	<rect x="182.4" y="138" transform="matrix(0.2241 -0.9746 0.9746 0.2241 38.04 327.0732)" class="st4" width="84.1" height="3.2"/>
</g>
<g>
	<rect x="189.6" y="97.6" transform="matrix(0.9757 -0.2191 0.2191 0.9757 -25.9534 45.292)" class="st4" width="3.2" height="84"/>
</g>
<g>
	<g>
		<path class="st12" d="M457.2,222.9c0,7.1-12.2,15.9-12.7,16.3l-0.3,0.2l-0.3-0.2c-0.5-0.4-12.7-9.2-12.7-16.3
			c0-4.6,3.4-6.7,6.6-6.7c2.3,0,4.6,1,6.3,2.9c1.7-1.8,4-2.9,6.3-2.9C453.8,216.1,457.2,218.2,457.2,222.9z"/>
	</g>
</g>
<g>
	<g>
		<circle class="st4" cx="107.1" cy="287" r="2.9"/>
	</g>
	<g>
		<circle class="st4" cx="115.4" cy="287" r="2.9"/>
	</g>
	<g>
		<circle class="st4" cx="123.8" cy="287" r="2.9"/>
	</g>
</g>
<g>
	<path class="st13" d="M207.9,23.2c-43,0-77.8,33.8-77.8,75.5c0,3.2,11.6,5.8,25.9,5.8c14.3,0,25.9-2.6,25.9-5.8
		c0,3.2,11.6,5.8,25.9,5.8c14.3,0,25.9-2.6,25.9-5.8c0,3.2,11.6,5.8,25.9,5.8s25.9-2.6,25.9-5.8C285.7,57,250.9,23.2,207.9,23.2z"/>
</g>
<g>
	<path class="st4" d="M517.1,328.6H415.6c-1.1,0-2-0.9-2-2v-27.9c0-1.1,0.9-2,2-2h101.5c1.1,0,2,0.9,2,2v27.9
		C519.1,327.7,518.2,328.6,517.1,328.6z"/>
</g>
<g>
	<path class="st4" d="M517.1,373.6H415.6c-1.1,0-2-0.9-2-2v-27.9c0-1.1,0.9-2,2-2h101.5c1.1,0,2,0.9,2,2v27.9
		C519.1,372.7,518.2,373.6,517.1,373.6z"/>
</g>
<g>
	<path class="st12" d="M434.3,319.4h-9.6c-1.1,0-2-0.9-2-2v-9.6c0-1.1,0.9-2,2-2h9.6c1.1,0,2,0.9,2,2v9.6
		C436.3,318.5,435.4,319.4,434.3,319.4z"/>
	<path class="st3" d="M433,321.1h-7.1c-2.7,0-4.9-2.2-4.9-4.9v-7.1c0-2.7,2.2-4.9,4.9-4.9h7.1c2.7,0,4.9,2.2,4.9,4.9v7.1
		C437.9,318.9,435.7,321.1,433,321.1z M425.9,307.5c-0.9,0-1.6,0.7-1.6,1.6v7.1c0,0.9,0.7,1.6,1.6,1.6h7.1c0.9,0,1.6-0.7,1.6-1.6
		v-7.1c0-0.9-0.7-1.6-1.6-1.6H425.9z"/>
</g>
<g>
	<path class="st12" d="M434.3,364.4h-9.6c-1.1,0-2-0.9-2-2v-9.6c0-1.1,0.9-2,2-2h9.6c1.1,0,2,0.9,2,2v9.6
		C436.3,363.5,435.4,364.4,434.3,364.4z"/>
	<path class="st3" d="M433,366h-7.1c-2.7,0-4.9-2.2-4.9-4.9v-7.1c0-2.7,2.2-4.9,4.9-4.9h7.1c2.7,0,4.9,2.2,4.9,4.9v7.1
		C437.9,363.8,435.7,366,433,366z M425.9,352.5c-0.9,0-1.6,0.7-1.6,1.6v7.1c0,0.9,0.7,1.6,1.6,1.6h7.1c0.9,0,1.6-0.7,1.6-1.6v-7.1
		c0-0.9-0.7-1.6-1.6-1.6H425.9z"/>
</g>
<g>
	<path class="st8" d="M496.4,319.4h-51.9c-0.6,0-1-0.4-1-1v-11.6c0-0.6,0.4-1,1-1h51.9c0.6,0,1,0.4,1,1v11.6
		C497.4,319,496.9,319.4,496.4,319.4z"/>
	<path class="st8" d="M495.8,321.1h-50.7c-1.8,0-3.2-1.5-3.2-3.2v-10.3c0-1.8,1.5-3.2,3.2-3.2h50.7c1.8,0,3.2,1.5,3.2,3.2v10.3
		C499,319.6,497.5,321.1,495.8,321.1z M445.1,307.5v10.3h50.7l0-10.3H445.1z"/>
</g>
<g>
	<path class="st8" d="M483,364.4h-38.6c-0.6,0-1-0.4-1-1v-11.6c0-0.6,0.4-1,1-1H483c0.6,0,1,0.4,1,1v11.6
		C484,364,483.6,364.4,483,364.4z"/>
	<path class="st8" d="M482.4,366h-37.3c-1.8,0-3.2-1.5-3.2-3.2v-10.3c0-1.8,1.5-3.2,3.2-3.2h37.3c1.8,0,3.2,1.5,3.2,3.2v10.3
		C485.6,364.6,484.2,366,482.4,366z M445.1,352.5v10.3h37.3l0-10.3H445.1z"/>
</g>
<g>
	<path class="st3" d="M222.7,215.7h-29.6c-1.6,0-2.9-1.2-3.2-2.7l-5.4-33.5c-0.3-2,1.2-3.8,3.2-3.8h40.4c2,0,3.5,1.8,3.2,3.8
		l-5.4,33.5C225.7,214.6,224.3,215.7,222.7,215.7z"/>
</g>
</svg>
