<?xml version="1.0" encoding="utf-8"?>
<!-- Generator: Adobe Illustrator 23.0.2, SVG Export Plug-In . SVG Version: 6.00 Build 0)  -->
<svg version="1.1" id="Layer_1" xmlns="http://www.w3.org/2000/svg" xmlns:xlink="http://www.w3.org/1999/xlink" x="0px" y="0px"
	 viewBox="0 0 600 400" style="enable-background:new 0 0 600 400;" xml:space="preserve">
<style type="text/css">
	.st0{fill:#EFF2F4;}
	.st1{fill:#ECEDEF;}
	.st2{fill:#D0D4E0;}
	.st3{fill:#E2E5EB;}
	.st4{fill:#F5F6F8;}
	.st5{fill:#2A3141;}
	.st6{fill:#546184;}
	.st7{fill:#7F8DAD;}
	.st8{fill:#9AA0AD;}
	.st9{fill:#F5B54D;}
	.st10{fill:#F2CB97;}
	.st11{fill:#EF7E53;}
	.st12{fill:#004393;}
	.st13{fill:#F1DAD5;}
	.st14{fill:#C17A44;}
	.st15{fill:#0F1C3A;}
	.st16{fill:#171B23;}
	.st17{fill:#FFFFFF;}
</style>
<g>
	<g>
		<ellipse class="st0" cx="273.8" cy="360.3" rx="30.8" ry="6.7"/>
	</g>
	<g>
		<ellipse class="st0" cx="200.2" cy="350.8" rx="33.5" ry="6.7"/>
	</g>
	<g>
		<ellipse class="st0" cx="440.2" cy="360.3" rx="39.1" ry="6.7"/>
	</g>
	<g>
		<path class="st1" d="M47.5,290.1l80.7-75.9c0.6-0.5,1.4-0.6,2.1-0.2l120,76c1.4,0.9,0.8,3.1-0.9,3.1L48.6,293
			C47.1,293,46.4,291.2,47.5,290.1z"/>
	</g>
	<g>
		<path class="st1" d="M358,289.8l133.7-60.9c0.6-0.3,1.4-0.2,1.9,0.3l65.1,61c1.1,1,0.4,2.9-1.2,2.9L358.7,293
			C356.9,293,356.4,290.5,358,289.8z"/>
	</g>
	<g>
		<path class="st2" d="M294.1,289.9L429.3,213c0.6-0.3,1.3-0.3,1.9,0.1l97.8,77c1.3,1,0.6,3-1,3L295,293
			C293.2,293,292.6,290.7,294.1,289.9z"/>
	</g>
	<g>
		<path class="st2" d="M84.6,290.3l81.5-102.8c0.6-0.7,1.7-0.9,2.4-0.2l121.2,102.9c1.2,1,0.5,3-1.1,3L86,293
			C84.6,293,83.8,291.4,84.6,290.3z"/>
	</g>
	<g>
		<path class="st3" d="M122.5,92.6c-1.8,0-3.4,0.3-5,0.8c-1.5-8.3-8.8-14.5-17.5-14.5c-9.8,0-17.8,8-17.8,17.8c0,0.7,0,1.4,0.1,2
			c-0.8-0.2-1.7-0.3-2.6-0.3c-6.9,0-12.5,5.6-12.5,12.5s5.6,12.5,12.5,12.5h42.8c8.6,0,15.5-6.9,15.5-15.5S131,92.6,122.5,92.6z"/>
	</g>
	<g>
		<path class="st1" d="M445.8,82.1h-2.2c0.2-1,0.4-2.1,0.4-3.2c0-8.1-6.6-14.6-14.6-14.6c-5.2,0-9.7,2.7-12.3,6.8
			c-2.4-10.6-11.8-18.5-23.1-18.5c-13.1,0-23.7,10.6-23.7,23.7c0,0.2,0,0.4,0,0.6c-1.3-0.4-2.7-0.6-4.2-0.6
			c-8.1,0-14.6,6.6-14.6,14.6s6.6,14.6,14.6,14.6h79.8c6.5,0,11.7-5.3,11.7-11.7C457.5,87.4,452.3,82.1,445.8,82.1z"/>
	</g>
	<g>
		<path class="st4" d="M532.9,148.4c-1.8,0-3.5,0.4-5,1.1c0.4-1.3,0.7-2.7,0.7-4.1c0-7.4-6-13.4-13.4-13.4
			c-6.9,0-12.5,5.2-13.3,11.8c-2-1-4.2-1.6-6.5-1.6c-8,0-14.5,6.5-14.5,14.5s6.5,14.5,14.5,14.5h37.5c6.3,0,11.4-5.1,11.4-11.4
			C544.3,153.5,539.2,148.4,532.9,148.4z"/>
	</g>
	<g>
		<path class="st4" d="M395,293.1H163.8c-1.7,0-3-1.3-3-3V145.8c0-1.7,1.3-3,3-3H395c1.7,0,3,1.3,3,3v144.3
			C398,291.7,396.7,293.1,395,293.1z"/>
	</g>
	<g>
		<path class="st3" d="M397.8,163.8h-237v-18c0-1.7,1.3-3,3-3h231c1.7,0,3,1.3,3,3V163.8z"/>
	</g>
	<g>
		<path class="st5" d="M176.7,293h-12.9c-1.7,0-3-1.3-3-3V145.8c0-1.7,1.3-3,3-3h12.9V293z"/>
	</g>
	<g>
		<path class="st1" d="M395,293.1h-43.2V163.8H398v126.3C398,291.7,396.7,293.1,395,293.1z"/>
	</g>
	<g>
		<circle class="st6" cx="168.6" cy="156.8" r="4.6"/>
	</g>
	<g>
		<circle class="st6" cx="168.6" cy="173.1" r="4.6"/>
	</g>
	<g>
		<circle class="st6" cx="168.6" cy="190.7" r="4.6"/>
	</g>
	<g>
		<circle class="st6" cx="168.6" cy="285.6" r="4.6"/>
	</g>
	<g>
		<circle class="st2" cx="189" cy="154" r="4.8"/>
	</g>
	<g>
		<rect x="199" y="150.5" class="st2" width="25.3" height="6.3"/>
	</g>
	<g>
		<rect x="187.9" y="174.6" class="st6" width="65.8" height="9.5"/>
	</g>
	<g>
		<rect x="187.9" y="191.7" class="st5" width="134.6" height="9.5"/>
	</g>
	<g>
		<rect x="187.9" y="208.8" class="st7" width="107.5" height="9.5"/>
	</g>
	<g>
		<rect x="358" y="170.4" class="st8" width="23" height="4.9"/>
	</g>
	<g>
		<rect x="358" y="182.5" class="st8" width="21" height="4.9"/>
	</g>
	<g>
		<rect x="358" y="206.1" class="st8" width="17.4" height="4.9"/>
	</g>
	<g>
		<rect x="358" y="194.7" class="st8" width="32.1" height="4.9"/>
	</g>
	<g>
		<circle class="st9" cx="276.6" cy="330.9" r="27.5"/>
	</g>
	<g>
		<path class="st10" d="M264.2,355.4l-1.6-0.6c0-0.1,3.1-8.4,2.7-22c-0.4-13.4-8.1-21.3-8.1-21.4l1.2-1.2c0.3,0.3,8.3,8.4,8.6,22.5
			C267.4,346.7,264.3,355,264.2,355.4z"/>
	</g>
	<g>
		<path class="st10" d="M266.5,335l-0.7-1.5c0.4-0.2,8.9-4.3,17.9-5.6c8.9-1.3,17.1-1.9,17.2-1.9l0.1,1.7c-0.1,0-8.3,0.6-17,1.9
			C275.2,330.8,266.6,335,266.5,335z"/>
	</g>
	<g>
		<path class="st10" d="M302.3,338.1c-1.3-12.4-7.7-26.7-7.7-26.9l1.5-0.7c0.1,0.1,6.6,14.7,7.9,27.4L302.3,338.1z"/>
	</g>
	<g>
		<path class="st11" d="M144.3,284.3H80.7c-0.6,0-1-0.4-1-1v-5c0-0.6,0.4-1,1-1h63.6c0.6,0,1,0.4,1,1v5
			C145.3,283.8,144.9,284.3,144.3,284.3z"/>
	</g>
	<g>
		<path class="st11" d="M84.5,315.8h-1.8c-1.2,0-2-1.2-1.6-2.3l11-29.2h5.4l-11.4,30.4C85.9,315.3,85.2,315.8,84.5,315.8z"/>
	</g>
	<g>
		<path class="st11" d="M140.5,315.8h1.8c1.2,0,2-1.2,1.6-2.3l-11-29.2h-5.4l11.4,30.4C139.2,315.3,139.8,315.8,140.5,315.8z"/>
	</g>
	<g>
		<path class="st6" d="M124,277.3H98.4l0,0c-2-2.4-2-5.9,0-8.3l0,0H124l0,0C122.1,271.4,122.1,274.9,124,277.3L124,277.3z"/>
	</g>
	<g>
		<path class="st1" d="M124.1,276.1H99.8l0,0c-1.9-1.7-1.9-4.2,0-5.9l0,0h24.3l0,0C122.2,271.9,122.2,274.4,124.1,276.1L124.1,276.1
			z"/>
	</g>
	<g>
		<path class="st12" d="M122.1,269h-21.7l0,0c-1.9-1.9-1.9-5,0-7l0,0h21.7l0,0C120.2,263.9,120.2,267,122.1,269L122.1,269z"/>
	</g>
	<g>
		<path class="st1" d="M122.1,267.9h-20.2l0,0c-1.8-1.3-1.8-3.5,0-4.8l0,0h20.2l0,0C120.3,264.4,120.3,266.5,122.1,267.9
			L122.1,267.9z"/>
	</g>
	<g>
		<path class="st5" d="M118.3,262h-17.6l0,0c-1.9-1.9-1.9-5,0-7l0,0h17.6l0,0C116.4,257,116.4,260,118.3,262L118.3,262z"/>
	</g>
	<g>
		<path class="st1" d="M118.1,260.8H102l0,0c-1.7-1.3-1.7-3.3,0-4.5l0,0h16.1l0,0C116.4,257.5,116.4,259.5,118.1,260.8L118.1,260.8z
			"/>
	</g>
	<g>
		<path class="st13" d="M454.3,300c-0.5,1.1-0.1,2.4,0.4,3.5c0.2,0.5,0.5,1,0.9,1.3c0.2,0.2,0.5,0.3,0.8,0.4
			c0.6,0.2,1.2,0.2,1.8,0.1c1.1-0.3,1.9-1.6,1.8-2.8c0-1.2-0.8-2.3-1.7-3c-0.6-0.4-1.2-0.7-1.9-0.7c-0.7,0-1.4,0.2-1.9,0.8
			c-0.4,0.5-0.5,1.2-0.5,1.9"/>
	</g>
	<g>
		<path class="st14" d="M303.5,142l-18.1,29.1c-0.3,0.5-0.2,1.1,0.3,1.4l1.2,0.7c0.5,0.3,1.1,0.2,1.4-0.3l18.1-29.1
			c0.3-0.5,0.2-1.1-0.3-1.4l-1.2-0.7C304.4,141.4,303.8,141.6,303.5,142z"/>
	</g>
	<g>
		<path class="st11" d="M202.3,285.6c-0.3-1.8-2.4-6.7-2-13.2c0.4-6.6,4-12.4,4-12.4s2.7-2.3,5.8-1c3.1,1.4,3.7,4.5,6.9,4.6
			c0,0,8.1-0.8,10.6-4.7c2.5-3.9,6.3-13.5,6.4-17.1s1.5-4.3,3.5-3.6s3.6,1.1,3.5,4.2c-0.1,3.1-0.1,9.1-2.6,15.9
			c-2.5,6.8-9.1,14.9-9.1,14.9s-0.8,0.8-0.8,3.6c0,2.8,1.1,10.5,0.3,16c-0.8,5.6-3.6,7.8-6.1,7.4s-15.1-1.8-16.1-1.4
			C205.5,299.1,201,292.6,202.3,285.6z"/>
	</g>
	<g>
		<path class="st13" d="M221.6,239.5c0,0-1,5.8,0,9.2s2.6,4.4,1.9,7.8c-0.7,3.3-1.7,6.2-3.4,6.5c0,0-1,2.1-6.4,0s-5.7-22.2-0.4-23.5
			C218.5,238.3,220.9,237.2,221.6,239.5"/>
	</g>
	<g>
		<path class="st13" d="M208.5,335.1c-0.8,2.3-2,4.1-3.5,5.1c-0.3,0.2-1.5,1.3-1.9,1.3c-0.8,0-1.9-0.2-2.6-0.6c-0.9-0.5-0.1-1-1-1.6
			c1.6-1.3,2.9-3.1,3.5-5L208.5,335.1z"/>
	</g>
	<g>
		<path class="st13" d="M222.9,333.9c-0.2,1.6-0.9,1.3-1,2.8c-0.1,0.8-0.4,2.3-0.5,2.9c-0.1,0.5-1,4.1-1.5,4.1c-1.4,0-2.7,0-3.2-0.2
			c-0.3-0.2-0.3-0.6-0.3-1c0-2.1,0.4-4.9,0.2-7.3L222.9,333.9z"/>
	</g>
	<g>
		<path class="st15" d="M199.9,339.1c-0.9,0.2-2.1,0.7-2.5,1.6c-0.5,1.1,0.2,2.4,1,3.3c2.5,2.9,6.2,4.6,9.9,4.8c0.5,0,1,0,1.4-0.4
			c0.3-0.3,0.4-0.9,0.4-1.3c0-0.9,0.1-1.8,0.1-2.7c0-0.3,0-0.6-0.1-0.9c-0.4-0.8-1.6-0.8-2.5-0.8
			C204.7,342.8,202.2,340.9,199.9,339.1z"/>
	</g>
	<g>
		<path class="st15" d="M216.7,343.2c-0.6,0.1-1.2,0.5-1.4,1c-0.3,0.5-0.2,1.2,0.1,1.7s0.9,0.8,1.5,1.1c1.5,0.7,2.9,1.4,4.5,1.8
			c2.1,0.6,4.2,0.7,6.4,0.7c0.8,0,1.6,0,2.4-0.3c0.8-0.3,1.4-1,1.4-1.8c0-0.5-0.3-1-0.7-1.4s-0.9-0.6-1.3-0.8
			c-1.2-0.5-2.5-0.7-3.8-1.1c-1-0.4-2-0.9-3.1-1.2C220.3,342.3,220.1,343.5,216.7,343.2"/>
	</g>
	<g>
		<path class="st5" d="M429,318.8c-3.6,11.1-7.2,22.6-6,34.2c2.4,1.2,5,1.8,7.7,2c-0.1-7.1,1.1-14.5,5.4-20.1
			c0.7-0.9,1.6-1.8,2.7-1.4c0.5,0.2,0.9,0.6,1.3,1c4.8,5.2,11.8,8.2,18.8,8.2c0.4,0,0.9,0,1.2-0.3c0.4-0.3,0.4-0.9,0.4-1.4
			c0-2,0-3.9,0.1-5.9c0-0.3,0-0.5-0.1-0.8c-0.2-0.3-0.6-0.4-1-0.5c-5.7-1.2-9.9-7.1-9.4-12.9c0.1-1.2,0.4-2.5-0.1-3.7
			c-0.7-1.6-2.7-2.1-4.4-2.3c-6-0.6-12.1,0.6-17.4,3.4"/>
	</g>
	<g>
		<path class="st11" d="M455,299.1c-0.9-0.6-2-0.7-3-1c-4.3-1.1-7.3-5.1-8.6-9.4c-0.5-1.7-0.9-3.5-2.2-4.7c-1.1-1.1-2.7-1.4-4.3-1.6
			c-4-0.5-8.2-0.3-12.2,0.7c-1.4,0.3-2.8,0.8-4.3,0.8c-4.7,0.2-8.6-3.5-12.8-5.7c-1-0.6-2.1-1-3.3-1c-1.2,0-2-0.3-3.3,1.3
			c-1.3,1.6-1.4,3.5-0.8,5.2s1.9,3.1,3.2,4.3c3,2.6,6.5,4.7,10.3,6c1.8,0.6,3.9,1.2,4.9,2.8c0.6,1,0.8,2.2,0.9,3.4
			c0.9,6.4,3.4,12.6,7.3,17.8c0,0,0.8,1.1,2.8,1s10.3-1.6,14-0.7c3.7,0.8,6.4,1.4,6.4,1.4c1.5-0.8,2.3-2.8,1.7-4.5
			c-0.3-1-1.1-1.9-1.9-2.7c-1.8-1.9-3.5-5-4.3-7.7c2.7,1,5.5,0.4,8.4,0.4c0.5,0,1.1,0,1.4-0.4c0.3-0.3,0.4-0.7,0.4-1
			C456.5,301.7,456.7,300.4,455,299.1z"/>
	</g>
	<g>
		<path class="st13" d="M440.1,282.8c-1,2.6-3.1,4.7-5.9,4.8c-1.2,0-2.5-0.3-3.5-0.9c-1.5-1-2.3-2.7-2.7-4.4
			c-0.3-1.7-0.3-3.5,0.3-5.2c1-3.1,3.3-5.9,2.9-9c0,0,7.1-3.6,8.9-0.3C441.9,271.1,440.9,280.8,440.1,282.8z"/>
	</g>
	<g>
		<path class="st15" d="M460.3,341.3c-0.2,2.5,0.5,5,2,7c0.9,1.2,2.1,2.3,3.6,2.5c0.3,0,0.6,0,0.9-0.1c0.4-0.2,0.6-0.5,0.9-0.8
			c1.4-2.2,1.7-5,0.8-7.5c-0.5-1.3-1.4-2.4-1.5-3.8s0.6-2.9-0.1-4.1c-0.6-1.2-2.3-1.5-3.7-1.5c-0.4,0-0.9,0-1.3,0.3
			c-0.4,0.2-0.6,0.7-0.8,1.1c-1.7,3.7-1.3,7.9-0.9,11.9"/>
	</g>
	<g>
		<path class="st15" d="M422.9,352.6c-0.9-0.2-1.8,0.1-2.6,0.4c-1.3,0.5-2.5,1.1-3.4,2.2c-0.8,1.1-1.2,2.6-0.6,3.8
			c0.7,1.4,2.3,2,3.8,2.3c3.3,0.6,6.8,0.2,9.8-1.3c0.8-0.4,1.6-0.9,2.1-1.6c0.5-0.8,0.7-1.8,0.3-2.6c-0.4-0.8-1.6-1.3-2.4-0.8"/>
	</g>
	<g>
		<path class="st13" d="M234.9,238.3c0,0-2.6-2.3-1.6-6.5s1.3-4,3.1-5.9c1.8-1.8,2.8-4.2,2.8-4.2s0.6-0.8,1.7,0s-0.1,2.5-1,4.7
			c-0.8,2.2-1.4,3.8-0.3,4.5c1.1,0.7,4,1.5,3.3,4.7s-1.4,3.4-2.8,3.8S234.9,238.3,234.9,238.3z"/>
	</g>
	<g>
		<path class="st6" d="M355.8,129.8l-1.7-5.1c0,0,0-0.4-0.1-1c0.5,0.2,1,0.5,1.3,0.8c1.3,1.3,4.8,4.6,4.8,4.6l4.2-3.8
			c0,0-2.9-1.3-4.1-2.4c-1.1-1.1-0.8-2.1-2.1-3.9c-1.3-1.8-2.4-2.5-4-3.2s-4.3-0.7-8-0.7s-15.8,2.5-18.5,3.6s-4.1,3-5.9,4.9
			c-1.8,2-5.7,3.1-8.7,4.7c-3.1,1.7-5.9,6.7-5.9,6.7s2.3,1.1,3.2,2.4c0.8,1.3,1.5,3.6,1.5,3.6s7.5-3.1,9.4-5.3s4.6-4.5,6.6-4.4
			s4.6,0.5,5.5,1.5c0.8,1,2.2,2.9,3.4,3.8c1.2,0.9,1.4,1.8,1.4,1.8s3.2-0.7,5.9-0.5c2.8,0.3,8.3-1.1,11.2-0.3
			c2.9,0.8,5.4,2.4,6.1,2.4s1.6-2.4,0.3-3.8C360.4,135.1,356.8,132.8,355.8,129.8z"/>
	</g>
	<g>
		<path class="st11" d="M338.6,148.3c0,0-3,3.3-2.1,6.9c1,3.9-1.9,11.8-1.9,11.8s-6.8-1.1-6.5-1.5s0.4-1.7,0.6-2.8
			c0.2-1,0.2-3.6-0.4-5.9c-0.6-2.3-0.7-6.3-1.4-9.9s1.6-5.1,3-6.7c1.4-1.6,8.4-1.5,8.4-1.5s0-1.8,7.1-2.2s12.5-0.1,14.1,1.1
			c1.6,1.2,2.1,1.9,2,2.8c-0.1,1.5-1.8,4.9-3.6,5.5s-7.2,0.5-8.1,2.6c-0.8,2.1,0.8,7.8,1.5,9.2s-1.2,3-1.2,3s-1.6,0.7-2.8,1.3
			c-1.2,0.6-2.1-1.3-2.9-2.3c-0.7-1-1-3.2-2.6-5.9c-1.6-2.8-2.4-3.6-3.8-6.8s5.9-6.1,5.9-6.1"/>
	</g>
	<g>
		<path class="st13" d="M306.8,135.3c-0.9,0.4-2.4,2-3.5,3.6c-0.7,1-1.2,2.2-1.8,3.3c-0.7,1.6-1.5,3.2-2.2,4.9
			c-0.1,0.2-0.2,0.5-0.1,0.7c0.1,0.1,0.2,0.2,0.4,0.2c1.6,0.3,3-0.9,3.9-2.2c0.2-0.3,0.4-0.6,0.7-0.7c0.4-0.1,0.8,0,1.1,0.1
			c0.9,0.3,1.8,0.7,2.8,0.6c0.9-0.1,1.7-0.7,2.3-1.3c1.2-1.2,1.9-2.9,1.8-4.6c-0.1-1.7-0.6-3.2-2.1-3.9
			C308.6,135,307.7,134.8,306.8,135.3z"/>
	</g>
	<g>
		<path class="st13" d="M360,128.4c0,0.7,0.8,1.3,1.5,1.5c0.7,0.3,1.5,0.3,2.2,0.3c0.6,0,1.3,0,1.8-0.4c0.4-0.3,0.7-0.9,0.7-1.4
			c0.1-1.3-0.6-2.6-1.8-3.1c-0.4-0.2-0.8-0.2-1.2-0.2c-0.4,0.1-0.7,0.3-1,0.5c-0.7,0.4-1.4,0.7-1.8,1.4
			C360.1,127.8,360,127.6,360,128.4z"/>
	</g>
	<g>
		<path class="st13" d="M335.9,109.9c0.4,2,0.9,4.1,1.2,6.1c0.1,0.6,0.2,1.1,0,1.7c-0.4,1.4-1.9,2-3.3,2.3c-3,0.7-6.1,1-9.1,0.3
			s-5.8-2.5-7.3-5.2c-0.8-1.5-1.2-3.3-2.4-4.5c0,0,0.6-2.9,5.5-4.3s8.2-1.8,10.7,0.1C333.8,108.3,335.7,108.9,335.9,109.9z"/>
	</g>
	<g>
		<path class="st15" d="M344.2,161.2c-1.3,2.2-2.4,4.8-1.7,7.2c0.2,0.7,0.6,1.4,1.2,1.7s1.3,0.3,2,0.1c2.9-0.7,5.1-3.3,6.2-6.1
			c0.6-1.6,1-3.4,0.6-5.1c-0.1-0.3-0.2-0.6-0.4-0.8c-0.4-0.3-1-0.3-1.5-0.2c-1.2,0.2-2.4,0.5-3.5,0.9
			C345.9,159.4,344.8,160.2,344.2,161.2z"/>
	</g>
	<g>
		<path class="st15" d="M333.4,165.9c-5-1.6-9.5-2.1-14.4-0.9c-0.5,0.1-1.1,0.4-1.1,0.9c0,0.2,0.1,0.5,0.2,0.7
			c0.6,1,1.7,1.7,2.8,2.3c2.5,1.4,5.1,2.6,7.8,3.4c1.3,0.4,2.6,0.7,3.9,0.7c0.5,0,0.9-0.1,1.3-0.3c0.4-0.3,0.6-0.7,0.8-1.1
			c0.5-1,0.9-2.2,0.8-3.3C335.4,167.1,335.4,166.6,333.4,165.9z"/>
	</g>
	<g>
		<path class="st16" d="M213,233.2c0,0-6.4,1.7-8.4,7s-3.8,10.6-2.4,14.9c1.4,4.3,2.4,6.8,6,7.8s7.9,2.1,8.6,0.7
			c0.7-1.4-2-10.7-1.3-16.3s6.4-7,6.8-9.1c0.4-2.1-3.3-5-6.4-5S213,233.2,213,233.2z"/>
	</g>
	<g>
		<path class="st5" d="M228,295.2c0.1,2.9-1.2,5.3-1.1,9.1c0.1,3.8,2.1,7.1,2.6,15.5c0.6,8.4-3.3,13.9-4.7,15.2
			c-1.4,1.3-7.7,1.7-12.7,1.3c-5-0.4-12.7-2.1-14.2-3.9s1.8-6.4,4.4-13.8c2.6-7.4,2-7.5,2-12.1s3.3-7.7,3.3-7.7
			S220.7,294.6,228,295.2z"/>
	</g>
	<g>
		<path class="st14" d="M399.5,274.9l-29.1-18.1c-0.5-0.3-1.1-0.2-1.4,0.3l-0.7,1.2c-0.3,0.5-0.2,1.1,0.3,1.4l29.1,18.1
			c0.5,0.3,1.1,0.2,1.4-0.3l0.7-1.2C400.1,275.8,400,275.2,399.5,274.9z"/>
	</g>
	<g>
		<path class="st16" d="M429.5,265.9c1.5,3.2,6.4,3.3,8.6,6.2c2.2,3,0.4,7.6,2.2,10.9c0.2,0.3,0.4,0.6,0.7,0.6c0.2,0,0.4,0,0.6-0.1
			c1.4-0.7,2.1-2.2,2.6-3.6c1-3.1,1.3-6.3,0.7-9.5c-0.2-1.5-0.7-3-1.7-4.1c-0.9-1-2.2-1.5-3.5-1.8c-3.1-0.8-5.7-1.2-8.8-0.3
			c-0.3,0.1-1.2,0.3-1.4,0.5C429.3,264.9,429.2,265.7,429.5,265.9z"/>
	</g>
	<g>
		<path class="st13" d="M396.2,275.1c-0.2,0.4-0.2,1.1-0.3,1.4c-0.2,1,0,2,0.4,2.9s1,1.8,1.9,2.3s2,0.7,2.9,0.2s1.5-1.5,1.8-2.5
			c0.6-1.5,0.9-3.4,0-4.7c-0.7-1-2-1.5-3.3-1.5c-0.7,0-1.4,0.1-2,0.4S396.4,274.6,396.2,275.1z"/>
	</g>
	<g>
		<path class="st16" d="M313.9,111.8c0.3,0.7,2.3,0.6,4.1-0.1c2.2-0.8,4.3-2.6,6.6-2.2c2,0.3,3.3,2.2,5.2,2.9
			c1.1,0.4,2.4,0.4,3.6,0.3c1.1-0.1,2.2-0.4,3-1.2c1.1-1.1,1-3,0.8-4.5c-0.3-2-1-4.1-2.3-5.6c-1.6-1.8-4.1-2.7-6.6-2.6
			c-2.4,0.1-4.8,1-6.9,2.2c-1.7,1-3.4,2.4-4.3,4.2c-0.7,1.3-0.9,2.8-1.6,4.2C314.9,110.6,313.6,111.1,313.9,111.8z"/>
	</g>
	<g>
		<path class="st11" d="M349.6,239.5H297c-2.8,0-5.1,2.3-5.1,5.1v14.3l-18.1,17.2l18.1-7.6v4.3c0,2.8,2.3,5.1,5.1,5.1h52.6
			c2.8,0,5.1-2.3,5.1-5.1v-28.2C354.6,241.7,352.4,239.5,349.6,239.5z"/>
	</g>
	<g>
		<path class="st5" d="M451.5,125.3h-69.4c-2.8,0-5.1,2.3-5.1,5.1v45.3c0,2.8,2.3,5.1,5.1,5.1h38.7l-9.9,23.6l21.9-23.6h18.7
			c2.8,0,5.1-2.3,5.1-5.1v-45.3C456.6,127.6,454.3,125.3,451.5,125.3z"/>
	</g>
	<g>
		<path class="st6" d="M202.3,138.6l-9.9-13.5v-12c0-2.8-2.3-5.1-5.1-5.1h-33c-2.8,0-5.1,2.3-5.1,5.1v27.2c0,2.8,2.3,5.1,5.1,5.1h33
			c2.8,0,5.1-2.3,5.1-5.1v-6.7L202.3,138.6z"/>
	</g>
	<g>
		<polygon class="st17" points="170.5,134.3 162.8,138.4 164.3,129.8 158.1,123.7 166.7,122.5 170.5,114.7 174.4,122.5 183,123.7 
			176.8,129.8 178.2,138.4 		"/>
	</g>
	<g>
		<path class="st17" d="M328.2,249.9c-2.4,0-4.4,1.9-4.4,4.3c0-2.4-2-4.4-4.4-4.3c-2.4,0-4.2,2.1-4.2,4.5l0,0c0,4,1.9,7.8,5,10.2
			l3.6,2.7l3.6-2.7c3.2-2.4,5-6.2,5-10.2l0,0C332.4,252,330.5,250,328.2,249.9z"/>
	</g>
	<g>
		<rect x="384.7" y="134.2" class="st6" width="64.2" height="4.8"/>
	</g>
	<g>
		<rect x="384.7" y="144.8" class="st6" width="31" height="4.8"/>
	</g>
	<g>
		<rect x="384.7" y="155.1" class="st6" width="55.5" height="4.8"/>
	</g>
</g>
</svg>
