<?xml version="1.0" encoding="utf-8"?>
<!-- Generator: Adobe Illustrator 23.0.2, SVG Export Plug-In . SVG Version: 6.00 Build 0)  -->
<svg version="1.1" id="Layer_1" xmlns="http://www.w3.org/2000/svg" xmlns:xlink="http://www.w3.org/1999/xlink" x="0px" y="0px"
	 viewBox="0 0 600 400" style="enable-background:new 0 0 600 400;" xml:space="preserve">
<style type="text/css">
	.st0{fill:url(#SVGID_1_);}
	.st1{fill:url(#SVGID_2_);}
	.st2{fill:url(#SVGID_3_);}
</style>
<linearGradient id="SVGID_1_" gradientUnits="userSpaceOnUse" x1="52.5345" y1="223.692" x2="200.4975" y2="223.692">
	<stop  offset="0" style="stop-color:#1C212B"/>
	<stop  offset="1" style="stop-color:#2A3141"/>
</linearGradient>
<path class="st0" d="M196.5,297.7h-140c-2.2,0-4-1.8-4-4v-140c0-2.2,1.8-4,4-4h140c2.2,0,4,1.8,4,4v140
	C200.5,295.9,198.7,297.7,196.5,297.7z"/>
<linearGradient id="SVGID_2_" gradientUnits="userSpaceOnUse" x1="166.1489" y1="302.2973" x2="314.1119" y2="302.2973">
	<stop  offset="0" style="stop-color:#F5F6F8"/>
	<stop  offset="1" style="stop-color:#F5F6F8"/>
</linearGradient>
<path class="st1" d="M310.1,376.3h-140c-2.2,0-4-1.8-4-4v-140c0-2.2,1.8-4,4-4h140c2.2,0,4,1.8,4,4v140
	C314.1,374.5,312.3,376.3,310.1,376.3z"/>
<image style="overflow:visible;" width="2880" height="2568" xlink:href="../../../../Creative Cloud Files/18012019_Embold/(Screenshot)/mygamma-overall.png"  transform="matrix(0.1042 0 0 0.1042 266.497 88.2869)">
</image>
<linearGradient id="SVGID_3_" gradientUnits="userSpaceOnUse" x1="225.8185" y1="82.7273" x2="329.1945" y2="82.7273">
	<stop  offset="0" style="stop-color:#EF7E53"/>
	<stop  offset="1" style="stop-color:#EF4431"/>
</linearGradient>
<path class="st2" d="M325.2,134.4h-95.4c-2.2,0-4-1.8-4-4V35c0-2.2,1.8-4,4-4h95.4c2.2,0,4,1.8,4,4v95.4
	C329.2,132.6,327.4,134.4,325.2,134.4z"/>
</svg>
