<?xml version="1.0" encoding="utf-8"?>
<!-- Generator: Adobe Illustrator 23.0.2, SVG Export Plug-In . SVG Version: 6.00 Build 0)  -->
<svg version="1.1" id="Layer_1" xmlns="http://www.w3.org/2000/svg" xmlns:xlink="http://www.w3.org/1999/xlink" x="0px" y="0px"
	 viewBox="0 0 600 400" style="enable-background:new 0 0 600 400;" xml:space="preserve">
<style type="text/css">
	.st0{fill:#D0D4E0;}
	.st1{fill:#546184;}
	.st2{fill:#2A3141;}
	.st3{fill:#8791AA;}
	.st4{fill:#EF7E53;}
	.st5{fill:#F5F6F8;}
	.st6{fill:#E2E5EB;}
	.st7{fill:#ECEDEF;}
	.st8{fill:#F5B54D;}
	.st9{fill:#21ABB0;}
</style>
<g>
	<circle class="st0" cx="200.5" cy="311.8" r="6.2"/>
</g>
<g>
	<circle class="st0" cx="318.9" cy="294" r="11.1"/>
</g>
<g>
	<circle class="st0" cx="341.1" cy="311.8" r="5.7"/>
</g>
<g>
	<path class="st1" d="M318.9,331c-0.4,0-0.8-0.4-0.8-0.8v-31.4c0-0.4,0.4-0.8,0.8-0.8c0.4,0,0.8,0.4,0.8,0.8v31.4
		C319.7,330.7,319.4,331,318.9,331z"/>
</g>
<g>
	<path class="st0" d="M341.1,331c-0.4,0-0.8-0.4-0.8-0.8v-18.4c0-0.4,0.4-0.8,0.8-0.8c0.4,0,0.8,0.4,0.8,0.8v18.4
		C341.9,330.7,341.6,331,341.1,331z"/>
</g>
<g>
	<path class="st0" d="M200.5,331c-0.4,0-0.8-0.4-0.8-0.8v-18.4c0-0.4,0.4-0.8,0.8-0.8c0.4,0,0.8,0.4,0.8,0.8v18.4
		C201.2,330.7,200.9,331,200.5,331z"/>
</g>
<g>
	<path class="st0" d="M463.4,137.4h70.4c0.6,0,1,0.4,1,1v79h-72.4v-79C462.4,137.9,462.8,137.4,463.4,137.4z"/>
</g>
<g>
	<rect x="500.6" y="185.3" class="st2" width="26.6" height="4.5"/>
</g>
<g>
	<rect x="503.1" y="189.8" class="st1" width="21.5" height="27.6"/>
</g>
<g>
	<path class="st3" d="M469.8,144.7h57.5c0.6,0,1,0.4,1,1v8.4c0,0.6-0.4,1-1,1h-57.5c-0.6,0-1-0.4-1-1v-8.4
		C468.8,145.1,469.2,144.7,469.8,144.7z"/>
</g>
<g>
	<path class="st3" d="M469.8,164.4h57.5c0.6,0,1,0.4,1,1v3.8c0,0.6-0.4,1-1,1h-57.5c-0.6,0-1-0.4-1-1v-3.8
		C468.8,164.9,469.2,164.4,469.8,164.4z"/>
</g>
<g>
	<path class="st3" d="M469.8,174.6h57.5c0.6,0,1,0.4,1,1v3.8c0,0.6-0.4,1-1,1h-57.5c-0.6,0-1-0.4-1-1v-3.8
		C468.8,175,469.2,174.6,469.8,174.6z"/>
</g>
<g>
	<path class="st4" d="M433.6,165.8H487c0.6,0,1,0.4,1,1v50.6h-55.4v-50.6C432.6,166.2,433,165.8,433.6,165.8z"/>
</g>
<g>
	<path class="st5" d="M437.9,171.4h18.9c0.6,0,1,0.4,1,1v10.3c0,0.6-0.4,1-1,1h-18.9c-0.6,0-1-0.4-1-1v-10.3
		C436.9,171.9,437.4,171.4,437.9,171.4z"/>
</g>
<g>
	<path class="st5" d="M437.9,188.3h18.9c0.6,0,1,0.4,1,1v10.3c0,0.6-0.4,1-1,1h-18.9c-0.6,0-1-0.4-1-1v-10.3
		C436.9,188.7,437.4,188.3,437.9,188.3z"/>
</g>
<g>
	<path class="st5" d="M463.7,171.4h18.9c0.6,0,1,0.4,1,1v10.3c0,0.6-0.4,1-1,1h-18.9c-0.6,0-1-0.4-1-1v-10.3
		C462.7,171.9,463.1,171.4,463.7,171.4z"/>
</g>
<g>
	<path class="st1" d="M476,196h-8c-0.6,0-1,0.4-1,1v20.4h10V197C477,196.4,476.5,196,476,196z"/>
</g>
<g>
	<path class="st3" d="M394.3,98h37.2c0.6,0,1,0.4,1,1v118.4h-39.2V99C393.3,98.5,393.8,98,394.3,98z"/>
</g>
<g>
	<rect x="393.3" y="105.8" class="st1" width="29.5" height="6.9"/>
</g>
<g>
	<rect x="393.3" y="117.7" class="st1" width="29.5" height="6.9"/>
</g>
<g>
	<rect x="393.3" y="129.6" class="st1" width="29.5" height="6.9"/>
</g>
<g>
	<rect x="393.3" y="141.2" class="st1" width="29.5" height="6.9"/>
</g>
<g>
	<rect x="393.3" y="152.5" class="st1" width="29.5" height="6.9"/>
</g>
<g>
	<rect x="393.3" y="164.2" class="st1" width="35.3" height="6.9"/>
</g>
<g>
	<rect x="393.3" y="176" class="st1" width="35.3" height="6.9"/>
</g>
<g>
	<path class="st0" d="M425.5,196h-5.4c-0.6,0-1,0.4-1,1v20.4h7.4V197C426.5,196.4,426.1,196,425.5,196z"/>
</g>
<g>
	<circle class="st6" cx="325.7" cy="198.6" r="6"/>
</g>
<g>
	<circle class="st7" cx="353.3" cy="203" r="6"/>
</g>
<g>
	<circle class="st0" cx="337.7" cy="179.6" r="12"/>
</g>
<g>
	<path class="st0" d="M325.7,218.2c-0.4,0-0.8-0.4-0.8-0.8v-17.8c0-0.4,0.4-0.8,0.8-0.8c0.4,0,0.8,0.4,0.8,0.8v17.8
		C326.4,217.9,326.1,218.2,325.7,218.2z"/>
</g>
<g>
	<path class="st1" d="M337.7,218.2c-0.4,0-0.8-0.4-0.8-0.8v-31.9c0-0.4,0.4-0.8,0.8-0.8c0.4,0,0.8,0.4,0.8,0.8v31.9
		C338.5,217.9,338.1,218.2,337.7,218.2z"/>
</g>
<g>
	<path class="st0" d="M353.3,217.7c-0.4,0-0.8-0.4-0.8-0.8v-12.3c0-0.4,0.4-0.8,0.8-0.8c0.4,0,0.8,0.4,0.8,0.8v12.3
		C354.1,217.3,353.8,217.7,353.3,217.7z"/>
</g>
<g>
	<path class="st1" d="M406.2,218.2H271.8c-0.4,0-0.8-0.4-0.8-0.8c0-0.4,0.4-0.8,0.8-0.8h134.4c0.4,0,0.8,0.4,0.8,0.8
		C407,217.9,406.7,218.2,406.2,218.2z"/>
</g>
<g>
	<circle class="st0" cx="178.5" cy="227.8" r="15"/>
</g>
<g>
	<rect x="94.7" y="227.8" class="st8" width="54.1" height="44.1"/>
</g>
<g>
	<path class="st9" d="M291,242.1h-70.4c-0.6,0-1,0.4-1,1v87.1H292v-87.1C292,242.6,291.5,242.1,291,242.1z"/>
</g>
<g>
	<path class="st4" d="M138,169h-32.5c-1.8,0-3.2,1.4-3.2,3.2v23.1c0,1.8,1.4,3.2,3.2,3.2h10.4l5.9,7l5.9-7H138
		c1.8,0,3.2-1.4,3.2-3.2v-23.1C141.2,170.4,139.8,169,138,169z"/>
</g>
<g>
	<path class="st0" d="M275,191.8h-38.4c-1.8,0-3.2,1.4-3.2,3.2v30.1c0,1.8,1.4,3.2,3.2,3.2h13.3l5.9,7l5.9-7H275
		c1.8,0,3.2-1.4,3.2-3.2V195C278.1,193.2,276.7,191.8,275,191.8z"/>
</g>
<g>
	<polygon class="st2" points="148.8,227.8 94.7,227.8 121.8,212.8 	"/>
</g>
<g>
	<path class="st1" d="M219.6,272.7h-70.8c-0.4,0-0.8-0.4-0.8-0.8c0-0.4,0.4-0.8,0.8-0.8h70.8c0.4,0,0.8,0.4,0.8,0.8
		C220.4,272.3,220,272.7,219.6,272.7z"/>
</g>
<g>
	<path class="st0" d="M42.1,272.7H24.6c-0.4,0-0.8-0.4-0.8-0.8c0-0.4,0.4-0.8,0.8-0.8h17.6c0.4,0,0.8,0.4,0.8,0.8
		C42.9,272.3,42.6,272.7,42.1,272.7z"/>
</g>
<g>
	<rect x="121.8" y="245.2" class="st3" width="15.4" height="26.7"/>
</g>
<g>
	<path class="st1" d="M178.5,272.7c-0.4,0-0.8-0.4-0.8-0.8v-38c0-0.4,0.4-0.8,0.8-0.8s0.8,0.4,0.8,0.8v38
		C179.3,272.3,178.9,272.7,178.5,272.7z"/>
</g>
<g>
	<path class="st7" d="M112.9,115.6c-0.5,0-0.9,0.1-1.3,0.1c0.8-1.6,1.3-3.4,1.3-5.3c0-6.3-5.1-11.4-11.4-11.4s-11.4,5.1-11.4,11.4
		c0,0.1,0,0.2,0,0.3c-0.7-0.2-1.4-0.3-2.1-0.3c-4.8,0-8.8,3.9-8.8,8.8c0,4.8,3.9,8.8,8.8,8.8h24.8c3.4,0,6.2-2.8,6.2-6.2
		C119.1,118.3,116.3,115.6,112.9,115.6z"/>
</g>
<g>
	<path class="st6" d="M232.4,146.3c-0.1,0-0.2,0-0.3,0c0.2-0.9,0.3-1.8,0.3-2.7c0-6.5-5.3-11.8-11.8-11.8c-6.4,0-11.6,5.1-11.7,11.4
		c-1.6-1.1-3.6-1.7-5.6-1.7c-5.7,0-10.3,4.6-10.3,10.3c0,5.7,4.6,10.3,10.3,10.3h29.1c4.4,0,8-3.6,8-8
		C240.4,149.9,236.8,146.3,232.4,146.3z"/>
</g>
<g>
	<path class="st5" d="M346.1,82.6c-0.5,0-1,0.1-1.5,0.3c-0.9-2.3-3.1-3.9-5.7-3.9c-3.4,0-6.2,2.8-6.2,6.2c0,3.4,2.8,6.2,6.2,6.2h7.2
		c2.4,0,4.4-2,4.4-4.4C350.4,84.6,348.5,82.6,346.1,82.6z"/>
</g>
<g>
	<path class="st1" d="M219.6,331h-38.3c-0.4,0-0.8-0.4-0.8-0.8c0-0.4,0.4-0.8,0.8-0.8h38.3c0.4,0,0.8,0.4,0.8,0.8
		C220.4,330.7,220,331,219.6,331z"/>
</g>
<g>
	<path class="st3" d="M412.9,331h-26.1c-0.4,0-0.8-0.4-0.8-0.8c0-0.4,0.4-0.8,0.8-0.8h26.1c0.4,0,0.8,0.4,0.8,0.8
		C413.7,330.7,413.4,331,412.9,331z"/>
</g>
<g>
	<path class="st0" d="M438,331h-14.5c-0.4,0-0.8-0.4-0.8-0.8c0-0.4,0.4-0.8,0.8-0.8H438c0.4,0,0.8,0.4,0.8,0.8
		C438.8,330.7,438.4,331,438,331z"/>
</g>
<g>
	<path class="st7" d="M453.5,331h-9.3c-0.4,0-0.8-0.4-0.8-0.8c0-0.4,0.4-0.8,0.8-0.8h9.3c0.4,0,0.8,0.4,0.8,0.8
		C454.3,330.7,453.9,331,453.5,331z"/>
</g>
<g>
	<path class="st2" d="M278.1,330.2h-12.7v-26.5c0-0.6,0.4-1,1-1h10.7c0.6,0,1,0.4,1,1V330.2z"/>
</g>
<g>
	<path class="st7" d="M246.9,262.5h-17.4c-0.6,0-1-0.4-1-1v-7.6c0-0.6,0.4-1,1-1h17.4c0.6,0,1,0.4,1,1v7.6
		C247.9,262.1,247.5,262.5,246.9,262.5z"/>
</g>
<g>
	<path class="st7" d="M282.8,262.5h-26.7c-0.6,0-1-0.4-1-1v-7.6c0-0.6,0.4-1,1-1h26.7c0.6,0,1,0.4,1,1v7.6
		C283.8,262.1,283.3,262.5,282.8,262.5z"/>
</g>
<g>
	<path class="st7" d="M246.9,281.5h-17.4c-0.6,0-1-0.4-1-1v-7.6c0-0.6,0.4-1,1-1h17.4c0.6,0,1,0.4,1,1v7.6
		C247.9,281.1,247.5,281.5,246.9,281.5z"/>
</g>
<g>
	<path class="st7" d="M282.8,281.5h-26.7c-0.6,0-1-0.4-1-1v-7.6c0-0.6,0.4-1,1-1h26.7c0.6,0,1,0.4,1,1v7.6
		C283.8,281.1,283.3,281.5,282.8,281.5z"/>
</g>
<g>
	<path class="st7" d="M246.9,298.8h-17.4c-0.6,0-1-0.4-1-1v-7.6c0-0.6,0.4-1,1-1h17.4c0.6,0,1,0.4,1,1v7.6
		C247.9,298.4,247.5,298.8,246.9,298.8z"/>
</g>
<g>
	<path class="st7" d="M254.8,315.3h-25.2c-0.6,0-1-0.4-1-1v-7.6c0-0.6,0.4-1,1-1h25.2c0.6,0,1,0.4,1,1v7.6
		C255.8,314.9,255.3,315.3,254.8,315.3z"/>
</g>
<g>
	<path class="st7" d="M282.8,298.8h-26.7c-0.6,0-1-0.4-1-1v-7.6c0-0.6,0.4-1,1-1h26.7c0.6,0,1,0.4,1,1v7.6
		C283.8,298.4,283.3,298.8,282.8,298.8z"/>
</g>
<g>
	<path class="st2" d="M368,147.2h37.2c0.6,0,1,0.4,1,1v69.2H367v-69.2C367,147.6,367.4,147.2,368,147.2z"/>
</g>
<g>
	<path class="st1" d="M398,196h-7.6c-0.6,0-1,0.4-1,1v20.4h9.6V197C399,196.4,398.5,196,398,196z"/>
</g>
<g>
	<path class="st3" d="M383.5,164.2H376c-0.6,0-1-0.4-1-1v-7.5c0-0.6,0.4-1,1-1h7.5c0.6,0,1,0.4,1,1v7.5
		C384.5,163.7,384.1,164.2,383.5,164.2z"/>
</g>
<g>
	<path class="st3" d="M399.4,164.2h-7.5c-0.6,0-1-0.4-1-1v-7.5c0-0.6,0.4-1,1-1h7.5c0.6,0,1,0.4,1,1v7.5
		C400.4,163.7,399.9,164.2,399.4,164.2z"/>
</g>
<g>
	<path class="st3" d="M383.5,179.5H376c-0.6,0-1-0.4-1-1V171c0-0.6,0.4-1,1-1h7.5c0.6,0,1,0.4,1,1v7.5
		C384.5,179.1,384.1,179.5,383.5,179.5z"/>
</g>
<g>
	<path class="st3" d="M383.5,195.6H376c-0.6,0-1-0.4-1-1V187c0-0.6,0.4-1,1-1h7.5c0.6,0,1,0.4,1,1v7.5
		C384.5,195.1,384.1,195.6,383.5,195.6z"/>
</g>
<g>
	<path class="st3" d="M399.4,179.5h-7.5c-0.6,0-1-0.4-1-1V171c0-0.6,0.4-1,1-1h7.5c0.6,0,1,0.4,1,1v7.5
		C400.4,179.1,399.9,179.5,399.4,179.5z"/>
</g>
<g>
	<circle class="st7" cx="547.7" cy="197.6" r="6.5"/>
</g>
<g>
	<circle class="st6" cx="564.7" cy="187.6" r="8.4"/>
</g>
<g>
	<path class="st1" d="M564.7,218.2c-0.4,0-0.8-0.4-0.8-0.8v-26.3c0-0.4,0.4-0.8,0.8-0.8s0.8,0.4,0.8,0.8v26.3
		C565.5,217.9,565.2,218.2,564.7,218.2z"/>
</g>
<g>
	<path class="st3" d="M547.7,218.2c-0.4,0-0.8-0.4-0.8-0.8v-19.8c0-0.4,0.4-0.8,0.8-0.8s0.8,0.4,0.8,0.8v19.8
		C548.5,217.9,548.2,218.2,547.7,218.2z"/>
</g>
<g>
	<rect x="406.5" y="92.8" class="st0" width="22.4" height="5.2"/>
</g>
<g>
	<path class="st9" d="M428.9,92.8h-22.4l2.8-8c0.2-0.6,0.8-1.1,1.5-1.1h13.8c0.7,0,1.3,0.4,1.5,1.1L428.9,92.8z"/>
</g>
<g>
	<path class="st5" d="M522.1,88.6c0,0-0.1,0-0.1,0c0.1-0.5,0.1-1,0.1-1.6c0-6.5-5.3-11.7-11.7-11.7c-5.2,0-9.6,3.4-11.2,8.1
		c-1.1-0.4-2.3-0.7-3.6-0.7c-5.5,0-10,4.5-10,10c0,5.5,4.5,10,10,10h26.5c3.9,0,7.1-3.2,7.1-7.1C529.1,91.8,526,88.6,522.1,88.6z"/>
</g>
<g>
	<path class="st6" d="M508.7,97.8h-42.1c-0.9,0-1.6-0.7-1.6-1.6v-1.9c0-0.9,0.7-1.6,1.6-1.6h42.1c0.9,0,1.6,0.7,1.6,1.6v1.9
		C510.3,97.1,509.6,97.8,508.7,97.8z"/>
</g>
<g>
	<path class="st7" d="M505.6,226.9h-37.9l-5.9-7l-5.9,7h-37.9c-1.8,0-3.2,1.4-3.2,3.2v42.8c0,1.8,1.4,3.2,3.2,3.2h87.5
		c1.8,0,3.2-1.4,3.2-3.2V230C508.8,228.3,507.4,226.9,505.6,226.9z"/>
</g>
<g>
	<rect x="427.4" y="257.4" class="st0" width="29.4" height="8.6"/>
</g>
<g>
	<circle class="st2" cx="451.8" cy="261.7" r="2"/>
</g>
<g>
	<rect x="427.4" y="248.8" class="st5" width="29.4" height="8.6"/>
</g>
<g>
	<circle class="st2" cx="451.8" cy="253.1" r="2"/>
</g>
<g>
	<rect x="427.4" y="240.3" class="st0" width="29.4" height="8.6"/>
</g>
<g>
	<circle class="st2" cx="451.8" cy="244.6" r="2"/>
</g>
<g>
	<rect x="467" y="257.4" class="st0" width="29.4" height="8.6"/>
</g>
<g>
	<circle class="st2" cx="491.4" cy="261.7" r="2"/>
</g>
<g>
	<rect x="467" y="248.8" class="st5" width="29.4" height="8.6"/>
</g>
<g>
	<circle class="st2" cx="491.4" cy="253.1" r="2"/>
</g>
<g>
	<rect x="467" y="240.3" class="st0" width="29.4" height="8.6"/>
</g>
<g>
	<circle class="st2" cx="491.4" cy="244.6" r="2"/>
</g>
<g>
	<path class="st1" d="M137.1,272.7H54c-0.4,0-0.8-0.4-0.8-0.8c0-0.4,0.4-0.8,0.8-0.8h83.1c0.4,0,0.8,0.4,0.8,0.8
		C137.9,272.3,137.6,272.7,137.1,272.7z"/>
</g>
<g>
	<path class="st2" d="M426.9,265.9h-1.5c-0.3,0-0.5-0.2-0.5-0.5v-27.9c0-0.3,0.2-0.5,0.5-0.5h1.5c0.3,0,0.5,0.2,0.5,0.5v27.9
		C427.4,265.7,427.2,265.9,426.9,265.9z"/>
</g>
<g>
	<path class="st2" d="M458.8,265.9h-1.5c-0.3,0-0.5-0.2-0.5-0.5v-27.9c0-0.3,0.2-0.5,0.5-0.5h1.5c0.3,0,0.5,0.2,0.5,0.5v27.9
		C459.3,265.7,459.1,265.9,458.8,265.9z"/>
</g>
<g>
	<path class="st2" d="M466.5,265.9h-1.5c-0.3,0-0.5-0.2-0.5-0.5v-27.9c0-0.3,0.2-0.5,0.5-0.5h1.5c0.3,0,0.5,0.2,0.5,0.5v27.9
		C467,265.7,466.7,265.9,466.5,265.9z"/>
</g>
<g>
	<path class="st2" d="M498.4,265.9h-1.5c-0.3,0-0.5-0.2-0.5-0.5v-27.9c0-0.3,0.2-0.5,0.5-0.5h1.5c0.3,0,0.5,0.2,0.5,0.5v27.9
		C498.9,265.7,498.7,265.9,498.4,265.9z"/>
</g>
<g>
	<path class="st2" d="M578.5,218.2H467c-0.4,0-0.8-0.4-0.8-0.8c0-0.4,0.4-0.8,0.8-0.8h111.6c0.4,0,0.8,0.4,0.8,0.8
		C579.3,217.9,579,218.2,578.5,218.2z"/>
</g>
<g>
	<path class="st2" d="M371.6,331H265.5c-0.4,0-0.8-0.4-0.8-0.8c0-0.4,0.4-0.8,0.8-0.8h106.1c0.4,0,0.8,0.4,0.8,0.8
		C372.4,330.7,372.1,331,371.6,331z"/>
</g>
<g>
	<path class="st7" d="M121.1,179.8c-5.1,0-9.2,1.2-9.2,2.6v4c0,1.5,4.1,2.6,9.2,2.6s9.2-1.2,9.2-2.6v-4
		C130.3,180.9,126.2,179.8,121.1,179.8z"/>
</g>
<g>
	<path class="st2" d="M121.1,179.1c-4.8,0-9.9,1-9.9,3.3v4c0,2.3,5.1,3.3,9.9,3.3s9.9-1,9.9-3.3v-4
		C131,180.1,125.8,179.1,121.1,179.1z M121.1,180.4c5.7,0,8.6,1.4,8.6,2c0,0.6-2.9,2-8.6,2s-8.6-1.4-8.6-2
		C112.5,181.8,115.4,180.4,121.1,180.4z M116.8,185.4v2.6c-0.8-0.1-1.4-0.3-2-0.4V185C115.4,185.2,116.1,185.3,116.8,185.4z
		 M118.1,185.6c0.9,0.1,1.8,0.1,2.6,0.1v2.6c-1,0-1.8-0.1-2.6-0.1V185.6z M122,185.7c0.9,0,1.8-0.1,2.6-0.2v2.6
		c-0.8,0.1-1.7,0.2-2.6,0.2V185.7z M126,185.3c0.5-0.1,0.9-0.2,1.3-0.3v2.6c-0.4,0.1-0.8,0.2-1.3,0.3L126,185.3
		C126,185.3,126,185.3,126,185.3z M112.5,186.4v-2.2c0.3,0.2,0.6,0.3,1,0.5c0,0,0,0.1,0,0.1v2.4
		C112.8,186.8,112.5,186.6,112.5,186.4z M128.6,187.1v-2.4c0,0,0-0.1,0-0.1c0.4-0.1,0.7-0.3,1-0.5v2.2
		C129.6,186.6,129.3,186.8,128.6,187.1z"/>
</g>
<g>
	<g>
		<path class="st7" d="M256.5,208.7c-5.1,0-9.2,1.2-9.2,2.6v4c0,1.5,4.1,2.6,9.2,2.6c5.1,0,9.2-1.2,9.2-2.6v-4
			C265.8,209.9,261.6,208.7,256.5,208.7z"/>
	</g>
	<g>
		<path class="st2" d="M256.5,208c-4.8,0-9.9,1-9.9,3.3v4c0,2.3,5.1,3.3,9.9,3.3s9.9-1,9.9-3.3v-4C266.4,209,261.3,208,256.5,208z
			 M256.5,209.3c5.7,0,8.6,1.4,8.6,2c0,0.6-2.9,2-8.6,2c-5.7,0-8.6-1.4-8.6-2C247.9,210.7,250.9,209.3,256.5,209.3z M252.2,214.3
			v2.6c-0.8-0.1-1.4-0.3-2-0.4v-2.6C250.9,214.1,251.5,214.2,252.2,214.3z M253.6,214.5c0.9,0.1,1.8,0.1,2.6,0.1v2.6
			c-1,0-1.8-0.1-2.6-0.1V214.5z M257.5,214.6c0.9,0,1.8-0.1,2.6-0.2v2.6c-0.8,0.1-1.7,0.2-2.6,0.2V214.6z M261.5,214.2
			c0.5-0.1,0.9-0.2,1.3-0.3v2.6c-0.4,0.1-0.8,0.2-1.3,0.3L261.5,214.2C261.5,214.3,261.5,214.2,261.5,214.2z M247.9,215.3v-2.2
			c0.3,0.2,0.6,0.3,1,0.5c0,0,0,0.1,0,0.1v2.4C248.3,215.8,247.9,215.5,247.9,215.3z M264.1,216.1v-2.4c0,0,0-0.1,0-0.1
			c0.4-0.1,0.7-0.3,1-0.5v2.2C265.1,215.5,264.8,215.8,264.1,216.1z"/>
	</g>
</g>
<g>
	<g>
		<path class="st7" d="M256.5,202.3c-5.1,0-9.2,1.2-9.2,2.6v4c0,1.5,4.1,2.6,9.2,2.6c5.1,0,9.2-1.2,9.2-2.6v-4
			C265.8,203.5,261.6,202.3,256.5,202.3z"/>
	</g>
	<g>
		<path class="st2" d="M256.5,201.7c-4.8,0-9.9,1-9.9,3.3v4c0,2.3,5.1,3.3,9.9,3.3s9.9-1,9.9-3.3v-4
			C266.4,202.7,261.3,201.7,256.5,201.7z M256.5,203c5.7,0,8.6,1.4,8.6,2s-2.9,2-8.6,2c-5.7,0-8.6-1.4-8.6-2S250.9,203,256.5,203z
			 M252.2,208v2.6c-0.8-0.1-1.4-0.3-2-0.4v-2.6C250.9,207.8,251.5,207.9,252.2,208z M253.6,208.1c0.9,0.1,1.8,0.1,2.6,0.1v2.6
			c-1,0-1.8-0.1-2.6-0.1V208.1z M257.5,208.3c0.9,0,1.8-0.1,2.6-0.2v2.6c-0.8,0.1-1.7,0.2-2.6,0.2V208.3z M261.5,207.9
			c0.5-0.1,0.9-0.2,1.3-0.3v2.6c-0.4,0.1-0.8,0.2-1.3,0.3L261.5,207.9C261.5,207.9,261.5,207.9,261.5,207.9z M247.9,208.9v-2.2
			c0.3,0.2,0.6,0.3,1,0.5c0,0,0,0.1,0,0.1v2.4C248.3,209.4,247.9,209.1,247.9,208.9z M264.1,209.7v-2.4c0,0,0-0.1,0-0.1
			c0.4-0.1,0.7-0.3,1-0.5v2.2C265.1,209.1,264.8,209.4,264.1,209.7z"/>
	</g>
</g>
</svg>
