<?xml version="1.0" encoding="utf-8"?>
<!-- Generator: Adobe Illustrator 23.0.2, SVG Export Plug-In . SVG Version: 6.00 Build 0)  -->
<svg version="1.1" id="Layer_1" xmlns="http://www.w3.org/2000/svg" xmlns:xlink="http://www.w3.org/1999/xlink" x="0px" y="0px"
	 viewBox="0 0 600 400" style="enable-background:new 0 0 600 400;" xml:space="preserve">
<style type="text/css">
	.st0{clip-path:url(#SVGID_2_);fill:#FFFFFF;}
	.st1{clip-path:url(#SVGID_2_);fill:#FEFEFE;}
	.st2{clip-path:url(#SVGID_2_);fill:#FDFDFD;}
	.st3{clip-path:url(#SVGID_2_);fill:#FCFCFC;}
	.st4{clip-path:url(#SVGID_2_);fill:#FBFBFB;}
	.st5{clip-path:url(#SVGID_2_);fill:#FAFAFB;}
	.st6{clip-path:url(#SVGID_2_);fill:#F9F9FA;}
	.st7{clip-path:url(#SVGID_2_);fill:#F8F8F9;}
	.st8{clip-path:url(#SVGID_2_);fill:#F7F7F8;}
	.st9{clip-path:url(#SVGID_2_);fill:#F6F6F7;}
	.st10{clip-path:url(#SVGID_2_);fill:#F4F5F6;}
	.st11{clip-path:url(#SVGID_2_);fill:#F3F4F5;}
	.st12{clip-path:url(#SVGID_2_);fill:#F2F3F4;}
	.st13{clip-path:url(#SVGID_2_);fill:#F1F2F3;}
	.st14{clip-path:url(#SVGID_2_);fill:#F0F1F3;}
	.st15{clip-path:url(#SVGID_2_);fill:#EFF0F2;}
	.st16{clip-path:url(#SVGID_2_);fill:#EEEFF1;}
	.st17{clip-path:url(#SVGID_2_);fill:#EDEEF0;}
	.st18{clip-path:url(#SVGID_2_);fill:#ECEDEF;}
	.st19{clip-path:url(#SVGID_4_);fill:#FFFFFF;}
	.st20{clip-path:url(#SVGID_4_);fill:#FEFEFE;}
	.st21{clip-path:url(#SVGID_4_);fill:#FDFDFE;}
	.st22{clip-path:url(#SVGID_4_);fill:#FCFCFD;}
	.st23{clip-path:url(#SVGID_4_);fill:#FBFBFC;}
	.st24{clip-path:url(#SVGID_4_);fill:#FAFAFB;}
	.st25{clip-path:url(#SVGID_4_);fill:#F9F9FB;}
	.st26{clip-path:url(#SVGID_4_);fill:#F8F9FA;}
	.st27{clip-path:url(#SVGID_4_);fill:#F7F8F9;}
	.st28{clip-path:url(#SVGID_4_);fill:#F6F7F9;}
	.st29{clip-path:url(#SVGID_4_);fill:#F5F6F8;}
	.st30{clip-path:url(#SVGID_4_);fill:#F4F5F7;}
	.st31{clip-path:url(#SVGID_4_);fill:#F3F4F6;}
	.st32{clip-path:url(#SVGID_4_);fill:#F2F3F6;}
	.st33{clip-path:url(#SVGID_4_);fill:#F1F2F5;}
	.st34{clip-path:url(#SVGID_4_);fill:#EFF1F4;}
	.st35{clip-path:url(#SVGID_4_);fill:#EEF0F4;}
	.st36{clip-path:url(#SVGID_4_);fill:#EDEFF3;}
	.st37{clip-path:url(#SVGID_4_);fill:#ECEEF2;}
	.st38{clip-path:url(#SVGID_4_);fill:#EBEDF1;}
	.st39{clip-path:url(#SVGID_4_);fill:#EAECF1;}
	.st40{clip-path:url(#SVGID_4_);fill:#E9ECF0;}
	.st41{clip-path:url(#SVGID_4_);fill:#E8EBEF;}
	.st42{clip-path:url(#SVGID_4_);fill:#E7EAEF;}
	.st43{clip-path:url(#SVGID_4_);fill:#E6E9EE;}
	.st44{clip-path:url(#SVGID_4_);fill:#E5E8ED;}
	.st45{clip-path:url(#SVGID_4_);fill:#E4E7EC;}
	.st46{clip-path:url(#SVGID_4_);fill:#E3E6EC;}
	.st47{clip-path:url(#SVGID_4_);fill:#E2E5EB;}
	.st48{clip-path:url(#SVGID_6_);fill:#FFFFFF;}
	.st49{clip-path:url(#SVGID_6_);fill:#FEFEFE;}
	.st50{clip-path:url(#SVGID_6_);fill:#FDFDFE;}
	.st51{clip-path:url(#SVGID_6_);fill:#FCFCFD;}
	.st52{clip-path:url(#SVGID_6_);fill:#FBFBFC;}
	.st53{clip-path:url(#SVGID_6_);fill:#FAFAFB;}
	.st54{clip-path:url(#SVGID_6_);fill:#F9F9FB;}
	.st55{clip-path:url(#SVGID_6_);fill:#F8F9FA;}
	.st56{clip-path:url(#SVGID_6_);fill:#F7F8F9;}
	.st57{clip-path:url(#SVGID_6_);fill:#F6F7F9;}
	.st58{clip-path:url(#SVGID_6_);fill:#F5F6F8;}
	.st59{clip-path:url(#SVGID_6_);fill:#F4F5F7;}
	.st60{clip-path:url(#SVGID_6_);fill:#F3F4F6;}
	.st61{clip-path:url(#SVGID_6_);fill:#F2F3F6;}
	.st62{clip-path:url(#SVGID_6_);fill:#F1F2F5;}
	.st63{clip-path:url(#SVGID_6_);fill:#EFF1F4;}
	.st64{clip-path:url(#SVGID_6_);fill:#EEF0F4;}
	.st65{clip-path:url(#SVGID_6_);fill:#EDEFF3;}
	.st66{clip-path:url(#SVGID_6_);fill:#ECEEF2;}
	.st67{clip-path:url(#SVGID_6_);fill:#EBEDF1;}
	.st68{clip-path:url(#SVGID_6_);fill:#EAECF1;}
	.st69{clip-path:url(#SVGID_6_);fill:#E9ECF0;}
	.st70{clip-path:url(#SVGID_6_);fill:#E8EBEF;}
	.st71{clip-path:url(#SVGID_6_);fill:#E7EAEF;}
	.st72{clip-path:url(#SVGID_6_);fill:#E6E9EE;}
	.st73{clip-path:url(#SVGID_6_);fill:#E5E8ED;}
	.st74{clip-path:url(#SVGID_6_);fill:#E4E7EC;}
	.st75{clip-path:url(#SVGID_6_);fill:#E3E6EC;}
	.st76{clip-path:url(#SVGID_6_);fill:#E2E5EB;}
	.st77{clip-path:url(#SVGID_8_);fill:#FFFFFF;}
	.st78{clip-path:url(#SVGID_8_);fill:#FEFEFE;}
	.st79{clip-path:url(#SVGID_8_);fill:#FDFDFE;}
	.st80{clip-path:url(#SVGID_8_);fill:#FCFCFD;}
	.st81{clip-path:url(#SVGID_8_);fill:#FBFBFC;}
	.st82{clip-path:url(#SVGID_8_);fill:#FAFAFB;}
	.st83{clip-path:url(#SVGID_8_);fill:#F9F9FB;}
	.st84{clip-path:url(#SVGID_8_);fill:#F8F9FA;}
	.st85{clip-path:url(#SVGID_8_);fill:#F7F8F9;}
	.st86{clip-path:url(#SVGID_8_);fill:#F6F7F9;}
	.st87{clip-path:url(#SVGID_8_);fill:#F5F6F8;}
	.st88{clip-path:url(#SVGID_8_);fill:#F4F5F7;}
	.st89{clip-path:url(#SVGID_8_);fill:#F3F4F6;}
	.st90{clip-path:url(#SVGID_8_);fill:#F2F3F6;}
	.st91{clip-path:url(#SVGID_8_);fill:#F1F2F5;}
	.st92{clip-path:url(#SVGID_8_);fill:#EFF1F4;}
	.st93{clip-path:url(#SVGID_8_);fill:#EEF0F4;}
	.st94{clip-path:url(#SVGID_8_);fill:#EDEFF3;}
	.st95{clip-path:url(#SVGID_8_);fill:#ECEEF2;}
	.st96{clip-path:url(#SVGID_8_);fill:#EBEDF1;}
	.st97{clip-path:url(#SVGID_8_);fill:#EAECF1;}
	.st98{clip-path:url(#SVGID_8_);fill:#E9ECF0;}
	.st99{clip-path:url(#SVGID_8_);fill:#E8EBEF;}
	.st100{clip-path:url(#SVGID_8_);fill:#E7EAEF;}
	.st101{clip-path:url(#SVGID_8_);fill:#E6E9EE;}
	.st102{clip-path:url(#SVGID_8_);fill:#E5E8ED;}
	.st103{clip-path:url(#SVGID_8_);fill:#E4E7EC;}
	.st104{clip-path:url(#SVGID_8_);fill:#E3E6EC;}
	.st105{clip-path:url(#SVGID_8_);fill:#E2E5EB;}
	.st106{fill:#ECEDEF;}
	.st107{fill:#EF7E53;}
	.st108{fill:#546184;}
	.st109{fill:#D0D4E0;}
	.st110{fill:#E2E5EB;}
	.st111{fill:#21ABB0;}
	.st112{fill:#8791AA;}
	.st113{fill:#F5B54D;}
	.st114{fill:#797E84;}
	.st115{fill:#2A3141;}
	.st116{fill:#FFFFFF;}
	.st117{fill:#0F1C3A;}
	.st118{fill:#F2CB97;}
	.st119{fill:#171B23;}
</style>
<g>
	<g>
		<defs>
			<path id="SVGID_1_" d="M64,168.3V98.1c0-1,0.8-1.8,1.8-1.8H124c1,0,1.8,0.8,1.8,1.8v31c0,1,0.8,1.8,1.8,1.8h42
				c1,0,1.8-0.8,1.8-1.8V85.4c0-1,0.8-1.8,1.8-1.8h43.6c1,0,1.8,0.8,1.8,1.8v82.9"/>
		</defs>
		<clipPath id="SVGID_2_">
			<use xlink:href="#SVGID_1_"  style="overflow:visible;"/>
		</clipPath>
		<path class="st0" d="M64,168.3h154.3H64z"/>
		<rect x="64" y="163.8" class="st0" width="154.3" height="4.5"/>
		<rect x="64" y="159.3" class="st1" width="154.3" height="4.5"/>
		<rect x="64" y="154.9" class="st2" width="154.3" height="4.5"/>
		<rect x="64" y="150.4" class="st3" width="154.3" height="4.5"/>
		<rect x="64" y="146" class="st4" width="154.3" height="4.5"/>
		<rect x="64" y="141.5" class="st5" width="154.3" height="4.5"/>
		<rect x="64" y="137.1" class="st6" width="154.3" height="4.5"/>
		<rect x="64" y="132.6" class="st7" width="154.3" height="4.5"/>
		<rect x="64" y="128.2" class="st8" width="154.3" height="4.5"/>
		<rect x="64" y="123.7" class="st9" width="154.3" height="4.5"/>
		<rect x="64" y="119.2" class="st10" width="154.3" height="4.5"/>
		<rect x="64" y="114.8" class="st11" width="154.3" height="4.5"/>
		<rect x="64" y="110.3" class="st12" width="154.3" height="4.5"/>
		<rect x="64" y="105.9" class="st13" width="154.3" height="4.5"/>
		<rect x="64" y="101.4" class="st14" width="154.3" height="4.5"/>
		<rect x="64" y="97" class="st15" width="154.3" height="4.5"/>
		<rect x="64" y="92.5" class="st16" width="154.3" height="4.5"/>
		<rect x="64" y="88.1" class="st17" width="154.3" height="4.5"/>
		<rect x="64" y="83.6" class="st18" width="154.3" height="4.5"/>
		<path class="st18" d="M218.3,83.6H64H218.3z"/>
	</g>
</g>
<g>
	<g>
		<defs>
			<path id="SVGID_3_" d="M203.1,159.4V37.8c0-1,0.8-1.8,1.8-1.8h44.7c1,0,1.8,0.8,1.8,1.8v121.7"/>
		</defs>
		<clipPath id="SVGID_4_">
			<use xlink:href="#SVGID_3_"  style="overflow:visible;"/>
		</clipPath>
		<path class="st19" d="M203.1,159.4h48.2H203.1z"/>
		<rect x="203.1" y="155.2" class="st19" width="48.2" height="4.3"/>
		<rect x="203.1" y="150.9" class="st20" width="48.2" height="4.3"/>
		<rect x="203.1" y="146.7" class="st21" width="48.2" height="4.3"/>
		<rect x="203.1" y="142.4" class="st22" width="48.2" height="4.3"/>
		<rect x="203.1" y="138.1" class="st23" width="48.2" height="4.3"/>
		<rect x="203.1" y="133.9" class="st24" width="48.2" height="4.3"/>
		<rect x="203.1" y="129.6" class="st25" width="48.2" height="4.3"/>
		<rect x="203.1" y="125.4" class="st26" width="48.2" height="4.3"/>
		<rect x="203.1" y="121.1" class="st27" width="48.2" height="4.3"/>
		<rect x="203.1" y="116.9" class="st28" width="48.2" height="4.3"/>
		<rect x="203.1" y="112.6" class="st29" width="48.2" height="4.3"/>
		<rect x="203.1" y="108.4" class="st30" width="48.2" height="4.3"/>
		<rect x="203.1" y="104.1" class="st31" width="48.2" height="4.3"/>
		<rect x="203.1" y="99.8" class="st32" width="48.2" height="4.3"/>
		<rect x="203.1" y="95.6" class="st33" width="48.2" height="4.3"/>
		<rect x="203.1" y="91.3" class="st34" width="48.2" height="4.3"/>
		<rect x="203.1" y="87.1" class="st35" width="48.2" height="4.3"/>
		<rect x="203.1" y="82.8" class="st36" width="48.2" height="4.3"/>
		<rect x="203.1" y="78.6" class="st37" width="48.2" height="4.3"/>
		<rect x="203.1" y="74.3" class="st38" width="48.2" height="4.3"/>
		<rect x="203.1" y="70" class="st39" width="48.2" height="4.3"/>
		<rect x="203.1" y="65.8" class="st40" width="48.2" height="4.3"/>
		<rect x="203.1" y="61.5" class="st41" width="48.2" height="4.3"/>
		<rect x="203.1" y="57.3" class="st42" width="48.2" height="4.3"/>
		<rect x="203.1" y="53" class="st43" width="48.2" height="4.3"/>
		<rect x="203.1" y="48.8" class="st44" width="48.2" height="4.3"/>
		<rect x="203.1" y="44.5" class="st45" width="48.2" height="4.3"/>
		<rect x="203.1" y="40.3" class="st46" width="48.2" height="4.3"/>
		<rect x="203.1" y="36" class="st47" width="48.2" height="4.3"/>
		<path class="st47" d="M251.3,36h-48.2H251.3z"/>
	</g>
</g>
<g>
	<g>
		<defs>
			<path id="SVGID_5_" d="M334.8,173.8V88c0-1,0.8-1.8,1.8-1.8H381c1,0,1.8,0.8,1.8,1.8v85.8"/>
		</defs>
		<clipPath id="SVGID_6_">
			<use xlink:href="#SVGID_5_"  style="overflow:visible;"/>
		</clipPath>
		<path class="st48" d="M334.8,173.8h47.9H334.8z"/>
		<rect x="334.8" y="170.8" class="st48" width="47.9" height="3"/>
		<rect x="334.8" y="167.7" class="st49" width="47.9" height="3"/>
		<rect x="334.8" y="164.7" class="st50" width="47.9" height="3"/>
		<rect x="334.8" y="161.7" class="st51" width="47.9" height="3"/>
		<rect x="334.8" y="158.7" class="st52" width="47.9" height="3"/>
		<rect x="334.8" y="155.7" class="st53" width="47.9" height="3"/>
		<rect x="334.8" y="152.6" class="st54" width="47.9" height="3"/>
		<rect x="334.8" y="149.6" class="st55" width="47.9" height="3"/>
		<rect x="334.8" y="146.6" class="st56" width="47.9" height="3"/>
		<rect x="334.8" y="143.6" class="st57" width="47.9" height="3"/>
		<rect x="334.8" y="140.6" class="st58" width="47.9" height="3"/>
		<rect x="334.8" y="137.5" class="st59" width="47.9" height="3"/>
		<rect x="334.8" y="134.5" class="st60" width="47.9" height="3"/>
		<rect x="334.8" y="131.5" class="st61" width="47.9" height="3"/>
		<rect x="334.8" y="128.5" class="st62" width="47.9" height="3"/>
		<rect x="334.8" y="125.5" class="st63" width="47.9" height="3"/>
		<rect x="334.8" y="122.4" class="st64" width="47.9" height="3"/>
		<rect x="334.8" y="119.4" class="st65" width="47.9" height="3"/>
		<rect x="334.8" y="116.4" class="st66" width="47.9" height="3"/>
		<rect x="334.8" y="113.4" class="st67" width="47.9" height="3"/>
		<rect x="334.8" y="110.4" class="st68" width="47.9" height="3"/>
		<rect x="334.8" y="107.3" class="st69" width="47.9" height="3"/>
		<rect x="334.8" y="104.3" class="st70" width="47.9" height="3"/>
		<rect x="334.8" y="101.3" class="st71" width="47.9" height="3"/>
		<rect x="334.8" y="98.3" class="st72" width="47.9" height="3"/>
		<rect x="334.8" y="95.3" class="st73" width="47.9" height="3"/>
		<rect x="334.8" y="92.3" class="st74" width="47.9" height="3"/>
		<rect x="334.8" y="89.2" class="st75" width="47.9" height="3"/>
		<rect x="334.8" y="86.2" class="st76" width="47.9" height="3"/>
		<path class="st76" d="M382.8,86.2h-47.9H382.8z"/>
	</g>
</g>
<g>
	<g>
		<defs>
			<path id="SVGID_7_" d="M443.8,191.3V79.5c0-1-0.8-1.8-1.8-1.8h-31.8c-1,0-1.8-0.8-1.8-1.8V45.4c0-1-0.8-1.8-1.8-1.8h-31.9
				c-1,0-1.8,0.8-1.8,1.8v146"/>
		</defs>
		<clipPath id="SVGID_8_">
			<use xlink:href="#SVGID_7_"  style="overflow:visible;"/>
		</clipPath>
		<path class="st77" d="M373.1,191.3h70.8H373.1z"/>
		<rect x="373.1" y="186.2" class="st77" width="70.8" height="5.1"/>
		<rect x="373.1" y="181.2" class="st78" width="70.8" height="5.1"/>
		<rect x="373.1" y="176.1" class="st79" width="70.8" height="5.1"/>
		<rect x="373.1" y="171" class="st80" width="70.8" height="5.1"/>
		<rect x="373.1" y="165.9" class="st81" width="70.8" height="5.1"/>
		<rect x="373.1" y="160.8" class="st82" width="70.8" height="5.1"/>
		<rect x="373.1" y="155.7" class="st83" width="70.8" height="5.1"/>
		<rect x="373.1" y="150.6" class="st84" width="70.8" height="5.1"/>
		<rect x="373.1" y="145.5" class="st85" width="70.8" height="5.1"/>
		<rect x="373.1" y="140.4" class="st86" width="70.8" height="5.1"/>
		<rect x="373.1" y="135.3" class="st87" width="70.8" height="5.1"/>
		<rect x="373.1" y="130.2" class="st88" width="70.8" height="5.1"/>
		<rect x="373.1" y="125.1" class="st89" width="70.8" height="5.1"/>
		<rect x="373.1" y="120" class="st90" width="70.8" height="5.1"/>
		<rect x="373.1" y="114.9" class="st91" width="70.8" height="5.1"/>
		<rect x="373.1" y="109.8" class="st92" width="70.8" height="5.1"/>
		<rect x="373.1" y="104.7" class="st93" width="70.8" height="5.1"/>
		<rect x="373.1" y="99.7" class="st94" width="70.8" height="5.1"/>
		<rect x="373.1" y="94.6" class="st95" width="70.8" height="5.1"/>
		<rect x="373.1" y="89.5" class="st96" width="70.8" height="5.1"/>
		<rect x="373.1" y="84.4" class="st97" width="70.8" height="5.1"/>
		<rect x="373.1" y="79.3" class="st98" width="70.8" height="5.1"/>
		<rect x="373.1" y="74.2" class="st99" width="70.8" height="5.1"/>
		<rect x="373.1" y="69.1" class="st100" width="70.8" height="5.1"/>
		<rect x="373.1" y="64" class="st101" width="70.8" height="5.1"/>
		<rect x="373.1" y="58.9" class="st102" width="70.8" height="5.1"/>
		<rect x="373.1" y="53.8" class="st103" width="70.8" height="5.1"/>
		<rect x="373.1" y="48.7" class="st104" width="70.8" height="5.1"/>
		<rect x="373.1" y="43.6" class="st105" width="70.8" height="5.1"/>
		<path class="st105" d="M443.8,43.6h-70.8H443.8z"/>
	</g>
</g>
<g>
	<ellipse class="st106" cx="165.9" cy="355.7" rx="40.1" ry="9.3"/>
</g>
<g>
	<ellipse class="st106" cx="466.3" cy="332.2" rx="40.1" ry="9.3"/>
</g>
<g>
	<path class="st107" d="M382.6,316.8l-2.9-1.2c-0.5-0.2-0.8-0.8-0.6-1.3l18.4-46.2c0.2-0.5,0.8-0.8,1.3-0.6l2.9,1.2
		c0.5,0.2,0.8,0.8,0.6,1.3l-18.4,46.2C383.7,316.7,383.1,317,382.6,316.8z"/>
</g>
<g>
	<path class="st107" d="M420.9,315.1l-2.9,1.2c-0.5,0.2-1.1,0-1.3-0.5l-38.8-90.2c-0.2-0.5,0-1.1,0.5-1.3l2.9-1.2
		c0.5-0.2,1.1,0,1.3,0.5l38.8,90.2C421.6,314.3,421.4,314.9,420.9,315.1z"/>
</g>
<g>
	<circle class="st108" cx="386.6" cy="239.4" r="1"/>
</g>
<g>
	<circle class="st108" cx="392.5" cy="252.9" r="1"/>
</g>
<g>
	<circle class="st108" cx="399.7" cy="270.1" r="1"/>
</g>
<g>
	<circle class="st108" cx="407.5" cy="287.8" r="1"/>
</g>
<g>
	<circle class="st108" cx="392.5" cy="287.8" r="1"/>
</g>
<g>
	<circle class="st108" cx="414.1" cy="303.3" r="1"/>
</g>
<g>
	<circle class="st108" cx="386.2" cy="303.3" r="1"/>
</g>
<g>
	<path class="st106" d="M340.2,299.4H208c-1.1,0-2-0.9-2-2V179.1h134.2V299.4z"/>
</g>
<g>
	<path class="st109" d="M375.9,179.1H206v-15.4c0-1.1,0.9-2,2-2h165.9c1.1,0,2,0.9,2,2V179.1z"/>
</g>
<g>
	<path class="st110" d="M373.9,299.4h-33.7V179.1h35.7v118.3C375.9,298.5,375,299.4,373.9,299.4z"/>
</g>
<g>
	<rect x="219.6" y="194.5" class="st109" width="94.1" height="10.2"/>
</g>
<g>
	<rect x="346.5" y="185.2" class="st108" width="23.3" height="3.2"/>
</g>
<g>
	<rect x="346.5" y="191.3" class="st109" width="11.1" height="3.2"/>
</g>
<g>
	<rect x="346.5" y="197.4" class="st109" width="21.2" height="3.2"/>
</g>
<g>
	<rect x="346.5" y="209.6" class="st109" width="23.9" height="3.2"/>
</g>
<g>
	<rect x="346.5" y="215.7" class="st109" width="19.4" height="3.2"/>
</g>
<g>
	<rect x="346.5" y="203.5" class="st109" width="16.9" height="3.2"/>
</g>
<g>
	<rect x="219.6" y="213.1" class="st111" width="81.5" height="10.2"/>
</g>
<g>
	<rect x="219.6" y="231.7" class="st112" width="107.6" height="10.2"/>
</g>
<g>
	<rect x="219.6" y="250.3" class="st113" width="68.8" height="10.2"/>
</g>
<g>
	<rect x="219.6" y="268.9" class="st109" width="115.2" height="10.2"/>
</g>
<g>
	<circle class="st107" cx="218.3" cy="170.2" r="3.6"/>
</g>
<g>
	<circle class="st111" cx="228" cy="170.2" r="3.6"/>
</g>
<g>
	<circle class="st113" cx="237.5" cy="170.2" r="3.6"/>
</g>
<g>
	<path class="st109" d="M460.2,300.6l-5.8,26.3c-0.2,1,0.5,1.9,1.5,1.9h1.3c0.7,0,1.3-0.4,1.5-1.1l8.5-26.3c0.3-1-0.4-2-1.5-2h-3.9
		C461,299.4,460.4,299.9,460.2,300.6z"/>
</g>
<g>
	<path class="st109" d="M489.1,300.6l5.8,26.3c0.2,1-0.5,1.9-1.5,1.9h-1.3c-0.7,0-1.3-0.4-1.5-1.1l-8.5-26.3c-0.3-1,0.4-2,1.5-2h3.9
		C488.4,299.4,489,299.9,489.1,300.6z"/>
</g>
<g>
	<path class="st109" d="M474.7,328.7L474.7,328.7c-0.8,0-1.5-0.6-1.5-1.4l-1.6-24.8c-0.1-0.9,0.6-1.6,1.5-1.6h3.1
		c0.9,0,1.6,0.7,1.5,1.6l-1.6,24.8C476.2,328.1,475.5,328.7,474.7,328.7z"/>
</g>
<g>
	<rect x="430.2" y="209.6" class="st106" width="75.9" height="59.2"/>
</g>
<g>
	<rect x="430.2" y="274.8" class="st114" width="4.1" height="34.9"/>
</g>
<g>
	<path class="st115" d="M435.6,314.8h-6.8c-0.6,0-1-0.4-1-1v-3c0-0.6,0.4-1,1-1h6.8c0.6,0,1,0.4,1,1v3
		C436.6,314.3,436.2,314.8,435.6,314.8z"/>
</g>
<g>
	<path class="st115" d="M507.5,314.8h-6.8c-0.6,0-1-0.4-1-1v-3c0-0.6,0.4-1,1-1h6.8c0.6,0,1,0.4,1,1v3
		C508.5,314.3,508,314.8,507.5,314.8z"/>
</g>
<g>
	<rect x="502" y="274.8" class="st114" width="4.1" height="34.9"/>
</g>
<g>
	<path class="st109" d="M509.1,268.9h-82c-0.6,0-1,0.4-1,1v4c0,0.6,0.4,1,1,1h82c0.6,0,1-0.4,1-1v-4
		C510.1,269.3,509.7,268.9,509.1,268.9z"/>
</g>
<g>
	<rect x="446.3" y="224.6" class="st116" width="14.6" height="22.5"/>
</g>
<g>
	<rect x="450.2" y="220.9" class="st115" width="6.7" height="6.7"/>
</g>
<g>
	
		<rect x="468.4" y="232.5" transform="matrix(0.9825 -0.1863 0.1863 0.9825 -36.2378 93.2094)" class="st116" width="18.6" height="13.8"/>
</g>
<g>
	
		<rect x="473" y="229.5" transform="matrix(0.9825 -0.1863 0.1863 0.9825 -34.956 92.8392)" class="st108" width="6.7" height="5.8"/>
</g>
<g>
	<rect x="435.2" y="258.3" class="st107" width="17.3" height="10.6"/>
</g>
<g>
	<rect x="435.2" y="258.3" class="st113" width="13.9" height="10.6"/>
</g>
<g>
	<path class="st113" d="M182.3,290.2c0,0,1.3,3.2,4.9,4c3.6,0.8,6.9,1.1,6.7-3.5c-0.1-4.6-5.1-11.6-8.4-12.4l-5.4,4.9"/>
</g>
<g>
	<path class="st117" d="M165.9,340c-0.8-0.5-1.8,0.1-2.5,0.7c-0.4,0.4-0.9,0.8-1.1,1.3c-0.3,0.7,0,1.5,0.3,2.2
		c1.5,3.4,4.2,6.1,7.1,8.5c0.7,0.5,1.5,1.1,2.3,0.7c0.4-0.3,0.6-0.8,0.8-1.3c0.2-1,0.2-2,0.2-3.1c0-0.9,0-1.8-0.3-2.6
		c-0.3-0.9-0.9-1.7-1.5-2.4c-0.6-0.7-1.3-1.4-1.9-2.1c-1.1-1.1-2.4-2.2-4-2.1"/>
</g>
<g>
	<path class="st117" d="M179.4,346.4c-0.7,1.4-1.1,2.9-1.1,4.5c0,0.6,0.1,1.2,0.5,1.6c0.5,0.5,1.3,0.4,2,0.4
		c3.7-0.1,7.2,1.5,10.8,1.5c0.7,0,1.5-0.1,1.9-0.7c0.4-0.6,0.2-1.5-0.3-2c-0.5-0.5-1.2-0.8-1.9-1c-1.3-0.4-2.6-0.7-3.6-1.5
		c-0.7-0.6-1.2-1.4-2-1.8c-0.9-0.5-2-0.6-3-0.6C181.3,346.8,180.6,346.4,179.4,346.4z"/>
</g>
<g>
	<path class="st115" d="M452.5,295.4c0,0,0.1-5.8,6.5-7c6.4-1.2,11.8-2.8,16-11.9c4.2-9.1,6.1-21.7,11.2-21.1
		c5.1,0.6,11.9,9.1,10.5,25.4c-0.9,10.4-5.2,19.2-10.9,21.6s-25.7,4.4-29.9,0.7C451.7,299.4,452.5,295.4,452.5,295.4z"/>
</g>
<path class="st115" d="M176.5,321.6c1.5,1.5,3,2.9,4.2,4.6c1.2,1.7,2.2,3.6,2.4,5.7c0.1,1.1,0.1,2.1-0.1,3.2
	c-0.5,3.4-2.1,6.5-3.4,9.8c-0.2,0.6-0.4,1.2-0.3,1.8c0.2,0.6,0.7,1,1.2,1.2c0.6,0.2,1.2,0.3,1.8,0.3c0.4,0,0.9,0,1.3-0.1
	c0.7-0.3,1.2-1,1.6-1.7c1.9-3.3,3.7-6.6,4.9-10.2c1.2-3.6,1.7-7.5,0.7-11.2c-0.3-1.4-0.9-2.7-1.4-4c-1-2.4-1.9-4.7-2.9-7.1
	c-0.5-1.2-1-2.5-2.1-3.2l-13-1.3c-0.4,8.5-1.9,17-4.4,25.2c-0.7,2.1-1.4,4.3-1,6.5c0.1,0.6,0.3,1.3,0.7,1.8c0.7,0.9,1.8,1.3,2.9,1.5
	c0.4,0.1,0.8,0.1,1.2,0c0.3-0.1,0.6-0.4,0.8-0.7c0.9-1.2,1.5-2.7,1.9-4.1c1.6-4.8,3.5-10.5,6.1-14.9"/>
<g>
	<path class="st118" d="M186.3,270.6c0,0,0.6,3.5-0.2,5.9c-0.7,2.4-1.7,5.3-4.6,5.4s-8.8-1.6-7.5-4.4s2.1-9.1,5.2-9.1
		S186.3,270.6,186.3,270.6z"/>
</g>
<g>
	<path class="st119" d="M171.2,278.4c0,0,2.3,1.3,4.3,1.5s4.1-0.4,5-2.4c0.9-2,2.2-5.3,3.5-6.3c1.3-1,3.2-0.5,3.2-0.5
		s-2-5.5-6.8-5.3c-4.8,0.2-6.2,2.6-7.4,5.3S171.2,278.4,171.2,278.4z"/>
</g>
<g>
	<path class="st113" d="M176.4,280.8c0,0-1.3,0.8-2.5,1.9c-1.2,1.1-2.2,4.8-2.2,4.8s-1.4,6-1.7,10.5c-0.4,4.4-2.9,5.7-1.5,8.5
		s4.5,4.7,7.9,5c3.4,0.3,6,1.5,7.7-0.7s2-11.2,2.5-13.9c0.4-2.8,1.3-3.6,1.3-3.6l-0.7-11.6L176.4,280.8z"/>
</g>
<g>
	<circle class="st106" cx="498.4" cy="103.5" r="21.9"/>
</g>
<g>
	<path class="st113" d="M163.2,269.3v-49.5c0-1.9-1.6-3.5-3.5-3.5H92.4c-1.9,0-3.5,1.6-3.5,3.5v49.5c0,1.9,1.6,3.5,3.5,3.5h49.5
		l21.3,18.2l-9.8-18.2h6.3C161.6,272.8,163.2,271.3,163.2,269.3z"/>
</g>
<g>
	<path class="st115" d="M221.8,178.1h6.7c1.9,0,3.5-1.6,3.5-3.5v-59.3c0-1.9-1.6-3.5-3.5-3.5h-76.4c-1.9,0-3.5,1.6-3.5,3.5v59.3
		c0,1.9,1.6,3.5,3.5,3.5h56.1l26.4,29.5L221.8,178.1z"/>
</g>
<g>
	<path class="st111" d="M359.1,131.3h-55.5c-1.9,0-3.5,1.6-3.5,3.5v53c0,1.9,1.6,3.5,3.5,3.5h11.3l-12.8,29.5l26.4-29.5h30.6
		c1.9,0,3.5-1.6,3.5-3.5v-53C362.6,132.9,361,131.3,359.1,131.3z"/>
</g>
<g>
	<path class="st107" d="M366.6,280.4H336L312.1,261l10.4,19.4h-4.7c-1.9,0-3.5,1.6-3.5,3.5v39.7c0,1.9,1.6,3.5,3.5,3.5h48.8
		c1.9,0,3.5-1.6,3.5-3.5V284C370.1,282,368.5,280.4,366.6,280.4z"/>
</g>
<g>
	<g>
		<path class="st116" d="M134.2,245.1c0-4.5-3.6-8.1-8.1-8.1c-4.5,0-8.1,3.6-8.1,8.1c0,3,1.6,5.6,4,7v3.9h8.2V252
			C132.5,250.6,134.2,248,134.2,245.1z"/>
	</g>
	<g>
		<path class="st106" d="M130.2,259.3h-8.3c-0.5,0-1-0.4-1-1v-1.5c0-0.5,0.4-1,1-1h8.3c0.5,0,1,0.4,1,1v1.5
			C131.1,258.9,130.7,259.3,130.2,259.3z"/>
	</g>
	<g>
		<path class="st109" d="M130.2,262.7h-8.3c-0.5,0-1-0.4-1-1v-1.5c0-0.5,0.4-1,1-1h8.3c0.5,0,1,0.4,1,1v1.5
			C131.1,262.3,130.7,262.7,130.2,262.7z"/>
	</g>
	<g>
		<path class="st110" d="M130.2,266.1h-8.3c-0.5,0-1-0.4-1-1v-1.5c0-0.5,0.4-1,1-1h8.3c0.5,0,1,0.4,1,1v1.5
			C131.1,265.7,130.7,266.1,130.2,266.1z"/>
	</g>
</g>
<g>
	<g>
		<path class="st115" d="M126,232.5c-0.7,0-1.3-0.6-1.3-1.3v-6.3c0-0.7,0.6-1.3,1.3-1.3s1.3,0.6,1.3,1.3v6.3
			C127.4,231.9,126.8,232.5,126,232.5z"/>
	</g>
	<g>
		<path class="st115" d="M114,241.2c-0.1,0-0.3,0-0.4-0.1l-6-2c-0.7-0.2-1.1-1-0.8-1.7c0.2-0.7,1-1.1,1.7-0.8l6,2
			c0.7,0.2,1.1,1,0.8,1.7C115.1,240.9,114.6,241.2,114,241.2z"/>
	</g>
	<g>
		<path class="st115" d="M118.6,235.1c-0.4,0-0.8-0.2-1.1-0.5l-3.7-5.1c-0.4-0.6-0.3-1.4,0.3-1.8c0.6-0.4,1.4-0.3,1.8,0.3l3.7,5.1
			c0.4,0.6,0.3,1.4-0.3,1.8C119.2,235,118.9,235.1,118.6,235.1z"/>
	</g>
	<g>
		<path class="st115" d="M133.5,235.1c-0.3,0-0.5-0.1-0.8-0.3c-0.6-0.4-0.7-1.3-0.3-1.8l3.7-5.1c0.4-0.6,1.3-0.7,1.8-0.3
			c0.6,0.4,0.7,1.3,0.3,1.8l-3.7,5.1C134.3,234.9,133.9,235.1,133.5,235.1z"/>
	</g>
	<g>
		<path class="st115" d="M138,241.2c-0.6,0-1.1-0.4-1.3-0.9c-0.2-0.7,0.2-1.4,0.8-1.7l6-2c0.7-0.2,1.4,0.2,1.7,0.8
			c0.2,0.7-0.2,1.4-0.8,1.7l-6,2C138.3,241.2,138.2,241.2,138,241.2z"/>
	</g>
</g>
<g>
	<path class="st113" d="M199.1,156.6c-0.3,0-0.7-0.1-0.9-0.4l-13.1-12.8l-19.5,10.8c-0.6,0.4-1.4,0.1-1.8-0.5
		c-0.4-0.6-0.1-1.4,0.5-1.8l20.4-11.3c0.5-0.3,1.1-0.2,1.6,0.2l12.7,12.4l16-23.2c0.4-0.6,1.2-0.8,1.8-0.3c0.6,0.4,0.8,1.2,0.3,1.8
		L200.2,156c-0.2,0.3-0.6,0.5-1,0.6C199.2,156.6,199.2,156.6,199.1,156.6z"/>
</g>
<g>
	<circle class="st116" cx="165" cy="153.1" r="3.6"/>
	<path class="st113" d="M165,158c-2.7,0-4.9-2.2-4.9-4.9c0-2.7,2.2-4.9,4.9-4.9c2.7,0,4.9,2.2,4.9,4.9
		C169.9,155.8,167.7,158,165,158z M165,150.8c-1.3,0-2.3,1-2.3,2.3s1,2.3,2.3,2.3s2.3-1,2.3-2.3S166.3,150.8,165,150.8z"/>
</g>
<g>
	<circle class="st116" cx="185.3" cy="141.8" r="3.6"/>
	<path class="st113" d="M185.3,146.8c-2.7,0-4.9-2.2-4.9-4.9c0-2.7,2.2-4.9,4.9-4.9c2.7,0,4.9,2.2,4.9,4.9
		C190.3,144.5,188.1,146.8,185.3,146.8z M185.3,139.5c-1.3,0-2.3,1-2.3,2.3s1,2.3,2.3,2.3s2.3-1,2.3-2.3S186.6,139.5,185.3,139.5z"
		/>
</g>
<g>
	<circle class="st116" cx="199.1" cy="155.3" r="3.6"/>
	<path class="st113" d="M199.1,160.2c-2.7,0-4.9-2.2-4.9-4.9c0-2.7,2.2-4.9,4.9-4.9c2.7,0,4.9,2.2,4.9,4.9
		C204.1,158,201.8,160.2,199.1,160.2z M199.1,153c-1.3,0-2.3,1-2.3,2.3s1,2.3,2.3,2.3s2.3-1,2.3-2.3S200.4,153,199.1,153z"/>
</g>
<g>
	<circle class="st116" cx="216" cy="130.8" r="3.6"/>
	<path class="st113" d="M216,135.7c-2.7,0-4.9-2.2-4.9-4.9c0-2.7,2.2-4.9,4.9-4.9c2.7,0,4.9,2.2,4.9,4.9
		C221,133.5,218.8,135.7,216,135.7z M216,128.5c-1.3,0-2.3,1-2.3,2.3s1,2.3,2.3,2.3s2.3-1,2.3-2.3S217.3,128.5,216,128.5z"/>
</g>
<g>
	<path class="st116" d="M336.5,177.3C336.5,177.3,336.4,177.3,336.5,177.3c-0.7,0-1.2-0.5-1.3-1.1l-3.1-20.9l-4.2,21
		c-0.1,0.6-0.6,1.1-1.3,1.1c-0.6,0-1.2-0.5-1.3-1.1l-2.6-16.4l-2.4,5.2c-0.2,0.5-0.7,0.8-1.2,0.8h-9.3c-0.7,0-1.3-0.6-1.3-1.3
		s0.6-1.3,1.3-1.3h8.4l3.9-8.4c0.2-0.5,0.8-0.8,1.4-0.8c0.6,0.1,1,0.5,1.1,1.1l2.1,13.4l4.2-21.2c0.1-0.6,0.7-1.1,1.3-1.1
		c0,0,0,0,0,0c0.6,0,1.2,0.5,1.3,1.1l3.3,22.5l3.9-13.2c0.2-0.5,0.6-0.9,1.2-0.9c0.5,0,1.1,0.3,1.3,0.8l2.5,6.5h7
		c0.7,0,1.3,0.6,1.3,1.3s-0.6,1.3-1.3,1.3h-7.9c-0.5,0-1-0.3-1.2-0.8l-1.5-3.8l-4.5,15.3C337.6,177,337.1,177.3,336.5,177.3z"/>
</g>
<g>
	<path class="st116" d="M357.4,299.3c0-1.2-1-2.2-2.2-2.2s-2.2,1-2.2,2.2c0,0.3,0.1,0.7,0.2,0.9l-4.2,3.8l-5-5.9
		c0.4-0.4,0.6-1,0.6-1.7c0-1.4-1.1-2.5-2.5-2.5c-1.4,0-2.5,1.1-2.5,2.5c0,0.6,0.2,1.2,0.6,1.7l-4.9,5.8l-4-3.6
		c0.1-0.3,0.2-0.6,0.2-1c0-1.2-1-2.2-2.2-2.2c-1.2,0-2.2,1-2.2,2.2c0,1.2,0.9,2.1,2,2.2l1.7,9.1c0,0.1,0,0.1,0.1,0.2v3.4
		c0,0.3,0.3,0.6,0.6,0.6H353c0.3,0,0.6-0.3,0.6-0.6v-3.4c0-0.1,0.1-0.1,0.1-0.2l1.7-9.1C356.5,301.5,357.4,300.5,357.4,299.3z
		 M342,295.2c0.7,0,1.3,0.6,1.3,1.3c0,0.7-0.6,1.3-1.3,1.3c-0.7,0-1.3-0.6-1.3-1.3C340.7,295.7,341.3,295.2,342,295.2z M328.2,299.4
		c0-0.6,0.5-1,1-1c0.6,0,1,0.5,1,1c0,0.6-0.5,1-1,1C328.6,300.4,328.2,299.9,328.2,299.4z M355.2,300.4c-0.6,0-1-0.5-1-1
		c0-0.6,0.5-1,1-1c0.6,0,1,0.5,1,1C356.2,299.9,355.7,300.4,355.2,300.4z"/>
</g>
<g>
	<path class="st111" d="M492.6,112.9c-0.4,0-0.7-0.1-1.1-0.4c-0.8-0.6-0.9-1.7-0.3-2.5l5.4-7.2V89.5c0-1,0.8-1.8,1.8-1.8
		c1,0,1.8,0.8,1.8,1.8v14c0,0.4-0.1,0.8-0.4,1.1l-5.8,7.6C493.7,112.7,493.2,112.9,492.6,112.9z"/>
</g>
<g>
	<path class="st108" d="M498.4,76.8c-14.8,0-26.7,12-26.7,26.7c0,14.8,12,26.7,26.7,26.7c14.8,0,26.7-12,26.7-26.7
		C525.1,88.8,513.2,76.8,498.4,76.8z M498.4,124.4c-11.5,0-20.9-9.4-20.9-20.9c0-11.5,9.4-20.9,20.9-20.9c11.5,0,20.9,9.4,20.9,20.9
		C519.3,115.1,510,124.4,498.4,124.4z"/>
</g>
</svg>
