<svg id="Layer_1" data-name="Layer 1" xmlns="http://www.w3.org/2000/svg" viewBox="0 0 240 160"><defs><style>.cls-1{fill:#9aa0ad;}</style></defs><title>ic-logo-deutsche-leasing</title><path id="path2567" class="cls-1" d="M228.54,64.77l-13.24-4.3a14.71,14.71,0,0,0,.78,10,13.32,13.32,0,0,0,7.74,7.08,13.75,13.75,0,0,1-3.66-.4,14.18,14.18,0,0,1-10.55-11.9h-4.73A18.63,18.63,0,0,0,223,82l5.59-17.21"/><path id="path2571" class="cls-1" d="M92.7,75.21l-3,1.56V94.23h3V86.58a3,3,0,0,1,2.87-3.17c1.48,0,2.11.73,2.11,2.44v8.38h3V85.15a4.07,4.07,0,0,0-4.41-4.44,5,5,0,0,0-3.62,1.36Zm29.4,1.56V94.23h9.63v-2.7h-6.51V75.21Zm42.66,9.46-.18-.06c-1.84-.58-2.65-.87-2.65-1.64,0-.59.25-1.27,2.14-1.27a10.88,10.88,0,0,1,3.53.56L168,84V81.29l-.22-.06a13.28,13.28,0,0,0-3.87-.52c-3.08,0-5,1.54-5,4s1.8,3.25,3.79,3.9l.6.2c1.53.49,2.39.8,2.39,1.68,0,.65-.28,1.4-2.49,1.4a9.34,9.34,0,0,1-3.55-.71l-.34-.14-.85,2.4.26.12a11,11,0,0,0,4.63.91c3.46,0,5.44-1.5,5.44-4.13S166.9,86.88,164.76,86.23Zm-53.54.06h-5c.21-2.13,1.11-3.23,2.68-3.23s2.29,1,2.29,3ZM109,80.66c-3.65,0-5.91,2.67-5.91,7s2.44,6.9,6.36,6.9a13,13,0,0,0,3.94-.49l.29-.09L113,91.5l-.31.09a12.4,12.4,0,0,1-2.94.39c-2.07,0-3.2-1.1-3.47-3.32h8l.07-1.79C114.4,82.87,112.47,80.66,109,80.66Zm64.46-5.22a1.83,1.83,0,1,0,1.88,1.83A1.85,1.85,0,0,0,173.44,75.44ZM140.91,86.29h-5c.21-2.13,1.1-3.23,2.67-3.23s2.29,1,2.29,3Zm-2.24-5.63c-3.65,0-5.91,2.67-5.91,7s2.44,6.9,6.36,6.9a13,13,0,0,0,3.95-.49l.28-.09-.63-2.45-.3.09a12.49,12.49,0,0,1-2.95.39c-2.06,0-3.19-1.1-3.46-3.32h8l.06-1.79C144.09,82.87,142.16,80.66,138.67,80.66Zm46.8,0a5,5,0,0,0-3.69,1.48c0-.46,0-1.23,0-1.23H178.8V94.23h3V86.58a3,3,0,0,1,2.87-3.17c1.48,0,2.11.73,2.11,2.44v8.38h3V85.15A4.07,4.07,0,0,0,185.47,80.71Zm-114,5.52-.18-.06c-1.84-.58-2.65-.87-2.65-1.64,0-.59.25-1.27,2.14-1.27a10.88,10.88,0,0,1,3.53.56l.41.14V81.29l-.22-.06a13.32,13.32,0,0,0-3.87-.52c-3.08,0-5,1.54-5,4s1.79,3.25,3.79,3.9l.6.2c1.53.49,2.39.8,2.39,1.68,0,.65-.28,1.4-2.49,1.4a9.34,9.34,0,0,1-3.55-.71l-.34-.14-.85,2.4.26.12a11,11,0,0,0,4.63.91c3.46,0,5.44-1.5,5.44-4.13S73.62,86.88,71.48,86.23Zm-54.56,5.3H14.58V78.94h2.34c3.18,0,4.87,2.18,4.87,6.31S20.1,91.53,16.92,91.53Zm0-15.29H11.46v18H16.9c5.29,0,8.21-3.19,8.21-9S22.19,76.24,16.9,76.24ZM86.55,91.32a7.94,7.94,0,0,1-2.59.43c-2.3,0-3.42-1.36-3.42-4.15s1.14-4.19,3.59-4.19a10.15,10.15,0,0,1,2.57.41l.39.12V81.32l-.18-.08a9.57,9.57,0,0,0-3.23-.48c-4,0-6.36,2.57-6.36,6.87s2.34,6.8,6.26,6.8a10.73,10.73,0,0,0,3.76-.62l.28-.1-.76-2.5Zm114.09-3.24c0,2.22-1.06,3.65-2.69,3.65-1.81,0-2.66-1.31-2.66-4.13,0-2.6,1.11-4.21,2.91-4.21a3.25,3.25,0,0,1,2.44,1Zm.11-7.12s0,.53,0,.74a5,5,0,0,0-3.19-1c-3.28,0-5.49,2.77-5.49,6.89,0,5.83,3.33,6.7,5.31,6.7A4.3,4.3,0,0,0,200.66,93v1.06c0,2-1,2.91-3.36,2.91a11.49,11.49,0,0,1-3-.39l-.32-.08-.5,2.47.29.07a16.54,16.54,0,0,0,4,.46,6.18,6.18,0,0,0,4.45-1.46h0a5.53,5.53,0,0,0,1.44-4.12V81Zm-30.2,2.21.29,0c.37,0,.91.09,1.36.15V94.23h3.05V81h-4.7ZM153.25,91a3.9,3.9,0,0,1-2.62,1c-1.51,0-1.83-.94-1.83-1.73,0-1.34.65-2.24,3.86-2.24h.59Zm-2.17-10.27a14,14,0,0,0-4.11.59l-.22.06V84l.41-.15a10,10,0,0,1,3.45-.68c2.21,0,2.64.75,2.64,2.06v.37l-1,0a11.09,11.09,0,0,0-3.74.59,4.11,4.11,0,0,0-2.8,4.12c0,2.63,1.54,4.13,4.22,4.13a6.17,6.17,0,0,0,3.37-1c0,.22,0,.76,0,.76h2.91v-9C156.27,82.1,154.67,80.71,151.08,80.71Zm-94.52-2V81h-2v2.52h2v6.94c0,2.69,1.3,4,3.86,4a10.1,10.1,0,0,0,2.84-.39l.28-.08L63,91.59l-.32.11a6,6,0,0,1-1.56.21c-1.09,0-1.48-.46-1.48-1.75V83.49h3.27V81H59.61V77.1ZM35.3,86.29h-5c.21-2.13,1.11-3.23,2.68-3.23s2.29,1,2.29,3Zm-2.24-5.63c-3.65,0-5.92,2.67-5.92,7s2.44,6.9,6.37,6.9A13,13,0,0,0,37.45,94l.29-.09-.63-2.45-.31.09a12.4,12.4,0,0,1-2.94.39c-2.07,0-3.2-1.1-3.47-3.32h8l.06-1.79C38.47,82.87,36.55,80.66,33.06,80.66Zm16.08,8a3,3,0,0,1-2.89,3.15c-1.48,0-2.08-.67-2.08-2.32V81H41.12v9c0,2.89,1.55,4.48,4.38,4.48A5,5,0,0,0,49.21,93c0,.45,0,1.21,0,1.21h3V81h-3v7.69"/></svg>