<?xml version="1.0" encoding="utf-8"?>
<!-- Generator: Adobe Illustrator 23.0.2, SVG Export Plug-In . SVG Version: 6.00 Build 0)  -->
<svg version="1.1" id="Layer_1" xmlns="http://www.w3.org/2000/svg" xmlns:xlink="http://www.w3.org/1999/xlink" x="0px" y="0px"
	 viewBox="0 0 48 48" style="enable-background:new 0 0 48 48;" xml:space="preserve">
<style type="text/css">
	.st0{fill:#FFFFFF;}
</style>
<path class="st0" d="M39.2,8.9H22.9c-0.6,0-1,0.4-1,1V25l2-1.2v-4.7h10.9c0.6,0,1-0.4,1-1s-0.4-1-1-1H23.9v-1.8h10.9
	c0.6,0,1-0.4,1-1s-0.4-1-1-1H23.9v-2.4h14.3V39h-1.8v-6.5c0-0.6-0.4-1-1-1h-3.8c-0.6,0-1,0.4-1,1V39h-2.8v1h-6c0,0.6,0.4,1,1,1h8.8
	h3.8h3.8c0.6,0,1-0.4,1-1V9.9C40.2,9.4,39.7,8.9,39.2,8.9z M34.4,39.1h-1.8v-5.5h1.8V39.1z"/>
<path class="st0" d="M35.8,21.9c0-0.6-0.4-1-1-1h-6.9c-0.6,0-1,0.4-1,1l1-0.6v1.6h6.9C35.4,22.9,35.8,22.4,35.8,21.9z"/>
<path class="st0" d="M35.8,25.6c0-0.6-0.4-1-1-1h-6.9v2h6.9C35.4,26.6,35.8,26.2,35.8,25.6z"/>
<path class="st0" d="M35.8,29.4c0-0.6-0.4-1-1-1h-6.9v2h6.9C35.4,30.4,35.8,29.9,35.8,29.4z"/>
<path class="st0" d="M27.9,41.1H7.8c-0.6,0-1-0.4-1-1V27.5c0-0.3,0.2-0.7,0.5-0.8l10-6.3c0.3-0.2,0.7-0.2,1,0s0.5,0.5,0.5,0.9v4.5
	l8.5-5.3c0.3-0.2,0.7-0.2,1,0s0.5,0.5,0.5,0.9v18.8C28.9,40.6,28.4,41.1,27.9,41.1z M8.8,39.1h18.1V23l-8.5,5.3
	c-0.3,0.2-0.7,0.2-1,0s-0.5-0.5-0.5-0.9V23l-8,5v11.1H8.8z"/>
</svg>
