<svg id="Layer_1" data-name="Layer 1" xmlns="http://www.w3.org/2000/svg" viewBox="0 0 48 48"><defs><style>.cls-1{fill:#2a3141;}</style></defs><title>ic-md-scan</title><path class="cls-1" d="M41,27H7a1,1,0,0,1-1-1V22a1,1,0,0,1,1-1H41a1,1,0,0,1,1,1v4A1,1,0,0,1,41,27ZM8,25H40V23H8Z"/><path class="cls-1" d="M13,18H10a1,1,0,0,1-1-1V10a1,1,0,0,1,1-1h7a1,1,0,0,1,1,1v3a1,1,0,0,1-1,1H14v3A1,1,0,0,1,13,18Zm-2-2h1V13a1,1,0,0,1,1-1h3V11H11Z"/><path class="cls-1" d="M38,18H35a1,1,0,0,1-1-1V14H31a1,1,0,0,1-1-1V10a1,1,0,0,1,1-1h7a1,1,0,0,1,1,1v7A1,1,0,0,1,38,18Zm-2-2h1V11H32v1h3a1,1,0,0,1,1,1Z"/><path class="cls-1" d="M38,39H31a1,1,0,0,1-1-1V35a1,1,0,0,1,1-1h3V31a1,1,0,0,1,1-1h3a1,1,0,0,1,1,1v7A1,1,0,0,1,38,39Zm-6-2h5V32H36v3a1,1,0,0,1-1,1H32Z"/><path class="cls-1" d="M17,39H10a1,1,0,0,1-1-1V31a1,1,0,0,1,1-1h3a1,1,0,0,1,1,1v3h3a1,1,0,0,1,1,1v3A1,1,0,0,1,17,39Zm-6-2h5V36H13a1,1,0,0,1-1-1V32H11Z"/><path class="cls-1" d="M25,18H23a2,2,0,0,1-2-2V9a2,2,0,0,1,2-2h2a2,2,0,0,1,2,2v7A2,2,0,0,1,25,18ZM23,9v7h2V9Z"/><path class="cls-1" d="M25,41H23a2,2,0,0,1-2-2V32a2,2,0,0,1,2-2h2a2,2,0,0,1,2,2v7A2,2,0,0,1,25,41Zm-2-9v7h2V32Z"/></svg>