<svg id="Layer_1" data-name="Layer 1" xmlns="http://www.w3.org/2000/svg" viewBox="0 0 48 48"><defs><style>.cls-1{fill:#fff;}.cls-1,.cls-2{stroke:#2a3141;stroke-linejoin:round;stroke-width:2px;}.cls-2{fill:none;}</style></defs><title>ic-md-documents</title><polygon class="cls-1" points="37.92 34.65 17.63 34.65 17.63 6 32.55 6 37.92 11.37 37.92 34.65"/><polyline class="cls-2" points="31.95 6 31.95 11.64 37.92 11.64"/><polygon class="cls-1" points="34.15 38.23 13.86 38.23 13.86 9.58 28.77 9.58 34.15 14.95 34.15 38.23"/><polyline class="cls-2" points="28.18 9.58 28.18 15.23 34.15 15.23"/><polygon class="cls-1" points="30.37 42 10.08 42 10.08 13.36 25 13.36 30.37 18.73 30.37 42"/><line class="cls-2" x1="13.66" y1="18.13" x2="19.63" y2="18.13"/><line class="cls-2" x1="13.66" y1="25.23" x2="26.79" y2="25.23"/><line class="cls-2" x1="13.66" y1="29.23" x2="22.02" y2="29.23"/><line class="cls-2" x1="13.66" y1="33.23" x2="24.4" y2="33.23"/><line class="cls-2" x1="20.82" y1="37.23" x2="26.79" y2="37.23"/><polyline class="cls-2" points="24.4 13.36 24.4 19 30.37 19"/></svg>