<svg id="Layer_1" data-name="Layer 1" xmlns="http://www.w3.org/2000/svg" viewBox="0 0 48 48"><defs><style>.cls-1{fill:none;stroke:#2a3141;stroke-linecap:round;stroke-linejoin:round;stroke-width:2px;}.cls-2{fill:#2a3141;}</style></defs><title>ic-md-servers</title><rect class="cls-1" x="17" y="7" width="24" height="8"/><rect class="cls-1" x="11" y="19" width="16.69" height="7"/><rect class="cls-1" x="30.64" y="19" width="7.36" height="7"/><rect class="cls-1" x="17" y="31" width="24" height="8"/><circle class="cls-1" cx="36" cy="11" r="1"/><circle class="cls-1" cx="35.5" cy="35" r="1"/><circle class="cls-2" cx="14.5" cy="22.75" r="1"/><circle class="cls-2" cx="17.5" cy="22.75" r="1"/><circle class="cls-2" cx="20.5" cy="22.75" r="1"/><path class="cls-1" d="M17,11H10a6,6,0,0,0-6,6H4a6,6,0,0,0,6,6h1"/><path class="cls-1" d="M17,35H10a6,6,0,0,1-6-6H4a6,6,0,0,1,6-6h1"/></svg>