<svg id="Layer_1" data-name="Layer 1" xmlns="http://www.w3.org/2000/svg" viewBox="0 0 48 48"><defs><style>.cls-1{fill:#fff;}</style></defs><title>ic-md-report-wh</title><path class="cls-1" d="M42,13.66H37.12V8.78a2,2,0,0,0-2-2H7.78a2,2,0,0,0-2,2V32.12a2,2,0,0,0,2,2h4.88V39a2,2,0,0,0,2,2H42a2,2,0,0,0,2-2V15.66A2,2,0,0,0,42,13.66ZM24,34.12h4.67V35H24Zm6.67,0h4.46A2,2,0,0,0,36.91,33H38v2H30.66Zm4.46-2h-22V8.78h22ZM7.78,8.78h3.33V32.12H7.78ZM14.66,39V34.12H18V39ZM20,39V34.12h2V36a1,1,0,0,0,1,1H39a1,1,0,0,0,1-1V32a1,1,0,0,0-1-1H37.12V15.66H42V39Z"/><path class="cls-1" d="M24.12,22.12a5.67,5.67,0,1,0-5.67-5.67A5.68,5.68,0,0,0,24.12,22.12Zm0-9.34a3.67,3.67,0,1,1-3.67,3.67A3.67,3.67,0,0,1,24.12,12.78Z"/><path class="cls-1" d="M16.11,30.12h16a1,1,0,0,0,1-1v-4a1,1,0,0,0-1-1h-16a1,1,0,0,0-1,1v4A1,1,0,0,0,16.11,30.12Zm15-2H23.78v-2h7.34Zm-14-2h4.67v2H17.11Z"/></svg>