<?xml version="1.0" encoding="utf-8"?>
<!-- Generator: Adobe Illustrator 23.0.2, SVG Export Plug-In . SVG Version: 6.00 Build 0)  -->
<svg version="1.1" id="Layer_1" xmlns="http://www.w3.org/2000/svg" xmlns:xlink="http://www.w3.org/1999/xlink" x="0px" y="0px"
	 viewBox="0 0 48 48" style="enable-background:new 0 0 48 48;" xml:space="preserve">
<style type="text/css">
	.st0{fill:#FFFFFF;}
</style>
<g>
	<path class="st0" d="M40.1,37.1H21c-0.9,0-1.6,0.7-1.6,1.6v3.6c0,0.9,0.7,1.6,1.6,1.6h19.1c0.9,0,1.6-0.7,1.6-1.6v-3.6
		C41.7,37.9,41,37.1,40.1,37.1z M39.7,41.9H21.4v-2.8h18.3V41.9z"/>
	<path class="st0" d="M28.6,34v-3.6c0-0.9-0.7-1.6-1.6-1.6H16.3c-0.9,0-1.6,0.7-1.6,1.6V34c0,0.9,0.7,1.6,1.6,1.6H27
		C27.9,35.6,28.6,34.9,28.6,34z M26.6,33.6h-9.9v-2.8h9.9V33.6z"/>
	<path class="st0" d="M35.9,35.6c0.9,0,1.6-0.7,1.6-1.6v-3.6c0-0.9-0.7-1.6-1.6-1.6h-3.6c-0.9,0-1.6,0.7-1.6,1.6V34
		c0,0.9,0.7,1.6,1.6,1.6H35.9z M32.8,30.8h2.8v2.8h-2.8V30.8z"/>
	<path class="st0" d="M40.1,20.5h-6.9c0.1-0.4,0.1-0.8,0.1-1.3c0-2.8-2-5.1-4.7-5.6c-0.3-2.1-1.4-4.1-3-5.6
		c-1.9-1.7-4.3-2.5-6.8-2.4C14,6,10.2,9.9,10,14.6C7.7,15.2,6,17.4,6.1,20c0.2,2.8,2.4,4.9,5.1,4.9c0.1,0,0.2,0,0.3,0h7.9v0.8
		c0,0.9,0.7,1.6,1.6,1.6h19.1c0.9,0,1.6-0.7,1.6-1.6v-3.6C41.7,21.2,41,20.5,40.1,20.5z M19.4,22.1v0.8l-8,0c-1.7,0.1-3.3-1.2-3.3-3
		s1.2-3.3,3-3.3c0.6,0,1-0.5,0.9-1.1c-0.2-4,2.9-7.5,6.9-7.7c0.1,0,0.3,0,0.4,0c1.8,0,3.5,0.7,4.9,1.9c1.5,1.3,2.3,3.1,2.4,5.1
		c0,0.5,0.5,0.9,1,0.9c0,0,0.1,0,0.1,0c2,0.1,3.5,1.7,3.5,3.6c0,0.4-0.1,0.9-0.2,1.3H21C20.2,20.5,19.4,21.2,19.4,22.1z M39.7,25.2
		H21.4v-2.8h18.3V25.2z"/>
</g>
</svg>
