<svg id="Layer_1" data-name="Layer 1" xmlns="http://www.w3.org/2000/svg" viewBox="0 0 48 48"><defs><style>.cls-1{fill:#fff;stroke:#2a3141;stroke-linecap:round;stroke-linejoin:round;stroke-width:2px;}</style></defs><title>ic-md-members</title><path class="cls-1" d="M22.64,22.17c0,3-.55,6-2.75,7.14-.83.42-7.8.5-8.78,0-2.2-1.09-2.75-4.37-2.75-7.14a7.14,7.14,0,0,1,14.28,0Z"/><circle class="cls-1" cx="15.5" cy="12.84" r="5.49"/><path class="cls-1" d="M37.64,27.17c0,3-.55,6-2.75,7.14-.83.42-7.8.5-8.78,0-2.2-1.09-2.75-4.37-2.75-7.14a7.14,7.14,0,0,1,14.28,0Z"/><circle class="cls-1" cx="30.5" cy="17.84" r="5.49"/><path class="cls-1" d="M31.14,33.17c0,3-.55,6-2.75,7.14-.83.42-7.8.5-8.78,0-2.2-1.09-2.75-4.37-2.75-7.14a7.14,7.14,0,0,1,14.28,0Z"/><circle class="cls-1" cx="24" cy="23.84" r="5.49"/></svg>