<svg id="Layer_1" data-name="Layer 1" xmlns="http://www.w3.org/2000/svg" viewBox="0 0 48 48"><defs><style>.cls-1{fill:#fff;}.cls-2{fill:#2a3141;}</style></defs><title>ic-md-press</title><path class="cls-1" d="M35,39Zm0,0Zm0,0a2.62,2.62,0,0,0,2.21-1A2.58,2.58,0,0,1,35,39Zm0,0a2.58,2.58,0,0,1-2.21-1A2.62,2.62,0,0,0,35,39Zm3-4Zm-6,0Zm6,0Zm-6,0Zm0-7h0v0Z"/><path class="cls-2" d="M38,27H32a1,1,0,0,0-1,1v7c0,3.13,1.5,5,4,5s4-1.87,4-5V28a1,1,0,0,0-1-1ZM35,38c-.5,0-2,0-2-3V29h4v6c0,3-1.5,3-2,3Z"/><path class="cls-1" d="M33.27,39l-.67-1.29A2.64,2.64,0,0,0,35,39ZM15,39Zm0,0a2.58,2.58,0,0,1-2.21-1A2.62,2.62,0,0,0,15,39Zm17-4Zm0,0ZM12,35Zm20,0ZM12,35Zm0-24h0v0Z"/><path class="cls-2" d="M32,10H12a1,1,0,0,0-1,1V35c0,3.13,1.5,5,4,5H35a1,1,0,0,0,0-2c-.5,0-2,0-2-3V11a1,1,0,0,0-1-1ZM15,38c-.49,0-2,0-2-3V12H31V35a6.5,6.5,0,0,0,.63,3Z"/><rect class="cls-1" x="15" y="14" width="11" height="2"/><polygon class="cls-2" points="26 14 15 14 15 16 26 16 26 14 26 14"/><rect class="cls-2" x="15" y="20" width="6" height="6"/><rect class="cls-1" x="23" y="20" width="6" height="2"/><polygon class="cls-2" points="29 20 23 20 23 22 29 22 29 20 29 20"/><rect class="cls-1" x="23" y="24" width="4" height="2"/><polygon class="cls-2" points="27 24 23 24 23 26 27 26 27 24 27 24"/><rect class="cls-1" x="15" y="28" width="10" height="2"/><polygon class="cls-2" points="25 28 15 28 15 30 25 30 25 28 25 28"/><rect class="cls-1" x="15" y="32" width="13" height="2"/><polygon class="cls-2" points="28 32 15 32 15 34 28 34 28 32 28 32"/></svg>