<?xml version="1.0" encoding="utf-8"?>
<!-- Generator: Adobe Illustrator 23.0.2, SVG Export Plug-In . SVG Version: 6.00 Build 0)  -->
<svg version="1.1" id="Layer_1" xmlns="http://www.w3.org/2000/svg" xmlns:xlink="http://www.w3.org/1999/xlink" x="0px" y="0px"
	 viewBox="0 0 48 48" style="enable-background:new 0 0 48 48;" xml:space="preserve">
<style type="text/css">
	.st0{fill:#FFFFFF;}
</style>
<g>
	<title>ic-md-servers</title>
	<g>
		<path class="st0" d="M40.6,18.4H18.4c-0.5,0-0.9-0.4-0.9-0.9V10c0-0.5,0.4-0.9,0.9-0.9h22.2c0.5,0,0.9,0.4,0.9,0.9v7.4
			C41.5,18,41.1,18.4,40.6,18.4z M19.3,16.5h20.3V11H19.3V16.5z"/>
	</g>
	<g>
		<path class="st0" d="M28.3,28.6H12.9c-0.5,0-0.9-0.4-0.9-0.9v-6.5c0-0.5,0.4-0.9,0.9-0.9h15.4c0.5,0,0.9,0.4,0.9,0.9v6.5
			C29.2,28.1,28.8,28.6,28.3,28.6z M13.8,26.6h13.6V22H13.8V26.6z"/>
	</g>
	<g>
		<path class="st0" d="M37.8,28.6H31c-0.5,0-0.9-0.4-0.9-0.9v-6.5c0-0.5,0.4-0.9,0.9-0.9h6.8c0.5,0,0.9,0.4,0.9,0.9v6.5
			C38.7,28.1,38.3,28.6,37.8,28.6z M31.9,26.6h4.9V22h-4.9V26.6z"/>
	</g>
	<g>
		<path class="st0" d="M40.6,40.5H18.4c-0.5,0-0.9-0.4-0.9-0.9v-7.4c0-0.5,0.4-0.9,0.9-0.9h22.2c0.5,0,0.9,0.4,0.9,0.9v7.4
			C41.5,40.1,41.1,40.5,40.6,40.5z M19.3,38.6h20.3v-5.5H19.3V38.6z"/>
	</g>
	<g>
		<circle class="st0" cx="36" cy="13.8" r="1.8"/>
	</g>
	<g>
		<circle class="st0" cx="35.5" cy="35.9" r="1.8"/>
	</g>
	<g>
		<circle class="st0" cx="16.1" cy="24.6" r="0.9"/>
	</g>
	<g>
		<circle class="st0" cx="18.9" cy="24.6" r="0.9"/>
	</g>
	<g>
		<circle class="st0" cx="21.7" cy="24.6" r="0.9"/>
	</g>
	<g>
		<path class="st0" d="M12.9,25.8H12c-3.6,0-6.5-2.9-6.5-6.5s2.9-6.4,6.5-6.4h6.5c0.5,0,0.9,0.4,0.9,0.9s-0.4,0.9-0.9,0.9H12
			c-2.5,0-4.6,2.1-4.6,4.6s2.1,4.6,4.6,4.6h0.9c0.5,0,0.9,0.4,0.9,0.9S13.4,25.8,12.9,25.8z"/>
	</g>
	<g>
		<path class="st0" d="M18.4,36.8H12c-3.6,0-6.5-2.9-6.5-6.5s2.9-6.5,6.5-6.5h0.9c0.5,0,0.9,0.4,0.9,0.9s-0.4,0.9-0.9,0.9H12
			c-2.5,0-4.6,2.1-4.6,4.6s2.1,4.6,4.6,4.6h6.5c0.5,0,0.9,0.4,0.9,0.9S18.9,36.8,18.4,36.8z"/>
	</g>
</g>
</svg>
