<svg id="Layer_1" data-name="Layer 1" xmlns="http://www.w3.org/2000/svg" viewBox="0 0 48 48"><defs><style>.cls-1{fill:#fff;}.cls-2{fill:#ef7e53;}.cls-3{fill:#2a3141;}</style></defs><title>ic-md-location</title><ellipse class="cls-1" cx="24" cy="38" rx="15.5" ry="4.5"/><path class="cls-2" d="M24,35c7.9,0,12.6,1.92,13.8,3-1.2,1.08-5.9,3-13.8,3s-12.6-1.92-13.8-3c1.2-1.08,5.9-3,13.8-3m0-3c-9.39,0-17,2.69-17,6s7.61,6,17,6,17-2.69,17-6-7.61-6-17-6Z"/><path class="cls-1" d="M24,37.21c-2.86-1.92-12.67-9.17-12.67-18A13,13,0,0,1,24,6.5,12.4,12.4,0,0,1,36.67,19.17C36.67,28,26.86,35.29,24,37.21ZM24,12a7.17,7.17,0,1,0,7.17,7.17A7.18,7.18,0,0,0,24,12Z"/><path class="cls-3" d="M24,8A10.94,10.94,0,0,1,35.17,19.17C35.17,26.62,27.39,33,24,35.39,20.61,33,12.83,26.62,12.83,19.17A11.46,11.46,0,0,1,24,8m0,19.83a8.67,8.67,0,1,0-8.67-8.66A8.67,8.67,0,0,0,24,27.83M24,5A14.52,14.52,0,0,0,9.83,19.17C9.83,30.5,24,39,24,39s14.17-8.5,14.17-19.83A13.91,13.91,0,0,0,24,5Zm0,19.83a5.67,5.67,0,1,1,5.67-5.66A5.66,5.66,0,0,1,24,24.83Z"/></svg>