<svg id="Layer_1" data-name="Layer 1" xmlns="http://www.w3.org/2000/svg" viewBox="0 0 32 32"><defs><style>.cls-1{fill:#fff;}</style></defs><title>ic-sm-user-pm-wh</title><polygon class="cls-1" points="28 16 28 17 32 17 32 13 28 13 28 14 28 16"/><polygon class="cls-1" points="26 16 26 14 22 14 20 14 20 16 20 21 20 23 20 28 20 30 22 30 26 30 26 28 22 28 22 23 26 23 26 21 22 21 22 16 26 16"/><polygon class="cls-1" points="28 23 28 24 32 24 32 20 28 20 28 21 28 23"/><polygon class="cls-1" points="28 30 28 31 32 31 32 27 28 27 28 28 28 30"/><path class="cls-1" d="M18.67,7.67A7.67,7.67,0,1,0,4.68,12,11,11,0,0,0,0,19.44a2.2,2.2,0,0,0,.53,1.77A2.27,2.27,0,0,0,2.26,22H18V20H2.26a.26.26,0,0,1-.21-.1A.23.23,0,0,1,2,19.72a9,9,0,0,1,4-6.24,7.65,7.65,0,0,0,10,0,9.21,9.21,0,0,1,2,1.81V12.52c-.22-.18-.45-.35-.68-.52A7.59,7.59,0,0,0,18.67,7.67ZM11,13.33a5.67,5.67,0,1,1,5.67-5.66A5.68,5.68,0,0,1,11,13.33Z"/></svg>