<svg id="Layer_1" data-name="Layer 1" xmlns="http://www.w3.org/2000/svg" viewBox="0 0 960 617"><defs><style>.cls-1{fill:#f5f6f8;}.cls-2{fill:#21abb0;}.cls-3{fill:#3a5081;}.cls-4{fill:#29426f;}.cls-5{fill:#2a3141;}.cls-6{fill:#f46c21;}.cls-7{fill:#ef7e53;}.cls-8{fill:#f5b54d;}.cls-9{fill:#fff;}</style></defs><title>il-product-features-timeline</title><path class="cls-1" d="M176,362H960a0,0,0,0,1,0,0V465a0,0,0,0,1,0,0H176a8,8,0,0,1-8-8V370a8,8,0,0,1,8-8Z" transform="translate(1128 827) rotate(-180)"/><path class="cls-1" d="M176,486H960a0,0,0,0,1,0,0V589a0,0,0,0,1,0,0H176a8,8,0,0,1-8-8V494a8,8,0,0,1,8-8Z" transform="translate(1128 1075) rotate(-180)"/><path class="cls-1" d="M176,158H960a0,0,0,0,1,0,0V341a0,0,0,0,1,0,0H176a8,8,0,0,1-8-8V166A8,8,0,0,1,176,158Z" transform="translate(1128 499) rotate(-180)"/><path class="cls-1" d="M176,34H960a0,0,0,0,1,0,0V137a0,0,0,0,1,0,0H176a8,8,0,0,1-8-8V42a8,8,0,0,1,8-8Z" transform="translate(1128 171) rotate(-180)"/><rect class="cls-2" x="198" y="54" width="267" height="40" rx="20"/><rect class="cls-3" x="248" y="174" width="267" height="40" rx="20"/><rect class="cls-4" x="362" y="229" width="267" height="40" rx="20"/><rect class="cls-5" x="498" y="284" width="267" height="40" rx="20"/><rect class="cls-6" x="310" y="376" width="267" height="40" rx="20"/><rect class="cls-7" x="632" y="414" width="267" height="40" rx="20"/><rect class="cls-8" x="395" y="506" width="267" height="40" rx="20"/><path class="cls-2" d="M8,34H168a0,0,0,0,1,0,0V137a0,0,0,0,1,0,0H8a8,8,0,0,1-8-8V42a8,8,0,0,1,8-8Z"/><path class="cls-7" d="M8,362H168a0,0,0,0,1,0,0V465a0,0,0,0,1,0,0H8a8,8,0,0,1-8-8V370a8,8,0,0,1,8-8Z"/><path class="cls-8" d="M8,486H168a0,0,0,0,1,0,0V589a0,0,0,0,1,0,0H8a8,8,0,0,1-8-8V494a8,8,0,0,1,8-8Z"/><path class="cls-4" d="M8,158H168a0,0,0,0,1,0,0V341a0,0,0,0,1,0,0H8a8,8,0,0,1-8-8V166A8,8,0,0,1,8,158Z"/><path class="cls-9" d="M23.48,57.12V69.53H21.73l-5.42-9v9H14.46V57.12h1.8l5.36,9v-9Z"/><path class="cls-9" d="M34,66H27.28a2.39,2.39,0,0,0,2.61,2,2.7,2.7,0,0,0,2.36-1.19l1.4.7a4.22,4.22,0,0,1-3.85,2.13,4.39,4.39,0,0,1,0-8.77A4.09,4.09,0,0,1,34,65.28C34,65.51,34,65.77,34,66Zm-1.72-1.43a2.27,2.27,0,0,0-2.44-2,2.35,2.35,0,0,0-2.52,2Z"/><path class="cls-9" d="M47.74,61.12l-3.07,8.41h-1.5L41,63.5l-2.1,6H37.43l-3.19-8.41h1.91l2,5.74,2-5.74h1.66l2,5.74,2-5.74Z"/><path class="cls-9" d="M56.51,64.9H55.08v4.63H53.23V57.12H58a3.62,3.62,0,0,1,3.81,3.93,3.53,3.53,0,0,1-3.18,3.81l3.29,4.67H59.68Zm-1.43-1.62h2.44c1.71,0,2.41-.92,2.41-2.23a2,2,0,0,0-2-2.24H55.08Z"/><path class="cls-9" d="M71.34,66H64.65a2.39,2.39,0,0,0,2.61,2,2.7,2.7,0,0,0,2.36-1.19l1.4.7a4.4,4.4,0,1,1-3.85-6.64,4.09,4.09,0,0,1,4.21,4.34C71.38,65.51,71.36,65.77,71.34,66Zm-1.72-1.43a2.27,2.27,0,0,0-2.44-2,2.35,2.35,0,0,0-2.52,2Z"/><path class="cls-9" d="M73,56.56h1.77v13H73Z"/><path class="cls-9" d="M84.89,66h-6.7a2.39,2.39,0,0,0,2.61,2,2.7,2.7,0,0,0,2.36-1.19l1.4.7a4.4,4.4,0,1,1-3.85-6.64,4.09,4.09,0,0,1,4.21,4.34C84.92,65.51,84.9,65.77,84.89,66Zm-1.73-1.43a2.26,2.26,0,0,0-2.43-2,2.34,2.34,0,0,0-2.52,2Z"/><path class="cls-9" d="M94.86,61.12v8.41H93.1V68.27a3.37,3.37,0,0,1-2.9,1.44,4.39,4.39,0,0,1,0-8.77,3.32,3.32,0,0,1,2.92,1.42V61.12ZM93.08,65.3a2.66,2.66,0,0,0-2.68-2.69,2.6,2.6,0,0,0-2.62,2.69,2.65,2.65,0,1,0,5.3,0Z"/><path class="cls-9" d="M96.44,67h1.64c0,.67.6,1.24,1.55,1.24s1.57-.45,1.57-1.08-.45-.84-1.08-1L99,65.87c-1.56-.41-2.28-1.22-2.28-2.46s1.24-2.47,3-2.47c1.44,0,3,.76,3,2.52H101a1.18,1.18,0,0,0-1.26-1,1.11,1.11,0,0,0-1.24,1c0,.52.48.81,1,.94l1.28.3A2.45,2.45,0,0,1,103,67.17c0,1.6-1.58,2.54-3.31,2.54A3,3,0,0,1,96.44,67Z"/><path class="cls-9" d="M112.52,66h-6.7a2.4,2.4,0,0,0,2.62,2,2.67,2.67,0,0,0,2.35-1.19l1.41.7a4.4,4.4,0,1,1-3.86-6.64,4.09,4.09,0,0,1,4.22,4.34C112.56,65.51,112.54,65.77,112.52,66Zm-1.73-1.43a2.25,2.25,0,0,0-2.43-2,2.34,2.34,0,0,0-2.52,2Z"/><path d="M207,11.19v2.34h-8.37V12.18l4.86-5.83a3.32,3.32,0,0,0,.85-1.69,1.49,1.49,0,0,0-1.65-1.43A1.84,1.84,0,0,0,200.84,5l-2.26-.38A4,4,0,0,1,202.82.91c2.49,0,4.1,1.51,4.1,3.77a4.77,4.77,0,0,1-1.37,3.15l-2.92,3.36Z"/><path d="M209,7.34c0-3.6,1-6.43,4.64-6.43s4.6,2.83,4.6,6.43-1,6.36-4.6,6.36S209,10.87,209,7.34Zm6.71,0c0-2.3-.48-4.11-2.07-4.11S211.49,5,211.49,7.34s.49,4,2.11,4S215.67,9.6,215.67,7.34Z"/><path d="M225,.91V13.53H222.5V4.3l-2.87,1.1V3.06L224.8.91Z"/><path d="M236.9,6.88c0,3.68-1.76,6.82-5.26,6.82a4.25,4.25,0,0,1-4-2.47l2-1.1a2.14,2.14,0,0,0,2,1.25c1.56,0,2.66-1.39,2.76-3.32a3.69,3.69,0,0,1-2.7,1,4,4,0,0,1-4.2-4c0-2.37,1.82-4.18,4.6-4.18S236.9,3.35,236.9,6.88Zm-2.73-1.73a2,2,0,0,0-2.07-1.92A1.89,1.89,0,1,0,232,7,2,2,0,0,0,234.17,5.15Z"/><path d="M248.23.91V13.53h-2.51V4.3l-2.87,1.1V3.06L248,.91Z"/><path d="M261,12.52l1.27,2.09-1.88,1.14L259,13.47a7.33,7.33,0,0,1-1.82.25A6.66,6.66,0,0,1,250.57,7a6.66,6.66,0,1,1,13.32,0A6.74,6.74,0,0,1,261,12.52Zm-3.38-1.31-1.13-1.86,1.87-1.14,1.31,2.15A4.26,4.26,0,0,0,261.23,7a4,4,0,1,0-8,0,4,4,0,0,0,4,4.24A3.17,3.17,0,0,0,257.66,11.21Z"/><path class="cls-9" d="M218.35,74.24v4.29h-1.28V68.78h3.81c2,0,3.07,1.09,3.07,2.6a2.22,2.22,0,0,1-1.67,2.3c.8.21,1.49.81,1.49,2.49v.43a6.6,6.6,0,0,0,.14,1.93h-1.26a6.3,6.3,0,0,1-.17-2.1v-.2c0-1.39-.39-2-2.15-2Zm0-1.09h2.11c1.5,0,2.14-.56,2.14-1.65s-.67-1.63-2-1.63h-2.27Z"/><path class="cls-9" d="M226.54,75.19c0,1.45.74,2.48,1.94,2.48a1.63,1.63,0,0,0,1.71-1.1h1.25a2.9,2.9,0,0,1-3,2.13c-2.23,0-3.14-1.82-3.14-3.65,0-2.11,1.07-3.79,3.23-3.79s3,1.83,3,3.35a5.24,5.24,0,0,1,0,.58Zm3.78-.85c0-1.18-.6-2.11-1.81-2.11s-1.8.86-1.93,2.11Z"/><path class="cls-9" d="M233.08,78.53V68.25h1.23V78.53Z"/><path class="cls-9" d="M237.05,75.19c0,1.45.74,2.48,1.94,2.48a1.63,1.63,0,0,0,1.71-1.1H242a2.9,2.9,0,0,1-3,2.13c-2.23,0-3.14-1.82-3.14-3.65,0-2.11,1.07-3.79,3.23-3.79s3,1.83,3,3.35a5.24,5.24,0,0,1,0,.58Zm3.78-.85c0-1.18-.6-2.11-1.81-2.11s-1.81.86-1.93,2.11Z"/><path class="cls-9" d="M248.87,77a9.89,9.89,0,0,0,.1,1.56h-1.18a3.39,3.39,0,0,1-.11-.93,2.25,2.25,0,0,1-2.2,1.1,2.16,2.16,0,0,1-2.4-2.17c0-1.59,1.25-2.32,3.36-2.32h1.21v-.6c0-.63-.2-1.38-1.53-1.38-1.17,0-1.38.58-1.51,1.13h-1.19c.1-1,.7-2.1,2.74-2.1,1.74,0,2.71.71,2.71,2.32Zm-1.21-1.9h-1.15c-1.41,0-2.17.39-2.17,1.39a1.25,1.25,0,0,0,1.39,1.27c1.71,0,1.93-1.15,1.93-2.44Z"/><path class="cls-9" d="M251.45,76.5a1.61,1.61,0,0,0,1.74,1.23c1,0,1.44-.45,1.44-1.09s-.32-1-1.68-1.31c-2-.49-2.45-1.12-2.45-2.08s.74-2,2.56-2,2.6,1.06,2.68,2h-1.18A1.42,1.42,0,0,0,253,72.21c-1,0-1.3.48-1.3.94s.29.8,1.6,1.11c2.15.51,2.59,1.23,2.59,2.28,0,1.25-1,2.16-2.76,2.16s-2.75-.93-2.93-2.2Z"/><path class="cls-9" d="M258.17,75.19c0,1.45.75,2.48,1.95,2.48a1.64,1.64,0,0,0,1.71-1.1h1.25a2.92,2.92,0,0,1-3,2.13c-2.23,0-3.14-1.82-3.14-3.65,0-2.11,1.06-3.79,3.22-3.79s3,1.83,3,3.35c0,.22,0,.4,0,.58Zm3.78-.85c0-1.18-.6-2.11-1.8-2.11s-1.81.86-1.94,2.11Z"/><path class="cls-9" d="M269.72,78.53V70.78a6.2,6.2,0,0,1-1.9.8v-1a5.91,5.91,0,0,0,2.24-1.32H271v9.26Z"/><path class="cls-9" d="M273.23,78.53V76.46h1.29v2.07Z"/><path class="cls-9" d="M281,71.31a1.46,1.46,0,0,0-1.55-1.16c-1.56,0-2.06,1.46-2.1,3.41a2.51,2.51,0,0,1,2.34-1.29,2.79,2.79,0,0,1,2.83,3.06,3.08,3.08,0,0,1-3.11,3.37c-2.55,0-3.3-2.06-3.3-4.65s.83-4.91,3.39-4.91a2.49,2.49,0,0,1,2.72,2.17Zm.24,4.12c0-1-.39-2.13-1.81-2.13a1.88,1.88,0,0,0-1.94,2.12c0,.75.38,2.24,1.9,2.24C280.7,77.66,281.22,76.58,281.22,75.43Z"/><path class="cls-9" d="M284.12,78.53V76.46h1.29v2.07Z"/><path class="cls-9" d="M287.23,78.53v-.07c0-1.35.87-2.72,2.78-4.16,1.48-1.12,1.87-1.49,1.87-2.51a1.46,1.46,0,0,0-1.59-1.61c-1.12,0-1.64.57-1.84,1.71h-1.2a2.85,2.85,0,0,1,3-2.75,2.56,2.56,0,0,1,2.87,2.62c0,1.4-.59,1.95-2.3,3.27a5.72,5.72,0,0,0-2.17,2.42h4.83l-.18,1.08Z"/><path class="cls-9" d="M265.72,194.68c0,2.2-.87,3-2.51,3a5,5,0,0,1-1-.1v-1.08a5.39,5.39,0,0,0,.9.07c1.17,0,1.33-.87,1.33-1.83v-6.95h1.3Z"/><path class="cls-9" d="M273.16,196a11.33,11.33,0,0,0,.1,1.56h-1.18a3.85,3.85,0,0,1-.11-.93,2.25,2.25,0,0,1-2.2,1.1,2.15,2.15,0,0,1-2.39-2.17c0-1.59,1.24-2.32,3.36-2.32h1.2v-.6c0-.63-.19-1.38-1.53-1.38-1.17,0-1.38.58-1.51,1.13h-1.19c.1-1,.7-2.1,2.75-2.1,1.73,0,2.7.71,2.7,2.32Zm-1.2-1.9h-1.15c-1.42,0-2.17.39-2.17,1.39a1.24,1.24,0,0,0,1.38,1.27c1.71,0,1.94-1.15,1.94-2.44Z"/><path class="cls-9" d="M275.39,190.43c.95,2.9,1.65,5.07,1.88,5.95h0c.17-.78.93-2.91,2-5.95h1.25l-2.61,7.1h-1.36l-2.48-7.1Z"/><path class="cls-9" d="M286.77,196a11.33,11.33,0,0,0,.1,1.56h-1.18a4.45,4.45,0,0,1-.11-.93,2.25,2.25,0,0,1-2.2,1.1,2.15,2.15,0,0,1-2.39-2.17c0-1.59,1.24-2.32,3.36-2.32h1.2v-.6c0-.63-.19-1.38-1.52-1.38-1.18,0-1.39.58-1.52,1.13h-1.19c.1-1,.7-2.1,2.75-2.1,1.74,0,2.7.71,2.7,2.32Zm-1.2-1.9h-1.15c-1.42,0-2.17.39-2.17,1.39a1.24,1.24,0,0,0,1.38,1.27c1.71,0,1.94-1.15,1.94-2.44Z"/><path class="cls-9" d="M289.36,195.5a1.6,1.6,0,0,0,1.73,1.23c1,0,1.45-.45,1.45-1.09s-.33-1-1.68-1.31c-2-.49-2.46-1.12-2.46-2.08s.75-2,2.57-2,2.59,1.06,2.67,2h-1.17a1.43,1.43,0,0,0-1.54-1.09c-1,0-1.31.48-1.31.94s.3.8,1.6,1.11c2.16.51,2.59,1.23,2.59,2.28,0,1.25-1,2.16-2.76,2.16s-2.74-.93-2.93-2.2Z"/><path class="cls-9" d="M300.93,195.36A2.8,2.8,0,0,1,298,197.7c-2,0-3.17-1.4-3.17-3.69,0-2,1.14-3.75,3.25-3.75a2.63,2.63,0,0,1,2.84,2.37h-1.21a1.58,1.58,0,0,0-1.66-1.35c-1.24,0-2,1.08-2,2.69s.69,2.7,1.92,2.7a1.7,1.7,0,0,0,1.7-1.31Z"/><path class="cls-9" d="M302.33,192.36c0-1,0-1.56,0-1.93h1.21c0,.19,0,.75,0,1.44a2.48,2.48,0,0,1,2.38-1.61v1.22c-1.46,0-2.38.81-2.38,2.6v3.45h-1.23Z"/><path class="cls-9" d="M307.12,188.77v-1.52h1.24v1.52Zm0,1.66h1.24v7.1h-1.24Z"/><path class="cls-9" d="M310.26,200.32v-8.16c0-.58,0-1.19,0-1.73h1.19c0,.23,0,.65,0,1.12a2.43,2.43,0,0,1,2.32-1.29c1.64,0,2.83,1.37,2.83,3.53,0,2.55-1.36,3.91-3.08,3.91a2.16,2.16,0,0,1-2.07-1v3.67Zm3.22-9c-1.47,0-2.06.92-2.06,2.66s.48,2.69,2,2.69c1.31,0,2-1.06,2-2.82C315.37,192.33,314.69,191.31,313.48,191.31Z"/><path class="cls-9" d="M317.28,190.43h1.23v-2.1h1.22v2.1h1.57v1h-1.57v4.16c0,.7.16,1,.81,1a3.44,3.44,0,0,0,.62,0v.92a3.38,3.38,0,0,1-1.07.13c-1.11,0-1.58-.58-1.58-1.75v-4.46h-1.23Z"/><path class="cls-9" d="M326.43,187.78h1.29v8.64h5.08l-.18,1.11h-6.19Z"/><path class="cls-9" d="M339.53,196a11.33,11.33,0,0,0,.1,1.56h-1.18a4.45,4.45,0,0,1-.11-.93,2.24,2.24,0,0,1-2.2,1.1,2.15,2.15,0,0,1-2.39-2.17c0-1.59,1.24-2.32,3.36-2.32h1.2v-.6c0-.63-.19-1.38-1.52-1.38s-1.39.58-1.52,1.13h-1.19c.1-1,.7-2.1,2.75-2.1,1.74,0,2.7.71,2.7,2.32Zm-1.2-1.9h-1.15c-1.42,0-2.17.39-2.17,1.39a1.24,1.24,0,0,0,1.38,1.27c1.71,0,1.94-1.15,1.94-2.44Z"/><path class="cls-9" d="M341.45,192.36c0-1,0-1.56,0-1.93h1.21c0,.19,0,.75,0,1.44a2.48,2.48,0,0,1,2.38-1.61v1.22c-1.46,0-2.38.81-2.38,2.6v3.45h-1.23Z"/><path class="cls-9" d="M351.54,196a9.89,9.89,0,0,0,.1,1.56h-1.18a3.39,3.39,0,0,1-.11-.93,2.25,2.25,0,0,1-2.2,1.1,2.16,2.16,0,0,1-2.4-2.17c0-1.59,1.25-2.32,3.37-2.32h1.2v-.6c0-.63-.2-1.38-1.53-1.38-1.17,0-1.38.58-1.51,1.13h-1.19c.1-1,.7-2.1,2.75-2.1,1.73,0,2.7.71,2.7,2.32Zm-1.21-1.9h-1.14c-1.42,0-2.18.39-2.18,1.39a1.25,1.25,0,0,0,1.39,1.27c1.71,0,1.93-1.15,1.93-2.44Z"/><path class="cls-9" d="M353.77,190.43c1,2.9,1.65,5.07,1.88,5.95h0c.17-.78.93-2.91,2-5.95h1.25l-2.61,7.1h-1.36l-2.48-7.1Z"/><path class="cls-9" d="M360.58,194.19c0,1.45.75,2.48,1.95,2.48a1.63,1.63,0,0,0,1.71-1.1h1.25a2.9,2.9,0,0,1-3,2.13c-2.23,0-3.14-1.82-3.14-3.65,0-2.11,1.07-3.79,3.22-3.79,2.3,0,3,1.83,3,3.35,0,.22,0,.4,0,.58Zm3.79-.85c0-1.18-.61-2.11-1.81-2.11s-1.81.86-1.93,2.11Z"/><path class="cls-9" d="M367.12,197.53V187.25h1.24v10.28Z"/><path class="cls-9" d="M379.72,249.68c0,2.2-.87,3-2.51,3a5,5,0,0,1-1-.1v-1.08a5.39,5.39,0,0,0,.9.07c1.17,0,1.33-.87,1.33-1.83v-6.95h1.3Z"/><path class="cls-9" d="M387.16,251a11.33,11.33,0,0,0,.1,1.56h-1.18a3.85,3.85,0,0,1-.11-.93,2.25,2.25,0,0,1-2.2,1.1,2.15,2.15,0,0,1-2.39-2.17c0-1.59,1.24-2.32,3.36-2.32h1.2v-.6c0-.63-.19-1.38-1.53-1.38-1.17,0-1.38.58-1.51,1.13h-1.19c.1-1,.7-2.1,2.75-2.1,1.73,0,2.7.71,2.7,2.32Zm-1.2-1.9h-1.15c-1.42,0-2.17.39-2.17,1.39a1.24,1.24,0,0,0,1.38,1.27c1.71,0,1.94-1.15,1.94-2.44Z"/><path class="cls-9" d="M389.39,245.43c.95,2.9,1.65,5.07,1.88,5.95h0c.17-.78.93-2.91,2-5.95h1.25l-2.61,7.1h-1.36l-2.48-7.1Z"/><path class="cls-9" d="M400.77,251a11.33,11.33,0,0,0,.1,1.56h-1.18a4.45,4.45,0,0,1-.11-.93,2.25,2.25,0,0,1-2.2,1.1,2.15,2.15,0,0,1-2.39-2.17c0-1.59,1.24-2.32,3.36-2.32h1.2v-.6c0-.63-.19-1.38-1.52-1.38-1.18,0-1.39.58-1.52,1.13h-1.19c.1-1,.7-2.1,2.75-2.1,1.74,0,2.7.71,2.7,2.32Zm-1.2-1.9h-1.15c-1.42,0-2.17.39-2.17,1.39a1.24,1.24,0,0,0,1.38,1.27c1.71,0,1.94-1.15,1.94-2.44Z"/><path class="cls-9" d="M403.36,250.5a1.6,1.6,0,0,0,1.73,1.23c1,0,1.45-.45,1.45-1.09s-.33-1-1.68-1.31c-2-.49-2.46-1.12-2.46-2.08s.75-2,2.57-2,2.59,1.06,2.67,2h-1.17a1.43,1.43,0,0,0-1.54-1.09c-1,0-1.31.48-1.31.94s.3.8,1.6,1.11c2.16.51,2.59,1.23,2.59,2.28,0,1.25-1,2.16-2.76,2.16s-2.74-.93-2.93-2.2Z"/><path class="cls-9" d="M414.93,250.36A2.8,2.8,0,0,1,412,252.7c-2,0-3.17-1.4-3.17-3.69,0-2,1.14-3.75,3.25-3.75a2.63,2.63,0,0,1,2.84,2.37h-1.21a1.58,1.58,0,0,0-1.66-1.35c-1.24,0-2,1.08-2,2.69s.69,2.7,1.92,2.7a1.7,1.7,0,0,0,1.7-1.31Z"/><path class="cls-9" d="M416.33,247.36c0-1,0-1.56,0-1.93h1.21c0,.19,0,.75,0,1.44a2.48,2.48,0,0,1,2.38-1.61v1.22c-1.46,0-2.38.81-2.38,2.6v3.45h-1.23Z"/><path class="cls-9" d="M421.12,243.77v-1.52h1.24v1.52Zm0,1.66h1.24v7.1h-1.24Z"/><path class="cls-9" d="M424.26,255.32v-8.16c0-.58,0-1.19,0-1.73h1.19c0,.23,0,.65,0,1.12a2.43,2.43,0,0,1,2.32-1.29c1.64,0,2.83,1.37,2.83,3.53,0,2.55-1.36,3.91-3.08,3.91a2.16,2.16,0,0,1-2.07-1v3.67Zm3.22-9c-1.47,0-2.06.92-2.06,2.66s.48,2.69,2,2.69c1.31,0,2-1.06,2-2.82C429.37,247.33,428.69,246.31,427.48,246.31Z"/><path class="cls-9" d="M431.28,245.43h1.23v-2.1h1.22v2.1h1.57v1h-1.57v4.16c0,.7.16,1,.81,1a3.44,3.44,0,0,0,.62,0v.92a3.38,3.38,0,0,1-1.07.13c-1.11,0-1.58-.58-1.58-1.75v-4.46h-1.23Z"/><path class="cls-9" d="M440.43,242.78h1.29v8.64h5.08l-.18,1.11h-6.19Z"/><path class="cls-9" d="M453.53,251a11.33,11.33,0,0,0,.1,1.56h-1.18a4.45,4.45,0,0,1-.11-.93,2.24,2.24,0,0,1-2.2,1.1,2.15,2.15,0,0,1-2.39-2.17c0-1.59,1.24-2.32,3.36-2.32h1.2v-.6c0-.63-.19-1.38-1.52-1.38s-1.39.58-1.52,1.13h-1.19c.1-1,.7-2.1,2.75-2.1,1.74,0,2.7.71,2.7,2.32Zm-1.2-1.9h-1.15c-1.42,0-2.17.39-2.17,1.39a1.24,1.24,0,0,0,1.38,1.27c1.71,0,1.94-1.15,1.94-2.44Z"/><path class="cls-9" d="M455.45,247.36c0-1,0-1.56,0-1.93h1.21c0,.19,0,.75,0,1.44a2.48,2.48,0,0,1,2.38-1.61v1.22c-1.46,0-2.38.81-2.38,2.6v3.45h-1.23Z"/><path class="cls-9" d="M465.54,251a9.89,9.89,0,0,0,.1,1.56h-1.18a3.39,3.39,0,0,1-.11-.93,2.25,2.25,0,0,1-2.2,1.1,2.16,2.16,0,0,1-2.4-2.17c0-1.59,1.25-2.32,3.37-2.32h1.2v-.6c0-.63-.2-1.38-1.53-1.38-1.17,0-1.38.58-1.51,1.13h-1.19c.1-1,.7-2.1,2.75-2.1,1.73,0,2.7.71,2.7,2.32Zm-1.21-1.9h-1.14c-1.42,0-2.18.39-2.18,1.39a1.25,1.25,0,0,0,1.39,1.27c1.71,0,1.93-1.15,1.93-2.44Z"/><path class="cls-9" d="M467.77,245.43c1,2.9,1.65,5.07,1.88,5.95h0c.17-.78.93-2.91,2-5.95h1.25l-2.61,7.1h-1.36l-2.48-7.1Z"/><path class="cls-9" d="M474.58,249.19c0,1.45.75,2.48,1.95,2.48a1.63,1.63,0,0,0,1.71-1.1h1.25a2.9,2.9,0,0,1-3,2.13c-2.23,0-3.14-1.82-3.14-3.65,0-2.11,1.07-3.79,3.22-3.79,2.3,0,3,1.83,3,3.35,0,.22,0,.4,0,.58Zm3.79-.85c0-1.18-.61-2.11-1.81-2.11s-1.81.86-1.93,2.11Z"/><path class="cls-9" d="M481.12,252.53V242.25h1.24v10.28Z"/><path class="cls-9" d="M515.72,305.68c0,2.2-.87,3-2.51,3a5,5,0,0,1-1-.1v-1.08a5.39,5.39,0,0,0,.9.07c1.17,0,1.33-.87,1.33-1.83v-7h1.3Z"/><path class="cls-9" d="M523.16,307a11.33,11.33,0,0,0,.1,1.56h-1.18a3.85,3.85,0,0,1-.11-.93,2.25,2.25,0,0,1-2.2,1.1,2.15,2.15,0,0,1-2.39-2.17c0-1.59,1.24-2.32,3.36-2.32h1.2v-.6c0-.63-.19-1.38-1.53-1.38-1.17,0-1.38.58-1.51,1.13h-1.19c.1-1,.7-2.1,2.75-2.1,1.73,0,2.7.71,2.7,2.32Zm-1.2-1.9h-1.15c-1.42,0-2.18.39-2.18,1.39a1.25,1.25,0,0,0,1.39,1.27c1.71,0,1.94-1.15,1.94-2.44Z"/><path class="cls-9" d="M525.39,301.43c1,2.9,1.65,5.07,1.88,5.95h0c.17-.78.93-2.91,2-5.95h1.25l-2.61,7.1h-1.36l-2.48-7.1Z"/><path class="cls-9" d="M536.77,307a11.33,11.33,0,0,0,.1,1.56h-1.18a4.45,4.45,0,0,1-.11-.93,2.25,2.25,0,0,1-2.2,1.1,2.15,2.15,0,0,1-2.39-2.17c0-1.59,1.24-2.32,3.36-2.32h1.2v-.6c0-.63-.19-1.38-1.52-1.38-1.18,0-1.39.58-1.52,1.13h-1.19c.1-1,.7-2.1,2.75-2.1,1.73,0,2.7.71,2.7,2.32Zm-1.2-1.9h-1.15c-1.42,0-2.17.39-2.17,1.39a1.24,1.24,0,0,0,1.38,1.27c1.71,0,1.94-1.15,1.94-2.44Z"/><path class="cls-9" d="M539.36,306.5a1.6,1.6,0,0,0,1.73,1.23c1,0,1.45-.45,1.45-1.09s-.33-1-1.68-1.31c-2-.49-2.46-1.12-2.46-2.08s.75-2,2.57-2,2.59,1.06,2.67,2h-1.17a1.43,1.43,0,0,0-1.54-1.09c-1,0-1.31.48-1.31.94s.3.8,1.6,1.11c2.16.51,2.59,1.23,2.59,2.28,0,1.25-1,2.16-2.76,2.16s-2.74-.93-2.93-2.2Z"/><path class="cls-9" d="M550.93,306.36A2.8,2.8,0,0,1,548,308.7c-2,0-3.17-1.4-3.17-3.69,0-2,1.13-3.75,3.25-3.75a2.64,2.64,0,0,1,2.84,2.37h-1.22a1.56,1.56,0,0,0-1.65-1.35c-1.24,0-2,1.08-2,2.69s.69,2.7,1.92,2.7a1.68,1.68,0,0,0,1.69-1.31Z"/><path class="cls-9" d="M552.33,303.36c0-1,0-1.56,0-1.93h1.21c0,.19,0,.75,0,1.44a2.48,2.48,0,0,1,2.38-1.61v1.22c-1.46,0-2.38.81-2.38,2.6v3.45h-1.23Z"/><path class="cls-9" d="M557.12,299.77v-1.52h1.24v1.52Zm0,1.66h1.24v7.1h-1.24Z"/><path class="cls-9" d="M560.26,311.32v-8.16c0-.58,0-1.19,0-1.73h1.19c0,.23,0,.65,0,1.12a2.43,2.43,0,0,1,2.32-1.29c1.64,0,2.83,1.37,2.83,3.53,0,2.55-1.36,3.91-3.08,3.91a2.16,2.16,0,0,1-2.07-1.05v3.67Zm3.22-9c-1.47,0-2.06.92-2.06,2.66s.48,2.69,2,2.69c1.31,0,2-1.06,2-2.82C565.37,303.33,564.69,302.31,563.48,302.31Z"/><path class="cls-9" d="M567.28,301.43h1.23v-2.1h1.22v2.1h1.56v1h-1.56v4.16c0,.7.16,1.05.81,1.05a3.44,3.44,0,0,0,.62-.05v.92a3.38,3.38,0,0,1-1.07.13c-1.11,0-1.58-.58-1.58-1.75v-4.46h-1.23Z"/><path class="cls-9" d="M576.43,298.78h1.29v8.64h5.08l-.18,1.11h-6.19Z"/><path class="cls-9" d="M589.53,307a11.33,11.33,0,0,0,.1,1.56h-1.18a4.45,4.45,0,0,1-.11-.93,2.24,2.24,0,0,1-2.2,1.1,2.15,2.15,0,0,1-2.39-2.17c0-1.59,1.24-2.32,3.36-2.32h1.2v-.6c0-.63-.19-1.38-1.52-1.38-1.18,0-1.39.58-1.52,1.13h-1.19c.1-1,.7-2.1,2.75-2.1,1.74,0,2.7.71,2.7,2.32Zm-1.2-1.9h-1.15c-1.42,0-2.17.39-2.17,1.39a1.24,1.24,0,0,0,1.38,1.27c1.71,0,1.94-1.15,1.94-2.44Z"/><path class="cls-9" d="M591.45,303.36c0-1,0-1.56,0-1.93h1.21c0,.19,0,.75,0,1.44a2.48,2.48,0,0,1,2.38-1.61v1.22c-1.46,0-2.38.81-2.38,2.6v3.45h-1.23Z"/><path class="cls-9" d="M601.54,307a9.89,9.89,0,0,0,.1,1.56h-1.18a3.39,3.39,0,0,1-.11-.93,2.25,2.25,0,0,1-2.2,1.1,2.16,2.16,0,0,1-2.4-2.17c0-1.59,1.25-2.32,3.37-2.32h1.2v-.6c0-.63-.2-1.38-1.53-1.38-1.17,0-1.38.58-1.51,1.13h-1.19c.1-1,.7-2.1,2.75-2.1,1.73,0,2.7.71,2.7,2.32Zm-1.21-1.9h-1.14c-1.42,0-2.18.39-2.18,1.39a1.25,1.25,0,0,0,1.39,1.27c1.71,0,1.93-1.15,1.93-2.44Z"/><path class="cls-9" d="M603.77,301.43c1,2.9,1.65,5.07,1.88,5.95h0c.17-.78.93-2.91,2-5.95h1.25l-2.61,7.1h-1.36l-2.48-7.1Z"/><path class="cls-9" d="M610.58,305.19c0,1.45.75,2.48,1.95,2.48a1.63,1.63,0,0,0,1.71-1.1h1.25a2.9,2.9,0,0,1-3,2.13c-2.23,0-3.14-1.82-3.14-3.65,0-2.11,1.07-3.79,3.22-3.79s3,1.83,3,3.35c0,.22,0,.4,0,.58Zm3.79-.85c0-1.18-.61-2.11-1.81-2.11s-1.81.86-1.93,2.11Z"/><path class="cls-9" d="M617.12,308.53V298.25h1.24v10.28Z"/><path class="cls-9" d="M327.72,397.68c0,2.2-.87,3-2.51,3a5,5,0,0,1-1-.1v-1.08a5.39,5.39,0,0,0,.9.07c1.17,0,1.33-.87,1.33-1.83v-7h1.3Z"/><path class="cls-9" d="M335.16,399a11.33,11.33,0,0,0,.1,1.56h-1.18a3.85,3.85,0,0,1-.11-.93,2.25,2.25,0,0,1-2.2,1.1,2.15,2.15,0,0,1-2.39-2.17c0-1.59,1.24-2.32,3.36-2.32h1.2v-.6c0-.63-.19-1.39-1.53-1.39-1.17,0-1.38.59-1.51,1.14h-1.19c.1-1,.7-2.1,2.75-2.1,1.73,0,2.7.71,2.7,2.32Zm-1.2-1.9h-1.15c-1.42,0-2.17.39-2.17,1.39a1.24,1.24,0,0,0,1.38,1.27c1.71,0,1.94-1.15,1.94-2.44Z"/><path class="cls-9" d="M337.39,393.43c.95,2.9,1.65,5.07,1.88,5.95h0c.17-.78.93-2.91,2-5.95h1.25l-2.61,7.1h-1.36l-2.48-7.1Z"/><path class="cls-9" d="M348.77,399a11.33,11.33,0,0,0,.1,1.56h-1.18a4.45,4.45,0,0,1-.11-.93,2.25,2.25,0,0,1-2.2,1.1,2.15,2.15,0,0,1-2.39-2.17c0-1.59,1.24-2.32,3.36-2.32h1.2v-.6c0-.63-.19-1.39-1.52-1.39-1.18,0-1.39.59-1.52,1.14h-1.19c.1-1,.7-2.1,2.75-2.1,1.74,0,2.7.71,2.7,2.32Zm-1.2-1.9h-1.15c-1.42,0-2.17.39-2.17,1.39a1.24,1.24,0,0,0,1.38,1.27c1.71,0,1.94-1.15,1.94-2.44Z"/><path class="cls-9" d="M351.36,398.5a1.6,1.6,0,0,0,1.73,1.23c1,0,1.45-.45,1.45-1.09s-.33-1-1.68-1.31c-2-.49-2.46-1.12-2.46-2.08s.75-2,2.57-2,2.59,1.06,2.67,2h-1.17a1.43,1.43,0,0,0-1.54-1.09c-1,0-1.31.48-1.31.94s.3.8,1.6,1.11c2.16.51,2.59,1.23,2.59,2.28,0,1.25-1,2.16-2.76,2.16s-2.74-.93-2.93-2.2Z"/><path class="cls-9" d="M362.93,398.36A2.8,2.8,0,0,1,360,400.7c-2,0-3.17-1.4-3.17-3.69,0-2,1.14-3.75,3.25-3.75a2.63,2.63,0,0,1,2.84,2.36h-1.21a1.58,1.58,0,0,0-1.66-1.34c-1.24,0-2,1.08-2,2.69s.69,2.7,1.92,2.7a1.7,1.7,0,0,0,1.7-1.31Z"/><path class="cls-9" d="M364.33,395.36c0-1,0-1.56,0-1.93h1.21c0,.19,0,.75,0,1.44a2.48,2.48,0,0,1,2.38-1.61v1.22c-1.46,0-2.38.81-2.38,2.6v3.45h-1.23Z"/><path class="cls-9" d="M369.12,391.77v-1.52h1.24v1.52Zm0,1.66h1.24v7.1h-1.24Z"/><path class="cls-9" d="M372.26,403.32v-8.16c0-.58,0-1.19,0-1.73h1.19c0,.23,0,.65,0,1.12a2.43,2.43,0,0,1,2.32-1.29c1.64,0,2.83,1.37,2.83,3.53,0,2.55-1.36,3.91-3.08,3.91a2.16,2.16,0,0,1-2.07-1.05v3.67Zm3.22-9c-1.47,0-2.06.92-2.06,2.66s.48,2.69,2,2.69c1.31,0,2-1.06,2-2.82C377.37,395.33,376.69,394.31,375.48,394.31Z"/><path class="cls-9" d="M379.28,393.43h1.23v-2.1h1.22v2.1h1.57v1h-1.57v4.16c0,.7.16,1.05.81,1.05a3.44,3.44,0,0,0,.62-.05v.92a3.38,3.38,0,0,1-1.07.13c-1.11,0-1.58-.58-1.58-1.75v-4.46h-1.23Z"/><path class="cls-9" d="M388.43,390.78h1.29v8.64h5.08l-.18,1.11h-6.19Z"/><path class="cls-9" d="M401.53,399a11.33,11.33,0,0,0,.1,1.56h-1.18a4.45,4.45,0,0,1-.11-.93,2.24,2.24,0,0,1-2.2,1.1,2.15,2.15,0,0,1-2.39-2.17c0-1.59,1.24-2.32,3.36-2.32h1.2v-.6c0-.63-.19-1.39-1.52-1.39s-1.39.59-1.52,1.14h-1.19c.1-1,.7-2.1,2.75-2.1,1.74,0,2.7.71,2.7,2.32Zm-1.2-1.9h-1.15c-1.42,0-2.17.39-2.17,1.39a1.24,1.24,0,0,0,1.38,1.27c1.71,0,1.94-1.15,1.94-2.44Z"/><path class="cls-9" d="M403.45,395.36c0-1,0-1.56,0-1.93h1.21c0,.19,0,.75,0,1.44a2.48,2.48,0,0,1,2.38-1.61v1.22c-1.46,0-2.38.81-2.38,2.6v3.45h-1.23Z"/><path class="cls-9" d="M413.54,399a9.89,9.89,0,0,0,.1,1.56h-1.18a3.39,3.39,0,0,1-.11-.93,2.25,2.25,0,0,1-2.2,1.1,2.16,2.16,0,0,1-2.4-2.17c0-1.59,1.25-2.32,3.37-2.32h1.2v-.6c0-.63-.2-1.39-1.53-1.39-1.17,0-1.38.59-1.51,1.14h-1.19c.1-1,.7-2.1,2.75-2.1,1.73,0,2.7.71,2.7,2.32Zm-1.21-1.9h-1.14c-1.42,0-2.18.39-2.18,1.39a1.25,1.25,0,0,0,1.39,1.27c1.71,0,1.93-1.15,1.93-2.44Z"/><path class="cls-9" d="M415.77,393.43c1,2.9,1.65,5.07,1.88,5.95h0c.17-.78.93-2.91,2-5.95h1.25l-2.61,7.1h-1.36l-2.48-7.1Z"/><path class="cls-9" d="M422.58,397.19c0,1.45.75,2.48,1.95,2.48a1.63,1.63,0,0,0,1.71-1.1h1.25a2.9,2.9,0,0,1-3,2.13c-2.23,0-3.14-1.82-3.14-3.65,0-2.11,1.07-3.79,3.22-3.79,2.3,0,3,1.83,3,3.35,0,.22,0,.4,0,.58Zm3.79-.85c0-1.18-.61-2.12-1.81-2.12s-1.81.87-1.93,2.12Z"/><path class="cls-9" d="M429.12,400.53V390.25h1.24v10.28Z"/><path class="cls-9" d="M649.72,435.68c0,2.2-.87,3-2.51,3a5,5,0,0,1-1-.1v-1.08a5.39,5.39,0,0,0,.9.07c1.17,0,1.33-.87,1.33-1.83v-7h1.3Z"/><path class="cls-9" d="M657.16,437a11.33,11.33,0,0,0,.1,1.56h-1.18a3.85,3.85,0,0,1-.11-.93,2.25,2.25,0,0,1-2.2,1.1,2.15,2.15,0,0,1-2.39-2.17c0-1.59,1.24-2.32,3.36-2.32h1.2v-.6c0-.63-.19-1.39-1.53-1.39-1.17,0-1.38.59-1.51,1.14h-1.19c.1-1,.7-2.1,2.75-2.1,1.73,0,2.7.71,2.7,2.32Zm-1.2-1.9h-1.15c-1.42,0-2.18.39-2.18,1.39a1.25,1.25,0,0,0,1.39,1.27c1.71,0,1.94-1.15,1.94-2.44Z"/><path class="cls-9" d="M659.39,431.43c1,2.9,1.65,5.07,1.88,5.95h0c.17-.78.93-2.91,2-5.95h1.25l-2.61,7.1h-1.36l-2.48-7.1Z"/><path class="cls-9" d="M670.77,437a11.33,11.33,0,0,0,.1,1.56h-1.18a4.45,4.45,0,0,1-.11-.93,2.25,2.25,0,0,1-2.2,1.1,2.15,2.15,0,0,1-2.39-2.17c0-1.59,1.24-2.32,3.36-2.32h1.2v-.6c0-.63-.19-1.39-1.52-1.39-1.18,0-1.39.59-1.52,1.14h-1.19c.1-1,.7-2.1,2.75-2.1,1.73,0,2.7.71,2.7,2.32Zm-1.2-1.9h-1.15c-1.42,0-2.17.39-2.17,1.39a1.24,1.24,0,0,0,1.38,1.27c1.71,0,1.94-1.15,1.94-2.44Z"/><path class="cls-9" d="M673.36,436.5a1.6,1.6,0,0,0,1.73,1.23c1,0,1.45-.45,1.45-1.09s-.33-1-1.68-1.31c-2-.49-2.46-1.12-2.46-2.08s.75-2,2.57-2,2.59,1.06,2.67,2h-1.17a1.43,1.43,0,0,0-1.54-1.09c-1,0-1.31.48-1.31.94s.3.8,1.6,1.11c2.16.51,2.59,1.23,2.59,2.28,0,1.25-1,2.16-2.76,2.16s-2.74-.93-2.93-2.2Z"/><path class="cls-9" d="M684.93,436.36A2.8,2.8,0,0,1,682,438.7c-2,0-3.17-1.4-3.17-3.69,0-2,1.13-3.75,3.25-3.75a2.63,2.63,0,0,1,2.84,2.36h-1.22a1.56,1.56,0,0,0-1.65-1.34c-1.24,0-2,1.08-2,2.69s.69,2.7,1.92,2.7a1.68,1.68,0,0,0,1.69-1.31Z"/><path class="cls-9" d="M686.33,433.36c0-1,0-1.56,0-1.93h1.21c0,.19,0,.75,0,1.44a2.48,2.48,0,0,1,2.38-1.61v1.22c-1.46,0-2.38.81-2.38,2.6v3.45h-1.23Z"/><path class="cls-9" d="M691.12,429.77v-1.52h1.24v1.52Zm0,1.66h1.24v7.1h-1.24Z"/><path class="cls-9" d="M694.26,441.32v-8.16c0-.58,0-1.19,0-1.73h1.19c0,.23,0,.65,0,1.12a2.43,2.43,0,0,1,2.32-1.29c1.64,0,2.83,1.37,2.83,3.53,0,2.55-1.36,3.91-3.08,3.91a2.16,2.16,0,0,1-2.07-1.05v3.67Zm3.22-9c-1.47,0-2.06.92-2.06,2.66s.48,2.69,2,2.69c1.31,0,2-1.06,2-2.82C699.37,433.33,698.69,432.31,697.48,432.31Z"/><path class="cls-9" d="M701.28,431.43h1.23v-2.1h1.22v2.1h1.56v1h-1.56v4.16c0,.7.16,1.05.81,1.05a3.44,3.44,0,0,0,.62-.05v.92a3.38,3.38,0,0,1-1.07.13c-1.11,0-1.58-.58-1.58-1.75v-4.46h-1.23Z"/><path class="cls-9" d="M710.43,428.78h1.29v8.64h5.08l-.18,1.11h-6.19Z"/><path class="cls-9" d="M723.53,437a11.33,11.33,0,0,0,.1,1.56h-1.18a4.45,4.45,0,0,1-.11-.93,2.24,2.24,0,0,1-2.2,1.1,2.15,2.15,0,0,1-2.39-2.17c0-1.59,1.24-2.32,3.36-2.32h1.2v-.6c0-.63-.19-1.39-1.52-1.39-1.18,0-1.39.59-1.52,1.14h-1.19c.1-1,.7-2.1,2.75-2.1,1.74,0,2.7.71,2.7,2.32Zm-1.2-1.9h-1.15c-1.42,0-2.17.39-2.17,1.39a1.24,1.24,0,0,0,1.38,1.27c1.71,0,1.94-1.15,1.94-2.44Z"/><path class="cls-9" d="M725.45,433.36c0-1,0-1.56,0-1.93h1.21c0,.19,0,.75,0,1.44a2.48,2.48,0,0,1,2.38-1.61v1.22c-1.46,0-2.38.81-2.38,2.6v3.45h-1.23Z"/><path class="cls-9" d="M735.54,437a9.89,9.89,0,0,0,.1,1.56h-1.18a3.39,3.39,0,0,1-.11-.93,2.25,2.25,0,0,1-2.2,1.1,2.16,2.16,0,0,1-2.4-2.17c0-1.59,1.25-2.32,3.37-2.32h1.2v-.6c0-.63-.2-1.39-1.53-1.39-1.17,0-1.38.59-1.51,1.14h-1.19c.1-1,.7-2.1,2.75-2.1,1.73,0,2.7.71,2.7,2.32Zm-1.21-1.9h-1.14c-1.42,0-2.18.39-2.18,1.39a1.25,1.25,0,0,0,1.39,1.27c1.71,0,1.93-1.15,1.93-2.44Z"/><path class="cls-9" d="M737.77,431.43c1,2.9,1.65,5.07,1.88,5.95h0c.17-.78.93-2.91,2-5.95h1.25l-2.61,7.1h-1.36l-2.48-7.1Z"/><path class="cls-9" d="M744.58,435.19c0,1.45.75,2.48,1.95,2.48a1.63,1.63,0,0,0,1.71-1.1h1.25a2.9,2.9,0,0,1-3,2.13c-2.23,0-3.14-1.82-3.14-3.65,0-2.11,1.07-3.79,3.22-3.79s3,1.83,3,3.35c0,.22,0,.4,0,.58Zm3.79-.85c0-1.18-.61-2.12-1.81-2.12s-1.81.87-1.93,2.12Z"/><path class="cls-9" d="M751.12,438.53V428.25h1.24v10.28Z"/><path class="cls-9" d="M420,530.53h-1a5.36,5.36,0,0,1-.13-1.32,3.22,3.22,0,0,1-3,1.44c-2.82,0-4.31-2.12-4.31-4.9s1.6-5.11,4.54-5.11c2.27,0,3.69,1.23,4,3h-1.29a2.54,2.54,0,0,0-2.7-1.89c-2.26,0-3.16,1.8-3.16,4,0,2,.9,3.88,3.1,3.88s2.73-1.46,2.73-3.1v-.11H416v-1.11h4Z"/><path class="cls-9" d="M427.35,529a11.33,11.33,0,0,0,.1,1.56h-1.17a3.71,3.71,0,0,1-.12-.93,2.24,2.24,0,0,1-2.19,1.1,2.15,2.15,0,0,1-2.4-2.17c0-1.59,1.25-2.32,3.36-2.32h1.21v-.6c0-.63-.2-1.39-1.53-1.39s-1.39.59-1.51,1.14h-1.19c.09-1,.7-2.1,2.74-2.1,1.74,0,2.7.71,2.7,2.32Zm-1.2-1.9H425c-1.41,0-2.17.39-2.17,1.39a1.24,1.24,0,0,0,1.39,1.27c1.71,0,1.93-1.15,1.93-2.44Z"/><path class="cls-9" d="M429.27,525.26c0-.62,0-1.26,0-1.83h1.18a10.14,10.14,0,0,1,.06,1.09,2.19,2.19,0,0,1,2.06-1.26,2,2,0,0,1,2,1.27,2.42,2.42,0,0,1,2.26-1.27c1.16,0,2.24.69,2.24,2.6v4.67h-1.21V526c0-.81-.29-1.68-1.4-1.68s-1.66.87-1.66,2.13v4.08h-1.21v-4.48c0-.92-.25-1.73-1.37-1.73s-1.68.93-1.68,2.27v3.94h-1.22Z"/><path class="cls-9" d="M440.93,525.26c0-.62,0-1.26,0-1.83h1.17a10.14,10.14,0,0,1,.06,1.09,2.19,2.19,0,0,1,2.06-1.26,2,2,0,0,1,2,1.27,2.43,2.43,0,0,1,2.26-1.27c1.16,0,2.24.69,2.24,2.6v4.67h-1.2V526c0-.81-.3-1.68-1.4-1.68s-1.67.87-1.67,2.13v4.08H445.2v-4.48c0-.92-.25-1.73-1.37-1.73s-1.68.93-1.68,2.27v3.94h-1.22Z"/><path class="cls-9" d="M458,529a11.33,11.33,0,0,0,.1,1.56h-1.18a4.45,4.45,0,0,1-.11-.93,2.25,2.25,0,0,1-2.2,1.1,2.15,2.15,0,0,1-2.39-2.17c0-1.59,1.24-2.32,3.36-2.32h1.2v-.6c0-.63-.19-1.39-1.52-1.39-1.18,0-1.39.59-1.52,1.14H452.5c.1-1,.7-2.1,2.75-2.1,1.74,0,2.7.71,2.7,2.32Zm-1.2-1.9H455.6c-1.42,0-2.17.39-2.17,1.39a1.24,1.24,0,0,0,1.38,1.27c1.71,0,1.94-1.15,1.94-2.44Z"/><path class="cls-9" d="M463.6,521.77v-1.52h1.24v1.52Zm0,1.66h1.24v7.1H463.6Z"/><path class="cls-9" d="M467,520.78h3.7c1.89,0,3.19,1.06,3.19,2.84s-1.37,2.9-3.28,2.9h-2.31v4H467Zm1.3,4.65h2.26c1.33,0,2-.64,2-1.78a1.72,1.72,0,0,0-2-1.78h-2.3Z"/><path class="cls-9" d="M480.64,529a11.8,11.8,0,0,0,.09,1.56h-1.17a3.71,3.71,0,0,1-.12-.93,2.24,2.24,0,0,1-2.19,1.1,2.15,2.15,0,0,1-2.4-2.17c0-1.59,1.25-2.32,3.36-2.32h1.21v-.6c0-.63-.2-1.39-1.53-1.39-1.18,0-1.39.59-1.51,1.14h-1.19c.09-1,.7-2.1,2.74-2.1,1.74,0,2.71.71,2.71,2.32Zm-1.21-1.9h-1.15c-1.41,0-2.17.39-2.17,1.39a1.25,1.25,0,0,0,1.39,1.27c1.71,0,1.93-1.15,1.93-2.44Z"/><path class="cls-9" d="M488.52,520.25v8.28c0,.65,0,1.31,0,2h-1.18a7.27,7.27,0,0,1-.07-1,2.22,2.22,0,0,1-2.23,1.18c-1.83,0-2.95-1.49-2.95-3.65s1.22-3.79,3.18-3.79c1.26,0,1.82.5,2,.91v-3.92Zm-3.2,9.41c1.65,0,2-1.23,2-2.79s-.34-2.58-1.94-2.58c-1.26,0-2,1-2,2.72S484.2,529.66,485.32,529.66Z"/><path class="cls-9" d="M494.15,520.25h1.23v4.19a2.31,2.31,0,0,1,2.26-1.18c1.79,0,2.91,1.47,2.91,3.57s-1.09,3.87-3.1,3.87a2.06,2.06,0,0,1-2.08-1.11,7.26,7.26,0,0,1-.06.94h-1.18c0-.8,0-1.6,0-2.38Zm3.21,4c-1.52,0-2.05,1-2.05,2.71,0,1.48.48,2.66,2,2.66,1.26,0,2-1.08,2-2.8C499.29,525.32,498.59,524.29,497.36,524.29Z"/><path class="cls-9" d="M502.89,527.19c0,1.45.74,2.48,1.95,2.48a1.64,1.64,0,0,0,1.71-1.1h1.24a2.9,2.9,0,0,1-3,2.13c-2.22,0-3.13-1.82-3.13-3.65,0-2.11,1.06-3.79,3.22-3.79s3,1.83,3,3.35a5.24,5.24,0,0,1,0,.58Zm3.78-.85c0-1.18-.6-2.12-1.8-2.12s-1.81.87-1.94,2.12Z"/><path class="cls-9" d="M508.55,523.43h1.23v-2.1H511v2.1h1.57v1H511v4.16c0,.7.17,1,.81,1a3.44,3.44,0,0,0,.62,0v.92a3.38,3.38,0,0,1-1.07.13c-1.1,0-1.58-.58-1.58-1.75v-4.46h-1.23Z"/><path class="cls-9" d="M519.16,529a11.33,11.33,0,0,0,.1,1.56h-1.18a3.85,3.85,0,0,1-.11-.93,2.25,2.25,0,0,1-2.2,1.1,2.15,2.15,0,0,1-2.39-2.17c0-1.59,1.24-2.32,3.36-2.32h1.2v-.6c0-.63-.19-1.39-1.52-1.39-1.18,0-1.39.59-1.52,1.14h-1.19c.1-1,.7-2.1,2.75-2.1,1.73,0,2.7.71,2.7,2.32Zm-1.2-1.9h-1.15c-1.42,0-2.17.39-2.17,1.39a1.24,1.24,0,0,0,1.38,1.27c1.71,0,1.94-1.15,1.94-2.44Z"/><path class="cls-9" d="M530.89,525.85c0,2.28-.64,4.85-3.22,4.85s-3.22-2.4-3.22-4.78.77-4.78,3.26-4.78S530.89,523.5,530.89,525.85Zm-5.14.07c0,1.75.31,3.73,1.93,3.73s1.92-1.88,1.92-3.79-.3-3.67-1.87-3.67S525.75,523.89,525.75,525.92Z"/><path class="cls-9" d="M532.45,530.53v-2.07h1.28v2.07Z"/><path class="cls-9" d="M541.72,525.85c0,2.28-.64,4.85-3.22,4.85s-3.22-2.4-3.22-4.78.77-4.78,3.26-4.78S541.72,523.5,541.72,525.85Zm-5.14.07c0,1.75.31,3.73,1.93,3.73s1.92-1.88,1.92-3.79-.31-3.67-1.88-3.67S536.58,523.89,536.58,525.92Z"/><path class="cls-9" d="M543.27,530.53v-2.07h1.29v2.07Z"/><path class="cls-9" d="M550.2,530.53v-2.37h-4.33V527l4.19-5.73h1.32v5.79h1.19l-.13,1.06h-1.06v2.37Zm0-5.76c0-.71,0-1.62,0-2.23-.37.72-2.16,3.18-3.15,4.56h3.12Z"/><path d="M405,11.19v2.34h-8.37V12.18l4.86-5.83a3.32,3.32,0,0,0,.85-1.69,1.49,1.49,0,0,0-1.65-1.43A1.84,1.84,0,0,0,398.84,5l-2.26-.38A4,4,0,0,1,400.82.91c2.49,0,4.1,1.51,4.1,3.77a4.77,4.77,0,0,1-1.37,3.15l-2.92,3.36Z"/><path d="M407,7.34c0-3.6,1-6.43,4.64-6.43s4.6,2.83,4.6,6.43-1,6.36-4.6,6.36S407,10.87,407,7.34Zm6.71,0c0-2.3-.48-4.11-2.07-4.11S409.49,5,409.49,7.34s.49,4,2.11,4S413.67,9.6,413.67,7.34Z"/><path d="M423,.91V13.53H420.5V4.3l-2.87,1.1V3.06L422.8.91Z"/><path d="M434.9,6.88c0,3.68-1.76,6.82-5.26,6.82a4.25,4.25,0,0,1-4-2.47l2-1.1a2.14,2.14,0,0,0,2,1.25c1.56,0,2.66-1.39,2.76-3.32a3.69,3.69,0,0,1-2.7,1,4,4,0,0,1-4.2-4c0-2.37,1.82-4.18,4.6-4.18S434.9,3.35,434.9,6.88Zm-2.73-1.73a2,2,0,0,0-2.07-1.92A1.89,1.89,0,1,0,430,7,2,2,0,0,0,432.17,5.15Z"/><path d="M449.53,9.92c0,2.24-1.9,3.78-4.59,3.78a4.59,4.59,0,0,1-4.09-2.19l1.75-1.34a2.72,2.72,0,0,0,2.22,1.25c1.31,0,2.17-.68,2.17-1.69S446.11,8,444.84,8h-1.2V6h.71c1.35,0,2.13-.72,2.07-1.59s-.69-1.24-1.6-1.24a2.81,2.81,0,0,0-2.11,1l-1.36-1.56A4.87,4.87,0,0,1,445.11.91c2.18,0,3.89,1.33,3.85,3.44a2.77,2.77,0,0,1-1.63,2.47A3.22,3.22,0,0,1,449.53,9.92Z"/><path d="M461.57,12.52l1.28,2.09L461,15.75l-1.38-2.28a7.41,7.41,0,0,1-1.83.25A6.66,6.66,0,0,1,451.11,7a6.66,6.66,0,1,1,13.31,0A6.74,6.74,0,0,1,461.57,12.52Zm-3.38-1.31-1.12-1.86,1.86-1.14,1.31,2.15A4.26,4.26,0,0,0,461.76,7a4,4,0,1,0-8,0,4,4,0,0,0,4,4.24A3,3,0,0,0,458.19,11.21Z"/><path d="M603,11.19v2.34h-8.37V12.18l4.86-5.83a3.35,3.35,0,0,0,.86-1.69,1.49,1.49,0,0,0-1.66-1.43A1.84,1.84,0,0,0,596.84,5l-2.26-.38A4,4,0,0,1,598.82.91c2.49,0,4.1,1.51,4.1,3.77a4.77,4.77,0,0,1-1.37,3.15l-2.92,3.36Z"/><path d="M605,7.34c0-3.6,1-6.43,4.64-6.43s4.6,2.83,4.6,6.43-1,6.36-4.6,6.36S605,10.87,605,7.34Zm6.71,0c0-2.3-.47-4.11-2.07-4.11S607.49,5,607.49,7.34s.49,4,2.11,4S611.67,9.6,611.67,7.34Z"/><path d="M624.28,11.19v2.34H615.9V12.18l4.86-5.83a3.27,3.27,0,0,0,.86-1.69A1.49,1.49,0,0,0,620,3.23,1.85,1.85,0,0,0,618.08,5l-2.26-.38A4,4,0,0,1,620.06.91c2.49,0,4.1,1.51,4.1,3.77a4.81,4.81,0,0,1-1.36,3.15l-2.93,3.36Z"/><path d="M626.21,7.34c0-3.6,1-6.43,4.63-6.43s4.6,2.83,4.6,6.43-1,6.36-4.6,6.36S626.21,10.87,626.21,7.34Zm6.7,0c0-2.3-.47-4.11-2.07-4.11S628.73,5,628.73,7.34s.5,4,2.11,4S632.91,9.6,632.91,7.34Z"/><path d="M646.82.91V13.53h-2.51V4.3l-2.86,1.1V3.06L646.61.91Z"/><path d="M659.63,12.52l1.27,2.09L659,15.75l-1.39-2.28a7.27,7.27,0,0,1-1.82.25A6.66,6.66,0,0,1,649.16,7a6.66,6.66,0,1,1,13.32,0A6.74,6.74,0,0,1,659.63,12.52Zm-3.38-1.31-1.12-1.86L657,8.21l1.31,2.15A4.26,4.26,0,0,0,659.82,7a4,4,0,1,0-8,0,4,4,0,0,0,4,4.24A3.1,3.1,0,0,0,656.25,11.21Z"/><path d="M801,11.19v2.34h-8.37V12.18l4.86-5.83a3.35,3.35,0,0,0,.86-1.69,1.49,1.49,0,0,0-1.66-1.43A1.84,1.84,0,0,0,794.84,5l-2.26-.38A4,4,0,0,1,796.82.91c2.49,0,4.1,1.51,4.1,3.77a4.77,4.77,0,0,1-1.37,3.15l-2.92,3.36Z"/><path d="M803,7.34c0-3.6,1-6.43,4.64-6.43s4.6,2.83,4.6,6.43-1,6.36-4.6,6.36S803,10.87,803,7.34Zm6.71,0c0-2.3-.47-4.11-2.07-4.11S805.49,5,805.49,7.34s.49,4,2.11,4S809.67,9.6,809.67,7.34Z"/><path d="M822.28,11.19v2.34H813.9V12.18l4.86-5.83a3.27,3.27,0,0,0,.86-1.69A1.49,1.49,0,0,0,818,3.23,1.85,1.85,0,0,0,816.08,5l-2.26-.38A4,4,0,0,1,818.06.91c2.49,0,4.1,1.51,4.1,3.77a4.81,4.81,0,0,1-1.36,3.15l-2.93,3.36Z"/><path d="M824.21,7.34c0-3.6,1-6.43,4.63-6.43s4.6,2.83,4.6,6.43-1,6.36-4.6,6.36S824.21,10.87,824.21,7.34Zm6.7,0c0-2.3-.47-4.11-2.07-4.11S826.73,5,826.73,7.34s.5,4,2.11,4S830.91,9.6,830.91,7.34Z"/><path d="M848.13,9.92c0,2.24-1.9,3.78-4.6,3.78a4.58,4.58,0,0,1-4.08-2.19l1.74-1.34a2.72,2.72,0,0,0,2.23,1.25c1.31,0,2.16-.68,2.16-1.69S844.71,8,843.43,8h-1.19V6h.7c1.35,0,2.13-.72,2.07-1.59s-.68-1.24-1.59-1.24a2.79,2.79,0,0,0-2.11,1l-1.37-1.56A4.87,4.87,0,0,1,843.7.91c2.18,0,3.89,1.33,3.86,3.44a2.78,2.78,0,0,1-1.64,2.47A3.23,3.23,0,0,1,848.13,9.92Z"/><path d="M860.17,12.52l1.27,2.09-1.88,1.14-1.39-2.28a7.4,7.4,0,0,1-1.82.25A6.66,6.66,0,0,1,849.7,7,6.66,6.66,0,1,1,863,7,6.74,6.74,0,0,1,860.17,12.52Zm-3.38-1.31-1.13-1.86,1.87-1.14,1.31,2.15A4.26,4.26,0,0,0,860.36,7a4,4,0,1,0-8,0,4,4,0,0,0,4,4.24A3.17,3.17,0,0,0,856.79,11.21Z"/><path class="cls-9" d="M13.68,189.93h1.84A2.38,2.38,0,0,0,18.09,192a2.08,2.08,0,0,0,2.35-1.93c0-1.1-1-1.62-2-1.89l-1.59-.4c-2.64-.66-3.08-2.23-3.08-3.26,0-2.17,1.93-3.56,4.13-3.56a3.66,3.66,0,0,1,4,3.65H20a2,2,0,0,0-2.2-2,2,2,0,0,0-2.21,1.84c0,.39.12,1.22,1.69,1.62l1.57.39c2.09.53,3.4,1.66,3.4,3.48,0,2.07-1.69,3.71-4.2,3.71S13.68,191.93,13.68,189.93Z"/><path class="cls-9" d="M32,185.12v8.41H30.21v-1.28a3.11,3.11,0,0,1-2.72,1.46c-2.12,0-3.4-1.39-3.39-3.78v-4.81h1.77v4.68A1.93,1.93,0,0,0,27.78,192a2.25,2.25,0,0,0,2.43-2.34v-4.5Z"/><path class="cls-9" d="M43.13,189.33A4.13,4.13,0,0,1,39,193.71,3.31,3.31,0,0,1,36,192.29v5.33H34.27v-12.5H36v1.26A3.39,3.39,0,0,1,39,184.94,4.16,4.16,0,0,1,43.13,189.33Zm-1.78,0A2.65,2.65,0,1,0,38.74,192,2.57,2.57,0,0,0,41.35,189.35Z"/><path class="cls-9" d="M53.77,189.33a4.13,4.13,0,0,1-4.18,4.38,3.29,3.29,0,0,1-2.91-1.42v5.33H44.91v-12.5h1.77v1.26a3.38,3.38,0,0,1,2.91-1.44A4.16,4.16,0,0,1,53.77,189.33Zm-1.78,0A2.65,2.65,0,1,0,49.38,192,2.57,2.57,0,0,0,52,189.35Z"/><path class="cls-9" d="M55,189.3a4.42,4.42,0,0,1,8.84,0,4.42,4.42,0,0,1-8.84,0Zm7.08,0A2.66,2.66,0,1,0,59.43,192,2.63,2.63,0,0,0,62.1,189.3Z"/><path class="cls-9" d="M71.21,185.25l-.3,1.67a2.93,2.93,0,0,0-1.24-.29c-1.54,0-2.25,1.6-2.25,3.87v3H65.63v-8.41h1.79V187c.43-1.48,1.27-2.07,2.35-2.07A3.11,3.11,0,0,1,71.21,185.25Z"/><path class="cls-9" d="M77.1,186.6H75.3v6.93H73.53V186.6H72v-1.48h1.51V182H75.3v3.15h1.8Z"/><path class="cls-9" d="M14.46,205.12h1.85v10.72h5v1.69H14.46Z"/><path class="cls-9" d="M31,209.12v8.41H29.18v-1.26a3.36,3.36,0,0,1-2.9,1.44,4.39,4.39,0,0,1,0-8.77,3.31,3.31,0,0,1,2.91,1.42v-1.24Zm-1.78,4.18a2.67,2.67,0,0,0-2.69-2.69,2.59,2.59,0,0,0-2.61,2.69,2.65,2.65,0,1,0,5.3,0Z"/><path class="cls-9" d="M41.12,212.72v4.81H39.35v-4.68a1.93,1.93,0,0,0-1.91-2.16A2.26,2.26,0,0,0,35,213v4.49H33.25v-8.41H35v1.3a3.14,3.14,0,0,1,2.74-1.48C39.87,208.94,41.13,210.33,41.12,212.72Z"/><path class="cls-9" d="M51.63,209.12v7.15c0,3.91-1.8,5.45-4.63,5.45a4.28,4.28,0,0,1-3.85-2.32l1.49-.74A2.71,2.71,0,0,0,47,220.08c1.76,0,2.86-1,2.86-3.67v-.11a3.46,3.46,0,0,1-2.9,1.41,4.39,4.39,0,0,1,0-8.77,3.4,3.4,0,0,1,2.92,1.4v-1.22Zm-1.79,4.18a2.66,2.66,0,0,0-2.68-2.69,2.59,2.59,0,0,0-2.61,2.69,2.65,2.65,0,1,0,5.29,0Z"/><path class="cls-9" d="M61.69,209.12v8.41H59.93v-1.28a3.11,3.11,0,0,1-2.72,1.46c-2.13,0-3.4-1.39-3.39-3.78v-4.81h1.77v4.68A1.93,1.93,0,0,0,57.5,216a2.25,2.25,0,0,0,2.43-2.34v-4.5Z"/><path class="cls-9" d="M72.34,209.12v8.41H70.58v-1.26a3.37,3.37,0,0,1-2.9,1.44,4.39,4.39,0,0,1,0-8.77,3.32,3.32,0,0,1,2.92,1.42v-1.24Zm-1.78,4.18a2.66,2.66,0,0,0-2.68-2.69,2.59,2.59,0,0,0-2.61,2.69,2.65,2.65,0,1,0,5.29,0Z"/><path class="cls-9" d="M83,209.12v7.15c0,3.91-1.8,5.45-4.62,5.45a4.31,4.31,0,0,1-3.86-2.32l1.5-.74a2.71,2.71,0,0,0,2.36,1.42c1.76,0,2.86-1,2.86-3.67v-.11a3.46,3.46,0,0,1-2.9,1.41,4.39,4.39,0,0,1,0-8.77,3.4,3.4,0,0,1,2.92,1.4v-1.22Zm-1.78,4.18a2.66,2.66,0,0,0-2.68-2.69,2.59,2.59,0,0,0-2.61,2.69,2.65,2.65,0,1,0,5.29,0Z"/><path class="cls-9" d="M93.31,214h-6.7a2.39,2.39,0,0,0,2.61,2,2.69,2.69,0,0,0,2.36-1.19l1.41.7a4.4,4.4,0,1,1-3.86-6.64,4.09,4.09,0,0,1,4.22,4.34C93.35,213.51,93.33,213.77,93.31,214Zm-1.73-1.43a2.25,2.25,0,0,0-2.43-2,2.34,2.34,0,0,0-2.52,2Z"/><path class="cls-9" d="M21.05,394.4H15.9l-1.15,3.13H12.8l4.7-12.41h2l4.68,12.41H22.22Zm-.6-1.62-2-5.35-2,5.35Z"/><path class="cls-9" d="M34.28,389.05a3.59,3.59,0,0,1-3.79,3.89H27.38v4.59H25.52V385.12h5A3.63,3.63,0,0,1,34.28,389.05Zm-1.86,0a2,2,0,0,0-2-2.24H27.38v4.43h3A2,2,0,0,0,32.42,389.05Z"/><path class="cls-9" d="M36.13,385.12H38v12.41H36.13Z"/><path class="cls-9" d="M53.23,389.12v8.41H51.46v-1.26a3.34,3.34,0,0,1-2.89,1.44,4.39,4.39,0,0,1,0-8.77,3.29,3.29,0,0,1,2.91,1.42v-1.24Zm-1.78,4.18a2.67,2.67,0,0,0-2.69-2.69,2.59,2.59,0,0,0-2.61,2.69,2.65,2.65,0,1,0,5.3,0Z"/><path class="cls-9" d="M63.4,392.72v4.81H61.63v-4.68a1.93,1.93,0,0,0-1.91-2.16A2.26,2.26,0,0,0,57.29,393v4.49H55.53v-8.41h1.76v1.3A3.14,3.14,0,0,1,60,388.94C62.15,388.94,63.42,390.33,63.4,392.72Z"/><path class="cls-9" d="M73.91,384.56v13H72.14v-1.26a3.36,3.36,0,0,1-2.9,1.44,4.39,4.39,0,0,1,0-8.77,3.31,3.31,0,0,1,2.91,1.42v-5.8Zm-1.79,8.74a2.66,2.66,0,0,0-2.68-2.69,2.59,2.59,0,0,0-2.61,2.69,2.65,2.65,0,1,0,5.29,0Z"/><path class="cls-9" d="M14.46,409.12h1.85v12.41H14.46Z"/><path class="cls-9" d="M26.81,416.72v4.81H25v-4.68a1.92,1.92,0,0,0-1.9-2.16A2.26,2.26,0,0,0,20.71,417v4.49H18.94v-8.41h1.77v1.3a3.11,3.11,0,0,1,2.73-1.48C25.57,412.94,26.83,414.33,26.81,416.72Z"/><path class="cls-9" d="M33.08,414.6h-1.8v6.93H29.51V414.6H28v-1.48h1.51V410h1.77v3.15h1.8Z"/><path class="cls-9" d="M42.3,418H35.61a2.39,2.39,0,0,0,2.61,2,2.7,2.7,0,0,0,2.36-1.19l1.4.7a4.4,4.4,0,1,1-3.85-6.64,4.09,4.09,0,0,1,4.21,4.34C42.34,417.51,42.32,417.77,42.3,418Zm-1.72-1.43a2.26,2.26,0,0,0-2.43-2,2.35,2.35,0,0,0-2.53,2Z"/><path class="cls-9" d="M49.7,413.25l-.3,1.67a2.94,2.94,0,0,0-1.25-.29c-1.53,0-2.25,1.6-2.25,3.87v3H44.12v-8.41H45.9V415c.43-1.48,1.28-2.07,2.36-2.07A3.11,3.11,0,0,1,49.7,413.25Z"/><path class="cls-9" d="M59.12,413.12v7.15c0,3.91-1.8,5.45-4.63,5.45a4.3,4.3,0,0,1-3.85-2.32l1.49-.74a2.71,2.71,0,0,0,2.36,1.42c1.77,0,2.86-1,2.86-3.67v-.11a3.44,3.44,0,0,1-2.89,1.41,4.39,4.39,0,0,1,0-8.77,3.37,3.37,0,0,1,2.91,1.4v-1.22Zm-1.78,4.18a2.67,2.67,0,0,0-2.69-2.69A2.59,2.59,0,0,0,52,417.3a2.65,2.65,0,1,0,5.3,0Z"/><path class="cls-9" d="M67,413.25l-.31,1.67a2.9,2.9,0,0,0-1.24-.29c-1.53,0-2.25,1.6-2.25,3.87v3H61.42v-8.41H63.2V415c.43-1.48,1.28-2.07,2.36-2.07A3.11,3.11,0,0,1,67,413.25Z"/><path class="cls-9" d="M76.42,413.12v8.41H74.65v-1.26a3.36,3.36,0,0,1-2.9,1.44,4.39,4.39,0,0,1,0-8.77,3.32,3.32,0,0,1,2.92,1.42v-1.24Zm-1.79,4.18A2.66,2.66,0,0,0,72,414.61a2.59,2.59,0,0,0-2.61,2.69,2.65,2.65,0,1,0,5.29,0Z"/><path class="cls-9" d="M83,414.6h-1.8v6.93H79.39V414.6H77.88v-1.48h1.51V410h1.76v3.15H83Z"/><path class="cls-9" d="M83.92,410.06a1.17,1.17,0,0,1,1.21-1.14,1.14,1.14,0,1,1-1.21,1.14Zm.33,3.06H86v8.41H84.25Z"/><path class="cls-9" d="M87.76,417.3a4.42,4.42,0,0,1,8.84,0,4.42,4.42,0,0,1-8.84,0Zm7.08,0A2.66,2.66,0,1,0,92.17,420,2.63,2.63,0,0,0,94.84,417.3Z"/><path class="cls-9" d="M106.24,416.72v4.81h-1.76v-4.68a1.93,1.93,0,0,0-1.91-2.16,2.26,2.26,0,0,0-2.43,2.35v4.49H98.37v-8.41h1.77v1.3a3.11,3.11,0,0,1,2.73-1.48C105,412.94,106.26,414.33,106.24,416.72Z"/><path class="cls-9" d="M121,410.81h-3.69v10.72h-1.85V410.81h-3.69v-1.69H121Z"/><path class="cls-9" d="M120.44,417.3a4.42,4.42,0,0,1,8.84,0,4.42,4.42,0,0,1-8.84,0Zm7.08,0a2.66,2.66,0,1,0-2.66,2.73A2.62,2.62,0,0,0,127.52,417.3Z"/><path class="cls-9" d="M130.53,417.3a4.42,4.42,0,0,1,8.84,0,4.42,4.42,0,0,1-8.84,0Zm7.07,0a2.66,2.66,0,1,0-2.66,2.73A2.62,2.62,0,0,0,137.6,417.3Z"/><path class="cls-9" d="M141.16,408.56h1.76v13h-1.76Z"/><path class="cls-9" d="M21.05,519.4H15.9l-1.15,3.13H12.8l4.7-12.41h2l4.68,12.41H22.22Zm-.6-1.62-2-5.35-2,5.35Z"/><path class="cls-9" d="M34.28,514.05a3.59,3.59,0,0,1-3.79,3.89H27.38v4.59H25.52V510.12h5A3.63,3.63,0,0,1,34.28,514.05Zm-1.86,0a2,2,0,0,0-2-2.24H27.38v4.43h3A2,2,0,0,0,32.42,514.05Z"/><path class="cls-9" d="M44.84,514.05a3.59,3.59,0,0,1-3.78,3.89H37.94v4.59H36.09V510.12h5A3.63,3.63,0,0,1,44.84,514.05Zm-1.86,0a2,2,0,0,0-2-2.24H37.94v4.43h3A2,2,0,0,0,43,514.05Z"/><path class="cls-9" d="M45.71,520h1.64c0,.67.59,1.24,1.54,1.24s1.57-.45,1.57-1.08-.45-.84-1.08-1l-1.13-.27c-1.57-.41-2.29-1.22-2.29-2.46s1.24-2.47,3-2.47c1.44,0,3,.76,3,2.52h-1.7a1.18,1.18,0,0,0-1.26-1,1.12,1.12,0,0,0-1.24,1c0,.52.49.81,1,.94l1.28.3a2.45,2.45,0,0,1,2.19,2.47c0,1.6-1.58,2.54-3.31,2.54A3,3,0,0,1,45.71,520Z"/><path class="cls-3" d="M770.92,602.25l-.18,2.08,1.61-1.29.55.91-2,.89,2,.91-.53.93-1.62-1.32.21,2.1h-1l.2-2.1-1.6,1.32-.53-.93,2-.91-2-.89.55-.91,1.58,1.29-.17-2.08Z"/><path class="cls-3" d="M779.39,609.07l-1,2.93h-1.29l3.48-9.75h1.58l3.63,9.75h-1.39l-1.08-2.93ZM783,608c-.94-2.57-1.44-3.93-1.65-4.67h0c-.24.83-.81,2.48-1.55,4.67Z"/><path class="cls-3" d="M787,612V601.72h1.24V612Z"/><path class="cls-3" d="M790.17,612V601.72h1.23V612Z"/><path class="cls-3" d="M797.87,609.28a2.22,2.22,0,0,0,2.48,1.81c1.51,0,2.11-.71,2.11-1.64s-.48-1.53-2.42-2c-2.3-.56-3.1-1.34-3.1-2.71s1.07-2.64,3.24-2.64c2.32,0,3.28,1.35,3.42,2.62h-1.32a1.9,1.9,0,0,0-2.14-1.57c-1.19,0-1.85.53-1.85,1.46s.54,1.27,2.25,1.69c2.78.68,3.27,1.75,3.27,3,0,1.56-1.17,2.8-3.55,2.8s-3.5-1.35-3.71-2.85Z"/><path class="cls-3" d="M811.14,609.83a2.81,2.81,0,0,1-2.93,2.34c-2,0-3.17-1.4-3.17-3.68,0-2,1.14-3.76,3.25-3.76a2.65,2.65,0,0,1,2.85,2.37h-1.22a1.58,1.58,0,0,0-1.65-1.35c-1.25,0-2,1.08-2,2.69s.69,2.71,1.92,2.71a1.7,1.7,0,0,0,1.7-1.32Z"/><path class="cls-3" d="M813.78,601.72V606a2.36,2.36,0,0,1,2.21-1.22c1.14,0,2.4.62,2.4,2.73V612h-1.23v-4.33c0-1.2-.51-1.87-1.54-1.87-1.28,0-1.84.84-1.84,2.32V612h-1.23V601.72Z"/><path class="cls-3" d="M821.1,608.67c0,1.44.75,2.48,1.95,2.48a1.63,1.63,0,0,0,1.71-1.11H826a2.9,2.9,0,0,1-3,2.13c-2.23,0-3.14-1.82-3.14-3.64,0-2.12,1.07-3.8,3.22-3.8s3,1.84,3,3.35c0,.22,0,.41,0,.59Zm3.78-.86c0-1.17-.6-2.11-1.8-2.11s-1.81.87-1.93,2.11Z"/><path class="cls-3" d="M833.64,601.72V610c0,.66,0,1.31,0,2h-1.18a7.27,7.27,0,0,1-.07-1,2.23,2.23,0,0,1-2.23,1.18c-1.83,0-2.95-1.49-2.95-3.64s1.21-3.8,3.18-3.8c1.26,0,1.82.51,2,.91v-3.92Zm-3.21,9.41c1.66,0,2-1.23,2-2.79s-.33-2.57-1.93-2.57c-1.26,0-2,1-2,2.72S829.31,611.13,830.43,611.13Z"/><path class="cls-3" d="M841.25,609.93c0,.7,0,1.65,0,2.07h-1.19a10.49,10.49,0,0,1-.06-1.06,2.1,2.1,0,0,1-2.14,1.23c-1.21,0-2.36-.6-2.36-2.61V604.9h1.22v4.41c0,.93.3,1.79,1.47,1.79s1.81-.72,1.81-2.5v-3.7h1.23Z"/><path class="cls-3" d="M843.17,612V601.72h1.24V612Z"/><path class="cls-3" d="M847.15,608.67c0,1.44.74,2.48,1.94,2.48A1.63,1.63,0,0,0,850.8,610h1.25a2.9,2.9,0,0,1-3,2.13c-2.23,0-3.14-1.82-3.14-3.64,0-2.12,1.07-3.8,3.22-3.8s3,1.84,3,3.35c0,.22,0,.41,0,.59Zm3.78-.86c0-1.17-.6-2.11-1.81-2.11s-1.81.87-1.93,2.11Z"/><path class="cls-3" d="M854.34,610a1.61,1.61,0,0,0,1.74,1.23c1,0,1.44-.45,1.44-1.09s-.32-1-1.68-1.3c-2-.49-2.45-1.12-2.45-2.09s.74-2,2.56-2,2.59,1.07,2.68,2h-1.18a1.42,1.42,0,0,0-1.54-1.1c-1,0-1.3.48-1.3.94s.29.8,1.59,1.11c2.16.52,2.6,1.23,2.6,2.28,0,1.25-1,2.16-2.76,2.16s-2.75-.93-2.93-2.2Z"/><path class="cls-3" d="M869.51,609.83a2.81,2.81,0,0,1-2.93,2.34c-2,0-3.17-1.4-3.17-3.68,0-2,1.14-3.76,3.25-3.76a2.65,2.65,0,0,1,2.85,2.37h-1.22a1.58,1.58,0,0,0-1.66-1.35c-1.24,0-2,1.08-2,2.69s.69,2.71,1.92,2.71a1.71,1.71,0,0,0,1.7-1.32Z"/><path class="cls-3" d="M876.32,610.45a11.27,11.27,0,0,0,.1,1.55h-1.18a3.75,3.75,0,0,1-.11-.92,2.27,2.27,0,0,1-2.2,1.09,2.15,2.15,0,0,1-2.39-2.17c0-1.58,1.24-2.31,3.36-2.31h1.2v-.61c0-.63-.19-1.38-1.53-1.38-1.17,0-1.38.59-1.51,1.13h-1.19c.1-1,.7-2.1,2.75-2.1,1.73,0,2.7.72,2.7,2.33Zm-1.2-1.91H874c-1.42,0-2.17.39-2.17,1.39a1.24,1.24,0,0,0,1.38,1.27c1.71,0,1.94-1.15,1.94-2.43Z"/><path class="cls-3" d="M878.23,606.69c0-.61,0-1.24,0-1.79h1.19a11.27,11.27,0,0,1,.06,1.16,2.22,2.22,0,0,1,2.22-1.33c1.35,0,2.38.81,2.38,2.7V612h-1.23v-4.41c0-1.08-.42-1.79-1.5-1.79-1.34,0-1.87,1-1.87,2.45V612h-1.24Z"/><path class="cls-3" d="M889.7,601.72h1.23v4.19a2.33,2.33,0,0,1,2.26-1.18c1.79,0,2.91,1.47,2.91,3.57s-1.09,3.87-3.1,3.87a2.06,2.06,0,0,1-2.08-1.11,7.13,7.13,0,0,1-.06.94h-1.18c0-.8,0-1.6,0-2.38Zm3.21,4c-1.52,0-2,1-2,2.7,0,1.49.48,2.66,2,2.66,1.26,0,2-1.08,2-2.8C894.84,606.79,894.14,605.77,892.91,605.77Z"/><path class="cls-3" d="M898.44,608.67c0,1.44.74,2.48,1.95,2.48A1.64,1.64,0,0,0,902.1,610h1.24a2.9,2.9,0,0,1-3,2.13c-2.23,0-3.14-1.82-3.14-3.64,0-2.12,1.06-3.8,3.22-3.8s3,1.84,3,3.35c0,.22,0,.41,0,.59Zm3.78-.86c0-1.17-.6-2.11-1.8-2.11s-1.81.87-1.94,2.11Z"/><path class="cls-3" d="M914.18,609.83a2.81,2.81,0,0,1-2.93,2.34c-2,0-3.16-1.4-3.16-3.68,0-2,1.13-3.76,3.25-3.76a2.64,2.64,0,0,1,2.84,2.37H913a1.58,1.58,0,0,0-1.65-1.35c-1.25,0-2,1.08-2,2.69s.68,2.71,1.92,2.71a1.69,1.69,0,0,0,1.69-1.32Z"/><path class="cls-3" d="M916.82,601.72V606a2.36,2.36,0,0,1,2.22-1.22c1.13,0,2.39.62,2.39,2.73V612H920.2v-4.33c0-1.2-.5-1.87-1.54-1.87-1.28,0-1.84.84-1.84,2.32V612h-1.23V601.72Z"/><path class="cls-3" d="M928.66,610.45a9.84,9.84,0,0,0,.1,1.55h-1.18a3.3,3.3,0,0,1-.11-.92,2.28,2.28,0,0,1-2.2,1.09,2.15,2.15,0,0,1-2.4-2.17c0-1.58,1.25-2.31,3.36-2.31h1.21v-.61c0-.63-.2-1.38-1.53-1.38-1.17,0-1.38.59-1.51,1.13h-1.19c.1-1,.7-2.1,2.74-2.1,1.74,0,2.71.72,2.71,2.33Zm-1.21-1.91H926.3c-1.41,0-2.17.39-2.17,1.39a1.25,1.25,0,0,0,1.39,1.27c1.71,0,1.93-1.15,1.93-2.43Z"/><path class="cls-3" d="M930.57,606.69c0-.61,0-1.24,0-1.79h1.19a11.25,11.25,0,0,1,0,1.16,2.24,2.24,0,0,1,2.23-1.33c1.35,0,2.38.81,2.38,2.7V612h-1.23v-4.41c0-1.08-.42-1.79-1.5-1.79-1.34,0-1.88,1-1.88,2.45V612h-1.23Z"/><path class="cls-3" d="M944.23,611.36c0,2.28-.94,3.57-3.26,3.57-2.16,0-2.82-1.21-2.94-2.17h1.24A1.63,1.63,0,0,0,941,614c1.61,0,2-1,2-2.65v-.57a2.19,2.19,0,0,1-2.22,1.24c-1.75,0-2.94-1.43-2.94-3.51,0-2.31,1.36-3.73,3.07-3.73,1.36,0,1.93.63,2.09,1.11,0-.32.05-.8.07-.94h1.15c0,.41,0,1.37,0,2Zm-3.14-.44c1.53,0,2-1,2-2.6s-.42-2.55-1.93-2.55c-1.32,0-2,1.1-2,2.63S939.93,610.92,941.09,610.92Z"/><path class="cls-3" d="M947,608.67c0,1.44.75,2.48,1.95,2.48a1.64,1.64,0,0,0,1.71-1.11h1.25a2.91,2.91,0,0,1-3,2.13c-2.23,0-3.14-1.82-3.14-3.64,0-2.12,1.07-3.8,3.22-3.8s3,1.84,3,3.35c0,.22,0,.41,0,.59Zm3.78-.86c0-1.17-.6-2.11-1.8-2.11s-1.81.87-1.93,2.11Z"/><path class="cls-3" d="M959.49,601.72V610c0,.66,0,1.31,0,2h-1.17a7.27,7.27,0,0,1-.07-1,2.23,2.23,0,0,1-2.23,1.18c-1.83,0-2.95-1.49-2.95-3.64s1.21-3.8,3.17-3.8c1.27,0,1.83.51,2,.91v-3.92Zm-3.21,9.41c1.66,0,2-1.23,2-2.79s-.33-2.57-1.93-2.57c-1.26,0-2,1-2,2.72S955.16,611.13,956.28,611.13Z"/></svg>