<svg id="Layer_1" data-name="Layer 1" xmlns="http://www.w3.org/2000/svg" viewBox="0 0 235 235"><defs><style>.cls-1{fill:#e2e5eb;}.cls-13,.cls-2,.cls-4,.cls-5,.cls-6,.cls-7{fill:none;stroke-miterlimit:10;}.cls-13,.cls-2{stroke:#e2e5eb;}.cls-2{stroke-width:0.5px;}.cls-3{fill:#97a0af;}.cls-4{stroke:#ef7e53;}.cls-4,.cls-5,.cls-6{stroke-width:11px;}.cls-5{stroke:#585f6b;}.cls-6{stroke:#f3b44d;}.cls-7{stroke:#21a9ae;}.cls-7,.cls-8{stroke-width:2px;}.cls-8{fill:#fff;stroke:#2a3141;stroke-linecap:round;stroke-linejoin:round;}.cls-9{fill:#5c677f;}.cls-10{fill:#97a4b7;}.cls-11{fill:#ecedef;}.cls-12{fill:#2a3141;}</style></defs><title>index-step-3</title><path class="cls-1" d="M234,21V226.44a7.57,7.57,0,0,1-7.56,7.56H8.56A7.57,7.57,0,0,1,1,226.44V21H234m1-1H0V226.44A8.56,8.56,0,0,0,8.56,235H226.44a8.56,8.56,0,0,0,8.56-8.56V20Z"/><line class="cls-2" x1="76.5" y1="176.5" x2="76.5" y2="213.5"/><line class="cls-2" x1="113.5" y1="184.5" x2="113.5" y2="213.5"/><line class="cls-2" x1="149.5" y1="165.5" x2="149.5" y2="213.5"/><line class="cls-2" x1="180.5" y1="169.5" x2="180.5" y2="213.5"/><polyline class="cls-2" points="32 189.03 32 213.5 205 213.5 205 153"/><path class="cls-3" d="M2.89,0H232.11A2.89,2.89,0,0,1,235,2.89V24a0,0,0,0,1,0,0H0a0,0,0,0,1,0,0V2.89A2.89,2.89,0,0,1,2.89,0Z"/><circle class="cls-1" cx="12.99" cy="12" r="3.84"/><circle class="cls-1" cx="26.45" cy="12" r="3.84"/><circle class="cls-1" cx="39.9" cy="12" r="3.84"/><circle class="cls-4" cx="42.98" cy="84.31" r="22.02"/><path class="cls-5" d="M63.5,76.29a22,22,0,0,1-33.32,25.94"/><path class="cls-6" d="M43,62.29a22,22,0,0,1,20.52,14"/><polyline class="cls-7" points="204.7 153 180.88 168.77 149.32 165.26 112.68 184.46 76.95 176.31 32 189.23"/><circle class="cls-8" cx="32.06" cy="189.04" r="2.06"/><circle class="cls-8" cx="76.79" cy="176.29" r="2.06"/><circle class="cls-8" cx="113.11" cy="184.1" r="2.06"/><circle class="cls-8" cx="149.63" cy="165.08" r="2.06"/><circle class="cls-8" cx="180.7" cy="169.2" r="2.06"/><circle class="cls-8" cx="204.96" cy="153.2" r="2.06"/><rect class="cls-9" x="122.55" y="55.83" width="60.07" height="6.67" rx="0.5"/><rect class="cls-1" x="106.57" y="54.17" width="10" height="10" rx="1"/><rect class="cls-10" x="122.55" y="72.41" width="93.45" height="6.67" rx="0.5"/><rect class="cls-1" x="106.57" y="70.74" width="10" height="10" rx="1"/><rect class="cls-11" x="122.55" y="88.98" width="40.05" height="6.67" rx="0.5"/><rect class="cls-12" x="167.61" y="88.98" width="43.47" height="6.67" rx="0.5"/><rect class="cls-1" x="106.57" y="87.31" width="10" height="10" rx="1"/><rect class="cls-12" x="122.55" y="105.55" width="21.69" height="6.67" rx="0.5"/><rect class="cls-3" x="149.25" y="105.55" width="8.56" height="6.67" rx="0.5"/><rect class="cls-11" x="162.82" y="105.55" width="29.82" height="6.67" rx="0.5"/><rect class="cls-1" x="106.57" y="103.88" width="10" height="10" rx="1"/><line class="cls-13" x1="88" y1="44" x2="88" y2="129"/><line class="cls-13" x1="13" y1="140" x2="220" y2="140"/></svg>