<?xml version="1.0" encoding="utf-8"?>
<!-- Generator: Adobe Illustrator 23.0.2, SVG Export Plug-In . SVG Version: 6.00 Build 0)  -->
<svg version="1.1" id="Layer_1" xmlns="http://www.w3.org/2000/svg" xmlns:xlink="http://www.w3.org/1999/xlink" x="0px" y="0px"
	 viewBox="0 0 1900 340" style="enable-background:new 0 0 1900 340;" xml:space="preserve">
<style type="text/css">
	.st0{fill:#2A3141;}
	.st1{fill:url(#SVGID_1_);}
	.st2{fill:#FFFFFF;stroke:url(#SVGID_2_);stroke-width:3;stroke-miterlimit:10;}
	.st3{fill:#1C212B;}
	.st4{font-family:'SofiaPro-Bold';}
	.st5{font-size:12px;}
	.st6{font-size:13px;}
	.st7{fill:none;}
	.st8{fill:#5C677F;}
	.st9{font-family:'AcuminPro-Regular';}
	.st10{font-size:9px;}
	.st11{fill:none;stroke:#E2E5EB;stroke-width:0.5;stroke-miterlimit:10;}
	.st12{fill:#F05F4A;}
	.st13{fill:#FFFFFF;stroke:url(#SVGID_3_);stroke-width:3;stroke-miterlimit:10;}
	.st14{fill:#293240;}
	.st15{fill:#FFFFFF;stroke:url(#SVGID_4_);stroke-width:3;stroke-miterlimit:10;}
	.st16{font-size:31.5354px;}
	.st17{fill:#2DD15B;}
	.st18{fill:#EF7E53;}
	.st19{fill:#FFFFFF;stroke:url(#SVGID_5_);stroke-width:3;stroke-miterlimit:10;}
	.st20{fill:#FFFFFF;stroke:url(#SVGID_6_);stroke-width:3;stroke-miterlimit:10;}
	.st21{fill:#FFFFFF;}
	.st22{fill:#FFFFFF;stroke:url(#SVGID_7_);stroke-width:3;stroke-miterlimit:10;}
	.st23{fill:#F5B54D;}
	.st24{fill:#CC61A8;}
	.st25{fill:#BACC54;}
	.st26{fill:#21ABB0;}
	.st27{fill:#FFFFFF;stroke:url(#SVGID_8_);stroke-width:3;stroke-miterlimit:10;}
	.st28{fill:#FFFFFF;stroke:url(#SVGID_9_);stroke-width:3;stroke-miterlimit:10;}
</style>
<rect x="37" y="272" class="st0" width="1582" height="4"/>
<linearGradient id="SVGID_1_" gradientUnits="userSpaceOnUse" x1="1619" y1="274" x2="1829" y2="274">
	<stop  offset="0" style="stop-color:#2A3141"/>
	<stop  offset="1" style="stop-color:#FFFFFF"/>
</linearGradient>
<rect x="1619" y="272" class="st1" width="210" height="4"/>
<g>
	<linearGradient id="SVGID_2_" gradientUnits="userSpaceOnUse" x1="40.7505" y1="280.4961" x2="33.2495" y2="267.5039">
		<stop  offset="0" style="stop-color:#EF7E53"/>
		<stop  offset="1" style="stop-color:#EF4431"/>
	</linearGradient>
	<circle class="st2" cx="37" cy="274" r="6"/>
	<text transform="matrix(1 0 0 1 37 187.0303)" class="st3 st4 st5">Starting Acellere GmbH</text>
	<text transform="matrix(1 0 0 1 37 299.0303)" class="st3 st4 st6">2009</text>
	<rect x="37" y="201.9" class="st7" width="160" height="55.1"/>
	<text transform="matrix(1 0 0 1 36.9998 208.4727)"><tspan x="0" y="0" class="st8 st9 st10">Vishal who CEO of Embold and Sud </tspan><tspan x="0" y="14" class="st8 st9 st10">who CTO of Embold have launched </tspan><tspan x="0" y="28" class="st8 st9 st10">Acellere GmbH in Frankfurt am Main, </tspan><tspan x="0" y="42" class="st8 st9 st10">Germany</tspan></text>
	<g>
		<rect x="37" y="100.5" class="st11" width="160" height="60.5"/>
		<g>
			<path d="M100.1,134.8h0.7v1.8h-1.4l-0.7-0.7c-0.6,0.6-1.3,0.9-2.2,0.9c-2,0-3.3-1.1-3.3-2.7c0-0.9,0.4-2.4,3.3-2.4h1.8v-0.5
				c0-0.7-0.8-1.1-1.6-1.1c-0.6,0-1.2,0.3-1.5,0.8l-1.5-0.7c0.5-1.2,1.7-1.7,3.1-1.7c1.6,0,3.2,0.7,3.2,2.5V134.8z M98.4,133.1h-2
				c-1.2,0-1.4,0.6-1.4,1c0,0.5,0.4,1.1,1.6,1.1C98,135.2,98.4,134,98.4,133.1L98.4,133.1z"/>
			<path d="M109.9,134.2l1.4,1.1c-0.7,0.9-1.8,1.4-2.9,1.4c-2.3,0-4.1-1.8-4.1-4.1c0-2.3,1.8-4.1,4.1-4.1c1.1,0,2.1,0.4,2.8,1.2
				l-1.3,1.3c-0.4-0.4-0.9-0.7-1.5-0.7c-1.3,0.1-2.3,1.2-2.3,2.5c0.1,1.2,1,2.2,2.3,2.3C109,134.9,109.6,134.7,109.9,134.2z"/>
			<path d="M120.8,133.9l1.5,0.8c-0.7,1.2-1.9,2-3.3,2c-2.3,0-3.9-1.9-3.9-4.1s1.6-4.1,3.9-4.1s3.6,1.9,3.7,3.9L122,133h-5
				c0.1,1.1,0.9,1.9,2,2C119.7,135,120.4,134.6,120.8,133.9z M117,131.6h3.8c-0.1-0.9-1-1.6-1.9-1.5C118,130,117.2,130.7,117,131.6z
				"/>
			<path d="M127.1,124.4l0.6-0.6h1.3v11h0.7v1.8h-1.8l-0.8-0.8L127.1,124.4z"/>
			<path d="M134.4,124.4l0.6-0.6h1.3v11h0.7v1.8h-1.8l-0.8-0.8V124.4z"/>
			<path d="M146.4,133.9l1.5,0.8c-0.7,1.2-1.9,2-3.3,2c-2.3,0-3.9-1.9-3.9-4.1s1.6-4.1,3.9-4.1c2.2,0,3.6,1.9,3.7,3.9l-0.7,0.7h-5
				c0.1,1.1,0.9,2,2,2C145.3,135,146,134.6,146.4,133.9z M142.6,131.6h3.8c-0.1-0.9-1-1.6-1.9-1.5
				C143.6,130,142.8,130.7,142.6,131.6L142.6,131.6z"/>
			<path d="M154.7,136.5h-1.8v-6.3h-0.7v-1.6h1.5l0.9,0.9c0.5-0.6,1.2-1,2-1c0.3,0,0.5,0,0.8,0.1l-0.5,1.9c-0.2-0.1-0.4-0.1-0.6-0.1
				c-0.7,0-1.4,0.5-1.4,1.3V136.5z"/>
			<path d="M166.4,133.9l1.5,0.8c-0.7,1.2-1.9,2-3.3,2c-2.3,0-3.9-1.9-3.9-4.1s1.6-4.1,3.9-4.1c2.2,0,3.6,1.9,3.7,3.9l-0.7,0.7h-5
				c0.1,1.1,0.9,1.9,2,2C165.3,135,166,134.6,166.4,133.9z M162.6,131.6h3.8c-0.1-0.9-1-1.6-1.9-1.5
				C163.6,130,162.8,130.7,162.6,131.6L162.6,131.6z"/>
			<path class="st12" d="M71.2,122.4c-0.5,0.5-0.9,1-1.2,1.6l-5.2,9c-1.3,2.3-1.4,4.5-0.2,6h0.2c2.5,0,4.5-0.4,6-1.2
				c-0.4-1.5-0.1-3.3,1-5.1l1.9-3.3C73.2,126.9,72.4,124.6,71.2,122.4z"/>
			<path class="st12" d="M79.7,140.7c2.4,0,4.2-0.8,5-2.2c0.8-1.5,0.6-3.4-0.6-5.5l-5.2-9c-1.2-2.1-2.8-3.2-4.5-3.2
				c-0.9,0-1.7,0.3-2.4,0.8c1,1.8,4.8,9.6,2,14.6c-1.4,2.4-4.1,3.7-8.1,3.9c1,0.5,2.2,0.7,3.3,0.7H79.7z"/>
		</g>
	</g>
</g>
<g>
	<linearGradient id="SVGID_3_" gradientUnits="userSpaceOnUse" x1="266.7505" y1="280.4961" x2="259.2495" y2="267.5039">
		<stop  offset="0" style="stop-color:#EF7E53"/>
		<stop  offset="1" style="stop-color:#EF4431"/>
	</linearGradient>
	<circle class="st13" cx="263" cy="274" r="6"/>
	<text transform="matrix(1 0 0 1 263 187.0303)" class="st3 st4 st5">Launched Gamma beta</text>
	<text transform="matrix(1 0 0 1 263 299.0303)" class="st3 st4 st6">2015</text>
	<rect x="263" y="201.9" class="st7" width="160" height="55.1"/>
	<text transform="matrix(1 0 0 1 262.9998 208.4727)"><tspan x="0" y="0" class="st8 st9 st10">Vishal who CEO of Embold and Sud </tspan><tspan x="0" y="14" class="st8 st9 st10">who CTO of Embold have launched </tspan><tspan x="0" y="28" class="st8 st9 st10">Acellere GmbH in Frankfurt am Main, </tspan><tspan x="0" y="42" class="st8 st9 st10">Germany</tspan></text>
	<g>
		<rect x="263" y="100.5" class="st11" width="160" height="60.5"/>
		<g>
			<path class="st14" d="M290.1,130.1h5.3c0.4,0,0.7,0.3,0.7,0.7l0,0c0,0.4-0.3,0.7-0.7,0.7h-5.3c-0.4,0-0.7-0.3-0.7-0.7l0,0
				C289.5,130.4,289.8,130.1,290.1,130.1z"/>
			<path class="st14" d="M298.1,130.1h5.3c0.4,0,0.7,0.3,0.7,0.7l0,0c0,0.4-0.3,0.7-0.7,0.7h-5.3c-0.4,0-0.7-0.3-0.7-0.7l0,0
				C297.5,130.4,297.8,130.1,298.1,130.1z"/>
			<path class="st14" d="M290.1,132.8h5.3c0.4,0,0.7,0.3,0.7,0.7l0,0c0,0.4-0.3,0.7-0.7,0.7h-5.3c-0.4,0-0.7-0.3-0.7-0.7l0,0
				C289.5,133,289.8,132.8,290.1,132.8z"/>
			<path class="st14" d="M298.1,132.8h5.3c0.4,0,0.7,0.3,0.7,0.7l0,0c0,0.4-0.3,0.7-0.7,0.7h-5.3c-0.4,0-0.7-0.3-0.7-0.7l0,0
				C297.5,133,297.8,132.8,298.1,132.8z"/>
			<path class="st14" d="M290.1,124.8h5.3c0.4,0,0.7,0.3,0.7,0.7l0,0c0,0.4-0.3,0.7-0.7,0.7h-5.3c-0.4,0-0.7-0.3-0.7-0.7l0,0
				C289.5,125,289.8,124.8,290.1,124.8z"/>
			<path class="st14" d="M298.1,124.8h5.3c0.4,0,0.7,0.3,0.7,0.7l0,0c0,0.4-0.3,0.7-0.7,0.7h-5.3c-0.4,0-0.7-0.3-0.7-0.7l0,0
				C297.5,125,297.8,124.8,298.1,124.8z"/>
			<path class="st14" d="M306.1,124.8h0.9c0.4,0,0.7,0.3,0.7,0.7l0,0c0,0.4-0.3,0.7-0.7,0.7h-0.9c-0.4,0-0.7-0.3-0.7-0.7l0,0
				C305.5,125,305.8,124.8,306.1,124.8z"/>
			<path class="st14" d="M293.7,127.4h8c0.4,0,0.7,0.3,0.7,0.7l0,0c0,0.4-0.3,0.7-0.7,0.7h-8c-0.4,0-0.7-0.3-0.7-0.7l0,0
				C293,127.7,293.3,127.4,293.7,127.4z"/>
			<path class="st14" d="M290.1,127.4h0.9c0.4,0,0.7,0.3,0.7,0.7l0,0c0,0.4-0.3,0.7-0.7,0.7h-0.9c-0.4,0-0.7-0.3-0.7-0.7l0,0
				C289.5,127.7,289.8,127.4,290.1,127.4z"/>
			<path class="st14" d="M293.7,135.4h8c0.4,0,0.7,0.3,0.7,0.7l0,0c0,0.4-0.3,0.7-0.7,0.7h-8c-0.4,0-0.7-0.3-0.7-0.7l0,0
				C293,135.7,293.3,135.4,293.7,135.4z"/>
			<path class="st14" d="M290.1,135.4h0.9c0.4,0,0.7,0.3,0.7,0.7l0,0c0,0.4-0.3,0.7-0.7,0.7h-0.9c-0.4,0-0.7-0.3-0.7-0.7l0,0
				C289.5,135.7,289.8,135.4,290.1,135.4z"/>
			<path class="st14" d="M337.2,136.3c-0.3,0-0.6-0.2-0.8-0.5l-3.6-7.6l-3.6,7.6c-0.2,0.4-0.7,0.6-1.2,0.4c-0.4-0.2-0.6-0.7-0.4-1.1
				l4.4-9.2c0.2-0.4,0.7-0.6,1.2-0.4c0.2,0.1,0.3,0.2,0.4,0.4l4.4,9.2c0.2,0.4,0,1-0.4,1.2C337.5,136.2,337.3,136.3,337.2,136.3
				L337.2,136.3z"/>
			<circle class="st14" cx="332.9" cy="133.7" r="0.9"/>
			<path class="st14" d="M395.6,136.3c-0.3,0-0.6-0.2-0.8-0.5l-3.6-7.6l-3.6,7.6c-0.2,0.4-0.7,0.6-1.2,0.4c-0.4-0.2-0.6-0.7-0.4-1.1
				l4.4-9.2c0.2-0.4,0.7-0.6,1.2-0.4c0.2,0.1,0.3,0.2,0.4,0.4l4.4,9.2c0.2,0.4,0,1-0.4,1.2C395.9,136.2,395.8,136.3,395.6,136.3
				L395.6,136.3z"/>
			<circle class="st14" cx="391.3" cy="133.7" r="0.9"/>
			<path class="st14" d="M358.2,136.3c-0.4,0-0.8-0.3-0.9-0.7l-1.7-7.1l-4,7.2c-0.2,0.4-0.8,0.6-1.2,0.3c-0.1-0.1-0.3-0.2-0.3-0.3
				l-4-7.2l-1.7,7.1c-0.1,0.5-0.6,0.8-1,0.7c-0.5-0.1-0.8-0.6-0.7-1c0,0,0,0,0,0l2.2-9.2c0.1-0.5,0.6-0.8,1.1-0.7
				c0.2,0.1,0.4,0.2,0.6,0.4l4.3,7.8l4.3-7.8c0.2-0.4,0.8-0.6,1.2-0.3c0.2,0.1,0.4,0.3,0.4,0.6l2.2,9.2c0.1,0.5-0.2,0.9-0.6,1.1
				C358.4,136.3,358.3,136.3,358.2,136.3L358.2,136.3z"/>
			<path class="st14" d="M365.2,136.3c-0.5,0-0.9-0.4-0.9-0.9c0-0.1,0-0.1,0-0.2l2.2-9.2c0.1-0.5,0.6-0.8,1.1-0.7
				c0.2,0.1,0.4,0.2,0.6,0.4l4.3,7.8l4.3-7.8c0.2-0.4,0.8-0.6,1.2-0.3c0.2,0.1,0.4,0.3,0.4,0.6l2.2,9.2c0.1,0.5-0.2,0.9-0.7,1
				c-0.5,0.1-0.9-0.2-1-0.6l-1.7-7.1l-4,7.2c-0.2,0.4-0.8,0.6-1.2,0.3c-0.1-0.1-0.3-0.2-0.3-0.3l-4-7.2l-1.7,7.1
				C366,136,365.6,136.3,365.2,136.3z"/>
			<path class="st14" d="M318,136.4c-3,0-5.5-2.5-5.5-5.6c0-3.1,2.5-5.6,5.5-5.6c1.5,0,2.9,0.6,3.9,1.6c0.3,0.3,0.4,0.9,0,1.2
				c-0.3,0.3-0.9,0.4-1.2,0c0,0,0,0,0,0c-0.7-0.7-1.6-1.1-2.6-1.1c-2.1,0-3.8,1.7-3.8,3.9c0,2.1,1.7,3.9,3.8,3.9
				c0.9,0,1.7-0.3,2.4-0.9v-1.9h-2.5c-0.5,0-0.9-0.4-0.9-0.9s0.4-0.9,0.9-0.9h3.4c0.5,0,0.9,0.4,0.9,0.9v3.2c0,0.2-0.1,0.4-0.2,0.6
				C320.8,135.8,319.4,136.4,318,136.4z"/>
		</g>
	</g>
</g>
<g>
	<linearGradient id="SVGID_4_" gradientUnits="userSpaceOnUse" x1="492.7505" y1="280.4961" x2="485.2495" y2="267.5039">
		<stop  offset="0" style="stop-color:#EF7E53"/>
		<stop  offset="1" style="stop-color:#EF4431"/>
	</linearGradient>
	<circle class="st15" cx="489" cy="274" r="6"/>
	<text transform="matrix(1 0 0 1 489 187.0303)" class="st3 st4 st5">We get our 1,000th customer</text>
	<text transform="matrix(1 0 0 1 489 299.0303)" class="st3 st4 st6">2015</text>
	<rect x="489" y="201.9" class="st7" width="160" height="55.1"/>
	<text transform="matrix(1 0 0 1 489.0002 208.4727)"><tspan x="0" y="0" class="st8 st9 st10">Vishal who CEO of Embold and Sud </tspan><tspan x="0" y="14" class="st8 st9 st10">who CTO of Embold have launched </tspan><tspan x="0" y="28" class="st8 st9 st10">Acellere GmbH in Frankfurt am Main, </tspan><tspan x="0" y="42" class="st8 st9 st10">Germany</tspan></text>
	<g>
		<text transform="matrix(1 0 0 1 530.7541 140.2996)" class="st3 st4 st16">1,000</text>
		<path class="st17" d="M535.1,110.8c0-2.6-2.1-4.6-4.6-4.6c-2.5,0-4.6,2.1-4.6,4.6s2.1,4.6,4.6,4.6
			C533,115.5,535.1,113.4,535.1,110.8z M527.5,110.8c0-1.6,1.3-3,3-3c1.6,0,3,1.3,3,3s-1.3,3-3,3
			C528.8,113.8,527.5,112.5,527.5,110.8z"/>
		<path class="st17" d="M638.1,129.8c0-2.6-2.1-4.6-4.6-4.6c-2.5,0-4.6,2.1-4.6,4.6c0,2.6,2.1,4.6,4.6,4.6
			C636,134.5,638.1,132.4,638.1,129.8z M630.5,129.8c0-1.6,1.3-3,3-3c1.6,0,3,1.3,3,3c0,1.6-1.3,3-3,3
			C631.8,132.8,630.5,131.5,630.5,129.8z"/>
		<path class="st17" d="M590.5,108.6l1.5,0.8c1.3,0.7,2.4,1.8,3.2,3.2l0.8,1.5c0.1,0.3,0.4,0.4,0.7,0.4c0.3,0,0.6-0.2,0.7-0.4
			l0.8-1.5c0.7-1.4,1.8-2.5,3.2-3.2l1.5-0.8c0.3-0.1,0.4-0.4,0.4-0.7s-0.2-0.6-0.4-0.7l-1.5-0.8c-1.3-0.7-2.4-1.8-3.2-3.2l-0.8-1.5
			c-0.3-0.5-1.2-0.5-1.5,0l-0.8,1.5c-0.7,1.4-1.8,2.5-3.2,3.2l-1.5,0.8c-0.3,0.1-0.4,0.4-0.4,0.7C590,108.2,590.2,108.5,590.5,108.6
			z M592.8,107.8c1.6-0.9,3-2.2,3.8-3.9l0.1-0.2l0.1,0.2c0.9,1.6,2.2,3,3.8,3.9l0.2,0.1l-0.2,0.1c-1.6,0.9-3,2.2-3.8,3.9l-0.1,0.2
			l-0.1-0.2c-0.9-1.6-2.2-3-3.8-3.9l-0.2-0.1L592.8,107.8z"/>
		<path class="st17" d="M500.4,154.3l1.5,0.8c1.3,0.7,2.4,1.8,3.2,3.2l0.8,1.5c0.1,0.3,0.4,0.4,0.7,0.4s0.6-0.2,0.7-0.4l0.8-1.5
			c0.7-1.4,1.8-2.5,3.2-3.2l1.5-0.8c0.3-0.1,0.4-0.4,0.4-0.7c0-0.3-0.2-0.6-0.4-0.7l-1.5-0.8c-1.3-0.7-2.4-1.8-3.2-3.2l-0.8-1.5
			c-0.3-0.5-1.2-0.5-1.5,0l-0.8,1.5c-0.7,1.4-1.8,2.5-3.2,3.2l-1.5,0.8c-0.3,0.1-0.4,0.4-0.4,0.7
			C499.9,153.9,500.1,154.1,500.4,154.3z M502.6,153.5c1.6-0.9,3-2.2,3.8-3.9l0.1-0.2l0.1,0.2c0.9,1.6,2.2,3,3.8,3.9l0.2,0.1
			l-0.2,0.1c-1.6,0.9-3,2.2-3.8,3.9l-0.1,0.2l-0.1-0.2c-0.9-1.6-2.2-3-3.8-3.9l-0.2-0.1L502.6,153.5z"/>
		<path class="st18" d="M599.9,158.4C599.9,158.4,599.9,158.4,599.9,158.4c-0.5,0-0.8,0.4-0.8,0.8c0,0.5,0.4,0.8,0.8,0.8
			c5.4,0,9.8-4.7,9.8-10.5c0-2.3,0.8-4.4,2.1-6c1.6,1.5,3.8,2.4,6.1,2.5c0.3,0,2.8,0.1,4.1-1.3c0.6-0.6,0.9-1.4,0.9-2.3
			c0-0.9-0.3-1.7-1-2.2c-1.4-1.3-3.9-1.3-4.1-1.3c0,0,0,0,0,0c-2.2,0-4.3,0.8-5.9,2.2c-1.2-1.6-1.9-3.7-1.9-5.9c0-5,3.7-9.2,8.2-9.2
			c0,0,0,0,0,0c0,0,0,0,0,0l0.8,0c0,0,0,0,0,0c5.4,0,9.8-4.7,9.8-10.5c0-0.5-0.4-0.8-0.8-0.8c0,0,0,0,0,0c-0.5,0-0.8,0.4-0.8,0.8
			c0,4.9-3.6,8.9-8.1,8.9c0,0,0,0,0,0l-0.9,0c0,0,0,0,0,0c-5.3,0.1-9.7,5-9.7,10.8c-0.1,2.7,0.8,5.2,2.3,7.1
			c-1.6,1.9-2.6,4.4-2.6,7.2C608,154.4,604.4,158.4,599.9,158.4z M617.8,140.6C617.8,140.6,617.9,140.6,617.8,140.6
			c0.6,0,2.2,0.1,3,0.8c0.3,0.3,0.4,0.6,0.4,1.1c0,0.4-0.1,0.8-0.4,1c-0.7,0.7-2.4,0.8-2.9,0.8c-1.9,0-3.6-0.8-4.9-2
			C614.4,141.3,616,140.6,617.8,140.6z"/>
		<path class="st18" d="M527.4,149.5c0-2.8-1-5.3-2.6-7.2c1.5-1.9,2.4-4.4,2.3-7.1c0-5.8-4.4-10.8-9.7-10.8c0,0,0,0,0,0l-0.9,0
			c0,0,0,0,0,0c-4.5,0-8.1-4-8.1-8.9c0-0.5-0.4-0.8-0.8-0.8c0,0,0,0,0,0c-0.5,0-0.8,0.4-0.8,0.8c0,5.8,4.4,10.5,9.8,10.5
			c0,0,0,0,0,0l0.8,0c0,0,0,0,0,0c0,0,0,0,0,0c4.4,0,8.1,4.2,8.2,9.2c0,2.2-0.7,4.3-1.9,5.9c-1.6-1.4-3.7-2.2-5.9-2.2c0,0,0,0,0,0
			c-0.2,0-2.7-0.1-4.1,1.3c-0.6,0.6-0.9,1.4-1,2.2c0,0.9,0.3,1.7,0.9,2.3c1.4,1.4,3.9,1.3,4.1,1.3c2.3-0.1,4.4-1,6.1-2.5
			c1.3,1.6,2.1,3.7,2.1,6c0,5.8,4.4,10.5,9.8,10.5c0.5,0,0.8-0.4,0.8-0.8c0-0.5-0.4-0.8-0.8-0.8c0,0,0,0,0,0
			C531,158.4,527.4,154.4,527.4,149.5z M522.4,142.4c-1.4,1.2-3.1,2-4.9,2c-0.6,0-2.2-0.1-2.9-0.8c-0.3-0.3-0.4-0.6-0.4-1
			c0-0.4,0.1-0.8,0.4-1.1c0.8-0.7,2.4-0.8,3-0.8c0,0,0,0,0,0C519.4,140.6,521,141.3,522.4,142.4z"/>
	</g>
</g>
<g>
	<linearGradient id="SVGID_5_" gradientUnits="userSpaceOnUse" x1="718.7505" y1="280.9961" x2="711.2495" y2="268.0039">
		<stop  offset="0" style="stop-color:#EF7E53"/>
		<stop  offset="1" style="stop-color:#EF4431"/>
	</linearGradient>
	<circle class="st19" cx="715" cy="274.5" r="6"/>
	<text transform="matrix(1 0 0 1 715 299.5303)" class="st3 st4 st6">2016</text>
	<rect x="715" y="148.5" class="st7" width="160" height="109"/>
	<text transform="matrix(1 0 0 1 715.0002 155.106)"><tspan x="0" y="0" class="st8 st9 st10">Vishal who CEO of Embold and Sud </tspan><tspan x="0" y="14" class="st8 st9 st10">who CTO of Embold have launched </tspan><tspan x="0" y="28" class="st8 st9 st10">Acellere GmbH in Frankfurt am Main, </tspan><tspan x="0" y="42" class="st8 st9 st10">Germany. Vishal who CEO of Embold </tspan><tspan x="0" y="56" class="st8 st9 st10">and Sud who CTO of Embold have </tspan><tspan x="0" y="70" class="st8 st9 st10">launched Acellere GmbH in Frankfurt </tspan><tspan x="0" y="84" class="st8 st9 st10">am Main, Germany. CTO of Embold </tspan><tspan x="0" y="98" class="st8 st9 st10">have launched Acellere.</tspan></text>
	<g>
		<rect x="715" y="105.7" class="st7" width="160" height="28"/>
		<text transform="matrix(1 0 0 1 715.0002 114.248)"><tspan x="0" y="0" class="st3 st4 st5">Acellere Get a investment</tspan><tspan x="0" y="16" class="st3 st4 st5">2 Million dollars</tspan></text>
	</g>
	<g>
		<path class="st17" d="M778.3,71.9c0,0.3,0.3,0.6,0.6,0.6s0.6-0.3,0.6-0.6v-2c0-0.3-0.3-0.6-0.6-0.6s-0.6,0.3-0.6,0.6V71.9z"/>
		<path class="st17" d="M774.9,74.1c0.2-0.2,0.2-0.6,0-0.9l-1.4-1.4c-0.2-0.2-0.6-0.2-0.9,0s-0.2,0.6,0,0.9l1.4,1.4
			c0.1,0.1,0.3,0.2,0.4,0.2S774.8,74.3,774.9,74.1z"/>
		<path class="st17" d="M770,78.1c0,0.3,0.3,0.6,0.6,0.6h2c0.3,0,0.6-0.3,0.6-0.6s-0.3-0.6-0.6-0.6h-2C770.3,77.5,770,77.8,770,78.1
			z"/>
		<path class="st17" d="M774.9,82.1c-0.2-0.2-0.6-0.2-0.9,0l-1.4,1.4c-0.2,0.2-0.2,0.6,0,0.9c0.1,0.1,0.3,0.2,0.4,0.2
			s0.3-0.1,0.4-0.2l1.4-1.4C775.2,82.7,775.2,82.3,774.9,82.1z"/>
		<path class="st17" d="M778.3,84.3v2c0,0.3,0.3,0.6,0.6,0.6s0.6-0.3,0.6-0.6v-2c0-0.3-0.3-0.6-0.6-0.6S778.3,84,778.3,84.3z"/>
		<path class="st17" d="M785.2,83.5l-1.4-1.4c-0.2-0.2-0.6-0.2-0.9,0s-0.2,0.6,0,0.9l1.4,1.4c0.1,0.1,0.3,0.2,0.4,0.2
			s0.3-0.1,0.4-0.2C785.4,84.2,785.4,83.8,785.2,83.5z"/>
		<path class="st17" d="M785.1,78.7h2c0.3,0,0.6-0.3,0.6-0.6s-0.3-0.6-0.6-0.6h-2c-0.3,0-0.6,0.3-0.6,0.6S784.8,78.7,785.1,78.7z"/>
		<path class="st8" d="M779.6,78.3l6.4-6.4l2.8,2.8c0.1,0.1,0.3,0.2,0.4,0.2s0.3-0.1,0.4-0.2l2.7-2.7l0.8,0.8
			c0.1,0.1,0.3,0.2,0.4,0.2s0.3-0.1,0.4-0.2l23.1-23.1l0.8,0.8c0.1,0.1,0.3,0.2,0.4,0.2c0.1,0,0.1,0,0.2,0c0.2-0.1,0.4-0.3,0.4-0.5
			l1-12.5c0-0.2-0.1-0.4-0.2-0.5s-0.3-0.2-0.5-0.2l-12.5,1c-0.2,0-0.5,0.2-0.5,0.4c-0.1,0.2,0,0.5,0.1,0.7l0.8,0.8L784.2,63
			c-0.1,0.1-0.2,0.3-0.2,0.4s0.1,0.3,0.2,0.4l0.8,0.8l-2.7,2.7c-0.1,0.1-0.2,0.3-0.2,0.4s0.1,0.3,0.2,0.4l2.8,2.8l-6.4,6.4
			c-0.2,0.2-0.2,0.6,0,0.9c0.1,0.1,0.3,0.2,0.4,0.2S779.5,78.4,779.6,78.3z M808.2,39.1l10.5-0.8l-0.8,10.5L808.2,39.1z M810,55.2
			l0.2-12.3l6,6L810,55.2z M801.9,63.2l0.3-16.5c0,0,0,0,0,0l5.9-5.9l0.9,0.9c0,0,0,0.1,0,0.1l-0.3,14.6L801.9,63.2z M793.1,71
			c0,0,0-0.1,0-0.1l0.3-15.4c0,0,0,0,0,0l7.5-7.5l-0.3,16.5l-7,7L793.1,71z M791.9,69.8l-6.4-6.4l6.7-6.7L791.9,69.8z M783.6,67.9
			l2.3-2.3l5.5,5.5l-2.3,2.3L783.6,67.9z"/>
		<path class="st17" d="M791.5,40.5c0,1.9,1.6,3.5,3.5,3.5s3.5-1.6,3.5-3.5S796.9,37,795,37S791.5,38.6,791.5,40.5z M792.8,40.5
			c0-1.2,1-2.2,2.2-2.2s2.2,1,2.2,2.2c0,1.2-1,2.2-2.2,2.2S792.8,41.7,792.8,40.5z"/>
		<path class="st17" d="M780.9,42.5c-0.2,0.9-0.1,1.8,0.3,2.7s1.2,1.4,2.1,1.6c0.3,0.1,0.6,0.1,0.9,0.1c0.6,0,1.2-0.2,1.7-0.5
			c1.7-1,2.2-3.1,1.3-4.8c-1-1.7-3.1-2.2-4.8-1.3C781.7,40.8,781.1,41.6,780.9,42.5z M782.1,42.8c0.2-0.6,0.5-1.1,1-1.4
			c1.1-0.6,2.4-0.2,3.1,0.8c0.6,1.1,0.3,2.4-0.8,3.1c-0.5,0.3-1.1,0.4-1.7,0.2c-0.6-0.2-1.1-0.5-1.4-1C782,44,781.9,43.4,782.1,42.8
			z"/>
		<path class="st17" d="M776.4,54.7c1.2,0,2.4-0.6,3-1.7c1-1.7,0.4-3.8-1.3-4.8c-1.7-1-3.8-0.4-4.8,1.3c-1,1.7-0.4,3.8,1.3,4.8
			C775.2,54.6,775.8,54.7,776.4,54.7z M775.3,53.2c-1.1-0.6-1.4-2-0.8-3.1c0.4-0.7,1.2-1.1,1.9-1.1c0.4,0,0.8,0.1,1.1,0.3
			c1.1,0.6,1.4,2,0.8,3.1C777.7,53.4,776.3,53.8,775.3,53.2z"/>
		<path class="st17" d="M770,62c0,1.9,1.6,3.5,3.5,3.5c1.9,0,3.5-1.6,3.5-3.5c0-1.9-1.6-3.5-3.5-3.5C771.6,58.5,770,60.1,770,62z
			 M771.2,62c0-1.2,1-2.2,2.2-2.2s2.2,1,2.2,2.2c0,1.2-1,2.2-2.2,2.2S771.2,63.2,771.2,62z"/>
		<path class="st17" d="M791.5,83.5c0,1.9,1.6,3.5,3.5,3.5s3.5-1.6,3.5-3.5S796.9,80,795,80S791.5,81.6,791.5,83.5z M792.8,83.5
			c0-1.2,1-2.2,2.2-2.2s2.2,1,2.2,2.2c0,1.2-1,2.2-2.2,2.2S792.8,84.7,792.8,83.5z"/>
		<path class="st17" d="M805.8,84.1c0.6,0,1.2-0.2,1.7-0.5c0.8-0.5,1.4-1.2,1.6-2.1c0.2-0.9,0.1-1.8-0.3-2.7
			c-0.5-0.8-1.2-1.4-2.1-1.6c-0.9-0.2-1.8-0.1-2.6,0.3c-1.7,1-2.2,3.1-1.3,4.8C803.4,83.5,804.6,84.1,805.8,84.1z M804.6,78.7
			c0.3-0.2,0.7-0.3,1.1-0.3c0.2,0,0.4,0,0.6,0.1c0.6,0.2,1.1,0.5,1.4,1c0.3,0.5,0.4,1.1,0.2,1.7c-0.2,0.6-0.5,1.1-1,1.4
			c-1.1,0.6-2.4,0.2-3.1-0.8C803.2,80.7,803.6,79.3,804.6,78.7z"/>
		<path class="st17" d="M813.6,76.2c1.2,0,2.4-0.6,3-1.7c1-1.7,0.4-3.8-1.3-4.8c-1.7-1-3.8-0.4-4.8,1.3c-1,1.7-0.4,3.8,1.3,4.8
			C812.4,76.1,813,76.2,813.6,76.2z M812.5,74.7c-1.1-0.6-1.4-2-0.8-3.1c0.4-0.7,1.2-1.1,1.9-1.1c0.4,0,0.8,0.1,1.1,0.3
			c1.1,0.6,1.4,2,0.8,3.1C815,74.9,813.6,75.3,812.5,74.7z"/>
		<path class="st17" d="M820,62c0-1.9-1.6-3.5-3.5-3.5c-1.9,0-3.5,1.6-3.5,3.5c0,1.9,1.6,3.5,3.5,3.5C818.4,65.5,820,63.9,820,62z
			 M818.8,62c0,1.2-1,2.2-2.2,2.2s-2.2-1-2.2-2.2c0-1.2,1-2.2,2.2-2.2S818.8,60.8,818.8,62z"/>
	</g>
</g>
<g>
	<linearGradient id="SVGID_6_" gradientUnits="userSpaceOnUse" x1="944.7505" y1="280.9961" x2="937.2495" y2="268.0039">
		<stop  offset="0" style="stop-color:#EF7E53"/>
		<stop  offset="1" style="stop-color:#EF4431"/>
	</linearGradient>
	<circle class="st20" cx="941" cy="274.5" r="6"/>
	<text transform="matrix(1 0 0 1 941 187.5303)" class="st3 st4 st5">We get our 1,500th customer</text>
	<text transform="matrix(1 0 0 1 941 299.5303)" class="st3 st4 st6">2015</text>
	<rect x="941" y="202.4" class="st7" width="160" height="55.1"/>
	<text transform="matrix(1 0 0 1 941.0002 208.9727)"><tspan x="0" y="0" class="st8 st9 st10">Vishal who CEO of Embold and Sud </tspan><tspan x="0" y="14" class="st8 st9 st10">who CTO of Embold have launched </tspan><tspan x="0" y="28" class="st8 st9 st10">Acellere GmbH in Frankfurt am Main, </tspan><tspan x="0" y="42" class="st8 st9 st10">Germany</tspan></text>
	<g>
		<circle class="st0" cx="949.2" cy="152.2" r="8.8"/>
		<path class="st21" d="M952.2,151.9l-4.4-3.6c-0.3-0.3-0.8,0-0.8,0.4v7.3c0,0.4,0.5,0.7,0.8,0.4l4.4-3.6
			C952.4,152.4,952.4,152.1,952.2,151.9z"/>
		<text transform="matrix(1 0 0 1 962.0889 155.8804)" class="st8 st4 st10">Play Video</text>
	</g>
</g>
<g>
	<linearGradient id="SVGID_7_" gradientUnits="userSpaceOnUse" x1="1396.7505" y1="280.9961" x2="1389.2495" y2="268.0039">
		<stop  offset="0" style="stop-color:#EF7E53"/>
		<stop  offset="1" style="stop-color:#EF4431"/>
	</linearGradient>
	<circle class="st22" cx="1393" cy="274.5" r="6"/>
	<text transform="matrix(1 0 0 1 1393 187.5303)" class="st3 st4 st5">Introduce our new brand</text>
	<text transform="matrix(1 0 0 1 1393 299.5303)" class="st3 st4 st6">2018</text>
	<rect x="1393" y="202.4" class="st7" width="160" height="55.1"/>
	<text transform="matrix(1 0 0 1 1393.0002 208.9727)"><tspan x="0" y="0" class="st8 st9 st10">Vishal who CEO of Embold and Sud </tspan><tspan x="0" y="14" class="st8 st9 st10">who CTO of Embold have launched </tspan><tspan x="0" y="28" class="st8 st9 st10">Acellere GmbH in Frankfurt am Main, </tspan><tspan x="0" y="42" class="st8 st9 st10">Germany</tspan></text>
	<g id="Layer_2_3_">
		<g id="Layer_1-2_2_">
			<path class="st0" d="M1512.3,120.5h4.1c0.3,0,0.6,0.3,0.6,0.6v15.5c0,0.3-0.3,0.6-0.6,0.6h-4.1c-0.3,0-0.6-0.3-0.6-0.6v-15.5
				C1511.8,120.8,1512,120.5,1512.3,120.5z"/>
			<path class="st0" d="M1526.3,121.1v4.6c0,0.1-0.1,0.2-0.2,0.2c0,0-0.1,0-0.1,0c-0.8-0.6-1.8-0.9-2.8-0.9c-3,0-4.9,2.5-4.9,6.2
				c0,3.4,1.8,6.2,4.9,6.2c1,0,2-0.3,2.8-0.9c0.1-0.1,0.2,0,0.2,0c0,0,0,0.1,0,0.1l0,0c0,0.3,0.3,0.6,0.6,0.6h4.1
				c0.3,0,0.6-0.3,0.6-0.6v-15.5c0-0.3-0.3-0.6-0.6-0.6h-4.1C1526.5,120.5,1526.3,120.8,1526.3,121.1z M1525,133
				c-0.8,0-1.2-0.9-1.2-1.9c0-1.1,0.5-1.9,1.2-1.9c0.7,0,1.2,0.8,1.2,1.9C1526.3,132.2,1525.8,133,1525,133L1525,133z"/>
			<path class="st0" d="M1503.7,124.9c-4.2,0-6.7,2.8-6.7,6.2c0,3.4,2.5,6.2,6.7,6.2c4.2,0,6.7-2.8,6.7-6.2
				C1510.4,127.7,1507.9,124.9,1503.7,124.9z M1503.7,133c-0.8,0-1.2-0.9-1.2-1.9c0-1.1,0.5-1.9,1.2-1.9c0.7,0,1.2,0.8,1.2,1.9
				C1504.9,132.2,1504.5,133,1503.7,133z"/>
			<path class="st0" d="M1461.3,132.5c0.1,0,0.3-0.1,0.3-0.2c0.1-0.4,0.1-0.7,0.1-1.1c0-3.4-2.5-6.2-6.7-6.2c-4.2,0-6.7,2.8-6.7,6.2
				c0,3.4,2.5,6.2,6.7,6.2c3.2,0,5.5-1.6,6.3-3.9c0.1-0.2,0-0.3-0.2-0.4c0,0-0.1,0-0.1,0h-4.8c-0.1,0-0.2,0-0.2,0.1
				c-0.3,0.3-0.7,0.5-1.1,0.5c-0.6,0-1.1-0.4-1.4-0.9c0-0.1,0-0.2,0.1-0.2c0,0,0,0,0.1,0L1461.3,132.5z M1455,128.7
				c0.6,0,1.1,0.3,1.4,0.9c0,0.1,0,0.2-0.1,0.2c0,0,0,0-0.1,0h-2.5c-0.1,0-0.1-0.1-0.1-0.1c0,0,0,0,0-0.1
				C1453.9,129,1454.4,128.7,1455,128.7z"/>
			<path class="st0" d="M1491.2,124.9c-1,0-2,0.3-2.8,0.9c-0.1,0.1-0.2,0-0.2,0c0,0,0-0.1,0-0.1v-4.6c0-0.3-0.3-0.6-0.6-0.6
				c0,0,0,0,0,0h-4.1c-0.3,0-0.6,0.3-0.6,0.6l0,0v15.5c0,0.3,0.3,0.6,0.6,0.6l0,0h4.1c0.3,0,0.6-0.3,0.6-0.6l0,0
				c0-0.1,0.1-0.2,0.2-0.2c0,0,0.1,0,0.1,0c0.8,0.6,1.8,0.9,2.8,0.9c3.2,0,4.9-2.8,4.9-6.2C1496.1,127.4,1494.1,124.9,1491.2,124.9z
				 M1489.4,133c-0.8,0-1.2-0.9-1.2-1.9c0-1.1,0.5-1.9,1.2-1.9s1.2,0.8,1.2,1.9C1490.6,132.2,1490.2,133,1489.4,133L1489.4,133z"/>
			<path class="st0" d="M1477,124.9c-1.2,0-2.3,0.5-3.2,1.3c-1.3-1.5-3.6-1.7-5.2-0.4c-0.2,0.2-0.4,0.4-0.5,0.6v-0.6
				c0-0.3-0.3-0.6-0.6-0.6l0,0h-4.1c-0.3,0-0.6,0.3-0.6,0.6l0,0v10.9c0,0.3,0.3,0.6,0.6,0.6l0,0h4.7v-7.1c0-0.4,0.3-0.7,0.7-0.7l0,0
				c0.4,0,0.7,0.3,0.7,0.7v6.5c0,0.3,0.3,0.6,0.6,0.6h4.7v-7.1c0-0.4,0.3-0.7,0.7-0.7c0,0,0,0,0,0l0,0c0.4,0,0.7,0.3,0.7,0.7
				c0,0,0,0,0,0v6.5c0,0.3,0.3,0.6,0.6,0.6l0,0h4.1c0.3,0,0.6-0.3,0.6-0.6l0,0v-7.3C1481.5,126.7,1479.7,124.9,1477,124.9z"/>
			<path class="st23" d="M1418.9,121.3h18.6c0.3,0,0.6,0.3,0.6,0.6v4.4c0,0.3-0.3,0.6-0.6,0.6h-18.6c-0.3,0-0.6-0.3-0.6-0.6v-4.4
				C1418.3,121.5,1418.6,121.3,1418.9,121.3z"/>
			<path class="st24" d="M1416.1,128.4h8.5c0.3,0,0.6,0.3,0.6,0.6v4.4c0,0.3-0.3,0.6-0.6,0.6h-8.5c-0.3,0-0.6-0.3-0.6-0.6V129
				C1415.5,128.6,1415.8,128.4,1416.1,128.4z"/>
			<path class="st25" d="M1428,128.4h4.4c0.3,0,0.6,0.3,0.6,0.6v4.4c0,0.3-0.3,0.6-0.6,0.6h-4.4c-0.3,0-0.6-0.3-0.6-0.6V129
				C1427.5,128.6,1427.7,128.4,1428,128.4z"/>
			<path class="st26" d="M1437.4,141h-18.6c-0.3,0-0.6-0.3-0.6-0.6V136c0-0.3,0.3-0.6,0.6-0.6h18.6c0.3,0,0.6,0.3,0.6,0.6v4.4
				C1438,140.7,1437.8,141,1437.4,141z"/>
		</g>
	</g>
	<rect x="1393.5" y="100.5" class="st11" width="160" height="60.5"/>
</g>
<g>
	<linearGradient id="SVGID_8_" gradientUnits="userSpaceOnUse" x1="1170.7505" y1="280.9961" x2="1163.2495" y2="268.0039">
		<stop  offset="0" style="stop-color:#EF7E53"/>
		<stop  offset="1" style="stop-color:#EF4431"/>
	</linearGradient>
	<circle class="st27" cx="1167" cy="274.5" r="6"/>
	<text transform="matrix(1 0 0 1 1167 187.5303)" class="st3 st4 st5">Gamma v.1.5.3 update!</text>
	<text transform="matrix(1 0 0 1 1167 299.5303)" class="st3 st4 st6">2018</text>
	<rect x="1167" y="202.4" class="st7" width="160" height="55.1"/>
	<text transform="matrix(1 0 0 1 1167.0002 208.9727)"><tspan x="0" y="0" class="st8 st9 st10">Vishal who CEO of Embold and Sud </tspan><tspan x="0" y="14" class="st8 st9 st10">who CTO of Embold have launched </tspan><tspan x="0" y="28" class="st8 st9 st10">Acellere GmbH in Frankfurt am Main, </tspan><tspan x="0" y="42" class="st8 st9 st10">Germany</tspan></text>
</g>
<g>
	<linearGradient id="SVGID_9_" gradientUnits="userSpaceOnUse" x1="1623.2505" y1="280.9961" x2="1615.7495" y2="268.0039">
		<stop  offset="0" style="stop-color:#EF7E53"/>
		<stop  offset="1" style="stop-color:#EF4431"/>
	</linearGradient>
	<circle class="st28" cx="1619.5" cy="274.5" r="6"/>
	<text transform="matrix(1 0 0 1 1619.5 187.5303)" class="st3 st4 st5">Gamma v.1.6 update!</text>
	<text transform="matrix(1 0 0 1 1619.5 299.5303)" class="st3 st4 st6">2018</text>
	<rect x="1619.5" y="202.4" class="st7" width="160" height="55.1"/>
	<text transform="matrix(1 0 0 1 1619.5002 208.9727)"><tspan x="0" y="0" class="st8 st9 st10">Vishal who CEO of Embold and Sud </tspan><tspan x="0" y="14" class="st8 st9 st10">who CTO of Embold have launched </tspan><tspan x="0" y="28" class="st8 st9 st10">Acellere GmbH in Frankfurt am Main, </tspan><tspan x="0" y="42" class="st8 st9 st10">Germany</tspan></text>
</g>
</svg>
