<svg id="레이어_1" data-name="레이어 1" xmlns="http://www.w3.org/2000/svg" viewBox="0 0 96 96"><defs><style>.cls-1,.cls-2{fill:#fff;}.cls-2,.cls-3{stroke:#59626a;stroke-linecap:round;stroke-miterlimit:10;stroke-width:2px;}.cls-3{fill:none;}</style></defs><title>icon-md-measure-box</title><rect class="cls-1" width="96" height="96"/><rect class="cls-2" x="23.58" y="32.42" width="47.29" height="37.58" rx="3" ry="3"/><path class="cls-2" d="M42.64,32.42h9.18a0,0,0,0,1,0,0V49.7a3,3,0,0,1-3,3H45.64a3,3,0,0,1-3-3V32.42A0,0,0,0,1,42.64,32.42Z"/><rect class="cls-2" x="26.5" y="52.01" width="71.99" height="10.98" rx="2.02" ry="2.02" transform="translate(-22.35 61.04) rotate(-45)"/><line class="cls-3" x1="36.03" y1="76.2" x2="38.9" y2="79.07"/><line class="cls-3" x1="42.48" y1="69.75" x2="45.35" y2="72.62"/><line class="cls-3" x1="38.18" y1="74.05" x2="39.62" y2="75.48"/><line class="cls-3" x1="40.33" y1="71.9" x2="41.77" y2="73.33"/><line class="cls-3" x1="48.94" y1="63.3" x2="51.81" y2="66.16"/><line class="cls-3" x1="44.64" y1="67.6" x2="46.07" y2="69.03"/><line class="cls-3" x1="46.79" y1="65.45" x2="48.22" y2="66.88"/><line class="cls-3" x1="55.39" y1="56.84" x2="58.26" y2="59.71"/><line class="cls-3" x1="51.09" y1="61.14" x2="52.52" y2="62.58"/><line class="cls-3" x1="53.24" y1="58.99" x2="54.67" y2="60.43"/><line class="cls-3" x1="61.84" y1="50.39" x2="64.71" y2="53.26"/><line class="cls-3" x1="57.54" y1="54.69" x2="58.97" y2="56.13"/><line class="cls-3" x1="59.69" y1="52.54" x2="61.13" y2="53.97"/><line class="cls-3" x1="68.3" y1="43.94" x2="71.16" y2="46.81"/><line class="cls-3" x1="63.99" y1="48.24" x2="65.43" y2="49.67"/><line class="cls-3" x1="66.14" y1="46.09" x2="67.58" y2="47.52"/><line class="cls-3" x1="74.75" y1="37.48" x2="77.62" y2="40.35"/><line class="cls-3" x1="70.45" y1="41.79" x2="71.88" y2="43.22"/><line class="cls-3" x1="72.6" y1="39.64" x2="74.03" y2="41.07"/><line class="cls-3" x1="81.2" y1="31.03" x2="84.07" y2="33.9"/><line class="cls-3" x1="76.9" y1="35.33" x2="78.33" y2="36.77"/><line class="cls-3" x1="79.05" y1="33.18" x2="80.48" y2="34.62"/><rect class="cls-2" x="20" y="33" width="6" height="26"/><circle class="cls-2" cx="23" cy="27" r="14"/><circle class="cls-2" cx="23" cy="27" r="10.27"/><rect class="cls-2" x="11" y="59" width="24" height="5" rx="2" ry="2"/><line class="cls-3" x1="27.35" y1="31.35" x2="23" y2="27"/></svg>