<svg id="레이어_1" data-name="레이어 1" xmlns="http://www.w3.org/2000/svg" viewBox="0 0 96 96"><defs><style>.cls-1,.cls-2,.cls-4{fill:#fff;}.cls-2,.cls-3,.cls-4{stroke:#59626a;stroke-width:2px;}.cls-2,.cls-3{stroke-miterlimit:10;}.cls-3{fill:none;}.cls-4{stroke-linejoin:round;}</style></defs><title>icon-md-coin-pointer</title><rect class="cls-1" width="96" height="96"/><path class="cls-2" d="M26,52.71v5.58C26,62,34.06,65,44,65s18-3,18-6.71V52.71"/><ellipse class="cls-2" cx="44" cy="52.71" rx="18" ry="6.71"/><line class="cls-3" x1="30.36" y1="57.18" x2="30.36" y2="62.76"/><line class="cls-3" x1="35.82" y1="59.41" x2="35.82" y2="63.88"/><line class="cls-3" x1="41.27" y1="59.41" x2="41.27" y2="65"/><line class="cls-3" x1="46.73" y1="59.41" x2="46.73" y2="65"/><line class="cls-3" x1="52.18" y1="59.41" x2="52.18" y2="63.88"/><line class="cls-3" x1="57.64" y1="57.18" x2="57.64" y2="62.76"/><path class="cls-2" d="M26,40.71v5.58C26,50,34.06,53,44,53s18-3,18-6.71V40.71"/><ellipse class="cls-2" cx="44" cy="40.71" rx="18" ry="6.71"/><line class="cls-3" x1="30.36" y1="45.18" x2="30.36" y2="50.76"/><line class="cls-3" x1="35.82" y1="47.41" x2="35.82" y2="51.88"/><line class="cls-3" x1="41.27" y1="47.41" x2="41.27" y2="53"/><line class="cls-3" x1="46.73" y1="47.41" x2="46.73" y2="53"/><line class="cls-3" x1="52.18" y1="47.41" x2="52.18" y2="51.88"/><line class="cls-3" x1="57.64" y1="45.18" x2="57.64" y2="50.76"/><path class="cls-2" d="M26,28.71v5.58C26,38,34.06,41,44,41s18-3,18-6.71V28.71"/><ellipse class="cls-2" cx="44" cy="28.71" rx="18" ry="6.71"/><line class="cls-3" x1="30.36" y1="33.18" x2="30.36" y2="38.76"/><line class="cls-3" x1="35.82" y1="35.41" x2="35.82" y2="39.88"/><line class="cls-3" x1="41.27" y1="35.41" x2="41.27" y2="41"/><line class="cls-3" x1="46.73" y1="35.41" x2="46.73" y2="41"/><line class="cls-3" x1="52.18" y1="35.41" x2="52.18" y2="39.88"/><line class="cls-3" x1="57.64" y1="33.18" x2="57.64" y2="38.76"/><polygon class="cls-4" points="60 47.23 60 67.79 65.17 66.33 68.99 76 73.73 74.33 69.8 64.69 74 62.97 60 47.23"/></svg>