<svg id="레이어_1" data-name="레이어 1" xmlns="http://www.w3.org/2000/svg" viewBox="0 0 24 24"><defs><style>.cls-1{fill:#767f87;}</style></defs><title>icon-xs-calc</title><rect class="cls-1" x="8" y="10" width="2" height="2"/><path class="cls-1" d="M18,4V20H6V4H18m0-2H6A2,2,0,0,0,4,4V20a2,2,0,0,0,2,2H18a2,2,0,0,0,2-2V4a2,2,0,0,0-2-2Z"/><rect class="cls-1" x="11" y="10" width="2" height="2"/><rect class="cls-1" x="14" y="10" width="2" height="2"/><rect class="cls-1" x="8" y="13" width="2" height="2"/><rect class="cls-1" x="11" y="13" width="2" height="2"/><rect class="cls-1" x="14" y="13" width="2" height="2"/><rect class="cls-1" x="8" y="16" width="2" height="2"/><rect class="cls-1" x="11" y="16" width="2" height="2"/><rect class="cls-1" x="14" y="16" width="2" height="2"/><rect class="cls-1" x="8" y="6" width="8" height="2"/></svg>