<svg id="레이어_1" data-name="레이어 1" xmlns="http://www.w3.org/2000/svg" viewBox="0 0 24 24"><defs><style>.cls-1{fill:#767f87;}</style></defs><title>icon-xs-three-dot</title><path class="cls-1" d="M5,11.5a.5.5,0,1,1-.5.5.5.5,0,0,1,.5-.5m0-2A2.5,2.5,0,1,0,7.5,12,2.5,2.5,0,0,0,5,9.5Z"/><path class="cls-1" d="M12,11.5a.5.5,0,1,1-.5.5.5.5,0,0,1,.5-.5m0-2A2.5,2.5,0,1,0,14.5,12,2.5,2.5,0,0,0,12,9.5Z"/><path class="cls-1" d="M19,11.5a.5.5,0,1,1-.5.5.5.5,0,0,1,.5-.5m0-2A2.5,2.5,0,1,0,21.5,12,2.5,2.5,0,0,0,19,9.5Z"/></svg>