<svg id="레이어_1" data-name="레이어 1" xmlns="http://www.w3.org/2000/svg" viewBox="0 0 96 96"><defs><style>.cls-1,.cls-4{fill:#fff;}.cls-2{fill:none;}.cls-2,.cls-4{stroke:#59626a;stroke-linejoin:round;stroke-width:2px;}.cls-3{fill:#59626a;}.cls-5{fill:#b1bac2;}</style></defs><title>icon-md-barcode-scanner</title><rect class="cls-1" width="96" height="96"/><rect class="cls-2" x="14" y="18" width="57" height="43"/><rect class="cls-3" x="17" y="22" width="2" height="22"/><rect class="cls-3" x="21" y="22" width="4" height="27"/><rect class="cls-3" x="27" y="22" width="2" height="17"/><rect class="cls-3" x="44" y="22" width="5" height="17"/><rect class="cls-3" x="51" y="22" width="4" height="23"/><rect class="cls-3" x="57" y="22" width="3" height="21"/><rect class="cls-3" x="62" y="22" width="2" height="10"/><rect class="cls-3" x="66" y="22" width="2" height="14"/><rect class="cls-3" x="39" y="22" width="3" height="21"/><rect class="cls-3" x="31" y="22" width="6" height="21"/><rect class="cls-4" x="69" y="73" width="4" height="9" rx="1" ry="1"/><rect class="cls-4" x="59" y="41" width="24" height="5"/><polygon class="cls-4" points="78 57 64 57 59 46 83 46 78 57"/><path class="cls-4" d="M78,69s0,5-7,5-7-5-7-5V57H78Z"/><rect class="cls-5" x="17" y="55" width="23" height="2"/><rect class="cls-3" x="17" y="51" width="34" height="2"/></svg>