<svg id="레이어_1" data-name="레이어 1" xmlns="http://www.w3.org/2000/svg" viewBox="0 0 96 96"><defs><style>.cls-1,.cls-2,.cls-3{fill:#fff;}.cls-2,.cls-3{stroke:#59626a;stroke-width:2px;}.cls-2{stroke-miterlimit:10;}.cls-3{stroke-linejoin:round;}</style></defs><title>icon-md-print</title><rect class="cls-1" width="96" height="96"/><path class="cls-2" d="M23,26.51H73a2,2,0,0,1,2,2V43.74a0,0,0,0,1,0,0H21a0,0,0,0,1,0,0V28.51A2,2,0,0,1,23,26.51Z"/><path class="cls-2" d="M21,43.74H75a0,0,0,0,1,0,0V63.87a2,2,0,0,1-2,2H23a2,2,0,0,1-2-2V43.74A0,0,0,0,1,21,43.74Z"/><path class="cls-2" d="M26.33,37.33H69.67a2,2,0,0,1,2,2v4.42a0,0,0,0,1,0,0H24.33a0,0,0,0,1,0,0V39.33A2,2,0,0,1,26.33,37.33Z"/><path class="cls-3" d="M28,41.62H68a0,0,0,0,1,0,0V67.49a2,2,0,0,1-2,2H30a2,2,0,0,1-2-2V41.62A0,0,0,0,1,28,41.62Z"/><rect class="cls-3" x="32" y="41.62" width="12" height="12.19"/><rect class="cls-3" x="32.1" y="57.34" width="31.9" height="8.17" transform="translate(96.1 122.84) rotate(-180)"/><rect class="cls-3" x="47.94" y="41.62" width="16.06" height="12.19"/></svg>