<svg id="레이어_1" data-name="레이어 1" xmlns="http://www.w3.org/2000/svg" viewBox="0 0 24 24"><defs><style>.cls-1{fill:#767f87;}</style></defs><title>icon-xs-code</title><path class="cls-1" d="M8.22,7.31A1.3,1.3,0,0,0,6.77,8.75l0,.73A2.29,2.29,0,0,1,5.14,12a2.29,2.29,0,0,1,1.67,2.52l0,.73a1.3,1.3,0,0,0,1.45,1.44h.52V18.5H8.05c-2.29,0-3.47-1.31-3.37-3.38l0-.77c0-.93-.61-1.45-1.71-1.45V11.11c1.1,0,1.75-.53,1.71-1.46l0-.77C4.58,6.81,5.76,5.5,8.05,5.5h.69V7.31Z"/><path class="cls-1" d="M15.78,16.69a1.3,1.3,0,0,0,1.45-1.44l0-.73A2.29,2.29,0,0,1,18.86,12a2.29,2.29,0,0,1-1.67-2.52l0-.73a1.3,1.3,0,0,0-1.45-1.44h-.52V5.5H16c2.29,0,3.47,1.31,3.37,3.38l0,.77c0,.93.61,1.45,1.71,1.45v1.79c-1.1,0-1.75.53-1.71,1.46l0,.77c.1,2.07-1.08,3.38-3.37,3.38h-.69V16.69Z"/><path class="cls-1" d="M12,14.81a3,3,0,1,1,3-3A3,3,0,0,1,12,14.81Zm0-4.17a1.19,1.19,0,1,0,1.22,1.19A1.21,1.21,0,0,0,12,10.64Z"/></svg>