<svg id="레이어_1" data-name="레이어 1" xmlns="http://www.w3.org/2000/svg" viewBox="0 0 24 24"><defs><style>.cls-1{fill:#767f87;}</style></defs><title>icon-xs-barcode-code</title><path class="cls-1" d="M13.23,4.47c-.25,0-.41.16-.4.48v.22a.89.89,0,0,1-.71,1,.9.9,0,0,1,.71,1.06v.23c0,.31.15.48.4.48h.32V9H13a1.28,1.28,0,0,1-1.37-1.51V7.23c0-.33-.24-.51-.68-.51v-1c.44,0,.69-.18.68-.51V5A1.28,1.28,0,0,1,13,3.45h.51v1Z"/><path class="cls-1" d="M16.75,6.1A.75.75,0,1,1,16,5.34.76.76,0,0,1,16.75,6.1Z"/><path class="cls-1" d="M18.76,8c.26,0,.42-.17.41-.48V7.28a.88.88,0,0,1,.71-1,.89.89,0,0,1-.71-1.06V5c0-.32-.15-.48-.41-.48h-.31v-1H19A1.28,1.28,0,0,1,20.33,5v.26c0,.33.24.51.68.51v1c-.44,0-.69.18-.68.51v.26A1.28,1.28,0,0,1,19,9h-.51V8Z"/><path class="cls-1" d="M6,18.9a.9.9,0,0,1-.9-.9V9A.9.9,0,0,1,6.9,9v9A.9.9,0,0,1,6,18.9Z"/><path class="cls-1" d="M9,16.9a.9.9,0,0,1-.9-.9V9A.9.9,0,0,1,9.9,9v7A.9.9,0,0,1,9,16.9Z"/><path class="cls-1" d="M11.1,18a.9.9,0,0,0,1.8,0V11H11.1Z"/><path class="cls-1" d="M14.1,15a.9.9,0,0,0,1.8,0V11H14.1Z"/><path class="cls-1" d="M17.1,16a.9.9,0,0,0,1.8,0V11H17.1Z"/></svg>