<svg id="레이어_1" data-name="레이어 1" xmlns="http://www.w3.org/2000/svg" viewBox="0 0 96 96"><defs><style>.cls-1,.cls-2{fill:#fff;}.cls-2,.cls-3{stroke:#59626a;}.cls-2,.cls-3,.cls-4{stroke-miterlimit:10;stroke-width:2px;}.cls-3,.cls-4{fill:none;stroke-linecap:round;}.cls-4{stroke:#b1bac2;}</style></defs><title>icon-md-select-box</title><rect class="cls-1" width="96" height="96"/><rect class="cls-2" x="29" y="16" width="14" height="48" rx="2" ry="2" transform="translate(-4 76) rotate(-90)"/><circle class="cls-2" cx="19" cy="40" r="3"/><line class="cls-3" x1="26" y1="38" x2="51" y2="38"/><line class="cls-4" x1="26" y1="42" x2="43" y2="42"/><rect class="cls-2" x="41" y="26" width="14" height="48" rx="2" ry="2" transform="translate(-2 98) rotate(-90)"/><circle class="cls-2" cx="31" cy="50" r="3"/><line class="cls-3" x1="38" y1="48" x2="63" y2="48"/><line class="cls-4" x1="38" y1="52" x2="55" y2="52"/><rect class="cls-2" x="53" y="36" width="14" height="48" rx="2" ry="2" transform="translate(0 120) rotate(-90)"/><circle class="cls-2" cx="43" cy="60" r="3"/><line class="cls-3" x1="50" y1="58" x2="75" y2="58"/><line class="cls-4" x1="50" y1="62" x2="67" y2="62"/></svg>