<?xml version="1.0" encoding="utf-8"?>
<!-- Generator: Adobe Illustrator 23.0.1, SVG Export Plug-In . SVG Version: 6.00 Build 0)  -->
<svg version="1.1" id="Layer_1" xmlns="http://www.w3.org/2000/svg" xmlns:xlink="http://www.w3.org/1999/xlink" x="0px" y="0px"
	 viewBox="0 0 1170 600" style="enable-background:new 0 0 1170 600;" xml:space="preserve">
<style type="text/css">
	.st0{fill:#7A8DA2;}
	.st1{fill:#F46C21;}
	.st2{fill:#0AC940;}
	.st3{fill:#00C1BC;}
	.st4{fill:#F52711;}
	.st5{fill:#CAD5DB;}
	.st6{fill:#004BB7;}
	.st7{fill:#C17A44;}
	.st8{fill:#0F1C3A;}
	.st9{fill:#FFBD03;}
	.st10{fill:#7E3FD8;}
</style>
<g>
	<g>
		<g>
			<path class="st0" d="M430.6,312.57h-2.48l-2.2-7.32l-2.2,7.32h-2.48l-3.06-10.25h2.12l2.2,7.87l2.29-7.87h2.26l2.29,7.87
				l2.2-7.87h2.09L430.6,312.57z"/>
			<path class="st0" d="M441.09,312.57h-1.87v-0.78c-0.46,0.57-1.15,0.97-2.12,0.97c-1.96,0-3.44-1.6-3.44-3.74s1.48-3.74,3.44-3.74
				c0.97,0,1.66,0.4,2.12,0.97v-0.78h1.87V312.57z M435.62,309.02c0,1.08,0.71,1.96,1.83,1.96c1.09,0,1.83-0.83,1.83-1.96
				s-0.74-1.96-1.83-1.96C436.33,307.06,435.62,307.93,435.62,309.02z"/>
			<path class="st0" d="M447.94,305.44l-0.29,1.9c-0.31-0.14-0.77-0.23-1.16-0.23c-0.89,0-1.49,0.54-1.49,1.6v3.87h-1.91v-7.1h1.85
				v0.78c0.45-0.67,1.13-0.97,2-0.97C447.36,305.28,447.68,305.34,447.94,305.44z"/>
			<path class="st0" d="M455.96,308.05v4.52h-1.91v-3.9c0-1.03-0.51-1.59-1.38-1.59c-0.82,0-1.5,0.53-1.5,1.6v3.89h-1.91v-7.1h1.86
				v0.83c0.51-0.75,1.28-1.03,2.09-1.03C454.81,305.28,455.96,306.4,455.96,308.05z"/>
			<path class="st0" d="M460.07,303.15c0,0.69-0.53,1.22-1.22,1.22s-1.22-0.53-1.22-1.22s0.53-1.23,1.22-1.23
				S460.07,302.46,460.07,303.15z M459.82,312.57h-1.91v-7.1h1.91V312.57z"/>
			<path class="st0" d="M468.53,308.05v4.52h-1.91v-3.9c0-1.03-0.51-1.59-1.38-1.59c-0.82,0-1.5,0.53-1.5,1.6v3.89h-1.91v-7.1h1.86
				v0.83c0.51-0.75,1.28-1.03,2.09-1.03C467.38,305.28,468.53,306.4,468.53,308.05z"/>
			<path class="st0" d="M475.5,306.26v-0.79h1.88v6.51c0,2.28-1.49,3.65-3.83,3.65c-1.12,0-2.31-0.29-3.11-0.86l0.68-1.56
				c0.71,0.47,1.49,0.73,2.34,0.73c1.19,0,2.02-0.66,2.02-1.88v-0.5c-0.48,0.59-1.2,0.96-2.18,0.96c-1.73,0-3.27-1.44-3.27-3.62
				c0-2.18,1.54-3.63,3.27-3.63C474.29,305.28,475.02,305.66,475.5,306.26z M472,308.91c0,1.03,0.7,1.86,1.79,1.86
				c1.06,0,1.78-0.81,1.78-1.86c0-1.06-0.72-1.87-1.78-1.87C472.7,307.04,472,307.88,472,308.91z"/>
		</g>
		<g>
			<path class="st0" d="M539.58,304.9c-0.81-0.5-1.79-0.87-2.91-0.87c-1.15,0-1.96,0.45-1.96,1.23c0,0.75,0.89,0.98,2.12,1.19
				l0.58,0.1c1.83,0.3,3.27,1.08,3.27,2.87c0,2.26-1.99,3.34-4.2,3.34c-1.55,0-3.22-0.45-4.32-1.34l1.06-1.65
				c0.74,0.59,1.95,1.11,3.27,1.11c1.14,0,2.01-0.45,2.01-1.24c0-0.71-0.75-0.97-2.18-1.2l-0.65-0.1c-1.81-0.29-3.13-1.08-3.13-2.94
				c0-2.14,1.9-3.25,4.09-3.25c1.44,0,2.63,0.32,3.92,1.09L539.58,304.9z"/>
			<path class="st0" d="M549.02,309.55c0,2.24-1.58,3.21-3.35,3.21c-1.78,0-3.36-0.97-3.36-3.21v-4.07h1.91v3.9
				c0,1.14,0.62,1.6,1.45,1.6c0.82,0,1.45-0.46,1.45-1.6v-3.9h1.9V309.55z"/>
			<path class="st0" d="M557.15,306.62l-1.38,1.15c-0.43-0.46-0.89-0.71-1.52-0.71c-0.99,0-1.78,0.78-1.78,1.96
				c0,1.19,0.78,1.96,1.77,1.96c0.62,0,1.14-0.28,1.55-0.72l1.36,1.16c-0.67,0.86-1.66,1.33-2.85,1.33c-2.26,0-3.78-1.58-3.78-3.74
				c0-2.15,1.52-3.74,3.78-3.74C555.5,305.28,556.5,305.77,557.15,306.62z"/>
			<path class="st0" d="M564.57,306.62l-1.38,1.15c-0.43-0.46-0.89-0.71-1.52-0.71c-0.99,0-1.78,0.78-1.78,1.96
				c0,1.19,0.78,1.96,1.77,1.96c0.62,0,1.14-0.28,1.55-0.72l1.36,1.16c-0.67,0.86-1.66,1.33-2.85,1.33c-2.26,0-3.78-1.58-3.78-3.74
				c0-2.15,1.52-3.74,3.78-3.74C562.92,305.28,563.92,305.77,564.57,306.62z"/>
			<path class="st0" d="M572.41,309.01c0,0.22-0.01,0.48-0.04,0.64h-5.03c0.21,1.03,0.92,1.47,1.82,1.47c0.62,0,1.28-0.25,1.79-0.68
				l1.12,1.23c-0.81,0.74-1.83,1.08-3.02,1.08c-2.18,0-3.68-1.48-3.68-3.71s1.46-3.76,3.59-3.76
				C571,305.28,572.4,306.8,572.41,309.01z M567.35,308.35h3.14c-0.18-0.91-0.73-1.42-1.55-1.42
				C568.04,306.93,567.52,307.47,567.35,308.35z"/>
			<path class="st0" d="M579.01,307.45c-0.56-0.28-1.46-0.57-2.26-0.58c-0.73,0-1.09,0.26-1.09,0.64c0,0.41,0.51,0.51,1.16,0.61
				l0.63,0.1c1.54,0.23,2.4,0.92,2.4,2.12c0,1.46-1.2,2.41-3.26,2.41c-0.97,0-2.23-0.18-3.16-0.83l0.75-1.45
				c0.61,0.4,1.35,0.7,2.42,0.7c0.89,0,1.31-0.25,1.31-0.67c0-0.34-0.36-0.53-1.18-0.65l-0.58-0.08c-1.64-0.23-2.45-0.94-2.45-2.15
				c0-1.46,1.13-2.32,3-2.32c1.14,0,2.02,0.21,2.97,0.67L579.01,307.45z"/>
			<path class="st0" d="M586.38,307.45c-0.56-0.28-1.46-0.57-2.26-0.58c-0.73,0-1.09,0.26-1.09,0.64c0,0.41,0.51,0.51,1.16,0.61
				l0.63,0.1c1.54,0.23,2.39,0.92,2.39,2.12c0,1.46-1.2,2.41-3.26,2.41c-0.97,0-2.23-0.18-3.16-0.83l0.75-1.45
				c0.61,0.4,1.35,0.7,2.42,0.7c0.89,0,1.31-0.25,1.31-0.67c0-0.34-0.36-0.53-1.18-0.65l-0.58-0.08c-1.64-0.23-2.45-0.94-2.45-2.15
				c0-1.46,1.13-2.32,3-2.32c1.14,0,2.02,0.21,2.97,0.67L586.38,307.45z"/>
		</g>
		<g>
			<path class="st0" d="M632.01,312.57h-2.04v-10.25h2.04V312.57z"/>
			<path class="st0" d="M640.88,308.05v4.52h-1.91v-3.9c0-1.03-0.51-1.59-1.38-1.59c-0.82,0-1.5,0.53-1.5,1.6v3.89h-1.91v-7.1h1.86
				v0.83c0.5-0.75,1.28-1.03,2.09-1.03C639.73,305.28,640.88,306.4,640.88,308.05z"/>
			<path class="st0" d="M647.42,307.17h-2.2v5.4h-1.91v-5.4h-1.33v-1.7h1.33v-0.88c0-1.66,0.89-2.75,2.54-2.75
				c0.97,0,1.64,0.28,2.18,0.64l-0.76,1.49c-0.35-0.19-0.77-0.34-1.22-0.34c-0.55,0-0.83,0.34-0.83,1v0.86h2.2V307.17z"/>
			<path class="st0" d="M655.87,309.02c0,2.14-1.63,3.74-3.84,3.74c-2.2,0-3.83-1.6-3.83-3.74s1.63-3.74,3.83-3.74
				C654.23,305.28,655.87,306.88,655.87,309.02z M650.14,309.02c0,1.15,0.8,1.96,1.88,1.96s1.89-0.81,1.89-1.96
				s-0.81-1.96-1.89-1.96S650.14,307.87,650.14,309.02z"/>
			<path class="st0" d="M662.27,305.44l-0.29,1.9c-0.31-0.14-0.77-0.23-1.16-0.23c-0.89,0-1.49,0.54-1.49,1.6v3.87h-1.91v-7.1h1.85
				v0.78c0.45-0.67,1.13-0.97,2-0.97C661.69,305.28,662.01,305.34,662.27,305.44z"/>
			<path class="st0" d="M675.08,308.05v4.52h-1.9v-3.9c0-1.03-0.52-1.59-1.38-1.59c-0.82,0-1.5,0.53-1.5,1.6v3.89h-1.91v-3.9
				c0-1.03-0.51-1.59-1.38-1.59c-0.82,0-1.5,0.53-1.5,1.6v3.89h-1.91v-7.1h1.86v0.83c0.5-0.75,1.28-1.03,2.09-1.03
				c1.03,0,1.87,0.46,2.34,1.22c0.55-0.9,1.48-1.22,2.41-1.22C673.95,305.28,675.08,306.4,675.08,308.05z"/>
			<path class="st0" d="M684.01,312.57h-1.87v-0.78c-0.46,0.57-1.15,0.97-2.12,0.97c-1.96,0-3.43-1.6-3.43-3.74s1.48-3.74,3.43-3.74
				c0.97,0,1.66,0.4,2.12,0.97v-0.78h1.87V312.57z M678.54,309.02c0,1.08,0.71,1.96,1.83,1.96c1.09,0,1.83-0.83,1.83-1.96
				s-0.74-1.96-1.83-1.96C679.25,307.06,678.54,307.93,678.54,309.02z"/>
			<path class="st0" d="M691.17,307.17h-2.57v2.59c0,0.89,0.47,1.21,1.06,1.21c0.45,0,0.95-0.23,1.33-0.46l0.7,1.49
				c-0.62,0.42-1.34,0.75-2.35,0.75c-1.76,0-2.66-1-2.66-2.83v-2.75h-1.37v-1.7h1.37v-2.11h1.91v2.11h2.57V307.17z"/>
			<path class="st0" d="M695.02,303.15c0,0.69-0.54,1.22-1.22,1.22s-1.22-0.53-1.22-1.22s0.53-1.23,1.22-1.23
				S695.02,302.46,695.02,303.15z M694.76,312.57h-1.91v-7.1h1.91V312.57z"/>
			<path class="st0" d="M704.01,309.02c0,2.14-1.63,3.74-3.85,3.74c-2.21,0-3.83-1.6-3.83-3.74s1.62-3.74,3.83-3.74
				C702.37,305.28,704.01,306.88,704.01,309.02z M698.28,309.02c0,1.15,0.81,1.96,1.88,1.96s1.89-0.81,1.89-1.96
				s-0.81-1.96-1.89-1.96S698.28,307.87,698.28,309.02z"/>
			<path class="st0" d="M712.27,308.05v4.52h-1.91v-3.9c0-1.03-0.51-1.59-1.38-1.59c-0.82,0-1.5,0.53-1.5,1.6v3.89h-1.91v-7.1h1.86
				v0.83c0.5-0.75,1.28-1.03,2.09-1.03C711.12,305.28,712.27,306.4,712.27,308.05z"/>
		</g>
		<g>
			<path class="st0" d="M772.92,312.57h-7.66v-10.25h7.6v1.88h-5.56v2.27h5.3v1.88h-5.3v2.36h5.62V312.57z"/>
			<path class="st0" d="M779.7,305.44l-0.29,1.9c-0.31-0.14-0.77-0.23-1.16-0.23c-0.89,0-1.49,0.54-1.49,1.6v3.87h-1.91v-7.1h1.85
				v0.78c0.45-0.67,1.13-0.97,2-0.97C779.12,305.28,779.44,305.34,779.7,305.44z"/>
			<path class="st0" d="M785.85,305.44l-0.29,1.9c-0.32-0.14-0.77-0.23-1.16-0.23c-0.89,0-1.49,0.54-1.49,1.6v3.87h-1.91v-7.1h1.85
				v0.78c0.45-0.67,1.13-0.97,2-0.97C785.27,305.28,785.59,305.34,785.85,305.44z"/>
			<path class="st0" d="M794.15,309.02c0,2.14-1.63,3.74-3.84,3.74c-2.2,0-3.83-1.6-3.83-3.74s1.63-3.74,3.83-3.74
				C792.52,305.28,794.15,306.88,794.15,309.02z M788.43,309.02c0,1.15,0.8,1.96,1.88,1.96s1.89-0.81,1.89-1.96
				s-0.81-1.96-1.89-1.96S788.43,307.87,788.43,309.02z"/>
			<path class="st0" d="M800.56,305.44l-0.29,1.9c-0.31-0.14-0.77-0.23-1.16-0.23c-0.89,0-1.49,0.54-1.49,1.6v3.87h-1.91v-7.1h1.85
				v0.78c0.45-0.67,1.13-0.97,2-0.97C799.97,305.28,800.3,305.34,800.56,305.44z"/>
		</g>
		<circle class="st1" cx="448.16" cy="256.15" r="33.48"/>
		<circle class="st2" cx="559.58" cy="256.15" r="33.48"/>
		<circle class="st3" cx="671.01" cy="256.15" r="33.48"/>
		<circle class="st4" cx="782.43" cy="256.15" r="33.48"/>
	</g>
	<g>
		<g>
			<path class="st0" d="M193.33,583h-1.92l-5.2-6.85l-0.01,6.85h-2.04v-10.25h1.91l5.21,6.85v-6.85h2.05V583z"/>
			<path class="st0" d="M202.73,579.45c0,2.14-1.63,3.74-3.85,3.74c-2.2,0-3.83-1.6-3.83-3.74s1.63-3.73,3.83-3.73
				C201.1,575.72,202.73,577.31,202.73,579.45z M197.01,579.45c0,1.15,0.81,1.96,1.88,1.96s1.89-0.81,1.89-1.96
				c0-1.15-0.81-1.96-1.89-1.96S197.01,578.3,197.01,579.45z"/>
			<path class="st0" d="M209.37,577.61h-2.57v2.59c0,0.89,0.47,1.21,1.06,1.21c0.45,0,0.94-0.23,1.33-0.46l0.7,1.49
				c-0.62,0.43-1.34,0.75-2.35,0.75c-1.76,0-2.66-1-2.66-2.83v-2.75h-1.37v-1.7h1.37v-2.11h1.91v2.11h2.57V577.61z"/>
			<path class="st0" d="M219.77,577.88c-0.56-0.28-1.46-0.57-2.26-0.58c-0.73,0-1.09,0.26-1.09,0.64c0,0.41,0.51,0.51,1.16,0.61
				l0.63,0.09c1.54,0.23,2.4,0.92,2.4,2.12c0,1.46-1.2,2.41-3.26,2.41c-0.97,0-2.23-0.18-3.16-0.84l0.75-1.45
				c0.61,0.4,1.35,0.7,2.42,0.7c0.89,0,1.31-0.25,1.31-0.67c0-0.34-0.36-0.54-1.18-0.65l-0.58-0.08c-1.64-0.23-2.45-0.95-2.45-2.15
				c0-1.46,1.13-2.32,3-2.32c1.14,0,2.02,0.21,2.97,0.67L219.77,577.88z"/>
			<path class="st0" d="M229.53,579.45c0,2.13-1.48,3.74-3.44,3.74c-0.95,0-1.63-0.37-2.09-0.92v3.67h-1.9v-10.03h1.87v0.78
				c0.46-0.58,1.14-0.97,2.12-0.97C228.05,575.72,229.53,577.32,229.53,579.45z M223.91,579.45c0,1.12,0.74,1.96,1.82,1.96
				c1.13,0,1.83-0.87,1.83-1.96s-0.7-1.96-1.83-1.96C224.65,577.5,223.91,578.33,223.91,579.45z"/>
			<path class="st0" d="M237.69,579.44c0,0.22-0.01,0.48-0.04,0.64h-5.03c0.21,1.03,0.92,1.47,1.82,1.47c0.62,0,1.28-0.25,1.79-0.68
				l1.12,1.23c-0.81,0.74-1.83,1.08-3.02,1.08c-2.18,0-3.68-1.48-3.68-3.71s1.46-3.76,3.59-3.76
				C236.28,575.72,237.68,577.23,237.69,579.44z M232.63,578.79h3.14c-0.18-0.91-0.73-1.42-1.55-1.42
				C233.32,577.36,232.8,577.91,232.63,578.79z"/>
			<path class="st0" d="M245.43,577.06l-1.38,1.15c-0.43-0.46-0.89-0.71-1.52-0.71c-0.99,0-1.78,0.78-1.78,1.96
				c0,1.19,0.78,1.96,1.77,1.96c0.62,0,1.14-0.28,1.55-0.72l1.36,1.16c-0.67,0.86-1.66,1.33-2.85,1.33c-2.26,0-3.78-1.58-3.78-3.74
				c0-2.15,1.52-3.73,3.78-3.73C243.78,575.72,244.78,576.2,245.43,577.06z"/>
			<path class="st0" d="M248.98,573.58c0,0.69-0.53,1.22-1.22,1.22s-1.22-0.53-1.22-1.22s0.53-1.23,1.22-1.23
				S248.98,572.9,248.98,573.58z M248.73,583h-1.91v-7.1h1.91V583z"/>
			<path class="st0" d="M255.47,577.61h-2.2v5.4h-1.91v-5.4h-1.33v-1.7h1.33v-0.88c0-1.66,0.89-2.75,2.54-2.75
				c0.97,0,1.64,0.28,2.18,0.64l-0.76,1.49c-0.35-0.19-0.77-0.34-1.22-0.34c-0.55,0-0.83,0.34-0.83,1v0.86h2.2V577.61z"/>
			<path class="st0" d="M259.12,573.58c0,0.69-0.53,1.22-1.22,1.22s-1.22-0.53-1.22-1.22s0.53-1.23,1.22-1.23
				S259.12,572.9,259.12,573.58z M258.86,583h-1.91v-7.1h1.91V583z"/>
			<path class="st0" d="M267.05,577.06l-1.38,1.15c-0.43-0.46-0.89-0.71-1.52-0.71c-0.99,0-1.78,0.78-1.78,1.96
				c0,1.19,0.78,1.96,1.77,1.96c0.62,0,1.14-0.28,1.55-0.72l1.36,1.16c-0.67,0.86-1.66,1.33-2.85,1.33c-2.26,0-3.78-1.58-3.78-3.74
				c0-2.15,1.52-3.73,3.78-3.73C265.39,575.72,266.4,576.2,267.05,577.06z"/>
		</g>
		<circle class="st5" cx="225.31" cy="526.58" r="33.48"/>
		<g>
			<path class="st0" d="M552.05,583h-2.04v-7.74l-2.53,6.75h-2.16l-2.53-6.7V583h-2.04v-10.25h3l2.67,6.92l2.66-6.92h3V583z"/>
			<path class="st0" d="M556.39,573.58c0,0.69-0.53,1.22-1.22,1.22s-1.22-0.53-1.22-1.22s0.53-1.23,1.22-1.23
				S556.39,572.9,556.39,573.58z M556.13,583h-1.91v-7.1h1.91V583z"/>
			<path class="st0" d="M564.85,578.48V583h-1.91v-3.9c0-1.03-0.51-1.59-1.38-1.59c-0.82,0-1.5,0.53-1.5,1.6V583h-1.91v-7.1H560
				v0.84c0.51-0.75,1.28-1.03,2.09-1.03C563.7,575.72,564.85,576.84,564.85,578.48z"/>
			<path class="st0" d="M574.03,579.45c0,2.14-1.63,3.74-3.85,3.74c-2.2,0-3.83-1.6-3.83-3.74s1.63-3.73,3.83-3.73
				C572.4,575.72,574.03,577.31,574.03,579.45z M568.3,579.45c0,1.15,0.81,1.96,1.88,1.96s1.89-0.81,1.89-1.96
				c0-1.15-0.81-1.96-1.89-1.96S568.3,578.3,568.3,579.45z"/>
			<path class="st0" d="M580.44,575.87l-0.29,1.9c-0.31-0.14-0.77-0.23-1.16-0.23c-0.89,0-1.49,0.54-1.49,1.6V583h-1.91v-7.1h1.85
				v0.78c0.45-0.67,1.13-0.97,2-0.97C579.85,575.72,580.17,575.78,580.44,575.87z"/>
		</g>
		<circle class="st2" cx="560.11" cy="526.58" r="33.48"/>
		<g>
			<path class="st0" d="M432.26,583h-2.04v-7.74l-2.53,6.75h-2.16l-2.53-6.7V583h-2.04v-10.25h3l2.67,6.92l2.66-6.92h3V583z"/>
			<path class="st0" d="M441.02,579.44c0,0.22-0.01,0.48-0.04,0.64h-5.03c0.21,1.03,0.92,1.47,1.82,1.47c0.62,0,1.28-0.25,1.79-0.68
				l1.12,1.23c-0.81,0.74-1.83,1.08-3.02,1.08c-2.18,0-3.68-1.48-3.68-3.71s1.46-3.76,3.59-3.76
				C439.62,575.72,441.02,577.23,441.02,579.44z M435.96,578.79h3.14c-0.18-0.91-0.73-1.42-1.55-1.42
				C436.66,577.36,436.13,577.91,435.96,578.79z"/>
			<path class="st0" d="M447.67,576.65v-4.19h1.9V583h-1.87v-0.78c-0.46,0.57-1.15,0.97-2.12,0.97c-1.96,0-3.44-1.6-3.44-3.74
				c0-2.13,1.48-3.73,3.44-3.73C446.53,575.72,447.2,576.09,447.67,576.65z M444.1,579.45c0,1.08,0.71,1.96,1.83,1.96
				c1.09,0,1.83-0.83,1.83-1.96c0-1.12-0.74-1.96-1.83-1.96C444.81,577.5,444.1,578.37,444.1,579.45z"/>
			<path class="st0" d="M453.74,573.58c0,0.69-0.53,1.22-1.22,1.22s-1.22-0.53-1.22-1.22s0.53-1.23,1.22-1.23
				S453.74,572.9,453.74,573.58z M453.49,583h-1.91v-7.1h1.91V583z"/>
			<path class="st0" d="M462.15,579.98c0,2.24-1.58,3.21-3.35,3.21c-1.78,0-3.36-0.97-3.36-3.21v-4.07h1.91v3.9
				c0,1.13,0.62,1.6,1.45,1.6c0.82,0,1.45-0.46,1.45-1.6v-3.9h1.9V579.98z"/>
			<path class="st0" d="M475.6,578.48V583h-1.9v-3.9c0-1.03-0.52-1.59-1.38-1.59c-0.82,0-1.5,0.53-1.5,1.6V583h-1.91v-3.9
				c0-1.03-0.51-1.59-1.38-1.59c-0.82,0-1.5,0.53-1.5,1.6V583h-1.91v-7.1h1.86v0.84c0.51-0.75,1.28-1.03,2.09-1.03
				c1.03,0,1.87,0.46,2.34,1.21c0.55-0.9,1.48-1.21,2.41-1.21C474.47,575.72,475.6,576.84,475.6,578.48z"/>
		</g>
		<g>
			<path class="st0" d="M774.19,583h-2.04v-7.74l-2.54,6.75h-2.16l-2.53-6.7V583h-2.04v-10.25h3l2.67,6.92l2.66-6.92h3V583z"/>
			<path class="st0" d="M783.35,583h-1.87v-0.78c-0.46,0.57-1.15,0.97-2.12,0.97c-1.96,0-3.44-1.6-3.44-3.74
				c0-2.13,1.48-3.73,3.44-3.73c0.97,0,1.66,0.39,2.12,0.97v-0.78h1.87V583z M777.88,579.45c0,1.08,0.71,1.96,1.83,1.96
				c1.09,0,1.83-0.83,1.83-1.96c0-1.12-0.74-1.96-1.83-1.96C778.59,577.5,777.88,578.37,777.88,579.45z"/>
			<path class="st0" d="M787.29,583.68c0,1.55-0.89,2.41-2.2,2.41c-0.34,0-0.81-0.07-1.08-0.19l0.29-1.68
				c0.16,0.06,0.33,0.09,0.51,0.09c0.32,0,0.57-0.2,0.57-0.74v-7.66h1.91V583.68z M787.54,573.58c0,0.69-0.54,1.22-1.22,1.22
				c-0.69,0-1.22-0.53-1.22-1.22s0.53-1.23,1.22-1.23C787.01,572.35,787.54,572.9,787.54,573.58z"/>
			<path class="st0" d="M796.54,579.45c0,2.14-1.63,3.74-3.85,3.74c-2.21,0-3.83-1.6-3.83-3.74s1.62-3.73,3.83-3.73
				C794.9,575.72,796.54,577.31,796.54,579.45z M790.81,579.45c0,1.15,0.81,1.96,1.88,1.96s1.89-0.81,1.89-1.96
				c0-1.15-0.81-1.96-1.89-1.96S790.81,578.3,790.81,579.45z"/>
			<path class="st0" d="M802.94,575.87l-0.29,1.9c-0.32-0.14-0.77-0.23-1.16-0.23c-0.89,0-1.49,0.54-1.49,1.6V583h-1.91v-7.1h1.85
				v0.78c0.45-0.67,1.13-0.97,2-0.97C802.36,575.72,802.68,575.78,802.94,575.87z"/>
		</g>
		<circle class="st1" cx="448.16" cy="526.58" r="33.48"/>
		<circle class="st4" cx="782.43" cy="526.58" r="33.48"/>
	</g>
	<g>
		<circle class="st6" cx="336.74" cy="391.36" r="33.48"/>
		<g>
			<path class="st0" d="M325.75,437.53c2.39,0,3.89,0.89,3.89,2.84c0,1.03-0.63,1.86-1.49,2.18c0.94,0.31,1.71,1.19,1.71,2.3
				c0,1.97-1.4,2.94-3.86,2.94h-4.44v-10.25H325.75z M323.61,439.33v2.4h2.09c1.02,0,1.81-0.21,1.81-1.21
				c0-0.97-0.81-1.19-1.82-1.19H323.61z M323.61,443.52v2.46l2.29,0.01c1.13,0,1.84-0.26,1.84-1.24c0-0.96-0.71-1.22-1.84-1.22
				H323.61z"/>
			<path class="st0" d="M338.16,444.23c0,0.22-0.01,0.48-0.04,0.64h-5.03c0.21,1.03,0.92,1.47,1.82,1.47c0.62,0,1.28-0.25,1.79-0.68
				l1.12,1.23c-0.81,0.74-1.83,1.08-3.02,1.08c-2.18,0-3.68-1.48-3.68-3.71s1.46-3.76,3.59-3.76
				C336.75,440.5,338.15,442.02,338.16,444.23z M333.1,443.57h3.14c-0.18-0.91-0.73-1.42-1.55-1.42
				C333.8,442.15,333.27,442.69,333.1,443.57z"/>
			<path class="st0" d="M344.76,442.67c-0.56-0.28-1.46-0.57-2.26-0.58c-0.73,0-1.09,0.26-1.09,0.64c0,0.41,0.51,0.51,1.16,0.61
				l0.63,0.09c1.54,0.23,2.4,0.92,2.4,2.12c0,1.46-1.2,2.41-3.26,2.41c-0.97,0-2.23-0.18-3.16-0.84l0.75-1.45
				c0.61,0.4,1.35,0.7,2.42,0.7c0.89,0,1.31-0.25,1.31-0.67c0-0.34-0.36-0.54-1.18-0.65l-0.58-0.08c-1.64-0.23-2.45-0.95-2.45-2.15
				c0-1.46,1.13-2.32,3-2.32c1.14,0,2.02,0.21,2.97,0.67L344.76,442.67z"/>
			<path class="st0" d="M352.19,442.39h-2.57v2.59c0,0.89,0.47,1.21,1.06,1.21c0.45,0,0.94-0.23,1.33-0.46l0.7,1.49
				c-0.62,0.43-1.34,0.75-2.35,0.75c-1.76,0-2.66-1-2.66-2.83v-2.75h-1.37v-1.7h1.37v-2.11h1.91v2.11h2.57V442.39z"/>
		</g>
		<g>
			<path class="st0" d="M439.44,437.53c2.39,0,3.89,0.89,3.89,2.84c0,1.03-0.63,1.86-1.49,2.18c0.94,0.31,1.71,1.19,1.71,2.3
				c0,1.97-1.4,2.94-3.86,2.94h-4.44v-10.25H439.44z M437.3,439.33v2.4h2.09c1.02,0,1.81-0.21,1.81-1.21c0-0.97-0.81-1.19-1.82-1.19
				H437.3z M437.3,443.52v2.46l2.29,0.01c1.13,0,1.84-0.26,1.84-1.24c0-0.96-0.71-1.22-1.84-1.22H437.3z"/>
			<path class="st0" d="M452.24,447.79h-1.87V447c-0.46,0.57-1.15,0.97-2.12,0.97c-1.96,0-3.44-1.6-3.44-3.74
				c0-2.13,1.48-3.73,3.44-3.73c0.97,0,1.66,0.39,2.12,0.97v-0.78h1.87V447.79z M446.76,444.23c0,1.08,0.71,1.96,1.83,1.96
				c1.09,0,1.83-0.83,1.83-1.96c0-1.12-0.74-1.96-1.83-1.96C447.48,442.28,446.76,443.15,446.76,444.23z"/>
			<path class="st0" d="M459.32,441.43v-4.19h1.9v10.55h-1.87V447c-0.46,0.57-1.15,0.97-2.12,0.97c-1.96,0-3.44-1.6-3.44-3.74
				c0-2.13,1.48-3.73,3.44-3.73C458.19,440.5,458.86,440.87,459.32,441.43z M455.76,444.23c0,1.08,0.71,1.96,1.83,1.96
				c1.09,0,1.83-0.83,1.83-1.96c0-1.12-0.74-1.96-1.83-1.96C456.47,442.28,455.76,443.15,455.76,444.23z"/>
		</g>
		<g>
			<path class="st0" d="M550.4,438.92l-1.47,1.44c-0.58-0.67-1.43-1.08-2.48-1.08c-1.88,0-3.24,1.38-3.24,3.38
				c0,2.09,1.43,3.41,3.2,3.41c1.67,0,2.64-0.81,2.92-2.26h-2.61v-1.71h4.72c0.02,0.2,0.03,0.39,0.03,0.58c0,3.11-2.1,5.3-5.01,5.3
				c-2.84,0-5.36-2-5.36-5.31c0-3.1,2.26-5.32,5.41-5.32C548.13,437.34,549.49,437.93,550.4,438.92z"/>
			<path class="st0" d="M560.4,444.23c0,2.14-1.63,3.74-3.85,3.74c-2.2,0-3.83-1.6-3.83-3.74s1.63-3.73,3.83-3.73
				C558.77,440.5,560.4,442.1,560.4,444.23z M554.67,444.23c0,1.15,0.81,1.96,1.88,1.96s1.89-0.81,1.89-1.96
				c0-1.15-0.81-1.96-1.89-1.96S554.67,443.08,554.67,444.23z"/>
			<path class="st0" d="M569.2,444.23c0,2.14-1.63,3.74-3.85,3.74c-2.2,0-3.83-1.6-3.83-3.74s1.63-3.73,3.83-3.73
				C567.56,440.5,569.2,442.1,569.2,444.23z M563.47,444.23c0,1.15,0.81,1.96,1.88,1.96s1.89-0.81,1.89-1.96
				c0-1.15-0.81-1.96-1.89-1.96S563.47,443.08,563.47,444.23z"/>
			<path class="st0" d="M575.84,441.43v-4.19h1.9v10.55h-1.87V447c-0.46,0.57-1.15,0.97-2.12,0.97c-1.96,0-3.44-1.6-3.44-3.74
				c0-2.13,1.48-3.73,3.44-3.73C574.7,440.5,575.38,440.87,575.84,441.43z M572.27,444.23c0,1.08,0.71,1.96,1.83,1.96
				c1.09,0,1.83-0.83,1.83-1.96c0-1.12-0.74-1.96-1.83-1.96C572.98,442.28,572.27,443.15,572.27,444.23z"/>
		</g>
		<g>
			<path class="st0" d="M773,447.79h-2.48l-2.2-7.32l-2.2,7.32h-2.48l-3.06-10.25h2.12l2.21,7.87l2.29-7.87h2.26l2.29,7.87
				l2.21-7.87h2.09L773,447.79z"/>
			<path class="st0" d="M783.75,444.23c0,2.14-1.63,3.74-3.85,3.74c-2.21,0-3.83-1.6-3.83-3.74s1.62-3.73,3.83-3.73
				C782.11,440.5,783.75,442.1,783.75,444.23z M778.02,444.23c0,1.15,0.81,1.96,1.88,1.96s1.89-0.81,1.89-1.96
				c0-1.15-0.81-1.96-1.89-1.96S778.02,443.08,778.02,444.23z"/>
			<path class="st0" d="M790.15,440.65l-0.29,1.9c-0.31-0.14-0.77-0.23-1.16-0.23c-0.89,0-1.49,0.54-1.49,1.6v3.87h-1.91v-7.1h1.85
				v0.78c0.45-0.67,1.13-0.97,2-0.97C789.57,440.5,789.89,440.56,790.15,440.65z"/>
			<path class="st0" d="M796.4,442.67c-0.56-0.28-1.46-0.57-2.26-0.58c-0.72,0-1.09,0.26-1.09,0.64c0,0.41,0.51,0.51,1.16,0.61
				l0.63,0.09c1.54,0.23,2.4,0.92,2.4,2.12c0,1.46-1.2,2.41-3.26,2.41c-0.97,0-2.23-0.18-3.16-0.84l0.75-1.45
				c0.61,0.4,1.35,0.7,2.42,0.7c0.89,0,1.31-0.25,1.31-0.67c0-0.34-0.36-0.54-1.18-0.65l-0.58-0.08c-1.64-0.23-2.45-0.95-2.45-2.15
				c0-1.46,1.13-2.32,3-2.32c1.14,0,2.02,0.21,2.97,0.67L796.4,442.67z"/>
			<path class="st0" d="M803.84,442.39h-2.57v2.59c0,0.89,0.47,1.21,1.06,1.21c0.45,0,0.94-0.23,1.33-0.46l0.7,1.49
				c-0.62,0.43-1.34,0.75-2.35,0.75c-1.76,0-2.66-1-2.66-2.83v-2.75h-1.37v-1.7h1.37v-2.11h1.91v2.11h2.57V442.39z"/>
		</g>
		<g>
			<path class="st0" d="M995.94,440.12c-0.81-0.5-1.79-0.87-2.91-0.87c-1.15,0-1.96,0.45-1.96,1.23c0,0.75,0.89,0.98,2.12,1.19
				l0.58,0.1c1.83,0.3,3.27,1.08,3.27,2.87c0,2.26-1.99,3.34-4.2,3.34c-1.55,0-3.22-0.46-4.32-1.34l1.06-1.65
				c0.74,0.59,1.95,1.11,3.27,1.11c1.14,0,2.01-0.45,2.01-1.24c0-0.71-0.75-0.97-2.18-1.2l-0.65-0.1c-1.81-0.29-3.13-1.08-3.13-2.94
				c0-2.14,1.9-3.25,4.09-3.25c1.44,0,2.63,0.32,3.92,1.09L995.94,440.12z"/>
			<path class="st0" d="M1006.04,444.23c0,2.14-1.63,3.74-3.84,3.74c-2.2,0-3.83-1.6-3.83-3.74s1.63-3.73,3.83-3.73
				C1004.4,440.5,1006.04,442.1,1006.04,444.23z M1000.31,444.23c0,1.15,0.8,1.96,1.88,1.96s1.89-0.81,1.89-1.96
				c0-1.15-0.81-1.96-1.89-1.96S1000.31,443.08,1000.31,444.23z"/>
			<path class="st0" d="M1012.64,442.67c-0.56-0.28-1.46-0.57-2.26-0.58c-0.72,0-1.09,0.26-1.09,0.64c0,0.41,0.51,0.51,1.16,0.61
				l0.63,0.09c1.54,0.23,2.4,0.92,2.4,2.12c0,1.46-1.2,2.41-3.26,2.41c-0.97,0-2.23-0.18-3.16-0.84l0.75-1.45
				c0.61,0.4,1.35,0.7,2.42,0.7c0.89,0,1.31-0.25,1.31-0.67c0-0.34-0.36-0.54-1.18-0.65l-0.58-0.08c-1.64-0.23-2.45-0.95-2.45-2.15
				c0-1.46,1.13-2.32,3-2.32c1.14,0,2.02,0.21,2.97,0.67L1012.64,442.67z"/>
			<path class="st0" d="M1022.19,444.23c0,2.14-1.63,3.74-3.85,3.74c-2.21,0-3.83-1.6-3.83-3.74s1.62-3.73,3.83-3.73
				C1020.55,440.5,1022.19,442.1,1022.19,444.23z M1016.46,444.23c0,1.15,0.81,1.96,1.88,1.96s1.89-0.81,1.89-1.96
				c0-1.15-0.81-1.96-1.89-1.96S1016.46,443.08,1016.46,444.23z"/>
		</g>
		<circle class="st1" cx="448.16" cy="391.36" r="33.48"/>
		<circle class="st2" cx="559.58" cy="391.36" r="33.48"/>
		<circle class="st4" cx="782.43" cy="391.36" r="33.48"/>
		<circle class="st7" cx="1005.28" cy="391.36" r="33.48"/>
	</g>
	<g>
		<g>
			<path class="st8" d="M326.68,14.31c2.39,0,3.89,0.89,3.89,2.84c0,1.03-0.63,1.86-1.49,2.18c0.94,0.31,1.71,1.19,1.71,2.3
				c0,1.97-1.4,2.94-3.86,2.94h-4.44V14.31H326.68z M324.54,16.11v2.4h2.09c1.02,0,1.81-0.21,1.81-1.21c0-0.97-0.81-1.19-1.82-1.19
				H324.54z M324.54,20.3v2.46l2.29,0.01c1.13,0,1.84-0.26,1.84-1.25c0-0.96-0.71-1.22-1.84-1.22H324.54z"/>
			<path class="st8" d="M334.38,24.56h-1.91V14.01h1.91V24.56z"/>
			<path class="st8" d="M343.04,21.54c0,2.24-1.58,3.21-3.35,3.21c-1.78,0-3.36-0.97-3.36-3.21v-4.07h1.91v3.9
				c0,1.14,0.62,1.6,1.45,1.6c0.82,0,1.45-0.46,1.45-1.6v-3.9h1.9V21.54z"/>
			<path class="st8" d="M351.59,21c0,0.22-0.01,0.48-0.04,0.64h-5.03c0.21,1.03,0.92,1.47,1.82,1.47c0.62,0,1.28-0.25,1.79-0.68
				l1.12,1.23c-0.81,0.74-1.83,1.08-3.02,1.08c-2.18,0-3.68-1.48-3.68-3.71s1.46-3.76,3.59-3.76
				C350.18,17.27,351.58,18.79,351.59,21z M346.53,20.34h3.14c-0.18-0.91-0.73-1.42-1.55-1.42
				C347.22,18.92,346.7,19.46,346.53,20.34z"/>
		</g>
		<g>
			<path class="st8" d="M208.69,24.56h-1.92l-5.2-6.85l-0.01,6.85h-2.04V14.31h1.91l5.21,6.85v-6.85h2.05V24.56z"/>
			<path class="st8" d="M217.46,21c0,0.22-0.01,0.48-0.04,0.64h-5.03c0.21,1.03,0.92,1.47,1.82,1.47c0.62,0,1.28-0.25,1.79-0.68
				l1.12,1.23c-0.81,0.74-1.83,1.08-3.02,1.08c-2.18,0-3.68-1.48-3.68-3.71s1.46-3.76,3.59-3.76
				C216.05,17.27,217.45,18.79,217.46,21z M212.39,20.34h3.14c-0.18-0.91-0.73-1.42-1.55-1.42
				C213.09,18.92,212.56,19.46,212.39,20.34z"/>
			<path class="st8" d="M225.67,21.54c0,2.24-1.58,3.21-3.35,3.21c-1.78,0-3.36-0.97-3.36-3.21v-4.07h1.91v3.9
				c0,1.14,0.62,1.6,1.45,1.6c0.82,0,1.45-0.46,1.45-1.6v-3.9h1.9V21.54z"/>
			<path class="st8" d="M232.77,19.16h-2.57v2.59c0,0.89,0.47,1.21,1.06,1.21c0.45,0,0.94-0.23,1.33-0.46l0.7,1.49
				c-0.62,0.42-1.34,0.75-2.35,0.75c-1.76,0-2.66-1-2.66-2.83v-2.75h-1.37v-1.7h1.37v-2.11h1.91v2.11h2.57V19.16z"/>
			<path class="st8" d="M239.3,17.43l-0.29,1.9c-0.31-0.14-0.77-0.23-1.16-0.23c-0.89,0-1.49,0.54-1.49,1.6v3.87h-1.91v-7.1h1.85
				v0.78c0.45-0.67,1.13-0.97,2-0.97C238.72,17.27,239.04,17.33,239.3,17.43z"/>
			<path class="st8" d="M247.35,24.56h-1.87v-0.78c-0.46,0.57-1.15,0.97-2.12,0.97c-1.96,0-3.44-1.6-3.44-3.74s1.48-3.74,3.44-3.74
				c0.97,0,1.66,0.4,2.12,0.97v-0.78h1.87V24.56z M241.88,21.01c0,1.08,0.71,1.96,1.83,1.96c1.09,0,1.83-0.83,1.83-1.96
				s-0.74-1.96-1.83-1.96C242.59,19.05,241.88,19.93,241.88,21.01z"/>
			<path class="st8" d="M251.27,24.56h-1.91V14.01h1.91V24.56z"/>
		</g>
		<g>
			<path class="st8" d="M433.24,19.43c0,3.06-2.23,5.32-5.39,5.32s-5.38-2.26-5.38-5.32s2.23-5.32,5.38-5.32
				S433.24,16.37,433.24,19.43z M424.59,19.43c0,1.99,1.37,3.35,3.25,3.35c1.89,0,3.25-1.36,3.25-3.35s-1.36-3.35-3.25-3.35
				C425.96,16.08,424.59,17.44,424.59,19.43z"/>
			<path class="st8" d="M439.76,17.43l-0.29,1.9c-0.31-0.14-0.77-0.23-1.16-0.23c-0.89,0-1.49,0.54-1.49,1.6v3.87h-1.91v-7.1h1.85
				v0.78c0.45-0.67,1.13-0.97,2-0.97C439.18,17.27,439.5,17.33,439.76,17.43z"/>
			<path class="st8" d="M447.81,24.56h-1.87v-0.78c-0.46,0.57-1.15,0.97-2.12,0.97c-1.96,0-3.44-1.6-3.44-3.74s1.48-3.74,3.44-3.74
				c0.97,0,1.66,0.4,2.12,0.97v-0.78h1.87V24.56z M442.34,21.01c0,1.08,0.71,1.96,1.83,1.96c1.09,0,1.83-0.83,1.83-1.96
				s-0.74-1.96-1.83-1.96C443.05,19.05,442.34,19.93,442.34,21.01z"/>
			<path class="st8" d="M456.53,20.04v4.52h-1.91v-3.9c0-1.03-0.51-1.59-1.38-1.59c-0.82,0-1.5,0.53-1.5,1.6v3.89h-1.91v-7.1h1.86
				v0.83c0.51-0.75,1.28-1.03,2.09-1.03C455.38,17.27,456.53,18.39,456.53,20.04z"/>
			<path class="st8" d="M463.5,18.26v-0.79h1.88v6.51c0,2.28-1.49,3.65-3.83,3.65c-1.12,0-2.31-0.29-3.11-0.86l0.68-1.56
				c0.71,0.47,1.49,0.73,2.34,0.73c1.19,0,2.02-0.66,2.02-1.88v-0.5c-0.48,0.59-1.2,0.96-2.18,0.96c-1.73,0-3.27-1.44-3.27-3.62
				c0-2.18,1.54-3.63,3.27-3.63C462.29,17.27,463.01,17.65,463.5,18.26z M460,20.9c0,1.03,0.7,1.86,1.79,1.86
				c1.06,0,1.78-0.81,1.78-1.86c0-1.06-0.72-1.87-1.78-1.87C460.69,19.03,460,19.87,460,20.9z"/>
			<path class="st8" d="M473.98,21c0,0.22-0.01,0.48-0.04,0.64h-5.03c0.21,1.03,0.92,1.47,1.82,1.47c0.62,0,1.28-0.25,1.79-0.68
				l1.12,1.23c-0.81,0.74-1.83,1.08-3.02,1.08c-2.18,0-3.68-1.48-3.68-3.71s1.46-3.76,3.59-3.76
				C472.57,17.27,473.97,18.79,473.98,21z M468.92,20.34h3.14c-0.18-0.91-0.73-1.42-1.55-1.42
				C469.61,18.92,469.08,19.46,468.92,20.34z"/>
		</g>
		<g>
			<path class="st8" d="M548.26,15.69l-1.47,1.44c-0.58-0.67-1.43-1.08-2.48-1.08c-1.88,0-3.24,1.38-3.24,3.38
				c0,2.09,1.43,3.41,3.2,3.41c1.67,0,2.64-0.81,2.92-2.26h-2.61v-1.71h4.72c0.02,0.2,0.03,0.39,0.03,0.58c0,3.11-2.1,5.3-5.01,5.3
				c-2.84,0-5.36-2-5.36-5.31c0-3.1,2.26-5.32,5.41-5.32C546,14.12,547.35,14.7,548.26,15.69z"/>
			<path class="st8" d="M555.85,17.43l-0.29,1.9c-0.31-0.14-0.77-0.23-1.16-0.23c-0.89,0-1.49,0.54-1.49,1.6v3.87H551v-7.1h1.85
				v0.78c0.45-0.67,1.13-0.97,2-0.97C555.27,17.27,555.59,17.33,555.85,17.43z"/>
			<path class="st8" d="M563.51,21c0,0.22-0.01,0.48-0.04,0.64h-5.03c0.21,1.03,0.92,1.47,1.82,1.47c0.62,0,1.28-0.25,1.79-0.68
				l1.12,1.23c-0.81,0.74-1.83,1.08-3.02,1.08c-2.18,0-3.68-1.48-3.68-3.71s1.46-3.76,3.59-3.76
				C562.11,17.27,563.51,18.79,563.51,21z M558.45,20.34h3.14c-0.18-0.91-0.73-1.42-1.55-1.42
				C559.15,18.92,558.62,19.46,558.45,20.34z"/>
			<path class="st8" d="M571.67,21c0,0.22-0.01,0.48-0.04,0.64h-5.03c0.21,1.03,0.92,1.47,1.82,1.47c0.62,0,1.28-0.25,1.79-0.68
				l1.12,1.23c-0.81,0.74-1.83,1.08-3.02,1.08c-2.18,0-3.68-1.48-3.68-3.71s1.46-3.76,3.59-3.76
				C570.27,17.27,571.66,18.79,571.67,21z M566.61,20.34h3.14c-0.18-0.91-0.73-1.42-1.55-1.42
				C567.31,18.92,566.78,19.46,566.61,20.34z"/>
			<path class="st8" d="M579.94,20.04v4.52h-1.91v-3.9c0-1.03-0.51-1.59-1.38-1.59c-0.82,0-1.5,0.53-1.5,1.6v3.89h-1.91v-7.1h1.86
				v0.83c0.51-0.75,1.28-1.03,2.09-1.03C578.79,17.27,579.94,18.39,579.94,20.04z"/>
		</g>
		<g>
			<path class="st8" d="M667,24.56h-2.04v-7.74l-2.54,6.75h-2.16l-2.53-6.69v7.68h-2.04V14.31h3l2.67,6.92l2.66-6.92h3V24.56z"/>
			<path class="st8" d="M671.33,15.14c0,0.69-0.53,1.22-1.22,1.22s-1.22-0.53-1.22-1.22s0.53-1.23,1.22-1.23
				S671.33,14.45,671.33,15.14z M671.08,24.56h-1.91v-7.1h1.91V24.56z"/>
			<path class="st8" d="M679.79,20.04v4.52h-1.91v-3.9c0-1.03-0.51-1.59-1.38-1.59c-0.82,0-1.5,0.53-1.5,1.6v3.89h-1.91v-7.1h1.86
				v0.83c0.5-0.75,1.28-1.03,2.09-1.03C678.64,17.27,679.79,18.39,679.79,20.04z"/>
			<path class="st8" d="M686.82,19.16h-2.57v2.59c0,0.89,0.47,1.21,1.06,1.21c0.45,0,0.94-0.23,1.33-0.46l0.7,1.49
				c-0.62,0.42-1.34,0.75-2.35,0.75c-1.76,0-2.66-1-2.66-2.83v-2.75h-1.37v-1.7h1.37v-2.11h1.91v2.11h2.57V19.16z"/>
		</g>
		<g>
			<path class="st8" d="M774.53,14.31c2.45,0,3.76,1.16,3.76,3.12c0,1.68-1.17,2.83-3.14,3.02l3.16,4.11h-2.48l-2.99-4.08h-0.6v4.08
				h-2.04V14.31H774.53z M772.24,16.19v2.51h2.26c1.11,0,1.69-0.41,1.69-1.27c0-0.85-0.61-1.24-1.69-1.24H772.24z"/>
			<path class="st8" d="M786.28,21c0,0.22-0.01,0.48-0.04,0.64h-5.03c0.21,1.03,0.92,1.47,1.82,1.47c0.62,0,1.28-0.25,1.79-0.68
				l1.12,1.23c-0.81,0.74-1.83,1.08-3.03,1.08c-2.18,0-3.68-1.48-3.68-3.71s1.46-3.76,3.59-3.76
				C784.88,17.27,786.28,18.79,786.28,21z M781.22,20.34h3.14c-0.18-0.91-0.72-1.42-1.54-1.42
				C781.92,18.92,781.39,19.46,781.22,20.34z"/>
			<path class="st8" d="M792.93,18.2v-4.19h1.9v10.55h-1.87v-0.78c-0.46,0.57-1.15,0.97-2.12,0.97c-1.96,0-3.43-1.6-3.43-3.74
				s1.48-3.74,3.43-3.74C791.79,17.27,792.46,17.65,792.93,18.2z M789.36,21.01c0,1.08,0.71,1.96,1.83,1.96
				c1.09,0,1.83-0.83,1.83-1.96s-0.74-1.96-1.83-1.96C790.07,19.05,789.36,19.93,789.36,21.01z"/>
		</g>
		<g>
			<path class="st8" d="M876.97,20.52v4.04h-2.04v-4.05l-3.95-6.2h2.4l2.58,4.35l2.58-4.35h2.33L876.97,20.52z"/>
			<path class="st8" d="M887.13,21c0,0.22-0.01,0.48-0.04,0.64h-5.03c0.21,1.03,0.92,1.47,1.82,1.47c0.62,0,1.28-0.25,1.79-0.68
				l1.12,1.23c-0.8,0.74-1.83,1.08-3.02,1.08c-2.17,0-3.68-1.48-3.68-3.71s1.46-3.76,3.59-3.76C885.73,17.27,887.12,18.79,887.13,21
				z M882.07,20.34h3.14c-0.18-0.91-0.73-1.42-1.55-1.42C882.77,18.92,882.24,19.46,882.07,20.34z"/>
			<path class="st8" d="M890.6,24.56h-1.91V14.01h1.91V24.56z"/>
			<path class="st8" d="M894.52,24.56h-1.91V14.01h1.91V24.56z"/>
			<path class="st8" d="M903.77,21.01c0,2.14-1.63,3.74-3.85,3.74c-2.21,0-3.83-1.6-3.83-3.74s1.62-3.74,3.83-3.74
				C902.13,17.27,903.77,18.87,903.77,21.01z M898.04,21.01c0,1.15,0.81,1.96,1.88,1.96s1.89-0.81,1.89-1.96s-0.81-1.96-1.89-1.96
				S898.04,19.86,898.04,21.01z"/>
			<path class="st8" d="M913.13,22.44l1.52-4.98h2l-2.4,7.1h-2.18l-1.58-4.8l-1.56,4.8h-2.17l-2.4-7.1h2.04l1.52,4.96l1.59-4.96
				h2.01L913.13,22.44z"/>
		</g>
		<g>
			<path class="st8" d="M969.97,24.56h-7.46V14.31h2.04v8.34h5.42V24.56z"/>
			<path class="st8" d="M973.37,15.14c0,0.69-0.54,1.22-1.22,1.22s-1.22-0.53-1.22-1.22s0.53-1.23,1.22-1.23
				S973.37,14.45,973.37,15.14z M973.11,24.56h-1.91v-7.1h1.91V24.56z"/>
			<path class="st8" d="M980.14,18.26v-0.79h1.88v6.51c0,2.28-1.49,3.65-3.83,3.65c-1.12,0-2.31-0.29-3.11-0.86l0.68-1.56
				c0.71,0.47,1.49,0.73,2.34,0.73c1.19,0,2.02-0.66,2.02-1.88v-0.5c-0.48,0.59-1.2,0.96-2.18,0.96c-1.73,0-3.27-1.44-3.27-3.62
				c0-2.18,1.54-3.63,3.27-3.63C978.94,17.27,979.66,17.65,980.14,18.26z M976.64,20.9c0,1.03,0.7,1.86,1.79,1.86
				c1.06,0,1.78-0.81,1.78-1.86c0-1.06-0.72-1.87-1.78-1.87C977.34,19.03,976.64,19.87,976.64,20.9z"/>
			<path class="st8" d="M985.94,18.23c0.51-0.7,1.26-0.95,2.04-0.95c1.61,0,2.76,1.12,2.76,2.77v4.52h-1.91v-3.9
				c0-1.03-0.51-1.59-1.38-1.59c-0.82,0-1.5,0.53-1.5,1.6v3.89h-1.91V14.01h1.91V18.23z"/>
			<path class="st8" d="M997.76,19.16h-2.57v2.59c0,0.89,0.47,1.21,1.06,1.21c0.45,0,0.95-0.23,1.33-0.46l0.7,1.49
				c-0.62,0.42-1.34,0.75-2.35,0.75c-1.76,0-2.66-1-2.66-2.83v-2.75h-1.37v-1.7h1.37v-2.11h1.91v2.11h2.57V19.16z"/>
			<path class="st8" d="M1003.53,21.5h-4.33v-1.67h4.33V21.5z"/>
			<path class="st8" d="M1012.77,21.01c0,2.13-1.48,3.74-3.43,3.74c-0.98,0-1.66-0.4-2.12-0.97v0.78h-1.87V14.01h1.9v4.19
				c0.46-0.56,1.13-0.93,2.08-0.93C1011.29,17.27,1012.77,18.88,1012.77,21.01z M1007.15,21.01c0,1.12,0.74,1.96,1.82,1.96
				c1.13,0,1.83-0.87,1.83-1.96s-0.7-1.96-1.83-1.96C1007.89,19.05,1007.15,19.89,1007.15,21.01z"/>
			<path class="st8" d="M1019.18,17.43l-0.29,1.9c-0.31-0.14-0.77-0.23-1.16-0.23c-0.89,0-1.49,0.54-1.49,1.6v3.87h-1.91v-7.1h1.85
				v0.78c0.45-0.67,1.13-0.97,2-0.97C1018.59,17.27,1018.92,17.33,1019.18,17.43z"/>
			<path class="st8" d="M1027.48,21.01c0,2.14-1.63,3.74-3.85,3.74c-2.21,0-3.83-1.6-3.83-3.74s1.62-3.74,3.83-3.74
				C1025.84,17.27,1027.48,18.87,1027.48,21.01z M1021.75,21.01c0,1.15,0.81,1.96,1.88,1.96s1.89-0.81,1.89-1.96
				s-0.81-1.96-1.89-1.96S1021.75,19.86,1021.75,21.01z"/>
			<path class="st8" d="M1036.84,22.44l1.52-4.98h2l-2.4,7.1h-2.18l-1.58-4.8l-1.56,4.8h-2.17l-2.4-7.1h2.04l1.52,4.96l1.59-4.96
				h2.01L1036.84,22.44z"/>
			<path class="st8" d="M1048.28,20.04v4.52h-1.91v-3.9c0-1.03-0.51-1.59-1.38-1.59c-0.82,0-1.5,0.53-1.5,1.6v3.89h-1.91v-7.1h1.86
				v0.83c0.51-0.75,1.28-1.03,2.09-1.03C1047.13,17.27,1048.28,18.39,1048.28,20.04z"/>
		</g>
		<g>
			<path class="st8" d="M1097.16,20.81v3.75h-2.04V14.31h4.18c2.45,0,3.75,1.27,3.75,3.26c0,1.97-1.3,3.24-3.74,3.24H1097.16z
				 M1097.16,16.19v2.75h2.1c1.11,0,1.69-0.45,1.69-1.38c0-0.92-0.58-1.38-1.69-1.38H1097.16z"/>
			<path class="st8" d="M1111.29,21.54c0,2.24-1.58,3.21-3.35,3.21c-1.78,0-3.36-0.97-3.36-3.21v-4.07h1.91v3.9
				c0,1.14,0.62,1.6,1.45,1.6c0.82,0,1.45-0.46,1.45-1.6v-3.9h1.9V21.54z"/>
			<path class="st8" d="M1118.09,17.43l-0.29,1.9c-0.32-0.14-0.77-0.23-1.16-0.23c-0.89,0-1.49,0.54-1.49,1.6v3.87h-1.91v-7.1h1.85
				v0.78c0.45-0.67,1.13-0.97,2-0.97C1117.5,17.27,1117.82,17.33,1118.09,17.43z"/>
			<path class="st8" d="M1126.82,21.01c0,2.13-1.48,3.74-3.44,3.74c-0.95,0-1.63-0.37-2.09-0.92v3.67h-1.9V17.46h1.87v0.78
				c0.46-0.58,1.14-0.97,2.12-0.97C1125.34,17.27,1126.82,18.88,1126.82,21.01z M1121.2,21.01c0,1.12,0.74,1.96,1.82,1.96
				c1.13,0,1.83-0.87,1.83-1.96s-0.7-1.96-1.83-1.96C1121.94,19.05,1121.2,19.89,1121.2,21.01z"/>
			<path class="st8" d="M1130.29,24.56h-1.91V14.01h1.91V24.56z"/>
			<path class="st8" d="M1138.89,21c0,0.22-0.01,0.48-0.04,0.64h-5.03c0.21,1.03,0.92,1.47,1.82,1.47c0.62,0,1.28-0.25,1.79-0.68
				l1.12,1.23c-0.81,0.74-1.83,1.08-3.03,1.08c-2.18,0-3.68-1.48-3.68-3.71s1.46-3.76,3.59-3.76
				C1137.49,17.27,1138.89,18.79,1138.89,21z M1133.83,20.34h3.14c-0.18-0.91-0.72-1.42-1.54-1.42
				C1134.53,18.92,1134,19.46,1133.83,20.34z"/>
		</g>
	</g>
	<g>
		<circle class="st6" cx="336.74" cy="103.35" r="33.48"/>
		<g>
			<path class="st0" d="M195.6,152.11c-0.81-0.5-1.79-0.87-2.91-0.87c-1.15,0-1.96,0.45-1.96,1.23c0,0.75,0.89,0.98,2.12,1.19
				l0.58,0.1c1.83,0.3,3.27,1.08,3.27,2.87c0,2.26-1.99,3.34-4.2,3.34c-1.55,0-3.22-0.45-4.32-1.34l1.06-1.65
				c0.74,0.59,1.95,1.11,3.27,1.11c1.14,0,2.01-0.45,2.01-1.24c0-0.71-0.75-0.97-2.18-1.2l-0.65-0.1c-1.81-0.29-3.13-1.08-3.13-2.94
				c0-2.14,1.9-3.25,4.09-3.25c1.44,0,2.63,0.32,3.92,1.09L195.6,152.11z"/>
			<path class="st0" d="M205.07,156.22c0,0.22-0.01,0.48-0.04,0.64H200c0.21,1.03,0.92,1.47,1.82,1.47c0.62,0,1.28-0.25,1.79-0.68
				l1.12,1.23c-0.81,0.74-1.83,1.08-3.02,1.08c-2.18,0-3.68-1.48-3.68-3.71s1.46-3.76,3.59-3.76
				C203.66,152.49,205.06,154.01,205.07,156.22z M200.01,155.56h3.14c-0.18-0.91-0.73-1.42-1.55-1.42
				C200.7,154.14,200.17,154.68,200.01,155.56z"/>
			<path class="st0" d="M212.81,153.83l-1.38,1.15c-0.43-0.46-0.89-0.71-1.52-0.71c-0.99,0-1.78,0.78-1.78,1.96
				c0,1.19,0.78,1.96,1.77,1.96c0.62,0,1.14-0.28,1.55-0.72l1.36,1.16c-0.67,0.86-1.66,1.33-2.85,1.33c-2.26,0-3.78-1.58-3.78-3.74
				c0-2.15,1.52-3.74,3.78-3.74C211.15,152.49,212.16,152.97,212.81,153.83z"/>
			<path class="st0" d="M221.28,156.23c0,2.14-1.63,3.74-3.85,3.74c-2.2,0-3.83-1.6-3.83-3.74s1.63-3.74,3.83-3.74
				C219.65,152.49,221.28,154.09,221.28,156.23z M215.55,156.23c0,1.15,0.81,1.96,1.88,1.96s1.89-0.81,1.89-1.96
				s-0.81-1.96-1.89-1.96S215.55,155.08,215.55,156.23z"/>
			<path class="st0" d="M229.55,155.26v4.52h-1.91v-3.9c0-1.03-0.51-1.59-1.38-1.59c-0.82,0-1.5,0.53-1.5,1.6v3.89h-1.91v-7.1h1.86
				v0.83c0.51-0.75,1.28-1.03,2.09-1.03C228.4,152.49,229.55,153.61,229.55,155.26z"/>
			<path class="st0" d="M236.58,153.42v-4.19h1.9v10.55h-1.87v-0.78c-0.46,0.57-1.15,0.97-2.12,0.97c-1.96,0-3.44-1.6-3.44-3.74
				s1.48-3.74,3.44-3.74C235.44,152.49,236.12,152.86,236.58,153.42z M233.01,156.23c0,1.08,0.71,1.96,1.83,1.96
				c1.09,0,1.83-0.83,1.83-1.96s-0.74-1.96-1.83-1.96C233.72,154.27,233.01,155.14,233.01,156.23z"/>
			<path class="st0" d="M247.48,159.78h-1.87v-0.78c-0.46,0.57-1.15,0.97-2.12,0.97c-1.96,0-3.44-1.6-3.44-3.74s1.48-3.74,3.44-3.74
				c0.97,0,1.66,0.4,2.12,0.97v-0.78h1.87V159.78z M242.01,156.23c0,1.08,0.71,1.96,1.83,1.96c1.09,0,1.83-0.83,1.83-1.96
				s-0.74-1.96-1.83-1.96C242.72,154.27,242.01,155.14,242.01,156.23z"/>
			<path class="st0" d="M254.33,152.64l-0.29,1.9c-0.31-0.14-0.77-0.23-1.16-0.23c-0.89,0-1.49,0.54-1.49,1.6v3.87h-1.91v-7.1h1.85
				v0.78c0.45-0.67,1.13-0.97,2-0.97C253.75,152.49,254.07,152.55,254.33,152.64z"/>
			<path class="st0" d="M257.72,162.74h-2.09l2.48-4.47l-3.06-5.59h2.17l1.95,3.65l1.89-3.65h2.09L257.72,162.74z"/>
		</g>
		<g>
			<path class="st0" d="M311.52,156.03v3.75h-2.04v-10.25h4.18c2.45,0,3.75,1.27,3.75,3.26c0,1.97-1.3,3.24-3.74,3.24H311.52z
				 M311.52,151.41v2.75h2.1c1.11,0,1.69-0.45,1.69-1.38c0-0.92-0.58-1.38-1.69-1.38H311.52z"/>
			<path class="st0" d="M323.84,152.64l-0.29,1.9c-0.31-0.14-0.77-0.23-1.16-0.23c-0.89,0-1.49,0.54-1.49,1.6v3.87h-1.91v-7.1h1.85
				v0.78c0.45-0.67,1.13-0.97,2-0.97C323.25,152.49,323.58,152.55,323.84,152.64z"/>
			<path class="st0" d="M327.31,150.36c0,0.69-0.53,1.22-1.22,1.22s-1.22-0.53-1.22-1.22s0.53-1.23,1.22-1.23
				S327.31,149.67,327.31,150.36z M327.05,159.78h-1.91v-7.1h1.91V159.78z"/>
			<path class="st0" d="M340.56,155.26v4.52h-1.9v-3.9c0-1.03-0.52-1.59-1.38-1.59c-0.82,0-1.5,0.53-1.5,1.6v3.89h-1.91v-3.9
				c0-1.03-0.51-1.59-1.38-1.59c-0.82,0-1.5,0.53-1.5,1.6v3.89h-1.91v-7.1h1.86v0.83c0.51-0.75,1.28-1.03,2.09-1.03
				c1.03,0,1.87,0.46,2.34,1.22c0.55-0.9,1.48-1.22,2.41-1.22C339.43,152.49,340.56,153.61,340.56,155.26z"/>
			<path class="st0" d="M349.49,159.78h-1.87v-0.78c-0.46,0.57-1.15,0.97-2.12,0.97c-1.96,0-3.44-1.6-3.44-3.74s1.48-3.74,3.44-3.74
				c0.97,0,1.66,0.4,2.12,0.97v-0.78h1.87V159.78z M344.02,156.23c0,1.08,0.71,1.96,1.83,1.96c1.09,0,1.83-0.83,1.83-1.96
				s-0.74-1.96-1.83-1.96C344.73,154.27,344.02,155.14,344.02,156.23z"/>
			<path class="st0" d="M356.35,152.64l-0.29,1.9c-0.31-0.14-0.77-0.23-1.16-0.23c-0.89,0-1.49,0.54-1.49,1.6v3.87h-1.91v-7.1h1.85
				v0.78c0.45-0.67,1.13-0.97,2-0.97C355.76,152.49,356.09,152.55,356.35,152.64z"/>
			<path class="st0" d="M359.73,162.74h-2.09l2.48-4.47l-3.06-5.59h2.17l1.95,3.65l1.89-3.65h2.09L359.73,162.74z"/>
		</g>
		<g>
			<path class="st0" d="M430.6,159.78h-2.48l-2.2-7.32l-2.2,7.32h-2.48l-3.06-10.25h2.12l2.2,7.87l2.29-7.87h2.26l2.29,7.87
				l2.2-7.87h2.09L430.6,159.78z"/>
			<path class="st0" d="M441.09,159.78h-1.87v-0.78c-0.46,0.57-1.15,0.97-2.12,0.97c-1.96,0-3.44-1.6-3.44-3.74s1.48-3.74,3.44-3.74
				c0.97,0,1.66,0.4,2.12,0.97v-0.78h1.87V159.78z M435.62,156.23c0,1.08,0.71,1.96,1.83,1.96c1.09,0,1.83-0.83,1.83-1.96
				s-0.74-1.96-1.83-1.96C436.33,154.27,435.62,155.14,435.62,156.23z"/>
			<path class="st0" d="M447.94,152.64l-0.29,1.9c-0.31-0.14-0.77-0.23-1.16-0.23c-0.89,0-1.49,0.54-1.49,1.6v3.87h-1.91v-7.1h1.85
				v0.78c0.45-0.67,1.13-0.97,2-0.97C447.36,152.49,447.68,152.55,447.94,152.64z"/>
			<path class="st0" d="M455.96,155.26v4.52h-1.91v-3.9c0-1.03-0.51-1.59-1.38-1.59c-0.82,0-1.5,0.53-1.5,1.6v3.89h-1.91v-7.1h1.86
				v0.83c0.51-0.75,1.28-1.03,2.09-1.03C454.81,152.49,455.96,153.61,455.96,155.26z"/>
			<path class="st0" d="M460.07,150.36c0,0.69-0.53,1.22-1.22,1.22s-1.22-0.53-1.22-1.22s0.53-1.23,1.22-1.23
				S460.07,149.67,460.07,150.36z M459.82,159.78h-1.91v-7.1h1.91V159.78z"/>
			<path class="st0" d="M468.53,155.26v4.52h-1.91v-3.9c0-1.03-0.51-1.59-1.38-1.59c-0.82,0-1.5,0.53-1.5,1.6v3.89h-1.91v-7.1h1.86
				v0.83c0.51-0.75,1.28-1.03,2.09-1.03C467.38,152.49,468.53,153.61,468.53,155.26z"/>
			<path class="st0" d="M475.5,153.47v-0.79h1.88v6.51c0,2.28-1.49,3.65-3.83,3.65c-1.12,0-2.31-0.29-3.11-0.86l0.68-1.56
				c0.71,0.47,1.49,0.73,2.34,0.73c1.19,0,2.02-0.66,2.02-1.88v-0.5c-0.48,0.59-1.2,0.96-2.18,0.96c-1.73,0-3.27-1.44-3.27-3.62
				c0-2.18,1.54-3.63,3.27-3.63C474.29,152.49,475.02,152.87,475.5,153.47z M472,156.12c0,1.03,0.7,1.86,1.79,1.86
				c1.06,0,1.78-0.81,1.78-1.86c0-1.06-0.72-1.87-1.78-1.87C472.7,154.25,472,155.08,472,156.12z"/>
		</g>
		<g>
			<path class="st0" d="M541.08,151.63l-1.76,1.08c-0.58-0.89-1.51-1.41-2.65-1.41c-1.86,0-3.24,1.36-3.24,3.35
				c0.01,2.06,1.43,3.35,3.24,3.35c1.14,0,2.06-0.51,2.67-1.41l1.67,1.2c-0.91,1.33-2.45,2.17-4.33,2.17
				c-3.16,0-5.38-2.23-5.38-5.32s2.23-5.32,5.38-5.32C538.57,149.33,540.24,150.2,541.08,151.63z"/>
			<path class="st0" d="M549.74,156.23c0,2.14-1.63,3.74-3.85,3.74c-2.2,0-3.83-1.6-3.83-3.74s1.63-3.74,3.83-3.74
				C548.11,152.49,549.74,154.09,549.74,156.23z M544.01,156.23c0,1.15,0.81,1.96,1.88,1.96s1.89-0.81,1.89-1.96
				s-0.81-1.96-1.89-1.96S544.01,155.08,544.01,156.23z"/>
			<path class="st0" d="M558.01,155.26v4.52h-1.91v-3.9c0-1.03-0.51-1.59-1.38-1.59c-0.82,0-1.5,0.53-1.5,1.6v3.89h-1.91v-7.1h1.86
				v0.83c0.51-0.75,1.28-1.03,2.09-1.03C556.86,152.49,558.01,153.61,558.01,155.26z"/>
			<path class="st0" d="M564.55,154.38h-2.2v5.4h-1.91v-5.4h-1.33v-1.7h1.33v-0.88c0-1.66,0.89-2.75,2.54-2.75
				c0.97,0,1.64,0.28,2.18,0.64l-0.76,1.49c-0.35-0.19-0.77-0.34-1.22-0.34c-0.55,0-0.83,0.34-0.83,1v0.86h2.2V154.38z"/>
			<path class="st0" d="M568.2,150.36c0,0.69-0.53,1.22-1.22,1.22s-1.22-0.53-1.22-1.22s0.53-1.23,1.22-1.23
				S568.2,149.67,568.2,150.36z M567.94,159.78h-1.91v-7.1h1.91V159.78z"/>
			<path class="st0" d="M574.79,152.64l-0.29,1.9c-0.31-0.14-0.77-0.23-1.16-0.23c-0.89,0-1.49,0.54-1.49,1.6v3.87h-1.91v-7.1h1.85
				v0.78c0.45-0.67,1.13-0.97,2-0.97C574.21,152.49,574.53,152.55,574.79,152.64z"/>
			<path class="st0" d="M587.6,155.26v4.52h-1.9v-3.9c0-1.03-0.52-1.59-1.38-1.59c-0.82,0-1.5,0.53-1.5,1.6v3.89h-1.91v-3.9
				c0-1.03-0.51-1.59-1.38-1.59c-0.82,0-1.5,0.53-1.5,1.6v3.89h-1.91v-7.1h1.86v0.83c0.51-0.75,1.28-1.03,2.09-1.03
				c1.03,0,1.87,0.46,2.34,1.22c0.55-0.9,1.48-1.22,2.41-1.22C586.47,152.49,587.6,153.61,587.6,155.26z"/>
		</g>
		<g>
			<path class="st0" d="M632.01,159.78h-2.04v-10.25h2.04V159.78z"/>
			<path class="st0" d="M640.88,155.26v4.52h-1.91v-3.9c0-1.03-0.51-1.59-1.38-1.59c-0.82,0-1.5,0.53-1.5,1.6v3.89h-1.91v-7.1h1.86
				v0.83c0.5-0.75,1.28-1.03,2.09-1.03C639.73,152.49,640.88,153.61,640.88,155.26z"/>
			<path class="st0" d="M647.42,154.38h-2.2v5.4h-1.91v-5.4h-1.33v-1.7h1.33v-0.88c0-1.66,0.89-2.75,2.54-2.75
				c0.97,0,1.64,0.28,2.18,0.64l-0.76,1.49c-0.35-0.19-0.77-0.34-1.22-0.34c-0.55,0-0.83,0.34-0.83,1v0.86h2.2V154.38z"/>
			<path class="st0" d="M655.87,156.23c0,2.14-1.63,3.74-3.84,3.74c-2.2,0-3.83-1.6-3.83-3.74s1.63-3.74,3.83-3.74
				C654.23,152.49,655.87,154.09,655.87,156.23z M650.14,156.23c0,1.15,0.8,1.96,1.88,1.96s1.89-0.81,1.89-1.96
				s-0.81-1.96-1.89-1.96S650.14,155.08,650.14,156.23z"/>
			<path class="st0" d="M662.27,152.64l-0.29,1.9c-0.31-0.14-0.77-0.23-1.16-0.23c-0.89,0-1.49,0.54-1.49,1.6v3.87h-1.91v-7.1h1.85
				v0.78c0.45-0.67,1.13-0.97,2-0.97C661.69,152.49,662.01,152.55,662.27,152.64z"/>
			<path class="st0" d="M675.08,155.26v4.52h-1.9v-3.9c0-1.03-0.52-1.59-1.38-1.59c-0.82,0-1.5,0.53-1.5,1.6v3.89h-1.91v-3.9
				c0-1.03-0.51-1.59-1.38-1.59c-0.82,0-1.5,0.53-1.5,1.6v3.89h-1.91v-7.1h1.86v0.83c0.5-0.75,1.28-1.03,2.09-1.03
				c1.03,0,1.87,0.46,2.34,1.22c0.55-0.9,1.48-1.22,2.41-1.22C673.95,152.49,675.08,153.61,675.08,155.26z"/>
			<path class="st0" d="M684.01,159.78h-1.87v-0.78c-0.46,0.57-1.15,0.97-2.12,0.97c-1.96,0-3.43-1.6-3.43-3.74s1.48-3.74,3.43-3.74
				c0.97,0,1.66,0.4,2.12,0.97v-0.78h1.87V159.78z M678.54,156.23c0,1.08,0.71,1.96,1.83,1.96c1.09,0,1.83-0.83,1.83-1.96
				s-0.74-1.96-1.83-1.96C679.25,154.27,678.54,155.14,678.54,156.23z"/>
			<path class="st0" d="M691.17,154.38h-2.57v2.59c0,0.89,0.47,1.21,1.06,1.21c0.45,0,0.95-0.23,1.33-0.46l0.7,1.49
				c-0.62,0.42-1.34,0.75-2.35,0.75c-1.76,0-2.66-1-2.66-2.83v-2.75h-1.37v-1.7h1.37v-2.11h1.91v2.11h2.57V154.38z"/>
			<path class="st0" d="M695.02,150.36c0,0.69-0.54,1.22-1.22,1.22s-1.22-0.53-1.22-1.22s0.53-1.23,1.22-1.23
				S695.02,149.67,695.02,150.36z M694.76,159.78h-1.91v-7.1h1.91V159.78z"/>
			<path class="st0" d="M704.01,156.23c0,2.14-1.63,3.74-3.85,3.74c-2.21,0-3.83-1.6-3.83-3.74s1.62-3.74,3.83-3.74
				C702.37,152.49,704.01,154.09,704.01,156.23z M698.28,156.23c0,1.15,0.81,1.96,1.88,1.96s1.89-0.81,1.89-1.96
				s-0.81-1.96-1.89-1.96S698.28,155.08,698.28,156.23z"/>
			<path class="st0" d="M712.27,155.26v4.52h-1.91v-3.9c0-1.03-0.51-1.59-1.38-1.59c-0.82,0-1.5,0.53-1.5,1.6v3.89h-1.91v-7.1h1.86
				v0.83c0.5-0.75,1.28-1.03,2.09-1.03C711.12,152.49,712.27,153.61,712.27,155.26z"/>
		</g>
		<g>
			<path class="st0" d="M754.4,149.52c2.45,0,3.76,1.16,3.76,3.12c0,1.68-1.17,2.83-3.14,3.02l3.16,4.11h-2.48l-2.99-4.08h-0.6v4.08
				h-2.04v-10.25H754.4z M752.11,151.41v2.51h2.26c1.11,0,1.69-0.41,1.69-1.27c0-0.85-0.61-1.24-1.69-1.24H752.11z"/>
			<path class="st0" d="M766.15,156.22c0,0.22-0.01,0.48-0.04,0.64h-5.03c0.21,1.03,0.92,1.47,1.82,1.47c0.62,0,1.28-0.25,1.79-0.68
				l1.12,1.23c-0.81,0.74-1.83,1.08-3.03,1.08c-2.18,0-3.68-1.48-3.68-3.71s1.46-3.76,3.59-3.76
				C764.75,152.49,766.15,154.01,766.15,156.22z M761.09,155.56h3.14c-0.18-0.91-0.72-1.42-1.54-1.42
				C761.79,154.14,761.26,154.68,761.09,155.56z"/>
			<path class="st0" d="M779.21,155.26v4.52h-1.9v-3.9c0-1.03-0.52-1.59-1.38-1.59c-0.82,0-1.5,0.53-1.5,1.6v3.89h-1.91v-3.9
				c0-1.03-0.51-1.59-1.38-1.59c-0.82,0-1.5,0.53-1.5,1.6v3.89h-1.91v-7.1h1.86v0.83c0.51-0.75,1.28-1.03,2.09-1.03
				c1.03,0,1.87,0.46,2.34,1.22c0.55-0.9,1.48-1.22,2.41-1.22C778.09,152.49,779.21,153.61,779.21,155.26z"/>
			<path class="st0" d="M788.4,156.23c0,2.14-1.63,3.74-3.84,3.74c-2.2,0-3.83-1.6-3.83-3.74s1.63-3.74,3.83-3.74
				C786.76,152.49,788.4,154.09,788.4,156.23z M782.67,156.23c0,1.15,0.8,1.96,1.88,1.96s1.89-0.81,1.89-1.96s-0.81-1.96-1.89-1.96
				S782.67,155.08,782.67,156.23z"/>
			<path class="st0" d="M793.89,159.78h-2.2l-2.81-7.1h2.08l1.84,5.08l1.85-5.08h2.01L793.89,159.78z"/>
			<path class="st0" d="M804.19,156.22c0,0.22-0.01,0.48-0.04,0.64h-5.03c0.21,1.03,0.92,1.47,1.82,1.47c0.62,0,1.28-0.25,1.79-0.68
				l1.12,1.23c-0.81,0.74-1.83,1.08-3.03,1.08c-2.18,0-3.68-1.48-3.68-3.71s1.46-3.76,3.59-3.76
				C802.79,152.49,804.19,154.01,804.19,156.22z M799.13,155.56h3.14c-0.18-0.91-0.72-1.42-1.54-1.42
				C799.83,154.14,799.3,154.68,799.13,155.56z"/>
			<path class="st0" d="M810.1,161.24h-2.02l6.22-12.74h2.02L810.1,161.24z"/>
			<path class="st0" d="M752.69,169.21l-1.76,1.08c-0.58-0.89-1.51-1.41-2.65-1.41c-1.86,0-3.24,1.36-3.24,3.35
				c0.01,2.06,1.43,3.35,3.24,3.35c1.13,0,2.06-0.51,2.67-1.41l1.67,1.2c-0.91,1.33-2.45,2.17-4.33,2.17
				c-3.16,0-5.38-2.23-5.38-5.32s2.23-5.32,5.38-5.32C750.18,166.91,751.85,167.77,752.69,169.21z"/>
			<path class="st0" d="M759.15,170.22l-0.29,1.9c-0.31-0.14-0.77-0.23-1.16-0.23c-0.89,0-1.49,0.54-1.49,1.6v3.87h-1.91v-7.1h1.85
				v0.78c0.45-0.67,1.13-0.97,2-0.97C758.56,170.07,758.88,170.13,759.15,170.22z"/>
			<path class="st0" d="M762.62,167.94c0,0.69-0.53,1.22-1.22,1.22s-1.22-0.53-1.22-1.22s0.53-1.23,1.22-1.23
				S762.62,167.25,762.62,167.94z M762.36,177.35h-1.91v-7.1h1.91V177.35z"/>
			<path class="st0" d="M769.52,171.96h-2.57v2.59c0,0.89,0.47,1.21,1.06,1.21c0.45,0,0.95-0.23,1.33-0.46l0.7,1.49
				c-0.62,0.42-1.34,0.75-2.35,0.75c-1.76,0-2.66-1-2.66-2.83v-2.75h-1.37v-1.7h1.37v-2.11h1.91v2.11h2.57V171.96z"/>
			<path class="st0" d="M773.37,167.94c0,0.69-0.54,1.22-1.22,1.22s-1.22-0.53-1.22-1.22s0.53-1.23,1.22-1.23
				S773.37,167.25,773.37,167.94z M773.11,177.35h-1.91v-7.1h1.91V177.35z"/>
			<path class="st0" d="M782.1,177.35h-1.87v-0.78c-0.46,0.57-1.15,0.97-2.12,0.97c-1.96,0-3.43-1.6-3.43-3.74s1.48-3.74,3.43-3.74
				c0.97,0,1.66,0.4,2.12,0.97v-0.78h1.87V177.35z M776.63,173.8c0,1.08,0.71,1.96,1.83,1.96c1.09,0,1.83-0.83,1.83-1.96
				s-0.74-1.96-1.83-1.96C777.35,171.85,776.63,172.72,776.63,173.8z"/>
			<path class="st0" d="M786.02,177.35h-1.91v-10.55h1.91V177.35z"/>
			<path class="st0" d="M797.84,171.41l-1.38,1.15c-0.43-0.46-0.89-0.71-1.52-0.71c-0.99,0-1.78,0.78-1.78,1.96
				c0,1.19,0.78,1.96,1.77,1.96c0.62,0,1.14-0.28,1.55-0.72l1.36,1.16c-0.67,0.86-1.66,1.33-2.85,1.33c-2.26,0-3.78-1.58-3.78-3.74
				c0-2.15,1.52-3.74,3.78-3.74C796.18,170.07,797.18,170.55,797.84,171.41z"/>
			<path class="st0" d="M806.06,177.35h-1.87v-0.78c-0.46,0.57-1.15,0.97-2.12,0.97c-1.96,0-3.43-1.6-3.43-3.74s1.48-3.74,3.43-3.74
				c0.97,0,1.66,0.4,2.12,0.97v-0.78h1.87V177.35z M800.59,173.8c0,1.08,0.71,1.96,1.83,1.96c1.09,0,1.83-0.83,1.83-1.96
				s-0.74-1.96-1.83-1.96C801.3,171.85,800.59,172.72,800.59,173.8z"/>
			<path class="st0" d="M813.16,172.23c-0.56-0.28-1.46-0.57-2.26-0.58c-0.72,0-1.09,0.26-1.09,0.64c0,0.41,0.51,0.51,1.16,0.61
				l0.63,0.1c1.54,0.23,2.4,0.92,2.4,2.12c0,1.46-1.2,2.41-3.26,2.41c-0.97,0-2.23-0.18-3.16-0.83l0.75-1.45
				c0.61,0.4,1.35,0.7,2.42,0.7c0.89,0,1.31-0.25,1.31-0.67c0-0.34-0.36-0.53-1.18-0.65l-0.58-0.08c-1.64-0.23-2.45-0.94-2.45-2.15
				c0-1.46,1.13-2.32,3-2.32c1.14,0,2.02,0.21,2.97,0.67L813.16,172.23z"/>
			<path class="st0" d="M822.07,173.79c0,0.22-0.01,0.48-0.04,0.64H817c0.21,1.03,0.92,1.47,1.82,1.47c0.62,0,1.28-0.25,1.79-0.68
				l1.12,1.23c-0.8,0.74-1.83,1.08-3.02,1.08c-2.17,0-3.68-1.48-3.68-3.71s1.46-3.76,3.59-3.76
				C820.66,170.07,822.06,171.58,822.07,173.79z M817.01,173.14h3.14c-0.18-0.91-0.73-1.42-1.55-1.42
				C817.7,171.71,817.18,172.26,817.01,173.14z"/>
		</g>
		<g>
			<path class="st0" d="M992.28,153.65h4.94v-4.13h2.04v10.25h-2.04v-4.22h-4.94v4.22h-2.04v-10.25h2.04V153.65z"/>
			<path class="st0" d="M1008.03,156.22c0,0.22-0.01,0.48-0.04,0.64h-5.03c0.21,1.03,0.92,1.47,1.82,1.47
				c0.62,0,1.28-0.25,1.79-0.68l1.12,1.23c-0.81,0.74-1.83,1.08-3.03,1.08c-2.18,0-3.68-1.48-3.68-3.71s1.46-3.76,3.59-3.76
				C1006.62,152.49,1008.02,154.01,1008.03,156.22z M1002.96,155.56h3.14c-0.18-0.91-0.72-1.42-1.54-1.42
				C1003.66,154.14,1003.13,154.68,1002.96,155.56z"/>
			<path class="st0" d="M1011.5,159.78h-1.91v-10.55h1.91V159.78z"/>
			<path class="st0" d="M1020.93,156.23c0,2.13-1.48,3.74-3.43,3.74c-0.95,0-1.63-0.37-2.09-0.92v3.67h-1.9v-10.03h1.87v0.78
				c0.46-0.58,1.14-0.97,2.12-0.97C1019.45,152.49,1020.93,154.09,1020.93,156.23z M1015.31,156.23c0,1.12,0.74,1.96,1.82,1.96
				c1.13,0,1.83-0.87,1.83-1.96s-0.7-1.96-1.83-1.96C1016.05,154.27,1015.31,155.1,1015.31,156.23z"/>
		</g>
		<circle class="st5" cx="225.31" cy="103.35" r="33.48"/>
		<circle class="st1" cx="448.16" cy="103.35" r="33.48"/>
		<circle class="st2" cx="559.58" cy="103.35" r="33.48"/>
		<circle class="st3" cx="671.01" cy="103.35" r="33.48"/>
		<circle class="st4" cx="782.43" cy="103.35" r="33.48"/>
		<circle class="st9" cx="893.85" cy="103.35" r="33.48"/>
		<circle class="st7" cx="1005.28" cy="103.35" r="33.48"/>
		<circle class="st10" cx="1116.7" cy="103.35" r="33.48"/>
	</g>
	<g>
		<path class="st8" d="M89.12,96.57c2.39,0,3.89,0.89,3.89,2.84c0,1.03-0.63,1.86-1.49,2.18c0.94,0.31,1.71,1.19,1.71,2.3
			c0,1.97-1.4,2.94-3.86,2.94h-4.44V96.57H89.12z M86.97,98.37v2.4h2.09c1.02,0,1.81-0.21,1.81-1.21c0-0.97-0.81-1.19-1.82-1.19
			H86.97z M86.97,102.56v2.46l2.29,0.01c1.13,0,1.84-0.26,1.84-1.25c0-0.96-0.71-1.22-1.84-1.22H86.97z"/>
		<path class="st8" d="M101.56,103.8c0,2.24-1.58,3.21-3.35,3.21c-1.78,0-3.36-0.97-3.36-3.21v-4.07h1.91v3.9
			c0,1.14,0.62,1.6,1.45,1.6c0.82,0,1.45-0.46,1.45-1.6v-3.9h1.9V103.8z"/>
		<path class="st8" d="M108.65,101.42h-2.57v2.59c0,0.89,0.47,1.21,1.06,1.21c0.45,0,0.94-0.23,1.33-0.46l0.7,1.49
			c-0.62,0.42-1.34,0.75-2.35,0.75c-1.76,0-2.66-1-2.66-2.83v-2.75h-1.37v-1.7h1.37v-2.11h1.91v2.11h2.57V101.42z"/>
		<path class="st8" d="M115.32,101.42h-2.57v2.59c0,0.89,0.47,1.21,1.06,1.21c0.45,0,0.94-0.23,1.33-0.46l0.7,1.49
			c-0.62,0.42-1.34,0.75-2.35,0.75c-1.76,0-2.66-1-2.66-2.83v-2.75h-1.37v-1.7h1.37v-2.11h1.91v2.11h2.57V101.42z"/>
		<path class="st8" d="M124.15,103.27c0,2.14-1.63,3.74-3.85,3.74c-2.2,0-3.83-1.6-3.83-3.74s1.63-3.74,3.83-3.74
			C122.52,99.54,124.15,101.13,124.15,103.27z M118.42,103.27c0,1.15,0.81,1.96,1.88,1.96s1.89-0.81,1.89-1.96s-0.81-1.96-1.89-1.96
			S118.42,102.12,118.42,103.27z"/>
		<path class="st8" d="M132.42,102.3v4.52h-1.91v-3.9c0-1.03-0.51-1.59-1.38-1.59c-0.82,0-1.5,0.53-1.5,1.6v3.89h-1.91v-7.1h1.86
			v0.83c0.51-0.75,1.28-1.03,2.09-1.03C131.27,99.54,132.42,100.66,132.42,102.3z"/>
		<path class="st8" d="M139.46,101.7c-0.56-0.28-1.46-0.57-2.26-0.58c-0.73,0-1.09,0.26-1.09,0.64c0,0.41,0.51,0.51,1.16,0.61
			l0.63,0.1c1.54,0.23,2.4,0.92,2.4,2.12c0,1.46-1.2,2.41-3.26,2.41c-0.97,0-2.23-0.18-3.16-0.83l0.75-1.45
			c0.61,0.4,1.35,0.7,2.42,0.7c0.89,0,1.31-0.25,1.31-0.67c0-0.34-0.36-0.53-1.18-0.65l-0.58-0.08c-1.64-0.23-2.45-0.94-2.45-2.15
			c0-1.46,1.13-2.32,3-2.32c1.14,0,2.02,0.21,2.97,0.67L139.46,101.7z"/>
	</g>
	<g>
		<path class="st8" d="M31.13,250.83h-2.04v-7.74l-2.53,6.75H24.4l-2.53-6.69v7.68h-2.04v-10.25h3l2.67,6.92l2.66-6.92h3V250.83z"/>
		<path class="st8" d="M39.9,247.27c0,0.22-0.01,0.48-0.04,0.64h-5.03c0.21,1.03,0.92,1.47,1.82,1.47c0.62,0,1.28-0.25,1.79-0.68
			l1.12,1.23c-0.81,0.74-1.83,1.08-3.02,1.08c-2.18,0-3.68-1.48-3.68-3.71s1.46-3.76,3.59-3.76
			C38.49,243.54,39.89,245.06,39.9,247.27z M34.84,246.61h3.14c-0.18-0.91-0.73-1.42-1.55-1.42
			C35.54,245.19,35.01,245.73,34.84,246.61z"/>
		<path class="st8" d="M46.5,245.71c-0.56-0.28-1.46-0.57-2.26-0.58c-0.73,0-1.09,0.26-1.09,0.64c0,0.41,0.51,0.51,1.16,0.61
			l0.63,0.1c1.54,0.23,2.4,0.92,2.4,2.12c0,1.46-1.2,2.41-3.26,2.41c-0.97,0-2.23-0.18-3.16-0.83l0.75-1.45
			c0.61,0.4,1.35,0.7,2.42,0.7c0.89,0,1.31-0.25,1.31-0.67c0-0.34-0.36-0.53-1.18-0.65l-0.58-0.08c-1.64-0.23-2.45-0.94-2.45-2.15
			c0-1.46,1.13-2.32,3-2.32c1.14,0,2.02,0.21,2.97,0.67L46.5,245.71z"/>
		<path class="st8" d="M53.87,245.71c-0.56-0.28-1.46-0.57-2.26-0.58c-0.73,0-1.09,0.26-1.09,0.64c0,0.41,0.51,0.51,1.16,0.61
			l0.63,0.1c1.54,0.23,2.4,0.92,2.4,2.12c0,1.46-1.2,2.41-3.26,2.41c-0.97,0-2.23-0.18-3.16-0.83l0.75-1.45
			c0.61,0.4,1.35,0.7,2.42,0.7c0.89,0,1.31-0.25,1.31-0.67c0-0.34-0.36-0.53-1.18-0.65l-0.58-0.08c-1.64-0.23-2.45-0.94-2.45-2.15
			c0-1.46,1.13-2.32,3-2.32c1.14,0,2.02,0.21,2.97,0.67L53.87,245.71z"/>
		<path class="st8" d="M63.17,250.83h-1.87v-0.78c-0.46,0.57-1.15,0.97-2.12,0.97c-1.96,0-3.44-1.6-3.44-3.74s1.48-3.74,3.44-3.74
			c0.97,0,1.66,0.4,2.12,0.97v-0.78h1.87V250.83z M57.7,247.27c0,1.08,0.71,1.96,1.83,1.96c1.09,0,1.83-0.83,1.83-1.96
			s-0.74-1.96-1.83-1.96C58.41,245.32,57.7,246.19,57.7,247.27z"/>
		<path class="st8" d="M70.21,244.52v-0.79h1.88v6.51c0,2.28-1.49,3.65-3.83,3.65c-1.12,0-2.31-0.29-3.11-0.86l0.68-1.56
			c0.71,0.47,1.49,0.73,2.34,0.73c1.19,0,2.02-0.66,2.02-1.88v-0.5c-0.48,0.59-1.2,0.96-2.18,0.96c-1.73,0-3.27-1.44-3.27-3.62
			c0-2.18,1.54-3.63,3.27-3.63C69,243.54,69.72,243.92,70.21,244.52z M66.7,247.17c0,1.03,0.7,1.86,1.79,1.86
			c1.06,0,1.78-0.81,1.78-1.86c0-1.06-0.72-1.87-1.78-1.87C67.4,245.3,66.7,246.13,66.7,247.17z"/>
		<path class="st8" d="M80.69,247.27c0,0.22-0.01,0.48-0.04,0.64h-5.03c0.21,1.03,0.92,1.47,1.82,1.47c0.62,0,1.28-0.25,1.79-0.68
			l1.12,1.23c-0.81,0.74-1.83,1.08-3.02,1.08c-2.18,0-3.68-1.48-3.68-3.71s1.46-3.76,3.59-3.76
			C79.28,243.54,80.68,245.06,80.69,247.27z M75.62,246.61h3.14c-0.18-0.91-0.73-1.42-1.55-1.42
			C76.32,245.19,75.79,245.73,75.62,246.61z"/>
		<path class="st8" d="M87.28,245.71c-0.56-0.28-1.46-0.57-2.26-0.58c-0.73,0-1.09,0.26-1.09,0.64c0,0.41,0.51,0.51,1.16,0.61
			l0.63,0.1c1.54,0.23,2.4,0.92,2.4,2.12c0,1.46-1.2,2.41-3.26,2.41c-0.97,0-2.23-0.18-3.16-0.83l0.75-1.45
			c0.61,0.4,1.35,0.7,2.42,0.7c0.89,0,1.31-0.25,1.31-0.67c0-0.34-0.36-0.53-1.18-0.65l-0.58-0.08c-1.64-0.23-2.45-0.94-2.45-2.15
			c0-1.46,1.13-2.32,3-2.32c1.14,0,2.02,0.21,2.97,0.67L87.28,245.71z"/>
		<path class="st8" d="M100.48,247.27c0,2.14-1.63,3.74-3.85,3.74c-2.2,0-3.83-1.6-3.83-3.74s1.63-3.74,3.83-3.74
			C98.85,243.54,100.48,245.14,100.48,247.27z M94.75,247.27c0,1.15,0.81,1.96,1.88,1.96s1.89-0.81,1.89-1.96s-0.81-1.96-1.89-1.96
			S94.75,246.12,94.75,247.27z"/>
		<path class="st8" d="M106.89,243.69l-0.29,1.9c-0.31-0.14-0.77-0.23-1.16-0.23c-0.89,0-1.49,0.54-1.49,1.6v3.87h-1.91v-7.1h1.85
			v0.78c0.45-0.67,1.13-0.97,2-0.97C106.3,243.54,106.62,243.6,106.89,243.69z"/>
		<path class="st8" d="M119.16,242.48h-3.18v8.34h-2.04v-8.34h-3.18v-1.91h8.4V242.48z"/>
		<path class="st8" d="M125.79,247.27c0,0.22-0.01,0.48-0.04,0.64h-5.03c0.21,1.03,0.92,1.47,1.82,1.47c0.62,0,1.28-0.25,1.79-0.68
			l1.12,1.23c-0.81,0.74-1.83,1.08-3.02,1.08c-2.18,0-3.68-1.48-3.68-3.71s1.46-3.76,3.59-3.76
			C124.39,243.54,125.78,245.06,125.79,247.27z M120.73,246.61h3.14c-0.18-0.91-0.73-1.42-1.55-1.42
			C121.43,245.19,120.9,245.73,120.73,246.61z"/>
		<path class="st8" d="M131.17,247.22l2.59,3.61h-2.27l-1.6-2.26l-1.57,2.26h-2.21l2.61-3.6l-2.54-3.49h2.27l1.53,2.2l1.52-2.2h2.21
			L131.17,247.22z"/>
		<path class="st8" d="M140.11,245.43h-2.57v2.59c0,0.89,0.47,1.21,1.06,1.21c0.45,0,0.94-0.23,1.33-0.46l0.7,1.49
			c-0.62,0.42-1.34,0.75-2.35,0.75c-1.76,0-2.66-1-2.66-2.83v-2.75h-1.37v-1.7h1.37v-2.11h1.91v2.11h2.57V245.43z"/>
	</g>
	<g>
		<path class="st8" d="M51.14,386.04h-2.18l-0.89-2.39h-4.37l-0.89,2.39h-2.13l3.99-10.25h2.49L51.14,386.04z M44.4,381.77h2.97
			l-1.48-3.96L44.4,381.77z"/>
		<path class="st8" d="M59.01,381.52v4.52H57.1v-3.9c0-1.03-0.51-1.59-1.38-1.59c-0.82,0-1.5,0.53-1.5,1.6v3.89H52.3v-7.1h1.86v0.83
			c0.51-0.75,1.28-1.03,2.09-1.03C57.86,378.76,59.01,379.88,59.01,381.52z"/>
		<path class="st8" d="M67.94,386.04h-1.87v-0.78c-0.46,0.57-1.15,0.97-2.12,0.97c-1.96,0-3.44-1.6-3.44-3.74s1.48-3.74,3.44-3.74
			c0.97,0,1.66,0.4,2.12,0.97v-0.78h1.87V386.04z M62.47,382.49c0,1.08,0.71,1.96,1.83,1.96c1.09,0,1.83-0.83,1.83-1.96
			s-0.74-1.96-1.83-1.96C63.18,380.54,62.47,381.41,62.47,382.49z"/>
		<path class="st8" d="M71.86,386.04h-1.91V375.5h1.91V386.04z"/>
		<path class="st8" d="M75.63,389h-2.09l2.48-4.47l-3.06-5.59h2.17l1.95,3.65l1.89-3.65h2.09L75.63,389z"/>
		<path class="st8" d="M87.45,380.65h-2.57v2.59c0,0.89,0.47,1.21,1.06,1.21c0.45,0,0.94-0.23,1.33-0.46l0.7,1.49
			c-0.62,0.42-1.34,0.75-2.35,0.75c-1.76,0-2.66-1-2.66-2.83v-2.75h-1.37v-1.7h1.37v-2.11h1.91v2.11h2.57V380.65z"/>
		<path class="st8" d="M91.3,376.62c0,0.69-0.53,1.22-1.22,1.22s-1.22-0.53-1.22-1.22s0.53-1.23,1.22-1.23S91.3,375.94,91.3,376.62z
			 M91.04,386.04h-1.91v-7.1h1.91V386.04z"/>
		<path class="st8" d="M99.23,380.1l-1.38,1.15c-0.43-0.46-0.89-0.71-1.52-0.71c-0.99,0-1.78,0.78-1.78,1.96
			c0,1.19,0.78,1.96,1.77,1.96c0.62,0,1.14-0.28,1.55-0.72l1.36,1.16c-0.67,0.86-1.66,1.33-2.85,1.33c-2.26,0-3.78-1.58-3.78-3.74
			c0-2.15,1.52-3.74,3.78-3.74C97.57,378.76,98.58,379.24,99.23,380.1z"/>
		<path class="st8" d="M106.44,382.29v3.75h-2.04v-10.25h4.18c2.45,0,3.75,1.27,3.75,3.26c0,1.97-1.3,3.24-3.74,3.24H106.44z
			 M106.44,377.67v2.75h2.1c1.11,0,1.69-0.45,1.69-1.38c0-0.92-0.58-1.38-1.69-1.38H106.44z"/>
		<path class="st8" d="M120.9,382.49c0,2.14-1.63,3.74-3.85,3.74c-2.2,0-3.83-1.6-3.83-3.74s1.63-3.74,3.83-3.74
			C119.27,378.76,120.9,380.35,120.9,382.49z M115.17,382.49c0,1.15,0.81,1.96,1.88,1.96s1.89-0.81,1.89-1.96s-0.81-1.96-1.89-1.96
			S115.17,381.34,115.17,382.49z"/>
		<path class="st8" d="M124.63,376.62c0,0.69-0.53,1.22-1.22,1.22s-1.22-0.53-1.22-1.22s0.53-1.23,1.22-1.23
			S124.63,375.94,124.63,376.62z M124.37,386.04h-1.91v-7.1h1.91V386.04z"/>
		<path class="st8" d="M133.09,381.52v4.52h-1.91v-3.9c0-1.03-0.51-1.59-1.38-1.59c-0.82,0-1.5,0.53-1.5,1.6v3.89h-1.91v-7.1h1.86
			v0.83c0.51-0.75,1.28-1.03,2.09-1.03C131.94,378.76,133.09,379.88,133.09,381.52z"/>
		<path class="st8" d="M140.11,380.65h-2.57v2.59c0,0.89,0.47,1.21,1.06,1.21c0.45,0,0.94-0.23,1.33-0.46l0.7,1.49
			c-0.62,0.42-1.34,0.75-2.35,0.75c-1.76,0-2.66-1-2.66-2.83v-2.75h-1.37v-1.7h1.37v-2.11h1.91v2.11h2.57V380.65z"/>
	</g>
	<g>
		<path class="st8" d="M90.54,517.51v3.75h-2.04v-10.25h4.18c2.45,0,3.75,1.27,3.75,3.26c0,1.97-1.3,3.24-3.74,3.24H90.54z
			 M90.54,512.89v2.75h2.1c1.11,0,1.69-0.46,1.69-1.38c0-0.92-0.58-1.38-1.69-1.38H90.54z"/>
		<path class="st8" d="M102.85,514.13l-0.29,1.9c-0.31-0.14-0.77-0.23-1.16-0.23c-0.89,0-1.49,0.54-1.49,1.6v3.87h-1.91v-7.1h1.85
			v0.78c0.45-0.67,1.13-0.97,2-0.97C102.27,513.97,102.59,514.03,102.85,514.13z"/>
		<path class="st8" d="M106.33,511.84c0,0.69-0.53,1.22-1.22,1.22s-1.22-0.53-1.22-1.22s0.53-1.23,1.22-1.23
			S106.33,511.15,106.33,511.84z M106.07,521.26h-1.91v-7.1h1.91V521.26z"/>
		<path class="st8" d="M115.31,517.71c0,2.14-1.63,3.74-3.85,3.74c-2.2,0-3.83-1.6-3.83-3.74s1.63-3.73,3.83-3.73
			C113.68,513.97,115.31,515.57,115.31,517.71z M109.58,517.71c0,1.15,0.81,1.96,1.88,1.96s1.89-0.81,1.89-1.96
			c0-1.15-0.81-1.96-1.89-1.96S109.58,516.56,109.58,517.71z"/>
		<path class="st8" d="M121.72,514.13l-0.29,1.9c-0.31-0.14-0.77-0.23-1.16-0.23c-0.89,0-1.49,0.54-1.49,1.6v3.87h-1.91v-7.1h1.85
			v0.78c0.45-0.67,1.13-0.97,2-0.97C121.13,513.97,121.46,514.03,121.72,514.13z"/>
		<path class="st8" d="M125.19,511.84c0,0.69-0.53,1.22-1.22,1.22s-1.22-0.53-1.22-1.22s0.53-1.23,1.22-1.23
			S125.19,511.15,125.19,511.84z M124.93,521.26h-1.91v-7.1h1.91V521.26z"/>
		<path class="st8" d="M132.09,515.86h-2.57v2.59c0,0.89,0.47,1.21,1.06,1.21c0.45,0,0.94-0.23,1.33-0.46l0.7,1.49
			c-0.62,0.43-1.34,0.75-2.35,0.75c-1.76,0-2.66-1-2.66-2.83v-2.75h-1.37v-1.7h1.37v-2.11h1.91v2.11h2.57V515.86z"/>
		<path class="st8" d="M135.56,524.22h-2.09l2.48-4.47l-3.06-5.59h2.17l1.95,3.65l1.89-3.65h2.09L135.56,524.22z"/>
	</g>
</g>
</svg>
