<?xml version="1.0" encoding="utf-8"?>
<!-- Generator: Adobe Illustrator 23.0.1, SVG Export Plug-In . SVG Version: 6.00 Build 0)  -->
<svg version="1.1" id="Layer_1" xmlns="http://www.w3.org/2000/svg" xmlns:xlink="http://www.w3.org/1999/xlink" x="0px" y="0px"
	 viewBox="0 0 300 1200" style="enable-background:new 0 0 300 1200;" xml:space="preserve">
<style type="text/css">
	.st0{fill:#FF9100;}
	.st1{fill:#E02451;}
	.st2{fill:#CBDD1D;}
	.st3{fill:#0BB5D1;}
	.st4{fill:#051138;}
</style>
<g>
	<g>
		<path class="st0" d="M55.37,1034.49h29.77c0.5,0,0.91,0.41,0.91,0.91v7.03c0,0.5-0.41,0.91-0.91,0.91H55.37
			c-0.5,0-0.91-0.41-0.91-0.91v-7.03C54.47,1034.9,54.87,1034.49,55.37,1034.49z"/>
		<path class="st1" d="M50.91,1045.86h13.66c0.5,0,0.91,0.41,0.91,0.91v7.03c0,0.5-0.41,0.91-0.91,0.91H50.91
			c-0.5,0-0.91-0.41-0.91-0.91v-7.03C50,1046.27,50.41,1045.86,50.91,1045.86z"/>
		<path class="st2" d="M70.06,1045.86h7.03c0.5,0,0.91,0.41,0.91,0.91v7.03c0,0.5-0.41,0.91-0.91,0.91h-7.03
			c-0.5,0-0.91-0.41-0.91-0.91v-7.03C69.15,1046.27,69.56,1045.86,70.06,1045.86z"/>
		<path class="st3" d="M85.14,1066.08H55.38c-0.5,0-0.91-0.41-0.91-0.91v-7.03c0-0.5,0.41-0.91,0.91-0.91h29.77
			c0.5,0,0.91,0.41,0.91,0.91v7.03C86.05,1065.67,85.65,1066.08,85.14,1066.08z"/>
	</g>
	<g>
		<path class="st4" d="M121.05,1054.57c0,0.71-0.05,1.69-0.14,2.16h-15.54c0.61,2.38,2.38,3.49,4.91,3.49c1.6,0,2.8-0.53,3.59-1.68
			c0.1-0.15,0.28-0.24,0.47-0.24h5.48c0.39,0,0.68,0.38,0.56,0.76c-0.8,2.51-4.04,7.01-10.47,7.01c-7.2,0-12.08-4.56-12.08-11.37
			c0-6.88,4.79-11.64,11.75-11.64C116.38,1043.07,121.03,1047.74,121.05,1054.57z M105.4,1052.32h8.34
			c-0.58-2.18-2.01-3.34-4.14-3.34C107.34,1048.99,105.96,1050.16,105.4,1052.32z"/>
		<path class="st4" d="M160.06,1051.17v13.75c0,0.32-0.26,0.58-0.58,0.58h-6.15c-0.32,0-0.58-0.26-0.58-0.58v-11.28
			c0-2.58-1.36-4.03-3.65-4.03c-2.01,0-3.72,1.31-3.72,4.14v11.17c0,0.32-0.26,0.58-0.58,0.58h-6.15c-0.32,0-0.58-0.26-0.58-0.58
			v-11.28c0-2.58-1.36-4.03-3.62-4.03c-2.03,0-3.72,1.31-3.72,4.14v11.17c0,0.32-0.26,0.58-0.58,0.58h-6.15
			c-0.32,0-0.58-0.26-0.58-0.58v-20.66c0-0.32,0.26-0.58,0.58-0.58h5.84c0.32,0,0.58,0.26,0.58,0.58v2.15
			c1.45-2.29,3.76-3.34,6.82-3.34c3.01,0,5.58,1.31,6.99,3.65c1.54-2.51,4.11-3.65,7.27-3.65
			C156.74,1043.07,160.06,1046.14,160.06,1051.17z"/>
		<path class="st4" d="M187,1054.55c0,6.45-4.56,11.53-10.68,11.53c-3.11,0-5.19-1.2-6.57-2.92v1.75c0,0.32-0.26,0.58-0.58,0.58
			h-5.89c-0.32,0-0.58-0.26-0.58-0.58v-30.88c0-0.32,0.26-0.58,0.58-0.58h6.12c0.32,0,0.58,0.26,0.58,0.58v11.72
			c1.38-1.58,3.39-2.69,6.33-2.69C182.45,1043.07,187,1048.14,187,1054.55z M169.69,1054.57c0,2.89,2.01,5.01,4.88,5.01
			c2.94,0,4.91-2.16,4.91-5.01s-1.96-5.01-4.91-5.01C171.7,1049.56,169.69,1051.68,169.69,1054.57z"/>
		<path class="st4" d="M213.93,1054.57c0,6.61-5.28,11.51-12.45,11.51c-7.15,0-12.43-4.9-12.43-11.51c0-6.61,5.28-11.5,12.43-11.5
			C208.65,1043.07,213.93,1047.96,213.93,1054.57z M196.52,1054.57c0,2.94,2.1,5.01,4.95,5.01c2.87,0,4.98-2.07,4.98-5.01
			c0-2.94-2.1-5.01-4.98-5.01C198.63,1049.56,196.52,1051.63,196.52,1054.57z"/>
		<path class="st4" d="M222.77,1065.5h-6.15c-0.32,0-0.58-0.26-0.58-0.58v-30.88c0-0.32,0.26-0.58,0.58-0.58h6.15
			c0.32,0,0.58,0.26,0.58,0.58v30.88C223.35,1065.24,223.09,1065.5,222.77,1065.5z"/>
		<path class="st4" d="M242.71,1045.76v-11.72c0-0.32,0.26-0.58,0.58-0.58h6.12c0.32,0,0.58,0.26,0.58,0.58v30.88
			c0,0.32-0.26,0.58-0.58,0.58h-5.89c-0.32,0-0.58-0.26-0.58-0.58v-1.78c-1.38,1.71-3.48,2.94-6.59,2.94
			c-6.12,0-10.66-5.07-10.66-11.53c0-6.41,4.53-11.48,10.68-11.48C239.3,1043.07,241.33,1044.18,242.71,1045.76z M233.22,1054.57
			c0,2.85,1.96,5.01,4.88,5.01c2.87,0,4.91-2.11,4.91-5.01c0-2.89-2.03-5.01-4.91-5.01
			C235.19,1049.56,233.22,1051.72,233.22,1054.57z"/>
	</g>
</g>
<g>
	<g>
		<path class="st0" d="M129.72,711h36.25c0.61,0,1.11,0.5,1.11,1.11v8.56c0,0.61-0.5,1.11-1.11,1.11h-36.25
			c-0.61,0-1.11-0.5-1.11-1.11v-8.56C128.62,711.5,129.11,711,129.72,711z"/>
		<path class="st1" d="M124.29,724.85h16.63c0.61,0,1.11,0.5,1.11,1.11v8.56c0,0.61-0.5,1.11-1.11,1.11h-16.63
			c-0.61,0-1.11-0.5-1.11-1.11v-8.56C123.18,725.34,123.67,724.85,124.29,724.85z"/>
		<path class="st2" d="M147.61,724.85h8.56c0.61,0,1.11,0.5,1.11,1.11v8.56c0,0.61-0.5,1.11-1.11,1.11h-8.56
			c-0.61,0-1.11-0.5-1.11-1.11v-8.56C146.5,725.34,147,724.85,147.61,724.85z"/>
		<path class="st3" d="M165.97,749.46h-36.25c-0.61,0-1.11-0.5-1.11-1.11v-8.56c0-0.61,0.5-1.11,1.11-1.11h36.25
			c0.61,0,1.11,0.5,1.11,1.11v8.56C167.08,748.96,166.58,749.46,165.97,749.46z"/>
	</g>
	<g>
		<path class="st4" d="M105.66,779.35c0,0.6-0.04,1.42-0.12,1.81H92.51c0.51,2,2,2.93,4.12,2.93c1.34,0,2.35-0.44,3.01-1.41
			c0.09-0.13,0.24-0.2,0.39-0.2h4.6c0.33,0,0.57,0.32,0.47,0.63c-0.67,2.11-3.39,5.88-8.78,5.88c-6.04,0-10.13-3.83-10.13-9.54
			c0-5.77,4.02-9.76,9.86-9.76C101.74,769.7,105.64,773.62,105.66,779.35z M92.53,777.46h7c-0.49-1.83-1.69-2.8-3.47-2.8
			C94.16,774.67,93,775.65,92.53,777.46z"/>
		<path class="st4" d="M138.38,776.49v11.53c0,0.27-0.22,0.49-0.49,0.49h-5.16c-0.27,0-0.49-0.22-0.49-0.49v-9.46
			c0-2.17-1.14-3.38-3.06-3.38c-1.69,0-3.12,1.1-3.12,3.47v9.37c0,0.27-0.22,0.49-0.49,0.49h-5.16c-0.27,0-0.49-0.22-0.49-0.49
			v-9.46c0-2.17-1.14-3.38-3.04-3.38c-1.71,0-3.12,1.1-3.12,3.47v9.37c0,0.27-0.22,0.49-0.49,0.49h-5.16
			c-0.27,0-0.49-0.22-0.49-0.49v-17.33c0-0.27,0.22-0.49,0.49-0.49h4.9c0.27,0,0.49,0.22,0.49,0.49v1.81
			c1.22-1.92,3.16-2.8,5.72-2.8c2.53,0,4.68,1.1,5.86,3.06c1.29-2.11,3.45-3.06,6.1-3.06C135.6,769.7,138.38,772.28,138.38,776.49z"
			/>
		<path class="st4" d="M160.98,779.33c0,5.41-3.82,9.67-8.96,9.67c-2.61,0-4.35-1.01-5.51-2.45v1.47c0,0.27-0.22,0.49-0.49,0.49
			h-4.94c-0.27,0-0.49-0.22-0.49-0.49v-25.9c0-0.27,0.22-0.49,0.49-0.49h5.14c0.27,0,0.49,0.22,0.49,0.49v9.83
			c1.16-1.33,2.84-2.26,5.31-2.26C157.16,769.7,160.98,773.96,160.98,779.33z M146.46,779.35c0,2.43,1.69,4.2,4.1,4.2
			c2.47,0,4.12-1.81,4.12-4.2c0-2.39-1.65-4.2-4.12-4.2C148.14,775.15,146.46,776.92,146.46,779.35z"/>
		<path class="st4" d="M183.57,779.35c0,5.54-4.43,9.65-10.45,9.65c-6,0-10.43-4.11-10.43-9.65c0-5.54,4.43-9.65,10.43-9.65
			C179.14,769.7,183.57,773.81,183.57,779.35z M168.96,779.35c0,2.46,1.76,4.2,4.16,4.2c2.41,0,4.17-1.74,4.17-4.2
			c0-2.46-1.76-4.2-4.17-4.2C170.73,775.15,168.96,776.89,168.96,779.35z"/>
		<path class="st4" d="M190.98,788.51h-5.16c-0.27,0-0.49-0.22-0.49-0.49v-25.9c0-0.27,0.22-0.49,0.49-0.49h5.16
			c0.27,0,0.49,0.22,0.49,0.49v25.9C191.47,788.3,191.25,788.51,190.98,788.51z"/>
		<path class="st4" d="M207.7,771.96v-9.83c0-0.27,0.22-0.49,0.49-0.49h5.14c0.27,0,0.49,0.22,0.49,0.49v25.9
			c0,0.27-0.22,0.49-0.49,0.49h-4.94c-0.27,0-0.49-0.22-0.49-0.49v-1.49c-1.16,1.44-2.92,2.46-5.53,2.46
			c-5.13,0-8.94-4.26-8.94-9.67c0-5.38,3.8-9.63,8.96-9.63C204.84,769.7,206.55,770.63,207.7,771.96z M199.75,779.35
			c0,2.39,1.65,4.2,4.1,4.2c2.41,0,4.12-1.77,4.12-4.2c0-2.43-1.71-4.2-4.12-4.2C201.39,775.15,199.75,776.96,199.75,779.35z"/>
	</g>
</g>
<g>
	<g>
		<path class="st4" d="M118.74,452.84c0,0.42-0.03,1-0.08,1.28h-9.19c0.36,1.41,1.41,2.07,2.9,2.07c0.95,0,1.66-0.31,2.12-0.99
			c0.06-0.09,0.17-0.14,0.28-0.14h3.24c0.23,0,0.4,0.23,0.33,0.45c-0.47,1.49-2.39,4.15-6.19,4.15c-4.26,0-7.14-2.7-7.14-6.73
			c0-4.07,2.83-6.88,6.95-6.88C115.97,446.04,118.72,448.8,118.74,452.84z M109.48,451.51h4.93c-0.35-1.29-1.19-1.97-2.45-1.97
			C110.62,449.54,109.81,450.24,109.48,451.51z"/>
		<path class="st4" d="M141.81,450.83v8.13c0,0.19-0.15,0.35-0.35,0.35h-3.64c-0.19,0-0.35-0.15-0.35-0.35v-6.67
			c0-1.53-0.8-2.38-2.16-2.38c-1.19,0-2.2,0.78-2.2,2.45v6.6c0,0.19-0.15,0.35-0.35,0.35h-3.63c-0.19,0-0.35-0.15-0.35-0.35v-6.67
			c0-1.53-0.8-2.38-2.14-2.38c-1.2,0-2.2,0.78-2.2,2.45v6.6c0,0.19-0.15,0.35-0.35,0.35h-3.64c-0.19,0-0.35-0.15-0.35-0.35v-12.22
			c0-0.19,0.15-0.35,0.35-0.35h3.46c0.19,0,0.35,0.15,0.35,0.35v1.27c0.86-1.36,2.23-1.97,4.04-1.97c1.78,0,3.3,0.78,4.13,2.16
			c0.91-1.49,2.43-2.16,4.3-2.16C139.84,446.04,141.81,447.85,141.81,450.83z"/>
		<path class="st0" d="M157.74,452.83c0,3.82-2.69,6.82-6.32,6.82c-1.84,0-3.07-0.71-3.88-1.72v1.04c0,0.19-0.15,0.35-0.35,0.35
			h-3.48c-0.19,0-0.35-0.15-0.35-0.35V440.7c0-0.19,0.15-0.35,0.35-0.35h3.62c0.19,0,0.35,0.15,0.35,0.35v6.93
			c0.82-0.93,2-1.59,3.75-1.59C155.05,446.04,157.74,449.04,157.74,452.83z M147.5,452.84c0,1.71,1.19,2.96,2.89,2.96
			c1.74,0,2.9-1.28,2.9-2.96c0-1.68-1.16-2.96-2.9-2.96C148.69,449.88,147.5,451.13,147.5,452.84z"/>
		<path class="st1" d="M173.67,452.84c0,3.91-3.12,6.8-7.37,6.8c-4.23,0-7.35-2.9-7.35-6.8c0-3.91,3.12-6.8,7.35-6.8
			C170.54,446.04,173.67,448.93,173.67,452.84z M163.37,452.84c0,1.74,1.24,2.96,2.93,2.96c1.7,0,2.94-1.22,2.94-2.96
			c0-1.74-1.24-2.96-2.94-2.96C164.62,449.88,163.37,451.11,163.37,452.84z"/>
		<path class="st2" d="M178.9,459.3h-3.64c-0.19,0-0.35-0.15-0.35-0.35V440.7c0-0.19,0.15-0.35,0.35-0.35h3.64
			c0.19,0,0.35,0.15,0.35,0.35v18.26C179.24,459.15,179.09,459.3,178.9,459.3z"/>
		<path class="st3" d="M190.69,447.63v-6.93c0-0.19,0.15-0.35,0.35-0.35h3.62c0.19,0,0.35,0.15,0.35,0.35v18.26
			c0,0.19-0.15,0.35-0.35,0.35h-3.48c-0.19,0-0.35-0.15-0.35-0.35v-1.05c-0.82,1.01-2.06,1.74-3.9,1.74c-3.62,0-6.3-3-6.3-6.82
			c0-3.79,2.68-6.79,6.32-6.79C188.67,446.04,189.87,446.7,190.69,447.63z M185.08,452.84c0,1.68,1.16,2.96,2.89,2.96
			c1.7,0,2.9-1.25,2.9-2.96s-1.2-2.96-2.9-2.96C186.24,449.88,185.08,451.16,185.08,452.84z"/>
	</g>
</g>
<g>
	<path class="st0" d="M139.47,136.86h24.77c0.42,0,0.76,0.34,0.76,0.76v5.85c0,0.42-0.34,0.76-0.76,0.76h-24.77
		c-0.42,0-0.76-0.34-0.76-0.76v-5.85C138.72,137.2,139.05,136.86,139.47,136.86z"/>
	<path class="st1" d="M135.76,146.32h11.37c0.42,0,0.76,0.34,0.76,0.76v5.85c0,0.42-0.34,0.76-0.76,0.76h-11.37
		c-0.42,0-0.76-0.34-0.76-0.76v-5.85C135,146.66,135.34,146.32,135.76,146.32z"/>
	<path class="st2" d="M151.69,146.32h5.85c0.42,0,0.76,0.34,0.76,0.76v5.85c0,0.42-0.34,0.76-0.76,0.76h-5.85
		c-0.42,0-0.76-0.34-0.76-0.76v-5.85C150.94,146.66,151.28,146.32,151.69,146.32z"/>
	<path class="st3" d="M164.24,163.14h-24.77c-0.42,0-0.76-0.34-0.76-0.76v-5.85c0-0.42,0.34-0.76,0.76-0.76h24.77
		c0.42,0,0.76,0.34,0.76,0.76v5.85C165,162.8,164.66,163.14,164.24,163.14z"/>
</g>
</svg>
