<?xml version="1.0" encoding="utf-8"?>
<!-- Generator: Adobe Illustrator 22.1.0, SVG Export Plug-In . SVG Version: 6.00 Build 0)  -->
<svg version="1.1" id="Layer_1" xmlns="http://www.w3.org/2000/svg" xmlns:xlink="http://www.w3.org/1999/xlink" x="0px" y="0px"
	 viewBox="0 0 680 675" style="enable-background:new 0 0 680 675;" xml:space="preserve">
<style type="text/css">
	.st0{fill:url(#SVGID_1_);}
	.st1{fill:url(#SVGID_2_);}
	.st2{fill:url(#SVGID_3_);}
	.st3{fill:url(#SVGID_4_);}
	.st4{fill:#051138;}
	.st5{fill:#FFFFFF;}
	.st6{fill:#1A1A1A;}
</style>
<linearGradient id="SVGID_1_" gradientUnits="userSpaceOnUse" x1="91.08" y1="84.235" x2="173.38" y2="84.235">
	<stop  offset="0" style="stop-color:#FF9100"/>
	<stop  offset="0.406" style="stop-color:#FF8E00"/>
	<stop  offset="0.7316" style="stop-color:#FF8400"/>
	<stop  offset="1" style="stop-color:#FF7500"/>
</linearGradient>
<path class="st0" d="M93.4,72.7H171c1.3,0,2.4,1.1,2.4,2.4v18.3c0,1.3-1.1,2.4-2.4,2.4H93.4c-1.3,0-2.4-1.1-2.4-2.4V75.1
	C91.1,73.8,92.1,72.7,93.4,72.7z"/>
<linearGradient id="SVGID_2_" gradientUnits="userSpaceOnUse" x1="79.44" y1="113.855" x2="119.77" y2="113.855">
	<stop  offset="0" style="stop-color:#E02451"/>
	<stop  offset="0.2881" style="stop-color:#E1244E"/>
	<stop  offset="0.5194" style="stop-color:#E42544"/>
	<stop  offset="0.7311" style="stop-color:#EA2533"/>
	<stop  offset="0.9298" style="stop-color:#F2271B"/>
	<stop  offset="1" style="stop-color:#F52711"/>
</linearGradient>
<path class="st1" d="M81.8,102.3h35.6c1.3,0,2.4,1.1,2.4,2.4V123c0,1.3-1.1,2.4-2.4,2.4H81.8c-1.3,0-2.4-1.1-2.4-2.4v-18.3
	C79.4,103.4,80.5,102.3,81.8,102.3z"/>
<linearGradient id="SVGID_3_" gradientUnits="userSpaceOnUse" x1="126.35" y1="113.855" x2="149.4" y2="113.855">
	<stop  offset="0" style="stop-color:#CBDD1D"/>
	<stop  offset="0.198" style="stop-color:#C8DD1E"/>
	<stop  offset="0.357" style="stop-color:#BEDC22"/>
	<stop  offset="0.5026" style="stop-color:#ADDB29"/>
	<stop  offset="0.6401" style="stop-color:#95D932"/>
	<stop  offset="0.7719" style="stop-color:#76D73E"/>
	<stop  offset="0.8977" style="stop-color:#51D44D"/>
	<stop  offset="1" style="stop-color:#2DD15B"/>
</linearGradient>
<path class="st2" d="M128.7,102.3H147c1.3,0,2.4,1.1,2.4,2.4V123c0,1.3-1.1,2.4-2.4,2.4h-18.3c-1.3,0-2.4-1.1-2.4-2.4v-18.3
	C126.4,103.4,127.4,102.3,128.7,102.3z"/>
<linearGradient id="SVGID_4_" gradientUnits="userSpaceOnUse" x1="91.09" y1="143.475" x2="173.39" y2="143.475">
	<stop  offset="0" style="stop-color:#0BB5D1"/>
	<stop  offset="0.2683" style="stop-color:#0CB2D1"/>
	<stop  offset="0.4837" style="stop-color:#0EA8CF"/>
	<stop  offset="0.6809" style="stop-color:#1197CD"/>
	<stop  offset="0.8659" style="stop-color:#167FCA"/>
	<stop  offset="1" style="stop-color:#1B69C7"/>
</linearGradient>
<path class="st3" d="M171,155H93.5c-1.3,0-2.4-1.1-2.4-2.4v-18.3c0-1.3,1.1-2.4,2.4-2.4H171c1.3,0,2.4,1.1,2.4,2.4v18.3
	C173.4,153.9,172.3,155,171,155z"/>
<path class="st4" d="M264.6,125c0,1.9-0.1,4.4-0.4,5.6h-40.5c1.6,6.2,6.2,9.1,12.8,9.1c4.2,0,7.3-1.4,9.3-4.4
	c0.3-0.4,0.7-0.6,1.2-0.6h14.3c1,0,1.8,1,1.5,2c-2.1,6.6-10.5,18.3-27.3,18.3c-18.8,0-31.5-11.9-31.5-29.6
	c0-17.9,12.5-30.3,30.6-30.3C252.4,95.1,264.5,107.2,264.6,125z M223.8,119.2h21.7c-1.5-5.7-5.2-8.7-10.8-8.7
	C228.9,110.5,225.2,113.5,223.8,119.2z"/>
<path class="st4" d="M366.2,116.2V152c0,0.8-0.7,1.5-1.5,1.5h-16c-0.8,0-1.5-0.7-1.5-1.5v-29.4c0-6.7-3.5-10.5-9.5-10.5
	c-5.2,0-9.7,3.4-9.7,10.8V152c0,0.8-0.7,1.5-1.5,1.5h-16c-0.8,0-1.5-0.7-1.5-1.5v-29.4c0-6.7-3.5-10.5-9.4-10.5
	c-5.3,0-9.7,3.4-9.7,10.8V152c0,0.8-0.7,1.5-1.5,1.5h-16c-0.8,0-1.5-0.7-1.5-1.5V98.1c0-0.8,0.7-1.5,1.5-1.5h15.2
	c0.8,0,1.5,0.7,1.5,1.5v5.6c3.8-6,9.8-8.7,17.8-8.7c7.9,0,14.5,3.4,18.2,9.5c4-6.6,10.7-9.5,18.9-9.5
	C357.6,95.1,366.2,103.1,366.2,116.2z"/>
<path class="st4" d="M436.4,125c0,16.8-11.9,30-27.8,30c-8.1,0-13.5-3.1-17.1-7.6v4.6c0,0.8-0.7,1.5-1.5,1.5h-15.3
	c-0.8,0-1.5-0.7-1.5-1.5V71.5c0-0.8,0.7-1.5,1.5-1.5h16c0.8,0,1.5,0.7,1.5,1.5v30.5c3.6-4.1,8.8-7,16.5-7
	C424.5,95.1,436.4,108.3,436.4,125z M391.3,125c0,7.5,5.2,13,12.7,13c7.7,0,12.8-5.6,12.8-13.1S411.7,112,404,112
	C396.5,112,391.3,117.5,391.3,125z"/>
<path class="st4" d="M506.6,125c0,17.2-13.8,30-32.5,30c-18.6,0-32.4-12.8-32.4-30s13.8-30,32.4-30
	C492.8,95.1,506.6,107.8,506.6,125z M461.2,125c0,7.7,5.5,13,12.9,13c7.5,0,13-5.4,13-13.1c0-7.7-5.5-13.1-13-13.1
	C466.7,112,461.2,117.4,461.2,125z"/>
<path class="st4" d="M529.6,153.5h-16c-0.8,0-1.5-0.7-1.5-1.5V71.5c0-0.8,0.7-1.5,1.5-1.5h16c0.8,0,1.5,0.7,1.5,1.5V152
	C531.1,152.8,530.4,153.5,529.6,153.5z"/>
<path class="st4" d="M581.6,102.1V71.5c0-0.8,0.7-1.5,1.5-1.5h16c0.8,0,1.5,0.7,1.5,1.5V152c0,0.8-0.7,1.5-1.5,1.5h-15.3
	c-0.8,0-1.5-0.7-1.5-1.5v-4.6c-3.6,4.5-9.1,7.6-17.2,7.6c-16,0-27.8-13.2-27.8-30c0-16.7,11.8-29.9,27.8-29.9
	C572.7,95.1,578,97.9,581.6,102.1z M556.8,125c0,7.4,5.1,13,12.7,13c7.5,0,12.8-5.5,12.8-13.1c0-7.5-5.3-13.1-12.8-13.1
	C562,112,556.8,117.6,556.8,125z"/>
<path class="st5" d="M93.4,297.7H171c1.3,0,2.4,1.1,2.4,2.4v18.3c0,1.3-1.1,2.4-2.4,2.4H93.4c-1.3,0-2.4-1.1-2.4-2.4v-18.3
	C91.1,298.8,92.1,297.7,93.4,297.7z"/>
<path class="st5" d="M81.8,327.3h35.6c1.3,0,2.4,1.1,2.4,2.4V348c0,1.3-1.1,2.4-2.4,2.4H81.8c-1.3,0-2.4-1.1-2.4-2.4v-18.3
	C79.4,328.4,80.5,327.3,81.8,327.3z"/>
<path class="st5" d="M128.7,327.3H147c1.3,0,2.4,1.1,2.4,2.4V348c0,1.3-1.1,2.4-2.4,2.4h-18.3c-1.3,0-2.4-1.1-2.4-2.4v-18.3
	C126.4,328.4,127.4,327.3,128.7,327.3z"/>
<path class="st5" d="M171,380H93.5c-1.3,0-2.4-1.1-2.4-2.4v-18.3c0-1.3,1.1-2.4,2.4-2.4H171c1.3,0,2.4,1.1,2.4,2.4v18.3
	C173.4,378.9,172.3,380,171,380z"/>
<g>
	<path class="st5" d="M264.6,350c0,1.9-0.1,4.4-0.4,5.6h-40.5c1.6,6.2,6.2,9.1,12.8,9.1c4.2,0,7.3-1.4,9.3-4.4
		c0.3-0.4,0.7-0.6,1.2-0.6h14.3c1,0,1.8,1,1.5,2c-2.1,6.5-10.5,18.3-27.3,18.3c-18.8,0-31.5-11.9-31.5-29.6
		c0-17.9,12.5-30.3,30.6-30.3C252.4,320,264.5,332.2,264.6,350z M223.8,344.2h21.7c-1.5-5.7-5.2-8.7-10.8-8.7
		C228.9,335.5,225.2,338.5,223.8,344.2z"/>
	<path class="st5" d="M366.2,341.1V377c0,0.8-0.7,1.5-1.5,1.5h-16c-0.8,0-1.5-0.7-1.5-1.5v-29.4c0-6.7-3.5-10.5-9.5-10.5
		c-5.2,0-9.7,3.4-9.7,10.8V377c0,0.8-0.7,1.5-1.5,1.5h-16c-0.8,0-1.5-0.7-1.5-1.5v-29.4c0-6.7-3.5-10.5-9.4-10.5
		c-5.3,0-9.7,3.4-9.7,10.8v29.1c0,0.8-0.7,1.5-1.5,1.5h-16c-0.8,0-1.5-0.7-1.5-1.5v-53.8c0-0.8,0.7-1.5,1.5-1.5h15.2
		c0.8,0,1.5,0.7,1.5,1.5v5.6c3.8-6,9.8-8.7,17.8-8.7c7.9,0,14.5,3.4,18.2,9.5c4-6.5,10.7-9.5,18.9-9.5
		C357.6,320,366.2,328,366.2,341.1z"/>
	<path class="st5" d="M436.4,350c0,16.8-11.9,30-27.8,30c-8.1,0-13.5-3.1-17.1-7.6v4.6c0,0.8-0.7,1.5-1.5,1.5h-15.3
		c-0.8,0-1.5-0.7-1.5-1.5v-80.4c0-0.8,0.7-1.5,1.5-1.5h16c0.8,0,1.5,0.7,1.5,1.5v30.5c3.6-4.1,8.8-7,16.5-7
		C424.5,320,436.4,333.3,436.4,350z M391.3,350c0,7.5,5.2,13,12.7,13c7.7,0,12.8-5.6,12.8-13s-5.1-13-12.8-13
		C396.5,337,391.3,342.5,391.3,350z"/>
	<path class="st5" d="M506.6,350c0,17.2-13.8,30-32.5,30c-18.6,0-32.4-12.8-32.4-30s13.8-30,32.4-30
		C492.8,320,506.6,332.8,506.6,350z M461.2,350c0,7.6,5.5,13,12.9,13c7.5,0,13-5.4,13-13c0-7.6-5.5-13-13-13
		C466.7,337,461.2,342.4,461.2,350z"/>
	<path class="st5" d="M529.6,378.5h-16c-0.8,0-1.5-0.7-1.5-1.5v-80.4c0-0.8,0.7-1.5,1.5-1.5h16c0.8,0,1.5,0.7,1.5,1.5V377
		C531.1,377.8,530.4,378.5,529.6,378.5z"/>
	<path class="st5" d="M581.6,327.1v-30.5c0-0.8,0.7-1.5,1.5-1.5h16c0.8,0,1.5,0.7,1.5,1.5V377c0,0.8-0.7,1.5-1.5,1.5h-15.3
		c-0.8,0-1.5-0.7-1.5-1.5v-4.6c-3.6,4.5-9.1,7.6-17.2,7.6c-16,0-27.8-13.2-27.8-30c0-16.7,11.8-29.9,27.8-29.9
		C572.7,320,578,323,581.6,327.1z M556.8,350c0,7.4,5.1,13,12.7,13c7.5,0,12.8-5.5,12.8-13c0-7.5-5.3-13-12.8-13
		C562,337,556.8,342.6,556.8,350z"/>
</g>
<path class="st6" d="M93.4,522.7H171c1.3,0,2.4,1.1,2.4,2.4v18.3c0,1.3-1.1,2.4-2.4,2.4H93.4c-1.3,0-2.4-1.1-2.4-2.4v-18.3
	C91.1,523.8,92.1,522.7,93.4,522.7z"/>
<path class="st6" d="M81.8,552.3h35.6c1.3,0,2.4,1.1,2.4,2.4V573c0,1.3-1.1,2.4-2.4,2.4H81.8c-1.3,0-2.4-1.1-2.4-2.4v-18.3
	C79.4,553.4,80.5,552.3,81.8,552.3z"/>
<path class="st6" d="M128.7,552.3H147c1.3,0,2.4,1.1,2.4,2.4V573c0,1.3-1.1,2.4-2.4,2.4h-18.3c-1.3,0-2.4-1.1-2.4-2.4v-18.3
	C126.4,553.4,127.4,552.3,128.7,552.3z"/>
<path class="st6" d="M171,605H93.5c-1.3,0-2.4-1.1-2.4-2.4v-18.3c0-1.3,1.1-2.4,2.4-2.4H171c1.3,0,2.4,1.1,2.4,2.4v18.3
	C173.4,603.9,172.3,605,171,605z"/>
<g>
	<path class="st6" d="M264.6,575c0,1.9-0.1,4.4-0.4,5.6h-40.5c1.6,6.2,6.2,9.1,12.8,9.1c4.2,0,7.3-1.4,9.3-4.4
		c0.3-0.4,0.7-0.6,1.2-0.6h14.3c1,0,1.8,1,1.5,2c-2.1,6.5-10.5,18.3-27.3,18.3c-18.8,0-31.5-11.9-31.5-29.6
		c0-17.9,12.5-30.3,30.6-30.3C252.4,545,264.5,557.2,264.6,575z M223.8,569.2h21.7c-1.5-5.7-5.2-8.7-10.8-8.7
		C228.9,560.5,225.2,563.5,223.8,569.2z"/>
	<path class="st6" d="M366.2,566.2V602c0,0.8-0.7,1.5-1.5,1.5h-16c-0.8,0-1.5-0.7-1.5-1.5v-29.4c0-6.7-3.5-10.5-9.5-10.5
		c-5.2,0-9.7,3.4-9.7,10.8V602c0,0.8-0.7,1.5-1.5,1.5h-16c-0.8,0-1.5-0.7-1.5-1.5v-29.4c0-6.7-3.5-10.5-9.4-10.5
		c-5.3,0-9.7,3.4-9.7,10.8V602c0,0.8-0.7,1.5-1.5,1.5h-16c-0.8,0-1.5-0.7-1.5-1.5v-53.8c0-0.8,0.7-1.5,1.5-1.5h15.2
		c0.8,0,1.5,0.7,1.5,1.5v5.6c3.8-6,9.8-8.7,17.8-8.7c7.9,0,14.5,3.4,18.2,9.5c4-6.5,10.7-9.5,18.9-9.5
		C357.6,545,366.2,553,366.2,566.2z"/>
	<path class="st6" d="M436.4,575c0,16.8-11.9,30-27.8,30c-8.1,0-13.5-3.1-17.1-7.6v4.6c0,0.8-0.7,1.5-1.5,1.5h-15.3
		c-0.8,0-1.5-0.7-1.5-1.5v-80.5c0-0.8,0.7-1.5,1.5-1.5h16c0.8,0,1.5,0.7,1.5,1.5v30.5c3.6-4.1,8.8-7,16.5-7
		C424.5,545,436.4,558.3,436.4,575z M391.3,575c0,7.5,5.2,13,12.7,13c7.7,0,12.8-5.6,12.8-13c0-7.4-5.1-13-12.8-13
		C396.5,562,391.3,567.5,391.3,575z"/>
	<path class="st6" d="M506.6,575c0,17.2-13.8,30-32.5,30c-18.6,0-32.4-12.8-32.4-30s13.8-30,32.4-30
		C492.8,545,506.6,557.8,506.6,575z M461.2,575c0,7.7,5.5,13,12.9,13c7.5,0,13-5.4,13-13c0-7.7-5.5-13-13-13
		C466.7,562,461.2,567.4,461.2,575z"/>
	<path class="st6" d="M529.6,603.5h-16c-0.8,0-1.5-0.7-1.5-1.5v-80.5c0-0.8,0.7-1.5,1.5-1.5h16c0.8,0,1.5,0.7,1.5,1.5V602
		C531.1,602.8,530.4,603.5,529.6,603.5z"/>
	<path class="st6" d="M581.6,552.1v-30.5c0-0.8,0.7-1.5,1.5-1.5h16c0.8,0,1.5,0.7,1.5,1.5V602c0,0.8-0.7,1.5-1.5,1.5h-15.3
		c-0.8,0-1.5-0.7-1.5-1.5v-4.6c-3.6,4.5-9.1,7.7-17.2,7.7c-16,0-27.8-13.2-27.8-30c0-16.7,11.8-29.9,27.8-29.9
		C572.7,545,578,548,581.6,552.1z M556.8,575c0,7.4,5.1,13,12.7,13c7.5,0,12.8-5.5,12.8-13s-5.3-13-12.8-13
		C562,562,556.8,567.6,556.8,575z"/>
</g>
</svg>
