<?xml version="1.0" encoding="utf-8"?>
<!-- Generator: Adobe Illustrator 23.0.1, SVG Export Plug-In . SVG Version: 6.00 Build 0)  -->
<svg version="1.1" id="Layer_1" xmlns="http://www.w3.org/2000/svg" xmlns:xlink="http://www.w3.org/1999/xlink" x="0px" y="0px"
	 viewBox="0 0 680 675" style="enable-background:new 0 0 680 675;" xml:space="preserve">
<style type="text/css">
	.st0{fill:#FF9100;}
	.st1{fill:#E02451;}
	.st2{fill:#CBDD1D;}
	.st3{fill:#0BB5D1;}
	.st4{fill:#051138;}
	.st5{fill:#FFFFFF;}
	.st6{fill:#1A1A1A;}
</style>
<g>
	<g>
		<path class="st0" d="M93.45,72.71h77.56c1.31,0,2.37,1.06,2.37,2.37v18.31c0,1.31-1.06,2.37-2.37,2.37H93.45
			c-1.31,0-2.37-1.06-2.37-2.37V75.07C91.08,73.77,92.14,72.71,93.45,72.71z"/>
		<path class="st1" d="M81.81,102.33h35.59c1.31,0,2.37,1.06,2.37,2.37v18.31c0,1.31-1.06,2.37-2.37,2.37H81.81
			c-1.31,0-2.37-1.06-2.37-2.37V104.7C79.45,103.39,80.51,102.33,81.81,102.33z"/>
		<path class="st2" d="M131.72,102.33h18.31c1.31,0,2.37,1.06,2.37,2.37v18.31c0,1.31-1.06,2.37-2.37,2.37h-18.31
			c-1.31,0-2.37-1.06-2.37-2.37V104.7C129.35,103.39,130.41,102.33,131.72,102.33z"/>
		<path class="st3" d="M171.02,155H93.46c-1.31,0-2.37-1.06-2.37-2.37v-18.31c0-1.31,1.06-2.37,2.37-2.37h77.56
			c1.31,0,2.37,1.06,2.37,2.37v18.31C173.38,153.94,172.32,155,171.02,155z"/>
	</g>
	<g>
		<path class="st4" d="M264.58,125.02c0,1.86-0.12,4.41-0.37,5.62h-40.49c1.58,6.2,6.21,9.1,12.79,9.1c4.17,0,7.3-1.38,9.34-4.36
			c0.27-0.4,0.74-0.62,1.23-0.62h14.29c1.03,0,1.77,0.99,1.46,1.97c-2.08,6.55-10.53,18.26-27.29,18.26
			c-18.75,0-31.48-11.89-31.48-29.63c0-17.92,12.48-30.32,30.62-30.32C252.41,95.05,264.52,107.22,264.58,125.02z M223.79,119.17
			h21.74c-1.52-5.68-5.24-8.7-10.78-8.7C228.85,110.47,225.25,113.54,223.79,119.17z"/>
		<path class="st4" d="M366.22,116.15v35.82c0,0.84-0.68,1.52-1.52,1.52h-16.01c-0.84,0-1.52-0.68-1.52-1.52v-29.38
			c0-6.73-3.53-10.5-9.5-10.5c-5.24,0-9.68,3.42-9.68,10.78v29.09c0,0.84-0.68,1.52-1.52,1.52h-16.01c-0.84,0-1.52-0.68-1.52-1.52
			v-29.38c0-6.73-3.53-10.5-9.44-10.5c-5.3,0-9.68,3.42-9.68,10.78v29.09c0,0.84-0.68,1.52-1.52,1.52h-16.01
			c-0.84,0-1.52-0.68-1.52-1.52V98.13c0-0.84,0.68-1.52,1.52-1.52h15.22c0.84,0,1.52,0.68,1.52,1.52v5.61
			c3.77-5.97,9.8-8.7,17.78-8.7c7.85,0,14.55,3.42,18.2,9.51c4.02-6.55,10.71-9.51,18.93-9.51
			C357.57,95.05,366.22,103.05,366.22,116.15z"/>
		<path class="st4" d="M436.41,124.97c0,16.81-11.87,30.03-27.82,30.03c-8.1,0-13.52-3.13-17.11-7.6v4.57
			c0,0.84-0.68,1.52-1.52,1.52h-15.34c-0.84,0-1.52-0.68-1.52-1.52V71.52c0-0.84,0.68-1.52,1.52-1.52h15.95
			c0.84,0,1.52,0.68,1.52,1.52v30.54c3.59-4.12,8.83-7.02,16.5-7.02C424.54,95.05,436.41,108.27,436.41,124.97z M391.3,125.02
			c0,7.54,5.24,13.05,12.72,13.05c7.67,0,12.78-5.62,12.78-13.05s-5.11-13.05-12.78-13.05C396.53,111.98,391.3,117.49,391.3,125.02z
			"/>
		<path class="st4" d="M506.58,125.02c0,17.22-13.76,29.98-32.45,29.98c-18.63,0-32.39-12.76-32.39-29.98
			c0-17.22,13.76-29.98,32.39-29.98C492.82,95.05,506.58,107.8,506.58,125.02z M461.22,125.02c0,7.65,5.48,13.05,12.91,13.05
			c7.49,0,12.97-5.39,12.97-13.05c0-7.65-5.48-13.05-12.97-13.05C466.7,111.98,461.22,117.37,461.22,125.02z"/>
		<path class="st4" d="M529.6,153.49h-16.01c-0.84,0-1.52-0.68-1.52-1.52V71.52c0-0.84,0.68-1.52,1.52-1.52h16.01
			c0.84,0,1.52,0.68,1.52,1.52v80.45C531.12,152.81,530.44,153.49,529.6,153.49z"/>
		<path class="st4" d="M581.56,102.06V71.52c0-0.84,0.68-1.52,1.52-1.52h15.95c0.84,0,1.52,0.68,1.52,1.52v80.45
			c0,0.84-0.68,1.52-1.52,1.52h-15.34c-0.84,0-1.52-0.68-1.52-1.52v-4.63c-3.59,4.46-9.07,7.65-17.17,7.65
			c-15.95,0-27.76-13.22-27.76-30.03c0-16.7,11.81-29.92,27.82-29.92C572.67,95.05,577.96,97.95,581.56,102.06z M556.84,125.02
			c0,7.42,5.11,13.05,12.72,13.05c7.49,0,12.78-5.51,12.78-13.05c0-7.54-5.3-13.05-12.78-13.05
			C561.95,111.98,556.84,117.6,556.84,125.02z"/>
	</g>
</g>
<g>
	<g>
		<path class="st5" d="M93.45,297.71h77.56c1.31,0,2.37,1.06,2.37,2.37v18.31c0,1.31-1.06,2.37-2.37,2.37H93.45
			c-1.31,0-2.37-1.06-2.37-2.37v-18.31C91.08,298.77,92.14,297.71,93.45,297.71z"/>
		<path class="st5" d="M81.81,327.33h35.59c1.31,0,2.37,1.06,2.37,2.37v18.31c0,1.31-1.06,2.37-2.37,2.37H81.81
			c-1.31,0-2.37-1.06-2.37-2.37V329.7C79.45,328.39,80.51,327.33,81.81,327.33z"/>
		<path class="st5" d="M131.72,327.33h18.31c1.31,0,2.37,1.06,2.37,2.37v18.31c0,1.31-1.06,2.37-2.37,2.37h-18.31
			c-1.31,0-2.37-1.06-2.37-2.37V329.7C129.35,328.39,130.41,327.33,131.72,327.33z"/>
		<path class="st5" d="M171.02,380H93.46c-1.31,0-2.37-1.06-2.37-2.37v-18.31c0-1.31,1.06-2.37,2.37-2.37h77.56
			c1.31,0,2.37,1.06,2.37,2.37v18.31C173.38,378.94,172.32,380,171.02,380z"/>
	</g>
	<g>
		<path class="st5" d="M264.58,350.02c0,1.86-0.12,4.41-0.37,5.62h-40.49c1.58,6.2,6.21,9.1,12.79,9.1c4.17,0,7.3-1.38,9.34-4.36
			c0.27-0.4,0.74-0.62,1.23-0.62h14.29c1.03,0,1.77,0.99,1.46,1.97c-2.08,6.55-10.53,18.26-27.29,18.26
			c-18.75,0-31.48-11.89-31.48-29.63c0-17.92,12.48-30.32,30.62-30.32C252.41,320.05,264.52,332.22,264.58,350.02z M223.79,344.17
			h21.74c-1.52-5.68-5.24-8.7-10.78-8.7C228.85,335.47,225.25,338.54,223.79,344.17z"/>
		<path class="st5" d="M366.22,341.15v35.82c0,0.84-0.68,1.52-1.52,1.52h-16.01c-0.84,0-1.52-0.68-1.52-1.52v-29.38
			c0-6.73-3.53-10.5-9.5-10.5c-5.24,0-9.68,3.42-9.68,10.78v29.09c0,0.84-0.68,1.52-1.52,1.52h-16.01c-0.84,0-1.52-0.68-1.52-1.52
			v-29.38c0-6.73-3.53-10.5-9.44-10.5c-5.3,0-9.68,3.42-9.68,10.78v29.09c0,0.84-0.68,1.52-1.52,1.52h-16.01
			c-0.84,0-1.52-0.68-1.52-1.52v-53.84c0-0.84,0.68-1.52,1.52-1.52h15.22c0.84,0,1.52,0.68,1.52,1.52v5.61
			c3.77-5.97,9.8-8.7,17.78-8.7c7.85,0,14.55,3.42,18.2,9.51c4.02-6.55,10.71-9.51,18.93-9.51
			C357.57,320.05,366.22,328.05,366.22,341.15z"/>
		<path class="st5" d="M436.41,349.97c0,16.81-11.87,30.03-27.82,30.03c-8.1,0-13.52-3.13-17.11-7.6v4.57
			c0,0.84-0.68,1.52-1.52,1.52h-15.34c-0.84,0-1.52-0.68-1.52-1.52v-80.45c0-0.84,0.68-1.52,1.52-1.52h15.95
			c0.84,0,1.52,0.68,1.52,1.52v30.54c3.59-4.12,8.83-7.02,16.5-7.02C424.54,320.05,436.41,333.27,436.41,349.97z M391.3,350.02
			c0,7.54,5.24,13.05,12.72,13.05c7.67,0,12.78-5.62,12.78-13.05s-5.11-13.05-12.78-13.05C396.53,336.98,391.3,342.49,391.3,350.02z
			"/>
		<path class="st5" d="M506.58,350.02c0,17.22-13.76,29.98-32.45,29.98c-18.63,0-32.39-12.76-32.39-29.98
			c0-17.22,13.76-29.98,32.39-29.98C492.82,320.05,506.58,332.8,506.58,350.02z M461.22,350.02c0,7.65,5.48,13.05,12.91,13.05
			c7.49,0,12.97-5.39,12.97-13.05c0-7.65-5.48-13.05-12.97-13.05C466.7,336.98,461.22,342.37,461.22,350.02z"/>
		<path class="st5" d="M529.6,378.49h-16.01c-0.84,0-1.52-0.68-1.52-1.52v-80.45c0-0.84,0.68-1.52,1.52-1.52h16.01
			c0.84,0,1.52,0.68,1.52,1.52v80.45C531.12,377.81,530.44,378.49,529.6,378.49z"/>
		<path class="st5" d="M581.56,327.06v-30.54c0-0.84,0.68-1.52,1.52-1.52h15.95c0.84,0,1.52,0.68,1.52,1.52v80.45
			c0,0.84-0.68,1.52-1.52,1.52h-15.34c-0.84,0-1.52-0.68-1.52-1.52v-4.63c-3.59,4.46-9.07,7.65-17.17,7.65
			c-15.95,0-27.76-13.22-27.76-30.03c0-16.7,11.81-29.92,27.82-29.92C572.67,320.05,577.96,322.95,581.56,327.06z M556.84,350.02
			c0,7.42,5.11,13.05,12.72,13.05c7.49,0,12.78-5.51,12.78-13.05c0-7.54-5.3-13.05-12.78-13.05
			C561.95,336.98,556.84,342.6,556.84,350.02z"/>
	</g>
</g>
<g>
	<g>
		<path class="st6" d="M93.45,522.71h77.56c1.31,0,2.37,1.06,2.37,2.37v18.31c0,1.31-1.06,2.37-2.37,2.37H93.45
			c-1.31,0-2.37-1.06-2.37-2.37v-18.31C91.08,523.77,92.14,522.71,93.45,522.71z"/>
		<path class="st6" d="M81.81,552.33h35.59c1.31,0,2.37,1.06,2.37,2.37v18.31c0,1.31-1.06,2.37-2.37,2.37H81.81
			c-1.31,0-2.37-1.06-2.37-2.37V554.7C79.45,553.39,80.51,552.33,81.81,552.33z"/>
		<path class="st6" d="M131.72,552.33h18.31c1.31,0,2.37,1.06,2.37,2.37v18.31c0,1.31-1.06,2.37-2.37,2.37h-18.31
			c-1.31,0-2.37-1.06-2.37-2.37V554.7C129.35,553.39,130.41,552.33,131.72,552.33z"/>
		<path class="st6" d="M171.02,605H93.46c-1.31,0-2.37-1.06-2.37-2.37v-18.31c0-1.31,1.06-2.37,2.37-2.37h77.56
			c1.31,0,2.37,1.06,2.37,2.37v18.31C173.38,603.94,172.32,605,171.02,605z"/>
	</g>
	<g>
		<path class="st6" d="M264.58,575.02c0,1.86-0.12,4.41-0.37,5.62h-40.49c1.58,6.2,6.21,9.1,12.79,9.1c4.17,0,7.3-1.38,9.34-4.36
			c0.27-0.4,0.74-0.62,1.23-0.62h14.29c1.03,0,1.77,0.99,1.46,1.97c-2.08,6.55-10.53,18.26-27.29,18.26
			c-18.75,0-31.48-11.89-31.48-29.63c0-17.92,12.48-30.32,30.62-30.32C252.41,545.05,264.52,557.22,264.58,575.02z M223.79,569.17
			h21.74c-1.52-5.68-5.24-8.7-10.78-8.7C228.85,560.47,225.25,563.54,223.79,569.17z"/>
		<path class="st6" d="M366.22,566.15v35.82c0,0.84-0.68,1.52-1.52,1.52h-16.01c-0.84,0-1.52-0.68-1.52-1.52v-29.38
			c0-6.73-3.53-10.5-9.5-10.5c-5.24,0-9.68,3.42-9.68,10.78v29.09c0,0.84-0.68,1.52-1.52,1.52h-16.01c-0.84,0-1.52-0.68-1.52-1.52
			v-29.38c0-6.73-3.53-10.5-9.44-10.5c-5.3,0-9.68,3.42-9.68,10.78v29.09c0,0.84-0.68,1.52-1.52,1.52h-16.01
			c-0.84,0-1.52-0.68-1.52-1.52v-53.84c0-0.84,0.68-1.52,1.52-1.52h15.22c0.84,0,1.52,0.68,1.52,1.52v5.61
			c3.77-5.97,9.8-8.7,17.78-8.7c7.85,0,14.55,3.42,18.2,9.51c4.02-6.55,10.71-9.51,18.93-9.51
			C357.57,545.05,366.22,553.05,366.22,566.15z"/>
		<path class="st6" d="M436.41,574.97c0,16.81-11.87,30.03-27.82,30.03c-8.1,0-13.52-3.13-17.11-7.6v4.57
			c0,0.84-0.68,1.52-1.52,1.52h-15.34c-0.84,0-1.52-0.68-1.52-1.52v-80.45c0-0.84,0.68-1.52,1.52-1.52h15.95
			c0.84,0,1.52,0.68,1.52,1.52v30.54c3.59-4.12,8.83-7.02,16.5-7.02C424.54,545.05,436.41,558.27,436.41,574.97z M391.3,575.02
			c0,7.54,5.24,13.05,12.72,13.05c7.67,0,12.78-5.62,12.78-13.05c0-7.42-5.11-13.05-12.78-13.05
			C396.53,561.98,391.3,567.49,391.3,575.02z"/>
		<path class="st6" d="M506.58,575.02c0,17.22-13.76,29.98-32.45,29.98c-18.63,0-32.39-12.76-32.39-29.98
			c0-17.22,13.76-29.98,32.39-29.98C492.82,545.05,506.58,557.8,506.58,575.02z M461.22,575.02c0,7.65,5.48,13.05,12.91,13.05
			c7.49,0,12.97-5.39,12.97-13.05c0-7.65-5.48-13.05-12.97-13.05C466.7,561.98,461.22,567.37,461.22,575.02z"/>
		<path class="st6" d="M529.6,603.49h-16.01c-0.84,0-1.52-0.68-1.52-1.52v-80.45c0-0.84,0.68-1.52,1.52-1.52h16.01
			c0.84,0,1.52,0.68,1.52,1.52v80.45C531.12,602.81,530.44,603.49,529.6,603.49z"/>
		<path class="st6" d="M581.56,552.06v-30.54c0-0.84,0.68-1.52,1.52-1.52h15.95c0.84,0,1.52,0.68,1.52,1.52v80.45
			c0,0.84-0.68,1.52-1.52,1.52h-15.34c-0.84,0-1.52-0.68-1.52-1.52v-4.63c-3.59,4.46-9.07,7.65-17.17,7.65
			c-15.95,0-27.76-13.22-27.76-30.03c0-16.7,11.81-29.92,27.82-29.92C572.67,545.05,577.96,547.95,581.56,552.06z M556.84,575.02
			c0,7.42,5.11,13.05,12.72,13.05c7.49,0,12.78-5.51,12.78-13.05c0-7.54-5.3-13.05-12.78-13.05
			C561.95,561.98,556.84,567.6,556.84,575.02z"/>
	</g>
</g>
</svg>
