<?xml version="1.0" encoding="utf-8"?>
<!-- Generator: Adobe Illustrator 23.0.1, SVG Export Plug-In . SVG Version: 6.00 Build 0)  -->
<svg version="1.1" id="Layer_1" xmlns="http://www.w3.org/2000/svg" xmlns:xlink="http://www.w3.org/1999/xlink" x="0px" y="0px"
	 viewBox="0 0 1024 493" style="enable-background:new 0 0 1024 493;" xml:space="preserve">
<style type="text/css">
	.st0{fill:#213351;}
	.st1{font-family:'Ubuntu';}
	.st2{font-size:18px;}
	.st3{font-family:'Ubuntu-Bold';}
	.st4{font-size:40px;}
	.st5{font-family:'GTWalsheimProTrial-Regular';}
	.st6{font-family:'GTWalsheimProTrial-Bold';}
	.st7{fill:none;}
	.st8{fill:#506682;}
	.st9{fill:#8EA0B1;}
	.st10{font-size:16px;}
	.st11{font-size:17px;}
</style>
<text transform="matrix(1 0 0 1 40.333 54.4751)"><tspan x="0" y="0" class="st0 st1 st2">in Website</tspan><tspan x="0" y="40" class="st0 st3 st4">Ubuntu</tspan></text>
<text transform="matrix(1 0 0 1 545.333 54.5381)"><tspan x="0" y="0" class="st0 st5 st2">in Printed Materials</tspan><tspan x="0" y="40" class="st0 st6 st4">GT Walsheim</tspan></text>
<rect x="545.33" y="137.07" class="st7" width="435.41" height="45.21"/>
<text transform="matrix(1 0 0 1 545.3331 149.6671)"><tspan x="0" y="0" class="st8 st5 st2">We believe that strong application come from </tspan><tspan x="372.5" y="0" class="st8 st6 st2">bold</tspan><tspan x="410.52" y="0" class="st8 st5 st2"> </tspan><tspan x="0" y="24" class="st8 st5 st2">codes. We trust power of </tspan><tspan x="205.66" y="24" class="st8 st6 st2">bold</tspan><tspan x="243.68" y="24" class="st8 st5 st2"> codes.</tspan></text>
<rect x="40.33" y="137.19" class="st7" width="435.41" height="45.21"/>
<text transform="matrix(1 0 0 1 40.3332 151.153)"><tspan x="0" y="0" class="st8 st1 st2">We believe that strong application come from </tspan><tspan x="378.03" y="0" class="st8 st3 st2">bold </tspan><tspan x="0" y="24" class="st8 st1 st2">codes. We trust power of </tspan><tspan x="209.25" y="24" class="st8 st3 st2">bold </tspan><tspan x="251.92" y="24" class="st8 st1 st2">codes.</tspan></text>
<rect x="545.33" y="219.21" class="st7" width="435.41" height="155.21"/>
<text transform="matrix(1 0 0 1 545.3331 230.4077)"><tspan x="0" y="0" class="st9 st5 st10">Sed in ullamcorper mauris, vel convallis mauris. Interdum et </tspan><tspan x="0" y="23" class="st9 st5 st10">malesuada fames ac ante ipsum primis in faucibus. Vivamus </tspan><tspan x="0" y="46" class="st9 st5 st10">dui velit, blandit vel ipsum non, interdum viverra tellus. Sus</tspan><tspan x="417.9" y="46" class="st9 st5 st10">-</tspan><tspan x="0" y="69" class="st9 st5 st10">pendisse pretium gravida bibendum. Quisque hendrerit </tspan><tspan x="0" y="92" class="st9 st5 st10">lectus dui, eget convallis velit consectetur nec. Proin venena</tspan><tspan x="428.06" y="92" class="st9 st5 st10">-</tspan><tspan x="0" y="115" class="st9 st5 st10">tis augue eget justo posuere, ac ultrices enim feugiat. Nam </tspan><tspan x="0" y="138" class="st9 st5 st10">ac dictum leo.</tspan></text>
<rect x="545.33" y="411.35" class="st7" width="435.41" height="40.65"/>
<text transform="matrix(1 0 0 1 545.3331 423.2488)"><tspan x="0" y="0" class="st0 st5 st11">Aa Bb Cc Dd Ee Ff Gg Hh Ii Jj Kk Ll Mm Nn Oo Pp Qq Rr </tspan><tspan x="0" y="23" class="st0 st5 st11">Ss Tt Uu Vv Ww Xx Yy Zz</tspan></text>
<rect x="40.33" y="411.35" class="st7" width="435.41" height="40.65"/>
<text transform="matrix(1 0 0 1 40.3331 424.5408)"><tspan x="0" y="0" class="st0 st1 st11">Aa Bb Cc Dd Ee Ff Gg Hh Ii Jj Kk Ll Mm Nn Oo Pp Qq Rr </tspan><tspan x="0" y="23" class="st0 st1 st11">Ss Tt Uu Vv Ww Xx Yy Zz</tspan></text>
<rect x="40.33" y="219.27" class="st7" width="435.41" height="155.21"/>
<text transform="matrix(1 0 0 1 40.3332 231.6826)"><tspan x="0" y="0" class="st9 st1 st10">Sed in ullamcorper mauris, vel convallis mauris. Interdum et </tspan><tspan x="0" y="23" class="st9 st1 st10">malesuada fames ac ante ipsum primis in faucibus. Vivamus </tspan><tspan x="0" y="46" class="st9 st1 st10">dui velit, blandit vel ipsum non, interdum viverra tellus. Sus</tspan><tspan x="425.69" y="46" class="st9 st1 st10">-</tspan><tspan x="0" y="69" class="st9 st1 st10">pendisse pretium gravida bibendum. Quisque hendrerit </tspan><tspan x="0" y="92" class="st9 st1 st10">lectus dui, eget convallis velit consectetur nec. Proin </tspan><tspan x="0" y="115" class="st9 st1 st10">venenatis augue eget justo posuere, ac ultrices enim feu</tspan><tspan x="407.49" y="115" class="st9 st1 st10">-</tspan><tspan x="0" y="138" class="st9 st1 st10">giat. Nam ac dictum leo.</tspan></text>
</svg>
