<?xml version="1.0" encoding="utf-8"?>
<!-- Generator: Adobe Illustrator 24.2.1, SVG Export Plug-In . SVG Version: 6.00 Build 0)  -->
<svg version="1.1" id="Layer_1" xmlns="http://www.w3.org/2000/svg" xmlns:xlink="http://www.w3.org/1999/xlink" x="0px" y="0px"
	 viewBox="0 0 28 28" style="enable-background:new 0 0 28 28;" xml:space="preserve">
<style type="text/css">
	.st0{fill:none;stroke:#C0C1C6;stroke-width:1.5;stroke-linecap:round;stroke-linejoin:round;}
</style>
<g id="Group_4477" transform="translate(-10.25 -4.25)">
	<path id="Path_5619" class="st0" d="M17.67,11.16v13.5c0,1.77,2.95,3.21,6.58,3.21s6.58-1.44,6.58-3.21v-13.5"/>
	<path id="Path_5620" class="st0" d="M30.83,11.17c0,1.64-2.95,2.96-6.58,2.96s-6.58-1.32-6.58-2.96s2.95-2.54,6.58-2.54
		S30.83,9.53,30.83,11.17z"/>
	<path id="Path_5621" class="st0" d="M30.83,15.5c0,1.77-2.95,3.21-6.58,3.21s-6.58-1.44-6.58-3.21"/>
	<path id="Path_5622" class="st0" d="M30.83,20.08c0,1.77-2.95,3.21-6.58,3.21s-6.58-1.44-6.58-3.21"/>
</g>
</svg>
