<?xml version="1.0" encoding="utf-8"?>
<!-- Generator: Adobe Illustrator 24.2.1, SVG Export Plug-In . SVG Version: 6.00 Build 0)  -->
<svg version="1.1" id="Layer_1" xmlns="http://www.w3.org/2000/svg" xmlns:xlink="http://www.w3.org/1999/xlink" x="0px" y="0px"
	 viewBox="0 0 28 28" style="enable-background:new 0 0 28 28;" xml:space="preserve">
<style type="text/css">
	.st0{fill:#00CA35;}
	.st1{fill:#FFFFFF;}
</style>
<path id="Path_2189" class="st0" d="M22.89,1.55c1.96,1.12,2.64,3.63,1.52,5.59c-1.12,1.96-3.63,2.64-5.59,1.52
	c-1.96-1.12-2.64-3.63-1.52-5.59c0,0,0-0.01,0.01-0.01c1.1-1.95,3.58-2.64,5.53-1.54C22.85,1.53,22.87,1.54,22.89,1.55z"/>
<g id="Group_2577" transform="translate(-335.227 1.012)">
	<g id="Group_1704" transform="translate(-1467.999 -25.502)">
		<g id="Group_1684" transform="translate(1803.999 30)">
			<path id="Path_2863" class="st1" d="M15.46,18.11c-0.03,1.9-1.6,3.41-3.49,3.38c-1.86-0.03-3.35-1.53-3.38-3.38"/>
			<path id="Path_2864_2_" class="st1" d="M8.96,2.18c0-1.69,1.37-3.06,3.06-3.06s3.06,1.37,3.06,3.06c0,0-1.27-0.69-3.06-0.69
				S8.96,2.18,8.96,2.18z"/>
			<path id="Path_2865" class="st1" d="M19.45,9.58c-0.01-4.1-3.34-7.41-7.43-7.4c-0.12,0-0.24,0-0.35,0.01
				c-4,0.25-7.11,3.59-7.07,7.6v2.81c0,0.25-0.08,0.5-0.22,0.71l-1.88,2.81C2.1,16.7,2.26,17.5,2.84,17.89
				c0.21,0.14,0.46,0.22,0.72,0.22h16.91c0.71,0,1.28-0.57,1.29-1.27c0-0.26-0.07-0.51-0.22-0.72l-1.88-2.81
				c-0.14-0.21-0.22-0.46-0.22-0.71L19.45,9.58z"/>
		</g>
	</g>
</g>
</svg>
