<?xml version="1.0" encoding="utf-8"?>
<!-- Generator: Adobe Illustrator 24.2.1, SVG Export Plug-In . SVG Version: 6.00 Build 0)  -->
<svg version="1.1" id="Layer_1" xmlns="http://www.w3.org/2000/svg" xmlns:xlink="http://www.w3.org/1999/xlink" x="0px" y="0px"
	 viewBox="0 0 28 28" style="enable-background:new 0 0 28 28;" xml:space="preserve">
<style type="text/css">
	.st0{fill:#FFFFFF;}
</style>
<path id="Path_3157" class="st0" d="M14,2C7.37,2,2,7.37,2,14s5.37,12,12,12s12-5.37,12-12S20.63,2,14,2z M15.1,20.61h-2.43v-2.94
	h2.43V20.61z M16.23,14.15c-0.7,0.52-1.12,1.35-1.13,2.22v0.19h-2.43v-0.32c0-1.17,0.43-2.11,1.86-3.37
	c0.68-0.49,1.09-1.27,1.09-2.11c0.05-0.79-0.55-1.48-1.35-1.53c-0.07,0-0.14,0-0.22,0c-1.17,0-1.64,0.77-1.77,1.81H10
	c0.07-2.1,1.84-3.74,3.93-3.66c0.06,0,0.13,0.01,0.19,0.01C17.1,7.41,18,9.37,18,10.82C18,12.06,17.61,12.89,16.23,14.15
	L16.23,14.15z"/>
</svg>
