<?xml version="1.0" encoding="utf-8"?>
<!-- Generator: Adobe Illustrator 24.2.1, SVG Export Plug-In . SVG Version: 6.00 Build 0)  -->
<svg version="1.1" id="Layer_1" xmlns="http://www.w3.org/2000/svg" xmlns:xlink="http://www.w3.org/1999/xlink" x="0px" y="0px"
	 viewBox="0 0 28 28" style="enable-background:new 0 0 28 28;" xml:space="preserve">
<style type="text/css">
	.st0{fill:#C0C1C6;}
</style>
<g id="filled">
	<path id="Path_2932" class="st0" d="M6.27,9.7h11.17c0.47,0,0.86-0.38,0.86-0.86s-0.38-0.86-0.86-0.86H6.27
		c-0.47,0-0.86,0.38-0.86,0.86S5.79,9.7,6.27,9.7z"/>
	<path id="Path_2933" class="st0" d="M21.74,11.42H6.27c-0.47,0-0.86,0.38-0.86,0.86c0,0.47,0.38,0.86,0.86,0.86h15.47
		c0.47,0,0.86-0.38,0.86-0.86C22.59,11.81,22.21,11.42,21.74,11.42z"/>
	<path id="Path_2934" class="st0" d="M6.27,16.58h8.16c0.47,0,0.86-0.38,0.86-0.86c0-0.47-0.38-0.86-0.86-0.86H6.27
		c-0.47,0-0.86,0.38-0.86,0.86C5.41,16.19,5.79,16.58,6.27,16.58z"/>
	<path id="Path_2935" class="st0" d="M19.16,18.3H6.27c-0.47,0-0.86,0.38-0.86,0.86c0,0.47,0.38,0.86,0.86,0.86h12.89
		c0.47,0,0.86-0.38,0.86-0.86C20.02,18.68,19.63,18.3,19.16,18.3z"/>
</g>
</svg>
