<?xml version="1.0" encoding="utf-8"?>
<!-- Generator: Adobe Illustrator 24.3.0, SVG Export Plug-In . SVG Version: 6.00 Build 0)  -->
<svg version="1.1" id="Layer_1" xmlns="http://www.w3.org/2000/svg" xmlns:xlink="http://www.w3.org/1999/xlink" x="0px" y="0px"
	 viewBox="0 0 24 24" style="enable-background:new 0 0 24 24;" xml:space="preserve">
<style type="text/css">
	.st0{fill:#85888E;}
</style>
<g id="filled">
	<path id="Path_2339" class="st0" d="M1.16,6h15.6c0.66,0.02,1.22-0.5,1.24-1.16c0.02-0.66-0.5-1.22-1.16-1.24
		c-0.03,0-0.06,0-0.08,0H1.16C0.5,3.62-0.02,4.18,0,4.84C0.02,5.47,0.53,5.98,1.16,6z"/>
	<g id="Group_4521">
		<path id="Path_2340" class="st0" d="M22.76,8.4H1.16C0.5,8.42-0.02,8.98,0,9.64c0.02,0.63,0.53,1.14,1.16,1.16h21.6
			c0.66,0.02,1.22-0.5,1.24-1.16c0.02-0.66-0.5-1.22-1.16-1.24C22.81,8.4,22.79,8.4,22.76,8.4z"/>
	</g>
	<path id="Path_2341" class="st0" d="M1.16,15.6h11.4c0.66,0.02,1.22-0.5,1.24-1.16c0.02-0.66-0.5-1.22-1.16-1.24
		c-0.03,0-0.06,0-0.08,0H1.16C0.5,13.22-0.02,13.78,0,14.44C0.02,15.07,0.53,15.58,1.16,15.6z"/>
	<path id="Path_2342" class="st0" d="M19.16,18h-18C0.5,18.02-0.02,18.58,0,19.24c0.02,0.63,0.53,1.14,1.16,1.16h18
		c0.66,0.02,1.22-0.5,1.24-1.16c0.02-0.66-0.5-1.22-1.16-1.24C19.21,18,19.19,18,19.16,18z"/>
</g>
</svg>
