<?xml version="1.0" encoding="utf-8"?>
<!-- Generator: Adobe Illustrator 24.3.0, SVG Export Plug-In . SVG Version: 6.00 Build 0)  -->
<svg version="1.1" id="Layer_1" xmlns="http://www.w3.org/2000/svg" xmlns:xlink="http://www.w3.org/1999/xlink" x="0px" y="0px"
	 viewBox="0 0 24 24" style="enable-background:new 0 0 24 24;" xml:space="preserve">
<style type="text/css">
	.st0{fill:#D9D9D9;}
</style>
<g id="outlines">
	<path id="Path_2971" class="st0" d="M13.88,16.6c2.33-0.28,4.8-1.13,4.8-5.17c0.02-1.04-0.36-2.04-1.06-2.81
		c0.3-0.9,0.26-1.89-0.13-2.76c0,0-0.85-0.28-2.84,1.06C13.78,6.69,12.89,6.56,12,6.55c-0.9,0.01-1.79,0.14-2.66,0.38
		C7.32,5.59,6.47,5.87,6.47,5.87C6.09,6.74,6.04,7.72,6.34,8.63c-0.7,0.77-1.08,1.77-1.06,2.81c0,4.04,2.49,4.89,4.8,5.17
		c-0.36,0.38-0.59,0.87-0.64,1.4c-1.09,0.61-2.47,0.22-3.08-0.87c-0.34-0.58-0.92-0.97-1.59-1.06c0,0-1.04,0-0.09,0.64
		c0.58,0.34,1,0.89,1.2,1.53c0,0,0.64,2.02,3.57,1.39v1.8c0,0.28-0.21,0.6-0.74,0.51c-5.49-1.84-8.46-7.78-6.62-13.27
		S9.86,0.2,15.35,2.04s8.46,7.78,6.62,13.27c-1.04,3.13-3.5,5.58-6.62,6.62c-0.53,0.11-0.74-0.22-0.74-0.51v-2.89
		c0.06-0.72-0.2-1.42-0.7-1.93L13.88,16.6z M24,12c0-6.63-5.37-12-12-12S0,5.37,0,12s5.37,12,12,12S24,18.63,24,12z"/>
</g>
</svg>
