<?xml version="1.0" encoding="utf-8"?>
<!-- Generator: Adobe Illustrator 24.3.0, SVG Export Plug-In . SVG Version: 6.00 Build 0)  -->
<svg version="1.1" id="Layer_1" xmlns="http://www.w3.org/2000/svg" xmlns:xlink="http://www.w3.org/1999/xlink" x="0px" y="0px"
	 viewBox="0 0 104 48" style="enable-background:new 0 0 104 48;" xml:space="preserve">
<style type="text/css">
	.st0{fill:#85888E;}
</style>
<g id="Group_1988" transform="translate(0)">
	<g id="noun_buildings_807884" transform="translate(0)">
		<path id="Path_3024" class="st0" d="M103.55,46.78h-1.29v-1.66c1.04-0.33,1.62-1.43,1.29-2.46c-0.33-1.03-1.44-1.61-2.48-1.28
			c-0.83,0.26-1.39,1.03-1.38,1.89c0.01,0.82,0.52,1.56,1.29,1.85v1.72H97.5v-1.67c1.12-0.28,1.92-1.28,1.93-2.43
			c0.01-0.79-0.37-1.53-1.03-1.98c0.39-0.39,0.59-0.92,0.58-1.47c0-1.16-0.95-2.11-2.12-2.11s-2.12,0.94-2.12,2.11
			c0.01,0.54,0.22,1.06,0.58,1.47c-0.64,0.46-1.03,1.19-1.03,1.98c0,1.11,0.73,2.1,1.8,2.43v1.66h-2.44V10.18
			c0.02-0.33-0.23-0.62-0.56-0.64c-0.03,0-0.06,0-0.08,0h-0.32C92.49,8.52,91.89,7.61,91,7.05c-0.06-1.41-0.96-2.62-2-2.62h-0.52
			V0.66C88.5,0.31,88.23,0.01,87.87,0c-0.36-0.01-0.65,0.26-0.67,0.61c0,0.02,0,0.03,0,0.05v3.7h-0.7c-0.96,0-1.87,1.28-2,2.62
			c-0.88,0.56-1.49,1.47-1.67,2.49h-0.32c-0.33-0.02-0.62,0.23-0.64,0.56c0,0.03,0,0.06,0,0.08v8.62h-5.15v-6.13
			c0.02-0.33-0.23-0.62-0.56-0.64c-0.03,0-0.06,0-0.08,0h-0.26c-0.09-1.16-0.74-2.2-1.74-2.81c-0.06-1.41-0.96-2.62-2-2.62h-0.7
			V2.84c0.01-0.35-0.26-0.65-0.62-0.66c-0.36-0.01-0.65,0.26-0.67,0.61c0,0.02,0,0.03,0,0.05v3.7h-0.7c-0.96,0-1.87,1.28-2,2.62
			c-0.99,0.62-1.63,1.66-1.74,2.81h-0.26c-0.33-0.02-0.62,0.23-0.64,0.56c0,0.03,0,0.06,0,0.08v10.48h-1.22l-0.51-6.58
			c-0.03-0.33-0.31-0.58-0.64-0.58h-1.61c-0.33-0.01-0.61,0.25-0.64,0.58l-0.45,6.58h-0.51c-0.33-0.02-0.62,0.23-0.64,0.56
			c0,0.03,0,0.06,0,0.08v23.06h-3.6v-1.72c1.17-0.26,2-1.3,1.99-2.49c0.01-0.81-0.37-1.57-1.03-2.04c0.42-0.4,0.65-0.96,0.64-1.53
			c-0.01-1.19-0.99-2.16-2.19-2.17c-1.2-0.01-2.18,0.95-2.19,2.14c0,0.01,0,0.02,0,0.04c0.01,0.57,0.24,1.12,0.64,1.53
			c-1.13,0.83-1.37,2.42-0.53,3.54c0.34,0.45,0.82,0.78,1.36,0.93v1.72H0.65C0.31,46.7,0.02,46.95,0,47.28c0,0.03,0,0.06,0,0.08
			c-0.02,0.33,0.23,0.62,0.56,0.64c0.03,0,0.06,0,0.08,0h102.71c0.33,0.02,0.62-0.23,0.64-0.56c0-0.03,0-0.06,0-0.08
			C104,46.97,103.87,46.78,103.55,46.78z M54.52,38.16c0.5,0.01,0.9,0.41,0.91,0.9c0.01,0.48-0.37,0.88-0.85,0.9
			c-0.02,0-0.04,0-0.05,0c-0.49,0.01-0.89-0.36-0.91-0.85c0-0.02,0-0.04,0-0.05C53.62,38.57,54.02,38.17,54.52,38.16z M53.23,42.57
			c0-0.71,0.58-1.28,1.29-1.28s1.29,0.57,1.29,1.28c0,0.71-0.58,1.28-1.29,1.28c0,0,0,0,0,0C53.81,43.84,53.23,43.27,53.23,42.57z
			 M69.51,7.82h2.64c0.33,0.25,0.56,0.62,0.64,1.02h-3.86C69.03,8.45,69.23,8.1,69.51,7.82z M68.67,10.11h4.38
			c0.85,0.28,1.45,1.03,1.54,1.92h-7.46C67.22,11.15,67.82,10.4,68.67,10.11z M61.15,17.2h0.83l0.45,5.88h-1.66L61.15,17.2z
			 M66.03,46.78h-2.25v-2.94c-0.03-0.63,0.47-1.17,1.11-1.2c0.64-0.03,1.18,0.47,1.21,1.1c0,0.03,0,0.06,0,0.1v2.94L66.03,46.78z
			 M70.34,46.78h-3.02v-2.94c0-1.34-1.09-2.43-2.44-2.43s-2.44,1.09-2.44,2.43v2.94h-2.51V24.36h10.36v22.42L70.34,46.78z
			 M75.49,46.78h-3.86V23.72c0.02-0.33-0.23-0.62-0.56-0.64c-0.03,0-0.06,0-0.08,0h-4.76v-9.77h9.27L75.49,46.78z M86.5,5.65h2.64
			c0.33,0.25,0.56,0.62,0.64,1.02h-3.86C85.99,6.27,86.19,5.91,86.5,5.65z M85.66,7.94h4.38c0.45,0,1.22,0.64,1.48,1.53h-7.34
			C84.44,8.59,85.21,7.95,85.66,7.94L85.66,7.94z M83.15,46.78H80.9v-2.94c0.03-0.63,0.57-1.13,1.21-1.1c0.6,0.02,1.08,0.5,1.11,1.1
			v2.94H83.15z M87.2,46.78h-2.77v-2.94c0-1.34-1.09-2.43-2.44-2.43s-2.44,1.09-2.44,2.43v2.94h-2.77V20.01H87.2V46.78z
			 M92.48,46.78h-3.99v-27.4c0.02-0.33-0.23-0.62-0.56-0.64c-0.03,0-0.06,0-0.08,0h-4.63v-7.92h9.27L92.48,46.78z M96.86,38.41
			c0.46,0,0.84,0.37,0.84,0.83c0,0.46-0.37,0.83-0.84,0.83c-0.46,0-0.84-0.37-0.84-0.83C96.03,38.79,96.4,38.42,96.86,38.41
			L96.86,38.41z M95.63,42.69c0-0.67,0.55-1.21,1.22-1.21c0,0,0,0,0,0c0.68,0,1.22,0.54,1.22,1.21s-0.55,1.21-1.22,1.21
			C96.18,43.91,95.63,43.37,95.63,42.69C95.63,42.7,95.63,42.7,95.63,42.69z M101.68,43.91c-0.39,0-0.7-0.31-0.7-0.7
			c0-0.39,0.32-0.7,0.7-0.7c0.39,0,0.7,0.31,0.7,0.7C102.38,43.59,102.07,43.9,101.68,43.91z"/>
		<path id="Path_3025" class="st0" d="M62.56,28.45c0.33,0.02,0.62-0.23,0.64-0.56c0-0.03,0-0.06,0-0.08v-0.9
			c0.01-0.35-0.26-0.65-0.62-0.66s-0.65,0.26-0.67,0.61c0,0.02,0,0.03,0,0.05v0.9C61.92,28.16,62.21,28.45,62.56,28.45z"/>
		<path id="Path_3026" class="st0" d="M65.2,28.45c0.33,0.02,0.62-0.23,0.64-0.56c0-0.03,0-0.06,0-0.08v-0.9
			c0.01-0.35-0.26-0.65-0.62-0.66s-0.65,0.26-0.67,0.61c0,0.02,0,0.03,0,0.05v0.9c-0.02,0.33,0.23,0.62,0.56,0.64
			C65.15,28.45,65.17,28.45,65.2,28.45z"/>
		<path id="Path_3027" class="st0" d="M67.77,28.45c0.33,0.02,0.62-0.23,0.64-0.56c0-0.03,0-0.06,0-0.08v-0.9
			c0.01-0.35-0.26-0.65-0.62-0.66s-0.65,0.26-0.67,0.61c0,0.02,0,0.03,0,0.05v0.9C67.13,28.16,67.42,28.45,67.77,28.45z"/>
		<path id="Path_3028" class="st0" d="M62.56,32.09c0.33,0.02,0.62-0.23,0.64-0.56c0-0.03,0-0.06,0-0.08v-0.9
			c0.01-0.35-0.26-0.65-0.62-0.66c-0.36-0.01-0.65,0.26-0.67,0.61c0,0.02,0,0.03,0,0.05v0.9C61.94,31.79,62.22,32.07,62.56,32.09z"
			/>
		<path id="Path_3029" class="st0" d="M65.2,32.09c0.33,0.02,0.62-0.23,0.64-0.56c0-0.03,0-0.06,0-0.08v-0.9
			c0.01-0.35-0.26-0.65-0.62-0.66c-0.36-0.01-0.65,0.26-0.67,0.61c0,0.02,0,0.03,0,0.05v0.9C64.56,31.8,64.85,32.09,65.2,32.09z"/>
		<path id="Path_3030" class="st0" d="M67.77,32.09c0.33,0.02,0.62-0.23,0.64-0.56c0-0.03,0-0.06,0-0.08v-0.9
			c0.01-0.35-0.26-0.65-0.62-0.66c-0.36-0.01-0.65,0.26-0.67,0.61c0,0.02,0,0.03,0,0.05v0.9C67.15,31.79,67.43,32.07,67.77,32.09z"
			/>
		<path id="Path_3031" class="st0" d="M62.56,35.67c0.33,0.02,0.62-0.23,0.64-0.56c0-0.03,0-0.06,0-0.08v-0.9
			c-0.01-0.35-0.31-0.63-0.67-0.61c-0.34,0.01-0.6,0.28-0.62,0.61v0.9C61.94,35.37,62.22,35.64,62.56,35.67z"/>
		<path id="Path_3032" class="st0" d="M65.2,35.67c0.33,0.02,0.62-0.23,0.64-0.56c0-0.03,0-0.06,0-0.08v-0.9
			c-0.01-0.35-0.31-0.63-0.67-0.61c-0.34,0.01-0.6,0.28-0.62,0.61v0.9C64.56,35.38,64.85,35.67,65.2,35.67z"/>
		<path id="Path_3033" class="st0" d="M67.77,35.67c0.33,0.02,0.62-0.23,0.64-0.56c0-0.03,0-0.06,0-0.08v-0.9
			c-0.01-0.35-0.31-0.63-0.67-0.61c-0.34,0.01-0.6,0.28-0.62,0.61v0.9C67.15,35.37,67.43,35.64,67.77,35.67z"/>
		<path id="Path_3034" class="st0" d="M62.56,39.25c0.33,0.02,0.62-0.23,0.64-0.56c0-0.03,0-0.06,0-0.08v-0.9
			c0.01-0.35-0.26-0.65-0.62-0.66c-0.36-0.01-0.65,0.26-0.67,0.61c0,0.02,0,0.03,0,0.05v0.9C61.92,38.96,62.21,39.24,62.56,39.25z"
			/>
		<path id="Path_3035" class="st0" d="M65.2,39.25c0.33,0.02,0.62-0.23,0.64-0.56c0-0.03,0-0.06,0-0.08v-0.9
			c0.01-0.35-0.26-0.65-0.62-0.66c-0.36-0.01-0.65,0.26-0.67,0.61c0,0.02,0,0.03,0,0.05v0.9c-0.02,0.33,0.23,0.62,0.56,0.64
			C65.15,39.25,65.17,39.25,65.2,39.25z"/>
		<path id="Path_3036" class="st0" d="M67.77,39.25c0.33,0.02,0.62-0.23,0.64-0.56c0-0.03,0-0.06,0-0.08v-0.9
			c0.01-0.35-0.26-0.65-0.62-0.66c-0.36-0.01-0.65,0.26-0.67,0.61c0,0.02,0,0.03,0,0.05v0.9C67.13,38.96,67.42,39.24,67.77,39.25z"
			/>
		<path id="Path_3037" class="st0" d="M79.42,25c0.33,0.02,0.62-0.23,0.64-0.56c0-0.03,0-0.06,0-0.08v-1.15
			c0.01-0.35-0.26-0.65-0.62-0.66c-0.36-0.01-0.65,0.26-0.67,0.61c0,0.02,0,0.03,0,0.05v1.15C78.78,24.71,79.07,25,79.42,25z"/>
		<path id="Path_3038" class="st0" d="M81.99,25c0.33,0.02,0.62-0.23,0.64-0.56c0-0.03,0-0.06,0-0.08v-1.15
			c0.01-0.35-0.26-0.65-0.62-0.66c-0.36-0.01-0.65,0.26-0.67,0.61c0,0.02,0,0.03,0,0.05v1.15C81.37,24.7,81.65,24.98,81.99,25z"/>
		<path id="Path_3039" class="st0" d="M84.63,25c0.33,0.02,0.62-0.23,0.64-0.56c0-0.03,0-0.06,0-0.08v-1.15
			c0.01-0.35-0.26-0.65-0.62-0.66c-0.36-0.01-0.65,0.26-0.67,0.61c0,0.02,0,0.03,0,0.05v1.15C83.99,24.71,84.28,25,84.63,25z"/>
		<path id="Path_3040" class="st0" d="M79.42,29.79c0.33,0.02,0.62-0.23,0.64-0.56c0-0.03,0-0.06,0-0.08V28
			c-0.01-0.35-0.31-0.63-0.67-0.61c-0.34,0.01-0.6,0.28-0.62,0.61v1.15c-0.02,0.33,0.23,0.62,0.56,0.64
			C79.37,29.79,79.39,29.79,79.42,29.79z"/>
		<path id="Path_3041" class="st0" d="M81.99,29.79c0.33,0.02,0.62-0.23,0.64-0.56c0-0.03,0-0.06,0-0.08V28
			c-0.01-0.35-0.31-0.63-0.67-0.61c-0.34,0.01-0.6,0.28-0.62,0.61v1.15C81.35,29.51,81.64,29.79,81.99,29.79z"/>
		<path id="Path_3042" class="st0" d="M84.63,29.79c0.33,0.02,0.62-0.23,0.64-0.56c0-0.03,0-0.06,0-0.08V28
			c-0.01-0.35-0.31-0.63-0.67-0.61C84.27,27.4,84,27.67,83.99,28v1.15c-0.02,0.33,0.23,0.62,0.56,0.64
			C84.58,29.79,84.61,29.79,84.63,29.79z"/>
		<path id="Path_3043" class="st0" d="M79.42,34.58c0.33,0.02,0.62-0.23,0.64-0.56c0-0.03,0-0.06,0-0.08v-1.15
			c-0.01-0.35-0.31-0.63-0.67-0.61c-0.34,0.01-0.6,0.28-0.62,0.61v1.15c-0.02,0.33,0.23,0.62,0.56,0.64
			C79.37,34.58,79.39,34.58,79.42,34.58z"/>
		<path id="Path_3044" class="st0" d="M81.99,34.58c0.33,0.02,0.62-0.23,0.64-0.56c0-0.03,0-0.06,0-0.08v-1.15
			c0.01-0.35-0.26-0.65-0.62-0.66c-0.36-0.01-0.65,0.26-0.67,0.61c0,0.02,0,0.03,0,0.05v1.15C81.35,34.3,81.64,34.58,81.99,34.58z"
			/>
		<path id="Path_3045" class="st0" d="M84.63,34.58c0.33,0.02,0.62-0.23,0.64-0.56c0-0.03,0-0.06,0-0.08v-1.15
			c0.01-0.35-0.26-0.65-0.62-0.66c-0.36-0.01-0.65,0.26-0.67,0.61c0,0.02,0,0.03,0,0.05v1.15c-0.02,0.33,0.23,0.62,0.56,0.64
			C84.58,34.58,84.61,34.58,84.63,34.58z"/>
		<path id="Path_3046" class="st0" d="M79.42,39.44c0.33,0.02,0.62-0.23,0.64-0.56c0-0.03,0-0.06,0-0.08v-1.15
			c0.01-0.35-0.26-0.65-0.62-0.66c-0.36-0.01-0.65,0.26-0.67,0.61c0,0.02,0,0.03,0,0.05v1.15C78.78,39.15,79.07,39.44,79.42,39.44z"
			/>
		<path id="Path_3047" class="st0" d="M81.99,39.44c0.33,0.02,0.62-0.23,0.64-0.56c0-0.03,0-0.06,0-0.08v-1.15
			c0.01-0.35-0.26-0.65-0.62-0.66c-0.36-0.01-0.65,0.26-0.67,0.61c0,0.02,0,0.03,0,0.05v1.15C81.37,39.14,81.65,39.41,81.99,39.44z"
			/>
		<path id="Path_3048" class="st0" d="M84.63,39.44c0.33,0.02,0.62-0.23,0.64-0.56c0-0.03,0-0.06,0-0.08v-1.15
			c0.01-0.35-0.26-0.65-0.62-0.66c-0.36-0.01-0.65,0.26-0.67,0.61c0,0.02,0,0.03,0,0.05v1.15C83.99,39.15,84.28,39.44,84.63,39.44z"
			/>
		<path id="Path_3049" class="st0" d="M85.21,14.08c0.33,0.02,0.62-0.23,0.64-0.56c0-0.03,0-0.06,0-0.08v-0.9
			c0.01-0.35-0.26-0.65-0.62-0.66c-0.36-0.01-0.65,0.26-0.67,0.61c0,0.02,0,0.03,0,0.05v0.9C84.59,13.78,84.87,14.05,85.21,14.08z"
			/>
		<path id="Path_3050" class="st0" d="M87.85,14.08c0.33,0.02,0.62-0.23,0.64-0.56c0-0.03,0-0.06,0-0.08v-0.9
			c0.01-0.35-0.26-0.65-0.62-0.66c-0.36-0.01-0.65,0.26-0.67,0.61c0,0.02,0,0.03,0,0.05v0.9C87.21,13.79,87.49,14.08,87.85,14.08z"
			/>
		<path id="Path_3051" class="st0" d="M90.42,14.08c0.33,0.02,0.62-0.23,0.64-0.56c0-0.03,0-0.06,0-0.08v-0.9
			c0.01-0.35-0.26-0.65-0.62-0.66c-0.36-0.01-0.65,0.26-0.67,0.61c0,0.02,0,0.03,0,0.05v0.9C89.8,13.78,90.08,14.05,90.42,14.08z"/>
		<path id="Path_3052" class="st0" d="M85.21,17.59c0.33,0.02,0.62-0.23,0.64-0.56c0-0.03,0-0.06,0-0.08v-0.9
			c-0.01-0.35-0.31-0.63-0.67-0.61c-0.34,0.01-0.6,0.28-0.62,0.61v0.9C84.57,17.3,84.86,17.59,85.21,17.59z"/>
		<path id="Path_3053" class="st0" d="M87.85,17.59c0.33,0.02,0.62-0.23,0.64-0.56c0-0.03,0-0.06,0-0.08v-0.9
			c-0.01-0.35-0.31-0.63-0.67-0.61c-0.34,0.01-0.6,0.28-0.62,0.61v0.9c-0.02,0.33,0.23,0.62,0.56,0.64
			C87.79,17.59,87.82,17.59,87.85,17.59z"/>
		<path id="Path_3054" class="st0" d="M90.42,17.59c0.33,0.02,0.62-0.23,0.64-0.56c0-0.03,0-0.06,0-0.08v-0.9
			c-0.01-0.35-0.31-0.63-0.67-0.61c-0.34,0.01-0.6,0.28-0.62,0.61v0.9C89.78,17.3,90.07,17.59,90.42,17.59z"/>
		<path id="Path_3055" class="st0" d="M90.42,21.17c0.33,0.02,0.62-0.23,0.64-0.56c0-0.03,0-0.06,0-0.08v-0.9
			c0.01-0.35-0.26-0.65-0.62-0.66c-0.36-0.01-0.65,0.26-0.67,0.61c0,0.02,0,0.03,0,0.05v0.9C89.78,20.88,90.07,21.17,90.42,21.17z"
			/>
		<path id="Path_3056" class="st0" d="M90.42,24.75c0.33,0.02,0.62-0.23,0.64-0.56c0-0.03,0-0.06,0-0.08v-0.9
			c-0.01-0.35-0.31-0.63-0.67-0.61c-0.34,0.01-0.6,0.28-0.62,0.61v0.9C89.78,24.46,90.07,24.74,90.42,24.75z"/>
		<path id="Path_3057" class="st0" d="M90.42,28.32c0.33,0.02,0.62-0.23,0.64-0.56c0-0.03,0-0.06,0-0.08v-0.9
			c0.01-0.35-0.26-0.65-0.62-0.66c-0.36-0.01-0.65,0.26-0.67,0.61c0,0.02,0,0.03,0,0.05v0.9C89.78,28.04,90.07,28.32,90.42,28.32z"
			/>
		<path id="Path_3058" class="st0" d="M90.42,31.9c0.33,0.02,0.62-0.23,0.64-0.56c0-0.03,0-0.06,0-0.08v-0.9
			c0.01-0.35-0.26-0.65-0.62-0.66c-0.36-0.01-0.65,0.26-0.67,0.61c0,0.02,0,0.03,0,0.05v0.9C89.78,31.61,90.07,31.9,90.42,31.9z"/>
		<path id="Path_3059" class="st0" d="M90.42,35.41c0.33,0.02,0.62-0.23,0.64-0.56c0-0.03,0-0.06,0-0.08v-0.9
			c0.01-0.35-0.26-0.65-0.62-0.66c-0.36-0.01-0.65,0.26-0.67,0.61c0,0.02,0,0.03,0,0.05v0.9C89.8,35.12,90.08,35.39,90.42,35.41z"/>
		<path id="Path_3060" class="st0" d="M90.42,38.99c0.33,0.02,0.62-0.23,0.64-0.56c0-0.03,0-0.06,0-0.08v-0.9
			c-0.01-0.35-0.31-0.63-0.67-0.61c-0.34,0.01-0.6,0.28-0.62,0.61v0.9C89.8,38.69,90.08,38.97,90.42,38.99z"/>
		<path id="Path_3061" class="st0" d="M90.42,42.57c0.33,0.02,0.62-0.23,0.64-0.56c0-0.03,0-0.06,0-0.08v-0.9
			c-0.01-0.35-0.31-0.63-0.67-0.61c-0.34,0.01-0.6,0.28-0.62,0.61v0.9C89.8,42.27,90.08,42.54,90.42,42.57z"/>
		<path id="Path_3062" class="st0" d="M68.42,16.57c0.33,0.02,0.62-0.23,0.64-0.56c0-0.03,0-0.06,0-0.08v-0.7
			c-0.01-0.35-0.31-0.63-0.67-0.61c-0.34,0.01-0.6,0.28-0.62,0.61v0.7c-0.02,0.33,0.23,0.62,0.56,0.64
			C68.36,16.57,68.39,16.57,68.42,16.57z"/>
		<path id="Path_3063" class="st0" d="M70.99,16.57c0.33,0.02,0.62-0.23,0.64-0.56c0-0.03,0-0.06,0-0.08v-0.7
			c-0.01-0.35-0.31-0.63-0.67-0.61c-0.34,0.01-0.6,0.28-0.62,0.61v0.7C70.35,16.28,70.64,16.57,70.99,16.57z"/>
		<path id="Path_3064" class="st0" d="M73.63,16.57c0.33,0.02,0.62-0.23,0.64-0.56c0-0.03,0-0.06,0-0.08v-0.7
			c-0.01-0.35-0.31-0.63-0.67-0.61c-0.34,0.01-0.6,0.28-0.62,0.61v0.7c-0.02,0.33,0.23,0.62,0.56,0.64
			C73.57,16.57,73.6,16.57,73.63,16.57z"/>
		<path id="Path_3065" class="st0" d="M68.42,19.38c0.33,0.02,0.62-0.23,0.64-0.56c0-0.03,0-0.06,0-0.08v-0.7
			c0.01-0.35-0.26-0.65-0.62-0.66c-0.36-0.01-0.65,0.26-0.67,0.61c0,0.02,0,0.03,0,0.05v0.7C67.77,19.09,68.06,19.38,68.42,19.38z"
			/>
		<path id="Path_3066" class="st0" d="M70.99,19.38c0.33,0.02,0.62-0.23,0.64-0.56c0-0.03,0-0.06,0-0.08v-0.7
			c0.01-0.35-0.26-0.65-0.62-0.66c-0.36-0.01-0.65,0.26-0.67,0.61c0,0.02,0,0.03,0,0.05v0.7C70.37,19.08,70.65,19.36,70.99,19.38z"
			/>
		<path id="Path_3067" class="st0" d="M73.63,19.38c0.33,0.02,0.62-0.23,0.64-0.56c0-0.03,0-0.06,0-0.08v-0.7
			c0.01-0.35-0.26-0.65-0.62-0.66c-0.36-0.01-0.65,0.26-0.67,0.61c0,0.02,0,0.03,0,0.05v0.7C72.99,19.09,73.27,19.38,73.63,19.38z"
			/>
		<path id="Path_3068" class="st0" d="M68.42,22.13c0.33,0.02,0.62-0.23,0.64-0.56c0-0.03,0-0.06,0-0.08v-0.7
			c0.01-0.35-0.26-0.65-0.62-0.66c-0.36-0.01-0.65,0.26-0.67,0.61c0,0.02,0,0.03,0,0.05v0.7c-0.02,0.33,0.23,0.62,0.56,0.64
			C68.36,22.13,68.39,22.13,68.42,22.13z"/>
		<path id="Path_3069" class="st0" d="M70.99,22.13c0.33,0.02,0.62-0.23,0.64-0.56c0-0.03,0-0.06,0-0.08v-0.7
			c0.01-0.35-0.26-0.65-0.62-0.66c-0.36-0.01-0.65,0.26-0.67,0.61c0,0.02,0,0.03,0,0.05v0.7C70.35,21.84,70.64,22.13,70.99,22.13z"
			/>
		<path id="Path_3070" class="st0" d="M73.63,22.13c0.33,0.02,0.62-0.23,0.64-0.56c0-0.03,0-0.06,0-0.08v-0.7
			c0.01-0.35-0.26-0.65-0.62-0.66c-0.36-0.01-0.65,0.26-0.67,0.61c0,0.02,0,0.03,0,0.05v0.7c-0.02,0.33,0.23,0.62,0.56,0.64
			C73.57,22.13,73.6,22.13,73.63,22.13z"/>
		<path id="Path_3071" class="st0" d="M73.63,25.26c0.33,0.02,0.62-0.23,0.64-0.56c0-0.03,0-0.06,0-0.08v-0.7
			c-0.01-0.35-0.31-0.63-0.67-0.61c-0.34,0.01-0.6,0.28-0.62,0.61v0.7C72.99,24.97,73.27,25.26,73.63,25.26z"/>
		<path id="Path_3072" class="st0" d="M73.63,28c0.33,0.02,0.62-0.23,0.64-0.56c0-0.03,0-0.06,0-0.08v-0.7
			c-0.01-0.35-0.31-0.63-0.67-0.61c-0.34,0.01-0.6,0.28-0.62,0.61v0.7c-0.02,0.33,0.23,0.62,0.56,0.64
			C73.57,28.01,73.6,28.01,73.63,28z"/>
		<path id="Path_3073" class="st0" d="M73.63,30.81c0.33,0.02,0.62-0.23,0.64-0.56c0-0.03,0-0.06,0-0.08v-0.7
			c0.01-0.35-0.26-0.65-0.62-0.66c-0.36-0.01-0.65,0.26-0.67,0.61c0,0.02,0,0.03,0,0.05v0.7C72.99,30.53,73.27,30.81,73.63,30.81z"
			/>
		<path id="Path_3074" class="st0" d="M73.63,33.56c0.33,0.02,0.62-0.23,0.64-0.56c0-0.03,0-0.06,0-0.08v-0.7
			c-0.01-0.35-0.31-0.63-0.67-0.61c-0.34,0.01-0.6,0.28-0.62,0.61v0.7c-0.02,0.33,0.23,0.62,0.56,0.64
			C73.57,33.56,73.6,33.56,73.63,33.56z"/>
		<path id="Path_3075" class="st0" d="M73.63,36.37c0.33,0.02,0.62-0.23,0.64-0.56c0-0.03,0-0.06,0-0.08v-0.7
			c0.01-0.35-0.26-0.65-0.62-0.66c-0.36-0.01-0.65,0.26-0.67,0.61c0,0.02,0,0.03,0,0.05v0.7C72.99,36.09,73.27,36.37,73.63,36.37z"
			/>
		<path id="Path_3076" class="st0" d="M73.63,39.12c0.33,0.02,0.62-0.23,0.64-0.56c0-0.03,0-0.06,0-0.08v-0.7
			c0.01-0.35-0.26-0.65-0.62-0.66c-0.36-0.01-0.65,0.26-0.67,0.61c0,0.02,0,0.03,0,0.05v0.7c-0.02,0.33,0.23,0.62,0.56,0.64
			C73.57,39.12,73.6,39.12,73.63,39.12z"/>
		<path id="Path_3077" class="st0" d="M73.63,41.93c0.33,0.02,0.62-0.23,0.64-0.56c0-0.03,0-0.06,0-0.08v-0.7
			c0.01-0.35-0.26-0.65-0.62-0.66c-0.36-0.01-0.65,0.26-0.67,0.61c0,0.02,0,0.03,0,0.05v0.7C72.99,41.64,73.27,41.93,73.63,41.93z"
			/>
		<path id="Path_3078" class="st0" d="M59.79,12.29c0,1.09,0.89,1.98,2,1.98s2-0.89,2-1.98s-0.89-1.98-2-1.98l0,0
			C60.69,10.31,59.8,11.2,59.79,12.29z M62.5,12.29c0,0.39-0.32,0.7-0.7,0.7c-0.39,0-0.7-0.31-0.7-0.7c0-0.39,0.32-0.7,0.7-0.7
			C62.18,11.6,62.49,11.91,62.5,12.29z"/>
		<path id="Path_3079" class="st0" d="M58.12,8.65c1.67,0,3.02-1.34,3.02-3c0-1.66-1.35-3-3.02-3c-1.67,0-3.02,1.34-3.02,3
			c0,0,0,0,0,0c0,1.65,1.35,3,3.01,3C58.11,8.65,58.12,8.65,58.12,8.65z M58.12,3.92c0.96,0,1.74,0.77,1.74,1.72
			c0,0.95-0.78,1.72-1.74,1.72s-1.74-0.77-1.74-1.72l0,0c0-0.95,0.77-1.72,1.72-1.73C58.11,3.92,58.12,3.92,58.12,3.92L58.12,3.92z"
			/>
	</g>
</g>
</svg>
