<?xml version="1.0" encoding="utf-8"?>
<!-- Generator: Adobe Illustrator 24.2.1, SVG Export Plug-In . SVG Version: 6.00 Build 0)  -->
<svg version="1.1" id="Layer_1" xmlns="http://www.w3.org/2000/svg" xmlns:xlink="http://www.w3.org/1999/xlink" x="0px" y="0px"
	 viewBox="0 0 100 24" style="enable-background:new 0 0 100 24;" xml:space="preserve">
<style type="text/css">
	.st0{fill:#FFFFFF;}
</style>
<g>
	<g>
		<g>
			<path class="st0" d="M12.08,13.13H8.1c-0.52,0-0.94-0.42-0.94-0.94c0-0.52,0.42-0.94,0.94-0.94h3.98c0.52,0,0.94,0.42,0.94,0.94
				C13.01,12.72,12.59,13.13,12.08,13.13z"/>
			<path class="st0" d="M19.18,13.13H15.2c-0.52,0-0.94-0.42-0.94-0.94c0-0.52,0.42-0.94,0.94-0.94h3.98c0.52,0,0.94,0.42,0.94,0.94
				C20.11,12.72,19.69,13.13,19.18,13.13z"/>
			<path class="st0" d="M4.92,13.13H0.94C0.42,13.13,0,12.72,0,12.2c0-0.52,0.42-0.94,0.94-0.94h3.98c0.52,0,0.94,0.42,0.94,0.94
				C5.85,12.72,5.43,13.13,4.92,13.13z"/>
		</g>
		<g>
			<g>
				<path class="st0" d="M19.18,5.75H15.2c-0.52,0-0.94-0.42-0.94-0.94s0.42-0.94,0.94-0.94h3.98c0.52,0,0.94,0.42,0.94,0.94
					S19.69,5.75,19.18,5.75z"/>
				<path class="st0" d="M12.02,5.75H8.04c-0.52,0-0.94-0.42-0.94-0.94s0.42-0.94,0.94-0.94h3.98c0.52,0,0.94,0.42,0.94,0.94
					S12.53,5.75,12.02,5.75z"/>
			</g>
			<path class="st0" d="M1.3,5.75H0.94C0.42,5.75,0,5.33,0,4.82s0.42-0.94,0.94-0.94H1.3c0.52,0,0.94,0.42,0.94,0.94
				S1.82,5.75,1.3,5.75z"/>
		</g>
		<g>
			<path class="st0" d="M8.47,9.44H8.1c-0.52,0-0.94-0.42-0.94-0.94S7.58,7.57,8.1,7.57h0.37c0.52,0,0.94,0.42,0.94,0.94
				S8.98,9.44,8.47,9.44z"/>
			<path class="st0" d="M12.02,9.44h-0.37c-0.52,0-0.94-0.42-0.94-0.94s0.42-0.94,0.94-0.94h0.37c0.52,0,0.94,0.42,0.94,0.94
				S12.53,9.44,12.02,9.44z"/>
			<path class="st0" d="M15.57,9.44H15.2c-0.52,0-0.94-0.42-0.94-0.94s0.42-0.94,0.94-0.94h0.37c0.52,0,0.94,0.42,0.94,0.94
				S16.08,9.44,15.57,9.44z"/>
			<path class="st0" d="M4.92,9.44H0.94C0.42,9.44,0,9.02,0,8.51s0.42-0.94,0.94-0.94h3.98c0.52,0,0.94,0.42,0.94,0.94
				S5.43,9.44,4.92,9.44z"/>
		</g>
		<g>
			<path class="st0" d="M8.47,20.12H8.1c-0.52,0-0.94-0.42-0.94-0.94c0-0.52,0.42-0.94,0.94-0.94h0.37c0.52,0,0.94,0.42,0.94,0.94
				C9.4,19.7,8.98,20.12,8.47,20.12z"/>
			<path class="st0" d="M12.02,20.12h-0.37c-0.52,0-0.94-0.42-0.94-0.94c0-0.52,0.42-0.94,0.94-0.94h0.37
				c0.52,0,0.94,0.42,0.94,0.94C12.95,19.7,12.53,20.12,12.02,20.12z"/>
			<path class="st0" d="M4.92,20.12H0.94C0.42,20.12,0,19.7,0,19.18c0-0.52,0.42-0.94,0.94-0.94h3.98c0.52,0,0.94,0.42,0.94,0.94
				C5.85,19.7,5.43,20.12,4.92,20.12z"/>
		</g>
		<g>
			<path class="st0" d="M1.3,16.43H0.94C0.42,16.43,0,16.01,0,15.49s0.42-0.94,0.94-0.94H1.3c0.52,0,0.94,0.42,0.94,0.94
				S1.82,16.43,1.3,16.43z"/>
			<path class="st0" d="M12.02,16.43h-0.37c-0.52,0-0.94-0.42-0.94-0.94s0.42-0.94,0.94-0.94h0.37c0.52,0,0.94,0.42,0.94,0.94
				S12.53,16.43,12.02,16.43z"/>
			<path class="st0" d="M15.57,16.43H15.2c-0.52,0-0.94-0.42-0.94-0.94s0.42-0.94,0.94-0.94h0.37c0.52,0,0.94,0.42,0.94,0.94
				S16.08,16.43,15.57,16.43z"/>
			<path class="st0" d="M8.47,16.43H4.49c-0.52,0-0.94-0.42-0.94-0.94s0.42-0.94,0.94-0.94h3.98c0.52,0,0.94,0.42,0.94,0.94
				S8.98,16.43,8.47,16.43z"/>
		</g>
	</g>
	<g>
		<path class="st0" d="M34.93,15.41h-7.94c0.33,1.02,1.23,1.63,2.54,1.63c1.02,0,1.89-0.53,2.03-0.94h3.26
			c-0.28,1.64-2.2,3.94-5.54,3.94c-3.42,0-5.87-2.31-5.87-5.61c0-3.54,2.75-5.73,5.87-5.73c3.1,0,5.73,2.17,5.73,5.47
			C35,14.48,34.98,14.88,34.93,15.41z M31.56,13.39c-0.02-1.07-0.98-1.77-2.21-1.77c-1.05,0-2.03,0.47-2.38,1.77H31.56z"/>
		<path class="st0" d="M54.24,13.99v5.5c0,0.19-0.15,0.35-0.35,0.35h-2.76c-0.19,0-0.35-0.15-0.35-0.35v-5.22
			c0-1.68-0.84-2.19-1.72-2.19c-1.05,0-1.84,0.56-1.86,2.28v5.13c0,0.19-0.15,0.35-0.35,0.35h-2.76c-0.19,0-0.35-0.15-0.35-0.35
			v-5.22c0-1.68-0.84-2.19-1.7-2.19c-0.93,0-1.89,0.37-1.89,2.19v5.22c0,0.19-0.15,0.35-0.35,0.35h-2.76
			c-0.19,0-0.35-0.15-0.35-0.35V9.33c0-0.19,0.15-0.35,0.35-0.35h2.76c0.19,0,0.35,0.15,0.35,0.35v1.66
			c0.28-1.58,1.84-2.28,2.93-2.28c1.61,0,2.82,0.75,3.45,2.05c0.75-1.47,2.42-2.05,3.56-2.05C52.85,8.71,54.24,10.66,54.24,13.99z"
			/>
		<path class="st0" d="M68.27,14.39c0,3.52-2.56,5.66-5.29,5.66c-1.12,0-2.56-0.42-3.35-1.42v0.87c0,0.19-0.15,0.35-0.35,0.35h-2.76
			c-0.19,0-0.35-0.15-0.35-0.35V4.29c0-0.19,0.15-0.35,0.35-0.35h2.76c0.19,0,0.35,0.15,0.35,0.35v5.86c0.79-1,2.24-1.42,3.35-1.42
			C65.71,8.73,68.27,10.87,68.27,14.39z M64.78,14.39c0-1.37-1.16-2.45-2.52-2.45c-1.3,0-2.52,1.05-2.52,2.45s1.19,2.45,2.52,2.45
			C63.61,16.83,64.78,15.76,64.78,14.39z"/>
		<path class="st0" d="M69.44,14.39c0-3.45,2.8-5.68,5.89-5.68c3.1,0,5.92,2.24,5.92,5.68c0,3.42-2.82,5.66-5.92,5.66
			C72.23,20.05,69.44,17.81,69.44,14.39z M77.73,14.39c0-1.49-1.07-2.49-2.4-2.49c-1.33,0-2.4,1-2.4,2.49s1.07,2.47,2.4,2.47
			C76.66,16.86,77.73,15.88,77.73,14.39z"/>
		<path class="st0" d="M83.19,3.95h2.76c0.19,0,0.35,0.15,0.35,0.35v15.2c0,0.19-0.15,0.35-0.35,0.35h-2.76
			c-0.19,0-0.35-0.15-0.35-0.35V4.29C82.84,4.1,83,3.95,83.19,3.95z"/>
		<path class="st0" d="M100,4.29v15.2c0,0.19-0.15,0.35-0.35,0.35h-2.73c-0.19,0-0.35-0.15-0.35-0.35V18.6
			c-0.79,1.02-2.26,1.44-3.38,1.44c-2.7,0-5.26-2.14-5.26-5.66c0-3.52,2.56-5.66,5.26-5.66c1.12,0,2.59,0.42,3.38,1.44V4.29
			c0-0.19,0.15-0.35,0.35-0.35h2.73C99.85,3.95,100,4.1,100,4.29z M96.44,14.39c0-1.4-1.19-2.45-2.49-2.45
			c-1.35,0-2.52,1.07-2.52,2.45c0,1.37,1.16,2.45,2.52,2.45C95.27,16.83,96.44,15.79,96.44,14.39z"/>
	</g>
</g>
</svg>
